<svg width="181" height="175" viewBox="0 0 181 175" fill="none" xmlns="http://www.w3.org/2000/svg">
<circle cx="90.1042" cy="87.1277" r="52.1277" fill="#EBFFDF"/>
<circle cx="89.7359" cy="87.5" r="24.9468" fill="#74C247"/>
<path d="M98.0591 81.1406L87.2978 91.902L82.4062 87.0105" stroke="white" stroke-width="4" stroke-linecap="round" stroke-linejoin="round"/>
<circle cx="3.35389" cy="97.181" r="1.8617" fill="#A2D087"/>
<circle cx="153.776" cy="110.585" r="1.8617" fill="#A2D087"/>
<circle cx="4.84043" cy="73.3512" r="4.84043" fill="#A2D087"/>
<circle cx="155.262" cy="86.7555" r="4.84043" fill="#A2D087"/>
<circle cx="30.1607" cy="45.7979" r="4.84043" fill="#A2D087"/>
<circle cx="117.286" cy="147.819" r="4.84043" fill="#A2D087"/>
<circle cx="142.606" cy="124.734" r="4.84043" fill="#A2D087"/>
<circle cx="24.9473" cy="129.202" r="4.09574" fill="#A2D087"/>
<circle cx="20.4786" cy="82.2871" r="4.09574" fill="#A2D087"/>
<circle cx="118.775" cy="26.4361" r="4.09574" fill="#A2D087"/>
<circle cx="176.861" cy="97.1807" r="4.09574" fill="#A2D087"/>
<circle cx="39.0957" cy="155.266" r="4.09574" fill="#A2D087"/>
<circle cx="159.731" cy="52.5001" r="4.84043" fill="#A2D087"/>
<circle cx="76.3326" cy="26.4361" r="4.84043" fill="#A2D087"/>
<circle cx="71.8639" cy="147.074" r="4.84043" fill="#A2D087"/>
<circle cx="75.9578" cy="162.341" r="3.7234" fill="#A2D087"/>
<circle cx="55.1037" cy="28.2981" r="2.97872" fill="#A2D087"/>
<circle cx="55.1037" cy="172.021" r="2.97872" fill="#A2D087"/>
<circle cx="129.947" cy="32.3936" r="4.09574" fill="#A2D087"/>
<circle cx="129.947" cy="150.798" r="4.09574" fill="#A2D087"/>
<circle cx="150.057" cy="28.6705" r="4.09574" fill="#A2D087"/>
<circle cx="150.057" cy="147.074" r="4.09574" fill="#A2D087"/>
<circle cx="98.299" cy="10.4255" r="2.97872" fill="#A2D087"/>
<circle cx="98.299" cy="154.149" r="2.97872" fill="#A2D087"/>
<circle cx="102.018" cy="26.0637" r="2.97872" fill="#A2D087"/>
<circle cx="102.018" cy="169.787" r="2.97872" fill="#A2D087"/>
<circle cx="40.2131" cy="18.6169" r="2.97872" fill="#A2D087"/>
<circle cx="37.2365" cy="105.745" r="2.97872" fill="#A2D087"/>
<circle cx="32.7678" cy="58.8298" r="2.97872" fill="#A2D087"/>
<circle cx="131.065" cy="2.97872" r="2.97872" fill="#A2D087"/>
<circle cx="51.385" cy="131.808" r="2.97872" fill="#A2D087"/>
<circle cx="56.5959" cy="7.44699" r="2.97872" fill="#A2D087"/>
<circle cx="56.5959" cy="151.17" r="2.97872" fill="#A2D087"/>
<circle cx="30.1586" cy="56.2235" r="1.8617" fill="#A2D087"/>
<circle cx="117.284" cy="158.245" r="1.8617" fill="#A2D087"/>
<circle cx="142.604" cy="135.16" r="1.8617" fill="#A2D087"/>
<ellipse cx="22.7133" cy="137.766" rx="1.8617" ry="1.48936" fill="#A2D087"/>
<ellipse cx="18.2445" cy="90.8512" rx="1.8617" ry="1.48936" fill="#A2D087"/>
<ellipse cx="116.541" cy="35.0001" rx="1.8617" ry="1.48936" fill="#A2D087"/>
<ellipse cx="174.627" cy="105.745" rx="1.8617" ry="1.48936" fill="#A2D087"/>
<ellipse cx="36.8617" cy="163.83" rx="1.8617" ry="1.48936" fill="#A2D087"/>
<circle cx="159.737" cy="62.9257" r="1.8617" fill="#A2D087"/>
<circle cx="23.0831" cy="110.213" r="1.48936" fill="#A2D087"/>
<circle cx="18.6144" cy="63.298" r="1.48936" fill="#A2D087"/>
<circle cx="116.911" cy="7.44688" r="1.48936" fill="#A2D087"/>
<circle cx="174.997" cy="78.1915" r="1.48936" fill="#A2D087"/>
<circle cx="37.2315" cy="136.276" r="1.48936" fill="#A2D087"/>
<circle cx="175.37" cy="123.989" r="1.8617" fill="#A2D087"/>
<circle cx="19.7367" cy="42.8192" r="1.8617" fill="#A2D087"/>
<circle cx="106.862" cy="144.84" r="1.8617" fill="#A2D087"/>
<circle cx="132.182" cy="121.755" r="1.8617" fill="#A2D087"/>
<circle cx="16.38" cy="134.787" r="1.48936" fill="#A2D087"/>
<circle cx="11.9112" cy="87.8722" r="1.48936" fill="#A2D087"/>
<circle cx="110.216" cy="32.0211" r="1.48936" fill="#A2D087"/>
<circle cx="168.294" cy="102.766" r="1.48936" fill="#A2D087"/>
<circle cx="30.5284" cy="160.851" r="1.48936" fill="#A2D087"/>
<circle cx="149.307" cy="49.5214" r="1.8617" fill="#A2D087"/>
<circle cx="39.8383" cy="39.0956" r="1.8617" fill="#A2D087"/>
<circle cx="36.8617" cy="126.224" r="1.8617" fill="#A2D087"/>
<circle cx="32.393" cy="79.3085" r="1.8617" fill="#A2D087"/>
<circle cx="130.69" cy="23.4574" r="1.8617" fill="#A2D087"/>
<circle cx="51.0101" cy="152.287" r="1.8617" fill="#A2D087"/>
</svg>
