<svg width="503" height="431" viewBox="0 0 503 431" fill="none" xmlns="http://www.w3.org/2000/svg">
<path d="M493.21 371.212C487.125 369.18 493.211 347.682 481.041 342.548C468.765 337.521 457.876 329.179 454.567 320.088C451.471 311.852 436.206 303.724 437.273 297.52C438.234 291.424 467.91 271.958 463.747 260.728C459.691 249.498 440.263 251.53 438.234 247.465C436.206 243.401 439.302 229.069 434.178 217.839C429.054 206.609 438.234 196.341 434.178 190.245C430.121 184.148 436.206 171.848 437.273 167.784C438.234 163.72 448.482 157.623 447.415 147.356C446.774 141.152 449.87 137.195 453.179 135.591C449.656 125.216 448.589 107.141 448.589 103.932C448.589 100.082 436.42 100.082 430.228 100.83C424.144 101.686 418.806 86.2846 412.614 86.2846C406.53 86.2846 401.192 81.6856 401.192 77.0865C401.192 72.4874 386.674 69.4927 379.095 70.2414C371.409 70.9901 369.915 64.1449 366.819 64.1449C363.723 64.1449 351.553 60.2946 347.71 55.6955C343.867 51.0965 321.77 49.599 317.927 54.9468C314.084 60.2945 306.505 57.2998 299.567 57.2998C292.735 57.2998 280.458 67.9953 276.722 73.343C274.374 76.6586 263.485 77.3004 255.372 77.4074C255.692 84.0386 255.692 89.2794 254.518 90.9907C250.568 96.9801 220.892 102.435 198.795 103.29C176.698 104.039 175.096 74.9474 151.504 74.9474C134.317 74.9474 121.187 59.2251 120.226 44.3583C109.978 40.401 100.264 33.7697 101.759 30.8819C103.787 26.8176 108.805 1.25547 96.6352 7.3519C84.3589 13.4483 67.0655 32.9142 44.6481 29.8125C22.2306 26.7108 38.5634 24.6787 27.3547 19.6518C16.1459 14.6249 23.2976 2.21809 12.0889 0.185945C0.880142 -1.8462 8.99328 13.4484 2.90854 13.4484C-3.17619 13.4484 1.84144 30.7751 3.97643 34.8394C6.00468 39.0106 -0.186808 61.3642 3.97643 62.4337C8.03292 63.5033 17.213 79.8673 16.2523 82.862C15.1848 85.9637 25.4326 96.1244 25.4326 103.29C25.4326 110.456 34.6134 118.692 39.7374 118.692C44.8613 118.692 52.0138 121.794 49.9856 127.89C47.9573 133.986 52.9741 143.185 46.8894 143.185C40.8047 143.185 41.7653 160.618 36.748 163.613C31.6241 166.715 35.6809 185.111 39.7374 187.143C43.7938 189.175 52.9746 194.309 52.0138 201.475C50.9463 208.641 73.4705 219.871 80.6227 220.941C87.7749 221.903 88.7353 232.171 92.8985 236.235C96.955 240.3 89.8028 248.535 90.8703 253.562C91.9378 258.696 101.012 262.76 100.051 270.996C99.5175 275.916 107.737 284.151 114.676 291.317C116.918 290.675 119.159 290.247 120.974 290.247C127.913 290.247 127.485 282.654 132.823 287.253C138.16 291.852 145.42 286.825 150.757 286.504C156.095 286.183 170.613 313.671 177.124 327.04C183.636 340.409 183.209 345.008 192.069 350.784C200.823 356.559 210.751 353.458 223.347 366.506C235.944 379.555 268.396 388.325 282.166 389.074C295.937 389.822 306.185 374.207 323.798 377.629C341.412 381.052 337.142 403.62 343.654 411.748C350.165 419.77 421.581 425.117 433.751 428.647C438.234 429.93 448.909 430.679 460.759 431C460.438 428.433 460.225 426.08 460.118 424.583C459.051 412.283 468.337 402.122 476.45 398.058C484.563 393.887 491.716 391.961 499.936 390.892C507.515 389.608 499.402 373.244 493.21 371.212Z" fill="#EBEBEB"/>
</svg>
