<svg width="118" height="108" viewBox="0 0 118 108" fill="none" xmlns="http://www.w3.org/2000/svg">
<path d="M18.8726 97.2168C35.8352 109.514 58.9401 108.318 73.3128 104.484C83.6355 101.731 88.307 97.2168 88.307 97.2168C99.8858 87.4189 107.233 72.8118 107.233 56.4963C107.233 29.4272 87.0114 7.06091 60.79 3.55762C62.8085 4.21842 64.7927 4.971 66.7321 5.82322C69.1824 6.89964 71.5656 8.12291 73.8435 9.51531C76.12 10.909 78.2951 12.464 80.3175 14.1933C82.336 15.9266 84.199 17.8343 85.8462 19.9059C87.4867 21.9827 88.9008 24.226 90.0424 26.5912C88.7481 24.3046 87.201 22.1754 85.4525 20.2349C83.6974 18.2998 81.7514 16.552 79.6723 14.9892C77.5894 13.4303 75.376 12.0562 73.0798 10.8474C70.7822 9.63986 68.3977 8.60671 65.9645 7.72039C63.53 6.83408 61.0415 6.10511 58.524 5.52297C56.0066 4.94084 53.4588 4.50555 50.9045 4.23284C48.5937 3.98897 46.2738 3.87097 43.9841 3.93391C22.3012 7.83446 5.15163 24.7163 0.939613 46.2067L1.02651 46.2146C0.473514 49.7979 0.332631 53.4795 0.626248 57.1453C0.922498 60.8099 1.65456 64.4653 2.89618 67.966C4.1378 71.4627 5.8995 74.8112 8.24711 77.7626C9.42026 79.2376 10.7396 80.609 12.1945 81.8414C13.6494 83.0739 15.2426 84.1647 16.9437 85.0851C15.1385 84.3889 13.394 83.5013 11.7508 82.4367C10.1062 81.3734 8.5618 80.1357 7.14375 78.759C5.49002 77.1568 4.0114 75.3685 2.70526 73.4529C5.84156 82.7907 11.4993 90.9786 18.8726 97.2168Z" fill="#F2E9E4"/>
<path d="M71.1141 81.1401C71.1141 81.1401 70.4136 84.2199 65.9844 86.9051C66.1108 86.9864 66.2359 87.069 66.3609 87.1516C66.6717 87.3535 66.9798 87.5594 67.2892 87.7639C70.9429 84.8886 72.1082 81.7551 72.1082 81.7551C76.8469 83.6168 85.3275 81.0694 86.9457 76.5775C84.6481 77.7863 78.677 77.9646 79.0194 76.1776C79.3617 74.3919 82.9799 76.0832 82.9799 76.0832C82.9799 76.0832 88.9457 78.0433 90.2203 68.6702C86.7324 70.3379 82.4111 71.531 82.4506 69.8475C82.5191 66.8844 85.8766 69.7269 88.7337 67.8009C90.5191 66.5973 91.8477 63.0979 91.4922 60.3931C89.0155 63.9672 85.1669 64.3828 85.4737 63.073C86.0596 60.5728 88.5836 61.8445 90.8325 59.398C93.3065 54.9887 88.1807 48.6836 88.1807 48.6836C88.1807 48.6836 85.9029 52.748 82.1794 52.3783C82.1794 52.3783 83.1682 58.5563 81.5263 57.4208C79.8844 56.2854 80.153 52.0164 80.153 52.0164C80.153 52.0164 78.3953 53.2961 76.7718 55.2824C74.835 57.6529 76.1332 60.6134 76.1332 60.6134C76.1332 60.6134 78.5441 65.3622 77.2208 65.7962C75.8976 66.2302 73.8607 60.2332 74.5322 58.1669C71.8119 58.0344 68.9205 63.2225 71.5894 66.5894C73.6342 69.1697 74.7665 70.802 73.7619 71.868C72.9166 72.7648 70.648 70.9384 70.0344 68.5705C69.3406 65.8906 69.6855 62.6863 69.6855 62.6863C60.8625 73.1961 71.1141 81.1401 71.1141 81.1401Z" fill="#74C247"/>
<path d="M40.642 85.0759C40.642 85.0759 42.1088 87.8751 47.0792 89.3462C46.9791 89.4576 46.8777 89.5691 46.7777 89.6805C46.5288 89.9545 46.2839 90.2312 46.0377 90.5078C41.7691 88.6565 39.8375 85.9229 39.8375 85.9229C35.7321 88.9266 26.8802 88.6185 24.1639 84.6865C26.6945 85.2712 32.5142 83.926 31.7255 82.2871C30.9368 80.6469 27.8716 83.2023 27.8716 83.2023C27.8716 83.2023 22.605 86.6125 18.9723 77.8739C22.7722 78.6003 27.2555 78.6554 26.7867 77.0375C25.9612 74.1897 23.4437 77.7913 20.1863 76.6546C18.1507 75.944 15.9703 72.8983 15.6214 70.1935C18.9315 73.0202 22.759 72.4446 22.127 71.2555C20.9196 68.9872 18.8051 70.8569 16.0045 69.0633C12.4824 65.4289 15.8228 58.0303 15.8228 58.0303C15.8228 58.0303 19.0671 61.3815 22.5721 60.0782C22.5721 60.0782 23.1988 66.3021 24.4957 64.7877C25.7926 63.2734 24.4391 59.2142 24.4391 59.2142C24.4391 59.2142 26.4668 60.0048 28.5445 61.5126C31.0238 63.3127 30.5274 66.5053 30.5274 66.5053C30.5274 66.5053 29.4135 71.7091 30.8039 71.793C32.1943 71.8769 32.6275 65.56 31.449 63.7323C34.0455 62.9128 38.1706 67.1949 36.4537 71.1283C35.1383 74.1425 34.4616 76.0095 35.7058 76.7844C36.7539 77.4373 38.4787 75.0944 38.4655 72.6479C38.4497 69.8801 37.295 66.8698 37.295 66.8698C48.5183 74.7902 40.642 85.0759 40.642 85.0759Z" fill="#74C247"/>
<path d="M71.866 90.1499C71.866 90.1499 69.0562 90.8317 66.6639 94.8922C66.5875 94.7794 66.5098 94.6667 66.4334 94.5539C66.2438 94.2747 66.0516 93.998 65.8594 93.7214C68.4374 90.3623 71.2893 89.257 71.2893 89.257C69.5158 84.9828 71.7212 77.246 75.8107 75.7106C74.7377 77.815 74.6626 83.2377 76.294 82.9008C77.924 82.5638 76.3216 79.3044 76.3216 79.3044C76.3216 79.3044 74.4401 73.9171 83.0011 72.6217C81.5251 75.8129 80.4981 79.7528 82.0386 79.6925C84.7496 79.5863 82.0978 76.5799 83.82 73.9577C84.8957 72.3188 88.0794 71.0615 90.5614 71.3433C87.325 73.6443 87.0024 77.145 88.1966 76.8461C90.4771 76.277 89.2763 74.0036 91.4817 71.9268C95.4817 69.6153 101.33 74.1753 101.33 74.1753C101.33 74.1753 97.6424 76.3033 98.0361 79.6781C98.0361 79.6781 92.3652 78.8717 93.4291 80.3454C94.4929 81.8191 98.3968 81.5123 98.3968 81.5123C98.3968 81.5123 97.2513 83.1276 95.4567 84.6301C93.3158 86.4224 90.5851 85.2883 90.5851 85.2883C90.5851 85.2883 86.2019 83.1696 85.824 84.3771C85.4461 85.5846 90.9669 87.3454 92.8497 86.7056C93.0117 89.1731 88.3046 91.8753 85.1815 89.5022C82.7891 87.6837 81.2775 86.6807 80.3164 87.6077C79.5079 88.3891 81.213 90.4213 83.3908 90.9431C85.8543 91.5331 88.7825 91.1739 88.7825 91.1739C79.292 99.3382 71.866 90.1499 71.866 90.1499Z" fill="#A2D087"/>
<path d="M46.548 94.2247C46.548 94.2247 49.4302 93.9901 52.9852 97.0935C53.022 96.9624 53.0602 96.8312 53.0971 96.6988C53.1893 96.375 53.2841 96.0511 53.3775 95.7286C49.8673 93.3489 46.8126 93.1955 46.8126 93.1955C47.1444 88.5817 42.6019 81.9318 38.2359 81.7574C39.9199 83.4173 41.7066 88.5411 40.0529 88.7325C38.3991 88.9239 38.8876 85.3276 38.8876 85.3276C38.8876 85.3276 38.9692 79.6242 30.4346 81.0809C32.8441 83.6467 35.0666 87.0635 33.5854 87.4896C30.9784 88.2395 32.5439 84.5553 30.0804 82.6057C28.5412 81.3877 25.1219 81.1936 22.8559 82.2399C26.6545 83.4081 28.0699 86.6295 26.8414 86.72C24.4978 86.8943 24.9178 84.3613 22.1673 83.0829C17.6392 82.1442 13.5312 88.3077 13.5312 88.3077C13.5312 88.3077 17.7038 89.1704 18.399 92.4967C18.399 92.4967 23.5261 89.9531 22.9823 91.6851C22.4398 93.4171 18.6373 94.3506 18.6373 94.3506C18.6373 94.3506 20.2357 95.5241 22.4135 96.3868C25.0126 97.416 27.2457 95.4834 27.2457 95.4834C27.2457 95.4834 30.7348 92.0981 31.4761 93.1247C32.2161 94.1513 27.534 97.5563 25.5458 97.5379C26.1726 99.9307 31.4959 101.018 33.7079 97.787C35.4037 95.3117 36.5202 93.8839 37.725 94.4634C38.7401 94.9511 37.7645 97.4147 35.8619 98.5934C33.7105 99.9268 30.8164 100.504 30.8164 100.504C42.4084 105.275 46.548 94.2247 46.548 94.2247Z" fill="#A2D087"/>
<path d="M82.2061 92.593L81.0527 85.8867L70.5036 24.5791L69.3502 17.8728C69.0078 15.8825 67.1092 14.5452 65.1105 14.8861L26.7573 21.4298L25.5512 21.6068C23.5525 21.9477 21.4683 24.8676 21.8106 26.8578L22.964 33.5642L33.5118 94.873L34.6652 101.579C35.0075 103.57 36.9062 104.907 38.9049 104.566L78.4365 97.9305C80.1679 97.6355 81.8743 96.0556 82.0784 94.3433C82.2574 93.7966 82.3101 93.2 82.2061 92.593Z" fill="#13192B"/>
<path d="M23.608 25.6396L24.7627 32.3459L35.3105 93.6535L36.4639 100.36C36.8062 102.351 38.7049 103.689 40.7036 103.346L79.3438 96.7555C81.3425 96.4133 82.6855 94.524 82.3432 92.5324L81.1884 85.8274L70.6406 24.5186L69.4872 17.8122C69.1449 15.822 67.2463 14.4846 65.2462 14.8255L26.6073 21.4178C24.6086 21.7587 23.2656 23.6493 23.608 25.6396ZM27.6054 22.4352L44.3613 19.5757C44.6312 19.7278 45.096 20.1185 45.2592 21.0612C45.3949 21.8505 46.0822 22.4077 46.8603 22.4077C46.9512 22.4077 47.0433 22.3998 47.1368 22.3841C48.0216 22.2333 48.6167 21.3968 48.4653 20.5144C48.2915 19.5062 48.4996 19.0447 48.6997 18.8362L65.5715 15.957C65.7268 15.9308 65.8822 15.9177 66.0362 15.9177C67.3424 15.9177 68.4984 16.8551 68.7262 18.1807L69.3319 21.701L69.4622 22.4549L70.0679 25.9765L79.8757 82.9771L80.4814 86.4987L80.6104 87.2526L81.2161 90.7729C81.4715 92.2545 80.4722 93.6613 78.9843 93.9157L41.0183 100.393C40.8616 100.419 40.7062 100.432 40.5535 100.432C39.246 100.432 38.09 99.4958 37.8622 98.1689L37.2565 94.6486L37.1275 93.8947L36.5205 90.3744L26.714 33.3725L26.1083 29.8522L25.978 29.0983L25.3723 25.5766C25.1182 24.0951 26.1175 22.6883 27.6054 22.4352Z" fill="white"/>
<path d="M25.3754 25.5764L25.9811 29.0981L26.1114 29.852L26.7171 33.3723L36.5236 90.3742L37.1306 93.8945L37.2596 94.6484L37.8653 98.1687C38.0931 99.4956 39.2491 100.432 40.5566 100.432C40.7093 100.432 40.8647 100.419 41.0214 100.392L78.9874 93.9155C80.4753 93.6611 81.4746 92.2543 81.2192 90.7728L80.6135 87.2524L80.4845 86.4985L79.8788 82.9769L70.071 25.9763L69.4653 22.4547L69.335 21.7008L68.7293 18.1805C68.5015 16.8549 67.3455 15.9175 66.0394 15.9175C65.8853 15.9175 65.7299 15.9306 65.5746 15.9568L48.7028 18.836C48.5027 19.0445 48.2946 19.506 48.4684 20.5142C48.6198 21.3966 48.0247 22.2331 47.1399 22.3839C47.0464 22.3996 46.9543 22.4075 46.8634 22.4075C46.0853 22.4075 45.398 21.8503 45.2623 21.061C45.0991 20.1183 44.6343 19.7276 44.3644 19.5755L27.6085 22.435C26.1206 22.6881 25.1213 24.0949 25.3754 25.5764Z" fill="#FFCC59"/>
<path d="M47.4837 20.5982C47.5522 20.9942 47.2849 21.3718 46.8859 21.4386C46.4883 21.5068 46.1091 21.2407 46.0419 20.8434C45.9735 20.4474 46.2408 20.0698 46.6397 20.003C47.0373 19.9361 47.4152 20.2023 47.4837 20.5982Z" fill="#0B60DD"/>
<path d="M91.7382 57.843L74.5781 51.0986L74.6031 63.2657L91.8475 67.9844L91.7382 57.843Z" fill="#13192B"/>
<path d="M79.206 59.0111C79.206 59.0111 79.1125 55.4593 77.0058 52.3703L76.7306 52.2681L74.6016 63.2644L91.8473 67.983L91.792 62.9195C91.5931 62.8946 79.206 59.0111 79.206 59.0111Z" fill="#B9CED8"/>
<path d="M63.9505 86.9876C61.4067 86.3583 58.876 85.6569 56.4139 84.7574C54.9313 84.216 53.4527 83.626 52.0109 82.9861C51.6133 82.8091 51.2262 82.6151 50.8628 82.3765L41.1484 100.37L72.7326 95.0431L73.5911 89.2192C70.3679 88.5203 67.1513 87.7809 63.9505 86.9876Z" fill="#672B3A"/>
<path d="M60.88 95.6711C59.4132 95.1349 53.4356 83.6194 52.0109 82.9861C51.6133 82.8091 51.2262 82.6151 50.8628 82.3765L41.1484 100.37L48.4072 99.1456C49.1643 98.0416 51.055 93.989 51.055 93.989C51.055 93.989 60.6891 96.2769 60.88 95.6711Z" fill="#B2B2B2"/>
<path d="M49.3167 85.1494L47.7801 85.9243C45.5602 88.9241 46.5464 90.5551 46.5464 90.5551C46.5464 90.5551 50.8045 93.5969 60.2977 96.0697C61.6064 96.4105 64.2398 96.4433 64.2398 96.4433L73.3906 94.9015C73.3906 94.9015 73.6237 94.7297 73.1233 91.5725L49.3167 85.1494Z" fill="#E30613"/>
<path d="M48.7656 91.375C49.1633 91.5874 49.6294 91.8247 50.1705 92.0817L52.2298 85.9221L50.7248 85.5156L48.7656 91.375Z" fill="#B9CED8"/>
<path d="M54.5217 86.5393L53.0168 86.1328L50.9141 92.4235C51.3525 92.6215 51.8305 92.8273 52.3479 93.0397L54.5217 86.5393Z" fill="#B9CED8"/>
<path d="M56.8093 87.1584L55.3044 86.752L53.1016 93.3455C53.5598 93.5252 54.0469 93.7074 54.5604 93.891L56.8093 87.1584Z" fill="#B9CED8"/>
<path d="M67.9091 90.2291C67.9078 90.2042 67.9091 90.1779 67.9078 90.153L66.7584 89.8423L64.8281 95.6164L72.2607 93.2826C72.262 93.2826 67.9842 91.8916 67.9091 90.2291Z" fill="#B9CED8"/>
<path d="M64.4712 89.2246L62.25 95.8706C63.1019 95.9283 63.8142 95.9375 63.8142 95.9375L63.8748 95.9178L65.9762 89.6311L64.4712 89.2246Z" fill="#B9CED8"/>
<path d="M59.1017 87.7756L57.5967 87.3691L55.3281 94.1581C55.7995 94.3193 56.2919 94.4819 56.8067 94.6432L59.1017 87.7756Z" fill="#B9CED8"/>
<path d="M49.9369 85.3031L49.6683 85.231L48.2121 85.9665C46.1081 88.8103 47.0429 90.3561 47.0429 90.3561C47.0429 90.3561 47.3694 90.5882 48.0409 90.9749L49.9369 85.3031Z" fill="#B9CED8"/>
<path d="M63.6842 89.0124L62.1793 88.606L59.8672 95.526C59.9383 95.5444 60.0068 95.564 60.0779 95.5824C60.4465 95.6781 60.9258 95.7489 61.4169 95.8L63.6842 89.0124Z" fill="#B9CED8"/>
<path d="M61.3951 88.3947L59.8901 87.9883L57.5859 94.8834C58.0665 95.0276 58.5669 95.1719 59.083 95.3148L61.3951 88.3947Z" fill="#B9CED8"/>
<path d="M68.4758 40.8997L61.9885 35.4219L60.477 45.8688L48.3281 48.0557C48.3281 48.0557 52.9207 60.7814 60.3098 61.6756C62.8694 61.985 67.9056 63.047 68.5692 61.8355C69.2328 60.6241 76.5535 52.2775 76.5535 52.2775L68.9037 48.0085L68.4758 40.8997Z" fill="url(#paint0_linear_3040_13445)"/>
<path d="M62.4875 42.6722C62.4875 42.6722 64.4374 45.377 65.5184 47.0631C66.6007 48.7492 67.9358 48.3467 68.136 47.7724C68.3361 47.1981 68.4743 40.8982 68.4743 40.8982L61.9871 35.4204L60.4756 45.8673L60.4453 47.1273L67.2801 55.4817L62.2702 45.0663L62.4875 42.6722Z" fill="#FFD1CD"/>
<path d="M50.3297 79.2535L47.4106 85.3514L47.3869 86.8959C48.5785 88.03 60.7182 93.1158 64.6115 93.4554C68.5036 93.7963 72.8038 93.1447 73.4293 92.7658L74.1205 91.275L74.1561 82.4932C74.1561 82.4932 81.7006 62.8646 76.8539 51.9732L69.7939 48.3152L66.9657 54.1758L60.4548 45.8228L47.799 48.1395L38.0978 62.563L34.4375 66.3954L40.2861 73.3168L47.9886 65.4619L50.3297 79.2535Z" fill="#13192B"/>
<path d="M90.1231 57.2085L76.8642 51.9968C76.8616 51.9889 76.8577 51.9824 76.855 51.9745L70.3125 48.584C71.4488 50 77.8333 52.7179 77.8333 52.7179C77.8333 52.7179 87.5095 56.6631 90.1231 57.2085Z" fill="white"/>
<path d="M72.3277 84.0405C74.8715 81.7907 76.9005 71.6007 76.8333 69.4793C76.7701 67.4851 72.0156 66.2396 72.0156 66.2396C72.0156 66.2396 76.5213 67.0498 77.2718 66.4887C78.0223 65.9275 77.8076 64.2257 77.8959 61.3649C78.0183 57.3988 77.1322 52.878 77.148 52.6958C81.3942 63.7052 74.1631 82.521 74.1631 82.521L74.2039 91.1913L73.2019 83.5541L72.3277 84.0405Z" fill="white"/>
<path d="M47.9639 84.195L47.4109 85.3514L47.3951 86.3623L47.3648 86.9969C47.3648 86.9969 47.8744 87.2748 48.7131 87.7035C48.8553 87.777 49.0054 87.853 49.166 87.933C51.3069 89.0094 54.9896 90.7466 58.1628 91.6723C60.5815 92.5363 62.8488 93.222 64.2761 93.4174C64.1563 93.3492 64.0509 93.2495 63.9193 93.205C47.2332 87.4872 50.0772 85.7185 49.5242 85.3488L51.9047 80.7022L54.0983 81.5335L52.3958 69.4266C53.7612 66.7979 57.386 66.1056 60.8896 65.5576C60.8896 65.5576 54.1944 64.8063 53.4913 62.0018C52.7869 59.1974 53.7981 55.4659 50.7171 49.7456L57.7138 46.3013L47.6584 48.108C47.6584 48.108 50.3642 54.8982 47.798 59.8201L41.7598 67.5151L40.2891 73.1371L48.0219 65.4776L50.3484 79.2665L47.9758 84.2016C47.9705 84.2002 47.9666 84.1976 47.9639 84.195Z" fill="#B9CED8"/>
<path d="M59.6459 33.9258C59.5814 34.2194 59.7776 35.8387 59.4827 35.7744C59.1877 35.7102 58.6124 34.0084 58.6769 33.7134C58.7414 33.4197 58.9336 33.2112 59.2286 33.2768C59.5248 33.341 59.7118 33.6321 59.6459 33.9258Z" fill="#FFD1CD"/>
<path d="M73.0267 46.8861C72.7687 45.4163 71.5126 44.4775 70.5422 43.9465L70.3618 43.8613L68.6409 44.2035L68.8963 47.9402L66.8516 54.1037C66.8516 54.1037 66.8595 54.3777 67.3335 53.9831C67.8061 53.5885 73.4573 49.3391 73.0267 46.8861Z" fill="#E30613"/>
<path d="M67.4453 52.305C67.9944 51.677 70.9845 49.0325 71.078 47.349C71.1715 45.6669 69.9838 44.6534 69.7863 44.0739C69.7758 44.0424 69.7666 44.011 69.7561 43.9795L68.6369 44.2024L68.8923 47.939L67.4453 52.305Z" fill="#B9CED8"/>
<path d="M73.3265 47.4226C73.4463 46.1574 72.4601 44.7597 70.5694 43.8931L70.5339 43.9494C71.5016 44.4831 72.7669 45.4271 73.0224 46.8863C73.4529 49.3394 67.2422 54.045 67.2422 54.045C67.2422 54.045 73.0566 50.2703 73.3265 47.4226Z" fill="#F4F7FF"/>
<path d="M66.9532 54.198L60.7504 44.5076L61.1902 40.8758C61.1902 40.8758 56.8965 39.6774 55.3666 41.0082C53.8366 42.339 54.674 44.7344 54.674 44.7344L58.8123 49.7796L66.9532 54.198Z" fill="#E30613"/>
<path d="M57.0507 47.6298C56.3173 46.7553 55.8012 45.9673 55.4391 45.2029C54.3805 42.9675 55.1389 41.5515 55.4576 41.2696C57.0784 39.8391 60.8625 41.0034 61.1614 40.8317L60.5452 40.7215C59.2891 40.4475 56.528 39.9965 55.3641 41.0087C55.0612 41.2722 54.8532 41.579 54.711 41.8989C54.711 41.8976 54.711 41.895 54.711 41.8937C54.7044 41.9094 54.6992 41.9251 54.6926 41.9422C54.6689 41.9972 54.6478 42.051 54.6281 42.1074C54.6189 42.1336 54.6096 42.1598 54.6017 42.1873C54.5846 42.2398 54.5688 42.2935 54.5556 42.346C54.5477 42.3748 54.5412 42.4024 54.5346 42.4312C54.5227 42.4837 54.5122 42.5348 54.503 42.5859C54.4977 42.6148 54.4925 42.6436 54.4885 42.6725C54.4859 42.6869 54.4832 42.7026 54.4806 42.717C54.4819 42.7157 54.4819 42.7144 54.4832 42.7144C54.3344 43.7646 54.6715 44.7361 54.6715 44.7361C54.6715 44.7361 54.9823 45.49 55.638 46.6556C57.5616 50.0776 63.3813 52.2934 63.3813 52.2934C63.3813 52.2934 58.8269 49.7472 57.0507 47.6298Z" fill="#AA050E"/>
<path d="M67.7477 54.7695L67.6832 54.7551L67.7477 54.7695L67.6832 54.7551L67.7477 54.7695C67.7477 54.7709 67.7161 54.9164 67.7096 55.1406C67.699 55.4762 67.7438 55.9836 68.015 56.4465C68.1506 56.6785 68.3429 56.9014 68.6167 57.0941C68.8906 57.2869 69.2487 57.4495 69.7201 57.5517C69.7978 57.5688 69.8794 57.5845 69.9637 57.5976C70.0598 57.6133 70.152 57.6304 70.2428 57.6501C70.884 57.7903 71.3831 58.0342 71.7688 58.3266C72.1546 58.619 72.4245 58.9599 72.6128 59.2903C72.6589 59.3715 72.6299 59.4751 72.5483 59.521C72.4667 59.5669 72.3627 59.5381 72.3166 59.4568C72.148 59.1605 71.9071 58.8576 71.5621 58.5967C71.2172 58.3345 70.7655 58.1129 70.1691 57.9818C70.0848 57.9634 69.9979 57.9464 69.9084 57.9319C69.8189 57.9175 69.7306 57.9005 69.6464 57.8821C68.963 57.7327 68.4706 57.4586 68.1256 57.1282C67.8662 56.8804 67.6924 56.6025 67.5779 56.3271C67.4054 55.9141 67.3659 55.509 67.3672 55.2075C67.3699 54.9046 67.4133 54.704 67.4146 54.6948C67.4344 54.603 67.5252 54.5453 67.6174 54.5663C67.7096 54.5873 67.7675 54.6778 67.7477 54.7695Z" fill="#F4F7FF"/>
<path d="M66.2485 54.5534L66.2314 54.5246L66.2485 54.5534L66.2314 54.5246L66.2485 54.5534C66.2432 54.556 66.026 54.6911 65.7864 54.9428C65.5467 55.1946 65.2887 55.5617 65.1846 56.0284C65.1254 56.2985 65.1162 56.604 65.1925 56.9475C65.2702 57.2923 65.4348 57.6765 65.7284 58.1026C66.1063 58.6506 66.317 59.1725 66.4091 59.6523C66.5026 60.1322 66.4776 60.5688 66.3947 60.9464C66.3775 61.0264 66.3565 61.1037 66.3341 61.1785C66.3078 61.2676 66.2116 61.3188 66.1221 61.2925C66.0326 61.2663 65.9812 61.1706 66.0076 61.0814C66.0273 61.0146 66.0457 60.9451 66.0615 60.8743C66.1366 60.536 66.1577 60.1492 66.0747 59.7179C65.9904 59.2865 65.8022 58.8106 65.448 58.2966C65.1333 57.8417 64.949 57.4156 64.8607 57.0236C64.7725 56.6315 64.7817 56.2723 64.8515 55.9563C64.9753 55.4004 65.2794 54.9795 65.5507 54.6976C65.8219 54.4158 66.0615 54.2702 66.0694 54.265C66.1497 54.2165 66.2551 54.2414 66.3038 54.3214C66.3538 54.4 66.3288 54.5049 66.2485 54.5534Z" fill="#F4F7FF"/>
<path d="M65.248 62.1303C65.0821 62.8828 66.4804 63.1896 66.6463 62.4371C66.8122 61.6845 66.6345 61.0053 66.2487 60.9214C65.8629 60.8362 65.4152 61.3777 65.248 62.1303Z" fill="#E30613"/>
<path d="M65.2999 62.369C65.2301 62.6849 66.4072 62.9432 66.477 62.6272C66.5467 62.3113 65.371 62.053 65.2999 62.369Z" fill="#B2B2B2"/>
<path d="M72.316 60.3973C72.7663 61.024 73.9394 60.1888 73.4891 59.5621C73.0388 58.9354 72.4121 58.6142 72.0869 58.8436C71.7643 59.0744 71.8657 59.7706 72.316 60.3973Z" fill="#E30613"/>
<path d="M72.5237 60.5191C72.712 60.7827 73.6995 60.0799 73.5112 59.8164C73.323 59.5528 72.3355 60.2569 72.5237 60.5191Z" fill="#B2B2B2"/>
<path d="M56.8332 27.6587C56.8332 27.6587 55.7733 32.3328 56.2908 34.1644C56.8082 35.996 60.9096 40.8734 60.9096 40.8734L64.4212 39.2253L56.8332 27.6587Z" fill="#672B3A"/>
<path opacity="0.5" d="M62.6802 37.146C62.6696 37.1407 62.659 37.1355 62.6484 37.1328C62.6604 37.1368 62.6696 37.1421 62.6802 37.146Z" fill="url(#paint1_radial_3040_13445)"/>
<path opacity="0.5" d="M63.464 37.2432C63.4521 37.2366 63.4416 37.23 63.4297 37.2261C63.4416 37.23 63.4521 37.2366 63.464 37.2432Z" fill="url(#paint2_radial_3040_13445)"/>
<path opacity="0.5" d="M60.7935 33.6718C60.7949 33.6704 60.7949 33.6704 60.7964 33.6689C60.7964 33.6704 60.7644 33.6992 60.7935 33.6718Z" fill="url(#paint3_radial_3040_13445)"/>
<path opacity="0.5" d="M61.2005 31.9775C61.2018 31.9762 61.2031 31.9749 61.2044 31.9736C61.2018 31.9749 61.1704 32.0101 61.2005 31.9775Z" fill="url(#paint4_radial_3040_13445)"/>
<path d="M66.5978 23.0858C66.5978 23.0858 59.4694 23.1382 56.9519 27.5094C55.7314 29.6282 57.763 37.858 59.268 37.8161L59.8618 37.5801C60.1238 38.4887 61.3286 40.6415 61.3286 40.6415C61.3286 40.6415 64.9415 43.9101 66.8072 44.1855C68.6729 44.4608 70.4267 43.7895 70.4267 43.7895L73.2786 37.5971C73.2786 37.5971 73.1943 34.4793 73.3668 31.6106C73.9685 21.5872 66.5978 23.0858 66.5978 23.0858Z" fill="url(#paint5_linear_3040_13445)"/>
<path d="M68.5557 43.4065C68.3898 41.5211 68.8388 37.9798 68.8388 37.9798L69.8856 36.6386L68.3319 32.8534L68.27 29.767C68.27 29.767 71.2088 27.6352 71.3563 25.658C71.5037 23.6808 66.5978 23.0869 66.5978 23.0869C66.5978 23.0869 59.4694 23.1394 56.9519 27.5106C55.7314 29.6294 57.763 37.8592 59.268 37.8172L59.8618 37.5812C60.1238 38.4898 61.3286 40.6427 61.3286 40.6427C61.3286 40.6427 64.9415 43.9113 66.8072 44.1866C67.1877 44.243 67.5616 44.2587 67.9185 44.2509C68.4807 44.1381 68.5728 43.5966 68.5557 43.4065Z" fill="#FFECE5"/>
<path d="M61.7211 39.3581L60.7638 35.7736C60.4123 34.5057 61.7342 33.3139 61.7342 33.3139L61.3932 31.8061C61.3932 31.8061 66.6836 30.8071 67.6474 28.1088C67.6474 28.1088 67.8778 28.7945 67.6395 29.492C67.4012 30.1895 66.386 31.2515 66.386 31.2515C68.2662 30.9683 70.7073 29.6218 70.7995 27.3116L66.598 23.0859C66.598 23.0859 59.4696 23.1384 56.9521 27.5096C55.7315 29.6284 57.7618 37.8582 59.2681 37.8163L59.8619 37.5803C60.1239 38.4889 61.3287 40.6417 61.3287 40.6417C61.3287 40.6417 64.9416 43.9103 66.8073 44.1857C67.0786 44.225 67.3472 44.2447 67.6079 44.2499C65.2879 43.8933 62.3373 41.2488 61.7211 39.3581Z" fill="#FFD1CD"/>
<path d="M70.609 35.1309C72.2825 35.3748 72.9131 33.4947 72.8605 32.2714C72.8078 31.0495 72.21 30.5539 70.9302 30.4359C67.9427 30.1592 69.3384 34.9461 70.609 35.1309Z" fill="url(#paint6_radial_3040_13445)"/>
<path d="M62.323 32.6175C62.3756 33.8394 63.1327 35.7746 64.4099 35.6396C65.8569 35.4862 66.7799 32.9597 66.4073 31.7036C66.1782 30.9327 65.3763 30.5721 64.2795 30.6639C62.9997 30.7714 62.2703 31.3955 62.323 32.6175Z" fill="url(#paint7_radial_3040_13445)"/>
<path d="M70.9011 32.9778C70.8787 33.438 70.6298 33.8012 70.3441 33.7868C70.0597 33.7737 69.8464 33.3882 69.8688 32.928C69.8912 32.4678 70.14 32.1046 70.4257 32.1191C70.7115 32.1322 70.9235 32.5176 70.9011 32.9778Z" fill="#672B3A"/>
<path d="M70.5253 32.767C70.5135 33.0187 70.3765 33.2167 70.2212 33.2088C70.0658 33.2009 69.9499 32.9912 69.9618 32.7394C69.9736 32.4877 70.1106 32.2897 70.2659 32.2976C70.4213 32.3055 70.5372 32.5152 70.5253 32.767Z" fill="white"/>
<path d="M65.14 33.26C65.1163 33.7412 64.8569 34.1188 64.5593 34.1043C64.2617 34.0899 64.0405 33.6887 64.0642 33.2075C64.0879 32.7264 64.3473 32.3488 64.6449 32.3632C64.9411 32.3776 65.1637 32.7788 65.14 33.26Z" fill="#672B3A"/>
<path d="M64.7523 33.0396C64.7391 33.3018 64.5982 33.5089 64.435 33.5011C64.273 33.4932 64.1519 33.2742 64.165 33.012C64.1782 32.7498 64.3191 32.5426 64.4824 32.5505C64.6443 32.5571 64.7654 32.7773 64.7523 33.0396Z" fill="white"/>
<path d="M69.0461 36.5327L67.8203 37.3076L68.0744 33.2681L69.0461 36.5327Z" fill="#FFD1CD"/>
<path d="M69.3671 37.3323L70.1255 36.699L68.4375 33.1616L69.82 36.6216L69.3671 37.3323Z" fill="#FFF5EB"/>
<path d="M69.7225 36.7044C69.7199 36.6992 69.13 36.7018 69.13 36.7018L67.8516 37.4557L68.8865 37.6917L69.7225 36.7044Z" fill="#FFD1CD"/>
<path d="M69.7872 38.6172L65.3672 38.7601C65.3672 38.7601 65.6555 41.9658 67.99 41.8111C68.2467 41.794 69.0473 41.2814 69.2461 41.2053C68.8669 40.2207 69.6701 38.7968 69.7872 38.6172Z" fill="#672B3A"/>
<path d="M65.7734 40.2573C65.7734 40.2573 66.3607 42.0142 67.9907 41.811C68.1526 41.7913 68.5358 41.5894 68.8452 41.4177C68.1737 40.4619 65.7734 40.2573 65.7734 40.2573Z" fill="#E30613"/>
<path d="M69.1236 40.6718L69.2487 41.2041C69.0499 41.2802 68.2493 41.7928 67.9926 41.8099C66.8971 41.8833 66.2519 41.2159 65.8767 40.4883C65.8306 40.5486 66.7391 42.1416 67.4804 42.3094C69.1802 42.6936 69.4607 41.2527 69.4607 41.2527C69.2934 40.9236 69.1236 40.6718 69.1236 40.6718Z" fill="#FFD1CD"/>
<path d="M68.9154 38.7442C68.9326 38.7101 68.9497 38.6747 68.9668 38.6406L65.6172 38.7494C65.6172 38.7494 65.7304 39.1533 66.4151 39.1651C66.9813 39.1742 67.637 39.2057 68.0675 39.1965C68.5428 39.186 68.7061 39.1716 68.9154 38.7442Z" fill="white"/>
<path d="M68.3762 38.2358C66.3433 38.304 65.4295 38.7275 65.3281 38.7629L69.9128 38.616C69.9114 38.616 70.3354 38.169 68.3762 38.2358Z" fill="#FFD1CD"/>
<path d="M74.1434 27.8829C74.2395 24.7966 72.566 23.9902 71.593 23.7804C72.0065 23.256 72.9782 22.9269 73.5075 23.0134C72.2711 22.4221 71.3257 22.9492 70.8517 23.3386C70.229 20.2391 67.9406 19.2309 67.119 19.0513L68.7359 22.059C67.2204 20.8449 65.6206 20.5708 64.2408 20.9694C48.633 25.477 57.1782 35.8676 57.1782 35.8676C57.1782 35.8676 57.3125 30.808 58.9135 32.8625L59.4323 36.2911L59.8694 36.316C59.7233 34.508 60.7977 33.366 60.7977 33.366C60.5817 32.3944 60.0524 30.9522 60.0524 30.9522C66.4251 31.3115 67.5416 27.0268 67.5416 27.0268C68.1065 29.8968 65.3573 31.4426 65.3573 31.4426C69.5509 30.8382 70.2079 27.9104 70.3185 27.1946C70.8991 27.6653 71.7036 28.9502 71.5259 30.492C72.096 29.548 71.9196 28.5634 71.5759 27.7859C72.3527 28.3811 73.3086 29.1573 73.3639 32.0077C73.3626 32.009 74.0723 30.1629 74.1434 27.8829Z" fill="#672B3A"/>
<path d="M66.4232 31.7021C66.0309 31.339 65.3975 31.2 64.8906 31.1947C63.4489 31.1777 62.4219 31.8005 62.4219 31.8005C62.4219 31.8005 62.5654 31.1908 63.5555 30.8538C64.0229 30.6952 64.7787 30.4998 65.6135 30.6375C66.26 30.7424 66.4232 31.7021 66.4232 31.7021Z" fill="#672B3A"/>
<path d="M69.2891 31.2799C70.4267 30.4828 72.5294 31.0977 72.5294 31.0977C72.5294 31.0977 72.3569 30.9102 71.9237 30.6218C71.2127 30.1484 69.8829 30.3307 69.7433 30.4408C69.3575 30.7463 69.2891 31.2799 69.2891 31.2799Z" fill="#672B3A"/>
<path d="M55.8853 26.0905C56.4383 26.7094 57.5957 28.1673 60.3317 27.597C62.5371 27.1368 64.4845 25.6133 64.4845 25.6133C64.4279 27.6625 61.701 28.7311 61.701 28.7311C61.701 28.7311 66.6464 29.6672 67.7932 24.2681C69.9973 29.0248 67.127 31.1868 65.3561 31.4425C65.3561 31.4425 68.1053 29.8967 67.5404 27.0266C67.5404 27.0266 66.4252 31.3114 60.0512 30.9521C60.0512 30.9521 60.5805 32.3956 60.7965 33.3659C60.7965 33.3659 59.7221 34.5078 59.8682 36.3159L59.4311 36.291L58.9123 32.8624C57.3113 30.8079 57.177 35.8675 57.177 35.8675C57.177 35.8675 52.9399 30.7135 55.8853 26.0905Z" fill="#B2B2B2"/>
<path d="M72.9488 37.4461L70.2483 43.5441C70.2483 43.5441 68.7657 44.3229 66.875 44.1918C68.638 44.4317 70.2839 43.843 70.4221 43.7919C70.4247 43.7906 70.4247 43.7906 70.4261 43.7906C70.43 43.7893 70.4326 43.7879 70.4326 43.7879L73.2845 37.5956C73.2845 37.5956 73.2003 34.4778 73.3728 31.6104C72.6947 33.0434 72.9488 37.4461 72.9488 37.4461Z" fill="white"/>
<path d="M60.7513 44.5078L61.1029 41.6862C61.1029 41.6862 57.1581 40.8812 56.7868 41.7361C56.4155 42.5909 59.7296 44.7477 59.7296 44.7477C60.7223 45.9644 66.7527 53.8835 66.7527 53.8835L60.7513 44.5078Z" fill="#B9CED8"/>
<path d="M27.8677 40.0854L28.501 44.104C28.4102 44.8513 26.8842 43.9322 25.8967 44.0109C25.0922 44.0752 24.7367 45.1227 25.0514 45.6472C25.0514 45.6472 26.4589 45.6 27.3042 46.4889L28.7117 48.4988L30.1508 48.9813L31.2766 52.3456C31.2766 52.3456 35.9389 52.0493 35.0001 50.6478C34.6657 50.1469 34.347 48.3664 33.6861 47.0488C32.4945 44.6757 30.8697 42.469 30.8697 42.469L27.8677 40.0854Z" fill="url(#paint8_linear_3040_13445)"/>
<path d="M30.0192 44.2837C29.8336 43.8917 29.644 43.4997 29.4491 43.1064C29.382 43.0592 29.3161 43.008 29.2543 42.9543C28.8856 42.6291 28.5182 42.3118 28.1641 41.9854L28.4972 44.0962C28.9936 44.2274 29.5057 44.285 30.0192 44.2837Z" fill="#FFD1CD"/>
<path d="M31.3422 48.9169C31.3422 48.9169 31.4357 48.8238 29.5594 48.0292C28.1875 47.4484 28.1045 45.2248 28.1045 45.2248C25.8043 44.1969 26.5008 45.3546 26.1809 45.4581C26.1769 45.4595 25.1526 45.3152 25.1486 45.3165C25.1526 45.3585 25.1289 45.3795 25.1052 45.3834C25.088 45.4149 25.0854 45.4149 25.0973 45.3847H25.0959C25.0959 45.386 25.0946 45.3873 25.0946 45.3887C25.0683 45.449 25.042 45.5093 25.0156 45.5696C25.0275 45.5958 25.038 45.622 25.0525 45.6456C25.0525 45.6456 26.46 45.5984 27.3053 46.4874L28.7128 48.4973L30.1519 48.9798L31.2777 52.3441C31.2777 52.3441 32.7194 50.6855 33.7333 50.4587C30.7326 51.0199 31.3422 48.9169 31.3422 48.9169Z" fill="#FFD1CD"/>
<path d="M34.4127 49.0337C34.4127 49.0337 35.6609 49.9134 35.3804 51.0725C35.8294 52.3469 36.4311 53.4797 36.4311 53.4797C36.4311 53.4797 36.946 53.0614 36.9749 53.8219C37.0039 54.5823 37.391 55.1828 37.391 55.1828C37.391 55.1828 40.0928 59.5737 41.5991 62.9367C44.5708 69.5722 40.3482 73.2185 40.3482 73.2185C40.3482 73.2185 34.7168 74.8075 32.9117 60.9438C32.7063 59.3639 32.0216 57.4314 32.0216 57.4314C32.0216 57.4314 30.9867 56.1347 31.4634 55.188C31.1263 54.0356 30.1875 51.0174 30.1875 51.0174C30.1875 51.0174 30.3863 50.2832 30.5641 50.2714C30.626 50.2674 30.7905 51.0489 30.8695 51.0423C32.0071 50.9558 34.1691 49.9239 34.4127 49.0337Z" fill="#13192B"/>
<path d="M42.3166 64.9533C42.3285 65.0176 42.339 65.0818 42.3469 65.1474C42.3561 65.2195 42.364 65.2929 42.3667 65.3676C42.3838 65.7347 41.1632 70.2738 39.7399 70.2738C38.2139 70.2738 37.0855 69.0322 37.0197 67.5637C37.0026 67.1966 34.0756 58.2326 34.015 56.7681C34.0098 56.6501 33.7333 55.4124 34.2191 54.6952C35.0894 53.4103 32.3653 52.2539 31.994 50.7737C31.5818 50.9205 31.1855 51.0188 30.8695 51.0424C30.7905 51.049 30.6273 50.2676 30.5641 50.2715C30.3863 50.2833 30.1875 51.0175 30.1875 51.0175C30.1875 51.0175 31.1263 54.0344 31.4633 55.1882C30.9867 56.1348 32.0216 57.4315 32.0216 57.4315C32.0216 57.4315 32.7063 59.3627 32.9117 60.9439C34.7168 74.8076 40.3482 73.2186 40.3482 73.2186C40.3482 73.2186 43.7189 70.3066 42.3166 64.9533Z" fill="#B9CED8"/>
<path d="M36.3363 53.5872C36.3785 53.557 36.3916 53.5006 36.4193 53.4587C36.3377 53.304 35.7952 52.2485 35.3804 51.0725C35.6609 49.9148 34.4127 49.0337 34.4127 49.0337C34.1691 49.9239 32.0071 50.9545 30.8695 51.0436C30.7905 51.0502 30.6273 50.2688 30.5641 50.2727C30.3863 50.2845 30.1875 51.0187 30.1875 51.0187C30.1875 51.0187 31.1158 54.0015 31.4568 55.1684C32.1691 54.9455 33.653 55.4594 36.3363 53.5872Z" fill="#E30613"/>
<path d="M32.7635 55.0465C33.0005 55.0215 33.2625 54.9822 33.5535 54.914C32.9992 53.6396 32.5238 52.3285 32.1578 50.9951C31.9195 51.083 31.6759 51.1538 31.4297 51.2115C31.8142 52.5095 32.2697 53.7852 32.7635 55.0465Z" fill="#B9CED8"/>
<path d="M30.9908 51.2954C30.759 51.3308 30.5273 51.3518 30.2969 51.357C30.5497 52.1712 31.1896 54.2415 31.4608 55.1671C31.6702 55.1016 31.948 55.0989 32.3022 55.0806C31.8176 53.8363 31.37 52.5764 30.9908 51.2954Z" fill="#B9CED8"/>
<path d="M86.2534 49.5253L84.5483 46.5372L81.8109 45.7938L80.5667 45.0098L78.2849 44.3896C78.2849 44.3896 77.8991 44.1248 78.2019 43.7288C79.6121 41.8854 81.5621 43.3158 81.5621 43.3158C81.5621 43.3158 82.1427 42.8622 81.9347 41.7884C81.7267 40.7146 81.5199 39.4349 81.5199 39.4349L80.3165 36.1309C80.3165 36.1309 78.9485 34.0253 80.1506 33.9007C80.0255 33.3632 80.0255 32.5385 80.855 32.7443L81.3527 33.3632C81.3527 33.3632 81.1447 32.4546 81.8504 32.4546C82.5562 32.4546 82.5562 32.6198 82.5562 32.6198L83.5924 33.9414C83.5924 33.9414 84.0493 33.6936 84.5878 34.1485C85.1276 34.6022 87.782 38.2366 87.9058 38.4018C88.0309 38.567 88.9499 44.4867 88.9499 44.4867L90.5141 47.7893L86.2534 49.5253Z" fill="url(#paint9_linear_3040_13445)"/>
<path d="M88.9479 44.4853C88.9479 44.4853 88.0288 38.5656 87.9038 38.4004C87.7787 38.2352 85.1256 34.6008 84.5858 34.1472C84.5515 34.1183 84.5173 34.0921 84.4844 34.0698C84.5252 34.2796 87.5943 38.6994 87.5943 38.6994L88.595 44.5561C88.595 44.5561 89.4851 46.5411 89.751 47.0446C89.9643 47.3081 90.1776 47.5717 90.3857 47.8391L90.5108 47.788L88.9479 44.4853Z" fill="white"/>
<path d="M88.2231 45.0232C86.5338 43.9219 86.4983 40.1669 86.3811 39.6411C86.2639 39.1154 86.9486 38.84 86.9565 38.7299C86.9565 38.7299 85.5608 39.1744 85.0907 36.9429C85.0907 36.9429 83.8162 35.3197 83.6714 35.0614C83.3317 34.4544 83.5937 33.9404 83.5937 33.9404L82.5562 32.6188C82.5562 32.6188 82.5562 32.4536 81.8517 32.4536C81.2448 32.4536 81.3145 33.1275 81.3448 33.3137C81.3198 33.2245 80.8563 32.7434 80.8563 32.7434C80.0268 32.5375 80.0268 33.3622 80.1519 33.8998C78.9485 34.023 80.3178 36.13 80.3178 36.13L81.5199 39.434C81.5199 39.434 81.728 40.7149 81.9347 41.7874C82.1414 42.8612 81.5608 43.3162 81.5608 43.3162C81.5608 43.3162 79.6108 41.8857 78.2019 43.7292C77.8991 44.1251 78.2849 44.39 78.2849 44.39L80.5654 45.0101L81.8096 45.7942L84.547 46.5376L86.252 49.5256L89.0091 48.402C88.1665 46.9427 87.1592 45.8951 88.2231 45.0232Z" fill="#FFD1CD"/>
<path d="M81.4314 38.7272C81.3102 38.4728 81.1799 38.2067 81.1272 37.9274C81.0798 37.6743 81.1088 37.3924 81.0113 37.1512C80.9165 36.9152 80.7441 36.712 80.6071 36.4996C80.5123 36.3554 80.436 36.202 80.3649 36.0446C80.2135 35.7103 80.0699 35.3642 79.9936 35.0049C79.9356 34.7361 79.6051 34.2379 79.9304 33.977C79.9356 33.9731 79.9264 33.9652 79.9238 33.96C79.1443 34.3271 80.3162 36.1299 80.3162 36.1299L81.5183 39.4338C81.5183 39.4338 81.542 39.5794 81.5815 39.8141C81.6407 39.7013 81.6736 39.5794 81.6644 39.443C81.6473 39.19 81.538 38.9514 81.4314 38.7272Z" fill="#FFD1CD"/>
<path d="M86.1335 45.7653C84.6944 45.2697 83.6187 44.3296 82.8643 43.0145C82.4179 42.2357 82.8643 40.4893 82.8643 40.4893L85.6543 38.916C85.6543 38.916 82.9248 39.8521 82.0519 39.9203C82.0598 39.9675 81.7306 40.7332 81.9347 41.786C82.1414 42.8598 81.5608 43.3148 81.5608 43.3148C81.5608 43.3148 79.6108 41.8844 78.2019 43.7278C77.8991 44.1237 78.2849 44.3886 78.2849 44.3886L80.5654 45.0087L81.8096 45.7928L84.547 46.5362L86.252 49.5242L89.0091 48.4006C88.4812 47.4867 87.8887 46.7329 87.782 46.0839C87.2172 46.034 86.6589 45.9449 86.1335 45.7653Z" fill="#FFD1CD"/>
<path d="M83.5627 34.0254C83.5627 34.0254 83.4521 34.4935 84.0314 35.2945C84.6107 36.0956 84.5699 36.1101 84.5699 36.1101L85.1361 37.0777C85.1361 37.0777 85.3296 38.0754 86.0196 38.6497C85.7167 38.6798 85.0545 37.5772 84.9439 37.138C84.5159 36.5939 84.2684 36.1101 84.2684 36.1101C84.2684 36.1101 83.1901 35.1123 83.5627 34.0254Z" fill="#FFD1CD"/>
<path d="M83.068 36.8485C83.068 36.8485 81.6209 33.6402 81.5064 33.3504C81.613 32.8404 81.9685 32.5664 82.403 32.5139C82.3017 32.4811 82.1331 32.4536 81.8461 32.4536C81.3405 32.4536 81.3036 32.9204 81.3247 33.1839C81.3523 33.2245 81.3616 33.3452 81.3695 33.4684C81.326 33.3465 82.4886 36.0487 82.8889 36.8485C82.8481 37.664 83.7026 38.7076 84.0884 38.8728C83.4261 38.254 83.068 36.8485 83.068 36.8485Z" fill="#FFD1CD"/>
<path d="M80.9174 35.1961C80.6198 34.8382 80.4105 33.8077 80.3802 33.7644C80.0813 33.3501 80.2867 32.7181 80.7778 32.7404C80.7831 32.7404 80.787 32.7339 80.7923 32.7299C80.0431 32.587 80.0326 33.3488 80.1471 33.8706C80.1787 33.9165 80.7541 35.301 80.7541 35.301C80.7541 35.301 82.6435 39.275 83.0306 39.4415C82.3657 38.8227 81.2347 35.7101 80.9174 35.1961Z" fill="#FFD1CD"/>
<path d="M85.6635 48.4241C85.6635 48.4241 85.1658 49.1675 86.1612 49.8283C86.6997 51.0673 87.0315 52.3063 87.0315 52.3063C87.0315 52.3063 86.3679 52.3483 86.8656 52.9265C87.3633 53.5047 87.4871 54.2061 87.4871 54.2061C87.4871 54.2061 87.2461 61.863 88.0914 64.8065C88.9367 67.7512 91.8452 67.9217 91.8452 67.9217C91.8452 67.9217 99.104 65.9275 94.7037 55.4032C94.0888 53.9321 92.9618 52.2237 92.9618 52.2237C92.9618 52.2237 92.8367 50.5717 91.8413 50.2007C91.3028 49.1269 89.9334 46.2778 89.9334 46.2778C89.9334 46.2778 86.6589 49.043 85.6635 48.4241Z" fill="#13192B"/>
<path d="M89.9071 65.5536C89.5885 63.8203 88.7814 52.8424 88.7814 52.8424C88.7814 52.8424 90.0085 52.8319 89.9822 51.6715C88.8762 50.6253 88.1915 49.2525 87.832 47.7959C86.9828 48.3112 86.1019 48.6953 85.6635 48.4226C85.6635 48.4226 85.1658 49.166 86.1612 49.8268C86.701 51.0658 87.0315 52.3048 87.0315 52.3048C87.0315 52.3048 86.3679 52.3455 86.8656 52.9237C87.3633 53.5019 87.4871 54.2033 87.4871 54.2033C87.4871 54.2033 87.2461 61.8602 88.0914 64.8036C88.9367 67.7471 91.8452 67.9188 91.8452 67.9188C91.8452 67.9188 92.3153 67.789 92.942 67.4245C92.9433 67.4272 90.3455 67.9451 89.9071 65.5536Z" fill="#B9CED8"/>
<path d="M32.5234 50.8773L33.9165 54.8185C34.0837 54.7686 34.2588 54.707 34.4418 54.6349L33.0396 50.6675C32.871 50.7448 32.6986 50.8143 32.5234 50.8773Z" fill="#B9CED8"/>
<path d="M86.1612 49.8281C86.5628 50.7512 86.8485 51.6729 86.9696 52.0833C87.0934 52.0701 87.2172 52.0636 87.3422 52.0636C88.181 52.0636 90.3587 51.8328 90.651 51.2822C90.9157 50.7839 91.3159 50.3827 91.7807 50.0746C91.2053 48.9209 90.5167 46.4166 89.6951 46.043C89.6951 46.043 89.8597 46.338 89.7307 46.4429C88.9986 47.0329 86.5088 48.9484 85.6635 48.4226C85.6635 48.4239 85.1658 49.1673 86.1612 49.8281Z" fill="#E30613"/>
<path d="M88.8594 47.8092C89.0463 48.2065 89.2359 48.6024 89.4334 48.9945C89.8232 49.7693 90.2313 50.5363 90.6435 51.2994C90.6474 51.2942 90.6514 51.2876 90.654 51.2824C90.7606 51.0804 90.891 50.8956 91.0385 50.7251C90.5118 49.5897 89.9996 48.4464 89.4137 47.3398C89.2399 47.5064 89.0542 47.6637 88.8594 47.8092Z" fill="#B9CED8"/>
<path d="M87.5234 48.5659C87.53 48.5804 87.5366 48.5948 87.5432 48.6092C87.7091 48.9684 87.8447 49.3434 87.9922 49.7105C88.2924 50.4526 88.5965 51.1934 88.9138 51.9289C89.3497 51.8621 89.7802 51.769 90.1081 51.6457C89.4892 50.4972 88.8849 49.3421 88.3292 48.1621C88.0699 48.3142 87.8013 48.4492 87.5234 48.5659Z" fill="#B9CED8"/>
<path d="M87.3677 49.848C87.24 49.5333 87.1215 49.2121 86.9819 48.9027C86.9635 48.8634 86.9464 48.8214 86.9293 48.7808C86.479 48.9197 86.0155 49.0063 85.5547 49.0377C85.5995 49.2777 85.7588 49.5596 86.1617 49.827C86.5633 50.7501 86.849 51.6718 86.9701 52.0821C87.0939 52.069 87.2176 52.0625 87.3427 52.0625C87.5705 52.0625 87.8984 52.0454 88.2604 52.0087C88.2328 51.9445 88.2051 51.8815 88.1775 51.8186C87.9023 51.1644 87.635 50.5062 87.3677 49.848Z" fill="#B9CED8"/>
<path d="M94.7118 55.403C94.0969 53.9319 92.9699 52.2235 92.9699 52.2235C92.9699 52.2235 92.8448 50.5715 91.8494 50.1992C91.4623 48.0909 90.1641 46.5176 90.1641 46.5176C90.1641 46.5176 91.6032 48.7452 91.5874 50.2411C92.7763 51.0199 92.7618 52.4687 92.7605 52.5002C92.8132 52.5775 95.7322 57.329 95.673 61.7225C95.6493 63.4558 94.8395 65.4317 93.6282 66.6366C93.3859 66.8778 93.1226 67.0994 92.8408 67.3026C92.6354 67.4796 92.4182 67.6474 92.1904 67.8008C93.569 67.2462 98.5315 64.5375 94.7118 55.403Z" fill="white"/>
<path d="M41.6013 62.9368C40.0951 59.5738 37.3933 55.1829 37.3933 55.1829C37.3933 55.1829 37.0062 54.5837 36.9772 53.822C36.9482 53.0602 36.4334 53.4798 36.4334 53.4798C36.4334 53.4798 35.8317 52.3457 35.3827 51.0726C35.6421 50.0001 34.5927 49.1675 34.4347 49.0495C34.2372 48.4018 34.0002 47.6729 33.6869 47.0488C32.4953 44.6757 30.8705 42.469 30.8705 42.469L27.8672 40.0854L27.9159 40.3936C27.9462 40.4211 27.9738 40.4513 28.0028 40.4801C28.1384 40.5758 30.6519 42.5936 30.6519 42.5936C30.6519 42.5936 33.6961 47.0448 34.0621 49.2921C35.5012 50.1023 35.0009 51.2548 35.0009 51.2548C35.0009 51.2548 35.9594 53.5178 36.0016 53.7158C36.1635 53.995 36.4413 53.7787 36.5954 54.058C36.6428 54.1432 36.8929 54.7817 36.939 54.8682C37.6355 56.1453 38.3558 57.4419 39.1602 58.6691C40.4295 60.6056 42.2518 64.9022 42.3334 65.0123C42.1662 64.3567 41.9279 63.6645 41.6013 62.9368Z" fill="white"/>
<path d="M116.031 56.2129H114.292H109.968H108.229C107.399 56.2129 106.727 56.8829 106.727 57.7089V63.3165C106.727 64.1425 107.399 64.8125 108.229 64.8125H108.979H115.278H116.029C116.858 64.8125 117.531 64.1425 117.531 63.3165V57.7089C117.534 56.8829 116.861 56.2129 116.031 56.2129Z" fill="#E30613"/>
<path d="M114.327 59.1458L112.923 59.13C113.11 58.8442 113.192 58.5217 113.163 58.1991L113.15 58.0444C113.13 57.8176 112.898 57.6327 112.632 57.6275C112.503 57.6249 112.402 57.7101 112.408 57.8176L112.427 58.1755L111.327 59.4499C111.306 59.4749 111.294 59.505 111.294 59.5365L111.281 61.9699C111.281 62.0682 111.36 62.1508 111.46 62.1508L114.456 62.1299C114.665 62.1285 114.809 61.9555 114.778 61.7457C114.749 61.5399 114.562 61.376 114.36 61.3773H114.497C114.715 61.3773 114.867 61.2016 114.834 60.9879C114.802 60.7794 114.606 60.6129 114.394 60.6116H114.465C114.685 60.6116 114.838 60.4425 114.805 60.2353C114.773 60.0321 114.576 59.8695 114.362 59.8682H114.428C114.649 59.8695 114.802 59.7056 114.769 59.505C114.737 59.3083 114.54 59.1484 114.327 59.1458Z" fill="white"/>
<path d="M110.296 62.1598H109.898C109.639 62.1598 109.43 61.95 109.43 61.693V59.9126C109.43 59.6543 109.64 59.4458 109.898 59.4458H110.296C110.555 59.4458 110.765 59.6556 110.765 59.9126V61.693C110.766 61.9513 110.555 62.1598 110.296 62.1598Z" fill="white"/>
<path d="M18.1769 61.5649H16.1795H11.3987H9.35388C8.52438 61.5649 7.85156 62.2349 7.85156 63.0609V68.6685C7.85156 69.4945 8.52438 70.1645 9.35388 70.1645H12.8654H17.6462H18.1769C19.0064 70.1645 19.6792 69.4945 19.6792 68.6685V63.0609C19.6792 62.2349 19.0064 61.5649 18.1769 61.5649Z" fill="#3F8FFF"/>
<path d="M16.9994 65.3569L15.2548 63.6196V64.5571C15.2311 64.5571 15.2061 64.5558 15.1824 64.5558C13.0376 64.5558 11.1903 65.821 10.3516 67.6421C10.3516 67.6421 11.7485 66.0819 15.1824 66.0819C15.2061 66.0819 15.2311 66.0832 15.2548 66.0832V67.0941L16.9994 65.3569Z" fill="white"/>
<path d="M25.4576 43.4048H23.4918H21.0889H17.3851C16.5556 43.4048 15.8828 44.0748 15.8828 44.9008V50.5084C15.8828 51.3344 16.5556 52.0044 17.3851 52.0044H21.5458H23.8394H25.4576C26.2871 52.0044 26.9599 51.3344 26.9599 50.5084V44.9008C26.9586 44.0735 26.2871 43.4048 25.4576 43.4048Z" fill="#E30613"/>
<path d="M22.1143 49.2705C22.1143 49.652 21.8036 49.9615 21.4204 49.9615C21.0373 49.9615 20.7266 49.652 20.7266 49.2705H22.1143Z" fill="white"/>
<path d="M23.2156 48.5981H23.1432C23.1432 48.2296 23.1432 47.5465 23.1432 47.3302C23.1432 46.5776 22.6389 45.9417 21.949 45.7398C21.949 45.6481 21.949 45.551 21.949 45.5104C21.949 45.2508 21.7383 45.041 21.4776 45.041C21.2169 45.041 21.0063 45.2508 21.0063 45.5104C21.0063 45.551 21.0063 45.6481 21.0063 45.7398C20.3163 45.9417 19.812 46.5776 19.812 47.3302C19.812 47.5465 19.812 48.2296 19.812 48.5981H19.6185C19.4881 48.5981 19.3828 48.7029 19.3828 48.8327C19.3828 48.9625 19.4881 49.0674 19.6185 49.0674H19.9924H22.8404H23.2143C23.3447 49.0674 23.45 48.9625 23.45 48.8327C23.45 48.7029 23.346 48.5981 23.2156 48.5981Z" fill="white"/>
<path d="M103.739 74.9004H101.773H99.3702H95.6664C94.8369 74.9004 94.1641 75.5704 94.1641 76.3964V82.004C94.1641 82.83 94.8369 83.5 95.6664 83.5H99.827H102.121H103.739C104.568 83.5 105.241 82.83 105.241 82.004V76.3964C105.24 75.5704 104.568 74.9004 103.739 74.9004Z" fill="#3F8FFF"/>
<path d="M101.806 77.411C101.776 77.3809 101.745 77.3533 101.713 77.3258C101.664 77.2852 101.611 77.2485 101.557 77.2157C101.52 77.1934 101.483 77.1737 101.445 77.1554C101.425 77.1462 101.407 77.137 101.387 77.1291C101.348 77.1121 101.307 77.0977 101.266 77.0846C101.245 77.078 101.224 77.0728 101.203 77.0662C101.098 77.0387 100.987 77.0243 100.872 77.0243C100.683 77.0243 100.503 77.0649 100.339 77.1357C100.312 77.1475 100.285 77.1606 100.259 77.1737C100.206 77.2013 100.156 77.2327 100.109 77.2655C99.9416 77.3848 99.8021 77.5422 99.7059 77.7244C99.5677 77.4635 99.3439 77.255 99.0726 77.1344C98.9094 77.0623 98.729 77.0229 98.5394 77.0229C98.4248 77.0229 98.3155 77.0374 98.2089 77.0649C98.1878 77.0702 98.1667 77.0767 98.1457 77.0833C98.1049 77.0964 98.064 77.1108 98.0245 77.1278C98.0048 77.1357 97.985 77.1449 97.9666 77.1541C97.9284 77.1724 97.8903 77.1934 97.8547 77.2144C97.8007 77.2472 97.7481 77.2839 97.6993 77.3245C97.6664 77.3507 97.6348 77.3796 97.6059 77.4097C97.3675 77.647 97.2188 77.9761 97.2188 78.3393C97.2188 80.1591 99.7059 81.3719 99.7059 81.3719C99.7059 81.3719 102.193 80.1591 102.193 78.3393C102.193 77.9774 102.044 77.6497 101.806 77.411Z" fill="white"/>
<path d="M30.1139 76.5591H28.1481H25.7452H22.0414C21.2119 76.5591 20.5391 77.2291 20.5391 78.0551V83.6627C20.5391 84.4887 21.2119 85.1587 22.0414 85.1587H26.202H28.4957H30.1139C30.9434 85.1587 31.6162 84.4887 31.6162 83.6627V78.0551C31.6162 77.2291 30.9434 76.5591 30.1139 76.5591Z" fill="#E30613"/>
<path d="M28.7128 79.526H27.8266L28.0939 78.6213C28.1584 78.4024 28.0334 78.1729 27.8135 78.1087C27.5936 78.0444 27.3632 78.169 27.2987 78.388L26.9616 79.526H25.9794L26.2466 78.6213C26.3112 78.4024 26.1861 78.1729 25.9662 78.1087C25.7463 78.0444 25.5159 78.169 25.4514 78.388L25.1143 79.526H23.9833C23.7542 79.526 23.5685 79.7109 23.5685 79.939C23.5685 80.1671 23.7542 80.352 23.9833 80.352H24.8694L24.5692 81.3655H23.4382C23.2091 81.3655 23.0234 81.5504 23.0234 81.7785C23.0234 82.0066 23.2091 82.1915 23.4382 82.1915H24.3243L24.057 83.0962C23.9925 83.3151 24.1176 83.5446 24.3375 83.6088C24.5574 83.673 24.7878 83.5485 24.8523 83.3295L25.1894 82.1915H26.1716L25.9043 83.0962C25.8398 83.3151 25.9649 83.5446 26.1848 83.6088C26.4046 83.673 26.6351 83.5485 26.6996 83.3295L27.0366 82.1915H28.1677C28.3968 82.1915 28.5824 82.0066 28.5824 81.7785C28.5824 81.5504 28.3968 81.3655 28.1677 81.3655H27.2815L27.5817 80.352H28.7128C28.9419 80.352 29.1275 80.1671 29.1275 79.939C29.1275 79.7109 28.9419 79.526 28.7128 79.526ZM26.4191 81.3655H25.4369L25.7371 80.352H26.7193L26.4191 81.3655Z" fill="white"/>
<path d="M67.9422 0.876465H61.4655H54.2857H47.809C45.7089 0.876465 44.0078 2.57173 44.0078 4.66164V11.2513C44.0078 13.3425 45.7103 15.0365 47.809 15.0365H49.8696C50.441 16.6164 51.8999 18.503 54.2475 18.4008C53.3259 17.2011 53.1547 15.9674 53.21 15.0365H54.2857H61.4655H67.9422C70.0423 15.0365 71.7434 13.3412 71.7434 11.2513V4.66164C71.7434 2.57042 70.0409 0.876465 67.9422 0.876465Z" fill="#3F8FFF"/>
<path d="M64.7358 10.9709L65.0874 7.80715L65.485 10.9709H66.8214L67.539 5.40388H66.2789L65.9656 8.3919L65.5837 5.40388H64.4159L64.0946 8.3919L63.7207 5.40388H62.5752L63.2546 10.9709H64.7358ZM60.4975 10.0046C60.3908 10.0046 60.3118 9.96655 60.2605 9.8905C60.2091 9.81446 60.1841 9.71088 60.1841 9.57846V6.85659C60.1841 6.53275 60.2881 6.37017 60.4975 6.37017C60.7055 6.37017 60.8108 6.53275 60.8108 6.85659V9.57846C60.8108 9.71088 60.7858 9.81446 60.7345 9.8905C60.6831 9.96655 60.6054 10.0046 60.4975 10.0046ZM60.4975 11.0312C61.6127 11.0312 62.1696 10.4556 62.1696 9.30443V7.0703C62.1696 6.54323 62.0208 6.12368 61.7233 5.81163C61.4257 5.49959 61.0162 5.34357 60.4975 5.34357C59.9787 5.34357 59.5692 5.49959 59.2716 5.81163C58.9741 6.12368 58.8253 6.54323 58.8253 7.0703V9.30575C58.8253 10.4569 59.3836 11.0312 60.4975 11.0312ZM58.3368 10.9709V4.40088H56.978V10.9709H58.3368ZM56.4434 10.9709V4.40088H55.0846V10.9709H56.4434ZM52.9148 10.0046C52.8081 10.0046 52.7291 9.96655 52.6778 9.8905C52.6264 9.81446 52.6014 9.71088 52.6014 9.57846V6.85659C52.6014 6.53275 52.7054 6.37017 52.9148 6.37017C53.1228 6.37017 53.2281 6.53275 53.2281 6.85659V9.57846C53.2281 9.71088 53.2031 9.81446 53.1518 9.8905C53.1004 9.96655 53.0227 10.0046 52.9148 10.0046ZM52.9148 11.0312C54.03 11.0312 54.5869 10.4556 54.5869 9.30443V7.0703C54.5869 6.54323 54.4382 6.12368 54.1406 5.81163C53.843 5.49959 53.4335 5.34357 52.9148 5.34357C52.396 5.34357 51.9865 5.49959 51.689 5.81163C51.3914 6.12368 51.2426 6.54323 51.2426 7.0703V9.30575C51.2426 10.4569 51.7996 11.0312 52.9148 11.0312ZM49.5862 10.9709V8.00512H50.8239V6.75039H49.5862V5.70806H50.8924V4.43759H48.2656V10.9695H49.5862V10.9709Z" fill="white"/>
<path d="M112.998 28.1216H109.746H103.698H99.2472C97.1471 28.1216 95.446 29.8168 95.446 31.9068V36.2413C94.7218 36.8588 93.575 37.5039 91.9766 37.4501C92.8442 38.7796 94.2215 39.2464 95.525 39.27C95.8844 40.9888 97.4131 42.2816 99.2459 42.2816H104.823H110.876H112.997C115.097 42.2816 116.798 40.5863 116.798 38.4964V31.9068C116.8 29.8168 115.097 28.1216 112.998 28.1216Z" fill="#3F8FFF"/>
<path d="M110.547 35.0889V34.3743C110.547 33.9744 110.659 33.7738 110.883 33.7738C111.082 33.7738 111.18 33.9744 111.18 34.3743V35.0889H110.547ZM110.83 38.4728C111.446 38.4728 111.88 38.3194 112.132 38.0126C112.384 37.7058 112.51 37.2286 112.51 36.5796V36.2597H111.182V36.7999C111.182 36.9519 111.178 37.0673 111.17 37.146C111.162 37.2247 111.137 37.2941 111.094 37.3558C111.05 37.4161 110.978 37.4475 110.876 37.4475C110.743 37.4475 110.658 37.3925 110.617 37.2837C110.576 37.1748 110.556 37.0241 110.556 36.8313V35.751H112.496C112.506 35.4979 112.512 35.1675 112.512 34.7624V34.3599C112.512 33.311 111.974 32.7852 110.9 32.7852C110.371 32.7852 109.959 32.919 109.662 33.1877C109.367 33.4565 109.22 33.8472 109.22 34.3586V36.594C109.22 37.2181 109.345 37.6862 109.594 38.0008C109.841 38.3155 110.255 38.4728 110.83 38.4728ZM106.835 38.4125V35.789L107.668 38.4125H109.088L108.019 35.2645L108.859 32.8469H107.477L106.835 34.7637V31.8439H105.515V38.4138H106.835V38.4125ZM104.988 38.4125V32.8455H103.652V38.4125H104.988ZM104.988 32.4732V31.5449H103.652V32.4732H104.988ZM103.315 38.4125V37.302H101.962V31.8806H100.648V38.4125H103.315Z" fill="white"/>
<path d="M46.5437 23.9155H40.0671H32.8873H26.4106C24.3105 23.9155 22.6094 25.6108 22.6094 27.7007V34.2904C22.6094 36.3816 24.3118 38.0755 26.4106 38.0755H32.8873H40.0671H44.0816C44.4976 39.7236 46.0092 42.0679 48.6175 41.9538C47.447 40.4303 47.4865 38.8491 47.6655 37.9077C49.2166 37.4305 50.345 35.9922 50.345 34.2904V27.7007C50.3463 25.6108 48.6438 23.9155 46.5437 23.9155Z" fill="#E30613"/>
<path d="M42.5733 30.6964V29.9818C42.5733 29.5819 42.6852 29.3813 42.909 29.3813C43.1079 29.3813 43.2066 29.5819 43.2066 29.9818V30.6964H42.5733ZM42.8564 34.0803C43.4726 34.0803 43.9058 33.9269 44.1586 33.6201C44.41 33.3133 44.5364 32.8361 44.5364 32.1871V31.8672H43.2079V32.4074C43.2079 32.5594 43.204 32.6748 43.1961 32.7535C43.1882 32.8322 43.1632 32.9016 43.1197 32.9633C43.0763 33.0236 43.0038 33.055 42.9025 33.055C42.7695 33.055 42.6839 33 42.6431 32.8912C42.6023 32.7823 42.5825 32.6316 42.5825 32.4388V31.3585H44.522C44.5325 31.1054 44.5378 30.775 44.5378 30.3699V29.9674C44.5378 28.9185 44.0006 28.3927 42.9262 28.3927C42.3969 28.3927 41.9847 28.5265 41.6885 28.7953C41.3936 29.064 41.2461 29.4547 41.2461 29.9661V32.2015C41.2461 32.8256 41.3712 33.2937 41.62 33.6083C41.8676 33.923 42.281 34.0803 42.8564 34.0803ZM38.6641 34.0187H40.0005V29.7602C40.0005 29.6894 40.1138 29.6278 40.3402 29.5741C40.5667 29.5203 40.7747 29.4941 40.963 29.4941V28.3836C40.7181 28.3836 40.514 28.4426 40.3481 28.5619C40.1822 28.6812 40.0664 28.8503 40.0005 29.068V28.4517H38.6641V34.0187ZM36.5179 33.0459C36.3191 33.0459 36.2204 32.8807 36.2204 32.5516V31.837C36.2204 31.6299 36.2678 31.4673 36.3613 31.3506C36.4561 31.2339 36.6022 31.1382 36.7997 31.0622V32.6132C36.7997 32.7351 36.7786 32.8374 36.7352 32.9213C36.6917 33.0039 36.6193 33.0459 36.5179 33.0459ZM35.9913 34.0803C36.1901 34.0803 36.3613 34.0174 36.5074 33.8902C36.6522 33.763 36.7576 33.5861 36.8247 33.3579V34.02H38.1532V29.7773C38.1532 29.3367 38.0084 28.9959 37.7174 28.7546C37.4278 28.5134 37.0499 28.394 36.5877 28.394C36.0071 28.394 35.5884 28.5107 35.3316 28.7441C35.0749 28.9775 34.9458 29.3682 34.9458 29.9149V30.0972H36.2441V29.7629C36.2441 29.6514 36.2704 29.5622 36.3244 29.4967C36.3784 29.4311 36.4403 29.3984 36.5114 29.3984C36.593 29.3984 36.6628 29.4377 36.7207 29.5164C36.7786 29.595 36.8089 29.7078 36.8089 29.8546V30.4092V30.425L36.4429 30.5469C36.0255 30.6793 35.7148 30.7986 35.5107 30.9074C35.3066 31.0163 35.1486 31.188 35.0327 31.4214C34.9182 31.6548 34.8616 31.9891 34.8616 32.4257C34.8616 32.958 34.9419 33.3671 35.1025 33.6542C35.2618 33.9361 35.5581 34.0803 35.9913 34.0803ZM31.1183 34.0187H32.4929V29.8061C32.4929 29.6947 32.5192 29.599 32.5732 29.5216C32.6272 29.4442 32.6996 29.4036 32.7905 29.4036C32.8971 29.4036 32.9787 29.4416 33.0354 29.5177C33.0907 29.5937 33.1196 29.692 33.1196 29.814V34.0187H34.456V29.7301C34.456 29.3145 34.3586 28.988 34.1664 28.7494C33.9728 28.5107 33.6884 28.3914 33.3105 28.3914C32.909 28.3914 32.6364 28.5947 32.4929 28.9998V27.4487H31.1183V34.0187ZM29.1788 34.0803C29.7239 34.0803 30.1137 33.9138 30.3507 33.5821C30.5877 33.2504 30.7062 32.7627 30.7062 32.1176C30.7062 31.8292 30.6706 31.5787 30.5995 31.369C30.5284 31.1592 30.4336 30.9756 30.3164 30.8209C30.1993 30.6662 30.0518 30.5023 29.874 30.3306L29.1104 29.6003C28.8655 29.3721 28.7443 29.1519 28.7443 28.9382C28.7443 28.8425 28.7694 28.7664 28.8207 28.71C28.8721 28.655 28.9484 28.6261 29.0498 28.6261C29.1367 28.6261 29.2039 28.651 29.2526 28.7022C29.3013 28.7533 29.325 28.8215 29.325 28.908L29.3329 29.3564H30.6693C30.6693 28.6917 30.539 28.2039 30.2796 27.8919C30.0202 27.5798 29.5949 27.4238 29.0037 27.4238C28.51 27.4238 28.1347 27.5694 27.878 27.8604C27.6212 28.1515 27.4922 28.5763 27.4922 29.1335C27.4922 29.6501 27.7108 30.1221 28.1492 30.5482L28.7141 31.1107C28.9181 31.3087 29.059 31.4542 29.138 31.5473C29.217 31.6417 29.2815 31.7584 29.3329 31.8973C29.3842 32.0363 29.4093 32.2133 29.4093 32.4257C29.4093 32.5883 29.3869 32.7037 29.3408 32.7718C29.2947 32.84 29.2131 32.8741 29.0959 32.8741C28.8865 32.8741 28.7825 32.7115 28.7825 32.3877V31.5735H27.4922V32.212C27.4922 32.8663 27.6239 33.3396 27.8898 33.6346C28.1532 33.9322 28.5837 34.0803 29.1788 34.0803Z" fill="white"/>
<path d="M110.84 8.68018H104.363H99.9982H97.1818H93.5215H90.7052H86.3404H79.8637C77.7636 8.68018 76.0625 10.3754 76.0625 12.4654V19.055C76.0625 21.1462 77.7649 22.8402 79.8637 22.8402H83.4187C83.578 23.7934 83.5675 25.3051 82.4457 26.7656C85.079 26.8797 86.5945 24.4909 86.9935 22.8402H90.7052H93.5215H97.1818H99.9982H104.363H110.84C112.94 22.8402 114.641 21.1449 114.641 19.055V12.4654C114.641 10.3754 112.94 8.68018 110.84 8.68018Z" fill="#E30613"/>
<path d="M108.548 18.8715C108.685 18.8715 108.827 18.8597 108.972 18.8374C109.117 18.8151 109.227 18.7928 109.304 18.7732V17.8606C109.288 17.8606 109.257 17.8633 109.211 17.8685C109.165 17.8738 109.117 17.8764 109.067 17.8764C109.001 17.8764 108.96 17.8541 108.944 17.8082C108.928 17.7623 108.922 17.6915 108.922 17.5958V14.4701H109.304V13.4592H108.922V12.2806H107.624V13.4592H107.25V14.4701H107.624V17.9446C107.624 18.2697 107.689 18.5044 107.822 18.6512C107.954 18.7981 108.196 18.8715 108.548 18.8715ZM103.584 18.8112H104.92V14.8949C104.92 14.6878 104.941 14.5212 104.985 14.3967C105.028 14.2721 105.119 14.2105 105.256 14.2105C105.358 14.2105 105.433 14.2538 105.481 14.3403C105.53 14.4268 105.554 14.5304 105.554 14.6524V18.8125H106.868V14.516C106.868 14.0899 106.777 13.7621 106.597 13.5314C106.416 13.3006 106.137 13.1852 105.76 13.1852C105.531 13.1852 105.348 13.256 105.21 13.3976C105.073 13.5392 104.976 13.7241 104.92 13.9522V13.2455H103.584V18.8112ZM101.14 15.4875V14.773C101.14 14.3731 101.252 14.1725 101.476 14.1725C101.675 14.1725 101.774 14.3731 101.774 14.773V15.4875H101.14ZM101.422 18.8715C102.038 18.8715 102.471 18.7181 102.724 18.4113C102.976 18.1045 103.102 17.6273 103.102 16.9783V16.6584H101.774V17.1985C101.774 17.3506 101.77 17.466 101.762 17.5447C101.754 17.6233 101.729 17.6928 101.685 17.7544C101.642 17.8148 101.569 17.8462 101.468 17.8462C101.335 17.8462 101.25 17.7912 101.209 17.6823C101.168 17.5735 101.148 17.4227 101.148 17.23V16.1496H103.088C103.098 15.8966 103.103 15.5662 103.103 15.1611V14.7586C103.103 13.7097 102.566 13.1839 101.492 13.1839C100.962 13.1839 100.55 13.3176 100.254 13.5864C99.9592 13.8552 99.8117 14.2459 99.8117 14.7572V16.9927C99.8117 17.6168 99.9368 18.0848 100.186 18.3995C100.435 18.7142 100.847 18.8715 101.422 18.8715ZM94.0684 18.8112H95.3746V14.8792C95.3746 14.6917 95.4022 14.5304 95.4588 14.3967C95.5141 14.263 95.6116 14.1948 95.7485 14.1948C95.8551 14.1948 95.9249 14.2433 95.9579 14.339C95.9908 14.4347 96.0079 14.5619 96.0079 14.7192V18.8099H97.3443V14.811C97.3443 14.6392 97.3719 14.4898 97.4286 14.3665C97.4839 14.242 97.576 14.1804 97.7038 14.1804C97.8868 14.1804 97.9789 14.36 97.9789 14.7205V18.8112H99.3232L99.339 14.7428C99.339 14.2354 99.2535 13.85 99.0836 13.5838C98.9124 13.3176 98.6083 13.1852 98.1712 13.1852C97.9263 13.1852 97.7354 13.2298 97.5984 13.3176C97.4615 13.4068 97.3364 13.5471 97.2245 13.7398C97.1586 13.5681 97.0454 13.4317 96.8848 13.3334C96.7241 13.235 96.5345 13.1852 96.316 13.1852C96.0461 13.1852 95.838 13.2442 95.6893 13.3596C95.5418 13.4763 95.4378 13.6533 95.3759 13.8919V13.2455H94.0697V18.8112H94.0684ZM88.2804 18.8112H89.5865V14.8792C89.5865 14.6917 89.6142 14.5304 89.6708 14.3967C89.7261 14.263 89.8235 14.1948 89.9604 14.1948C90.0671 14.1948 90.1369 14.2433 90.1698 14.339C90.2027 14.4347 90.2198 14.5619 90.2198 14.7192V18.8099H91.5562V14.811C91.5562 14.6392 91.5839 14.4898 91.6405 14.3665C91.6958 14.242 91.788 14.1804 91.9157 14.1804C92.0987 14.1804 92.1909 14.36 92.1909 14.7205V18.8112H93.5352L93.551 14.7428C93.551 14.2354 93.4654 13.85 93.2955 13.5838C93.1244 13.3176 92.8202 13.1852 92.3831 13.1852C92.1382 13.1852 91.9473 13.2298 91.8104 13.3176C91.6734 13.4068 91.5483 13.5471 91.4364 13.7398C91.3706 13.5681 91.2574 13.4317 91.0967 13.3334C90.9361 13.235 90.7465 13.1852 90.5279 13.1852C90.258 13.1852 90.05 13.2442 89.9012 13.3596C89.7537 13.4763 89.6497 13.6533 89.5878 13.8919V13.2455H88.2817V18.8112H88.2804ZM86.1105 17.8449C86.0039 17.8449 85.9248 17.8069 85.8735 17.7308C85.8221 17.6548 85.7971 17.5512 85.7971 17.4188V14.6969C85.7971 14.3731 85.9012 14.2105 86.1105 14.2105C86.3185 14.2105 86.4239 14.3731 86.4239 14.6969V17.4188C86.4239 17.5512 86.3989 17.6548 86.3475 17.7308C86.2962 17.8069 86.2185 17.8449 86.1105 17.8449ZM86.1105 18.8715C87.2257 18.8715 87.7827 18.2959 87.7827 17.1448V14.9093C87.7827 14.3823 87.6339 13.9627 87.3363 13.6507C87.0388 13.3386 86.6293 13.1826 86.1105 13.1826C85.5917 13.1826 85.1823 13.3386 84.8847 13.6507C84.5871 13.9627 84.4383 14.3823 84.4383 14.9093V17.1448C84.4383 18.2972 84.9966 18.8715 86.1105 18.8715ZM82.4146 18.8715C83.5193 18.8715 84.0723 18.3235 84.0723 17.2287V15.9962H82.7517V17.1749C82.7517 17.504 82.6503 17.6692 82.4462 17.6692C82.3448 17.6692 82.2685 17.6299 82.2171 17.5512C82.1658 17.4726 82.1408 17.3467 82.1408 17.1749V13.8972C82.1408 13.7398 82.1618 13.6205 82.2053 13.5392C82.2487 13.4579 82.329 13.4173 82.4462 13.4173C82.5581 13.4173 82.6371 13.4527 82.6832 13.5235C82.7293 13.5943 82.7517 13.7241 82.7517 13.9116V14.8779H84.0578V13.7529C84.0578 13.256 83.9104 12.8758 83.6154 12.6123C83.3205 12.3487 82.9308 12.2163 82.4475 12.2163C81.8932 12.2163 81.485 12.3815 81.2257 12.7106C80.9663 13.0397 80.8359 13.5287 80.8359 14.1777V17.1894C80.8359 17.7112 80.9794 18.1216 81.2678 18.4218C81.5535 18.722 81.9367 18.8715 82.4146 18.8715Z" fill="white"/>
<defs>
<linearGradient id="paint0_linear_3040_13445" x1="86.4571" y1="49.038" x2="38.7425" y2="48.7649" gradientUnits="userSpaceOnUse">
<stop stop-color="#FFBFA6"/>
<stop offset="0.1835" stop-color="#FFB8A2"/>
<stop offset="0.4457" stop-color="#FFA598"/>
<stop offset="0.7536" stop-color="#FF8788"/>
<stop offset="1" stop-color="#FF6978"/>
</linearGradient>
<radialGradient id="paint1_radial_3040_13445" cx="0" cy="0" r="1" gradientUnits="userSpaceOnUse" gradientTransform="translate(74.2098 30.7709) rotate(6.55626) scale(25.0878 19.6552)">
<stop offset="0.0307" stop-color="#FFFFCB"/>
<stop offset="0.4521" stop-color="#FFCCCB"/>
<stop offset="0.5827" stop-color="#FFC5C4"/>
<stop offset="0.7694" stop-color="#FFB2B2"/>
<stop offset="0.9888" stop-color="#FF9494"/>
<stop offset="1" stop-color="#FF9292"/>
</radialGradient>
<radialGradient id="paint2_radial_3040_13445" cx="0" cy="0" r="1" gradientUnits="userSpaceOnUse" gradientTransform="translate(80.4237 23.781) rotate(6.55524) scale(27.2235 27.1665)">
<stop offset="0.0307" stop-color="#FFFFCB"/>
<stop offset="0.4521" stop-color="#FFCCCB"/>
<stop offset="0.5827" stop-color="#FFC5C4"/>
<stop offset="0.7694" stop-color="#FFB2B2"/>
<stop offset="0.9888" stop-color="#FF9494"/>
<stop offset="1" stop-color="#FF9292"/>
</radialGradient>
<radialGradient id="paint3_radial_3040_13445" cx="0" cy="0" r="1" gradientUnits="userSpaceOnUse" gradientTransform="translate(75.3999 31.9568) rotate(3.67272) scale(27.1944 21.2)">
<stop offset="0.0307" stop-color="#FFFFCB"/>
<stop offset="0.4521" stop-color="#FFCCCB"/>
<stop offset="0.5827" stop-color="#FFC5C4"/>
<stop offset="0.7694" stop-color="#FFB2B2"/>
<stop offset="0.9888" stop-color="#FF9494"/>
<stop offset="1" stop-color="#FF9292"/>
</radialGradient>
<radialGradient id="paint4_radial_3040_13445" cx="0" cy="0" r="1" gradientUnits="userSpaceOnUse" gradientTransform="translate(79.4781 25.1956) rotate(3.68418) scale(26.7261 26.6252)">
<stop offset="0.0307" stop-color="#FFFFCB"/>
<stop offset="0.4521" stop-color="#FFCCCB"/>
<stop offset="0.5827" stop-color="#FFC5C4"/>
<stop offset="0.7694" stop-color="#FFB2B2"/>
<stop offset="0.9888" stop-color="#FF9494"/>
<stop offset="1" stop-color="#FF9292"/>
</radialGradient>
<linearGradient id="paint5_linear_3040_13445" x1="75.9645" y1="27.8891" x2="52.3011" y2="41.9872" gradientUnits="userSpaceOnUse">
<stop stop-color="#FFBFA6"/>
<stop offset="0.1835" stop-color="#FFB8A2"/>
<stop offset="0.4457" stop-color="#FFA598"/>
<stop offset="0.7536" stop-color="#FF8788"/>
<stop offset="1" stop-color="#FF6978"/>
</linearGradient>
<radialGradient id="paint6_radial_3040_13445" cx="0" cy="0" r="1" gradientUnits="userSpaceOnUse" gradientTransform="translate(70.8813 34.932) rotate(-2.44833) scale(6.70621 6.67802)">
<stop offset="0.3334" stop-color="white"/>
<stop offset="0.446" stop-color="#FFE2E2"/>
<stop offset="1" stop-color="#FF5459"/>
</radialGradient>
<radialGradient id="paint7_radial_3040_13445" cx="0" cy="0" r="1" gradientUnits="userSpaceOnUse" gradientTransform="translate(64.8309 34.5167) rotate(177.552) scale(6.48692 6.45966)">
<stop offset="0.3334" stop-color="white"/>
<stop offset="0.446" stop-color="#FFE2E2"/>
<stop offset="1" stop-color="#FF5459"/>
</radialGradient>
<linearGradient id="paint8_linear_3040_13445" x1="17.5904" y1="36.9475" x2="36.0222" y2="51.3232" gradientUnits="userSpaceOnUse">
<stop stop-color="#FFBFA6"/>
<stop offset="0.1835" stop-color="#FFB8A2"/>
<stop offset="0.4457" stop-color="#FFA598"/>
<stop offset="0.7536" stop-color="#FF8788"/>
<stop offset="1" stop-color="#FF6978"/>
</linearGradient>
<linearGradient id="paint9_linear_3040_13445" x1="78.0871" y1="40.9889" x2="90.5161" y2="40.9889" gradientUnits="userSpaceOnUse">
<stop stop-color="#FFBFA6"/>
<stop offset="0.1835" stop-color="#FFB8A2"/>
<stop offset="0.4457" stop-color="#FFA598"/>
<stop offset="0.7536" stop-color="#FF8788"/>
<stop offset="1" stop-color="#FF6978"/>
</linearGradient>
</defs>
</svg>
