<svg width="148" height="148" viewBox="0 0 148 148" fill="none" xmlns="http://www.w3.org/2000/svg">
<path d="M114.512 69.1901C114.272 70.1336 112.699 71.3176 110.239 72.3721L110.627 66.7111L109.517 60.8836L101.322 50.1536L95.8272 50.4311L91.7202 52.9286V54.5751V54.5936C91.9237 55.0746 101.266 75.6466 101.266 75.8316C101.069 76.0906 100.865 76.3311 100.656 76.5531C97.8252 79.4021 92.2197 78.8656 90.6843 78.6436C90.4438 78.6251 90.3327 78.4031 90.2402 78.1996C86.2072 68.6351 84.9492 50.1166 97.6032 48.3961C111.293 46.5461 114.975 67.3586 114.512 69.1901Z" fill="#301902"/>
<path d="M118.474 76.7381C118.462 76.8491 118.443 76.9724 118.418 77.1081C118.406 77.1944 118.394 77.2807 118.381 77.3671C118.357 77.4781 118.338 77.5952 118.326 77.7186C118.301 77.8419 118.283 77.9652 118.27 78.0886C118.258 78.1872 118.24 78.2859 118.215 78.3846C118.166 78.6929 118.116 79.0197 118.067 79.3651C118.042 79.5501 118.011 79.7289 117.974 79.9016C117.962 80.0002 117.95 80.0927 117.937 80.1791C117.913 80.3641 117.882 80.5552 117.845 80.7526C117.833 80.8512 117.82 80.9437 117.808 81.0301C117.771 81.2274 117.74 81.4309 117.715 81.6406C117.654 81.9982 117.598 82.3682 117.549 82.7506C117.5 83.0219 117.456 83.2994 117.419 83.5831C117.395 83.7681 117.364 83.9531 117.327 84.1381C117.315 84.2367 117.302 84.3292 117.29 84.4156C117.253 84.6746 117.216 84.9397 117.179 85.2111C117.08 85.8277 116.982 86.4567 116.883 87.0981C116.858 87.3077 116.827 87.5174 116.79 87.7271C116.778 87.8257 116.766 87.9306 116.753 88.0416C116.692 88.4362 116.63 88.8432 116.568 89.2626C116.457 90.0149 116.346 90.7796 116.235 91.5566C116.174 91.9882 116.118 92.4199 116.069 92.8516C116.044 92.9626 116.026 93.0736 116.013 93.1846C115.989 93.3942 115.958 93.6101 115.921 93.8321C115.884 94.1651 115.841 94.4919 115.791 94.8126C115.767 95.0222 115.736 95.2319 115.699 95.4416C115.6 96.2186 115.502 96.9894 115.403 97.7541C115.304 98.5064 115.206 99.2587 115.107 100.011C115.082 100.208 115.064 100.4 115.051 100.585C115.027 100.77 115.002 100.955 114.977 101.14C114.903 101.781 114.829 102.404 114.755 103.008C114.731 103.255 114.706 103.495 114.681 103.73C114.669 103.878 114.651 104.019 114.626 104.155C114.626 104.167 114.626 104.18 114.626 104.192C114.614 104.34 114.601 104.494 114.589 104.655C114.577 104.667 114.57 104.685 114.57 104.71C114.558 104.846 114.546 104.975 114.533 105.099C114.509 105.333 114.484 105.567 114.459 105.802C114.447 105.974 114.435 106.147 114.422 106.32C114.385 106.628 114.355 106.924 114.33 107.208C114.33 107.331 114.324 107.448 114.311 107.559C114.311 107.571 114.311 107.584 114.311 107.596C114.299 107.621 114.293 107.645 114.293 107.67C114.293 107.756 114.287 107.843 114.274 107.929C114.274 107.966 114.274 108.003 114.274 108.04C114.262 108.188 114.25 108.336 114.237 108.484C114.237 108.57 114.231 108.657 114.219 108.743C114.207 108.854 114.2 108.959 114.2 109.058C114.2 109.156 114.194 109.255 114.182 109.354C114.182 109.415 114.182 109.483 114.182 109.557C114.157 109.902 114.139 110.229 114.126 110.538C114.126 110.587 114.126 110.63 114.126 110.667C114.114 111.16 114.12 111.586 114.145 111.944C114.256 113.923 113.553 117.346 113.275 119.251C111.407 119.418 110.167 119.251 107.744 119.251L89.3364 119.325L88.1154 114.589L80.2344 111.37C80.7154 108.41 84.3044 82.6211 86.1544 80.2716C88.0044 77.9406 95.6634 75.6651 98.5494 74.3331C101.232 73.1121 105.32 73.8706 108.132 74.1666C111.185 74.4996 114.2 75.1286 117.123 76.1091C117.629 76.2694 118.079 76.4791 118.474 76.7381Z" fill="#74C247"/>
<path d="M95.8306 51.2451L100.511 51.6336L103.638 56.0921C109.41 62.1108 109.175 66.8714 102.935 70.3741C93.5736 75.6096 90.8911 69.7451 90.0216 63.6031C89.1706 57.4426 92.5006 55.0006 92.7411 53.0211L95.8306 51.2451Z" fill="#FFB58C"/>
<path d="M92.166 63.7695C92.5338 63.7695 92.832 63.3637 92.832 62.863C92.832 62.3624 92.5338 61.9565 92.166 61.9565C91.7982 61.9565 91.5 62.3624 91.5 62.863C91.5 63.3637 91.7982 63.7695 92.166 63.7695Z" fill="#301902"/>
<path d="M97.0176 63.3257C97.3854 63.3257 97.6836 62.9198 97.6836 62.4192C97.6836 61.9185 97.3854 61.5127 97.0176 61.5127C96.6497 61.5127 96.3516 61.9185 96.3516 62.4192C96.3516 62.9198 96.6497 63.3257 97.0176 63.3257Z" fill="#301902"/>
<path d="M94.4062 63.3623C94.5912 63.2698 94.7577 63.3623 94.8317 63.5288C94.9797 63.8433 94.9612 64.2873 94.9982 64.6203C95.0352 65.015 95.0784 65.4097 95.1277 65.8043C95.1647 66.1558 95.1092 66.5813 94.6837 66.5998C94.3692 66.6183 94.0177 66.4518 93.7587 66.3038C93.2222 65.9893 93.5922 65.2123 93.7217 64.7683C93.8512 64.3058 93.9807 63.6953 94.3877 63.3808C94.4 63.3808 94.4062 63.3747 94.4062 63.3623Z" fill="#FF887F"/>
<path d="M93.3536 61.161C93.1316 61.05 92.9281 60.9945 92.7246 60.9205C92.5396 60.8712 92.3546 60.8403 92.1696 60.828C92.0031 60.828 91.8366 60.8465 91.6516 60.902C91.4851 60.976 91.3001 61.087 91.0781 61.235C91.0966 60.976 91.2076 60.7355 91.4111 60.5505C91.6146 60.3655 91.9106 60.2545 92.1881 60.273C92.4656 60.2915 92.7246 60.384 92.9281 60.5505C93.1316 60.6985 93.3166 60.9205 93.3536 61.161Z" fill="#231F20"/>
<path d="M98.4403 60.9762C98.1998 60.8282 97.9593 60.7542 97.7373 60.6987C97.503 60.6494 97.2748 60.6309 97.0528 60.6432C96.8308 60.6432 96.6088 60.6802 96.4053 60.7542C96.1833 60.8467 95.9798 60.9762 95.7578 61.1427C95.7763 60.8652 95.9428 60.5877 96.1833 60.3842C96.4238 60.1992 96.7383 60.0882 97.0343 60.0882C97.3488 60.0697 97.6448 60.1437 97.9038 60.3102C98.1628 60.4582 98.3848 60.6987 98.4403 60.9762Z" fill="#231F20"/>
<path d="M94.9453 68.2837C95.2413 68.2837 95.5373 68.2467 95.8148 68.1727C96.0738 68.1172 96.3328 68.0062 96.5548 67.8582C96.7583 67.6917 96.9433 67.5067 97.0913 67.2662C97.2393 67.0257 97.3318 66.7667 97.4058 66.4707C97.4798 66.7667 97.4613 67.0812 97.3503 67.3957C97.2393 67.6917 97.0358 67.9692 96.7583 68.1542C96.2218 68.5242 95.4818 68.5612 94.9453 68.2837Z" fill="#301902"/>
<path d="M105.635 77.0343C104.821 80.6603 97.9759 83.0098 97.2544 78.1073C97.1064 77.0528 97.3469 76.0168 97.4209 74.9808C97.4579 74.5614 97.4826 74.1421 97.4949 73.7228C97.5073 73.2418 97.5011 72.7669 97.4764 72.2983C97.4641 72.1379 97.4518 71.9838 97.4394 71.8358C97.4209 71.6138 97.0509 69.1348 97.1989 69.0608C97.2113 69.0608 100.023 68.3146 105.635 66.8223C106.128 71.4103 106.128 74.8143 105.635 77.0343Z" fill="#FFB58C"/>
<path d="M119.162 117.124C118.644 114.46 117.867 110.593 117.108 106.69C116.479 103.526 115.869 100.326 115.406 97.7543C115.505 96.9896 115.604 96.2188 115.702 95.4418C115.739 95.2321 115.77 95.0224 115.795 94.8128C115.844 94.4921 115.887 94.1653 115.924 93.8323C115.961 93.6103 115.992 93.3945 116.017 93.1848C116.029 93.0738 116.041 92.9628 116.054 92.8518C116.115 92.4201 116.177 91.9884 116.239 91.5568C116.35 90.7798 116.461 90.0151 116.572 89.2628C116.633 88.8435 116.695 88.4364 116.757 88.0418C116.769 87.9308 116.781 87.826 116.794 87.7273C116.831 87.5176 116.862 87.3079 116.886 87.0983C116.985 86.4569 117.077 85.828 117.164 85.2113C117.213 84.94 117.256 84.6748 117.293 84.4158C117.306 84.3294 117.318 84.2369 117.33 84.1383C117.367 83.9533 117.398 83.7683 117.423 83.5833C117.46 83.2996 117.503 83.0221 117.552 82.7508C117.602 82.3684 117.657 81.9984 117.719 81.6408C117.743 81.4311 117.774 81.2276 117.811 81.0303C117.824 80.944 117.836 80.8515 117.848 80.7528C117.885 80.5555 117.916 80.3643 117.941 80.1793C117.953 80.0929 117.965 80.0004 117.978 79.9018C118.015 79.7291 118.046 79.5503 118.07 79.3653C118.12 79.02 118.169 78.6931 118.218 78.3848C118.243 78.2861 118.261 78.1875 118.274 78.0888C118.286 77.9655 118.305 77.8421 118.329 77.7188C118.342 77.5955 118.36 77.4783 118.385 77.3673C118.397 77.281 118.409 77.1946 118.422 77.1083C118.446 76.9726 118.465 76.8493 118.477 76.7383C119.902 77.6448 120.642 79.0508 121.178 80.8823C122.529 85.4888 126.414 103.36 127.302 108.595C127.394 109.113 127.45 109.52 127.468 109.761C127.653 111.759 127.135 115.348 119.162 117.124Z" fill="#74C247"/>
<path d="M88.7076 82.6396L88.6706 83.0651C88.6706 83.1946 88.6706 83.3241 88.6706 83.4721C88.6706 83.7496 88.6706 84.0271 88.6891 84.2861C88.6891 84.5698 88.6953 84.8473 88.7076 85.1186C88.7323 85.39 88.7508 85.6675 88.7631 85.9511C88.8186 87.0426 88.9111 88.1341 89.0036 89.2441C89.1701 91.4271 89.3736 93.6286 89.5956 95.8117C89.7066 96.9031 89.8176 98.0131 89.9841 99.0861C90.0581 99.6411 90.0951 100.215 90.0951 100.751C90.0951 101.325 90.0766 101.861 90.0396 102.416C89.8916 104.636 89.5956 106.819 89.2256 108.984C89.3366 107.892 89.4476 106.801 89.5401 105.691C89.6326 104.599 89.7066 103.508 89.7436 102.398C89.7806 101.306 89.8176 100.215 89.6326 99.1416C89.4661 98.0501 89.3366 96.9586 89.2256 95.8486C89.0036 93.6656 88.8371 91.4641 88.7076 89.2626C88.6521 88.1526 88.5966 87.0611 88.5781 85.9511C88.5781 85.6798 88.5781 85.4023 88.5781 85.1186C88.5781 84.8473 88.5781 84.5698 88.5781 84.2861C88.5966 84.0271 88.5966 83.7496 88.6151 83.4721C88.6336 83.3241 88.6336 83.1946 88.6521 83.0466L88.7076 82.6396Z" fill="#001D40"/>
<path d="M118.476 76.7383C118.235 77.4783 118.087 78.2553 117.939 79.0138C117.81 79.7908 117.68 80.5678 117.569 81.3448C117.335 82.8865 117.125 84.4343 116.94 85.9883C116.57 89.1086 116.213 92.2228 115.867 95.3308C115.701 96.8848 115.553 98.4573 115.368 100.011L115.09 102.342L114.942 103.508C114.905 103.896 114.831 104.303 114.776 104.673C114.665 105.45 114.609 106.227 114.535 107.004C114.48 107.781 114.424 108.558 114.387 109.354L114.276 111.703L114.165 114.053C114.147 113.257 114.147 112.48 114.147 111.685C114.134 110.908 114.141 110.125 114.165 109.335C114.202 107.763 114.239 106.209 114.443 104.636C114.498 104.229 114.554 103.859 114.609 103.471L114.757 102.305L114.998 99.9743C115.164 98.4203 115.349 96.8478 115.534 95.2938C115.886 92.1858 116.237 89.0593 116.681 85.9698C116.903 84.4158 117.144 82.8618 117.403 81.3078C117.551 80.5493 117.699 79.7723 117.865 78.9953C118.032 78.2368 118.217 77.4783 118.476 76.7383Z" fill="#001D40"/>
<path fill-rule="evenodd" clip-rule="evenodd" d="M87.4148 114.867C85.9163 114.867 84.6953 113.646 84.6953 112.147C84.6953 110.649 85.9163 109.428 87.4148 109.428C88.9133 109.428 90.1343 110.649 90.1343 112.147C90.1343 113.646 88.9133 114.867 87.4148 114.867ZM87.4148 110.39C86.4528 110.39 85.6573 111.185 85.6573 112.147C85.6573 113.128 86.4528 113.905 87.4148 113.905C88.3953 113.905 89.1723 113.128 89.1723 112.147C89.1723 111.185 88.3953 110.39 87.4148 110.39Z" fill="#A2D087" fill-opacity="0.4"/>
<path d="M94.2406 117.956H91.4286C89.2086 117.956 87.4141 116.162 87.4141 113.942V108.503C87.4141 107.837 87.9506 107.3 88.6166 107.3H97.0711C97.7186 107.3 98.2551 107.837 98.2551 108.503V113.942C98.2551 116.162 96.4606 117.956 94.2406 117.956Z" fill="white" stroke="#A2D087" stroke-opacity="0.4" stroke-width="1.1"/>
<path d="M99.6468 116.088C100.165 116.088 100.498 116.624 100.257 117.05L99.6468 118.141H92.8388H86.0493L85.4388 117.05C85.1798 116.624 85.5313 116.088 86.0493 116.088H92.8388H99.6468Z" fill="#A2D087" fill-opacity="0.4"/>
<path d="M108.319 115.977C108.257 115.952 108.165 115.927 108.041 115.903C107.782 115.866 107.357 115.81 106.654 115.81C106.358 115.81 106.006 115.822 105.599 115.847C104.36 115.921 102.639 116.162 100.271 116.661C98.2364 117.105 97.0709 117.494 97.0339 116.809C96.9969 116.106 100.641 114.719 100.604 114.071C100.549 113.461 95.8314 114.09 94.5734 113.498C94.4439 113.424 94.4254 113.257 94.5364 113.183C95.3689 112.554 99.6979 112.369 101.048 112.314C99.7164 111.481 92.3164 112.406 94.0184 111.185C94.9434 110.519 100.993 110.519 101.048 110.519C100.592 110.161 99.7164 109.847 98.4214 109.576C95.7944 109.822 94.3268 109.625 94.0184 108.984C93.8951 108.836 94.8078 108.515 96.7564 108.022C98.9209 107.467 103.324 109.021 106.025 110.094C106.087 110.118 106.142 110.143 106.191 110.168C106.783 110.39 107.283 110.593 107.653 110.76C107.826 110.834 107.967 110.889 108.078 110.926L108.189 113.128L108.319 115.847V115.977Z" fill="#FFB58C"/>
<path d="M79.051 114.774C78.4775 113.276 79.051 111.074 79.5875 109.779C79.9575 108.928 80.5865 107.911 81.6225 107.911C84.083 107.874 89.3555 110.649 89.7255 111.574C90.0955 112.499 87.006 111.648 86.081 111.555C86.599 112.425 86.303 115.551 85.193 116.199C83.565 117.161 80.6975 116.994 79.4395 115.459C79.2792 115.249 79.1497 115.021 79.051 114.774Z" fill="#FFB58C"/>
<path d="M110.633 66.7108L110.244 72.3718C108.45 73.1488 105.101 73.9628 102.548 74.4623C102.382 74.4808 102.215 74.3883 102.215 74.2218C102.234 72.6678 101.568 67.4693 100.088 61.9748C98.4781 56.0178 94.3156 60.3098 91.0781 56.5173L91.7256 52.9283L95.8326 50.4308L101.346 50.1533L109.523 60.8833L110.633 66.7108Z" fill="#301902"/>
<path d="M119.157 117.123C117.658 117.456 115.531 117.974 113.459 118.141C111.572 118.307 109.814 118.141 107.391 118.141C107.391 117.462 107.391 116.692 107.391 115.828V110.315C108.168 110.315 111.146 108.872 114.291 107.67C115.235 107.318 116.178 106.967 117.103 106.689C118.805 106.19 120.359 105.894 121.451 106.116C123.116 106.467 125.354 107.54 127.297 108.595C127.389 109.113 127.445 109.52 127.463 109.76C127.648 111.758 127.13 115.347 119.157 117.123Z" fill="#74C247"/>
<g opacity="0.3">
<path opacity="0.3" d="M96.2031 81.4184C96.3265 81.6281 96.4683 81.8192 96.6286 81.9919C96.7951 82.1584 96.9801 82.3249 97.1651 82.4359C97.5536 82.7134 97.9976 82.8799 98.4416 83.0094C98.8856 83.1389 99.3481 83.2314 99.8106 83.2499C100.267 83.2746 100.729 83.2622 101.198 83.2129C101.661 83.1574 102.123 83.0834 102.586 82.9539C103.048 82.8429 103.492 82.6949 103.936 82.5284C104.368 82.3557 104.799 82.1584 105.231 81.9364C105.657 81.7329 106.082 81.4739 106.508 81.2334C105.805 81.9179 104.991 82.4914 104.103 82.9169C103.215 83.3609 102.253 83.6569 101.254 83.7679C100.273 83.8604 99.2371 83.7864 98.2936 83.4349C97.8311 83.2499 97.3686 82.9909 96.9986 82.6579C96.8136 82.4914 96.6471 82.2879 96.5176 82.0844C96.3696 81.8809 96.2771 81.6589 96.2031 81.4184Z" fill="#001D40"/>
</g>
<path opacity="0.3" d="M106.187 87.8937C109.431 87.462 111.312 87.203 111.83 87.1167C112.477 87.3757 112.181 89.2442 112.052 89.3367C111.904 89.4292 106.335 89.7437 106.187 89.7437C106.039 89.7437 105.78 88.5967 106.187 87.8937Z" fill="#001D40"/>
<path d="M105.968 87.5792C109.36 87.3572 111.315 87.203 111.833 87.1167C112.166 87.8567 111.981 88.9112 111.833 89.0037C111.703 89.0962 106.116 89.4292 105.968 89.4292C105.82 89.4292 105.561 88.2637 105.968 87.5792Z" fill="#80BAFF"/>
<path d="M100.363 70.9478C99.8816 72.2058 98.4756 73.0568 97.4951 73.7228C97.5136 73.2418 97.4951 72.8348 97.4766 72.3538C97.7171 72.2798 97.9576 72.2058 98.2166 72.0948C98.9381 71.7803 99.6966 71.4103 100.363 70.9478Z" fill="#EB5E10"/>
<path d="M29.2352 85.3035C28.0142 84.9335 26.8857 84.582 26.2752 83.3425C25.2207 81.1965 25.2577 78.0885 25.8127 75.813C26.2752 73.889 27.9587 72.594 28.8282 70.855C29.7347 69.0605 28.7172 67.007 29.3092 65.12C29.6977 63.8435 30.5117 62.7335 31.5662 61.9195C32.6947 61.0315 33.7862 60.495 34.3967 59.1445C35.0812 57.646 35.2662 55.9995 35.9322 54.501C39.3177 46.99 49.9552 47.175 53.8587 54.131C55.0797 56.314 55.6162 59.792 53.9697 61.901C52.8597 63.307 52.5822 62.53 52.9152 64.2875C53.3037 66.341 56.5782 67.784 57.3552 69.6525C57.8917 70.929 57.9287 72.261 57.5402 73.5745C57.0777 75.184 55.7827 76.331 57.0962 77.9405C57.6512 78.625 58.4652 79.2725 58.5577 80.216C59.0017 84.6745 55.3757 85.322 51.8422 86.025C48.0682 86.765 44.2757 87.3385 40.4832 87.8935C39.7802 87.9921 39.0834 88.0846 38.3927 88.171C32.3371 86.284 29.2846 85.3281 29.2352 85.3035Z" fill="#001D40"/>
<path d="M54.6172 79.9019C58.3172 82.3069 60.2597 88.6339 61.3697 92.0564C61.7397 93.228 60.716 95.1089 58.2987 97.6989L54.6172 79.9019Z" fill="#FF860D"/>
<path d="M70.6019 85.5073C68.3326 92.3893 65.0458 98.5745 60.7414 104.063C60.3961 104.507 60.0384 104.945 59.6684 105.376C59.5821 105.487 59.4896 105.598 59.3909 105.709C58.5029 106.727 57.5594 107.707 56.5789 108.614C56.5419 108.651 56.505 108.682 56.468 108.706C56.2336 108.719 56.0116 108.712 55.802 108.688C55.7526 108.688 55.7033 108.682 55.6539 108.669C53.3229 108.336 52.6384 105.894 53.0084 103.415C53.1194 102.675 53.3414 102.176 53.6559 101.695C53.8779 101.325 54.1554 100.973 54.4514 100.529C55.0064 99.6783 56.0609 98.2908 57.3189 96.6813C57.4793 96.484 57.6396 96.2805 57.7999 96.0708C60.3653 92.7285 63.0293 89.0408 65.792 85.0078L70.6019 85.5073Z" fill="#FFB58C"/>
<path d="M66.4184 83.7867C66.6774 82.9727 66.7329 82.8432 66.4739 82.0847C66.2149 81.3447 64.6609 75.3507 63.8654 74.7957C63.8469 74.7772 63.8469 74.7587 63.8654 74.7587C64.5314 74.4997 66.1224 75.3692 66.8994 77.5337C67.3619 78.1442 68.1204 77.9222 68.6939 77.0712C69.2674 76.2017 72.5234 71.1697 72.9304 70.7812C73.3374 70.3927 73.7629 70.4852 74.0034 70.5777C74.2439 70.6517 71.5429 75.5172 71.5429 75.7577C71.5429 75.9797 71.8944 76.0722 72.3014 75.5727C72.8564 74.8882 73.3189 74.1297 73.8184 73.4082C74.1699 72.9457 74.5214 72.4647 74.8914 72.0207C75.1689 71.6877 75.4094 71.2437 75.8534 71.0957C76.0199 71.0402 77.0189 71.0217 76.7969 71.3917C76.6304 71.6692 73.3004 76.7752 73.1339 76.8492C73.5779 76.7567 76.4824 72.9272 77.2779 72.9457C78.0734 72.9642 77.9439 73.4082 77.9439 73.4082C77.3766 74.1112 76.8031 74.8142 76.2234 75.5172C75.8041 76.0352 75.3786 76.5594 74.9469 77.0897C74.8174 77.2562 74.0959 77.9407 74.1329 78.1627C74.2069 78.6437 74.9284 78.4587 75.1689 78.3292C75.8164 77.9962 77.5739 76.7752 78.2584 76.8677C78.7024 76.9294 78.9059 77.0959 78.8689 77.3672C76.2666 79.0199 74.9284 79.8832 74.8544 79.9572C74.1514 80.6047 72.4309 83.1392 71.1544 84.4712C70.6118 85.4085 70.3096 86.0437 70.2479 86.3767L65.0124 86.5062L66.4184 83.7867Z" fill="#FFB58C"/>
<path d="M68.3672 78.4404C68.6447 78.4774 68.9222 78.5699 69.1627 78.7549C69.3847 78.9214 69.5882 79.1619 69.7177 79.4209C69.8472 79.6984 69.9027 79.9944 69.8842 80.2719C69.8842 80.4199 69.8472 80.5679 69.8102 80.7159C69.7547 80.8454 69.6807 80.9749 69.5512 81.0489C69.6622 80.8084 69.6252 80.5494 69.6067 80.2904C69.5697 80.0499 69.4772 79.8094 69.3847 79.5874C69.2737 79.3654 69.1319 79.1558 68.9592 78.9584C68.7927 78.7734 68.5892 78.6069 68.3672 78.4404Z" fill="#EB5E10"/>
<path d="M60.8669 120.231C60.7435 120.355 52.77 120.355 36.9464 120.231L33.6719 74.1108C36.7059 73.1242 39.6844 72.1622 42.6074 71.2248C42.6197 71.2125 42.632 71.2063 42.6444 71.2063C42.743 71.1817 42.8355 71.1508 42.9219 71.1138C43.1192 71.0522 43.3165 70.9905 43.5139 70.9288C47.1214 69.7448 50.3774 68.6903 50.5069 68.6533C50.1924 68.7643 49.6744 70.7438 49.5634 71.0583C49.4524 71.3543 49.3414 71.6565 49.2304 71.9648C49.2304 71.9772 49.2304 71.9833 49.2304 71.9833C49.2304 71.9833 49.2304 71.9895 49.2304 72.0018C49.1317 72.2608 49.0454 72.526 48.9714 72.7973C48.9344 72.933 48.8974 73.0687 48.8604 73.2043C48.774 73.5003 48.7062 73.7902 48.6569 74.0738C48.6199 74.2712 48.589 74.4685 48.5644 74.6658C48.5644 74.7028 48.5644 74.7337 48.5644 74.7583C48.3979 76.2568 49.1379 76.5713 50.3219 77.2373C50.7474 77.4778 51.1914 77.7183 51.6539 77.9958C53.5964 79.1058 55.7239 80.4748 56.9819 82.1583C57.9069 83.3978 60.6819 101.731 60.8669 120.231Z" fill="#FF860D"/>
<path d="M54.12 62.7333C54.12 64.0283 53.9165 65.3233 53.6575 66.5073C53.047 69.1898 51.752 71.3728 49.199 71.9833C49.1743 71.9957 49.1496 72.0018 49.125 72.0018C48.3295 72.1868 47.423 72.2053 46.3685 72.0758C45.388 71.9278 44.278 71.6318 43.0385 71.1693C42.6808 71.0213 42.3046 70.861 41.91 70.6883C41.8976 70.6883 41.8915 70.6883 41.8915 70.6883C35.3795 67.79 34.7073 63.0725 39.875 56.5358L42.5575 51.8183L47.1825 50.9858L50.42 52.4658C51.937 55.2778 54.1385 57.4423 54.12 62.7333Z" fill="#FFB58C"/>
<path d="M51.6559 77.9958C51.6559 83.9343 50.6014 88.9663 49.2694 90.9458C38.0769 81.3258 40.9814 79.0133 42.4614 76.6083C43.4049 75.0728 43.3309 73.2783 42.7204 71.5208C42.7081 71.5208 42.7081 71.5208 42.7204 71.5208C42.6834 71.4222 42.6464 71.3235 42.6094 71.2248C42.6218 71.2125 42.6341 71.2063 42.6464 71.2063C42.7451 71.1817 42.8376 71.1508 42.9239 71.1138C43.1213 71.0522 43.3186 70.9905 43.5159 70.9288C47.1234 69.7448 50.3794 68.6903 50.5089 68.6533C50.1944 68.7643 49.6764 70.7438 49.5654 71.0583C49.4544 71.3543 49.3434 71.6565 49.2324 71.9648C49.2324 71.9772 49.2324 71.9833 49.2324 71.9833C49.2324 71.9833 49.2324 71.9895 49.2324 72.0018C49.1338 72.2608 49.0474 72.526 48.9734 72.7973C48.9364 72.933 48.8994 73.0687 48.8624 73.2043C48.7761 73.5003 48.7083 73.7902 48.6589 74.0738C48.6219 74.2712 48.5911 74.4685 48.5664 74.6658C48.5664 74.7028 48.5603 74.7337 48.5479 74.7583C48.3999 76.2568 49.1399 76.5713 50.3239 77.2373C50.7494 77.4778 51.1934 77.7183 51.6559 77.9958Z" fill="#FFB58C"/>
<path d="M40.1675 119.066L34.599 119.713C33.933 119.713 33.341 119.251 33.2115 118.603L30.233 103.008L30.2145 102.897L29.8815 101.158L29.4375 98.7898L29.715 98.6973L36.782 96.2183L37.078 98.2163L37.2445 99.3263V99.3818L37.4295 100.584L40.1675 119.066Z" fill="#FFB58C"/>
<path d="M39.5938 98.7346C39.2485 98.8333 38.9032 98.932 38.5578 99.0306C38.0398 99.1786 37.5218 99.3205 37.0038 99.4561C36.1158 99.6781 35.2093 99.8816 34.3213 100.085C32.8413 100.443 31.3613 100.8 29.8813 101.158C29.869 101.158 29.8567 101.158 29.8443 101.158C28.8083 101.417 27.7353 102.028 27.3653 100.992C27.3283 100.881 27.2975 100.757 27.2728 100.622C27.1063 99.6412 26.9953 98.6791 26.8473 97.7171C26.576 95.7808 26.317 93.8445 26.0703 91.9081C25.8298 89.9471 25.3488 87.7826 25.4413 85.8216C25.6078 81.2891 31.0653 78.3106 34.6173 76.5346C34.8578 76.4236 36.4673 75.8686 36.5043 75.7021C36.5043 75.7021 36.2083 77.1081 36.2823 77.4596C36.825 80.099 37.3615 82.7321 37.8918 85.3591C38.6318 88.9605 39.3718 92.568 40.1118 96.1817C40.2043 96.6627 40.4263 97.2547 40.4263 97.7542C40.4448 98.5312 40.4078 98.4756 39.5938 98.7346Z" fill="#FF860D"/>
<path d="M51.5254 62.6777C51.8932 62.6777 52.1914 62.2719 52.1914 61.7712C52.1914 61.2706 51.8932 60.8647 51.5254 60.8647C51.1576 60.8647 50.8594 61.2706 50.8594 61.7712C50.8594 62.2719 51.1576 62.6777 51.5254 62.6777Z" fill="#301902"/>
<path d="M46.8691 62.9927C47.2369 62.9927 47.5351 62.5868 47.5351 62.0862C47.5351 61.5855 47.2369 61.1797 46.8691 61.1797C46.5013 61.1797 46.2031 61.5855 46.2031 62.0862C46.2031 62.5868 46.5013 62.9927 46.8691 62.9927Z" fill="#301902"/>
<path d="M49.2682 62.3082C49.7492 62.4747 50.3227 63.8067 50.5447 64.2137C50.7482 64.6022 51.0072 65.3237 50.5817 65.7122C50.3597 65.9157 50.0637 66.1192 49.7492 66.1562C49.3607 66.2117 49.2312 65.8417 49.2127 65.5087C49.1757 65.1264 49.1448 64.744 49.1202 64.3617C49.0832 64.0472 48.8057 62.8262 48.8797 62.4932C48.9352 62.2712 49.1017 62.2527 49.2682 62.3082Z" fill="#FF887F"/>
<path d="M50.2344 60.3285C50.2344 60.0695 50.3454 59.8105 50.5119 59.6255C50.6784 59.422 50.9004 59.274 51.1779 59.2C51.4369 59.126 51.7514 59.1445 51.9919 59.2925C52.2324 59.422 52.3989 59.644 52.4729 59.8845C52.2139 59.792 52.0289 59.718 51.8439 59.6995C51.6589 59.681 51.4924 59.681 51.3074 59.7365C51.147 59.7858 50.9744 59.8598 50.7894 59.9585C50.6044 60.051 50.4379 60.162 50.2344 60.3285Z" fill="#231F20"/>
<path d="M45.0547 60.6983C45.0547 60.4023 45.2027 60.1248 45.4062 59.9213C45.6282 59.6993 45.8872 59.5513 46.2017 59.4773C46.4977 59.4218 46.8307 59.4403 47.1082 59.5698C47.3857 59.6993 47.6077 59.9398 47.7002 60.1988C47.4412 60.0878 47.2007 60.0138 46.9787 59.9768C46.7567 59.9583 46.5347 59.9768 46.3127 60.0323C46.103 60.0816 45.8934 60.1618 45.6837 60.2728C45.4617 60.3653 45.2582 60.5133 45.0547 60.6983Z" fill="#231F20"/>
<path d="M48.9966 67.5992C48.5526 67.5992 47.0541 67.7287 46.2031 66.8037C46.5176 68.2837 47.2021 69.1162 48.9781 67.5992H48.9966Z" fill="white"/>
<path d="M53.0836 57.2207C53.0836 57.1837 52.0846 57.0912 51.9736 57.0727C51.6776 57.0172 51.3816 56.9432 51.1041 56.8507C50.6971 56.7027 50.3271 56.4992 49.9941 56.2217C49.5316 55.8147 49.2171 55.2597 48.6621 54.9822C47.7001 54.5012 46.2386 54.4457 45.2211 54.7417C44.4256 54.9637 43.8891 55.3892 43.5561 55.9442C42.5756 57.4982 43.1491 59.9957 43.7596 61.5682C44.5921 63.7512 44.4626 65.6012 42.7236 67.2662C41.4286 68.5242 41.6691 69.7637 42.9641 71.1327C43.3896 71.5767 43.9446 72.0577 44.5921 72.5387C44.8141 72.7854 44.9868 73.0259 45.1101 73.2602C45.9426 74.7217 45.2026 76.0167 43.8521 77.4412C42.2796 79.1062 40.9846 78.9212 41.8541 80.4937C42.3351 81.3447 43.2416 82.6767 42.7976 83.7127C41.9651 85.5627 38.3391 85.0632 36.9516 84.5452C35.0461 83.8052 33.3071 82.6212 31.9566 81.0857C30.5321 79.4947 30.7171 77.4967 30.8651 75.4802C30.9761 74.1482 31.1241 72.8347 31.3646 71.5212L35.9896 56.2587L41.9096 50.4312L47.6446 49.7837L51.6221 52.0962C52.5965 55.5125 53.0836 57.2207 53.0836 57.2207Z" fill="#001D40"/>
<path d="M57.0058 82.1587C57.0428 82.282 57.0798 82.3992 57.1168 82.5102L57.1908 82.8802C57.2463 83.1207 57.3018 83.3612 57.3573 83.6017C57.4683 84.0827 57.5608 84.5637 57.6533 85.0447C57.8506 86.019 58.0356 86.9872 58.2083 87.9492C58.5536 89.8979 58.8681 91.8465 59.1518 93.7952C59.4478 95.7562 59.7438 97.6987 59.9288 99.6597C60.0953 101.639 60.2618 103.6 60.2618 105.58H60.2248C60.0028 103.619 59.7993 101.658 59.5588 99.7152C59.3368 97.7542 59.1148 95.7932 58.8743 93.8322C58.6153 91.8835 58.3316 89.9349 58.0233 87.9862C57.8753 87.0119 57.7149 86.0375 57.5423 85.0632C57.4683 84.5822 57.3758 84.1012 57.2833 83.6202C57.2278 83.3612 57.1907 83.1207 57.1352 82.8802L57.0613 82.5287C57.0366 82.4054 57.0058 82.2882 56.9688 82.1772L57.0058 82.1587Z" fill="#B25900"/>
<path d="M37.2422 99.3819C37.8527 99.1784 38.4817 99.0119 39.0922 98.8269C39.3882 98.7344 39.7027 98.6419 39.9617 98.4939C40.0912 98.4199 40.1837 98.3274 40.2577 98.2164C40.307 98.1054 40.3194 97.9759 40.2947 97.8279L39.8877 95.9594L39.4807 94.0909C39.2402 92.8329 38.9812 91.5749 38.7592 90.3169C38.5249 89.0589 38.3152 87.7947 38.1302 86.5244C38.4632 87.7701 38.7654 89.0157 39.0367 90.2614C39.3327 91.5194 39.5917 92.7589 39.8507 94.0169C40.1097 95.2749 40.3502 96.5144 40.5722 97.7909C40.6092 97.9759 40.5907 98.1794 40.4797 98.3459C40.3872 98.5124 40.2207 98.6419 40.0727 98.6974C39.7582 98.8454 39.4437 98.9194 39.1292 98.9934L37.2422 99.3819Z" fill="#B25900"/>
<path d="M37.4308 100.584C35.8768 101.287 32.6393 102.453 30.2343 103.008L30.2158 102.897L29.8828 101.158C31.3628 100.8 32.8428 100.443 34.3228 100.085C35.2108 99.8813 36.1173 99.6778 37.0053 99.4558C37.0916 99.4312 37.1718 99.4065 37.2458 99.3818L37.4308 100.584Z" fill="#EB5E10"/>
<path d="M49.2358 72.0022C49.1371 72.2612 49.0508 72.5263 48.9768 72.7977C48.9398 72.9333 48.9028 73.069 48.8658 73.2047C48.8411 73.254 48.8226 73.3095 48.8102 73.3712C47.7742 73.0937 46.3128 72.5757 45.4062 71.5767C46.8307 71.9467 48.1813 72.0762 49.2358 72.0022Z" fill="#EB5E10"/>
<path opacity="0.5" d="M50.1598 95.0529C50.783 95.0529 51.2883 94.5477 51.2883 93.9244C51.2883 93.3011 50.783 92.7959 50.1598 92.7959C49.5365 92.7959 49.0312 93.3011 49.0312 93.9244C49.0312 94.5477 49.5365 95.0529 50.1598 95.0529Z" fill="#B25900"/>
<path d="M49.7926 94.757C50.4158 94.757 50.9211 94.2518 50.9211 93.6285C50.9211 93.0052 50.4158 92.5 49.7926 92.5C49.1693 92.5 48.6641 93.0052 48.6641 93.6285C48.6641 94.2518 49.1693 94.757 49.7926 94.757Z" fill="#FFE6CC"/>
<path fill-rule="evenodd" clip-rule="evenodd" d="M52.5604 114.681C51.0619 114.681 49.8594 113.46 49.8594 111.962C49.8594 110.463 51.0619 109.242 52.5604 109.242C54.0589 109.242 55.2799 110.463 55.2799 111.962C55.2799 113.46 54.0589 114.681 52.5604 114.681ZM52.5604 110.204C51.5984 110.204 50.8029 111 50.8029 111.962C50.8029 112.942 51.5984 113.719 52.5604 113.719C53.5409 113.719 54.3364 112.942 54.3364 111.962C54.3364 111 53.5409 110.204 52.5604 110.204Z" fill="#A2D087" fill-opacity="0.4"/>
<path d="M59.389 117.956H56.577C54.3755 117.956 52.5625 116.161 52.5625 113.941V108.502C52.5625 107.836 53.099 107.3 53.765 107.3H62.2195C62.8855 107.3 63.4035 107.836 63.4035 108.502V113.941C63.4035 116.161 61.609 117.956 59.389 117.956Z" fill="white" stroke="#A2D087" stroke-opacity="0.4" stroke-width="1.1"/>
<path d="M64.7877 116.087C65.3057 116.087 65.6387 116.624 65.3982 117.049L64.7877 118.141H57.9797H51.1902L50.5797 117.049C50.3392 116.624 50.6722 116.087 51.1902 116.087H57.9797H64.7877Z" fill="#A2D087" fill-opacity="0.4"/>
<path d="M132.926 121.712H21.2969V118.141H132.926V121.712Z" fill="#E8F3FF"/>
<path d="M69.7121 35.2608C69.7121 41.7173 64.4766 46.9528 58.0201 46.9528C57.6008 46.9528 57.1876 46.9343 56.7806 46.8973C55.7261 48.0258 53.7651 49.6168 54.0981 48.9693C54.3571 48.5068 54.5236 47.4153 54.6531 46.4533C49.8431 45.0103 46.3281 40.5518 46.3281 35.2608C46.3281 28.8043 51.5636 23.5688 58.0201 23.5688C64.4766 23.5688 69.7121 28.8043 69.7121 35.2608Z" fill="#A2D087" fill-opacity="0.4"/>
<path d="M99.2747 36.815C97.9612 41.9395 93.4657 45.3805 88.4522 45.584C88.3227 46.546 88.2302 47.6375 88.3412 48.174C88.5077 48.877 87.0092 46.842 86.2692 45.473C85.8622 45.4237 85.4552 45.3435 85.0482 45.2325C78.7952 43.623 75.0397 37.259 76.6307 31.006C78.2402 24.753 84.6227 20.979 90.8757 22.5885C97.1287 24.198 100.884 30.562 99.2747 36.815Z" fill="#A2D087" fill-opacity="0.4"/>
<path d="M123.324 106.689C122.639 106.43 121.918 106.282 121.196 106.245C120.456 106.208 119.735 106.282 119.032 106.412C118.31 106.523 117.589 106.689 116.904 106.911C116.22 107.133 115.535 107.392 114.851 107.651L110.744 109.242C110.053 109.501 109.362 109.76 108.672 110.019C108.326 110.143 107.981 110.266 107.636 110.389L107.58 110.408C107.568 110.408 107.562 110.408 107.562 110.408C107.549 110.42 107.543 110.433 107.543 110.445V110.704V111.259V115.662V117.863V117.993C107.543 118.03 107.543 118.011 107.543 118.011C107.506 118.011 107.654 118.011 107.728 118.011L108.283 118.048C108.641 118.061 109.005 118.067 109.375 118.067C110.836 118.085 112.298 118.048 113.759 117.919C115.221 117.826 116.664 117.66 118.107 117.345C116.701 117.752 115.239 118.011 113.778 118.196C112.316 118.326 110.836 118.363 109.375 118.344C109.005 118.344 108.635 118.338 108.265 118.326L107.71 118.289H107.58C107.543 118.289 107.432 118.289 107.358 118.215C107.321 118.19 107.296 118.153 107.284 118.104C107.266 118.067 107.266 118.011 107.266 117.993V117.863V115.662V111.259V110.704V110.556V110.5C107.266 110.463 107.266 110.463 107.266 110.408C107.266 110.334 107.321 110.26 107.377 110.204C107.414 110.18 107.451 110.161 107.488 110.149L107.543 110.112C107.888 110.001 108.234 109.878 108.579 109.742C109.27 109.495 109.954 109.242 110.633 108.983L114.74 107.392C115.424 107.133 116.109 106.874 116.812 106.634C117.533 106.43 118.255 106.245 118.976 106.134C119.716 106.042 120.475 106.023 121.196 106.097C121.936 106.171 122.658 106.375 123.324 106.689Z" fill="#001D40"/>
</svg>
