<svg width="148" height="102" viewBox="0 0 148 102" fill="none" xmlns="http://www.w3.org/2000/svg">
<g clip-path="url(#clip0_3045_13639)">
<path d="M147.897 95.0705C146.92 96.8107 139.274 98.8917 137.299 99.1646C132.181 99.8728 127.039 100.191 121.9 100.553C106.137 101.663 90.2349 102 74.3911 102C59.577 102 44.726 101.691 29.9723 100.759C20.7065 100.173 8.30279 102.2 0 96.2158C2.83513 90.2753 19.1894 91.3225 24.3034 90.9274C40.9018 89.6447 57.6918 89.2915 74.3932 89.2915C97.7388 89.2915 121.105 89.8436 144.315 93.1608C147.475 93.613 148.325 94.3097 147.897 95.0705Z" fill="#EDDBC3"/>
<path d="M88.1181 47.0921C87.381 47.2 86.4732 47.0421 85.8305 47.0421C82.5009 47.0421 79.1712 47.0421 75.8415 47.0421C72.8676 47.0421 69.8938 47.0421 66.9192 47.0421C66.2482 47.0421 65.6389 46.5337 65.3884 45.7702C64.8989 44.277 65.2417 41.9472 65.2417 40.3676C65.2417 38.3232 65.2417 36.278 65.2417 34.2336C65.2417 30.1439 65.2417 26.0552 65.2417 21.9656C65.2417 20.7695 65.0391 19.2754 65.4697 18.1248C66.124 16.3748 67.8125 16.8894 69.1008 16.8894C70.6432 16.8894 72.1857 16.8894 73.7282 16.8894C77.3193 16.8894 80.9104 16.8894 84.5016 16.8894C85.7056 16.8894 86.9097 16.8894 88.1145 16.8894C88.922 16.8894 89.5371 17.595 89.7354 18.536C90.153 20.5135 89.792 23.283 89.792 25.3515C89.792 27.8614 89.792 30.3714 89.792 32.8814C89.792 35.7 89.792 38.5194 89.792 41.338C89.792 43.0185 90.3548 46.1591 88.6737 46.9378C88.5074 47.0145 88.3193 47.0626 88.1181 47.0921ZM66.9294 18.4343C66.9033 18.4423 66.8764 18.4513 66.8502 18.4611C66.7348 18.5012 66.6135 18.5556 66.5423 18.6742C66.4675 18.7982 66.4646 18.9641 66.4646 19.1184C66.461 23.7254 66.4617 28.3324 66.4632 32.9402C66.4639 35.2442 66.4646 37.5472 66.4646 39.8511C66.4646 40.7413 65.9998 44.8809 66.6665 45.4339C66.7914 45.5374 66.9526 45.541 67.1037 45.541C73.9882 45.5436 80.8727 45.5472 87.7572 45.5472C87.9642 45.5472 88.1827 45.5445 88.3607 45.4152C89.0491 44.9148 88.5705 40.3685 88.5705 39.3838C88.5705 37.1592 88.5713 34.9356 88.5705 32.711C88.5705 28.2628 88.5698 23.8137 88.5705 19.3655C88.5705 17.7065 86.2241 18.3924 85.3258 18.3924C83.6541 18.3924 81.9823 18.3924 80.3106 18.3924C76.9671 18.3924 73.6236 18.3924 70.2801 18.3924C69.1734 18.3915 68.0187 18.0864 66.9294 18.4343Z" fill="#488ECC"/>
<path d="M110.362 22.3651C110.362 22.5694 110.069 23.1572 109.481 24.1285C109.099 24.7395 108.722 25.3514 108.352 25.9624C105.851 30.1635 103.86 34.1755 102.38 38.0003C102.15 38.6897 101.908 39.3873 101.652 40.0928C101.295 40.892 100.842 41.2916 100.293 41.2916C99.9993 41.2916 99.7182 41.1899 99.4503 40.9856C99.1184 40.719 98.9528 40.4291 98.9528 40.116C98.9528 40.0223 99.9223 37.8201 101.863 33.5092L99.1634 29.1601C98.5127 28.1575 97.5868 26.6206 96.3878 24.5522C96.1707 24.1446 96.0625 23.761 96.0625 23.3998C96.0625 23.0706 96.1867 22.6514 96.4358 22.1421C96.6849 21.6328 96.9434 21.3777 97.2114 21.3777C97.3385 21.3777 97.4793 21.4954 97.6326 21.73C97.6834 21.8237 97.9768 22.4044 98.5135 23.4702C99.8148 26.0881 101.289 28.6659 102.935 31.2053C103.216 30.5943 104.301 28.3368 106.19 24.4345C106.47 23.7922 106.936 22.8673 107.587 21.6605C107.88 21.2065 108.263 20.979 108.736 20.979C109.093 20.979 109.437 21.0967 109.769 21.3313C110.164 21.6123 110.362 21.9575 110.362 22.3651Z" fill="#488ECC"/>
<path d="M124.373 29.4654C124.373 29.8882 123.939 30.1629 123.072 30.2887C118.834 30.8845 115.606 31.6373 113.386 32.5453C113.436 34.5362 113.583 36.4637 113.826 38.3288C115.025 38.3288 116.403 38.1406 117.961 37.7642C119.326 37.4038 120.691 37.0354 122.057 36.659C122.287 36.5966 122.478 36.5654 122.632 36.5654C123.155 36.5654 123.417 36.8401 123.417 37.3887C123.417 37.749 123.318 38.1219 123.12 38.5054C122.921 38.8898 122.696 39.1681 122.44 39.3403C121.368 40.0931 119.907 40.68 118.057 41.1037C116.474 41.4328 114.917 41.5978 113.386 41.5978C112.607 41.5978 112.09 41.3392 111.835 40.8218C111.682 40.4927 111.554 37.9221 111.452 33.1099C110.916 32.8745 110.648 32.3732 110.648 31.6052C110.648 30.8997 110.891 30.4296 111.376 30.1941H111.395C111.306 28.5957 111.261 26.9108 111.261 25.1394C111.261 24.3714 111.273 23.9638 111.299 23.9165C111.35 23.4625 111.503 23.1173 111.759 22.8818C111.886 22.7409 112.212 22.5759 112.735 22.3877C113.564 22.0746 114.388 21.7526 115.204 21.4235C116.161 21.1104 117.016 20.9534 117.769 20.9534H118.573C119.274 20.9383 119.759 20.9695 120.027 21.0471C120.5 21.1728 120.905 21.4699 121.243 21.9408C121.581 22.4109 121.751 22.8426 121.751 23.2342C121.751 23.7676 121.362 24.0726 120.583 24.1511C118.656 24.3554 117.437 24.5114 116.927 24.6212C115.919 24.8566 114.751 25.3187 113.423 26.0082C113.359 27.0901 113.327 28.2345 113.327 29.4404C116.364 28.3433 119.102 27.7948 121.539 27.7948C122.011 27.7948 122.382 27.826 122.65 27.8884C122.982 27.9357 123.339 28.1078 123.722 28.4057C124.156 28.7679 124.373 29.1211 124.373 29.4654Z" fill="#488ECC"/>
<path d="M141.146 31.2519C141.146 31.6747 141.108 32.0279 141.032 32.3097C140.393 34.9276 138.989 37.0987 136.82 38.8228C134.74 40.5006 132.558 41.3381 130.273 41.3381C129.406 41.3381 128.742 41.166 128.283 40.8208C127.632 40.3507 127.064 39.6095 126.579 38.5989C126.094 37.5883 125.852 36.6206 125.852 35.6956C125.852 34.9589 126.017 34.5905 126.349 34.5905C126.668 34.5905 126.961 34.826 127.23 35.296C127.434 35.6876 127.638 36.072 127.843 36.4484C128.685 37.8434 130.121 38.541 132.15 38.541C133.387 38.541 134.511 38.235 135.519 37.624C136.668 36.9345 137.452 35.9471 137.873 34.6618C138.013 34.223 138.084 33.8546 138.084 33.5567C138.084 33.1178 137.88 32.7967 137.472 32.5925C136.425 32.1064 134.823 31.7853 132.667 31.6283C130.995 31.5498 129.329 31.4633 127.671 31.3696C127.071 31.3072 126.656 31.119 126.427 30.805C126.197 30.4919 126.083 29.9746 126.083 29.253C126.083 28.4065 126.644 27.1997 127.767 25.6325C130.192 22.2466 133.236 20.5537 136.898 20.5537C137.319 20.5537 137.615 20.6161 137.788 20.7419C137.96 20.8677 138.066 21.1576 138.104 21.6116C138.13 21.8471 138.206 22.302 138.334 22.9754C138.435 23.5552 138.487 24.0101 138.487 24.3392C138.487 24.6844 138.263 25.0331 137.817 25.3855C137.37 25.7378 137 25.9144 136.706 25.9144C136.425 25.9144 136.151 25.2722 135.883 23.9869C135.666 23.9717 135.449 23.9637 135.233 23.9637C132.821 23.9637 130.9 25.092 129.471 27.3495C129.215 27.7411 129.088 28.0078 129.088 28.1487C129.088 28.353 129.841 28.4306 131.347 28.3842H131.308C132.483 28.3842 134.052 28.4779 136.017 28.6661C138.353 28.9016 139.833 29.1602 140.458 29.4421C140.917 29.6455 141.146 30.2493 141.146 31.2519Z" fill="#488ECC"/>
<path d="M88.1374 83.7542C87.4322 83.8827 86.6348 83.7578 85.995 83.7578C84.5165 83.7578 83.0372 83.7578 81.5586 83.7578C78.0532 83.7578 74.547 83.7578 71.0416 83.7578C69.6756 83.7578 68.3096 83.7578 66.9428 83.7578C66.0176 83.7578 65.2646 82.8328 65.2646 81.6965C65.2646 74.8391 65.2646 67.9826 65.2646 61.1252C65.2646 59.2762 64.77 57.3067 65.221 55.4863C65.8542 52.9263 68.0663 53.6042 69.7772 53.6042C71.3902 53.6042 73.0031 53.6042 74.616 53.6042C78.1134 53.6042 81.6109 53.6042 85.1083 53.6042C86.1178 53.6042 87.1272 53.6042 88.1366 53.6042C89.0618 53.6042 89.8149 54.5283 89.8149 55.6655C89.8149 63.001 89.8149 70.3356 89.8149 77.6711C89.8149 79.2115 90.1787 81.0355 89.6413 82.4975C89.3421 83.3127 88.7779 83.6383 88.1374 83.7542ZM66.9457 55.1304C66.8564 55.1518 66.7707 55.1866 66.6923 55.2454C66.2282 55.5933 66.4889 58.1889 66.4889 58.8257C66.4889 60.5214 66.4889 62.2179 66.4889 63.9135C66.4889 67.8658 66.4889 71.818 66.4889 75.7703C66.4889 76.9352 65.9094 82.2415 67.1389 82.2459C71.5172 82.2602 75.8956 82.2638 80.2732 82.2566C82.462 82.2531 84.6515 82.2602 86.8403 82.2379C88.8411 82.2174 88.5484 80.7965 88.6152 78.6692C88.8548 71.0902 88.6159 63.5032 88.5927 55.9215C88.592 55.7806 88.5898 55.6316 88.5295 55.513C88.4431 55.3426 88.2673 55.2847 88.1076 55.2445C85.4489 54.5765 82.6922 55.1081 80.0067 55.1081C75.7867 55.109 71.5659 55.1081 67.3459 55.0982C67.213 55.0982 67.0757 55.1 66.9457 55.1304Z" fill="#D16053"/>
<path d="M113.437 59.3397C113.437 59.4833 113.378 59.9481 113.261 60.7312C112.74 64.1055 112.48 67.7277 112.48 71.597C112.48 73.0527 112.512 74.2836 112.577 75.2906C112.59 75.4664 112.629 75.7946 112.694 76.2745C112.745 76.6741 112.772 77.0023 112.772 77.2583C112.772 78.2983 112.206 78.8175 111.073 78.8175C110.591 78.8175 110.364 78.6498 110.39 78.3135L101.543 66.0321C101.465 67.5832 101.426 69.063 101.426 70.4696C101.426 73.0126 101.517 75.1149 101.699 76.7784C101.712 76.8748 101.764 77.1941 101.855 77.7382C101.921 78.1378 101.953 78.466 101.953 78.722C101.953 79.1056 101.757 79.4258 101.366 79.6818C101.028 79.9217 100.695 80.0412 100.371 80.0412C99.954 80.0412 99.694 79.8494 99.5894 79.4659C99.5241 79.2741 99.4333 76.7954 99.3164 72.0296C99.1995 67.6162 99.1406 64.9778 99.1406 64.1144C99.1406 62.6748 99.1922 61.7962 99.2968 61.476C99.5313 60.7249 100.136 60.3485 101.113 60.3485C101.451 60.3485 101.699 60.4609 101.855 60.6848L110.468 72.9903C110.481 72.4471 110.559 70.2716 110.703 66.4656C110.742 65.3783 110.774 64.2749 110.8 63.1555C110.852 61.8604 110.936 60.7651 111.054 59.8696C111.158 58.8946 111.724 58.4067 112.753 58.4067C113.209 58.405 113.437 58.7163 113.437 59.3397Z" fill="#D16053"/>
<path d="M133.354 67.9995C133.354 71.166 132.331 73.9239 130.288 76.2751C128.27 78.5461 125.965 79.6815 123.374 79.6815C121.108 79.6815 119.188 78.7459 117.613 76.8754C116.038 75.0041 115.25 72.6859 115.25 69.919C115.25 66.7374 116.272 63.9866 118.316 61.6675C120.308 59.3645 122.606 58.2139 125.21 58.2139C127.476 58.2139 129.399 59.1531 130.981 61.0325C132.563 62.91 133.354 65.2327 133.354 67.9995ZM130.405 69.127C130.405 66.9203 129.819 64.9936 128.647 63.3462C127.424 61.6515 125.926 60.8032 124.156 60.8032C122.424 60.8032 120.946 61.6666 119.722 63.3935C118.576 65.057 118.003 66.9676 118.003 69.1261C118.003 71.3167 118.601 73.2362 119.8 74.8828C121.01 76.5615 122.501 77.4017 124.272 77.4017C126.003 77.4017 127.468 76.5383 128.666 74.8114C129.825 73.18 130.405 71.2855 130.405 69.127Z" fill="#D16053"/>
<path d="M40.8455 93.3657L41.1948 93.8376C41.6015 94.387 42.0938 94.8294 42.6429 95.1407L43.7888 95.7901C44.1701 96.104 44.3829 96.6472 44.3444 97.2092L37.6443 96.5197L37.6407 95.9239C37.6349 94.9026 37.9189 93.9107 38.4432 93.1187L40.8455 93.3657Z" fill="#2D2C3F"/>
<path d="M17.3991 91.3759L17.5458 91.9878C17.7165 92.6996 18.0026 93.3623 18.3861 93.9367L19.1864 95.1346C19.418 95.6216 19.4166 96.2246 19.182 96.7089L13.3984 92.4989L13.6069 91.961C13.9642 91.0387 14.572 90.2984 15.3251 89.8667L17.3991 91.3759Z" fill="#2D2C3F"/>
<path d="M32.1354 53.0723L25.0657 72.3207C24.6692 73.4009 24.1674 74.4186 23.5726 75.3507L14.5625 89.4687L18.1783 92.5923L28.7316 78.0694C29.3221 77.2568 29.8282 76.3569 30.2393 75.3909L37.5762 58.1199L32.1354 53.0723Z" fill="#2D2C3F"/>
<path d="M34.7734 30.6339C34.7734 30.6339 44.411 35.1776 45.4037 35.0732C46.4756 34.9599 55.9905 26.2188 55.9905 26.2188L57.8924 29.2015C57.8924 29.2015 47.8721 40.9825 45.6477 40.9173C43.4241 40.8522 35.6587 37.164 35.6587 37.164L34.7734 30.6339Z" fill="url(#paint0_linear_3045_13639)"/>
<path d="M34.7734 30.6343C34.7734 30.6343 37.9564 32.2603 39.0036 35.7621C40.0508 39.264 40.3253 57.3324 40.3253 57.3324L37.4975 57.3547L34.7734 30.6343Z" fill="#2D2C3F"/>
<path d="M46.8466 67.3569L38.8357 58.6639C39.2272 57.6756 39.445 56.5651 39.4385 55.3913L39.4312 54.0444L26.6484 54.147L26.6731 55.6C26.7421 59.637 29.4378 62.8588 32.7254 62.8329L33.4632 62.8267C33.493 62.8267 33.522 62.824 33.5511 62.8231L41.7253 71.0291C42.4545 71.7614 42.7595 72.9549 42.5017 74.0671L37.9875 93.527L42.5467 93.9774L48.2736 74.1296C48.9671 71.7257 48.4021 69.0454 46.8466 67.3569Z" fill="url(#paint1_linear_3045_13639)"/>
<path d="M32.1406 53.0724C32.1406 53.0724 32.5299 60.8806 32.1668 61.059C31.8037 61.2374 27.8095 60.7022 27.8095 60.7022L26.4297 57.8926C26.4297 57.8926 27.5553 52.7638 27.7369 52.8084C27.9184 52.8521 32.1406 53.0724 32.1406 53.0724Z" fill="#2D2C3F"/>
<path d="M31.176 24.6465C30.956 22.8234 31.0141 21.4141 32.8194 21.0332C33.9756 20.7888 35.4984 20.4677 36.2355 24.5038C36.831 27.7621 35.8129 28.7843 34.6567 29.0287L35.1469 32.5323L32.3554 33.1219L31.1695 24.6492L31.176 24.6465Z" fill="#F4B7A5"/>
<path d="M36.6054 24.3077C36.6054 24.3077 33.1399 24.6725 31.9453 22.3766L32.5299 21.6096L35.8974 21.5239L36.6054 24.3077Z" fill="#E39B85"/>
<path d="M34.6585 29.027C34.6585 29.027 33.6128 29.3044 32.8125 28.3286C32.8125 28.3286 33.3223 29.9413 34.758 29.7388L34.6585 29.027Z" fill="#E39B85"/>
<path d="M32.3092 21.9435C32.3092 21.9435 32.9178 26.4024 31.4428 26.5843C31.4428 26.5843 29.7551 24.1083 30.0303 22.6936C30.3056 21.279 31.7464 20.7812 31.7464 20.7812L32.3092 21.9435Z" fill="#2D2C3F"/>
<path d="M31.9906 22.1239C31.9906 22.1239 32.9158 23.6741 34.7735 23.1318C36.6986 22.5708 36.7567 20.5594 36.7567 20.5594C36.7567 20.5594 36.3994 19.9787 35.2666 19.8182L36.4975 19.9859C36.4975 19.9859 35.5919 19.0199 33.9717 19.2375C32.3515 19.4551 31.3203 20.9724 31.3203 20.9724L31.9906 22.1239Z" fill="#3D3A49"/>
<path d="M31.4425 23.9712C31.2333 24.2343 31.2994 24.7303 31.5899 25.0772C31.8804 25.4242 32.2849 25.4929 32.494 25.2298C32.7032 24.9666 32.6371 24.4707 32.3466 24.1237C32.0561 23.7759 31.6516 23.7072 31.4425 23.9712Z" fill="#F4B7A5"/>
<path d="M39.4315 54.0446L26.7344 54.272C28.7721 40.6536 30.945 31.4236 30.945 31.4236C32.6668 30.81 33.8288 30.6102 34.7736 30.6342C34.7736 30.6342 37.0059 32.2523 37.9224 35.3188C38.8774 38.5138 39.4315 54.0446 39.4315 54.0446Z" fill="white"/>
<path d="M34.3716 30.6367C34.3716 30.6367 37.2365 39.5224 36.259 46.6483C36.2321 46.8454 36.1733 47.0345 36.0898 47.2066L34.9082 49.6497C34.7928 49.8879 34.5052 49.8611 34.4202 49.6042L33.657 47.286C33.5125 46.8472 33.4718 46.3673 33.5401 45.9008C33.8988 43.447 34.9525 35.1572 33.5531 30.717L34.3716 30.6367Z" fill="#D16053"/>
<path d="M62.3384 21.9297C61.7865 23.7993 61.0632 25.6528 60.6478 27.5776C60.7277 27.1843 44.1257 19.9005 42.5941 19.1887C36.6486 16.4264 30.7039 13.664 24.7584 10.9016C24.0939 10.5929 23.4301 10.2843 22.7656 9.9757C23.539 7.46394 24.3125 4.95219 25.0859 2.44043C32.5136 5.89231 39.9427 9.34152 47.3712 12.7916C49.3479 13.7103 51.3254 14.6282 53.3021 15.5469C56.4169 16.9936 59.8751 18.1353 62.8214 20.0227C62.6921 20.6632 62.5251 21.2973 62.3384 21.9297Z" fill="#FABC41"/>
<path d="M22.6094 7.35411C22.6631 7.19445 37.2651 13.9403 38.4713 14.4853C46.2098 17.9809 53.9542 21.4587 61.6956 24.9427C61.7029 24.9462 61.851 25.0131 61.851 25.0122L62.7428 22.1169C62.5148 22.2427 61.4552 21.538 61.2374 21.439C59.9752 20.8655 58.7138 20.2893 57.4531 19.714C54.0624 18.1656 50.6724 16.6153 47.2825 15.0642C39.801 11.6409 32.3174 8.22377 24.8338 4.80668C24.7706 4.77814 23.5723 4.22869 23.5716 4.23047C23.5716 4.23137 22.6101 7.35411 22.6094 7.35411Z" fill="#E0A336"/>
<path d="M58.047 26.2184C58.0317 26.1809 57.5357 24.3159 57.1174 24.0304C56.6991 23.745 56.1719 23.8975 56.1879 24.0304C56.2031 24.1633 56.3273 25.6859 56.3273 25.6859L58.047 26.2184Z" fill="#E0A336"/>
<path d="M22.7406 9.87545C22.8655 9.81658 22.88 9.59181 22.9745 9.28498C23.4988 7.58312 24.0267 5.88394 24.5503 4.18208C24.5801 4.08575 25.087 2.44008 25.087 2.44008C24.8415 2.32591 22.164 1.08252 22.164 1.08252C22.164 1.08252 19.8459 8.61155 19.8438 8.61868C19.843 8.62047 21.4392 9.36168 21.5845 9.42947C21.875 9.56416 22.164 9.70331 22.4559 9.83264C22.5917 9.89329 22.6796 9.904 22.7406 9.87545Z" fill="#2D2C3F"/>
<path d="M19.8449 8.61882L22.1652 1.08265L20.1884 0.164829C19.5813 -0.11703 18.9502 0.217454 18.6212 0.883748C18.1703 1.7989 17.8928 2.82287 17.6212 3.83346C17.3961 4.6719 16.9241 5.69408 17.0889 6.59229C17.3278 7.8892 18.9676 8.21208 19.8449 8.61882Z" fill="white"/>
<path d="M60.6484 27.5774L62.822 20.0225L67.0914 24.4457L66.1292 27.5684L60.6484 27.5774Z" fill="white"/>
<path d="M66.1328 27.5685L67.0943 24.4448L69.6775 27.1207C69.8227 27.2714 69.7363 27.5631 69.546 27.5631L66.1328 27.5685Z" fill="#2D2C3F"/>
<path d="M16.0943 3.23047L19.3985 3.61312C19.3985 3.61312 20.4574 20.1581 21.4269 21.925C22.0754 23.106 25.7725 27.4043 29.2714 29.5201C30.6389 30.3469 32.4682 30.9463 32.4682 30.9463L31.3048 60.1767C31.3048 60.1767 25.2801 59.9288 24.124 56.9425L25.8953 48.7329L27.031 37.3104C27.031 37.3104 18.4051 27.4588 17.2185 25.038C16.0333 22.6181 16.0943 3.23047 16.0943 3.23047Z" fill="#403A49"/>
<path d="M16.7266 3.30455C16.7266 3.30455 17.354 1.79803 17.6525 1.21826C18.3409 -0.118792 19.2269 0.00340671 19.667 0.00340671C19.6902 0.00340671 18.8798 1.96126 18.9691 2.02726C19.0577 2.09238 20.4404 2.02726 20.4876 2.2895C20.5348 2.55173 20.1056 2.9219 20.1056 2.9219L18.7222 3.1217L18.6597 3.52843L16.7266 3.30455Z" fill="#F4B7A5"/>
<path d="M56.4622 26.9619C56.4622 26.9619 56.3539 24.3654 56.4622 24.228C56.5704 24.0907 56.8398 24.2414 56.9625 24.3797C57.086 24.517 57.4316 25.8942 57.4316 25.8942L59.5638 26.928C59.5638 26.928 58.7236 28.3997 57.6023 28.7503L56.4622 26.9619Z" fill="#F4B7A5"/>
</g>
<defs>
<linearGradient id="paint0_linear_3045_13639" x1="34.9483" y1="34.0607" x2="65.2444" y2="33.437" gradientUnits="userSpaceOnUse">
<stop offset="0.2657" stop-color="#403A49"/>
<stop offset="0.8477" stop-color="#322F41"/>
<stop offset="1" stop-color="#2D2C3F"/>
</linearGradient>
<linearGradient id="paint1_linear_3045_13639" x1="39.5646" y1="96.8919" x2="34.8951" y2="44.1895" gradientUnits="userSpaceOnUse">
<stop offset="0.2657" stop-color="#403A49"/>
<stop offset="0.8477" stop-color="#322F41"/>
<stop offset="1" stop-color="#2D2C3F"/>
</linearGradient>
<clipPath id="clip0_3045_13639">
<rect width="148" height="102" fill="white"/>
</clipPath>
</defs>
</svg>
