<svg width="138" height="216" viewBox="0 0 138 216" fill="none" xmlns="http://www.w3.org/2000/svg">
<g clip-path="url(#clip0_3045_13689)">
<path d="M72.2219 110.56L68.4419 107.7L52.3119 91.7202C52.3119 91.7202 45.7619 74.9702 46.2219 66.1802L43.9119 67.0502C43.9119 67.0502 42.0319 86.8502 47.4119 94.6302C47.4119 94.6302 58.3119 112.01 69.7319 118.48C81.1519 124.94 72.2219 110.56 72.2219 110.56Z" fill="#EEC0C5"/>
<path d="M44.3117 48.6604C44.4017 48.6004 44.5317 48.6504 44.5917 48.7604C44.9317 49.3704 45.9317 51.2304 46.8617 53.4804C48.3717 57.1904 48.9517 60.1304 48.5717 62.2204C48.3117 63.6304 47.6117 64.6304 46.4917 65.2004C44.8517 66.0304 43.2017 66.0804 41.6117 65.3404C38.2017 63.7504 35.4617 58.8204 33.2317 54.1504C33.1717 54.0304 33.2117 53.9004 33.3017 53.8604C33.4017 53.8104 33.5217 53.8704 33.5717 53.9904C35.7617 58.5804 38.4417 63.4104 41.7117 64.9304C43.2217 65.6304 44.7117 65.5804 46.2817 64.7904C47.3017 64.2704 47.9417 63.3604 48.1817 62.0704C48.9817 57.7004 45.0017 50.2804 44.2717 48.9704C44.2017 48.8504 44.2317 48.7204 44.3117 48.6604Z" fill="#2F2F2F"/>
<path d="M11.3409 25.9302C10.9009 25.8002 6.87094 27.0602 6.87094 27.0602L4.21094 25.0802L8.03094 21.9502L11.3409 25.9302Z" fill="#B33A5D"/>
<path d="M26.0809 61.4502L25.8709 63.9102L4.21094 25.0802L7.30094 25.2602L8.04094 21.9502L26.0809 61.4502Z" fill="#412354"/>
<path d="M54.5191 50.9002L25.8691 63.9102L8.03906 21.9502L35.5691 9.22021L54.5191 50.9002Z" fill="#B33A5D"/>
<path d="M43.9899 48.3103C44.1899 48.1503 44.5299 48.2703 44.7499 48.5903C44.9699 48.9103 44.9899 49.3003 44.7899 49.4603C44.5899 49.6203 44.2499 49.5003 44.0299 49.1803C43.8099 48.8603 43.7899 48.4703 43.9899 48.3103Z" fill="#F1F1F1"/>
<path d="M32.9608 53.2302C33.1808 53.1102 33.5108 53.2802 33.6908 53.6302C33.8708 53.9702 33.8408 54.3502 33.6208 54.4802C33.4008 54.6002 33.0708 54.4302 32.8908 54.0802C32.7108 53.7302 32.7408 53.3502 32.9608 53.2302Z" fill="#F1F1F1"/>
<path d="M44.3117 48.6604C44.4017 48.6004 44.5317 48.6504 44.5917 48.7604C44.9317 49.3704 45.9317 51.2304 46.8617 53.4804C48.3717 57.1904 48.9517 60.1304 48.5717 62.2204C48.3117 63.6304 47.6117 64.6304 46.4917 65.2004C44.8517 66.0304 43.2017 66.0804 41.6117 65.3404C38.2017 63.7504 35.4617 58.8204 33.2317 54.1504C33.1717 54.0304 33.2117 53.9004 33.3017 53.8604C33.4017 53.8104 33.5217 53.8704 33.5717 53.9904C35.7617 58.5804 38.4417 63.4104 41.7117 64.9304C43.2217 65.6304 44.7117 65.5804 46.2817 64.7904C47.3017 64.2704 47.9417 63.3604 48.1817 62.0704C48.9817 57.7004 45.0017 50.2804 44.2717 48.9704C44.2017 48.8504 44.2317 48.7204 44.3117 48.6604Z" fill="#2F2F2F"/>
<path d="M42.5315 49.94C42.6215 49.86 42.7515 49.87 42.8215 49.96C43.2215 50.42 44.4115 51.84 45.5415 53.64C47.4115 56.6 48.2715 59.11 48.0815 61.12C47.9615 62.47 47.3515 63.57 46.2715 64.39C44.7015 65.59 43.0515 66.08 41.3815 65.84C37.8015 65.33 34.5815 61.59 31.9015 57.94C31.8315 57.85 31.8515 57.72 31.9415 57.65C32.0315 57.58 32.1615 57.6 32.2315 57.69C34.8715 61.26 38.0115 64.93 41.4415 65.42C43.0215 65.65 44.5215 65.2 46.0215 64.05C47.0015 63.3 47.5515 62.3 47.6715 61.06C48.0615 56.87 43.3515 51.2 42.5015 50.21C42.4315 50.15 42.4415 50.02 42.5315 49.94Z" fill="#2F2F2F"/>
<path d="M7.24 38.25C6.78 38.25 2.85 40.5 2.85 40.5L0 39.43L3.54 35.54L7.24 38.25Z" fill="#E8B87B"/>
<path d="M25.43 66.5503L25.45 68.8403L0 39.4303L3.12 38.7503L3.54 35.5303L25.43 66.5503Z" fill="#75B1B9"/>
<path d="M52.9891 49.2002L25.4491 68.8402L3.53906 35.5302L29.9891 16.4502L52.9891 49.2002Z" fill="#E8B87B"/>
<path d="M42.1665 49.7101C42.3465 49.5101 42.7065 49.5301 42.9565 49.7601C43.2065 49.9901 43.2665 50.3401 43.0765 50.5401C42.8965 50.7401 42.5365 50.7201 42.2865 50.4901C42.0365 50.2601 41.9765 49.9101 42.1665 49.7101Z" fill="#F1F1F1"/>
<path d="M31.5625 57.1903C31.7725 57.0203 32.1225 57.0903 32.3325 57.3503C32.5525 57.6103 32.5525 57.9703 32.3425 58.1403C32.1325 58.3103 31.7825 58.2403 31.5725 57.9803C31.3525 57.7203 31.3525 57.3603 31.5625 57.1903Z" fill="#F1F1F1"/>
<path d="M42.5315 49.94C42.6215 49.86 42.7515 49.87 42.8215 49.96C43.2215 50.42 44.4115 51.84 45.5415 53.64C47.4115 56.6 48.2715 59.11 48.0815 61.12C47.9615 62.47 47.3515 63.57 46.2715 64.39C44.7015 65.59 43.0515 66.08 41.3815 65.84C37.8015 65.33 34.5815 61.59 31.9015 57.94C31.8315 57.85 31.8515 57.72 31.9415 57.65C32.0315 57.58 32.1615 57.6 32.2315 57.69C34.8715 61.26 38.0115 64.93 41.4415 65.42C43.0215 65.65 44.5215 65.2 46.0215 64.05C47.0015 63.3 47.5515 62.3 47.6715 61.06C48.0615 56.87 43.3515 51.2 42.5015 50.21C42.4315 50.15 42.4415 50.02 42.5315 49.94Z" fill="#2F2F2F"/>
<path d="M42.0625 65.0801C42.0625 65.0801 46.3925 63.1901 46.9825 65.9001C47.5725 68.6101 43.9525 69.4001 43.7525 68.5001C43.5625 67.5901 42.6125 65.4301 42.0625 65.0801Z" fill="#EEC0C5"/>
<path d="M93.5132 107.76L96.1232 103.8L105.963 83.35C105.963 83.35 106.523 65.38 103.153 57.25L105.613 57.29C105.613 57.29 114.013 75.32 111.553 84.45C111.553 84.45 107.103 104.48 98.5132 114.39C89.9132 124.3 93.5132 107.76 93.5132 107.76Z" fill="#EEC0C5"/>
<path d="M99.0724 40.09C98.9724 40.07 98.8624 40.15 98.8424 40.28C98.7324 40.96 98.4024 43.06 98.2924 45.49C98.1024 49.49 98.5524 52.45 99.6124 54.29C100.322 55.53 101.322 56.24 102.572 56.4C104.402 56.63 105.962 56.13 107.212 54.89C109.892 52.25 110.822 46.69 111.362 41.54C111.372 41.41 111.302 41.3 111.192 41.29C111.092 41.28 110.992 41.37 110.982 41.5C110.452 46.56 109.552 52.01 106.982 54.53C105.792 55.69 104.372 56.15 102.622 55.93C101.482 55.79 100.582 55.14 99.9224 54.01C97.7024 50.16 98.9724 41.83 99.2124 40.35C99.2424 40.24 99.1724 40.12 99.0724 40.09Z" fill="#2F2F2F"/>
<path d="M122.531 7.62979C122.911 7.35979 127.121 7.19979 127.121 7.19979L128.961 4.44978L124.311 2.77979L122.531 7.62979Z" fill="#412354"/>
<path d="M120.539 46.0398L121.559 48.2898L128.959 4.44978L126.119 5.64979L124.309 2.77979L120.539 46.0398Z" fill="#B22961"/>
<path d="M90.2109 45.62L121.561 48.29L124.311 2.78L94.1109 0L90.2109 45.62Z" fill="#412354"/>
<path d="M99.2584 39.6498C99.0184 39.5598 98.7384 39.7998 98.6384 40.1698C98.5384 40.5398 98.6484 40.9198 98.8884 40.9998C99.1284 41.0898 99.4084 40.8498 99.5084 40.4798C99.6084 40.1098 99.4984 39.7398 99.2584 39.6498Z" fill="#F1F1F1"/>
<path d="M111.299 40.6001C111.049 40.5601 110.799 40.8301 110.739 41.2201C110.679 41.6001 110.839 41.9501 111.089 42.0001C111.339 42.0401 111.589 41.7701 111.649 41.3801C111.699 40.9901 111.549 40.6401 111.299 40.6001Z" fill="#F1F1F1"/>
<path d="M99.0724 40.09C98.9724 40.07 98.8624 40.15 98.8424 40.28C98.7324 40.96 98.4024 43.06 98.2924 45.49C98.1024 49.49 98.5524 52.45 99.6124 54.29C100.322 55.53 101.322 56.24 102.572 56.4C104.402 56.63 105.962 56.13 107.212 54.89C109.892 52.25 110.822 46.69 111.362 41.54C111.372 41.41 111.302 41.3 111.192 41.29C111.092 41.28 110.992 41.37 110.982 41.5C110.452 46.56 109.552 52.01 106.982 54.53C105.792 55.69 104.372 56.15 102.622 55.93C101.482 55.79 100.582 55.14 99.9224 54.01C97.7024 50.16 98.9724 41.83 99.2124 40.35C99.2424 40.24 99.1724 40.12 99.0724 40.09Z" fill="#2F2F2F"/>
<path d="M101.191 40.7101C101.081 40.6701 100.961 40.7201 100.921 40.8201C100.701 41.3901 100.061 43.1201 99.581 45.2001C98.801 48.6101 98.841 51.2701 99.691 53.1001C100.261 54.3301 101.201 55.1701 102.491 55.5801C104.381 56.1901 106.091 56.1001 107.581 55.3101C110.781 53.6301 112.561 49.0301 113.871 44.6901C113.901 44.5801 113.841 44.4701 113.731 44.4301C113.621 44.4001 113.511 44.4601 113.481 44.5701C112.191 48.8201 110.461 53.3301 107.391 54.9401C105.981 55.6801 104.411 55.7601 102.611 55.1801C101.441 54.8001 100.581 54.0401 100.061 52.9201C98.291 49.1001 100.821 42.1801 101.301 40.9601C101.341 40.8601 101.291 40.7501 101.191 40.7101Z" fill="#2F2F2F"/>
<path d="M130.516 17.8801C130.946 17.7301 135.406 18.5301 135.406 18.5301L137.736 16.5601L133.096 14.0801L130.516 17.8801Z" fill="#75B1B9"/>
<path d="M122.859 50.6201L123.609 52.7901L137.739 16.5601L134.569 16.9601L133.089 14.0801L122.859 50.6201Z" fill="#B33A5D"/>
<path d="M91.0781 43.5102L123.608 52.7902L133.088 14.0802L101.778 4.9502L91.0781 43.5102Z" fill="#75B1B9"/>
<path d="M101.45 40.3601C101.21 40.2301 100.89 40.3701 100.73 40.6701C100.57 40.9701 100.63 41.3201 100.87 41.4501C101.11 41.5801 101.43 41.4401 101.6 41.1401C101.75 40.8401 101.69 40.4901 101.45 40.3601Z" fill="#F1F1F1"/>
<path d="M113.951 43.8601C113.691 43.7701 113.391 43.9501 113.281 44.2701C113.161 44.5901 113.281 44.9201 113.531 45.0201C113.791 45.1101 114.091 44.9301 114.201 44.6101C114.321 44.2901 114.201 43.9601 113.951 43.8601Z" fill="#F1F1F1"/>
<path d="M101.191 40.7101C101.081 40.6701 100.961 40.7201 100.921 40.8201C100.701 41.3901 100.061 43.1201 99.581 45.2001C98.801 48.6101 98.841 51.2701 99.691 53.1001C100.261 54.3301 101.201 55.1701 102.491 55.5801C104.381 56.1901 106.091 56.1001 107.581 55.3101C110.781 53.6301 112.561 49.0301 113.871 44.6901C113.901 44.5801 113.841 44.4701 113.731 44.4301C113.621 44.4001 113.511 44.4601 113.481 44.5701C112.191 48.8201 110.461 53.3301 107.391 54.9401C105.981 55.6801 104.411 55.7601 102.611 55.1801C101.441 54.8001 100.581 54.0401 100.061 52.9201C98.291 49.1001 100.821 42.1801 101.301 40.9601C101.341 40.8601 101.291 40.7501 101.191 40.7101Z" fill="#2F2F2F"/>
<path d="M106.691 54.8102C106.691 54.8102 101.981 54.4802 102.331 57.2302C102.681 59.9902 106.361 59.5202 106.241 58.6002C106.131 57.6802 106.291 55.3302 106.691 54.8102Z" fill="#EEC0C5"/>
<path d="M87.8795 191.88C87.8795 191.88 86.7195 189.86 85.2995 191.03C84.8995 191.36 84.2395 199.94 85.7395 200.24C87.2195 200.54 87.8595 192.48 87.8795 191.88Z" fill="#483A87"/>
<path d="M93.0935 196.43L88.3035 192.25C87.6035 191.64 86.5335 191.76 85.9935 192.52C85.5535 193.13 85.6035 193.96 86.1235 194.51L91.3635 200.14L93.0935 196.43Z" fill="#EEC0C5"/>
<path d="M101.98 212.3L89.25 199.71C89.25 199.71 93.01 193.21 96.66 193.94C100.3 194.67 101.77 209.24 101.98 212.3Z" fill="#5A3D59"/>
<path d="M100.798 163.72C100.798 163.72 115.958 205.9 113.488 210.98C111.018 216.07 102.328 213.77 99.4581 210.29C96.5881 206.81 85.8281 170.29 85.8281 170.29C85.8281 170.29 93.7681 160 100.798 163.72Z" fill="#674863"/>
<path d="M52.6294 184.44C52.6294 184.44 53.0394 182.15 51.1894 182.13C50.6694 182.13 44.6594 188.28 45.6094 189.47C46.5594 190.66 52.2294 184.89 52.6294 184.44Z" fill="#483A87"/>
<path d="M53.6982 191.28L52.7082 185C52.5682 184.08 51.6582 183.49 50.7682 183.72C50.0382 183.91 49.5482 184.58 49.5882 185.33L49.9882 193.01L53.6982 191.28Z" fill="#EEC0C5"/>
<path d="M50.3206 209.15L48.6406 191.33C48.6406 191.33 55.7006 188.76 58.0206 191.66C60.3506 194.56 52.1306 206.67 50.3206 209.15Z" fill="#5A3D59"/>
<path d="M80.6098 171.15C80.6098 171.15 65.1498 213.22 59.9898 215.53C54.8298 217.84 49.6498 210.5 49.6798 205.99C49.7098 201.48 64.9098 166.57 64.9098 166.57C64.9098 166.57 77.6198 163.79 80.6098 171.15Z" fill="#674863"/>
<path d="M74.6519 186.58C74.6519 186.58 81.5019 173.13 92.4419 185.9L88.1319 165.06L75.7619 166.86L70.9219 183.59L74.6519 186.58Z" fill="#674863"/>
<path d="M87.2784 115.27C87.2784 115.27 81.5084 117.35 76.3584 113.53L66.8784 104.04L60.6484 115.63C60.6484 115.63 75.6384 136.45 63.1284 167.98C63.1284 167.98 78.5184 178.32 88.1384 171.54C97.7584 164.76 101.058 164.89 101.058 164.89C101.058 164.89 90.1684 128.69 102.858 110.47L95.7184 102.68C95.7184 102.68 89.9184 113.79 87.2784 115.27Z" fill="#EB5E10"/>
<path d="M87.3619 115.22C87.3619 115.22 84.8619 112.94 84.2419 111.78C83.6319 110.63 81.6319 106.16 82.7619 104.11C82.7619 104.11 86.2219 106.59 88.1919 103.89C90.7619 100.37 85.9719 89.2599 84.3419 88.2699C82.7019 87.2799 79.4019 83.8399 74.8919 85.7899C70.3819 87.7399 72.2919 101.79 76.1419 103.48C76.1419 103.48 78.5519 111.67 76.4419 113.54C76.4419 113.54 81.8719 117.77 84.6419 116.72C87.4119 115.66 87.3619 115.22 87.3619 115.22Z" fill="#EEC0C5"/>
<path opacity="0.29" d="M83.3728 105.26L82.7628 104.11C82.7628 104.11 80.2428 102.84 79.6328 101.69C79.6328 101.69 81.0228 105.01 82.8028 105.57C84.5628 106.11 83.3728 105.26 83.3728 105.26Z" fill="#826E4F"/>
<path d="M86.4965 91.6799C86.4965 91.6799 89.8865 90.6699 89.3365 88.6199C88.7865 86.5699 85.4965 87.5799 85.4965 87.5799C85.4965 87.5799 90.2965 85.0799 88.3365 83.1899C86.3765 81.2999 80.7965 83.5898 80.7965 83.5898C80.7965 83.5898 82.2465 81.2699 80.6665 80.0299C79.0765 78.7899 72.1165 83.1399 72.4465 87.0299C72.4465 87.0299 66.2565 87.5299 69.7465 94.9799C73.2265 102.44 76.2365 103.52 76.2365 103.52C76.2365 103.52 77.5265 101.59 76.9565 98.8299C76.9565 98.8299 76.1665 99.6999 75.2865 98.9199C74.3965 98.1399 73.5265 96.2699 73.9865 95.5799C74.4465 94.8899 77.2465 96.7399 77.2465 96.7399C77.2465 96.7399 79.2765 94.3098 78.3465 92.6999C77.4065 91.0899 78.8265 90.9299 78.8265 90.9299C78.8265 90.9299 83.6365 92.4099 85.5065 90.1199C85.4865 90.1099 85.9065 90.4699 86.4965 91.6799Z" fill="#674863"/>
</g>
<defs>
<clipPath id="clip0_3045_13689">
<rect width="137.74" height="215.97" fill="white"/>
</clipPath>
</defs>
</svg>
