<svg width="168" height="168" viewBox="0 0 168 168" fill="none" xmlns="http://www.w3.org/2000/svg">
<path d="M88.2852 110.435C93.9216 113.299 94.2072 121.733 94.1064 127.823C93.9972 133.921 92.3508 141.036 91.9224 142.876C91.3092 145.488 83.094 148.428 79.2552 148.428C75.4164 148.428 66.1764 149.898 62.1948 149.898C58.2048 149.898 48.8808 148.428 47.4528 148.428C46.0332 148.428 46.2096 146.992 47.4528 143.959C50.2332 137.222 52.9044 115.307 54.0636 114.106C59.4564 108.511 82.6572 107.562 88.2852 110.435Z" fill="#682F2C"/>
<path d="M74.9151 148.301C75.5647 147.181 76.1583 146.031 76.6959 144.849C78.6363 140.624 79.8711 136.063 80.3247 131.434C80.3583 131.123 80.8455 131.123 80.8203 131.434C80.6859 132.753 80.5011 134.055 80.2491 135.349C79.3587 139.985 77.6871 144.463 75.3435 148.553C75.1839 148.822 74.7639 148.579 74.9151 148.301Z" fill="#3A1414"/>
<path d="M79.528 136.979C79.9872 136.883 80.4436 136.771 80.8972 136.643C81.1576 136.567 81.4264 136.491 81.67 136.382C81.9472 136.273 82.048 136.172 82.1824 135.878C82.4008 135.425 82.5268 134.921 82.6696 134.45C82.8124 133.946 82.93 133.434 83.0392 132.921C83.2576 131.88 83.4172 130.83 83.56 129.78C83.602 129.511 83.6188 129.242 83.6776 128.982C83.7112 128.805 83.8288 128.629 84.022 128.629C84.484 128.621 84.3244 129.419 83.896 129.183C83.6188 129.032 83.8624 128.604 84.1396 128.763C84.1508 128.763 84.1592 128.766 84.1648 128.772C84.0808 128.772 83.9968 128.772 83.9128 128.772C83.8904 128.85 83.8652 128.929 83.8372 129.007C83.8876 129.041 83.9352 129.077 83.98 129.116C84.1256 129.015 84.1816 129.013 84.148 129.108C84.1424 129.147 84.1368 129.186 84.1312 129.225C84.12 129.287 84.1116 129.349 84.106 129.41C84.0892 129.539 84.0724 129.668 84.0556 129.797C84.0164 130.049 83.98 130.301 83.9464 130.553C83.8624 131.09 83.7784 131.619 83.686 132.149C83.518 133.081 83.3164 134.005 83.0392 134.904C82.9132 135.332 82.7872 135.786 82.5772 136.189C82.4596 136.424 82.2916 136.634 82.048 136.752C81.6028 136.97 81.1072 137.096 80.6284 137.222C80.3036 137.306 79.9816 137.385 79.6624 137.457C79.3516 137.525 79.2172 137.046 79.528 136.979Z" fill="#3A1414"/>
<path d="M47.5731 147.739C48.4383 146.412 49.0851 144.984 49.6983 143.531C49.7319 143.455 49.8327 143.405 49.9167 143.405C49.8383 143.466 49.7599 143.528 49.6815 143.589C50.1603 142.439 50.6139 141.279 51.0507 140.12C51.8319 138.029 52.5711 135.92 53.3103 133.812C53.9655 131.964 54.6123 130.116 55.3683 128.31C55.4859 128.024 55.9563 128.15 55.8387 128.444C55.4355 129.41 55.0659 130.385 54.7131 131.367C53.2011 135.483 51.8571 139.675 50.1519 143.715C50.1099 143.816 50.0343 143.9 49.9167 143.9C49.9839 143.855 50.0539 143.813 50.1267 143.774C49.5135 145.227 48.8667 146.664 47.9931 147.983C47.8251 148.251 47.3967 147.999 47.5731 147.739Z" fill="#3A1414"/>
<path d="M49.9191 143.405C51.3387 143.354 52.7583 143.321 54.1779 143.195C55.4127 143.094 56.6643 142.959 57.8151 142.472C59.2347 141.867 60.4863 140.91 61.5363 139.784C63.9219 137.239 65.1987 133.921 66.4419 130.721C66.5511 130.427 67.0215 130.553 66.9123 130.847C66.1731 132.77 65.4255 134.694 64.4427 136.508C62.8971 139.347 60.6375 141.977 57.5211 143.111C56.3367 143.539 55.0179 143.631 53.7663 143.724C52.4895 143.816 51.2043 143.85 49.9191 143.9C49.5999 143.909 49.5999 143.421 49.9191 143.405Z" fill="#3A1414"/>
<path d="M90.9123 128.545C90.5343 129.041 90.2655 129.595 89.9799 130.149C89.6831 130.721 89.3891 131.295 89.0979 131.871C88.4987 133.031 87.9023 134.19 87.3087 135.349C87.1659 135.635 86.7375 135.383 86.8803 135.105C87.4795 133.946 88.0759 132.784 88.6695 131.619C88.9719 131.037 89.2743 130.452 89.5767 129.864C89.8539 129.326 90.1227 128.78 90.4839 128.293C90.6771 128.049 91.0971 128.293 90.9123 128.545Z" fill="#3A1414"/>
<path d="M83.6059 41.8234C83.4603 45.5978 83.7739 49.4478 84.5467 53.3734C85.7059 59.2534 82.4971 62.7394 80.7499 62.8906C79.0111 63.0334 73.7443 61.3618 72.1987 58.5142C70.9107 56.1342 69.7403 55.5098 68.6875 56.641C71.5603 53.1074 72.2463 48.4342 70.7455 42.6214C68.4943 33.9022 83.2951 34.5826 83.6059 41.8234Z" fill="#F48D7F"/>
<path d="M75.0278 24.5366C78.9534 27.2246 81.7142 30.4194 83.3102 34.121C85.7042 39.6818 86.3258 41.9666 85.343 43.277C84.3602 44.579 82.4282 46.6874 79.7738 46.6874C77.8334 46.6874 71.4662 46.2506 69.8702 44.2178C69.0134 43.1258 60.2102 36.0866 63.3686 31.2902C66.527 26.4938 70.1222 22.7894 75.0278 24.5366Z" fill="#F48D7F"/>
<path d="M76.5035 45.8975C77.4695 46.5611 78.8303 46.5863 79.9559 46.4183C81.1235 46.2419 82.2407 45.7799 83.1899 45.0743C83.4419 44.8895 83.6855 45.3095 83.4419 45.4943C82.4171 46.2503 81.2075 46.7375 79.9475 46.9139C78.7379 47.0735 77.3015 47.0315 76.2599 46.3175C75.9995 46.1411 76.2431 45.7211 76.5035 45.8975Z" fill="#732921"/>
<path d="M79.6782 33.1883C79.9134 33.3563 80.1458 33.5215 80.3754 33.6839C80.6694 33.8939 80.9634 34.1039 81.249 34.3223C81.6102 34.5911 82.047 34.8935 82.1562 35.3555C82.3746 36.2627 81.333 37.0355 80.5854 37.2707C80.283 37.3631 80.157 36.8927 80.4594 36.7919C80.8374 36.6743 81.1482 36.4643 81.4086 36.1787C81.5346 36.0359 81.6522 35.8679 81.6858 35.6831C81.7278 35.4731 81.6186 35.2883 81.4758 35.1455C81.3834 35.0531 81.291 34.9691 81.1902 34.8935C81.151 34.8599 81.109 34.8263 81.0642 34.7927C81.0558 34.7843 80.997 34.7339 81.039 34.7675C80.9438 34.6947 80.8458 34.6219 80.745 34.5491C80.3082 34.2299 79.8714 33.9191 79.4262 33.6167C79.1742 33.4319 79.4178 33.0119 79.6782 33.1883Z" fill="#732921"/>
<path d="M75.8097 36.7501C75.0621 36.6829 74.2557 35.2297 74.9361 34.8097C75.6165 34.3897 76.2129 35.5069 76.2297 35.5321C76.5657 36.0109 76.5489 36.8173 75.8097 36.7501Z" fill="#2E122C"/>
<path d="M80.9972 32.4743C80.2664 32.3483 79.5104 30.9959 80.2244 30.6431C80.72 30.3995 81.3164 31.3067 81.3332 31.3403C81.7112 31.9787 81.6104 32.5751 80.9972 32.4743Z" fill="#2E122C"/>
<path d="M71.4298 35.1791C71.4298 34.3139 71.833 32.8859 72.1942 32.0543C72.5554 31.2143 72.9586 31.1807 73.5382 31.3235C74.1178 31.4663 74.0842 32.1635 73.5382 33.2471C73.1742 33.9751 72.8466 34.8039 72.5554 35.7335C72.085 36.3971 71.4214 36.1955 71.4298 35.1791Z" fill="#2E122C"/>
<path d="M79.7916 28.241C80.2536 28.4426 80.9088 29.0978 80.3292 29.4506C79.842 29.7446 78.5904 29.3666 78.078 29.291C76.7844 29.0978 77.532 27.9806 78.0444 27.947C78.4728 27.9134 79.0188 27.9806 79.4724 28.1234C79.5844 28.157 79.6908 28.1962 79.7916 28.241Z" fill="#2E122C"/>
<path d="M73.289 26.166C72.1634 26.4124 70.9818 28.1092 69.7442 31.2564C69.1814 32.6844 68.4338 35.3556 69.3074 36.75C70.0718 37.968 71.1554 39.0432 70.3826 39.9C69.719 40.6224 69.1814 41.202 69.3074 41.748C69.4334 42.294 73.331 44.0916 73.961 44.688C74.591 45.2928 75.1706 46.8804 73.499 47.7456C71.8358 48.6024 67.6358 49.7616 67.8458 48.5604C68.0558 47.3592 69.5426 45.6456 67.703 45.2844C61.8398 44.1504 59.3366 38.8584 59.6054 34.7172C59.8826 30.576 61.5122 26.9304 64.511 25.4604C65.351 25.0488 65.9978 24.99 66.149 24.6456C66.9302 22.8228 70.2398 22.2516 73.3898 22.7892C79.0934 23.7636 78.8162 27.7704 78.5138 27.4764C78.2114 27.1824 75.7922 24.8052 73.289 26.166Z" fill="#2E122C"/>
<path d="M64.9504 25.3178C67.4116 24.7634 69.9904 24.8222 72.4264 25.4942C72.7288 25.5782 72.6028 26.0486 72.3004 25.9646C69.9484 25.3178 67.462 25.259 65.0764 25.7882C64.774 25.8638 64.6396 25.385 64.9504 25.3178Z" fill="#3B3049"/>
<path d="M70.2116 27.0982C69.506 27.6022 68.8844 28.2238 68.372 28.9294C67.448 30.1978 66.8852 31.7098 66.7928 33.2806C66.7424 34.1122 66.8096 34.9522 67.0112 35.7586C67.2212 36.6154 67.5824 37.3798 67.994 38.1526C68.1452 38.4298 67.7168 38.6734 67.574 38.3962C67.0784 37.489 66.6668 36.565 66.4652 35.5486C66.1208 33.835 66.2804 32.0458 66.9524 30.4414C67.5908 28.9294 68.6408 27.6274 69.968 26.6698C70.22 26.485 70.4636 26.9134 70.2116 27.0982Z" fill="#3B3049"/>
<path d="M68.1149 27.0226C67.1993 27.4258 66.3593 27.997 65.6453 28.711C64.3769 29.9962 63.5369 31.7098 63.3857 33.5158C63.2177 35.4562 63.7637 37.4134 64.9229 38.9758C65.1077 39.2278 64.6793 39.4714 64.4945 39.2194C63.8225 38.3038 63.3353 37.2454 63.0833 36.1282C62.6381 34.1962 62.8817 32.155 63.8057 30.391C64.6877 28.7194 66.1409 27.3502 67.8713 26.5942C68.1569 26.4682 68.4089 26.8966 68.1149 27.0226Z" fill="#3B3049"/>
<path d="M65.0492 26.695C64.8056 27.0982 64.3856 27.2914 64.016 27.5434C63.6464 27.7954 63.3188 28.1146 63.0332 28.4674C62.4704 29.1646 62.0924 30.0046 61.8152 30.8446C61.5296 31.7098 61.3028 32.617 61.2104 33.5242C61.1096 34.5406 61.2272 35.5402 61.5044 36.5146C61.958 38.1274 62.6888 39.7738 63.8816 40.975C64.4948 41.5882 65.2172 42.0334 66.0152 42.3526C66.872 42.7054 67.7708 42.949 68.6192 43.3186C69.4004 43.6714 70.1396 44.1418 70.6604 44.839C71.156 45.5194 71.408 46.3678 71.2232 47.2078C71.156 47.5102 70.6856 47.3842 70.7528 47.0734C70.9628 46.1158 70.442 45.175 69.728 44.5618C68.9636 43.9066 67.9808 43.5706 67.0484 43.2514C66.1748 42.949 65.276 42.6466 64.5032 42.1258C63.8312 41.6722 63.26 41.0842 62.7812 40.429C62.294 39.7654 61.916 39.0262 61.5968 38.2702C61.2272 37.3882 60.9332 36.4642 60.782 35.5234C60.6224 34.5154 60.6728 33.5158 60.8744 32.5162C61.034 31.6846 61.2608 30.853 61.58 30.0634C61.8824 29.3074 62.2688 28.5934 62.8064 27.9802C63.0584 27.6862 63.3524 27.4174 63.6632 27.1906C63.9908 26.9554 64.4108 26.7958 64.6292 26.443C64.7888 26.1742 65.2172 26.4262 65.0492 26.695Z" fill="#3B3049"/>
<path d="M71.5553 23.9147C72.9329 23.3015 74.5793 23.0411 75.9149 23.9063C76.1753 24.0743 75.9317 24.4943 75.6629 24.3263C74.4869 23.5703 73.0253 23.7971 71.8073 24.3347C71.5217 24.4607 71.2697 24.0407 71.5553 23.9147Z" fill="#3B3049"/>
<path d="M72.1935 43.4953C71.8071 44.7973 70.6479 45.2845 69.3627 45.2845C68.2707 45.2845 65.8179 42.7813 65.7591 41.6389C65.7087 40.4965 67.1619 39.2953 68.4303 39.6817C68.7943 39.7881 69.6315 40.3873 70.9419 41.4793L72.1935 43.4953Z" fill="#F48D7F"/>
<path d="M67.8172 40.9667C68.842 41.5547 69.8752 42.1679 70.5892 43.1339C70.6648 43.2431 70.606 43.4111 70.4968 43.4699C70.3792 43.5455 70.2448 43.4867 70.1608 43.3859C69.5056 42.4955 68.5144 41.9327 67.5736 41.3867C67.2964 41.2355 67.5484 40.8071 67.8172 40.9667Z" fill="#732921"/>
<path d="M67.6047 42.7058C67.5627 42.5798 67.6467 42.4454 67.7727 42.4034C68.1703 42.2858 68.5651 42.1654 68.9571 42.0422C69.0915 42.0002 69.2175 42.0842 69.2595 42.2102C69.3015 42.3362 69.2091 42.4706 69.0915 42.5126C68.6939 42.6358 68.2963 42.759 67.8987 42.8822C67.7727 42.9242 67.6383 42.8318 67.6047 42.7058Z" fill="#732921"/>
<path d="M83.161 40.0597C81.9682 41.0089 79.7758 40.9753 79.7422 40.1941C79.7422 40.0345 79.8346 39.8329 80.0698 39.5977C80.137 39.5305 82.4638 38.1193 83.0686 37.3801C83.4466 36.9181 83.7574 36.9601 83.9506 37.2541C84.3034 37.8085 83.9926 39.4045 83.161 40.0597Z" fill="white"/>
<path d="M84.0766 38.6903C84.0178 38.9507 83.9254 39.2027 83.7994 39.4379C83.6902 39.6143 83.5642 39.7823 83.413 39.9251C82.4974 40.7567 81.2962 40.9583 80.5234 40.7987C80.2966 40.7567 80.1118 40.6727 79.969 40.5719C79.8346 40.4711 79.7506 40.3367 79.7422 40.1939C80.7502 39.8915 82.1782 39.1187 83.9506 37.2539C84.1438 37.5647 84.2026 38.1275 84.0766 38.6903Z" fill="#8E180C"/>
<path d="M84.1438 38.0103C84.169 38.8083 83.9254 39.2031 83.7994 39.4383C83.6902 39.6147 83.5642 39.7827 83.413 39.9255C82.4974 40.7571 81.2962 40.9587 80.5234 40.7991C82.1194 40.3119 83.6818 39.2787 84.1438 38.0103Z" fill="#8E180C"/>
<path d="M95.3952 57.7328C95.3784 57.6992 104.677 79.0604 105.45 83.5544C106.214 88.0148 109.154 100.875 104.686 103.714C100.217 106.545 87.3648 95.2136 86.004 81.152C84.6348 67.0988 90.5988 53.7008 95.3952 57.7328Z" fill="#7872C4"/>
<path d="M114.486 77.7924C116.552 79.226 117.68 80.9676 117.871 83.0172C118.19 86.604 109.042 84.5124 108.244 80.0268C107.446 75.5412 106.64 73.0716 108.421 73.3908C109.608 73.6092 111.63 75.0764 114.486 77.7924Z" fill="#46458C"/>
<path d="M106.341 77.4646C106.744 76.7422 112.834 66.5278 113.472 64.495C113.682 63.8398 113.136 63.1846 112.926 61.8826C112.481 59.1442 112.926 57.5902 111.969 53.743C111.565 52.1134 112.313 50.971 113.329 51.4918C114.144 51.9118 114.22 53.7598 114.925 54.9778C115.723 56.3554 115.942 55.255 116.471 54.5578C117.513 53.2054 119.369 46.9222 119.797 46.0234C120.226 45.1162 121.889 42.6046 122.511 44.2174C122.502 44.3854 122.687 44.4946 122.83 44.4022C122.939 44.3266 123.065 44.3098 123.115 44.2678C123.586 43.831 123.829 43.621 123.972 43.5706C124.291 43.4782 124.753 43.6714 124.913 43.9738C125.148 44.4022 124.737 44.9146 124.98 45.133C125.081 45.2254 125.182 45.1582 125.467 45.2002C125.829 45.259 126.181 45.4438 126.324 45.6034C126.618 45.931 126.383 46.4854 126.039 47.6446C125.644 49.0054 125.829 48.7282 125.383 50.1982C125.081 51.223 124.686 52.3738 124.644 52.3654C124.636 52.357 124.653 52.2478 124.669 52.189C124.669 52.189 126.156 46.855 127.609 48.787C128.223 49.6102 122.905 62.2018 121.763 64.159C120.612 66.1246 119.579 68.5018 118.487 72.2314C117.051 77.1286 113.405 90.1318 111.33 90.4258C107.903 90.9298 102.124 84.8146 106.341 77.4646Z" fill="#F48D7F"/>
<path d="M115.793 55.7339C116.305 56.3387 116.843 56.9519 117.17 57.6743C117.338 58.0439 117.439 58.4219 117.481 58.8251C117.531 59.2115 117.531 59.6147 117.716 59.9675C117.867 60.2531 117.439 60.4967 117.296 60.2195C117.111 59.8667 117.061 59.4887 117.019 59.0939C116.985 58.7075 116.918 58.3463 116.775 57.9851C116.473 57.2711 115.952 56.6663 115.448 56.0867C115.238 55.8431 115.583 55.4987 115.793 55.7339Z" fill="#732921"/>
<path d="M122.714 44.7132C122.462 45.2424 122.286 45.8136 122.101 46.368C121.74 47.4432 121.37 48.5184 121.042 49.602C120.824 50.316 120.648 51.0468 120.471 51.7692C120.396 52.0716 119.917 51.9456 119.992 51.6348C120.102 51.2064 120.211 50.7696 120.328 50.3328C120.564 49.434 120.858 48.552 121.152 47.67C121.345 47.082 121.538 46.4856 121.74 45.8976C121.908 45.4188 122.067 44.9232 122.294 44.4696C122.437 44.184 122.857 44.436 122.714 44.7132Z" fill="#732921"/>
<path d="M125.858 49.694C125.144 51.1388 124.699 52.6928 124.136 54.1964C124.018 54.4904 123.548 54.3644 123.657 54.062C124.245 52.5164 124.699 50.9288 125.438 49.442C125.572 49.1564 126.001 49.4084 125.858 49.694Z" fill="#732921"/>
<path d="M124.944 45.1581C123.86 47.3589 123.272 49.7529 122.659 52.1133C122.575 52.4241 122.104 52.2897 122.18 51.9873C122.81 49.5765 123.415 47.1489 124.524 44.9145C124.658 44.6289 125.086 44.8809 124.944 45.1581Z" fill="#732921"/>
<path d="M101.234 86.3602C101.452 86.097 102.659 83.5658 104.854 78.7666C104.541 77.9938 104.544 77.4142 104.863 77.0278C105.333 76.4482 105.493 75.5746 105.442 75.3478C105.274 74.5918 106.257 73.5838 107.374 73.3906C107.89 73.3066 108.324 73.329 108.676 73.4578C107.556 74.2866 107.702 76.1542 109.113 79.0606C111.39 83.7394 115.615 84.1426 116.816 83.6722C117.611 83.3586 117.911 82.9022 117.715 82.303C118.045 82.9246 118.18 83.5714 118.118 84.2434C117.975 85.6294 117.429 85.3018 117.387 86.1754C117.295 88.351 117.16 89.1154 116.262 89.9974C115.92 90.3222 115.24 90.5126 114.22 90.5686C111.012 99.1646 107.786 103.841 104.544 104.597C99.2348 105.831 96.404 102.194 95.8916 98.4226C95.5556 95.9026 97.3364 91.8818 101.234 86.3602Z" fill="#7872C4"/>
<path d="M100.996 86.3014C101.601 84.3022 102.45 82.3786 103.508 80.5726C103.668 80.3038 104.096 80.5474 103.936 80.8246C102.895 82.5886 102.063 84.4702 101.467 86.4274C101.374 86.7298 100.904 86.6038 100.996 86.3014Z" fill="#405C7C"/>
<path d="M105.096 79.3042C105.382 80.4298 105.76 81.5218 106.256 82.5802C106.684 83.4958 107.18 84.3694 107.709 85.2346C108.213 86.041 108.742 86.8138 109.406 87.4942C110.733 88.8802 112.413 89.8882 114.286 90.3334C114.588 90.409 114.462 90.8794 114.152 90.8038C113.06 90.5434 112.01 90.0982 111.06 89.4934C110.254 88.9726 109.515 88.351 108.868 87.6454C108.196 86.9062 107.65 86.083 107.138 85.2346C106.037 83.4202 105.155 81.4966 104.618 79.4386C104.542 79.1278 105.012 79.0018 105.096 79.3042Z" fill="#3D3B89"/>
<path d="M117.179 86.5367C116.885 86.7215 116.582 86.8307 116.23 86.8727C115.532 86.9399 114.81 86.7635 114.155 86.5619C113.416 86.3267 112.71 85.9739 112.072 85.5203C111.576 85.1759 111.106 84.7811 110.694 84.3443C110.492 84.1259 110.232 83.8823 110.131 83.5967C110.03 83.2943 110.501 83.1683 110.61 83.4707C110.576 83.3783 110.627 83.4875 110.652 83.5211C110.694 83.5883 110.719 83.6219 110.744 83.6555C110.887 83.8319 111.038 83.9999 111.198 84.1595C112.147 85.1171 113.323 85.8311 114.617 86.1839C115.154 86.3267 115.751 86.4611 116.314 86.3687C116.574 86.3183 116.708 86.2511 116.935 86.1083C117.204 85.9403 117.448 86.3687 117.179 86.5367Z" fill="#3D3B89"/>
<path d="M105.941 76.6247C105.924 77.7839 106.268 78.9011 106.924 79.8503C107.108 80.1107 106.68 80.3543 106.504 80.1023C105.806 79.0859 105.437 77.8595 105.454 76.6247C105.454 76.3139 105.941 76.3139 105.941 76.6247Z" fill="#3D3B89"/>
<path d="M70.6708 53.0711C75.1004 60.2222 78.83 63.0363 81.8596 61.5131C84.2116 60.3258 85.0068 56.8847 84.2452 51.1895C89.582 53.0319 92.928 55.577 94.2832 58.825C96.316 63.6887 96.7696 121.019 94.2832 125.076C87.3448 136.374 65.3704 133.207 60.4312 133.938C55.492 134.66 71.2504 91.0054 69.6544 78.8002C68.0584 66.595 64.144 57.3215 65.0176 55.549C65.5552 54.4655 70.6708 52.1219 70.6708 53.0711Z" fill="#F7F7EB"/>
<path d="M72.051 57.0945C72.1686 57.2233 72.2862 57.3521 72.4038 57.4809C73.6974 58.9173 74.9574 60.3957 76.4442 61.6389C77.7966 62.7645 79.611 63.9909 81.459 63.6549C83.1054 63.3609 84.441 62.1345 85.0374 60.6057C85.6338 59.0769 85.6674 57.3885 85.575 55.7673C85.491 54.3981 85.2558 53.0373 85.197 51.6681C85.1802 51.3489 85.6758 51.3489 85.6842 51.6681C85.6898 51.8025 85.6982 51.9341 85.7094 52.0629C85.827 53.5581 86.0622 55.0449 86.0958 56.5485C86.1378 58.2201 85.9782 59.9925 85.1634 61.4877C84.3402 63.0081 82.6602 64.1841 80.8962 64.2009C78.897 64.2177 77.091 62.8821 75.663 61.6137C74.2266 60.3285 73.0086 58.8501 71.6982 57.4389C71.4882 57.2121 71.8326 56.8593 72.051 57.0945Z" fill="#A8A78A"/>
<path d="M60.514 130.838C63.1264 131.325 65.7808 131.577 68.4436 131.619C73.1392 131.695 77.8516 131.082 82.3792 129.813C84.6388 129.183 86.8564 128.385 89.0068 127.436C90.0904 126.949 91.1572 126.428 92.1988 125.865C92.98 125.445 94.0132 124.79 93.9292 123.782C93.904 123.463 94.3912 123.471 94.4164 123.782C94.4416 124.026 94.408 124.269 94.324 124.496C93.9628 125.479 92.9464 126.025 92.0728 126.487C91.0032 127.053 89.9112 127.576 88.7968 128.058C86.5792 129.015 84.2944 129.813 81.9592 130.435C79.624 131.065 77.2384 131.51 74.836 131.787C72.4336 132.065 70.006 132.174 67.5868 132.09C65.1676 132.014 62.7652 131.754 60.3796 131.317C60.0688 131.258 60.2032 130.788 60.514 130.838Z" fill="#A8A78A"/>
<path d="M70.6104 129.259C71.1816 128.243 71.7444 127.218 72.2652 126.185C73.0296 124.673 73.6764 123.119 74.1552 121.489C74.7852 119.347 75.2052 117.146 75.6084 114.954C75.6672 114.643 76.1376 114.769 76.0788 115.08C75.8268 116.466 75.558 117.843 75.2472 119.213C74.8524 120.96 74.3569 122.69 73.6597 124.353C72.9121 126.126 71.9712 127.823 71.0304 129.503C70.8792 129.78 70.4592 129.528 70.6104 129.259Z" fill="#A8A78A"/>
<path d="M67.7095 96.9777C65.2315 109.259 52.4467 106.067 48.3391 102.555C42.7279 97.7589 46.5415 83.4957 49.9687 71.0637C53.7823 57.2205 60.4267 55.7673 66.5419 53.8185C73.3627 51.7857 70.7083 82.1013 67.7095 96.9777Z" fill="#7872C4"/>
<path d="M71.2851 50.0639C71.2515 55.2551 74.1747 55.4819 75.5607 58.4975C77.3835 62.4371 78.9711 69.7871 78.6519 83.4875C78.1899 102.665 74.6871 109.637 70.0923 121.514C67.1943 129.024 63.2799 135.584 61.9695 137.693C61.6923 138.138 61.1967 138.281 60.6927 138.415C49.9155 141.221 45.0939 136.156 45.4047 133.946C47.4963 119.162 54.7455 109.578 55.0731 95.0879C55.2495 87.4523 59.9871 57.8507 62.0619 56.0447C63.7419 54.5831 67.1355 53.2559 69.3615 52.0463C70.1091 51.6431 70.4871 49.5431 71.2851 50.0639Z" fill="#7872C4"/>
<path d="M69.6148 52.3737C69.6092 52.8049 69.6036 53.2333 69.598 53.6589C69.598 55.2633 69.6568 56.8761 70.0684 58.4385C70.27 59.1945 70.564 59.9001 70.858 60.6141C71.0596 61.1097 71.2108 61.6221 71.3788 62.1261C71.5636 62.6637 71.7568 63.2181 72.0508 63.7137C72.1432 63.8733 72.2608 64.0497 72.412 64.1589C72.4372 64.1841 72.4624 64.1925 72.4876 64.2093C72.4456 64.1841 72.4792 64.2009 72.4876 64.2009C72.4624 64.1925 72.4876 64.2009 72.4876 64.2009C72.5464 64.1757 72.58 64.1673 72.6556 64.1169C73.042 63.8481 73.336 63.4281 73.63 63.0585C73.8904 62.7309 74.1592 62.3193 74.512 62.0673C75.2008 61.5717 75.4948 63.0081 75.5872 63.4029C75.7804 64.2177 75.8896 65.0493 76.0156 65.8809C76.1248 66.5865 76.2928 67.2837 76.4272 67.9809C76.6036 68.8965 76.7716 69.8205 76.9228 70.7529C77.2252 72.5925 77.4688 74.4573 77.5864 76.3221C77.6452 77.1789 77.6704 78.0357 77.746 78.8925C77.8048 79.6065 77.8804 80.3205 77.9644 81.0429C78.1492 82.5801 78.334 84.1257 78.46 85.6713C78.4768 85.9905 77.9896 85.9905 77.9644 85.6713C77.9308 85.2345 77.8944 84.7949 77.8552 84.3525C77.7124 82.8993 77.5024 81.4461 77.3512 79.9929C77.1832 78.3129 77.1496 76.6161 76.99 74.9361C76.8052 73.0629 76.5196 71.2065 76.1836 69.3585C75.9568 68.0817 75.6544 66.8133 75.4696 65.5281C75.3436 64.6461 75.226 63.7221 74.932 62.8737C74.89 62.7309 74.848 62.6049 74.7556 62.4789C74.7472 62.4705 74.722 62.4453 74.7136 62.4453C74.7472 62.4453 74.7472 62.4621 74.7808 62.4621C74.7976 62.4537 74.8312 62.4285 74.7892 62.4621C74.7808 62.4705 74.7724 62.4705 74.7304 62.5125C74.7024 62.5405 74.6744 62.5685 74.6464 62.5965C74.5792 62.6637 74.5148 62.7365 74.4532 62.8149C74.2936 62.9997 74.1424 63.2013 73.9912 63.3945C73.672 63.7809 73.3612 64.2009 72.9496 64.5033C72.5968 64.7637 72.2608 64.7217 71.9584 64.4109C71.5888 64.0329 71.3788 63.5121 71.1856 63.0249C70.9672 62.4789 70.7992 61.9161 70.606 61.3533C70.4128 60.7653 70.1356 60.2109 69.9256 59.6229C69.6484 58.8585 69.4468 58.0689 69.3292 57.2625C69.0772 55.6497 69.1024 54.0117 69.1192 52.3737C69.1276 52.0629 69.6148 52.0629 69.6148 52.3737Z" fill="#3D3B89"/>
<path d="M53.8446 115.601C54.6678 114.954 55.4154 114.215 56.079 113.408C57.2466 111.972 58.1286 110.309 58.641 108.536C58.7754 108.074 58.8762 107.612 58.9854 107.15C59.0862 106.747 59.2206 106.327 59.4978 106.016C60.0018 105.437 60.8418 105.143 61.5222 104.857C61.8162 104.739 61.9422 105.21 61.6566 105.336C61.1862 105.529 60.7158 105.731 60.2874 105.999C60.0102 106.176 59.7918 106.377 59.649 106.68C59.4474 107.117 59.3886 107.612 59.2794 108.074C59.1674 108.522 59.033 108.965 58.8762 109.401C58.5738 110.258 58.1958 111.081 57.7338 111.871C56.8182 113.433 55.617 114.828 54.189 115.945C53.9454 116.138 53.5926 115.794 53.8446 115.601Z" fill="#3D3B89"/>
<path d="M53.2729 110.006C54.3817 108.858 55.4933 107.713 56.6077 106.571C56.8261 106.344 57.1705 106.697 56.9521 106.923C55.8433 108.066 54.7317 109.208 53.6173 110.351C53.3989 110.577 53.0545 110.225 53.2729 110.006Z" fill="#3D3B89"/>
<path d="M72.19 74.0965C72.232 74.4997 72.106 74.9113 71.854 75.2221C67.9312 79.9933 59.5648 68.6869 61.1608 68.4433C64.756 67.8973 69.0484 70.7029 70.5184 71.7529C70.9216 72.0469 71.2912 72.3913 71.602 72.7861C71.9968 73.2817 72.148 73.6681 72.19 74.0965Z" fill="#46458C"/>
<path d="M64.0309 39.7068C66.2569 41.4456 73.3885 46.2336 75.5809 48.4764C76.5049 49.4172 74.5309 51.4584 72.3637 54.012C72.1369 54.2892 71.6749 54.5412 71.3893 54.3228C69.1045 52.5756 60.7465 45.3348 59.5789 44.3856C58.7473 43.7136 62.0401 40.3788 62.7793 39.7068C63.3729 39.5164 63.7901 39.5164 64.0309 39.7068Z" fill="#C2B524"/>
<path d="M63.3173 39.9086C65.0225 41.177 66.7445 42.4202 68.4665 43.6634C69.6929 44.5538 70.9277 45.4442 72.1373 46.3514C72.9605 46.9646 73.7837 47.5778 74.5397 48.2666C74.7581 48.4682 74.9765 48.6698 75.1445 48.9134C75.3713 49.241 75.2957 49.5938 75.1277 49.9214C74.8421 50.4842 74.3885 50.9714 73.9937 51.4418C73.4477 52.0886 72.8933 52.7354 72.4061 53.4242C72.2297 53.6762 71.8013 53.4326 71.9861 53.1722C72.5237 52.4162 73.1285 51.7106 73.7249 51.005C73.9601 50.7194 74.1953 50.4422 74.4053 50.1482C74.5565 49.9466 74.7077 49.7282 74.7833 49.4846C74.8169 49.3586 74.8169 49.2998 74.7581 49.2074C74.7413 49.1906 74.7273 49.171 74.7161 49.1486C74.6825 49.0982 74.7245 49.157 74.6993 49.1318C74.6601 49.0814 74.6209 49.0366 74.5817 48.9974C74.3633 48.7538 74.1113 48.5354 73.8593 48.317C73.0445 47.6198 72.1709 46.9814 71.3057 46.3346C68.5757 44.3186 65.7953 42.353 63.0653 40.337C62.8133 40.1522 63.0653 39.7238 63.3173 39.9086Z" fill="#EAE096"/>
<path d="M58.0105 70.3584C57.9349 71.0472 63.0673 62.1348 63.6889 58.8756C63.8065 58.2288 60.3877 50.3412 60.1273 48.9216C59.5477 45.7968 62.1181 42.588 64.2937 42.1428C65.7721 41.8404 67.6201 43.05 65.6965 43.7808C66.9509 43.008 67.8777 43.162 68.4769 44.2428C68.6953 44.6348 68.6757 44.7664 68.4181 44.6376C69.8181 44.604 70.4369 45.0464 70.2745 45.9648L71.0137 46.284C71.4617 46.8552 71.2685 47.2136 70.4341 47.3592C70.0141 47.4432 68.2669 47.6448 68.7121 50.652C69.0397 52.8192 71.8033 56.4564 69.8461 60.564C68.8297 62.6892 68.9305 75.1212 67.7209 79.7496C66.8389 83.1264 56.6329 76.8768 58.0105 70.3584Z" fill="#F48D7F"/>
<path d="M63.4467 53.5331C62.2287 53.8775 60.6159 51.6263 60.4731 50.0723C60.3303 48.5267 57.5499 45.1499 57.3903 44.4527C57.2307 43.7639 58.3311 42.4619 60.0531 44.4023C61.7667 46.3511 62.8587 47.2415 63.7323 47.8883C64.8327 48.7115 64.6647 53.1803 63.4467 53.5331Z" fill="#F48D7F"/>
<path d="M60.8036 45.78C60.1484 46.9896 60.1484 48.4932 60.8036 49.7112C60.9464 49.9884 60.5264 50.232 60.3752 49.9548C59.6444 48.5856 59.6444 46.8972 60.3836 45.528C60.5348 45.2508 60.9548 45.5028 60.8036 45.78Z" fill="#732921"/>
<path d="M70.189 46.3932C69.1558 46.1748 68.047 46.5108 67.3414 47.292C67.0306 47.628 66.8122 48.048 66.6778 48.4932C66.6274 48.6444 66.5882 48.7984 66.5602 48.9552C66.5602 48.9776 66.5574 49 66.5518 49.0224C66.5434 49.0728 66.5602 48.9804 66.5518 49.056C66.5462 49.084 66.5434 49.1148 66.5434 49.1484C66.5182 49.4592 66.0226 49.4592 66.0478 49.1484C66.0646 48.9048 66.115 48.6612 66.1822 48.426C66.4258 47.5776 66.955 46.8216 67.711 46.3512C68.4838 45.8724 69.433 45.7296 70.315 45.9144C70.6258 45.9816 70.4998 46.452 70.189 46.3932Z" fill="#732921"/>
<path d="M68.1836 44.8559C67.352 45.0071 66.47 45.2171 65.7812 45.7463C65.1008 46.2755 64.7312 47.0735 64.5044 47.8799C64.412 48.1823 63.9416 48.0563 64.0256 47.7539C64.286 46.8551 64.6976 45.9815 65.4452 45.3935C66.1928 44.8055 67.1336 44.5535 68.0576 44.3771C68.3684 44.3183 68.4944 44.7971 68.1836 44.8559Z" fill="#732921"/>
<path d="M66.0671 43.7891C65.6891 43.7975 65.3363 43.8899 65.0171 44.0999C64.7399 44.2763 64.4963 44.5031 64.2443 44.7131C63.9335 44.9735 63.6311 45.2171 63.3959 45.5531C63.1523 45.8891 62.9759 46.2755 62.9339 46.6871C62.9255 46.8215 62.8331 46.9391 62.6903 46.9307C62.5727 46.9307 62.4299 46.8215 62.4467 46.6871C62.4971 46.2083 62.6651 45.7547 62.9423 45.3515C63.2027 44.9567 63.5387 44.6711 63.8999 44.3687C64.1939 44.1251 64.4711 43.8479 64.8071 43.6463C65.1851 43.4195 65.6219 43.3019 66.0671 43.3019C66.3863 43.2935 66.3863 43.7891 66.0671 43.7891Z" fill="#732921"/>
<path d="M71.9466 73.1723C72.8706 74.1383 74.0382 75.8603 72.8874 76.3307C72.5346 76.4735 71.451 76.2887 71.7702 76.5827C73.005 77.7251 72.3666 78.7331 72.0894 80.5055C71.8626 81.9671 70.9806 81.9251 70.8714 82.2107C70.6866 82.7231 70.7286 83.1599 70.7202 83.2607C70.6362 84.7391 68.9814 92.9627 68.0574 96.1211C66.3606 101.925 63.2778 107.965 53.2734 104.865C53.2678 104.865 53.265 104.863 53.265 104.857C51.3666 103.992 50.0394 103.79 48.8802 102.337C47.3766 100.455 47.3346 99.7247 47.5446 97.3307C47.8554 93.6095 48.9642 90.0059 50.2914 86.5115C51.1146 84.3443 51.0558 83.7227 52.047 81.6227C52.047 81.6227 52.047 81.6199 52.047 81.6143C53.1054 79.7999 54.609 77.2547 55.1802 75.8519C55.4826 75.1127 55.7766 74.4407 55.6002 73.6763C55.5162 73.3319 55.2978 73.0463 55.2222 72.7103C55.0878 72.1055 55.4322 71.5091 55.8438 71.0471C56.2554 70.5935 57.2214 70.3247 57.5238 69.7955C57.843 69.2075 57.8178 68.4935 58.1454 67.8971C58.3638 67.4939 58.9854 67.4519 59.523 67.5611C59.6322 67.8299 59.7498 68.1323 59.6994 68.2247C59.5734 68.4851 59.5902 68.7959 59.733 69.1487C60.3126 70.6355 63.0594 72.8111 66.5622 74.2307C67.671 74.6759 68.889 75.2051 70.107 75.2555C70.2302 75.2611 70.3506 75.2611 70.4682 75.2555C70.8714 75.2303 71.7702 75.0875 72.0558 74.4743C72.2994 73.9367 71.9718 73.2311 71.9466 73.1723Z" fill="#7872C4"/>
<path d="M55.7649 73.5002C56.5377 74.399 57.3441 75.2642 58.2009 76.079C61.2249 78.9686 65.0553 81.5222 69.3645 81.7154C69.6753 81.7238 69.6753 82.2194 69.3645 82.2026C68.1465 82.1522 66.9453 81.917 65.7945 81.5306C63.7113 80.8334 61.8129 79.691 60.0825 78.3554C58.3689 77.0282 56.8233 75.491 55.4205 73.8446C55.2189 73.6094 55.5633 73.2566 55.7649 73.5002Z" fill="#3D3B89"/>
<path d="M57.4639 70.2914C57.6067 70.6694 57.8755 71.0138 58.1191 71.3414C58.4047 71.7278 58.7239 72.089 59.0431 72.4502C60.1519 73.6934 61.4707 74.693 62.8735 75.5834C63.6295 76.0706 64.4023 76.5242 65.2003 76.9358C65.8303 77.2634 66.4687 77.5742 67.1407 77.801C67.4431 77.9018 67.3087 78.3722 67.0147 78.2714C66.2167 78.0026 65.4523 77.6246 64.7047 77.2298C63.0667 76.3562 61.4791 75.3482 60.0595 74.147C59.4631 73.6346 58.9255 73.0634 58.4047 72.467C57.8755 71.8538 57.2875 71.1902 56.9851 70.4174C56.8759 70.1234 57.3463 69.9974 57.4639 70.2914Z" fill="#3D3B89"/>
<path d="M59.7089 67.8467C59.4065 67.7879 59.1041 67.7795 58.8185 67.9391C58.5245 68.1071 58.3145 68.3927 58.0877 68.6363C57.9029 68.8295 57.7265 69.0227 57.6089 69.2579C57.4577 69.5771 57.4409 69.9383 57.4661 70.2827C57.4913 70.5683 57.3989 70.8203 57.1049 70.9127C56.8613 70.9967 56.6093 70.9799 56.3657 71.0807C55.7693 71.3159 55.2737 72.0047 55.3577 72.6683C55.3997 73.0547 55.6601 73.3151 55.8617 73.6259C56.0549 73.9115 56.0633 74.2727 55.9793 74.6003C55.8953 74.9615 55.7105 75.2891 55.5593 75.6167C55.4249 75.8939 55.3157 76.1795 55.1897 76.4567C54.5849 77.7419 53.8709 78.9767 53.1569 80.2031C52.7929 80.8303 52.4261 81.4603 52.0565 82.0931C51.7457 82.6223 51.4013 83.1515 51.1577 83.7143C51.1073 83.8403 50.9309 83.8655 50.8217 83.8067C50.7041 83.7311 50.6873 83.5883 50.7377 83.4707C51.0233 82.7819 51.4601 82.1435 51.8297 81.4967C52.2497 80.7827 52.6697 80.0687 53.0813 79.3547C53.7701 78.1451 54.4505 76.9439 54.9965 75.6671C55.1561 75.3059 55.3577 74.9699 55.4753 74.5919C55.5257 74.4239 55.5677 74.2475 55.5257 74.0711C55.4921 73.8947 55.3577 73.7603 55.2485 73.6175C55.0385 73.3235 54.8873 72.9959 54.8621 72.6263C54.8369 72.2819 54.9461 71.9459 55.1057 71.6351C55.4081 71.0135 55.9961 70.5683 56.6933 70.4843C56.7521 70.4759 56.9453 70.4843 56.9789 70.4423C57.0293 70.3751 56.9621 70.1651 56.9621 70.0811C56.9537 69.7619 57.0041 69.4427 57.1301 69.1487C57.3317 68.6699 57.7265 68.2835 58.0793 67.9139C58.3229 67.6619 58.6169 67.4435 58.9613 67.3595C59.2553 67.2923 59.5493 67.3175 59.8433 67.3763C60.1541 67.4351 60.0197 67.9139 59.7089 67.8467Z" fill="#3D3B89"/>
<path d="M72.6641 73.7941C72.9917 74.0713 73.3109 74.3905 73.5125 74.7769C73.7729 75.2977 73.7393 75.8689 73.3277 76.2889C73.1093 76.5073 72.8321 76.6165 72.7229 76.9273C72.6389 77.1625 72.7313 77.2549 72.8573 77.4313C72.9917 77.6077 73.1009 77.8009 73.1681 78.0109C73.4789 78.8929 72.9413 79.8085 72.5717 80.5813C72.3701 81.0097 72.1601 81.4465 71.8913 81.8329C71.7233 82.0765 71.5049 82.3453 71.2109 82.4377C71.0849 82.4797 70.9337 82.4881 70.7993 82.4461C70.7741 82.4293 70.7993 82.4377 70.7993 82.4377C70.7993 82.4377 70.7741 82.4713 70.7489 82.5217C70.7573 82.5049 70.7237 82.5973 70.7153 82.6141C70.6817 82.7317 70.6565 82.8577 70.6397 82.9753C70.4969 83.8405 70.4717 84.7141 70.3541 85.5793C70.0853 87.4525 69.7913 89.3173 69.4469 91.1653C68.8925 94.1473 68.2121 97.1713 66.9269 99.9265C65.9357 102.068 64.4405 104.059 62.2649 105.092C61.0385 105.68 59.6861 105.932 58.3337 105.949C57.5105 105.958 56.6957 105.882 55.8893 105.748C55.4413 105.675 54.9989 105.585 54.5621 105.479C54.3157 105.417 54.0721 105.353 53.8313 105.286C53.7025 105.246 53.5765 105.21 53.4533 105.176C53.3525 105.143 53.2265 105.126 53.1425 105.076C52.8821 104.899 53.1257 104.471 53.3945 104.647C53.4701 104.698 53.6297 104.714 53.7221 104.74C53.8341 104.773 53.9461 104.807 54.0581 104.84C54.2877 104.902 54.5201 104.961 54.7553 105.017C57.4601 105.664 60.4673 105.748 62.8865 104.185C64.8185 102.942 66.0533 100.884 66.8933 98.7925C68.0777 95.8609 68.6993 92.7193 69.2285 89.6113C69.5477 87.7969 69.8501 85.9741 70.0181 84.1429C70.0601 83.7565 70.0937 83.3617 70.1525 82.9753C70.1861 82.7317 70.2197 82.4713 70.3373 82.2445C70.4297 82.0765 70.5893 81.9421 70.7993 81.9505C70.9001 81.9505 70.9757 81.9925 71.0513 81.9757C71.1521 81.9505 71.2277 81.8665 71.2949 81.7993C71.5637 81.5137 71.7485 81.1357 71.9249 80.7913C72.1517 80.3461 72.3785 79.8925 72.5633 79.4305C72.7145 79.0609 72.8321 78.6493 72.7313 78.2545C72.6641 78.0109 72.5297 77.8093 72.3785 77.6161C72.2609 77.4649 72.1937 77.3137 72.1937 77.1205C72.1937 76.7425 72.4289 76.3645 72.7229 76.1461C72.8909 76.0201 73.0505 75.9109 73.1429 75.7177C73.4201 75.1213 72.7145 74.4829 72.3197 74.1385C72.0761 73.9369 72.4289 73.5925 72.6641 73.7941Z" fill="#3D3B89"/>
<path d="M83.9688 49.5935C84.1367 49.5431 85.0439 51.1223 85.3548 51.1895C86.8584 51.5171 89.2607 52.0379 89.8488 52.3739C90.6971 52.8611 96.8963 54.1295 97.3667 67.5107C97.7615 78.6239 99.5927 110.813 98.2067 125.697C97.7112 131.031 91.218 136.046 89.6724 135.761C89.4792 135.719 89.3616 135.517 89.4204 135.324L91.134 129.377C91.5624 127.016 91.9488 125.479 92.1167 122.102C92.6207 111.644 89.2103 97.2383 90.0671 83.2691C90.6495 73.8219 88.6616 62.9663 84.1032 50.7023C84.064 50.5399 84.0192 50.1703 83.9688 49.5935Z" fill="#7872C4"/>
<path d="M85.6144 51.4917C87.2272 52.9953 88.8988 54.4737 90.4444 56.0529C90.8056 56.4309 91.192 56.8173 91.4524 57.2793C91.612 57.5565 91.7128 57.9093 91.5196 58.2033C91.3684 58.4217 91.1164 58.4973 90.8728 58.5561C90.4864 58.6485 90.1 58.7409 89.7388 58.9257C89.3272 59.1273 88.9156 59.4045 88.5796 59.7237C88.2436 60.0513 88.084 60.4377 88.0756 60.8913C88.0672 61.8237 88.504 62.7309 88.8736 63.5625C89.1676 64.2345 89.4364 64.9065 89.6296 65.6121C90.1504 67.5189 90.2176 69.5265 90.0076 71.4921C89.974 71.8029 89.4868 71.8029 89.5204 71.4921C89.7388 69.3837 89.6548 67.2333 88.9912 65.2005C88.756 64.4613 88.4116 63.7557 88.1176 63.0333C87.7816 62.2269 87.454 61.2945 87.6388 60.4041C87.832 59.4885 88.756 58.8501 89.554 58.4721C89.9152 58.3041 90.2848 58.1865 90.6712 58.1025C90.7804 58.0773 90.94 58.0353 91.0072 58.0017C91.0576 57.9849 91.066 57.9765 91.0828 57.9597C91.0828 57.9597 91.1416 57.8589 91.1164 57.9261C91.1248 57.9093 91.1416 57.8253 91.1332 57.8673C91.1248 57.9177 91.1332 57.8337 91.1332 57.8169C91.1332 57.7329 91.15 57.8421 91.1332 57.7749C91.122 57.7525 91.1136 57.7273 91.108 57.6993C91.0828 57.6237 91.0828 57.6237 91.024 57.5229C90.9792 57.4445 90.9316 57.3689 90.8812 57.2961C90.5368 56.8173 90.0748 56.3721 89.6464 55.9521C88.2184 54.5493 86.7316 53.2053 85.2616 51.8361C85.0348 51.6261 85.3792 51.2733 85.6144 51.4917Z" fill="#3D3B89"/>
<path d="M97.1436 72.3825C97.236 74.8185 97.4124 77.2461 97.6056 79.6653C97.7736 81.8073 97.9584 83.9493 98.1096 86.0913C98.244 87.9393 98.3448 89.7789 98.4876 91.6269C98.7648 95.1885 99 98.7501 98.9664 102.329C98.9664 102.648 98.4708 102.648 98.4792 102.329C98.496 100.203 98.4372 98.0697 98.3112 95.9361C98.2104 94.3065 98.076 92.6685 97.95 91.0389C97.8072 89.1321 97.7064 87.2337 97.5636 85.3269C97.2444 81.0177 96.816 76.7085 96.6564 72.3825C96.648 72.0717 97.1352 72.0717 97.1436 72.3825Z" fill="#3D3B89"/>
<path d="M60.8981 42.8822C60.6461 42.5798 61.1333 42.2102 61.4273 42.3194C61.5449 42.3614 61.6037 42.4454 61.6037 42.5378C61.6037 42.9578 61.0997 43.1174 60.8981 42.8822Z" fill="#2E122C"/>
</svg>
