<svg width="150" height="150" viewBox="0 0 150 150" fill="none" xmlns="http://www.w3.org/2000/svg">
<path d="M14.6085 91.0052C16.4085 90.4152 17.7385 92.1952 18.5985 96.3452C19.4585 100.505 19.9535 103.735 20.0835 106.035C20.3735 106.935 20.8485 107.205 21.5085 106.845C22.4985 106.305 24.1485 104.475 25.3935 105.225C26.6685 106.005 26.6985 107.685 25.8135 109.89C24.9285 112.095 23.1585 116.985 23.0085 117.435C22.8585 117.87 22.9335 118.59 23.6685 118.335C24.4035 118.08 29.0385 115.095 30.3285 117.375C31.6035 119.67 28.1385 125.4 27.7635 126.03C27.3885 126.675 27.4485 127.005 27.7335 127.26C28.0035 127.515 29.4735 126.36 30.8235 125.565C32.1735 124.77 33.8835 124.08 34.5285 125.46C35.1585 126.84 34.1835 131.595 27.6585 137.97L24.4485 140.73L20.4285 139.38C11.9685 135.975 9.25347 131.955 9.31347 130.44C9.37347 128.91 11.2185 128.895 12.7635 129.12C14.3235 129.345 16.1235 129.84 16.2735 129.495C16.4385 129.15 16.3635 128.835 15.7785 128.385C15.1935 127.935 9.79347 123.96 10.1085 121.365C10.4235 118.755 15.8535 119.745 16.6335 119.7C17.4135 119.655 17.2035 118.965 16.8885 118.62C16.5735 118.275 13.0785 114.405 11.4135 112.71C9.76347 111.015 9.14847 109.455 10.0335 108.24C10.8885 107.085 13.1235 108.135 14.2485 108.255C14.9985 108.335 15.3285 107.905 15.2385 106.965C14.4885 104.795 13.7185 101.625 12.9285 97.4552C12.1385 93.2752 12.7135 91.1202 14.6535 90.9902" fill="#F5F5F5"/>
<path d="M24.3763 139.86C23.4612 135.27 22.1713 128.94 20.7463 121.95C19.3063 114.96 18.0313 108.615 17.1463 104.025C16.7113 101.73 16.3513 99.87 16.1263 98.58C16.0063 97.95 15.9162 97.455 15.8562 97.11C15.8262 96.94 15.8063 96.81 15.7963 96.72C15.7863 96.66 15.7812 96.615 15.7812 96.585C15.7812 96.615 15.7913 96.66 15.8113 96.72C15.8313 96.81 15.8563 96.935 15.8863 97.095C15.9613 97.44 16.0513 97.935 16.1863 98.58C16.4263 99.87 16.8013 101.715 17.2513 104.01C18.1663 108.6 19.4562 114.93 20.8812 121.92C22.3212 128.91 23.5962 135.24 24.4812 139.83" fill="#E0E0E0"/>
<path d="M23.0416 108.165C22.9316 108.365 22.7966 108.605 22.6366 108.885C22.2916 109.53 21.8266 110.37 21.3166 111.285C20.8066 112.23 20.3416 113.085 19.9816 113.685C19.8016 113.985 19.6516 114.24 19.5466 114.39C19.4266 114.555 19.3666 114.645 19.3516 114.645C19.3516 114.645 19.3966 114.54 19.4866 114.375C19.5966 114.175 19.7316 113.93 19.8916 113.64C20.2366 112.995 20.6866 112.155 21.1966 111.225C21.7066 110.28 22.1866 109.44 22.5466 108.84C22.7416 108.54 22.8916 108.3 22.9966 108.135C23.1016 107.97 23.1616 107.88 23.1766 107.88C23.1766 107.895 23.1316 107.985 23.0416 108.165Z" fill="#E0E0E0"/>
<path d="M15.0998 112.35C12.9848 111.06 11.2898 109.995 11.3048 109.965C11.3348 109.92 13.0598 110.94 15.1748 112.23C17.2748 113.505 18.9848 114.585 18.9548 114.615C18.9398 114.645 17.1998 113.64 15.0998 112.35Z" fill="#E0E0E0"/>
<path d="M21.3309 125.205C21.1359 125.175 20.8509 125.115 20.5059 125.025C19.8009 124.86 18.8409 124.62 17.8059 124.29C16.7559 123.96 15.8259 123.615 15.1509 123.345C14.8209 123.21 14.5509 123.105 14.3709 123.015C14.1909 122.94 14.0859 122.88 14.0859 122.88C14.1009 122.865 14.2059 122.895 14.3859 122.97C14.6059 123.05 14.8759 123.145 15.1959 123.255C15.8709 123.495 16.8009 123.825 17.8359 124.14C18.8859 124.47 19.8459 124.74 20.5359 124.935C20.8559 125.015 21.1259 125.085 21.3459 125.145C21.5409 125.205 21.6459 125.235 21.6459 125.25C21.6459 125.265 21.5409 125.25 21.3309 125.205Z" fill="#E0E0E0"/>
<path d="M26.6116 120.225C26.4916 120.36 26.2966 120.555 26.0716 120.795C25.6066 121.275 24.9616 121.92 24.2566 122.64C23.5366 123.345 22.8766 123.99 22.3966 124.44C22.1566 124.665 21.9616 124.86 21.8266 124.98C21.6916 125.1 21.6016 125.175 21.6016 125.16C21.6016 125.16 21.6616 125.07 21.7816 124.935C21.9166 124.8 22.0966 124.605 22.3216 124.365C22.7866 123.9 23.4316 123.24 24.1516 122.535C24.8716 121.815 25.5166 121.185 25.9966 120.72C26.2366 120.495 26.4316 120.315 26.5666 120.18C26.7166 120.06 26.7916 120 26.7916 120C26.8066 120 26.7316 120.09 26.6116 120.225Z" fill="#E0E0E0"/>
<path d="M30.1222 129.36C29.9322 129.56 29.6972 129.8 29.4172 130.08C28.8172 130.695 27.9772 131.52 27.0472 132.42C26.1172 133.32 25.2772 134.13 24.6622 134.715C24.3622 134.995 24.1172 135.225 23.9272 135.405C23.7472 135.57 23.6422 135.645 23.6422 135.645C23.6272 135.63 23.7172 135.54 23.8822 135.36C24.0722 135.17 24.3072 134.93 24.5872 134.64C25.1872 134.04 26.0272 133.215 26.9422 132.315C27.8722 131.415 28.7272 130.59 29.3422 130.005C29.6322 129.735 29.8772 129.51 30.0772 129.33C30.2572 129.165 30.3472 129.075 30.3622 129.09C30.3622 129.09 30.2722 129.195 30.1222 129.36Z" fill="#E0E0E0"/>
<path d="M23.37 135.36C23.115 135.3 22.755 135.21 22.32 135.09C21.45 134.835 20.235 134.475 18.93 134.025C17.61 133.575 16.44 133.125 15.6 132.765C15.18 132.6 14.835 132.45 14.61 132.345C14.37 132.24 14.25 132.18 14.25 132.165C14.25 132.165 14.385 132.21 14.625 132.3C14.895 132.4 15.23 132.525 15.63 132.675C16.485 133.005 17.655 133.44 18.975 133.89C20.28 134.34 21.48 134.715 22.35 134.985C22.77 135.115 23.115 135.22 23.385 135.3C23.625 135.39 23.76 135.435 23.745 135.435C23.745 135.45 23.61 135.42 23.37 135.36Z" fill="#E0E0E0"/>
<path d="M137.509 59.8047H109.414V19.0947H137.509V59.8047Z" fill="#E0E0E0"/>
<path d="M136.095 59.8052H108V19.0952H136.095V59.8052Z" fill="#F5F5F5"/>
<path d="M132.605 55.3949H111.5V23.5049H132.605V55.3949Z" fill="white"/>
<path d="M132.602 55.3947C132.602 55.3647 132.602 55.3147 132.602 55.2447C132.602 55.1347 132.602 54.9847 132.602 54.7947C132.587 54.3897 132.587 53.8047 132.587 53.0397C132.587 51.5097 132.572 49.2897 132.572 46.4697C132.557 40.8447 132.542 32.8797 132.527 23.5047L132.602 23.5797C126.152 23.5797 119.012 23.5797 111.497 23.5797L111.572 23.5047C111.572 35.5347 111.557 46.6347 111.557 55.3947L111.497 55.3347C117.917 55.3497 123.197 55.3647 126.857 55.3647C128.687 55.3797 130.127 55.3797 131.102 55.3797C131.592 55.3897 131.962 55.3947 132.212 55.3947C132.382 55.3947 132.512 55.3947 132.602 55.3947C132.522 55.3947 132.397 55.3997 132.227 55.4097C131.977 55.4097 131.612 55.4097 131.132 55.4097C130.157 55.4097 128.732 55.4247 126.902 55.4247C123.227 55.4397 117.947 55.4397 111.497 55.4547H111.437V55.3947C111.437 46.6347 111.422 35.5347 111.422 23.5047V23.4297H111.497C119.012 23.4297 126.152 23.4297 132.602 23.4297H132.677V23.5047C132.662 32.8947 132.647 40.8747 132.647 46.5147C132.632 49.3197 132.632 51.5397 132.617 53.0697C132.617 53.8197 132.617 54.4047 132.617 54.8097C132.617 54.9997 132.612 55.1447 132.602 55.2447C132.602 55.3147 132.602 55.3647 132.602 55.3947Z" fill="#E0E0E0"/>
<path d="M136.17 19.0949C136.185 19.1099 135.99 19.3799 135.675 19.8149C135.345 20.2649 134.88 20.8499 134.355 21.4949C133.83 22.1399 133.335 22.7099 132.96 23.0999C132.6 23.5049 132.36 23.7449 132.345 23.7449C132.33 23.7299 132.54 23.4599 132.885 23.0399C133.26 22.5749 133.725 22.0199 134.235 21.3899C134.745 20.7749 135.21 20.2049 135.585 19.7549C135.93 19.3349 136.155 19.0799 136.17 19.0949Z" fill="#E0E0E0"/>
<path d="M132.703 55.29C133.753 56.955 134.998 58.515 136.393 59.895L132.703 55.29Z" fill="white"/>
<path d="M136.394 59.895C136.379 59.91 136.124 59.7 135.749 59.31C135.374 58.935 134.864 58.395 134.354 57.75C133.844 57.105 133.424 56.505 133.139 56.055C132.854 55.59 132.689 55.305 132.704 55.29C132.734 55.29 132.914 55.56 133.229 55.995C133.529 56.43 133.979 57.015 134.474 57.66C134.984 58.29 135.479 58.845 135.824 59.235C136.184 59.64 136.409 59.88 136.394 59.895Z" fill="#E0E0E0"/>
<path d="M108 59.7755C109.23 58.2655 110.455 56.7505 111.675 55.2305L108 59.7755Z" fill="white"/>
<path d="M111.676 55.2301C111.706 55.2601 110.911 56.2951 109.906 57.5551C108.886 58.8001 108.031 59.8051 108.001 59.7751C107.971 59.7451 108.766 58.7101 109.786 57.4501C110.791 56.2051 111.646 55.2151 111.676 55.2301Z" fill="#E0E0E0"/>
<path d="M108.001 19.0949C108.031 19.0649 108.841 20.0249 109.786 21.2249C110.746 22.4399 111.496 23.4299 111.451 23.4599C111.421 23.4899 110.626 22.5299 109.666 21.3299C108.721 20.1149 107.971 19.1249 108.001 19.0949Z" fill="#E0E0E0"/>
<path d="M126.034 50.0549H118.969V29.9849H126.034V50.0549Z" fill="#E0E0E0"/>
<path d="M49.3203 12.585V35.025H17.1003L15.9453 12.75L49.3203 12.585Z" fill="#E0E0E0"/>
<path d="M48.1653 12.75V34.98H15.9453V12.75H48.1653Z" fill="white"/>
<path fill-rule="evenodd" clip-rule="evenodd" d="M48.3169 35.1301H15.7969V12.6001H48.3169V35.1301ZM16.0969 34.8151H48.0169V12.9001H16.0969V34.8151Z" fill="#E0E0E0"/>
<path d="M44.6753 15.5103V32.2203H19.4453V15.5103H44.6753Z" fill="white"/>
<path d="M44.6716 15.5101C44.6516 15.5101 44.6116 15.5101 44.5516 15.5101C44.4716 15.5101 44.3516 15.5101 44.1916 15.5101C43.8716 15.5201 43.4116 15.5251 42.8116 15.5251C41.5966 15.5251 39.8266 15.5401 37.6066 15.5401C33.1516 15.5551 26.8516 15.5701 19.4416 15.5851L19.5166 15.5101C19.5166 20.6101 19.5166 26.2651 19.5166 32.2051V32.2201L19.4416 32.1301C28.9516 32.1451 37.7416 32.1451 44.6716 32.1451L44.6116 32.2201C44.6266 27.1351 44.6416 22.9651 44.6416 20.0551C44.6566 18.6151 44.6566 17.4751 44.6566 16.6951C44.6666 16.3151 44.6716 16.0201 44.6716 15.8101C44.6716 15.6801 44.6716 15.5801 44.6716 15.5101C44.6816 15.5701 44.6866 15.6651 44.6866 15.7951C44.6866 16.0051 44.6866 16.3001 44.6866 16.6801C44.7016 17.4451 44.7016 18.5701 44.7016 20.0251C44.7166 22.9351 44.7316 27.1201 44.7466 32.2201V32.2801H44.6716C37.7416 32.2801 28.9516 32.2801 19.4416 32.2951H19.3516V32.2201V32.2051C19.3666 26.2651 19.3666 20.6101 19.3666 15.5101V15.4351H19.4416C26.8816 15.4501 33.1966 15.4651 37.6516 15.4651C39.8716 15.4801 41.6266 15.4801 42.8416 15.4951C43.4416 15.4951 43.8966 15.4951 44.2066 15.4951C44.3566 15.5051 44.4766 15.5101 44.5666 15.5101C44.6166 15.5101 44.6516 15.5101 44.6716 15.5101Z" fill="#E0E0E0"/>
<path d="M15.9461 12.6898C15.9611 12.6598 16.1711 12.8098 16.5011 13.0498C16.8311 13.2748 17.2811 13.6198 17.7611 14.0098C18.2561 14.3998 18.6761 14.7598 18.9761 15.0298C19.2761 15.3148 19.4562 15.4948 19.4412 15.5098C19.4112 15.5398 18.6311 14.9098 17.6711 14.1298C16.6961 13.3648 15.9161 12.7198 15.9461 12.6898Z" fill="#E0E0E0"/>
<path d="M48.1671 12.7501C48.1971 12.7801 47.4321 13.4251 46.4721 14.1901C45.5121 14.9551 44.7021 15.5401 44.6721 15.5101C44.6571 15.4801 45.4071 14.8351 46.3671 14.0701C47.3421 13.3051 48.1371 12.7201 48.1671 12.7501Z" fill="#E0E0E0"/>
<path d="M48.1397 34.9803C46.9497 34.0103 45.7547 33.0403 44.5547 32.0703L48.1397 34.9803Z" fill="white"/>
<path d="M44.5555 32.0699C44.5855 32.0399 45.4105 32.6549 46.4005 33.4649C47.3905 34.2599 48.1705 34.9499 48.1405 34.9799C48.1105 35.0099 47.2855 34.3949 46.2955 33.5849C45.3055 32.7749 44.5255 32.0999 44.5555 32.0699Z" fill="#E0E0E0"/>
<path d="M15.9462 34.98C15.9162 34.935 16.6662 34.305 17.6262 33.54C18.5862 32.79 19.3812 32.205 19.3962 32.25C19.4262 32.28 18.6762 32.925 17.7312 33.675C16.7712 34.425 15.9762 35.01 15.9462 34.98Z" fill="#E0E0E0"/>
<path d="M40.4397 20.7148V26.3098H24.5547V20.7148H40.4397Z" fill="#E0E0E0"/>
<path d="M124.706 87.075C120.176 91.365 113.021 91.17 108.731 86.625C104.426 82.095 104.606 74.925 109.136 70.635C113.666 66.345 120.821 66.555 125.126 71.085C129.416 75.63 129.236 82.785 124.706 87.075Z" fill="#EBEBEB"/>
<path d="M122.863 85.1249C119.413 88.3949 113.953 88.2299 110.683 84.7799C107.398 81.3149 107.533 75.8699 110.983 72.5999C114.433 69.3299 119.893 69.4799 123.178 72.9299C126.448 76.3949 126.313 81.8549 122.863 85.1249Z" fill="#F5F5F5"/>
<path d="M123.055 84.93C123.01 84.9 123.265 84.6 123.64 84.045C124.03 83.49 124.54 82.65 124.885 81.51C125.05 80.94 125.185 80.295 125.23 79.605C125.275 78.9 125.245 78.165 125.095 77.385C125.02 77.01 124.93 76.62 124.795 76.23C124.66 75.84 124.495 75.465 124.3 75.09C124.105 74.715 123.88 74.34 123.61 73.98C123.35 73.63 123.065 73.295 122.755 72.975C122.425 72.665 122.085 72.38 121.735 72.12C121.375 71.865 121 71.64 120.625 71.445C120.25 71.25 119.86 71.1 119.47 70.965C119.095 70.83 118.705 70.74 118.315 70.665C117.55 70.53 116.8 70.5 116.095 70.56C115.405 70.605 114.76 70.74 114.19 70.92C113.05 71.28 112.225 71.805 111.67 72.18C111.115 72.57 110.83 72.825 110.8 72.78C110.77 72.765 110.995 72.45 111.505 71.985C112.03 71.52 112.855 70.92 114.04 70.485C114.64 70.26 115.315 70.095 116.05 70.005C116.785 69.93 117.58 69.93 118.42 70.065C118.825 70.14 119.245 70.23 119.665 70.365C120.085 70.5 120.505 70.665 120.91 70.875C121.33 71.07 121.735 71.31 122.11 71.58C122.5 71.86 122.87 72.17 123.22 72.51C123.56 72.85 123.87 73.215 124.15 73.605C124.435 73.98 124.66 74.385 124.87 74.79C125.08 75.195 125.245 75.615 125.395 76.035C125.53 76.455 125.635 76.875 125.695 77.28C125.845 78.105 125.845 78.915 125.785 79.65C125.695 80.385 125.53 81.06 125.32 81.66C124.9 82.845 124.3 83.685 123.85 84.21C123.385 84.735 123.085 84.96 123.055 84.93Z" fill="#E0E0E0"/>
<path fill-rule="evenodd" clip-rule="evenodd" d="M113.863 83.0998L112.783 84.1498L111.853 83.1898L112.888 82.1698C112.033 81.1648 111.433 79.9648 111.328 79.0348L113.023 78.4198C113.128 79.2448 113.548 80.1898 114.148 80.9398L115.753 79.3798C114.973 78.0598 114.163 76.5298 115.543 75.1798C116.563 74.1898 118.153 74.0848 119.803 75.4198L120.883 74.3848L121.813 75.3448L120.763 76.3648C121.408 77.1448 121.903 78.0298 122.083 78.8848L120.433 79.5598C120.238 78.7948 119.908 78.1348 119.503 77.6098L117.868 79.1998C118.663 80.5048 119.443 82.0198 118.093 83.3398C117.088 84.3148 115.513 84.4348 113.863 83.0998ZM117.163 77.9998L118.528 76.6648C117.928 76.2748 117.448 76.3498 117.133 76.6498C116.788 76.9798 116.893 77.4448 117.163 77.9998ZM116.473 81.9148C116.803 81.5848 116.713 81.1348 116.458 80.5798L115.123 81.8698C115.708 82.2448 116.158 82.2148 116.473 81.9148Z" fill="#E0E0E0"/>
<path d="M80.3534 100.5C82.4984 106.68 79.2134 113.445 73.0184 115.59C66.8084 117.735 60.0434 114.465 57.8984 108.285C55.7534 102.09 59.0384 95.325 65.2484 93.18C71.4434 91.035 78.2234 94.305 80.3534 100.5Z" fill="#EBEBEB"/>
<path d="M77.6854 101.415C79.3204 106.14 76.8154 111.285 72.0904 112.92C67.3654 114.57 62.2054 112.065 60.5704 107.355C58.9354 102.63 61.4404 97.4851 66.1804 95.8501C70.9054 94.2151 76.0504 96.7051 77.6854 101.415Z" fill="#F5F5F5"/>
<path d="M77.5932 101.16C77.5482 101.175 77.3682 100.815 77.0082 100.2C76.6482 99.6003 76.0632 98.7453 75.1182 97.9203C74.6382 97.5153 74.0832 97.1103 73.4382 96.7653C72.7932 96.4203 72.0732 96.1203 71.2632 95.9253C70.8732 95.8353 70.4532 95.7603 70.0332 95.7303C69.5982 95.6853 69.1632 95.6703 68.7132 95.7003C68.2782 95.7303 67.8282 95.7753 67.3782 95.8803C66.9182 95.9703 66.4682 96.1003 66.0282 96.2703C65.5882 96.4403 65.1682 96.6403 64.7682 96.8703C64.3632 97.0953 63.9882 97.3653 63.6432 97.6353C63.2982 97.9053 62.9832 98.2203 62.6832 98.5203C62.3982 98.8353 62.1282 99.1653 61.9032 99.5103C61.4232 100.185 61.0782 100.89 60.8382 101.58C60.5832 102.27 60.4332 102.945 60.3582 103.56C60.2082 104.805 60.3432 105.825 60.4632 106.515C60.5982 107.22 60.7182 107.595 60.6732 107.625C60.6282 107.64 60.4332 107.28 60.2082 106.59C59.9982 105.9 59.7732 104.835 59.8782 103.515C59.9232 102.855 60.0432 102.135 60.2832 101.385C60.5382 100.65 60.8832 99.8853 61.3632 99.1503C61.6182 98.7903 61.8882 98.4303 62.2032 98.0853C62.5032 97.7403 62.8482 97.4103 63.2232 97.1103C63.5982 96.8103 63.9882 96.5253 64.4232 96.2703C64.8532 96.0203 65.3082 95.8053 65.7882 95.6253C66.2582 95.4453 66.7382 95.3053 67.2282 95.2053C67.7232 95.1003 68.2032 95.0403 68.6832 95.0253C69.1632 94.9953 69.6432 95.0103 70.0932 95.0703C70.5582 95.1153 70.9932 95.2053 71.4282 95.3103C72.2832 95.5353 73.0482 95.8653 73.7232 96.2553C74.3982 96.6603 74.9682 97.1103 75.4482 97.5603C76.3932 98.4753 76.9482 99.4203 77.2482 100.08C77.5482 100.74 77.6382 101.145 77.5932 101.16Z" fill="#E0E0E0"/>
<path fill-rule="evenodd" clip-rule="evenodd" d="M71.8659 109.155L72.4059 110.64L71.0859 111.12L70.5609 109.68C69.2259 110.07 67.8159 110.115 66.8709 109.815L67.0209 107.94C67.8609 108.18 68.9409 108.195 69.9309 107.94L69.1209 105.735C67.5309 105.9 65.7009 106.005 65.0259 104.115C64.5159 102.72 65.1009 101.145 67.0959 100.14L66.5709 98.6699L67.8909 98.1899L68.4159 99.6299C69.4359 99.3599 70.5009 99.2699 71.4009 99.4649L71.3259 101.34C70.5159 101.205 69.7359 101.22 69.0459 101.385L69.8709 103.635C71.4609 103.44 73.2609 103.35 73.9359 105.21C74.4309 106.59 73.8609 108.15 71.8659 109.155ZM68.4159 103.785L67.7409 101.91C67.0959 102.315 66.9609 102.795 67.1109 103.245C67.2759 103.695 67.7709 103.815 68.4159 103.785ZM71.8509 106.155C71.6859 105.69 71.2209 105.57 70.5759 105.585L71.2359 107.415C71.8509 107.025 72.0159 106.575 71.8509 106.155Z" fill="#E0E0E0"/>
<path d="M35.2006 71.1448C35.2756 76.6348 30.8656 81.1498 25.3606 81.2248C19.8406 81.2848 15.3256 76.8898 15.2506 71.3998C15.1906 65.8948 19.6006 61.3798 25.1056 61.3198C30.6106 61.2448 35.1406 65.6398 35.2006 71.1448Z" fill="#EBEBEB"/>
<path d="M32.8276 71.1748C32.8876 75.3598 29.5126 78.7948 25.3276 78.8548C21.1276 78.8998 17.6776 75.5548 17.6176 71.3698C17.5726 67.1698 20.9326 63.7348 25.1326 63.6898C29.3326 63.6298 32.7826 66.9898 32.8276 71.1748Z" fill="#F5F5F5"/>
<path d="M32.8338 70.9346C32.7888 70.9346 32.7438 70.6046 32.6238 70.0196C32.4888 69.4496 32.2488 68.6096 31.7088 67.7096C31.4388 67.2446 31.1088 66.7796 30.6888 66.3296C30.2688 65.8946 29.7588 65.4596 29.1738 65.0996C28.8888 64.9196 28.5738 64.7546 28.2438 64.6046C27.9138 64.4546 27.5688 64.3346 27.2088 64.2446C26.8488 64.1396 26.4738 64.0646 26.0838 64.0196C25.7038 63.9796 25.3138 63.9646 24.9138 63.9746C24.5138 63.9946 24.1238 64.0446 23.7438 64.1246C23.3688 64.1996 23.0088 64.3046 22.6488 64.4396C22.3038 64.5596 21.9738 64.7246 21.6588 64.8896C21.3288 65.0696 21.0438 65.2646 20.7588 65.4746C20.2188 65.8796 19.7538 66.3446 19.3638 66.8246C18.9888 67.3196 18.6888 67.8146 18.4638 68.2796C18.0138 69.2396 17.8488 70.0946 17.7738 70.6796C17.6988 71.2646 17.6838 71.5946 17.6388 71.5946C17.6088 71.6096 17.5338 71.2646 17.5488 70.6496C17.5638 70.0496 17.6688 69.1496 18.0888 68.1146C18.2988 67.6046 18.5988 67.0646 18.9888 66.5396C19.3788 66.0146 19.8588 65.5046 20.4438 65.0396C20.7288 64.8146 21.0438 64.6046 21.3738 64.4096C21.7188 64.2146 22.0788 64.0496 22.4538 63.8996C22.8288 63.7646 23.2188 63.6446 23.6388 63.5546C24.0488 63.4746 24.4638 63.4246 24.8838 63.4046C25.3138 63.3846 25.7388 63.3996 26.1588 63.4496C26.5638 63.4946 26.9688 63.5846 27.3588 63.6896C27.7488 63.7946 28.1238 63.9446 28.4688 64.0946C28.8288 64.2596 29.1588 64.4396 29.4588 64.6496C30.0888 65.0546 30.6138 65.5196 31.0488 66.0146C31.4838 66.5096 31.8138 67.0196 32.0688 67.4996C32.5938 68.4896 32.7738 69.3746 32.8338 69.9896C32.9088 70.5896 32.8638 70.9346 32.8338 70.9346Z" fill="#E0E0E0"/>
<path fill-rule="evenodd" clip-rule="evenodd" d="M26.14 75.795L26.185 77.115L25 77.145L24.97 75.855C23.8 75.825 22.66 75.48 22 75L22.6 73.53C23.215 73.95 24.07 74.25 24.925 74.31L24.865 72.33C23.545 72.06 22.075 71.655 22.03 69.96C22 68.715 22.87 67.605 24.73 67.35L24.7 66.03L25.885 66L25.915 67.29C26.8 67.335 27.67 67.56 28.33 67.95L27.79 69.42C27.175 69.09 26.545 68.91 25.96 68.85L26.02 70.86C27.34 71.13 28.78 71.535 28.825 73.2C28.87 74.43 28 75.51 26.14 75.795ZM24.82 70.605L24.775 68.925C24.16 69.075 23.92 69.435 23.92 69.825C23.935 70.23 24.295 70.455 24.82 70.605ZM26.935 73.395C26.92 72.975 26.575 72.765 26.065 72.6L26.11 74.235C26.695 74.085 26.95 73.77 26.935 73.395Z" fill="#E0E0E0"/>
<path d="M83.5672 32.8651L79.5022 31.2901C78.1672 32.1301 76.5922 32.6251 74.9122 32.6251C74.1172 32.6251 73.3522 32.5201 72.6172 32.3101C76.2772 31.2901 78.9622 27.9001 78.9622 23.8651C78.9622 19.8451 76.2772 16.4551 72.6172 15.4351C73.3522 15.2251 74.1172 15.1201 74.9122 15.1201C79.6972 15.1201 83.5672 19.0351 83.5672 23.8651C83.5672 25.4251 83.1622 26.8951 82.4572 28.1701L83.5672 32.8651Z" fill="#EBEBEB"/>
<path d="M75.0019 140.805C110.185 140.805 138.707 140.771 138.707 140.73C138.707 140.688 110.185 140.655 75.0019 140.655C39.8186 140.655 11.2969 140.688 11.2969 140.73C11.2969 140.771 39.8186 140.805 75.0019 140.805Z" fill="#263238"/>
<path d="M45.6325 131.085L45.8725 138.555L47.7625 144.405C47.9125 144.825 47.6575 145.275 47.2225 145.38C46.9825 145.44 46.7275 145.38 46.5475 145.23C45.3475 144.195 40.9525 140.385 40.9675 139.845C40.9775 139.425 40.7175 136.805 40.1875 131.985L45.6325 131.085Z" fill="#EB5E10"/>
<path d="M46.5175 145.23C43.2025 142.35 41.7775 140.91 41.2675 140.385C41.0875 140.19 40.9675 139.935 40.9525 139.65L40.9375 139.335L47.2225 145.38C46.9825 145.455 46.7125 145.395 46.5175 145.23Z" fill="#E0E0E0"/>
<path d="M42.3334 136.845C42.5284 136.965 42.6034 137.25 42.4984 137.445C42.3784 137.64 42.1084 137.73 41.9134 137.61C41.7034 137.49 41.6134 137.16 41.7334 136.98C41.8684 136.785 42.2134 136.71 42.3784 136.875" fill="white"/>
<path d="M45.4104 141.945C45.4854 141.795 45.6504 141.6 45.8904 141.465C46.1154 141.33 46.3704 141.285 46.5504 141.3C46.7304 141.315 46.8204 141.375 46.8204 141.39C46.8054 141.435 46.3854 141.36 45.9654 141.6C45.5304 141.84 45.3804 142.245 45.3504 142.215C45.3204 142.215 45.3354 142.11 45.4104 141.945Z" fill="#263238"/>
<path d="M46.521 142.68C46.956 142.515 47.316 142.65 47.301 142.695C47.286 142.74 46.956 142.695 46.581 142.83C46.191 142.965 45.966 143.22 45.936 143.19C45.891 143.175 46.086 142.83 46.521 142.68Z" fill="#263238"/>
<path d="M45.1705 140.22C45.7855 139.95 46.3405 140.01 46.3255 140.055C46.3255 140.1 45.8005 140.115 45.2455 140.37C44.6605 140.64 44.3155 141.03 44.2855 141C44.2405 140.97 44.5555 140.505 45.1705 140.22Z" fill="#263238"/>
<path d="M44.961 138.36C45.546 138.315 45.981 138.495 45.966 138.54C45.951 138.585 45.516 138.48 44.976 138.525C44.451 138.585 44.046 138.78 44.016 138.735C44.001 138.705 44.391 138.42 44.961 138.36Z" fill="#263238"/>
<path d="M44.1322 136.335C44.3122 136.245 44.5672 136.155 44.8822 136.14C45.1822 136.14 45.4522 136.215 45.6322 136.305C45.8122 136.395 45.9022 136.485 45.8872 136.5C45.8572 136.545 45.4522 136.29 44.8822 136.305C44.3122 136.305 43.9222 136.59 43.8922 136.545C43.8772 136.53 43.9672 136.44 44.1322 136.335Z" fill="#263238"/>
<path d="M44.4809 134.94C44.3909 134.82 44.2859 134.67 44.1359 134.61C44.0759 134.595 44.0009 134.61 43.9559 134.67C43.9109 134.73 43.8809 134.82 43.8959 134.91C43.9259 135.285 44.3009 135.675 44.7509 135.705C45.2159 135.735 45.6359 135.435 45.8009 135.09C45.8309 135 45.8459 134.91 45.8159 134.85C45.7859 134.79 45.7109 134.76 45.6359 134.775C45.4709 134.79 45.3359 134.91 45.2159 135C44.7359 135.42 44.5859 135.81 44.5559 135.795C44.5559 135.78 44.5709 135.69 44.6609 135.525C44.7509 135.36 44.8859 135.135 45.1409 134.925C45.2609 134.82 45.3959 134.685 45.6209 134.64C45.7259 134.61 45.8759 134.655 45.9359 134.775C46.0109 134.895 45.9809 135.03 45.9359 135.135C45.7559 135.555 45.2759 135.9 44.7509 135.87C44.2109 135.825 43.7759 135.39 43.7459 134.925C43.7309 134.805 43.7609 134.67 43.8359 134.58C43.9259 134.475 44.0759 134.445 44.1809 134.49C44.3909 134.58 44.4959 134.745 44.5859 134.88C44.7509 135.165 44.8109 135.435 44.8409 135.6C44.8709 135.795 44.8559 135.885 44.8559 135.885C44.8109 135.9 44.8259 135.48 44.4809 134.94Z" fill="#263238"/>
<path d="M60.1622 132.195L59.7722 137.775C63.4722 139.295 65.3272 140.4 65.3372 141.09L54.4922 140.73L54.7322 132L60.1622 132.195Z" fill="#EB5E10"/>
<path d="M56.3946 137.205C56.5896 137.115 56.8746 137.28 56.9346 137.49C56.9946 137.7 56.7996 137.97 56.5896 138.015C56.3796 138.06 56.1396 137.91 56.1096 137.7C56.0646 137.475 56.2146 137.25 56.4246 137.205" fill="#E0E0E0"/>
<path d="M54.4922 140.73L54.5522 139.845L64.9322 140.52C65.2522 140.67 65.3872 140.86 65.3372 141.09L54.4922 140.73Z" fill="#E0E0E0"/>
<path d="M59.9533 137.73C59.9533 137.79 59.6833 137.805 59.4133 137.955C59.1433 138.12 59.0083 138.345 58.9483 138.315C58.9033 138.3 58.9933 138 59.3233 137.805C59.6383 137.61 59.9683 137.685 59.9533 137.73Z" fill="#263238"/>
<path d="M61.079 138.24C61.079 138.285 60.854 138.375 60.659 138.6C60.464 138.81 60.419 139.05 60.359 139.035C60.314 139.05 60.284 138.735 60.524 138.465C60.764 138.195 61.079 138.195 61.079 138.24Z" fill="#263238"/>
<path d="M61.6735 139.62C61.6135 139.635 61.5535 139.365 61.7035 139.08C61.8385 138.795 62.0935 138.69 62.1235 138.735C62.1535 138.78 61.9885 138.93 61.8685 139.17C61.7485 139.395 61.7185 139.62 61.6735 139.62Z" fill="#263238"/>
<path d="M59.8932 136.455C59.8782 136.5 59.6382 136.41 59.3382 136.425C59.0382 136.425 58.7982 136.53 58.7682 136.47C58.7382 136.44 58.9782 136.245 59.3232 136.245C59.6832 136.23 59.9232 136.41 59.8932 136.455Z" fill="#263238"/>
<path d="M59.9548 135.315C59.9548 135.345 59.7448 135.375 59.4148 135.3C59.2498 135.27 59.0548 135.21 58.8448 135.105C58.7448 135.055 58.6448 134.995 58.5448 134.925C58.4998 134.895 58.4398 134.865 58.3798 134.805C58.3198 134.745 58.2898 134.595 58.3648 134.52C58.4248 134.43 58.5298 134.4 58.6048 134.4C58.6798 134.4 58.7548 134.415 58.7998 134.43C58.9198 134.47 59.0348 134.515 59.1448 134.565C59.3398 134.67 59.5048 134.79 59.6248 134.91C59.8798 135.15 59.9548 135.345 59.9398 135.36C59.9098 135.375 59.7898 135.21 59.5498 135.015C59.4148 134.91 59.2648 134.805 59.0698 134.715C58.9698 134.675 58.8648 134.64 58.7548 134.61C58.6498 134.58 58.5448 134.58 58.5148 134.625C58.4998 134.64 58.4998 134.655 58.5298 134.685C58.5448 134.715 58.5898 134.745 58.6498 134.79C58.7398 134.85 58.8298 134.905 58.9198 134.955C59.1148 135.06 59.2948 135.12 59.4448 135.18C59.7598 135.27 59.9548 135.3 59.9548 135.315Z" fill="#263238"/>
<path d="M59.8778 135.39C59.8628 135.405 59.7578 135.21 59.7578 134.865C59.7578 134.7 59.7728 134.49 59.8478 134.28C59.8878 134.17 59.9378 134.06 59.9978 133.95C60.0728 133.845 60.1478 133.695 60.3578 133.68C60.4628 133.68 60.5528 133.77 60.5828 133.845C60.6128 133.92 60.6128 133.98 60.6278 134.04C60.6428 134.175 60.6278 134.295 60.6128 134.415C60.5678 134.64 60.4778 134.835 60.3578 134.97C60.1478 135.24 59.9228 135.3 59.9078 135.27C59.8928 135.255 60.0878 135.15 60.2528 134.895C60.3428 134.76 60.4178 134.58 60.4478 134.385C60.4578 134.285 60.4578 134.18 60.4478 134.07C60.4328 133.95 60.3878 133.86 60.3428 133.875C60.2978 133.86 60.2078 133.95 60.1478 134.04C60.0978 134.14 60.0528 134.235 60.0128 134.325C59.9378 134.52 59.8928 134.715 59.8928 134.865C59.8628 135.195 59.9078 135.39 59.8778 135.39Z" fill="#263238"/>
<path d="M50.0538 75.0601L48.0138 136.86L39.4487 137.115L37.8438 77.1001L50.0538 75.0601Z" fill="#263238"/>
<path d="M55.6463 74.9551C59.8763 91.9151 62.0563 101.84 62.1863 104.73C62.3163 107.63 61.8663 118.115 60.8363 136.185H52.4513L53.1562 105.315L46.7812 79.1851L48.3263 75.0901L55.6463 74.9551Z" fill="#263238"/>
<path d="M50.4769 78.0752C50.4769 78.0852 50.4769 78.1152 50.4769 78.1652C50.4769 78.2252 50.4769 78.3052 50.4769 78.4052C50.4669 78.6252 50.4519 78.9302 50.4319 79.3202C50.4019 80.1152 50.3419 81.2702 50.2819 82.6802C50.1319 85.5302 49.9369 89.4452 49.7119 93.7652C49.4719 98.0852 49.2619 102 49.0969 104.85C49.0219 106.26 48.9469 107.4 48.9019 108.21C48.8719 108.59 48.8519 108.89 48.8419 109.11C48.8319 109.21 48.8219 109.29 48.8119 109.35C48.8119 109.41 48.8069 109.44 48.7969 109.44C48.7969 109.44 48.7969 109.41 48.7969 109.35C48.7969 109.29 48.8019 109.21 48.8119 109.11C48.8119 108.89 48.8219 108.585 48.8419 108.195C48.8719 107.4 48.9319 106.245 48.9919 104.835C49.1419 102 49.3369 98.0852 49.5619 93.7502C49.8019 89.4302 50.0119 85.5152 50.1769 82.6652C50.2519 81.2552 50.3269 80.1152 50.3719 79.3202C50.4019 78.9302 50.4269 78.6252 50.4469 78.4052C50.4469 78.3052 50.4519 78.2252 50.4619 78.1652C50.4619 78.1052 50.4669 78.0752 50.4769 78.0752Z" fill="#455A64"/>
<path d="M49.5291 42.3298C51.5991 52.6198 52.6491 59.2148 52.6791 62.1148C52.7091 65.0148 53.2341 69.2948 54.2541 74.9548H40.7841L40.4991 51.4498L39.5391 44.4298L41.5641 41.5498L49.5291 42.3298Z" fill="#F5F5F5"/>
<path d="M49.6953 42.7949C51.8353 43.4249 53.1903 44.1349 53.7603 44.9249C54.2003 45.5449 54.7253 51.7749 55.3353 63.6149L56.7153 79.2449L55.3653 79.1249L53.4603 73.2599L49.6953 42.7949Z" fill="#EB5E10"/>
<path d="M53.7578 44.9248L62.8328 53.2498L73.9928 49.6348L76.2128 54.3148L64.3028 59.7298C62.6078 60.4498 61.5278 60.0448 60.3578 59.0998L54.1028 54.1048L53.7578 44.9248Z" fill="#EB5E10"/>
<path d="M71.9098 51.1203C71.9848 51.2403 71.9398 51.3903 71.8198 51.4503C71.6998 51.5253 71.5498 51.4803 71.4898 51.3603C71.4148 51.2403 71.4598 51.0903 71.5798 51.0303C71.6998 50.9553 71.8498 51.0003 71.9098 51.1203Z" fill="#263238"/>
<path fill-rule="evenodd" clip-rule="evenodd" d="M71.703 51.4951C71.673 51.4951 71.648 51.4901 71.628 51.4801C71.568 51.4651 71.508 51.4201 71.478 51.3601C71.448 51.3001 71.448 51.2251 71.463 51.1651C71.478 51.1051 71.523 51.0451 71.583 51.0151C71.643 50.9851 71.718 50.9851 71.778 51.0001C71.838 51.0151 71.898 51.0601 71.928 51.1201C71.958 51.1801 71.958 51.2551 71.943 51.3151C71.928 51.3751 71.883 51.4351 71.823 51.4651C71.783 51.4851 71.743 51.4951 71.703 51.4951ZM71.703 51.0001C71.663 51.0001 71.623 51.0101 71.583 51.0301C71.538 51.0601 71.493 51.1051 71.478 51.1651C71.463 51.2251 71.463 51.3001 71.493 51.3451C71.523 51.4051 71.568 51.4501 71.628 51.4651C71.688 51.4801 71.763 51.4801 71.808 51.4501C71.868 51.4201 71.913 51.3751 71.928 51.3151C71.943 51.2401 71.943 51.1801 71.913 51.1201C71.868 51.0451 71.793 51.0001 71.703 51.0001Z" fill="#263238"/>
<path d="M72.8599 50.8952C72.9199 51.0152 72.8749 51.1652 72.7549 51.2402C72.6349 51.3002 72.4849 51.2552 72.4249 51.1352C72.3649 51.0152 72.4099 50.8652 72.5299 50.8052C72.6499 50.7302 72.7849 50.7752 72.8599 50.8952Z" fill="#263238"/>
<path fill-rule="evenodd" clip-rule="evenodd" d="M72.6343 51.27C72.6143 51.27 72.5893 51.265 72.5593 51.255C72.4993 51.24 72.4543 51.195 72.4093 51.135C72.3493 51.015 72.3943 50.865 72.5143 50.79C72.5743 50.76 72.6493 50.76 72.7093 50.775C72.7693 50.79 72.8293 50.835 72.8593 50.895C72.8893 50.955 72.9043 51.03 72.8743 51.09C72.8593 51.15 72.8143 51.21 72.7543 51.24C72.7143 51.26 72.6743 51.27 72.6343 51.27ZM72.6343 50.775C72.5943 50.775 72.5593 50.785 72.5293 50.805C72.4093 50.865 72.3643 51.015 72.4243 51.135C72.4543 51.18 72.5143 51.225 72.5743 51.24C72.6343 51.255 72.6943 51.255 72.7543 51.225C72.8593 51.165 72.9043 51.015 72.8443 50.91C72.8143 50.85 72.7693 50.805 72.7093 50.79C72.6893 50.78 72.6643 50.775 72.6343 50.775Z" fill="#263238"/>
<path d="M73.7427 50.715C73.8027 50.835 73.7577 50.985 73.6377 51.06C73.5177 51.12 73.3827 51.075 73.3077 50.955C73.2477 50.835 73.2927 50.685 73.4127 50.625C73.5327 50.55 73.6827 50.595 73.7427 50.715Z" fill="#263238"/>
<path fill-rule="evenodd" clip-rule="evenodd" d="M73.5298 51.09C73.4998 51.09 73.4748 51.085 73.4548 51.075C73.3948 51.06 73.3348 51.015 73.3048 50.955C73.2748 50.895 73.2598 50.835 73.2898 50.76C73.3048 50.7 73.3498 50.64 73.4098 50.61C73.5298 50.55 73.6798 50.595 73.7548 50.715C73.8148 50.835 73.7698 51 73.6498 51.06C73.6098 51.08 73.5698 51.09 73.5298 51.09ZM73.5298 50.595C73.4898 50.595 73.4498 50.605 73.4098 50.625C73.3648 50.655 73.3198 50.7 73.3048 50.775C73.2748 50.835 73.2898 50.895 73.3198 50.955C73.3498 51 73.3948 51.045 73.4548 51.06C73.5148 51.075 73.5748 51.075 73.6348 51.045C73.7548 50.985 73.7998 50.835 73.7398 50.73C73.6948 50.64 73.6048 50.595 73.5298 50.595Z" fill="#263238"/>
<path d="M74.1016 49.8599L74.9716 49.5449L76.9516 53.7299L76.1116 54.0899L74.1016 49.8599Z" fill="#E0E0E0"/>
<path d="M54.0425 48.21C54.0575 48.21 54.0725 48.375 54.1025 48.675C54.1325 49.005 54.1775 49.44 54.2225 49.95C54.3575 51.045 54.5225 52.515 54.7025 54.15C54.8825 55.785 55.0325 57.27 55.0925 58.35C55.1375 58.89 55.1525 59.325 55.1525 59.625C55.1525 59.925 55.1525 60.09 55.1375 60.09C55.1225 60.09 55.1075 59.925 55.0925 59.625C55.0625 59.325 55.0325 58.89 54.9875 58.35C54.8825 57.285 54.7325 55.8 54.5525 54.165C54.3725 52.515 54.2075 51.045 54.1175 49.965C54.0725 49.425 54.0425 48.99 54.0425 48.675C54.0275 48.375 54.0275 48.21 54.0425 48.21Z" fill="#263238"/>
<path d="M56.0223 50.2951C56.0673 50.3101 55.8123 51.3151 55.4523 52.5301C55.1073 53.7601 54.7773 54.7351 54.7473 54.7201C54.7023 54.7201 54.9573 53.7151 55.3023 52.4851C55.6623 51.2701 55.9923 50.2801 56.0223 50.2951Z" fill="#263238"/>
<path d="M62.7273 56.0551C62.7123 56.0701 62.6223 55.9201 62.5323 55.6651C62.4423 55.3951 62.3673 55.0201 62.3973 54.6001C62.4273 54.1651 62.5473 53.8051 62.6673 53.5501C62.7873 53.3101 62.8923 53.1751 62.9073 53.1901C62.9523 53.2051 62.5923 53.7901 62.5473 54.6001C62.4873 55.4251 62.7723 56.0401 62.7273 56.0551Z" fill="#263238"/>
<path d="M61.6934 65.6997L62.8484 65.7897L62.3984 70.6347L61.2734 70.5147L61.6934 65.6997Z" fill="#E0E0E0"/>
<path d="M47.6087 56.1449C48.3587 57.9899 48.8537 59.9549 49.0787 61.9499L50.2337 72.6899L50.5787 78.7049L36.8537 79.2899L38.5787 65.5799L33.7787 50.4899C33.2087 48.7799 33.8387 46.9049 35.2937 45.8849L41.5637 41.8799L47.6087 56.1449Z" fill="#EB5E10"/>
<path d="M36.4159 46.2747C38.3059 45.1497 40.7509 45.8397 41.7709 47.7897L48.4459 60.5847L61.7059 65.5797L61.2559 70.6347L43.8859 66.5247C42.7459 66.2547 41.7859 65.4747 41.2759 64.4247L35.0209 51.3147C34.0759 49.5297 34.6909 47.3247 36.4159 46.2747Z" fill="#EB5E10"/>
<path d="M61.7122 65.5798C61.7122 65.5798 61.6872 65.5748 61.6372 65.5648C61.5872 65.5448 61.5172 65.5198 61.4272 65.4898C61.2372 65.4198 60.9772 65.3248 60.6472 65.2048C59.9572 64.9498 58.9672 64.5898 57.7372 64.1398C55.2622 63.2098 51.8272 61.9198 47.9272 60.4648H47.8972L47.8822 60.4348C47.5222 59.6998 47.1322 58.9348 46.7272 58.1398C45.6472 56.0248 44.5672 54.0298 43.5472 52.2298C43.0372 51.3298 42.5572 50.4898 42.0922 49.6948C41.8622 49.2948 41.6372 48.9098 41.4172 48.5398C41.3172 48.3598 41.2072 48.1848 41.0872 48.0148C40.9822 47.8498 40.8622 47.6998 40.7422 47.5498C40.2472 46.9498 39.6322 46.5598 39.0622 46.3348C38.4922 46.1098 37.9522 46.0348 37.5322 46.0648C36.6472 46.0948 36.2422 46.4248 36.2422 46.4098C36.2422 46.3998 36.2672 46.3798 36.3172 46.3498C36.3622 46.3198 36.4372 46.2748 36.5422 46.2298C36.7522 46.1248 37.0822 46.0198 37.5322 46.0048C37.9672 45.9748 38.5072 46.0348 39.0922 46.2448C39.6772 46.4698 40.3072 46.8598 40.8172 47.4748C40.9522 47.6248 41.0722 47.7748 41.1922 47.9548C41.3022 48.1248 41.4122 48.2998 41.5222 48.4798C41.7422 48.8498 41.9672 49.2298 42.1972 49.6198C42.6772 50.4148 43.1572 51.2698 43.6822 52.1698C44.7022 53.9548 45.7822 55.9498 46.8772 58.0798C47.2672 58.8598 47.6572 59.6248 48.0322 60.3598L47.9872 60.3298C51.8722 61.7998 55.3072 63.1048 57.7672 64.0348C58.9972 64.5148 59.9722 64.8898 60.6622 65.1598C60.9922 65.2898 61.2522 65.3898 61.4422 65.4598C61.5222 65.4998 61.5872 65.5298 61.6372 65.5498C61.6872 65.5698 61.7122 65.5798 61.7122 65.5798Z" fill="#263238"/>
<path d="M58.5134 68.9702C58.646 68.9702 58.7534 68.8628 58.7534 68.7302C58.7534 68.5977 58.646 68.4902 58.5134 68.4902C58.3809 68.4902 58.2734 68.5977 58.2734 68.7302C58.2734 68.8628 58.3809 68.9702 58.5134 68.9702Z" fill="#263238"/>
<path fill-rule="evenodd" clip-rule="evenodd" d="M58.5128 68.9851C58.3628 68.9851 58.2578 68.8651 58.2578 68.7301C58.2578 68.5951 58.3628 68.4751 58.5128 68.4751C58.6478 68.4751 58.7528 68.5951 58.7528 68.7301C58.7528 68.8651 58.6478 68.9851 58.5128 68.9851ZM58.5128 68.4901C58.3778 68.4901 58.2728 68.5951 58.2728 68.7301C58.2728 68.8651 58.3778 68.9701 58.5128 68.9701C58.6328 68.9701 58.7378 68.8651 58.7378 68.7301C58.7378 68.5951 58.6328 68.4901 58.5128 68.4901Z" fill="#263238"/>
<path d="M59.4431 69.21C59.5757 69.21 59.6831 69.1025 59.6831 68.97C59.6831 68.8374 59.5757 68.73 59.4431 68.73C59.3106 68.73 59.2031 68.8374 59.2031 68.97C59.2031 69.1025 59.3106 69.21 59.4431 69.21Z" fill="#263238"/>
<path fill-rule="evenodd" clip-rule="evenodd" d="M59.4425 69.225C59.2925 69.225 59.1875 69.12 59.1875 68.97C59.1875 68.835 59.2925 68.73 59.4425 68.73C59.5775 68.73 59.6825 68.835 59.6825 68.97C59.6825 69.12 59.5775 69.225 59.4425 69.225ZM59.4425 68.745C59.3075 68.745 59.2025 68.85 59.2025 68.97C59.2025 69.105 59.3075 69.21 59.4425 69.21C59.5625 69.21 59.6675 69.105 59.6675 68.97C59.6675 68.85 59.5625 68.745 59.4425 68.745Z" fill="#263238"/>
<path d="M60.3103 69.48C60.4429 69.48 60.5503 69.3725 60.5503 69.24C60.5503 69.1075 60.4429 69 60.3103 69C60.1778 69 60.0703 69.1075 60.0703 69.24C60.0703 69.3725 60.1778 69.48 60.3103 69.48Z" fill="#263238"/>
<path fill-rule="evenodd" clip-rule="evenodd" d="M60.3097 69.4949C60.1597 69.4949 60.0547 69.3749 60.0547 69.2399C60.0547 69.1049 60.1597 68.9849 60.3097 68.9849C60.4447 68.9849 60.5497 69.1049 60.5497 69.2399C60.5497 69.3749 60.4447 69.4949 60.3097 69.4949ZM60.3097 68.9999C60.1747 68.9999 60.0697 69.1049 60.0697 69.2399C60.0697 69.3749 60.1747 69.4799 60.3097 69.4799C60.4297 69.4799 60.5347 69.3749 60.5347 69.2399C60.5347 69.1049 60.4297 68.9999 60.3097 68.9999Z" fill="#263238"/>
<path d="M61.2622 70.6347C61.2622 70.6347 61.2372 70.6297 61.1872 70.6197C61.1172 70.6097 61.0322 70.5947 60.9322 70.5747C60.7122 70.5147 60.4022 70.4397 60.0022 70.3497C59.1772 70.1397 58.0072 69.8547 56.5672 69.4947C53.6572 68.7897 49.6522 67.7847 45.2122 66.7497C44.6572 66.6147 44.1172 66.5097 43.5772 66.3597C43.0372 66.2097 42.4972 65.9997 42.0922 65.6247C41.6722 65.2497 41.4022 64.7697 41.1772 64.3047C40.9572 63.8347 40.7372 63.3797 40.5172 62.9397C39.6772 61.1547 38.9122 59.5497 38.2672 58.1847C37.6372 56.8497 37.1272 55.7547 36.7672 54.9897C36.5972 54.6197 36.4672 54.3297 36.3772 54.1197C36.3272 54.0197 36.2922 53.9397 36.2722 53.8797C36.2522 53.8297 36.2422 53.8047 36.2422 53.8047C36.2422 53.8047 36.2572 53.8297 36.2872 53.8797C36.3172 53.9397 36.3522 54.0147 36.3922 54.1047C36.5022 54.3047 36.6472 54.5897 36.8272 54.9597C37.2022 55.7247 37.7272 56.8047 38.3722 58.1397C39.0172 59.4897 39.7972 61.0947 40.6522 62.8797C40.8622 63.3197 41.0822 63.7747 41.3122 64.2447C41.5372 64.6947 41.8072 65.1597 42.1822 65.5047C42.5722 65.8647 43.0822 66.0747 43.6072 66.2097C44.1472 66.3597 44.7022 66.4647 45.2572 66.5997C49.6972 67.6347 53.7022 68.6547 56.5972 69.3897C58.0222 69.7647 59.1922 70.0647 60.0172 70.2897C60.4072 70.3897 60.7172 70.4747 60.9472 70.5447C61.0472 70.5647 61.1272 70.5847 61.1872 70.6047C61.2372 70.6247 61.2622 70.6347 61.2622 70.6347Z" fill="#263238"/>
<path d="M47.2356 69.8098C47.2356 69.8248 47.1606 69.8848 47.0256 69.9898C46.8906 70.0948 46.6806 70.2448 46.4256 70.4098C45.9006 70.7548 45.1656 71.2198 44.2656 71.5348C43.3506 71.8498 42.4656 71.8948 41.8506 71.7748C41.5356 71.7148 41.2956 71.6398 41.1306 71.5648C40.9656 71.5048 40.8906 71.4448 40.8906 71.4448C40.9056 71.4148 41.2506 71.5948 41.8656 71.6698C42.4656 71.7598 43.3206 71.6998 44.2056 71.3848C45.0906 71.0848 45.8256 70.6348 46.3656 70.3198C46.8906 70.0048 47.2206 69.7948 47.2356 69.8098Z" fill="#263238"/>
<path d="M47.9866 71.5498C47.9966 71.5498 48.0116 71.5898 48.0316 71.6698C48.0616 71.7398 48.0916 71.8498 48.1216 71.9998C48.1666 72.2998 48.1966 72.7348 48.1066 73.2748C48.0016 73.7998 47.7766 74.4298 47.3266 74.9998C46.8766 75.5548 46.1866 76.0198 45.3916 76.2448C44.5966 76.4698 43.7566 76.4248 43.0816 76.1848C42.4066 75.9298 41.8816 75.5098 41.5366 75.1198C41.1766 74.6998 40.9666 74.3098 40.8616 74.0248C40.8116 73.8848 40.7766 73.7748 40.7566 73.6948C40.7366 73.6248 40.7266 73.5898 40.7266 73.5898C40.7716 73.5598 40.8916 74.2498 41.6116 75.0448C41.9716 75.4198 42.4816 75.8098 43.1416 76.0348C43.7866 76.2748 44.5816 76.3198 45.3466 76.0948C46.1116 75.8848 46.7716 75.4348 47.2066 74.9098C47.6566 74.3698 47.8816 73.7698 47.9866 73.2598C48.1966 72.2098 47.9566 71.5498 47.9866 71.5498Z" fill="#263238"/>
<path d="M46.7379 24.4946L47.0079 24.5096C49.7379 24.6596 51.8979 26.8946 51.9579 29.6396C52.0179 32.1896 52.0629 35.0096 51.9579 36.3746C51.8279 38.2446 50.8179 39.2746 48.9279 39.4646C48.9129 39.5546 48.9279 40.2446 48.9279 41.0846C48.9279 42.8696 47.5479 44.3396 45.7779 44.4296C43.8729 44.5346 42.2829 43.0196 42.2679 41.1146L42.2379 29.9396C42.1479 26.9996 43.7829 24.4946 46.7379 24.4946Z" fill="#B78876"/>
<path d="M48.8975 40.1548C47.0075 40.2148 45.8125 39.5548 45.3125 38.1748C46.5325 39.0348 47.7375 39.4498 48.9275 39.4198L48.8975 40.1548Z" fill="#AA6550"/>
<path d="M50.8581 31.6799C51.0818 31.6799 51.2631 31.5053 51.2631 31.2899C51.2631 31.0745 51.0818 30.8999 50.8581 30.8999C50.6345 30.8999 50.4531 31.0745 50.4531 31.2899C50.4531 31.5053 50.6345 31.6799 50.8581 31.6799Z" fill="#263238"/>
<path d="M51.3404 30.8099C51.2954 30.8699 50.9954 30.6299 50.5604 30.5999C50.1404 30.5699 49.7954 30.7799 49.7654 30.7199C49.7354 30.6899 49.7954 30.5999 49.9304 30.5099C50.0804 30.4199 50.3204 30.3299 50.5904 30.3449C50.8604 30.3599 51.0854 30.4799 51.2054 30.5849C51.3254 30.6899 51.3704 30.7949 51.3404 30.8099Z" fill="#263238"/>
<path d="M46.6472 31.6496C46.8709 31.6496 47.0522 31.475 47.0522 31.2596C47.0522 31.0442 46.8709 30.8696 46.6472 30.8696C46.4235 30.8696 46.2422 31.0442 46.2422 31.2596C46.2422 31.475 46.4235 31.6496 46.6472 31.6496Z" fill="#263238"/>
<path d="M47.038 30.7199C46.978 30.7649 46.693 30.5249 46.258 30.4949C45.823 30.4649 45.493 30.6749 45.448 30.6149C45.433 30.5999 45.478 30.5099 45.628 30.4049C45.763 30.3149 46.003 30.2399 46.273 30.2549C46.543 30.2699 46.768 30.3749 46.888 30.4949C47.023 30.5999 47.053 30.6899 47.038 30.7199Z" fill="#263238"/>
<path d="M48.4062 34.1249C48.4062 34.0949 48.6762 34.0649 49.1262 34.0349C49.2312 34.0349 49.3362 34.0199 49.3662 33.9449C49.3962 33.8699 49.3513 33.7349 49.3063 33.6149C49.2163 33.3349 49.1212 33.0449 49.0212 32.7449C48.6462 31.5299 48.3612 30.5249 48.4212 30.5099C48.4662 30.4949 48.8262 31.4699 49.2012 32.6999C49.3012 32.9999 49.3912 33.2849 49.4712 33.5549C49.5012 33.6899 49.5762 33.8399 49.5012 34.0049C49.4712 34.0799 49.3813 34.1399 49.3063 34.1549C49.2463 34.1699 49.1712 34.1699 49.1262 34.1699C48.6762 34.1699 48.4062 34.1549 48.4062 34.1249Z" fill="#263238"/>
<path d="M47.2045 29.8197C47.1595 29.9397 46.7245 29.8497 46.2145 29.8947C45.7045 29.9097 45.2845 30.0297 45.2245 29.9247C45.1945 29.8797 45.2845 29.7597 45.4495 29.6547C45.6145 29.5497 45.8845 29.4597 46.1995 29.4447C46.4995 29.4297 46.7845 29.4897 46.9645 29.5797C47.1445 29.6697 47.2345 29.7597 47.2045 29.8197Z" fill="#263238"/>
<path d="M51.3135 29.7899C51.2235 29.8799 50.9385 29.7599 50.5785 29.7299C50.2185 29.6999 49.9185 29.7599 49.8435 29.6549C49.8135 29.6099 49.8735 29.5049 50.0085 29.4149C50.1435 29.3399 50.3685 29.2649 50.6235 29.2949C50.8635 29.3099 51.0735 29.4149 51.1935 29.5199C51.3135 29.6399 51.3435 29.7299 51.3135 29.7899Z" fill="#263238"/>
<path d="M42.2964 34.8144C42.2964 34.8744 40.3464 35.2194 40.3914 33.2844C40.4364 31.3644 42.2964 32.0244 42.3414 32.0394C42.3114 33.8494 42.2964 34.7744 42.2964 34.8144Z" fill="#B78876"/>
<path d="M41.6628 34.1697C41.6028 34.1997 41.4828 34.2447 41.3478 34.1997C41.0628 34.1247 40.8828 33.7497 40.8828 33.3597C40.8828 33.1647 40.9278 32.9697 41.0028 32.8197C41.0778 32.6697 41.2128 32.5347 41.3628 32.5347C41.4378 32.5347 41.4978 32.5497 41.5428 32.5947C41.5878 32.6247 41.6178 32.6697 41.6178 32.7147C41.6328 32.7897 41.6028 32.8347 41.5878 32.8197C41.5878 32.8197 41.6028 32.7747 41.5728 32.7297C41.5578 32.6697 41.4828 32.6097 41.3778 32.6247C41.2728 32.6397 41.1828 32.7447 41.1228 32.8797C41.0478 33.0147 41.0178 33.1797 41.0178 33.3597C41.0178 33.7047 41.1828 34.0347 41.3778 34.1097C41.4828 34.1547 41.5728 34.1397 41.6328 34.1247C41.6928 34.0947 41.7078 34.0647 41.7228 34.0647C41.7228 34.0797 41.7228 34.1097 41.6478 34.1697H41.6628Z" fill="#AA6550"/>
<path d="M41.6674 26.9549C42.4174 25.5299 43.9474 24.5099 45.5224 24.2099C47.0974 23.8949 49.2124 24.3299 50.3374 25.4849C50.3824 25.5299 50.4124 25.6049 50.4424 25.6799C50.5024 25.9049 50.4124 26.1449 50.2174 26.2649C50.1724 26.2949 50.1424 26.3249 50.1274 26.3399C49.5874 26.8049 48.8224 27.0149 48.1324 26.8799C47.5324 26.7599 47.0074 26.4149 46.4074 26.3399C45.5074 26.2049 44.6074 26.7299 44.0824 27.4799C43.5574 28.2149 43.3774 29.1599 43.3624 30.0599C43.3474 30.9749 43.4824 31.8749 43.5424 32.7749C43.5574 32.9849 43.5724 33.2099 43.5124 33.4049C43.4374 33.5999 43.2874 33.7799 43.0774 33.8249C42.7774 33.8699 42.5074 33.5999 42.4024 33.3299C42.2974 33.0449 42.2824 32.7299 42.1774 32.4449C42.0724 32.1599 41.5774 31.8599 41.2774 31.9199C40.9924 30.4199 40.9024 28.3799 41.6674 26.9549Z" fill="#263238"/>
<path d="M47.3807 34.47C47.4557 34.455 47.4557 34.935 47.8607 35.265C48.2507 35.595 48.7607 35.55 48.7607 35.61C48.7607 35.64 48.6557 35.7 48.4307 35.7C48.2357 35.715 47.9207 35.655 47.6807 35.445C47.4407 35.235 47.3357 34.965 47.3207 34.77C47.2907 34.575 47.3507 34.455 47.3807 34.47Z" fill="#263238"/>
<path d="M74.3359 50.3398C75.7459 49.0998 76.5859 48.4348 76.8559 48.3448C77.2609 48.2098 80.4409 48.1498 80.6509 48.3148C80.8609 48.4648 84.0859 50.2348 83.5609 50.5048C83.2009 50.6848 82.2759 50.3548 80.7859 49.5148L80.4109 49.5598C81.7109 50.2598 82.4759 50.7398 82.7059 50.9998C83.0209 51.3748 82.7209 51.8098 82.3609 51.6448C81.9859 51.4798 80.3209 50.5048 80.1859 50.5498C80.0509 50.5798 81.9709 51.7048 82.1509 51.9148C82.3909 52.1848 82.2259 52.7248 81.8659 52.5748C81.7159 52.5148 81.0559 52.0948 79.8859 51.3148C80.7759 52.0648 81.2509 52.4998 81.3109 52.6198C81.4609 52.9198 81.1609 53.1898 80.8609 52.9948C80.6509 52.8748 79.7359 51.9748 79.4509 51.8098C79.2509 51.7898 78.9959 51.9448 78.6859 52.2748C78.3759 52.6048 77.6159 52.9898 76.4059 53.4298L74.3359 50.3398Z" fill="#B78876"/>
<path d="M83.5428 50.5199C83.5428 50.5349 83.2728 50.5499 82.8528 50.4749C82.6578 50.4299 82.4028 50.3699 82.1478 50.2499C81.8928 50.1299 81.6228 49.9949 81.3378 49.8449C81.1278 49.7449 80.9228 49.6449 80.7228 49.5449H80.7678C79.8228 49.5599 79.1328 49.5449 79.1328 49.4999C79.1328 49.4699 79.8078 49.4099 80.7678 49.3799H80.7828L80.7978 49.3949C80.9978 49.4949 81.2028 49.5949 81.4128 49.6949C81.6928 49.8449 81.9578 49.9849 82.2078 50.1149C82.4478 50.2199 82.6878 50.2949 82.8828 50.3549C83.2878 50.4599 83.5428 50.4899 83.5428 50.5199Z" fill="#AA6550"/>
<path d="M76.58 49.395C77.53 49.695 78.48 50 79.43 50.31C79.535 50.34 79.67 50.4 79.685 50.52C79.7 50.64 79.565 50.73 79.445 50.76C78.59 51.06 77.63 50.595 76.76 50.85C76.475 50.925 76.205 51.09 75.92 51.15C75.62 51.21 75.26 51.15 75.125 50.88" fill="#B78876"/>
<path d="M76.5833 49.3949C76.5983 49.3799 76.7033 49.4099 76.9133 49.4699C77.1083 49.5149 77.3933 49.6049 77.7533 49.7099C78.1283 49.8149 78.5483 49.9499 78.9983 50.0849C79.1183 50.1249 79.2383 50.1599 79.3583 50.1899C79.4783 50.2349 79.6433 50.2499 79.7483 50.4299C79.7933 50.5199 79.7633 50.6399 79.7033 50.6999C79.6433 50.7749 79.5683 50.8049 79.4933 50.8349C79.3583 50.8799 79.2233 50.9249 79.0733 50.9399C78.4733 50.9999 77.9483 50.8499 77.4683 50.8499C77.2283 50.8349 76.9883 50.8499 76.7933 50.9099C76.5983 50.9699 76.4033 51.0599 76.2233 51.1199C75.8783 51.2699 75.5333 51.2399 75.3383 51.1199C75.1433 51.0149 75.1133 50.8799 75.1283 50.8799C75.1433 50.8649 75.1883 50.9849 75.3683 51.0599C75.5483 51.1499 75.8483 51.1499 76.1783 50.9999C76.3583 50.9399 76.5383 50.8349 76.7483 50.7749C76.9733 50.7149 77.2133 50.6849 77.4683 50.6849C77.9633 50.6999 78.5033 50.8199 79.0433 50.7599C79.1783 50.7449 79.3133 50.7149 79.4333 50.6849C79.5533 50.6399 79.6283 50.5499 79.5983 50.5049C79.5683 50.4299 79.4333 50.3849 79.3133 50.3549C79.1933 50.3149 79.0733 50.2749 78.9533 50.2349C78.5033 50.0849 78.0833 49.9499 77.7233 49.8149C77.3633 49.6949 77.0783 49.6049 76.8833 49.5299C76.6883 49.4549 76.5833 49.4099 76.5833 49.3949Z" fill="#AA6550"/>
<path d="M62.3406 65.8201L65.8356 65.4751C68.9356 67.5951 70.3356 68.8851 70.0356 69.3451C69.7356 69.8151 69.3356 69.8151 68.8356 69.3451C69.3856 70.0251 69.2156 70.4701 68.3256 70.6801C68.1056 71.1501 67.8306 71.3651 67.5006 71.3251H67.1706C66.9806 71.9151 66.7456 72.1451 66.4656 72.0151C66.1756 71.8851 65.6006 71.4401 64.7406 70.6801L61.1406 70.3651L62.3406 65.8201Z" fill="#B78876"/>
<path d="M65.0553 69.9748C64.9153 70.0848 64.7353 70.2698 64.5153 70.5298L64.7403 71.4748C64.2003 71.5348 63.8603 71.5448 63.7203 71.5048C63.1353 71.3548 63.2403 70.4998 63.4353 70.1398C63.5553 69.8998 63.9153 69.6648 64.5153 69.4348C65.0253 69.1948 65.2353 69.8248 65.0553 69.9748Z" fill="#FFBE9D"/>
<path d="M66.0564 70.4547C66.0414 70.4697 65.8614 70.6347 65.8464 70.6497C65.5314 70.8897 65.6064 71.1747 65.7864 71.5347L65.8764 71.7147C65.4064 71.7747 65.1014 71.7847 64.9614 71.7447C64.3764 71.5947 64.2564 70.9797 64.4364 70.6197C64.5664 70.3797 64.9264 70.1447 65.5164 69.9147C66.0414 69.6747 66.2364 70.2897 66.0564 70.4547Z" fill="#FFBE9D"/>
<path d="M65.7431 71.6849C65.5781 71.5199 65.5631 71.2499 65.6681 71.0549C65.7731 70.8599 65.9831 70.7399 66.1931 70.6799C66.3431 70.6349 66.5081 70.6349 66.6131 70.7399C66.6731 70.8149 66.6731 70.9199 66.6581 71.0099C66.6281 71.2649 66.4631 71.4749 66.3131 71.6699C66.2231 71.7749 66.1181 71.8949 65.9831 71.8799C65.8481 71.8799 65.7581 71.7599 65.6831 71.6399" fill="#FFBE9D"/>
<path d="M46.7834 43.3949L47.5784 43.1099L48.2534 44.3249L47.8784 45.6299L47.0684 45.8249L46.2734 44.8199L46.7834 43.3949Z" fill="#EB5E10"/>
<path d="M47.8803 45.6299L51.6003 56.3849L52.2003 61.9349L51.2103 61.5449C50.5603 60.7049 50.1303 59.9999 49.9203 59.4299C49.7403 58.9299 49.4153 57.5849 48.9453 55.3949C48.3753 52.7549 47.7503 49.5649 47.0703 45.8249L47.8803 45.6299Z" fill="#EB5E10"/>
<g opacity="0.4">
<g opacity="0.4">
<path opacity="0.4" d="M46.7834 43.3949L47.5784 43.1099L48.2534 44.3249L47.8784 45.6299L47.0684 45.8249L46.2734 44.8199L46.7834 43.3949Z" fill="black"/>
</g>
</g>
<g opacity="0.4">
<g opacity="0.4">
<path opacity="0.4" d="M47.8803 45.6299L51.6003 56.3849L52.2003 61.9349L51.2103 61.5449C50.4203 60.4449 49.9903 59.7399 49.9203 59.4299C49.8003 58.9099 49.4753 57.5649 48.9453 55.3949C48.3753 52.7549 47.7503 49.5649 47.0703 45.8249L47.8803 45.6299Z" fill="black"/>
</g>
</g>
<path d="M42.0609 39.9897L46.7859 43.3947L45.7659 46.2147L41.4609 41.7747L42.0609 39.9897Z" fill="#F5F5F5"/>
<path d="M47.5781 43.1098L48.8981 40.1548L49.6481 42.5848L48.5981 45.1498L47.5781 43.1098Z" fill="#F5F5F5"/>
<path d="M46.7844 43.3948C46.7994 43.4098 46.7694 43.4848 46.7394 43.6198C46.6794 43.7798 46.6144 43.9748 46.5444 44.2048C46.3794 44.7148 46.1244 45.4198 45.8244 46.2448L45.7944 46.3498L45.7044 46.2598C45.3594 45.8848 44.9994 45.4798 44.6094 45.0448C43.7544 44.0998 42.9744 43.2298 42.4344 42.5998C42.1744 42.2998 41.9544 42.0448 41.7744 41.8348C41.6244 41.6548 41.5494 41.5648 41.5644 41.5498C41.5644 41.5498 41.6544 41.6398 41.8194 41.8048C42.0094 41.9948 42.2394 42.2348 42.5094 42.5248C43.0794 43.1398 43.8594 43.9948 44.7144 44.9398C45.1044 45.3748 45.4794 45.7948 45.8244 46.1698L45.6894 46.1848C46.0044 45.3748 46.2594 44.6698 46.4544 44.1748C46.5444 43.9548 46.6244 43.7648 46.6944 43.6048C46.7394 43.4698 46.7844 43.3948 46.7844 43.3948Z" fill="#263238"/>
<path d="M49.6512 42.585C49.6662 42.6 49.5762 42.855 49.4262 43.275C49.2762 43.695 49.0512 44.265 48.7962 44.895C48.7562 44.995 48.7162 45.09 48.6762 45.18L48.6012 45.36L48.5412 45.165C48.1362 44.025 47.5512 43.26 47.5962 43.23C47.6112 43.215 47.7612 43.395 47.9862 43.725C48.2112 44.055 48.4662 44.535 48.6762 45.12H48.5412C48.5712 45.03 48.6062 44.94 48.6462 44.85C48.9012 44.205 49.1412 43.65 49.3212 43.23C49.5012 42.825 49.6212 42.585 49.6512 42.585Z" fill="#263238"/>
<path d="M109.817 131.415L111.632 138.66L114.737 143.97C114.962 144.36 114.812 144.855 114.407 145.05C114.197 145.155 113.927 145.155 113.717 145.035C112.322 144.285 107.222 141.495 107.117 140.97C107.037 140.55 106.227 138.045 104.688 133.455L109.817 131.415Z" fill="#E8505B"/>
<g opacity="0.6">
<g opacity="0.6">
<path opacity="0.6" d="M113.689 145.05C109.834 142.935 108.139 141.84 107.539 141.435C107.314 141.285 107.149 141.045 107.074 140.79L106.984 140.475L114.409 145.05C114.184 145.17 113.914 145.17 113.689 145.05Z" fill="white"/>
</g>
</g>
<g opacity="0.6">
<g opacity="0.6">
<g opacity="0.6">
<path opacity="0.6" d="M107.822 137.745C108.032 137.82 108.167 138.075 108.107 138.3C108.032 138.51 107.777 138.66 107.567 138.585C107.342 138.51 107.177 138.21 107.267 138C107.357 137.79 107.672 137.64 107.867 137.76" fill="white"/>
</g>
</g>
</g>
<path d="M111.903 142.08C111.948 141.9 112.068 141.675 112.263 141.495C112.473 141.315 112.713 141.225 112.878 141.21C113.058 141.18 113.163 141.21 113.163 141.24C113.163 141.285 112.743 141.285 112.368 141.615C112.008 141.945 111.948 142.365 111.903 142.35C111.873 142.35 111.858 142.245 111.903 142.08Z" fill="#13192B"/>
<path d="M113.146 142.56C113.521 142.305 113.911 142.365 113.911 142.41C113.911 142.455 113.566 142.47 113.221 142.695C112.891 142.905 112.726 143.205 112.681 143.175C112.636 143.175 112.756 142.8 113.146 142.56Z" fill="#13192B"/>
<path d="M111.302 140.445C111.842 140.04 112.397 139.995 112.397 140.04C112.412 140.085 111.902 140.19 111.407 140.58C110.897 140.955 110.642 141.405 110.597 141.39C110.567 141.375 110.762 140.85 111.302 140.445Z" fill="#13192B"/>
<path d="M110.701 138.675C111.256 138.495 111.721 138.585 111.721 138.63C111.721 138.675 111.271 138.66 110.761 138.825C110.251 138.99 109.891 139.26 109.861 139.23C109.831 139.2 110.161 138.855 110.701 138.675Z" fill="#13192B"/>
<path d="M109.471 136.86C109.621 136.725 109.861 136.59 110.161 136.515C110.446 136.44 110.731 136.47 110.926 136.515C111.121 136.56 111.226 136.635 111.211 136.65C111.196 136.695 110.746 136.53 110.191 136.68C109.636 136.8 109.306 137.145 109.276 137.115C109.261 137.1 109.321 136.995 109.471 136.86Z" fill="#13192B"/>
<path d="M109.505 135.435C109.4 135.33 109.265 135.195 109.115 135.18C109.04 135.18 108.965 135.21 108.935 135.27C108.905 135.345 108.905 135.435 108.935 135.525C109.04 135.885 109.49 136.185 109.94 136.11C110.39 136.05 110.75 135.66 110.825 135.285C110.84 135.195 110.84 135.105 110.795 135.06C110.75 135 110.675 134.985 110.6 135.015C110.45 135.075 110.345 135.225 110.24 135.33C109.85 135.84 109.805 136.26 109.775 136.245C109.76 136.245 109.76 136.14 109.805 135.96C109.865 135.78 109.955 135.54 110.15 135.27C110.255 135.135 110.345 134.985 110.555 134.895C110.645 134.85 110.81 134.85 110.9 134.955C110.99 135.06 110.99 135.195 110.975 135.315C110.885 135.765 110.495 136.185 109.97 136.275C109.43 136.35 108.92 136.02 108.785 135.555C108.755 135.45 108.755 135.315 108.815 135.21C108.86 135.09 109.01 135.03 109.13 135.045C109.355 135.09 109.475 135.24 109.595 135.345C109.82 135.585 109.94 135.825 110.015 136.005C110.075 136.17 110.075 136.275 110.075 136.275C110.045 136.29 109.955 135.87 109.505 135.435Z" fill="#13192B"/>
<path d="M92.605 132.57L92.845 141.3L82 141.66C82.02 140.97 83.875 139.87 87.565 138.36L87.19 132.765L92.605 132.57Z" fill="#E8505B"/>
<path d="M90.9116 137.775C91.1216 137.82 91.2716 138.06 91.2416 138.27C91.1966 138.48 90.9566 138.645 90.7466 138.6C90.5366 138.54 90.3416 138.27 90.4016 138.06C90.4766 137.865 90.7616 137.685 90.9566 137.79" fill="#E0E0E0"/>
<path d="M82.0023 141.66C81.9523 141.44 82.0873 141.25 82.4073 141.09L92.7873 140.415L92.8473 141.3L82.0023 141.66Z" fill="#E0E0E0"/>
<path d="M88.029 138.375C88.344 138.57 88.4339 138.885 88.3889 138.9C88.3439 138.915 88.194 138.69 87.924 138.54C87.669 138.375 87.399 138.36 87.399 138.3C87.384 138.255 87.699 138.18 88.029 138.375Z" fill="#13192B"/>
<path d="M86.8141 139.05C87.0541 139.305 87.0241 139.62 86.9791 139.62C86.9341 139.62 86.8741 139.38 86.6791 139.17C86.4991 138.945 86.2591 138.87 86.2741 138.81C86.2741 138.765 86.5891 138.78 86.8141 139.05Z" fill="#13192B"/>
<path d="M85.4851 139.74C85.3651 139.5 85.2001 139.35 85.2301 139.305C85.2451 139.26 85.5001 139.365 85.6501 139.65C85.7851 139.935 85.7251 140.205 85.6801 140.205C85.6201 140.19 85.6051 139.965 85.4851 139.74Z" fill="#13192B"/>
<path d="M88.0178 136.815C88.3778 136.83 88.6028 137.01 88.5728 137.055C88.5578 137.1 88.3178 137.01 88.0178 136.995C87.7178 136.995 87.4778 137.07 87.4478 137.025C87.4178 136.98 87.6578 136.8 88.0178 136.815Z" fill="#13192B"/>
<path d="M87.9006 135.75C88.0656 135.705 88.2306 135.63 88.4256 135.525C88.5156 135.475 88.6106 135.42 88.7106 135.36C88.7556 135.33 88.8006 135.285 88.8306 135.255C88.8456 135.225 88.8456 135.21 88.8306 135.195C88.8006 135.15 88.7106 135.15 88.5906 135.18C88.4806 135.21 88.3756 135.245 88.2756 135.285C88.0956 135.375 87.9306 135.48 87.8106 135.585C87.5556 135.78 87.4356 135.945 87.4206 135.93C87.3906 135.93 87.4806 135.72 87.7206 135.48C87.8406 135.36 88.0056 135.24 88.2156 135.135C88.3156 135.085 88.4256 135.045 88.5456 135.015C88.6056 135 88.6656 134.97 88.7406 134.97C88.8306 134.97 88.9206 135.015 88.9806 135.09C89.0556 135.18 89.0256 135.315 88.9656 135.375C88.9206 135.435 88.8606 135.465 88.8006 135.51C88.7006 135.58 88.6006 135.635 88.5006 135.675C88.3056 135.78 88.1106 135.84 87.9456 135.87C87.6006 135.945 87.3906 135.915 87.3906 135.9C87.3906 135.87 87.6006 135.84 87.9006 135.75Z" fill="#13192B"/>
<path d="M87.4593 135.45C87.4443 135.285 87.4143 135.105 87.3393 134.91C87.2993 134.81 87.2493 134.71 87.1893 134.61C87.1443 134.52 87.0393 134.445 86.9943 134.445C86.9493 134.43 86.9043 134.535 86.8893 134.64C86.8793 134.75 86.8793 134.855 86.8893 134.955C86.9193 135.165 86.9943 135.33 87.0843 135.465C87.2493 135.735 87.4443 135.825 87.4293 135.855C87.4293 135.87 87.2043 135.81 86.9793 135.54C86.8743 135.405 86.7693 135.21 86.7243 134.985C86.7093 134.865 86.6943 134.745 86.7093 134.625C86.7243 134.55 86.7243 134.49 86.7693 134.415C86.7993 134.34 86.8743 134.265 86.9943 134.265C87.1893 134.28 87.2793 134.415 87.3393 134.52C87.4093 134.63 87.4593 134.74 87.4893 134.85C87.5643 135.06 87.5943 135.27 87.5793 135.435C87.5793 135.78 87.4743 135.975 87.4593 135.975C87.4293 135.96 87.4743 135.765 87.4593 135.45Z" fill="#13192B"/>
<path d="M102.542 72.1649L112.517 136.29L104.792 138.3L93.8716 80.9999L94.5316 136.755L85.9816 137.01L84.2266 72.0449L102.542 72.1649Z" fill="#13192B"/>
<path d="M88.9188 137.1C88.9602 137.1 88.9938 123.635 88.9938 107.025C88.9938 90.4147 88.9602 76.9497 88.9188 76.9497C88.8773 76.9497 88.8438 90.4147 88.8438 107.025C88.8438 123.635 88.8773 137.1 88.9188 137.1Z" fill="#455A64"/>
<path d="M107.221 138.285C107.191 138.285 105.181 125.385 102.766 109.455C100.336 93.5101 98.4011 80.5951 98.4461 80.5801C98.4911 80.5801 100.486 93.4951 102.916 109.425C105.346 125.355 107.266 138.27 107.221 138.285Z" fill="#455A64"/>
<path d="M86.0375 28.32C85.5425 28.5 85.0025 27.705 84.8375 27.21C84.5975 26.445 84.6875 25.845 84.9125 25.365C85.2725 24.6 86.2175 24.15 87.0425 23.925C87.8675 23.7 88.6776 23.835 89.2476 24.285C89.3526 23.985 89.6226 23.7 89.9226 23.55C90.2076 23.4 90.7176 23.385 91.0476 23.415C92.1276 23.49 93.0725 23.715 94.0476 24.195C95.1276 24.72 95.6975 25.575 95.8625 26.64C96.5225 26.505 97.0476 26.985 97.2576 27.495C97.4826 28.005 97.3175 28.815 97.2125 29.355C97.0775 30.075 96.7475 30.72 96.4925 31.41" fill="#13192B"/>
<path d="M92.3263 45.435C90.2413 45.39 88.5913 43.62 88.6963 41.535C88.7363 40.845 88.7713 40.22 88.8013 39.66C86.9113 39.42 85.9313 38.36 85.8613 36.48C85.7913 34.61 85.8663 31.52 86.0863 27.21C89.3113 25.725 93.0763 26.1 95.9413 28.185L96.3613 28.5L96.1063 41.79C96.0613 43.845 94.3663 45.465 92.3263 45.435Z" fill="#FFBE9D"/>
<path d="M88.7878 39.6302C89.9778 39.6902 91.1928 39.3102 92.4328 38.4902C91.8528 39.9502 90.6278 40.6152 88.7578 40.4852L88.7878 39.6302Z" fill="#EB996E"/>
<path d="M96.0884 31.4252C96.1334 31.3952 98.0084 30.8102 97.9934 32.7302C97.9784 34.6502 96.0584 34.2452 96.0584 34.1852C96.0484 34.1552 96.0584 33.2352 96.0884 31.4252Z" fill="#FFBE9D"/>
<path d="M96.6406 33.465C96.6556 33.45 96.6706 33.48 96.7306 33.51C96.7906 33.54 96.8806 33.555 96.9856 33.525C97.1806 33.45 97.3606 33.12 97.3756 32.775C97.3756 32.61 97.3456 32.43 97.2856 32.295C97.2256 32.16 97.1356 32.055 97.0306 32.04C96.9256 32.01 96.8506 32.07 96.8356 32.13C96.8056 32.19 96.8206 32.22 96.8056 32.22C96.8056 32.235 96.7606 32.19 96.7756 32.115C96.7906 32.07 96.8206 32.025 96.8656 31.995C96.9106 31.95 96.9706 31.935 97.0456 31.95C97.1956 31.95 97.3306 32.1 97.3906 32.25C97.4656 32.4 97.5106 32.58 97.5106 32.79C97.4956 33.165 97.2856 33.525 97.0156 33.615C96.8806 33.645 96.7606 33.6 96.7006 33.555C96.6406 33.51 96.6406 33.465 96.6406 33.465Z" fill="#EB996E"/>
<path d="M87.2253 31.9944C87.449 31.9944 87.6303 31.8197 87.6303 31.6044C87.6303 31.389 87.449 31.2144 87.2253 31.2144C87.0016 31.2144 86.8203 31.389 86.8203 31.6044C86.8203 31.8197 87.0016 31.9944 87.2253 31.9944Z" fill="#13192B"/>
<path d="M86.8644 30.9296C86.9994 30.8246 87.2244 30.7196 87.4944 30.7046C87.7494 30.6896 87.9895 30.7946 88.1245 30.8846C88.2745 30.9896 88.3195 31.0796 88.3045 31.0946C88.2595 31.1546 87.9294 30.9446 87.4944 30.9596C87.0744 30.9596 86.7744 31.1996 86.7144 31.1396C86.6994 31.1246 86.7294 31.0346 86.8644 30.9296Z" fill="#13192B"/>
<path d="M91.4597 31.9948C91.6834 31.9948 91.8647 31.8202 91.8647 31.6048C91.8647 31.3895 91.6834 31.2148 91.4597 31.2148C91.236 31.2148 91.0547 31.3895 91.0547 31.6048C91.0547 31.8202 91.236 31.9948 91.4597 31.9948Z" fill="#13192B"/>
<path d="M91.1276 30.8998C91.2476 30.7948 91.4726 30.6898 91.7426 30.6748C92.0126 30.6748 92.2526 30.7648 92.3876 30.8548C92.5226 30.9598 92.5826 31.0498 92.5526 31.0798C92.5076 31.1248 92.1926 30.9148 91.7576 30.9298C91.3226 30.9448 91.0226 31.1698 90.9776 31.1248C90.9476 31.0948 90.9926 31.0048 91.1276 30.8998Z" fill="#13192B"/>
<path d="M88.7726 34.3798C88.7126 34.3798 88.6526 34.3798 88.5776 34.3648C88.5176 34.3498 88.4276 34.2898 88.3976 34.1998C88.3376 34.0348 88.4126 33.8998 88.4426 33.7648C88.5326 33.4948 88.6326 33.2098 88.7426 32.9098C89.1626 31.7098 89.5376 30.7498 89.5976 30.7648C89.6426 30.7798 89.3426 31.7698 88.9076 32.9698C88.8076 33.2698 88.7076 33.5548 88.6076 33.8248C88.5626 33.9598 88.5176 34.0798 88.5476 34.1548C88.5626 34.2298 88.6676 34.2448 88.7726 34.2598C89.2226 34.3048 89.4926 34.3348 89.4776 34.3648C89.4776 34.3948 89.2076 34.3948 88.7726 34.3798Z" fill="#13192B"/>
<path d="M90.8403 34.9348C90.8253 35.1298 90.7203 35.4148 90.4803 35.6248C90.2403 35.8348 89.9403 35.9098 89.7453 35.8948C89.5203 35.8948 89.4003 35.8498 89.4153 35.8198C89.4153 35.7448 89.9103 35.7898 90.3153 35.4448C90.7053 35.0998 90.6903 34.6348 90.7653 34.6348C90.7953 34.6348 90.8553 34.7398 90.8403 34.9348Z" fill="#13192B"/>
<path d="M91.0613 29.2049C91.2563 29.1149 91.5263 29.0699 91.8413 29.0849C92.1413 29.1149 92.4113 29.2199 92.5763 29.3249C92.7413 29.4299 92.8163 29.5499 92.7863 29.5949C92.7263 29.6999 92.3063 29.5649 91.7963 29.5349C91.2863 29.4749 90.8513 29.5499 90.8063 29.4299C90.7913 29.3699 90.8813 29.2799 91.0613 29.2049Z" fill="#13192B"/>
<path d="M86.9731 29.6397C87.0931 29.5347 87.3181 29.4447 87.5581 29.4297C87.7981 29.4147 88.0231 29.4897 88.1581 29.5647C88.2931 29.6547 88.3381 29.7597 88.3081 29.8047C88.2481 29.9097 87.9331 29.8347 87.5881 29.8647C87.2281 29.8797 86.9281 29.9847 86.8531 29.8947C86.8081 29.8497 86.8531 29.7447 86.9731 29.6397Z" fill="#13192B"/>
<path d="M96.5084 28.725C96.4934 29.55 96.7034 30.45 96.5834 31.26C96.5534 31.38 96.2534 31.71 96.2234 31.83C96.0734 32.55 95.7884 32.865 95.3534 32.145C95.1734 31.86 95.0534 31.08 94.9784 30.765C94.7884 29.905 94.5984 29.045 94.4084 28.185C93.7484 28.515 93.0284 28.77 92.2784 28.74C91.5434 28.71 90.7784 28.35 90.4334 27.705C90.0884 28.29 89.4734 28.725 88.7984 28.83C88.1384 28.935 87.4184 28.71 86.9234 28.26C86.6834 28.665 86.0834 28.785 85.6784 28.56C85.2584 28.32 85.0634 27.78 85.1834 27.33C85.3634 26.64 86.0834 26.25 86.7584 26.025C89.4134 25.17 92.3984 25.71 94.8284 27.06C95.1884 27.255 95.5484 27.48 95.8184 27.765C96.1034 28.065 96.4934 28.41 96.5234 28.815" fill="#13192B"/>
<path d="M94.9659 28.455C95.1159 28.5 95.2809 28.59 95.4309 28.71C95.5809 28.83 95.7309 28.995 95.8809 29.13C96.0309 29.28 96.1959 29.4 96.3609 29.46C96.5259 29.52 96.6909 29.5201 96.8259 29.4901C97.0959 29.4451 97.2309 29.325 97.2459 29.355C97.2609 29.355 97.1409 29.52 96.8559 29.61C96.7059 29.64 96.5109 29.6551 96.3159 29.5951C96.1209 29.5351 95.9259 29.415 95.7759 29.25C95.6109 29.1 95.4759 28.95 95.3259 28.83C95.1909 28.71 95.0559 28.62 94.9359 28.575C94.6809 28.47 94.5009 28.53 94.5009 28.5C94.4859 28.485 94.6659 28.365 94.9659 28.455Z" fill="#455A64"/>
<path d="M95.1884 29.3849C95.4134 29.5049 95.5484 29.8049 95.8184 29.9549C96.0884 30.1199 96.3884 30.1649 96.5984 30.1649C96.8084 30.1649 96.9434 30.1199 96.9584 30.1349C96.9584 30.1649 96.8384 30.2399 96.6134 30.2849C96.3884 30.3149 96.0434 30.2849 95.7434 30.0899C95.5784 29.9999 95.4584 29.8649 95.3684 29.7599C95.2784 29.6399 95.2034 29.5349 95.1284 29.4749C94.9634 29.3399 94.8284 29.3699 94.8134 29.3399C94.7984 29.3249 94.9784 29.2499 95.1884 29.3849Z" fill="#455A64"/>
<path d="M87.1802 23.9552C87.0452 24.0152 86.8502 24.1352 86.7152 24.3602C86.4152 24.8102 86.3552 25.6352 86.6102 26.4152C86.8652 27.2102 87.4352 27.7802 87.9002 28.0652C88.3502 28.3652 88.6952 28.4402 88.6952 28.4702C88.6952 28.4702 88.6052 28.4702 88.4552 28.4252C88.2902 28.3802 88.0802 28.3052 87.8402 28.1702C87.3452 27.8852 86.7302 27.3152 86.4602 26.4752C86.1902 25.6352 86.2652 24.7802 86.6102 24.3002C86.7902 24.0602 87.0002 23.9402 87.1502 23.8952C87.3152 23.8502 87.4052 23.8652 87.4052 23.8652C87.4052 23.8802 87.3152 23.8952 87.1802 23.9552Z" fill="#455A64"/>
<path d="M85.7203 26.6999C86.2753 27.5399 87.0403 27.9149 87.0103 27.9599C86.9953 27.9749 86.8003 27.8999 86.5153 27.7199C86.2303 27.5399 85.8853 27.2249 85.5853 26.7899C85.3003 26.3549 85.1503 25.9049 85.0903 25.5749C85.0303 25.2449 85.0453 25.0349 85.0603 25.0349C85.1203 25.0199 85.1653 25.8749 85.7203 26.6999Z" fill="#455A64"/>
<path d="M71.341 69.0301L70.546 69.1201C70.081 69.0301 69.661 68.8201 69.316 68.5051L65.896 65.4901L65.431 67.5451C64.696 67.6651 64.531 66.3751 64.516 65.4451C64.501 64.9201 64.921 64.4701 65.446 64.4551L69.556 64.2451L71.341 69.0301Z" fill="#FFBE9D"/>
<path d="M96.5084 41.4448L98.5334 43.8598L99.3884 55.2298L99.2234 78.0748L86.0234 76.6198V60.7648L87.0884 42.8998L89.2334 42.1948L96.5084 41.4448Z" fill="#E0E0E0"/>
<path d="M88.5703 43.05V41.325L96.4303 40.23L96.1153 44.22L94.3003 47.34L91.3603 47.505L89.2303 46.185L88.5703 43.05Z" fill="#E0E0E0"/>
<path d="M89.3088 42.8551C89.3585 42.8551 89.3988 42.4992 89.3988 42.0601C89.3988 41.6211 89.3585 41.2651 89.3088 41.2651C89.259 41.2651 89.2188 41.6211 89.2188 42.0601C89.2188 42.4992 89.259 42.8551 89.3088 42.8551Z" fill="#13192B"/>
<path d="M91.2853 42.7051C91.335 42.7051 91.3753 42.3088 91.3753 41.8201C91.3753 41.3313 91.335 40.9351 91.2853 40.9351C91.2356 40.9351 91.1953 41.3313 91.1953 41.8201C91.1953 42.3088 91.2356 42.7051 91.2853 42.7051Z" fill="#13192B"/>
<path d="M93.1515 42.5099C93.1065 42.5099 93.0915 42.0899 93.1365 41.5649C93.1815 41.0549 93.2415 40.6499 93.2865 40.6499C93.3315 40.6499 93.3315 41.0699 93.2865 41.5799C93.2565 42.0899 93.1815 42.5099 93.1515 42.5099Z" fill="#13192B"/>
<path d="M94.9806 42.2099C95.0303 42.2099 95.0706 41.8137 95.0706 41.3249C95.0706 40.8362 95.0303 40.4399 94.9806 40.4399C94.9309 40.4399 94.8906 40.8362 94.8906 41.3249C94.8906 41.8137 94.9309 42.2099 94.9806 42.2099Z" fill="#13192B"/>
<path d="M94.091 49.7549C94.106 49.7699 94.061 49.8749 93.986 50.0549C93.911 50.2349 93.791 50.5049 93.641 50.8199C93.341 51.4649 92.876 52.3499 92.321 53.2799C91.766 54.2249 91.211 55.0499 90.791 55.6199C90.581 55.9049 90.401 56.1449 90.281 56.2949C90.146 56.4449 90.071 56.5349 90.071 56.5199C90.056 56.5049 90.296 56.1449 90.701 55.5599C91.091 54.9599 91.631 54.1349 92.186 53.2049C92.741 52.2749 93.206 51.4049 93.536 50.7749C93.866 50.1449 94.076 49.7549 94.091 49.7549Z" fill="#13192B"/>
<path d="M96.4834 41.1602L98.6134 42.1952L102.723 43.2002C104.523 43.5152 105.768 45.1952 105.543 47.0102L103.383 63.8102L105.948 80.1002L95.7484 79.8002L95.1484 73.7402V56.9402L96.4834 41.1602Z" fill="#455A64"/>
<path d="M95.1484 60.8103C95.1484 60.8103 95.1584 60.7403 95.1784 60.6003C95.2084 60.4503 95.2484 60.2553 95.2984 60.0153C95.4184 59.4903 95.5684 58.7553 95.7484 57.8403C96.1534 56.0103 96.7084 53.4903 97.3084 50.7153C97.4884 49.9503 97.6534 49.2003 97.8034 48.4953L97.8334 48.5553C97.5834 48.3053 97.3434 48.0603 97.1134 47.8203L97.0834 47.7753L97.1134 47.7303C97.5334 47.0253 97.9234 46.3653 98.2984 45.7503V45.8103C97.7584 44.5203 97.3084 43.4253 96.9784 42.6453C96.8384 42.2753 96.7234 41.9803 96.6334 41.7603C96.5434 41.5503 96.5134 41.4453 96.5134 41.4453C96.5284 41.4453 96.5734 41.5503 96.6634 41.7453C96.7634 41.9653 96.8934 42.2553 97.0534 42.6153C97.3834 43.3953 97.8484 44.4753 98.4184 45.7653L98.4334 45.7953L98.4034 45.8253C98.0434 46.4403 97.6534 47.1003 97.2334 47.8053V47.7153C97.4634 47.9553 97.6984 48.2003 97.9384 48.4503L97.9684 48.4803L97.9534 48.5253C97.8034 49.2453 97.6384 49.9803 97.4584 50.7453C96.8434 53.5203 96.2734 56.0403 95.8684 57.8703C95.6584 58.7703 95.4784 59.5053 95.3584 60.0303C95.2984 60.2703 95.2534 60.4653 95.2234 60.6153C95.1834 60.7453 95.1584 60.8103 95.1484 60.8103Z" fill="#13192B"/>
<path d="M69.7344 63.5702L78.7494 58.5302L83.1294 46.7402C83.7444 45.0902 85.0044 43.7702 86.6244 43.0952L87.7944 42.6152V73.6652L88.0194 81.0152L83.1294 79.5602L85.6344 64.7702L84.7644 57.4952L83.9094 61.0202C83.6094 62.2802 82.7994 63.3602 81.6894 64.0052L72.2844 68.8802L69.7344 63.5702Z" fill="#455A64"/>
<path d="M72.2131 68.7304L71.2231 69.1204L69.0781 64.0204L69.8431 63.7954L72.2131 68.7304Z" fill="#E0E0E0"/>
<path d="M80.3849 60.6303C80.3399 60.6453 80.1899 60.0453 79.7099 59.4903C79.2449 58.9203 78.6899 58.6503 78.7199 58.6053C78.7199 58.5753 79.3349 58.7853 79.8299 59.3853C80.3399 59.9853 80.4299 60.6303 80.3849 60.6303Z" fill="#13192B"/>
<path d="M70.8218 63.63C70.8368 63.645 70.7768 63.69 70.7768 63.78C70.7618 63.87 70.8218 63.96 70.9418 63.93C71.0618 63.9 71.0618 63.78 71.0018 63.705C70.9568 63.645 70.8818 63.63 70.8818 63.615C70.8668 63.6 70.9718 63.54 71.0768 63.63C71.1368 63.675 71.1818 63.75 71.1818 63.855C71.1818 63.96 71.0918 64.05 70.9868 64.08C70.8818 64.11 70.7468 64.08 70.7018 63.99C70.6418 63.9 70.6418 63.81 70.6568 63.75C70.7168 63.615 70.8218 63.615 70.8218 63.63Z" fill="#13192B"/>
<path d="M71.5384 63.3304C71.5534 63.3454 71.4934 63.3904 71.4934 63.4654C71.4934 63.5554 71.5534 63.6604 71.6734 63.6304C71.7784 63.5854 71.7784 63.4804 71.7334 63.4054C71.6734 63.3304 71.6134 63.3304 71.5984 63.3004C71.5984 63.2854 71.6884 63.2404 71.8084 63.3304C71.8534 63.3604 71.9134 63.4354 71.9134 63.5404C71.8984 63.6454 71.8084 63.7504 71.7034 63.7804C71.6134 63.8104 71.4784 63.7654 71.4184 63.6904C71.3584 63.6004 71.3734 63.5104 71.3884 63.4504C71.4334 63.3154 71.5384 63.3004 71.5384 63.3304Z" fill="#13192B"/>
<path d="M87.8012 61.2902C87.7912 61.2902 87.7763 61.2252 87.7563 61.0952C87.7363 60.9552 87.7063 60.7702 87.6663 60.5402C87.6063 60.0452 87.5162 59.3552 87.3962 58.5152C87.1712 56.7752 86.8713 54.3902 86.5413 51.7802C86.4913 51.4102 86.4463 51.0402 86.4062 50.6702V50.6552V50.6402C86.6363 50.0602 86.8563 49.5002 87.0663 48.9602V49.0202C86.8363 48.5002 86.6212 48.0052 86.4212 47.5352L86.4062 47.5052L86.4212 47.4902C86.8112 46.0502 87.1562 44.8352 87.3962 43.9502C87.5162 43.5402 87.6113 43.2102 87.6813 42.9602C87.7413 42.7352 87.7862 42.6152 87.8012 42.6152C87.8012 42.6152 87.7712 42.7352 87.7262 42.9752C87.6562 43.2252 87.5712 43.5602 87.4712 43.9802C87.2462 44.8502 86.9313 46.0652 86.5563 47.5202L86.5413 47.4752C86.7513 47.9452 86.9712 48.4402 87.2012 48.9602L87.2163 48.9902L87.2012 49.0202C87.0012 49.5602 86.7863 50.1202 86.5563 50.7002V50.6552C86.6063 51.0152 86.6513 51.3852 86.6913 51.7652C87.0063 54.3752 87.2912 56.7602 87.5012 58.5002C87.6062 59.3402 87.6812 60.0302 87.7262 60.5402C87.7562 60.7702 87.7763 60.9552 87.7863 61.0952C87.7963 61.2252 87.8012 61.2902 87.8012 61.2902Z" fill="#13192B"/>
<path d="M85.6216 64.8604C85.6116 64.8604 85.6016 64.8104 85.5916 64.7104C85.5716 64.6004 85.5516 64.4604 85.5316 64.2904C85.4866 63.9004 85.4116 63.3604 85.3366 62.7304C85.1716 61.4104 84.9466 59.5804 84.6766 57.5704C84.4066 55.5604 84.1516 53.7454 83.9566 52.4254C83.8666 51.7954 83.7916 51.2704 83.7316 50.8804C83.7116 50.7104 83.6916 50.5654 83.6716 50.4454C83.6616 50.3454 83.6616 50.2954 83.6716 50.2954C83.6716 50.2954 83.6816 50.3454 83.7016 50.4454C83.7216 50.5554 83.7516 50.6954 83.7916 50.8654C83.8516 51.2254 83.9566 51.7654 84.0616 52.4104C84.2866 53.7304 84.5716 55.5454 84.8416 57.5554C85.1116 59.5654 85.3216 61.3954 85.4416 62.7154C85.5166 63.3754 85.5616 63.9154 85.5916 64.2754C85.6016 64.4454 85.6116 64.5904 85.6216 64.7104C85.6216 64.8104 85.6216 64.8604 85.6216 64.8604Z" fill="#13192B"/>
<path d="M84.38 75.9003C84.395 75.8853 84.425 76.0053 84.59 76.1403C84.74 76.2753 85.04 76.4103 85.415 76.3353C85.775 76.2453 86.12 75.9153 86.3 75.4503C86.495 74.9853 86.51 74.4303 86.555 73.8453C86.585 73.2603 86.57 72.6903 86.39 72.2253C86.21 71.7603 85.85 71.4603 85.565 71.1903C85.28 70.9353 85.055 70.6953 84.95 70.5153C84.83 70.3353 84.785 70.2153 84.8 70.2153C84.815 70.2003 84.86 70.3053 84.995 70.4853C85.13 70.6503 85.34 70.8603 85.64 71.1153C85.925 71.3703 86.315 71.6703 86.525 72.1803C86.735 72.6603 86.75 73.2603 86.705 73.8453C86.66 74.4303 86.645 75.0153 86.435 75.5103C86.24 75.9903 85.835 76.3653 85.43 76.4403C85.025 76.5153 84.695 76.3503 84.545 76.1853C84.47 76.1103 84.425 76.0353 84.395 75.9753C84.375 75.9253 84.37 75.9003 84.38 75.9003Z" fill="#13192B"/>
<path d="M81.0156 64.2455C81.2156 61.9455 82.2256 60.6905 84.0456 60.4805C84.0756 62.3505 83.0656 63.6055 81.0156 64.2455Z" fill="#13192B"/>
<path d="M96.285 64.6051L97.32 64.2451L104.88 69.9751L104.445 81.6001L103.56 82.3201C98.39 78.9401 95.745 77.2101 95.625 77.1301L96.285 64.6051Z" fill="#E8505B"/>
<path d="M97.2328 64.4102L97.5478 76.9952H95.8828L96.4378 64.6502L97.2328 64.4102Z" fill="#E0E0E0"/>
<path d="M99.0284 79.9203C98.6384 79.7703 98.4834 79.5003 98.5634 79.1103L99.6284 78.7503L99.3584 77.1453C99.1384 77.4653 98.9184 77.8803 98.6984 78.3903C98.4684 78.8903 98.1184 79.0753 97.6484 78.9453C98.2284 76.5853 98.5184 75.3803 98.5184 75.3303L102.253 74.1753L105.193 74.9703L103.453 78.8703C102.953 79.9703 102.568 80.6053 102.298 80.7753C101.983 80.9553 101.698 81.0153 101.443 81.0153C101.128 81.0153 100.858 80.8203 100.693 80.5503C100.673 80.5103 100.648 80.4903 100.618 80.4903C100.148 80.4603 99.8534 80.2603 99.7334 79.8903L99.0284 79.9203Z" fill="#FFBE9D"/>
<path d="M105.075 44.8052L111.99 59.6552C112.425 60.6152 112.455 61.7252 112.035 62.7002L106.395 75.8702L101.97 73.3652L105.945 61.5302L101.055 52.5152L105.075 44.8052Z" fill="#455A64"/>
<path d="M106.167 75.7352L105.732 76.5452L101.547 74.2952L101.967 73.3652L106.167 75.7352Z" fill="#E0E0E0"/>
<path d="M101.97 73.3651C101.96 73.3651 101.96 73.3451 101.97 73.3051C101.99 73.2651 102.01 73.2101 102.03 73.1401C102.08 72.9701 102.15 72.7451 102.24 72.4651C102.435 71.8801 102.705 71.0251 103.05 69.9751C103.755 67.8601 104.745 64.9051 105.87 61.5151L105.885 61.5751C105.315 60.6001 104.73 59.5801 104.13 58.5301C103.05 56.5951 102.06 54.7351 101.22 53.0251C100.8 52.1551 100.41 51.3301 100.08 50.5501C99.7198 49.7551 99.6298 48.9301 99.6748 48.2101C99.7198 47.4901 99.8548 46.8301 100.11 46.3051C100.35 45.7651 100.665 45.3751 100.965 45.1051C101.28 44.8201 101.55 44.6701 101.745 44.5801C101.875 44.5201 101.98 44.4851 102.06 44.4751C102.075 44.4901 101.61 44.5951 101.01 45.1501C100.725 45.4201 100.41 45.8101 100.185 46.3351C99.9448 46.8601 99.8098 47.5051 99.7798 48.2101C99.7498 48.9301 99.8398 49.7251 100.2 50.4901C100.53 51.2851 100.92 52.0951 101.34 52.9501C102.195 54.6751 103.2 56.5201 104.28 58.4551C104.865 59.5051 105.45 60.5251 106.02 61.5001L106.035 61.5301L106.02 61.5601C104.865 64.9351 103.875 67.8901 103.14 70.0051C102.78 71.0551 102.495 71.8951 102.285 72.4801C102.185 72.7601 102.11 72.9801 102.06 73.1401C102.03 73.2101 102.005 73.2701 101.985 73.3201C101.975 73.3601 101.97 73.3751 101.97 73.3651Z" fill="#13192B"/>
<path d="M109.261 61.4551C109.246 61.4701 109.081 61.3801 108.781 61.2751C108.481 61.1851 108.061 61.0951 107.581 61.1101C107.116 61.1251 106.696 61.2451 106.396 61.3501C106.111 61.4701 105.946 61.5751 105.931 61.5601C105.916 61.5451 106.066 61.4101 106.351 61.2601C106.651 61.1101 107.086 60.9601 107.581 60.9451C108.076 60.9301 108.526 61.0501 108.826 61.1851C109.111 61.3051 109.276 61.4401 109.261 61.4551Z" fill="#13192B"/>
<path d="M104.083 58.2751L103.588 62.1451L100.062 50.3701L104.083 58.2751Z" fill="#13192B"/>
<path d="M105.888 73.5153C105.903 73.5303 105.843 73.5753 105.843 73.6653C105.828 73.7553 105.888 73.8453 106.008 73.8153C106.128 73.7853 106.128 73.6653 106.068 73.5903C106.023 73.5303 105.948 73.5153 105.948 73.5003C105.933 73.4853 106.038 73.4253 106.143 73.5153C106.203 73.5603 106.248 73.6353 106.248 73.7253C106.248 73.8453 106.158 73.9353 106.053 73.9653C105.948 73.9953 105.828 73.9653 105.768 73.8753C105.708 73.7853 105.708 73.6953 105.738 73.6353C105.783 73.5003 105.888 73.5003 105.888 73.5153Z" fill="#13192B"/>
<path d="M106.249 72.6603C106.249 72.6903 106.204 72.7203 106.189 72.8103C106.189 72.9003 106.249 73.0053 106.369 72.9603C106.489 72.9303 106.489 72.8103 106.429 72.7503C106.369 72.6753 106.309 72.6753 106.309 72.6453C106.294 72.6303 106.384 72.5853 106.504 72.6603C106.549 72.7053 106.609 72.7803 106.609 72.8853C106.609 72.9903 106.519 73.0953 106.414 73.1103C106.309 73.1553 106.174 73.1103 106.114 73.0353C106.054 72.9453 106.069 72.8553 106.084 72.7953C106.144 72.6603 106.249 72.6453 106.249 72.6603Z" fill="#13192B"/>
<path d="M111.822 59.1302C112.527 60.4502 112.542 62.0102 111.882 63.3452L111.477 64.1852C111.057 64.2602 110.637 63.9602 110.472 63.5552C110.322 63.1652 110.352 62.7302 110.442 62.3102C110.532 61.8902 110.652 61.4852 110.667 61.0652C110.682 60.4652 110.472 59.8952 110.397 59.3102C110.337 58.7102 110.532 57.9452 111.057 57.6602L111.822 59.1302Z" fill="#13192B"/>
<path d="M136.031 118.245C136.676 116.355 138.341 114.855 140.291 114.39C142.226 113.91 144.401 114.51 145.841 115.89C146.516 116.55 147.071 117.525 146.786 118.425C146.486 119.4 145.346 119.88 144.326 119.805C143.321 119.745 142.391 119.28 141.431 118.935C140.486 118.59 139.406 118.365 138.476 118.77C137.591 119.145 137.006 120.06 136.736 120.99" fill="#EB5E10"/>
<g opacity="0.5">
<g opacity="0.5">
<g opacity="0.5">
<g opacity="0.5">
<g opacity="0.5">
<path opacity="0.5" d="M136.031 118.245C136.676 116.355 138.341 114.855 140.291 114.39C142.226 113.91 144.401 114.51 145.841 115.89C146.516 116.55 147.071 117.525 146.786 118.425C146.486 119.4 145.346 119.88 144.326 119.805C143.321 119.745 142.391 119.28 141.431 118.935C140.486 118.59 139.406 118.365 138.476 118.77C137.591 119.145 137.006 120.06 136.736 120.99" fill="black"/>
</g>
</g>
</g>
</g>
</g>
<path d="M128.726 125.055C127.256 123.645 127.331 121.185 128.066 119.28C128.801 117.375 130.421 115.92 132.221 114.945C135.716 113.085 140.081 112.935 143.696 114.585C141.911 114.63 140.201 115.65 139.286 117.165C138.476 118.515 138.296 120.15 137.621 121.575C136.871 123.165 135.506 124.44 133.871 125.085C132.236 125.715 130.361 125.715 128.726 125.055Z" fill="#EB5E10"/>
<path d="M128.019 116.595C126.369 114.645 126.159 111.54 126.399 109.02C126.639 106.485 127.224 103.95 126.834 101.43C126.594 99.9451 126.009 98.5351 125.814 97.0351C125.619 95.5501 125.904 93.8701 127.059 92.8951C128.379 91.8001 130.479 92.0551 131.859 93.0901C133.239 94.1401 134.049 95.7601 134.634 97.3951C135.909 100.965 136.389 104.925 135.324 108.585C134.274 112.23 131.799 115.485 128.154 116.595" fill="#EB5E10"/>
<path d="M127.227 132.48C127.227 132.48 127.227 132.405 127.227 132.255C127.227 132.12 127.227 131.895 127.242 131.625C127.257 131.07 127.317 130.26 127.437 129.27C127.557 128.28 127.752 127.11 128.067 125.835C128.367 124.56 128.892 123.195 129.642 121.86C130.377 120.525 131.277 119.385 132.192 118.44C133.122 117.495 134.052 116.745 134.877 116.205C135.297 115.92 135.687 115.71 136.032 115.5C136.377 115.32 136.692 115.17 136.932 115.05C137.182 114.94 137.382 114.855 137.532 114.795C137.662 114.745 137.732 114.72 137.742 114.72C137.742 114.73 137.672 114.765 137.532 114.825C137.392 114.895 137.202 114.985 136.962 115.095C136.707 115.23 136.407 115.38 136.062 115.575C135.732 115.77 135.342 115.995 134.937 116.28C134.127 116.835 133.197 117.57 132.282 118.515C131.382 119.46 130.497 120.6 129.747 121.92C128.247 124.56 127.827 127.335 127.527 129.285C127.392 130.275 127.332 131.07 127.287 131.625C127.277 131.895 127.267 132.105 127.257 132.255C127.247 132.405 127.237 132.48 127.227 132.48Z" fill="#263238"/>
<path d="M120.941 111.9C120.176 111.36 119.081 111.57 118.331 112.11C117.566 112.665 117.056 113.475 116.516 114.24C115.976 115.005 115.346 115.77 114.476 116.1C112.931 116.685 111.071 115.59 110.561 114.015C110.051 112.44 110.036 110.775 113.081 108.945" fill="#EB5E10"/>
<g opacity="0.5">
<g opacity="0.5">
<g opacity="0.5">
<g opacity="0.5">
<g opacity="0.5">
<path opacity="0.5" d="M120.941 111.9C120.176 111.36 119.081 111.57 118.331 112.11C117.566 112.665 117.056 113.475 116.516 114.24C115.976 115.005 115.346 115.77 114.476 116.1C112.931 116.685 111.071 115.59 110.561 114.015C110.051 112.44 110.036 110.775 113.081 108.945" fill="black"/>
</g>
</g>
</g>
</g>
</g>
<path d="M114.63 107.61C116.19 107.025 117.87 106.905 119.535 106.86C120.99 106.8 122.565 106.845 123.69 107.745C124.71 108.555 125.16 109.89 125.415 111.165C125.61 112.035 125.73 112.935 125.595 113.805C125.46 114.69 125.04 115.56 124.305 116.055C123.18 116.82 121.605 116.535 120.48 115.785C119.355 115.035 118.575 113.895 117.765 112.8C116.94 111.72 116.04 110.64 114.795 110.085C113.565 109.545 111.6 109.86 110.805 110.955C111.465 109.425 113.07 108.18 114.63 107.61Z" fill="#EB5E10"/>
<path d="M124.706 130.05C124.706 130.05 124.706 130.03 124.706 129.99C124.696 129.93 124.691 129.865 124.691 129.795C124.681 129.605 124.671 129.35 124.661 129.03C124.646 128.37 124.616 127.425 124.586 126.27C124.541 125.1 124.496 123.705 124.421 122.16C124.331 120.615 124.211 118.92 123.986 117.15C123.866 116.265 123.716 115.395 123.476 114.6C123.236 113.805 122.906 113.055 122.546 112.38C122.186 111.69 121.796 111.075 121.376 110.535C120.956 109.995 120.521 109.53 120.086 109.125C119.231 108.345 118.406 107.85 117.821 107.58C117.671 107.505 117.536 107.445 117.431 107.4C117.311 107.35 117.211 107.31 117.131 107.28C117.051 107.25 116.991 107.225 116.951 107.205C116.911 107.185 116.891 107.175 116.891 107.175C116.891 107.175 116.911 107.18 116.951 107.19C117.001 107.21 117.061 107.23 117.131 107.25C117.221 107.28 117.326 107.315 117.446 107.355C117.551 107.4 117.686 107.46 117.836 107.535C118.436 107.79 119.276 108.27 120.161 109.05C120.596 109.455 121.031 109.92 121.466 110.46C121.886 111.015 122.291 111.63 122.651 112.32C123.026 113.01 123.356 113.76 123.611 114.57C123.851 115.38 124.001 116.235 124.121 117.135C124.346 118.905 124.466 120.6 124.541 122.145C124.616 123.69 124.661 125.085 124.676 126.255C124.706 127.425 124.706 128.385 124.721 129.03C124.721 129.35 124.721 129.605 124.721 129.795C124.721 129.865 124.721 129.93 124.721 129.99C124.711 130.03 124.706 130.05 124.706 130.05Z" fill="#263238"/>
<path d="M125.799 131.43C125.689 131.13 125.579 130.695 125.469 130.125C125.304 129.27 125.184 128.01 125.334 126.45C125.454 124.905 125.859 123.09 126.489 121.14C127.104 119.19 127.959 117.105 128.679 114.855C129.039 113.73 129.339 112.62 129.549 111.525C129.759 110.43 129.894 109.365 129.984 108.36C130.149 106.32 130.119 104.475 130.074 102.93C130.029 101.385 129.939 100.125 129.894 99.2699C129.864 98.8399 129.844 98.5049 129.834 98.2649C129.824 98.1549 129.819 98.0699 129.819 98.0099C129.819 97.9499 129.819 97.9199 129.819 97.9199C129.819 97.9199 129.824 97.9499 129.834 98.0099C129.844 98.0699 129.854 98.1549 129.864 98.2649C129.884 98.5049 129.909 98.8349 129.939 99.2549C130.014 100.125 130.104 101.37 130.164 102.915C130.239 104.475 130.269 106.32 130.104 108.36C130.014 109.38 129.894 110.46 129.684 111.555C129.474 112.65 129.159 113.775 128.799 114.9C128.079 117.15 127.224 119.235 126.609 121.185C125.964 123.12 125.559 124.92 125.424 126.465C125.274 128.01 125.379 129.255 125.514 130.11C125.589 130.53 125.664 130.86 125.724 131.085C125.744 131.185 125.764 131.27 125.784 131.34C125.794 131.39 125.799 131.42 125.799 131.43Z" fill="#263238"/>
<path d="M133.33 132.795H119.065L118.75 130.05H133.33V132.795Z" fill="#455A64"/>
<path d="M131.799 132.48L130.134 140.715H122.379L120.594 132.48H131.799Z" fill="#455A64"/>
<path d="M126.325 132.855C130.194 132.855 133.33 132.821 133.33 132.78C133.33 132.739 130.194 132.705 126.325 132.705C122.457 132.705 119.32 132.739 119.32 132.78C119.32 132.821 122.457 132.855 126.325 132.855Z" fill="#455A64"/>
<path d="M130.887 136.86C130.857 136.89 130.467 136.47 129.627 136.14C129.207 135.975 128.682 135.84 128.097 135.84C127.512 135.81 126.867 135.96 126.222 136.17C125.577 136.395 124.962 136.65 124.377 136.8C123.777 136.92 123.222 136.905 122.772 136.845C122.322 136.77 121.977 136.635 121.752 136.515C121.642 136.455 121.562 136.405 121.512 136.365C121.452 136.325 121.422 136.3 121.422 136.29C121.437 136.275 121.542 136.365 121.782 136.47C122.007 136.575 122.352 136.695 122.787 136.74C123.237 136.8 123.777 136.8 124.347 136.665C124.917 136.53 125.532 136.275 126.177 136.05C126.837 135.825 127.497 135.675 128.097 135.705C128.712 135.735 129.237 135.87 129.657 136.05C130.092 136.23 130.392 136.44 130.587 136.59C130.687 136.67 130.762 136.735 130.812 136.785C130.862 136.835 130.887 136.86 130.887 136.86Z" fill="#263238"/>
<path d="M130.768 137.415C130.753 137.43 130.363 137.04 129.568 136.695C129.178 136.53 128.668 136.41 128.098 136.395C127.528 136.38 126.913 136.515 126.283 136.725C125.653 136.935 125.068 137.175 124.498 137.325C123.943 137.475 123.403 137.535 122.968 137.505C122.518 137.475 122.173 137.34 121.963 137.235C121.853 137.175 121.773 137.125 121.723 137.085C121.673 137.045 121.648 137.02 121.648 137.01C121.648 136.995 121.768 137.085 121.978 137.175C122.203 137.28 122.548 137.385 122.968 137.4C123.403 137.43 123.913 137.37 124.468 137.205C125.023 137.055 125.608 136.8 126.238 136.59C126.868 136.38 127.513 136.245 128.098 136.275C128.683 136.29 129.208 136.425 129.613 136.605C130.018 136.785 130.303 136.995 130.498 137.145C130.598 137.225 130.668 137.29 130.708 137.34C130.758 137.38 130.778 137.405 130.768 137.415Z" fill="white"/>
<path d="M131.023 136.32C131.008 136.335 130.588 135.915 129.733 135.555C129.313 135.375 128.773 135.21 128.173 135.18C127.558 135.135 126.898 135.285 126.238 135.525C125.563 135.75 124.933 136.02 124.318 136.14C123.703 136.26 123.133 136.215 122.668 136.14C122.203 136.065 121.843 135.93 121.618 135.81C121.498 135.75 121.408 135.695 121.348 135.645C121.298 135.605 121.273 135.585 121.273 135.585C121.288 135.57 121.393 135.66 121.633 135.765C121.873 135.87 122.233 135.99 122.683 136.05C123.148 136.11 123.703 136.14 124.303 136.02C124.888 135.9 125.518 135.615 126.193 135.39C126.868 135.165 127.543 135 128.173 135.045C128.803 135.09 129.343 135.27 129.778 135.465C130.198 135.66 130.513 135.885 130.723 136.035C130.823 136.115 130.898 136.18 130.948 136.23C130.998 136.28 131.023 136.31 131.023 136.32Z" fill="white"/>
<path d="M133.45 132.81C133.45 132.84 130.24 132.87 126.295 132.87C122.335 132.87 119.125 132.84 119.125 132.81C119.125 132.765 122.335 132.735 126.295 132.735C130.24 132.735 133.45 132.765 133.45 132.81Z" fill="#263238"/>
<path d="M24.0234 127.62C24.0234 126.09 24.3834 124.575 25.0434 123.195C25.2684 122.73 25.5834 122.235 26.0784 122.1C26.5134 121.995 26.9784 122.175 27.2784 122.505C27.5784 122.82 27.7434 123.24 27.8334 123.675C28.1334 125.115 27.7134 126.6 27.3084 128.01C27.1434 128.625 26.9484 129.27 26.4834 129.72C26.0184 130.17 25.0134 130.41 24.5034 129.675C24.0984 129.09 24.0234 128.34 24.0234 127.62Z" fill="#EB5E10"/>
<g opacity="0.2">
<g opacity="0.2">
<g opacity="0.2">
<path opacity="0.2" d="M24.0234 127.62C24.0234 126.09 24.3834 124.575 25.0434 123.195C25.2684 122.73 25.5834 122.235 26.0784 122.1C26.5134 121.995 26.9784 122.175 27.2784 122.505C27.5784 122.82 27.7434 123.24 27.8334 123.675C28.1334 125.115 27.7134 126.6 27.3084 128.01C27.1434 128.625 26.9484 129.27 26.4834 129.72C26.0184 130.17 25.0134 130.41 24.5034 129.675C24.0984 129.09 24.0234 128.34 24.0234 127.62Z" fill="black"/>
</g>
</g>
</g>
<path d="M26.424 133.38C27.264 132.945 28.254 132.9 29.184 133.05C29.679 133.125 30.204 133.275 30.549 133.65C30.894 134.04 30.954 134.7 30.564 135.015C30.324 135.21 30.009 135.24 29.709 135.24C28.974 135.225 28.164 135.105 27.579 135.54C27.249 135.78 27.024 136.2 26.634 136.32C26.244 136.44 25.809 136.215 25.599 135.87C25.389 135.51 25.389 135.075 25.479 134.685C25.549 134.105 25.864 133.67 26.424 133.38Z" fill="#EB5E10"/>
<path d="M23.1718 130.635C22.7668 131.175 21.9568 131.205 21.1768 130.905C20.3968 130.605 19.8118 129.96 19.2868 129.3C18.6568 128.475 18.0868 127.605 17.5918 126.705C17.3068 126.18 17.0368 125.55 17.3068 125.025C17.5018 124.68 17.8918 124.47 18.2968 124.44C18.6868 124.395 19.0918 124.5 19.4668 124.635C20.4268 124.965 21.3118 125.49 22.0618 126.165C22.7068 126.735 23.2768 127.44 23.5168 128.28C23.7718 129.105 23.6668 130.065 23.0968 130.725" fill="#EB5E10"/>
<path d="M24.48 140.385C24.48 140.175 24.495 139.86 24.525 139.47C24.555 139.095 24.6 138.63 24.69 138.12C24.795 137.625 24.96 137.085 25.17 136.53C25.395 135.975 25.68 135.48 26.01 135.075C26.34 134.67 26.715 134.385 27.075 134.22C27.435 134.055 27.75 134.01 27.975 133.995C28.185 133.98 28.305 133.98 28.305 133.995C28.305 134.01 28.185 134.025 27.975 134.04C27.765 134.07 27.465 134.145 27.12 134.31C26.775 134.475 26.415 134.76 26.1 135.15C25.785 135.54 25.53 136.035 25.305 136.575C25.095 137.115 24.93 137.655 24.825 138.15C24.705 138.645 24.66 139.095 24.615 139.485C24.575 139.845 24.545 140.145 24.525 140.385C24.51 140.61 24.495 140.73 24.48 140.73C24.465 140.715 24.465 140.595 24.48 140.385Z" fill="#263238"/>
<path d="M24.52 139.875C24.51 139.755 24.5 139.605 24.49 139.425C24.475 139.05 24.46 138.495 24.475 137.805C24.475 136.425 24.58 134.535 24.805 132.45C25.045 130.365 25.36 128.49 25.66 127.155C25.73 126.825 25.8 126.525 25.87 126.255C25.945 125.985 26.005 125.76 26.05 125.58C26.11 125.41 26.155 125.27 26.185 125.16C26.215 125.06 26.23 125.01 26.23 125.01C26.24 125.01 26.235 125.06 26.215 125.16C26.185 125.28 26.15 125.425 26.11 125.595C26.065 125.775 26.005 126.015 25.945 126.27C25.885 126.54 25.82 126.845 25.75 127.185C25.48 128.52 25.18 130.395 24.94 132.465C24.715 134.55 24.595 136.44 24.565 137.805C24.55 138.495 24.55 139.05 24.55 139.425C24.55 139.605 24.55 139.755 24.55 139.875C24.55 139.975 24.545 140.025 24.535 140.025C24.535 140.025 24.53 139.975 24.52 139.875Z" fill="#263238"/>
<path d="M24.4952 135.915C24.4652 135.615 24.4052 135.195 24.3152 134.67C24.2102 134.16 24.0752 133.545 23.8802 132.87C23.6852 132.195 23.4302 131.475 23.1152 130.74C22.4852 129.255 21.6602 128.04 20.9402 127.26C20.2052 126.495 19.6352 126.165 19.6652 126.135C19.6652 126.12 19.8002 126.21 20.0552 126.375C20.1152 126.425 20.1802 126.475 20.2502 126.525C20.3252 126.57 20.4002 126.645 20.4752 126.705C20.6402 126.855 20.8352 127.005 21.0002 127.2C21.7502 127.965 22.6052 129.18 23.2352 130.68C23.5652 131.43 23.8202 132.15 24.0002 132.84C24.1952 133.515 24.3152 134.13 24.4052 134.655C24.4952 135.18 24.5252 135.615 24.5552 135.9C24.5552 136.2 24.5552 136.365 24.5552 136.365C24.5402 136.365 24.5252 136.2 24.4952 135.915Z" fill="#263238"/>
<path d="M68.7935 15.1201C68.7935 15.1201 68.8435 15.1201 68.9435 15.1201C69.0535 15.1201 69.2035 15.1251 69.3935 15.1351C69.5885 15.1351 69.8285 15.1651 70.1135 15.1951C70.2635 15.2251 70.4135 15.2401 70.5785 15.2701C70.7385 15.3101 70.9135 15.3551 71.1035 15.4051C71.8235 15.6001 72.7085 15.9151 73.5935 16.5151C74.4935 17.1001 75.4085 17.9551 76.1285 19.0951C76.8485 20.2351 77.3885 21.6751 77.4485 23.2651C77.5535 24.8551 77.1935 26.5951 76.2785 28.1401C75.3785 29.7001 73.8935 31.0051 72.1085 31.7701C71.2085 32.1451 70.2185 32.3551 69.2135 32.4001C68.2085 32.4751 67.1735 32.3251 66.1835 32.0251L66.0935 31.9951H66.1685C64.4435 32.5951 62.7485 33.1801 61.1135 33.7501L60.9035 33.8251L60.9635 33.6151C61.4285 32.1601 61.8635 30.7501 62.2835 29.4001L62.2985 29.5051C61.3385 28.4101 60.6785 27.1201 60.3635 25.8151C60.0335 24.5101 60.0485 23.2051 60.2735 22.0201C60.5135 20.8351 60.9935 19.7701 61.5785 18.9001C62.1785 18.0301 62.8835 17.3401 63.5885 16.8151C63.9335 16.5301 64.2935 16.3351 64.6235 16.1251C64.9835 15.9601 65.3135 15.7801 65.6435 15.6751C65.9585 15.5551 66.2585 15.4351 66.5435 15.3901C66.8285 15.3151 67.0835 15.2401 67.3235 15.2251C67.5635 15.1951 67.7735 15.1501 67.9535 15.1351C68.1335 15.1351 68.2885 15.1301 68.4185 15.1201C68.5285 15.1201 68.6185 15.1201 68.6885 15.1201C68.7585 15.1201 68.7935 15.1201 68.7935 15.1201C68.7935 15.1201 68.7585 15.1251 68.6885 15.1351C68.6185 15.1451 68.5285 15.1551 68.4185 15.1651C68.2885 15.1751 68.1335 15.1851 67.9535 15.1951C67.7735 15.2101 67.5785 15.2551 67.3385 15.2851C67.0985 15.3151 66.8435 15.3901 66.5735 15.4651C66.2885 15.5251 65.9885 15.6451 65.6735 15.7651C65.3585 15.8851 65.0285 16.0651 64.6835 16.2301C64.3535 16.4401 63.9935 16.6351 63.6635 16.9201C62.9735 17.4451 62.2835 18.1201 61.7135 18.9901C61.1285 19.8451 60.6785 20.8801 60.4535 22.0501C60.2285 23.2051 60.2285 24.4951 60.5435 25.7701C60.8735 27.0451 61.5185 28.2901 62.4635 29.3551L62.5085 29.4001L62.4785 29.4601C62.0735 30.8101 61.6235 32.2201 61.1735 33.6751L61.0385 33.5401C62.6735 32.9701 64.3685 32.3851 66.0935 31.7851L66.1235 31.7701L66.1685 31.7851L66.2585 31.8151C67.2185 32.1151 68.2235 32.2501 69.1985 32.1751C70.1735 32.1301 71.1485 31.9351 72.0185 31.5601C73.7735 30.8251 75.2285 29.5501 76.0985 28.0351C76.9985 26.5351 77.3585 24.8251 77.2685 23.2801C77.2085 21.7201 76.6835 20.3101 75.9935 19.1851C75.2885 18.0601 74.4035 17.2051 73.5185 16.6201C72.6485 16.0201 71.7935 15.6901 71.0735 15.4801C70.8935 15.4301 70.7235 15.3851 70.5635 15.3451C70.3985 15.3151 70.2485 15.3001 70.1135 15.2701C69.8285 15.2101 69.5885 15.1801 69.3935 15.1801C69.2035 15.1601 69.0535 15.1451 68.9435 15.1351C68.8435 15.1351 68.7935 15.1301 68.7935 15.1201Z" fill="#74C247"/>
<path d="M63.7109 24.3453L65.0459 23.0103L67.6109 25.2903L72.6359 20.4453L73.8809 21.7803L67.4159 27.8553L63.7109 24.3453Z" fill="#74C247"/>
</svg>
