<svg width="116" height="99" viewBox="0 0 116 99" fill="none" xmlns="http://www.w3.org/2000/svg">
<path d="M2.76492 54.1982C-7.30508 92.2142 26.6226 87.4892 59.9296 75.7307C93.2366 63.9857 116.86 93.2334 114.973 60.4284C112.838 23.5734 99.5573 30.6744 86.2763 19.7664C76.2316 11.5247 70.3796 0.92041 56.4779 0.92041C24.1653 0.92041 12.8286 16.1754 2.76492 54.1982Z" fill="#F2E9E4"/>
<path d="M19.1365 47.0838C19.1872 46.9826 20.3398 46.1051 20.5615 45.4841C20.7832 44.8631 20.6122 43.9316 20.3652 43.8303C20.1118 43.7291 19.3265 44.9238 19.2632 44.9306C19.1998 44.9306 19.4468 44.5053 19.4912 44.3636C19.5418 44.2218 19.5038 44.1611 19.4405 44.1408C19.3772 44.1273 18.7312 44.7753 18.6235 44.9981C18.5517 45.1421 18.4251 45.7136 18.2435 46.7126C18.5559 47.5136 18.8536 47.6373 19.1365 47.0838Z" fill="#F9AF79"/>
<path d="M18.7674 46.3884C18.4465 46.2354 18.2565 46.1679 18.1974 46.1859C16.2594 49.1469 15.1933 50.7624 14.9991 51.0324C14.8049 51.2979 12.9049 52.8662 9.29909 55.7372L10.0528 60.9077C14.3045 56.1872 16.669 53.4782 17.1461 52.7807C17.9356 51.6377 18.6682 49.6712 19.3438 46.8812C19.2129 46.6697 19.0208 46.5054 18.7674 46.3884Z" fill="#466FB5"/>
<path d="M93.9688 81.3262C93.9624 81.5084 93.9561 81.6704 93.9434 81.7717C93.9561 81.6704 93.9624 81.5084 93.9688 81.3262Z" fill="#ECEBE8"/>
<path d="M99.1296 68.3598C99.2119 68.5893 99.3893 68.7783 99.5539 68.9471C99.7313 69.1293 99.9149 69.2981 100.067 69.5006C100.168 69.6423 100.219 69.7976 100.194 69.9528C99.8833 69.8583 99.7503 69.4871 99.4906 69.3048C99.2816 69.1563 98.9143 69.0888 98.7496 69.3453C98.5913 69.5816 98.7179 69.9055 98.8763 70.1013C99.1169 70.405 99.4906 70.4591 99.8009 70.6481C99.9276 70.7156 100.016 70.8033 100.092 70.9383C100.105 70.9653 100.194 71.1138 100.168 71.1341C100.124 71.1746 99.9909 71.1273 99.9466 71.1138C99.8389 71.0733 99.7186 71.0261 99.6236 70.9653C99.2563 70.7021 98.9523 70.1351 98.4393 70.3443C98.2556 70.4186 98.1289 70.5671 98.1479 70.7898C98.1669 71.0058 98.2936 71.2016 98.4266 71.3568C98.5723 71.5323 98.7496 71.6673 98.9713 71.7146C99.1676 71.7416 99.3639 71.7213 99.5666 71.7416C99.6679 71.7551 99.7566 71.7888 99.8453 71.8496C99.8833 71.8766 99.9276 71.9036 99.9529 71.9441C99.9572 71.9486 99.9593 71.9531 99.9593 71.9576C99.955 71.9665 99.9466 71.9756 99.9339 71.9846C99.9086 71.9981 99.8769 72.0048 99.8453 72.0116C99.7693 72.0318 99.6869 72.0386 99.6046 72.0453C99.2626 72.0521 98.9333 71.8968 98.5976 71.9238C98.4709 71.944 98.2999 72.0048 98.3126 72.1736C98.3316 72.3828 98.5153 72.5988 98.6736 72.7068C99.0156 72.9498 99.4589 72.8958 99.8579 72.8486C99.7376 73.0241 99.4336 73.0781 99.2753 73.1321C99.0789 73.1996 98.7559 73.3346 98.9079 73.6046C99.0916 73.9421 99.4273 73.9556 99.7313 73.8206C99.8896 73.7531 100.042 73.6653 100.194 73.5776C100.251 73.5438 100.308 73.5101 100.365 73.4898C100.067 73.8071 99.3196 74.1041 99.7756 74.5091C100.308 74.9748 100.871 74.4146 101.131 73.8678C101.169 74.1108 101.239 74.3606 101.365 74.5698C101.46 74.7386 101.593 74.8871 101.758 74.9883C101.897 75.0828 102.068 75.1706 102.239 75.1706C102.55 75.1706 102.638 74.8601 102.575 74.5766C102.543 74.3943 102.467 74.2323 102.322 74.1108C102.239 74.0433 102.176 73.996 102.132 73.9151C102.423 74.0433 102.645 74.3268 102.898 74.5091C103.044 74.6036 103.221 74.6981 103.392 74.6846C103.607 74.6576 103.778 74.5361 103.93 74.3808C103.968 74.3471 103.968 74.2931 103.949 74.2526C103.778 73.9016 103.31 73.7868 102.993 73.6653C102.828 73.5911 102.638 73.5303 102.505 73.4088C102.41 73.3211 102.372 73.2266 102.391 73.1118C102.664 73.1388 102.854 73.3548 103.088 73.4966C103.278 73.6181 103.481 73.6653 103.702 73.6316C104.044 73.5776 104.507 73.3008 104.431 72.8688C104.399 72.6528 104.26 72.4571 104.063 72.3896C103.867 72.3288 103.645 72.3693 103.443 72.4031C103.341 72.4166 103.234 72.4368 103.132 72.4368C103.044 72.4301 102.949 72.4098 102.86 72.4031C102.765 72.3896 102.613 72.4031 102.569 72.2883C102.543 72.2411 102.505 72.1803 102.569 72.16C102.638 72.1466 102.708 72.1466 102.778 72.1398C102.841 72.1398 102.892 72.1263 102.949 72.0926C103.183 72.0048 103.424 71.9508 103.658 71.8698C103.88 71.7888 104.127 71.6808 104.285 71.485C104.431 71.3028 104.551 71.0868 104.608 70.8506C104.646 70.6818 104.671 70.4658 104.564 70.3106C104.456 70.1351 104.241 70.1283 104.063 70.1823C103.829 70.2633 103.639 70.4186 103.468 70.6075C103.31 70.7831 103.158 71.0058 102.949 71.1206C102.771 71.2151 102.512 71.2961 102.315 71.2488C102.271 71.242 102.195 71.2218 102.182 71.1678C102.163 71.1003 102.201 71.0193 102.239 70.9518C102.493 70.5266 102.987 70.4995 103.367 70.27C103.563 70.1485 103.721 69.9731 103.835 69.7773C103.93 69.5951 104.025 69.3858 104.013 69.1766C104.006 69.0078 103.93 68.8323 103.759 68.785C103.557 68.7378 103.297 68.8053 103.126 68.9336C102.746 69.2171 102.613 69.7503 102.246 70.0473C102.157 70.1283 102.024 70.1688 101.904 70.1891C101.853 70.1958 101.764 70.216 101.72 70.1688C101.606 70.054 101.809 69.7638 101.878 69.6828C102.208 69.3116 102.708 69.1901 102.961 68.7378C103.069 68.5286 103.177 68.2788 103.164 68.0425C103.158 67.894 103.094 67.7186 102.936 67.6848C102.588 67.6173 102.29 68.0155 102.1 68.2788C101.986 68.434 101.872 68.6028 101.745 68.7513C101.682 68.8188 101.562 68.974 101.479 68.8863C101.397 68.7985 101.473 68.6501 101.517 68.5623C101.593 68.4138 101.688 68.2721 101.79 68.1303C101.999 67.8468 102.189 67.5296 102.132 67.1516C102.075 66.7128 101.764 66.3686 101.543 66.0243C101.524 65.9973 101.486 65.9771 101.454 65.9771H101.435C101.403 65.9771 101.378 65.9906 101.365 66.0243C101.264 66.2471 101.061 66.3281 100.909 66.4968C100.764 66.6453 100.637 66.8681 100.586 67.0773C100.491 67.4756 100.643 67.8941 100.517 68.2923C100.51 68.3126 100.504 68.3328 100.491 68.3598C100.479 68.3598 100.46 68.3531 100.46 68.3396C100.396 68.2923 100.32 68.1843 100.276 68.0966C100.118 67.8401 99.9909 67.57 99.8579 67.3C99.8326 67.246 99.7629 67.2191 99.7186 67.2528C99.5413 67.3743 99.3703 67.5026 99.2373 67.6781C99.0979 67.8738 99.0409 68.1236 99.1296 68.3598Z" fill="#9DB2D9"/>
<path d="M91.8976 75.8318C92.1256 75.906 92.3663 75.879 92.5943 75.8385C92.835 75.8115 93.082 75.7575 93.3226 75.7643C93.4873 75.7643 93.633 75.8115 93.728 75.9263C93.4746 76.1355 93.1136 76.014 92.816 76.1153C92.5816 76.203 92.303 76.473 92.3853 76.7633C92.4676 77.04 92.7843 77.1345 93.025 77.1278C93.3923 77.1075 93.671 76.8308 94.0003 76.689C94.127 76.6283 94.2536 76.608 94.393 76.6215C94.4246 76.6283 94.5893 76.6485 94.5893 76.689C94.5893 76.743 94.469 76.8308 94.431 76.851C94.336 76.9253 94.2283 76.9928 94.1206 77.0333C93.7026 77.1818 93.101 77.0805 92.9363 77.6408C92.873 77.85 92.911 78.0458 93.082 78.1605C93.253 78.2753 93.4746 78.2888 93.671 78.282C93.8926 78.2618 94.108 78.201 94.2726 78.0458C94.4183 77.904 94.526 77.7218 94.659 77.5598C94.735 77.4855 94.8173 77.4315 94.9186 77.3978C94.9566 77.3843 95.0073 77.364 95.0516 77.364C95.0601 77.364 95.0664 77.364 95.0706 77.364C95.0706 77.3708 95.0706 77.391 95.0706 77.4045C95.058 77.436 95.0453 77.4675 95.0326 77.499C94.9946 77.58 94.9503 77.6475 94.906 77.7218C94.7033 78.012 94.3803 78.1875 94.1966 78.4913C94.1333 78.606 94.07 78.7883 94.203 78.8828C94.3676 78.9908 94.64 78.9705 94.8173 78.903C95.21 78.768 95.4443 78.3698 95.6596 78.012C95.7103 78.2078 95.571 78.5048 95.5076 78.6668C95.4316 78.876 95.3303 79.2203 95.6343 79.2675C95.989 79.3215 96.2043 79.0448 96.2993 78.714C96.3436 78.5318 96.369 78.3495 96.4006 78.1673C96.4133 78.1065 96.426 78.0458 96.445 77.9783C96.4893 78.417 96.255 79.2338 96.825 79.0988C97.5026 78.9435 97.433 78.12 97.1986 77.5733C97.4076 77.688 97.623 77.7825 97.8573 77.8095C98.041 77.8298 98.2373 77.8163 98.4083 77.742C98.5666 77.6813 98.7376 77.5935 98.839 77.4518C99.029 77.1885 98.8643 76.9253 98.6173 76.797C98.459 76.716 98.288 76.6755 98.1106 76.7228C98.0093 76.7498 97.9333 76.77 97.851 76.7565C98.1233 76.6013 98.4653 76.581 98.763 76.4798C98.9213 76.4258 99.0923 76.3313 99.1936 76.176C99.314 75.9938 99.333 75.7643 99.314 75.5415C99.3076 75.4943 99.2696 75.4538 99.2253 75.447C98.858 75.3728 98.4843 75.69 98.193 75.879C98.0473 75.9803 97.8826 76.095 97.7116 76.1355C97.585 76.1625 97.49 76.1355 97.414 76.0478C97.6103 75.8385 97.8826 75.8115 98.136 75.6968C98.345 75.6158 98.5033 75.4808 98.611 75.2648C98.782 74.9475 98.8706 74.3873 98.5033 74.1848C98.326 74.0835 98.0916 74.07 97.927 74.1983C97.756 74.3265 97.6483 74.529 97.547 74.718C97.4963 74.826 97.4456 74.9205 97.376 75.0015C97.3253 75.0825 97.2493 75.15 97.186 75.2175C97.1226 75.2918 97.034 75.42 96.92 75.393C96.8756 75.3863 96.806 75.3728 96.825 75.312C96.8566 75.2445 96.9073 75.1838 96.9453 75.123C96.977 75.069 96.996 75.015 97.015 74.9475C97.091 74.6978 97.205 74.4683 97.2873 74.2253C97.3633 73.989 97.4393 73.7123 97.3886 73.4558C97.3506 73.2195 97.262 72.9833 97.129 72.7943C97.0213 72.6525 96.882 72.504 96.6983 72.4973C96.502 72.477 96.3626 72.6525 96.2993 72.828C96.2043 73.0778 96.2043 73.3343 96.236 73.5908C96.274 73.8338 96.3373 74.097 96.293 74.3468C96.2613 74.556 96.16 74.826 96.0016 74.9543C95.9636 74.988 95.9066 75.0353 95.856 75.015C95.7926 74.988 95.761 74.907 95.7356 74.8395C95.5773 74.3603 95.8623 73.9283 95.9256 73.4625C95.9636 73.2263 95.932 72.99 95.856 72.7673C95.7863 72.5783 95.685 72.3758 95.5266 72.2475C95.3873 72.1463 95.2163 72.1058 95.077 72.2273C94.9186 72.369 94.811 72.6255 94.7983 72.8483C94.773 73.341 95.077 73.773 95.0706 74.2658C95.0706 74.394 95.0263 74.529 94.963 74.6438C94.9376 74.691 94.8933 74.7788 94.8363 74.7923C94.678 74.8125 94.5893 74.4615 94.5766 74.3468C94.507 73.854 94.7223 73.3545 94.545 72.8685C94.4626 72.6458 94.3423 72.4028 94.1586 72.2678C94.0446 72.18 93.88 72.126 93.7596 72.234C93.4873 72.4838 93.6013 72.9833 93.6773 73.3005C93.728 73.4963 93.7786 73.6853 93.804 73.8945C93.8166 73.989 93.8546 74.1848 93.7406 74.1983C93.633 74.205 93.5633 74.0565 93.5253 73.962C93.462 73.8068 93.4176 73.638 93.3733 73.4625C93.291 73.1183 93.177 72.7605 92.8666 72.5715C92.512 72.3555 92.0623 72.4028 91.6696 72.3758C91.6 72.369 91.5176 72.4365 91.562 72.5175C91.6633 72.7403 91.5936 72.963 91.6253 73.1993C91.6443 73.4085 91.733 73.6448 91.8533 73.8203C92.0876 74.1443 92.493 74.286 92.7083 74.637C92.721 74.6505 92.7336 74.6708 92.74 74.6978C92.7336 74.7045 92.7146 74.7113 92.7146 74.7113C92.6323 74.7383 92.5056 74.7315 92.4106 74.718C92.1256 74.691 91.847 74.6235 91.562 74.5695C91.5113 74.5628 91.4543 74.6033 91.448 74.664C91.429 74.88 91.4163 75.1095 91.467 75.3188C91.524 75.5618 91.6633 75.7643 91.8976 75.8318Z" fill="#9DB2D9"/>
<path d="M104.855 69.8581C104.817 70.1078 104.874 70.3643 104.937 70.6006C105 70.8503 105.076 71.1001 105.102 71.3566C105.121 71.5321 105.102 71.6873 105 71.8088C104.772 71.5658 104.842 71.1676 104.709 70.8706C104.601 70.6343 104.316 70.3711 104.057 70.4993C103.803 70.6141 103.753 70.9651 103.797 71.2148C103.86 71.5996 104.152 71.8628 104.329 72.1936C104.392 72.3218 104.43 72.4501 104.437 72.5986C104.437 72.6391 104.437 72.8078 104.405 72.8078C104.348 72.8281 104.259 72.7066 104.228 72.6661C104.152 72.5783 104.076 72.4771 104.019 72.3623C103.835 71.9438 103.848 71.2891 103.303 71.1811C103.113 71.1541 102.929 71.2081 102.841 71.4106C102.758 71.5996 102.771 71.8358 102.803 72.0451C102.841 72.2813 102.929 72.4973 103.1 72.6526C103.252 72.7876 103.436 72.8753 103.594 72.9968C103.677 73.0711 103.74 73.1521 103.784 73.2533C103.803 73.2938 103.822 73.3411 103.835 73.3883C103.835 73.3928 103.835 73.3996 103.835 73.4086C103.822 73.4086 103.81 73.4086 103.797 73.4086C103.767 73.3996 103.738 73.3928 103.708 73.3883C103.626 73.3613 103.556 73.3208 103.487 73.2871C103.189 73.1048 102.98 72.7876 102.676 72.6256C102.562 72.5716 102.385 72.5311 102.315 72.6863C102.226 72.8753 102.29 73.1588 102.366 73.3411C102.543 73.7326 102.948 73.9283 103.309 74.1106C103.126 74.1916 102.841 74.0836 102.676 74.0363C102.48 73.9756 102.138 73.9148 102.131 74.2456C102.131 74.6236 102.41 74.8261 102.733 74.8801C102.904 74.9003 103.075 74.9071 103.252 74.9206C103.309 74.9273 103.379 74.9273 103.436 74.9341C103.031 75.0421 102.245 74.8936 102.442 75.4876C102.67 76.1828 103.43 76.0073 103.911 75.6833C103.822 75.9196 103.765 76.1626 103.772 76.4123C103.778 76.6081 103.816 76.8106 103.905 76.9861C103.987 77.1413 104.082 77.3168 104.234 77.4046C104.5 77.5801 104.728 77.3641 104.81 77.0873C104.867 76.9051 104.88 76.7228 104.817 76.5473C104.779 76.4393 104.747 76.3651 104.753 76.2706C104.937 76.5338 104.988 76.8983 105.121 77.2021C105.197 77.3641 105.304 77.5328 105.463 77.6206C105.653 77.7218 105.862 77.7151 106.064 77.6678C106.115 77.6476 106.14 77.6071 106.14 77.5598C106.166 77.1616 105.824 76.8106 105.608 76.5271C105.501 76.3786 105.368 76.2233 105.311 76.0478C105.273 75.9128 105.285 75.8116 105.355 75.7238C105.57 75.9061 105.634 76.1828 105.767 76.4393C105.881 76.6486 106.026 76.7971 106.235 76.8916C106.552 77.0266 107.078 77.0468 107.23 76.6283C107.306 76.4326 107.274 76.1896 107.141 76.0343C107.002 75.8656 106.793 75.7778 106.609 75.6901C106.508 75.6496 106.413 75.6158 106.324 75.5483C106.242 75.5011 106.178 75.4336 106.102 75.3728C106.026 75.3121 105.893 75.2311 105.9 75.1163C105.912 75.0691 105.906 74.9881 105.963 75.0016C106.033 75.0286 106.096 75.0758 106.159 75.1096C106.216 75.1366 106.267 75.1501 106.33 75.1636C106.571 75.2108 106.805 75.2986 107.04 75.3526C107.268 75.4066 107.534 75.4471 107.768 75.3661C107.983 75.2986 108.186 75.1703 108.344 75.0016C108.465 74.8801 108.585 74.7046 108.579 74.5156C108.56 74.2996 108.382 74.1781 108.211 74.1376C107.971 74.0633 107.73 74.0971 107.489 74.1646C107.268 74.2321 107.033 74.3333 106.793 74.3198C106.596 74.3131 106.337 74.2388 106.191 74.0903C106.159 74.0566 106.102 74.0026 106.121 73.9486C106.14 73.8743 106.21 73.8271 106.267 73.8001C106.698 73.5706 107.128 73.8136 107.572 73.8203C107.793 73.8271 108.009 73.7663 108.205 73.6516C108.376 73.5571 108.56 73.4288 108.648 73.2466C108.731 73.0846 108.743 72.8956 108.617 72.7606C108.471 72.6121 108.211 72.5311 108.009 72.5513C107.54 72.5783 107.173 72.9631 106.717 73.0171C106.596 73.0306 106.463 72.9968 106.349 72.9496C106.305 72.9361 106.216 72.8888 106.204 72.8348C106.159 72.6661 106.476 72.5311 106.577 72.5041C107.033 72.3691 107.527 72.5311 107.958 72.2813C108.148 72.1733 108.363 72.0113 108.465 71.8021C108.534 71.6671 108.56 71.4916 108.446 71.3701C108.18 71.1203 107.724 71.3026 107.439 71.4173C107.268 71.4983 107.09 71.5793 106.913 71.6333C106.824 71.6603 106.641 71.7211 106.615 71.5996C106.59 71.4916 106.723 71.3971 106.805 71.3498C106.945 71.2553 107.097 71.1946 107.249 71.1203C107.559 70.9853 107.882 70.8233 108.015 70.4723C108.173 70.0673 108.078 69.5948 108.053 69.1763C108.04 69.1088 107.971 69.0346 107.901 69.0818C107.705 69.2236 107.489 69.1763 107.274 69.2371C107.084 69.2911 106.869 69.4058 106.723 69.5543C106.451 69.8513 106.375 70.2901 106.083 70.5668C106.064 70.5871 106.045 70.5938 106.026 70.6073C106.022 70.6073 106.02 70.6073 106.02 70.6073C106.014 70.6006 106.007 70.5871 106.001 70.5736C105.976 70.4993 105.963 70.3643 105.963 70.2698C105.95 69.9593 105.976 69.6556 105.995 69.3518C105.995 69.2911 105.944 69.2438 105.893 69.2438C105.691 69.2438 105.475 69.2573 105.279 69.3451C105.057 69.4328 104.893 69.6083 104.855 69.8581Z" fill="#9DB2D9"/>
<path d="M95.6057 72.9766C95.7957 73.1318 96.0237 73.2061 96.2517 73.2601C96.4923 73.3208 96.733 73.3681 96.9547 73.4761C97.1067 73.5368 97.227 73.6313 97.2777 73.7866C96.9673 73.8743 96.676 73.6246 96.3657 73.6043C96.1187 73.5908 95.764 73.7258 95.7387 74.0363C95.7197 74.3198 95.9793 74.5358 96.2073 74.6236C96.562 74.7518 96.9103 74.6033 97.265 74.5966C97.4043 74.5966 97.531 74.6236 97.6513 74.6978C97.683 74.7113 97.8287 74.7923 97.816 74.8261C97.797 74.8801 97.6577 74.9071 97.6133 74.9273C97.4993 74.9476 97.3727 74.9746 97.2587 74.9678C96.8217 74.9408 96.296 74.6101 95.9477 75.0691C95.821 75.2311 95.783 75.4336 95.9033 75.6023C96.0237 75.7778 96.2263 75.8791 96.41 75.9533C96.619 76.0208 96.8407 76.0478 97.0497 75.9601C97.2397 75.8858 97.398 75.7643 97.5753 75.6766C97.6703 75.6293 97.7653 75.6158 97.873 75.6226C97.9173 75.6226 97.9617 75.6226 98.006 75.6361C98.0123 75.6428 98.025 75.6428 98.025 75.6496C98.025 75.6631 98.0123 75.6766 98.006 75.6833C97.9933 75.7103 97.968 75.7306 97.949 75.7576C97.8857 75.8183 97.8223 75.8656 97.7527 75.9128C97.4613 76.1018 97.1067 76.1423 96.828 76.3516C96.7203 76.4326 96.6063 76.5743 96.695 76.7161C96.809 76.8848 97.075 76.9726 97.2587 76.9861C97.6703 77.0131 98.0313 76.7363 98.3543 76.4798C98.329 76.6891 98.0947 76.8983 97.9807 77.0266C97.8413 77.1886 97.626 77.4788 97.892 77.6408C98.2023 77.8298 98.5 77.6543 98.7027 77.3911C98.804 77.2358 98.8863 77.0806 98.9877 76.9253C99.0172 76.8668 99.051 76.8106 99.089 76.7566C98.9813 77.1818 98.481 77.8568 99.0573 77.9581C99.735 78.0661 99.9567 77.2763 99.9313 76.6756C100.083 76.8646 100.254 77.0401 100.463 77.1548C100.628 77.2493 100.812 77.3101 101.002 77.3101C101.166 77.3168 101.356 77.3033 101.502 77.2088C101.768 77.0401 101.711 76.7363 101.521 76.5203C101.401 76.3786 101.255 76.2773 101.078 76.2503C100.976 76.2368 100.894 76.2233 100.824 76.1828C101.128 76.1356 101.458 76.2571 101.762 76.2773C101.933 76.2908 102.129 76.2773 102.268 76.1626C102.446 76.0411 102.541 75.8318 102.598 75.6226C102.61 75.5753 102.591 75.5281 102.553 75.5011C102.237 75.2918 101.781 75.4403 101.439 75.5011C101.274 75.5348 101.084 75.5753 100.907 75.5416C100.78 75.5146 100.698 75.4538 100.666 75.3458C100.919 75.2311 101.179 75.3121 101.451 75.3053C101.673 75.3053 101.869 75.2446 102.047 75.0893C102.313 74.8598 102.591 74.3806 102.313 74.0431C102.192 73.8743 101.977 73.7798 101.781 73.8271C101.572 73.8811 101.407 74.0228 101.242 74.1646C101.16 74.2388 101.084 74.3131 100.989 74.3671C100.913 74.4143 100.824 74.4346 100.742 74.4818C100.653 74.5223 100.52 74.6101 100.432 74.5358C100.394 74.5156 100.33 74.4751 100.368 74.4346C100.425 74.3806 100.489 74.3401 100.546 74.2996C100.603 74.2658 100.634 74.2253 100.672 74.1646C100.824 73.9621 101.014 73.7866 101.173 73.5976C101.331 73.4086 101.496 73.1791 101.54 72.9293C101.584 72.6931 101.584 72.4366 101.521 72.2071C101.477 72.0383 101.394 71.8358 101.223 71.7616C101.052 71.6671 100.862 71.7751 100.736 71.9168C100.565 72.1058 100.476 72.3421 100.419 72.6053C100.368 72.8416 100.337 73.1116 100.21 73.3343C100.102 73.5031 99.9187 73.7123 99.7223 73.7731C99.6843 73.7866 99.6083 73.8136 99.5703 73.7731C99.5197 73.7191 99.5197 73.6381 99.5197 73.5706C99.5387 73.0576 99.9503 72.7673 100.172 72.3623C100.286 72.1531 100.343 71.9236 100.343 71.6873C100.349 71.4848 100.324 71.2486 100.216 71.0731C100.128 70.9313 99.982 70.8233 99.811 70.8773C99.6147 70.9381 99.4247 71.1473 99.3423 71.3431C99.1397 71.7886 99.2727 72.3151 99.1017 72.7673C99.0573 72.8888 98.9623 72.9968 98.8737 73.0778C98.8293 73.1116 98.7533 73.1723 98.7027 73.1588C98.5443 73.1183 98.5887 72.7606 98.614 72.6526C98.7217 72.1598 99.0953 71.7818 99.0953 71.2553C99.0953 71.0258 99.07 70.7491 98.9497 70.5533C98.8737 70.4251 98.7343 70.3103 98.5887 70.3643C98.2467 70.4926 98.177 70.9921 98.139 71.3228C98.1137 71.5253 98.101 71.7211 98.0503 71.9168C98.0313 72.0113 97.9997 72.2206 97.8857 72.1801C97.7843 72.1463 97.7717 71.9843 97.7653 71.8763C97.7653 71.7076 97.7843 71.5321 97.8033 71.3566C97.8413 71.0056 97.8603 70.6208 97.6387 70.3238C97.379 69.9863 96.9483 69.8513 96.5937 69.6691C96.5367 69.6353 96.4353 69.6758 96.4417 69.7636C96.4607 70.0066 96.3213 70.1888 96.2643 70.4183C96.2137 70.6208 96.2073 70.8841 96.2643 71.0866C96.372 71.4848 96.695 71.7751 96.7773 72.1801C96.7837 72.2003 96.7837 72.2273 96.7837 72.2476C96.7837 72.2476 96.7837 72.2498 96.7837 72.2543C96.7773 72.2543 96.7583 72.2543 96.752 72.2543C96.676 72.2476 96.5557 72.1868 96.4733 72.1396C96.22 72.0046 95.9793 71.8291 95.7387 71.6738C95.6943 71.6401 95.6247 71.6603 95.5993 71.7143C95.498 71.9033 95.4093 72.1126 95.384 72.3286C95.3523 72.5783 95.422 72.8146 95.6057 72.9766Z" fill="#B0C2E4"/>
<path d="M96.6923 70.2904C96.8126 70.8439 96.9139 71.4109 97.0659 71.9576C97.2179 72.5044 97.4269 73.0174 97.7183 73.4899C98.2693 74.3809 98.9406 75.1639 99.5296 76.0144C99.5043 76.0549 99.5043 76.1021 99.5423 76.1494C99.8336 76.4464 99.9413 76.9054 100.005 77.3171C100.081 77.7694 100.1 78.2284 100.119 78.6806C100.138 79.2746 100.125 79.8619 100.093 80.4424C100.062 81.1106 100.03 81.7721 100.062 82.4336C100.074 82.5754 100.277 82.5754 100.271 82.4336C100.264 82.3931 100.264 82.3526 100.258 82.3121C100.233 81.6371 100.277 80.9554 100.302 80.2871C100.332 79.7111 100.336 79.1351 100.315 78.5591C100.296 78.0934 100.271 77.6074 100.182 77.1551C100.131 76.8851 100.062 76.6084 99.9413 76.3654C99.9603 76.3316 99.9666 76.2911 99.9413 76.2506C99.3079 75.2651 98.5289 74.4079 97.9146 73.4089C97.6233 72.9296 97.4079 72.4166 97.2559 71.8631C97.1103 71.3231 97.0026 70.7764 96.8886 70.2296C96.8569 70.0946 96.6606 70.1486 96.6923 70.2904Z" fill="#B0C2E4"/>
<path d="M100.428 82.4672C100.644 80.3679 102.278 78.8019 102.569 76.7162C102.588 76.5812 102.392 76.5204 102.373 76.6622C102.227 77.7017 101.727 78.6264 101.264 79.5444C100.789 80.4624 100.333 81.4074 100.219 82.4672C100.207 82.6089 100.409 82.6022 100.428 82.4672Z" fill="#B0C2E4"/>
<path d="M97.112 77.6951C97.9606 78.0934 98.784 78.6739 99.354 79.4501C99.9746 80.2939 100.082 81.3671 100.158 82.3999C100.165 82.5214 100.329 82.5349 100.361 82.4404C100.412 82.4336 100.469 82.3864 100.45 82.3121C100.456 82.3121 100.456 82.3054 100.456 82.2986C100.456 81.3469 100.608 80.3884 100.887 79.4704C101.108 78.7211 101.412 77.9921 101.824 77.3239C102.109 76.9999 102.432 76.7501 102.812 76.5476C103.243 76.3316 103.73 76.1426 103.927 75.6364C103.984 75.5081 103.8 75.4001 103.749 75.5284C103.553 76.0346 103.027 76.1831 102.609 76.4194C102.432 76.5139 102.261 76.6286 102.109 76.7569C102.071 76.7029 102.008 76.6759 101.963 76.7434C101.856 76.8851 101.761 77.0336 101.672 77.1754C101.647 77.2091 101.621 77.2361 101.596 77.2699C101.571 77.2969 101.564 77.3171 101.564 77.3509C101.197 77.9786 100.912 78.6671 100.697 79.3759C100.545 79.8754 100.431 80.3884 100.355 80.9014C100.424 79.9496 100.659 79.0181 100.798 78.0664C101.001 76.6691 101.159 75.2651 101.216 73.8544C101.222 73.7126 101.02 73.7126 101.013 73.8544C100.994 74.3674 100.956 74.8736 100.912 75.3731C100.804 76.6556 100.627 77.9246 100.399 79.1869C100.298 79.7269 100.203 80.2736 100.158 80.8136C100.038 80.2939 99.8543 79.7876 99.5313 79.3489C98.9486 78.5389 98.0936 77.9179 97.2196 77.5129C97.0993 77.4521 96.998 77.6411 97.112 77.6951Z" fill="#9DB2D9"/>
<path d="M102.95 70.7627C102.931 71.0192 103.013 71.2622 103.095 71.4985C103.178 71.7347 103.285 71.971 103.33 72.2342C103.361 72.4097 103.355 72.565 103.273 72.6932C103.019 72.4705 103.051 72.079 102.893 71.782C102.766 71.566 102.456 71.3365 102.208 71.485C101.974 71.6267 101.949 71.9845 102.018 72.2275C102.114 72.6055 102.43 72.835 102.633 73.1387C102.715 73.267 102.766 73.3885 102.779 73.537C102.785 73.5707 102.804 73.7395 102.766 73.7597C102.715 73.7665 102.614 73.6652 102.582 73.6315C102.494 73.5437 102.405 73.4492 102.348 73.348C102.114 72.943 102.069 72.295 101.525 72.2477C101.328 72.2342 101.151 72.3017 101.081 72.5177C101.018 72.7135 101.05 72.9497 101.107 73.159C101.164 73.3817 101.271 73.5842 101.455 73.726C101.62 73.8542 101.81 73.915 101.974 74.023C102.063 74.0837 102.133 74.158 102.19 74.2525C102.215 74.293 102.234 74.3335 102.247 74.3807C102.247 74.3897 102.247 74.3987 102.247 74.4077C102.24 74.4077 102.228 74.4145 102.215 74.4145C102.19 74.4145 102.152 74.4077 102.126 74.3942C102.044 74.374 101.968 74.347 101.892 74.3132C101.582 74.1647 101.347 73.8745 101.031 73.753C100.91 73.699 100.727 73.6787 100.676 73.8475C100.606 74.0365 100.688 74.32 100.784 74.482C100.992 74.86 101.417 75.022 101.797 75.1637C101.62 75.265 101.322 75.1705 101.157 75.1502C100.955 75.1165 100.606 75.0827 100.638 75.4135C100.663 75.7915 100.967 75.9602 101.29 75.9737C101.461 75.994 101.632 75.9737 101.81 75.967C101.867 75.967 101.93 75.9602 102 75.967C101.601 76.1155 100.803 76.048 101.056 76.615C101.347 77.2765 102.082 77.0335 102.538 76.6622C102.475 76.8985 102.437 77.155 102.462 77.398C102.487 77.5937 102.544 77.7895 102.646 77.9582C102.741 78.1067 102.855 78.262 103.007 78.343C103.292 78.4847 103.501 78.2485 103.558 77.965C103.596 77.7827 103.596 77.5937 103.513 77.4182C103.469 77.3237 103.431 77.2495 103.425 77.1617C103.634 77.4047 103.722 77.7625 103.881 78.046C103.969 78.2012 104.09 78.3632 104.254 78.424C104.451 78.5117 104.66 78.478 104.862 78.4105C104.907 78.3902 104.932 78.343 104.926 78.2957C104.919 77.9042 104.539 77.587 104.299 77.3237C104.178 77.1887 104.039 77.047 103.963 76.8782C103.912 76.75 103.912 76.6487 103.976 76.5542C104.21 76.7095 104.299 76.9795 104.451 77.2225C104.584 77.4115 104.742 77.5532 104.951 77.6207C105.287 77.7287 105.819 77.695 105.926 77.263C105.977 77.0605 105.933 76.8175 105.781 76.669C105.629 76.5205 105.413 76.4597 105.217 76.3922C105.122 76.3652 105.014 76.3315 104.919 76.2842C104.837 76.2437 104.767 76.183 104.691 76.129C104.603 76.0817 104.47 76.0142 104.47 75.886C104.47 75.8387 104.463 75.7645 104.52 75.778C104.59 75.7915 104.653 75.8252 104.723 75.859C104.78 75.8792 104.831 75.886 104.894 75.886C105.141 75.913 105.375 75.9737 105.622 76.0075C105.85 76.0412 106.123 76.0547 106.344 75.9535C106.547 75.859 106.743 75.7172 106.889 75.5282C106.997 75.3932 107.104 75.2042 107.073 75.022C107.041 74.806 106.851 74.7047 106.674 74.671C106.427 74.6372 106.192 74.6912 105.964 74.7857C105.743 74.8735 105.521 74.995 105.28 75.0152C105.084 75.022 104.818 74.9747 104.66 74.8397C104.622 74.806 104.565 74.7587 104.577 74.7047C104.59 74.6372 104.653 74.5765 104.71 74.536C105.116 74.2727 105.565 74.4685 106.009 74.428C106.23 74.4145 106.439 74.3335 106.629 74.1985C106.788 74.0905 106.952 73.942 107.028 73.7395C107.092 73.5842 107.092 73.3952 106.952 73.2737C106.794 73.132 106.528 73.0847 106.325 73.1185C105.869 73.2062 105.534 73.618 105.084 73.7192C104.97 73.7395 104.831 73.726 104.717 73.6922C104.666 73.6787 104.577 73.645 104.558 73.591C104.501 73.429 104.799 73.267 104.9 73.2197C105.344 73.0375 105.85 73.159 106.256 72.8552C106.433 72.7337 106.636 72.5515 106.718 72.3287C106.769 72.1937 106.781 72.0047 106.655 71.9102C106.37 71.6807 105.933 71.9035 105.66 72.0587C105.496 72.1465 105.325 72.2477 105.154 72.322C105.065 72.3557 104.894 72.4367 104.856 72.322C104.818 72.2072 104.945 72.106 105.021 72.0452C105.154 71.944 105.299 71.863 105.445 71.7752C105.743 71.6132 106.047 71.4107 106.148 71.053C106.268 70.6412 106.129 70.1755 106.066 69.7637C106.053 69.6895 105.971 69.622 105.907 69.6827C105.73 69.8447 105.508 69.8177 105.299 69.8987C105.116 69.9662 104.913 70.108 104.78 70.2767C104.533 70.594 104.495 71.0395 104.229 71.3432C104.21 71.3567 104.197 71.3702 104.178 71.3905C104.17 71.386 104.163 71.377 104.159 71.3635C104.115 71.2892 104.096 71.1542 104.09 71.0597C104.052 70.756 104.045 70.4522 104.033 70.1417C104.026 70.0877 103.982 70.0405 103.925 70.0405C103.722 70.0675 103.507 70.108 103.323 70.2025C103.114 70.324 102.962 70.513 102.95 70.7627Z" fill="#C4D1EB"/>
<path d="M97.9029 88.8593H102.305L103.742 82.791H96.5602L97.9029 88.8593Z" fill="#B0C2E4"/>
<path d="M104.227 82.0083H96.1832V82.7913H104.227V82.0083Z" fill="#9DB2D9"/>
<path d="M100.151 88.8593H102.305L103.742 82.791H100.151V88.8593Z" fill="#9DB2D9"/>
<path d="M104.227 82.0083H100.154V82.7913H104.227V82.0083Z" fill="#859AC6"/>
<path d="M97.9029 88.947H102.305L103.742 88.1235H96.5602L97.9029 88.947Z" fill="#9DB2D9"/>
<path d="M100.151 88.947H102.305L103.742 88.1235H100.151V88.947Z" fill="#859AC6"/>
<path d="M17.2386 98.215C10.1345 98.215 4.37557 97.3416 4.37557 96.2642C4.37557 95.1869 10.1345 94.3135 17.2386 94.3135C24.3426 94.3135 30.1016 95.1869 30.1016 96.2642C30.1016 97.3416 24.3426 98.215 17.2386 98.215Z" fill="#C4D1EB"/>
<path d="M103.37 60.4691C98.616 60.4691 94.7626 56.3621 94.7626 51.2958C94.7626 46.2296 98.616 42.1226 103.37 42.1226C108.123 42.1226 111.977 46.2296 111.977 51.2958C111.977 56.3621 108.123 60.4691 103.37 60.4691Z" fill="#C4D1EB"/>
<path d="M110.656 51.2959C110.656 51.5119 110.815 51.6739 111.005 51.6739C111.201 51.6739 111.359 51.5119 111.359 51.2959C111.359 50.9246 111.334 50.5466 111.29 50.1686C111.239 49.7906 111.176 49.4194 111.081 49.0684C111.03 48.8659 110.84 48.7511 110.65 48.7984C110.46 48.8591 110.352 49.0616 110.403 49.2641C110.485 49.5949 110.549 49.9324 110.593 50.2699C110.637 50.6006 110.656 50.9449 110.656 51.2959ZM109.953 47.9614C110.036 48.1504 110.245 48.2314 110.422 48.1436C110.593 48.0491 110.669 47.8264 110.587 47.6441C110.169 46.7126 109.599 45.8756 108.908 45.1669C108.224 44.4581 107.414 43.8844 106.527 43.4794C106.35 43.3984 106.141 43.4861 106.065 43.6751C105.982 43.8641 106.065 44.0869 106.248 44.1679C107.059 44.5391 107.794 45.0656 108.421 45.7069C109.054 46.3481 109.567 47.1109 109.953 47.9614Z" fill="white"/>
<path d="M102.959 38.5789C101.046 38.8286 99.5516 40.7524 99.4883 43.1149C100.654 42.4804 101.977 42.1294 103.377 42.1294C104.77 42.1294 106.094 42.4804 107.266 43.1149C107.196 40.7524 105.695 38.8286 103.789 38.5789V29.6014C103.516 29.4124 103.238 29.2301 102.959 29.0479V38.5789Z" fill="#EB5E10"/>
<path fill-rule="evenodd" clip-rule="evenodd" d="M106.722 46.854C106.083 46.854 105.563 47.4008 105.563 48.0825C105.563 48.7643 106.083 49.311 106.722 49.311C107.356 49.311 107.875 48.7643 107.875 48.0825C107.875 47.4008 107.356 46.854 106.722 46.854ZM106.741 53.6445C105.823 52.8615 104.645 52.4363 103.448 52.416C102.251 52.4093 101.041 52.821 100.041 53.7188C99.7747 53.9685 99.5213 54.2318 99.2997 54.5355C99.059 54.8595 99.1033 55.332 99.4073 55.5818C99.7113 55.845 100.155 55.791 100.402 55.467C100.566 55.2375 100.756 55.035 100.94 54.8663C101.675 54.2115 102.568 53.9078 103.448 53.9213C104.322 53.928 105.19 54.2318 105.867 54.8123C106.051 54.9675 106.222 55.143 106.368 55.3253C106.615 55.6425 107.058 55.6763 107.356 55.413C107.647 55.1498 107.685 54.6773 107.438 54.36C107.223 54.09 106.988 53.847 106.741 53.6445ZM100.028 46.854C99.3883 46.854 98.8753 47.4008 98.8753 48.0825C98.8753 48.7643 99.3883 49.311 100.028 49.311C100.668 49.311 101.187 48.7643 101.187 48.0825C101.187 47.4008 100.668 46.854 100.028 46.854Z" fill="#EB5E10"/>
<path d="M86.1586 60.4691C81.4051 60.4691 77.5516 56.3621 77.5516 51.2958C77.5516 46.2296 81.4051 42.1226 86.1586 42.1226C90.9121 42.1226 94.7656 46.2296 94.7656 51.2958C94.7656 56.3621 90.9121 60.4691 86.1586 60.4691Z" fill="#C4D1EB"/>
<path d="M93.4376 51.2959C93.4376 51.5119 93.5896 51.6739 93.786 51.6739C93.9823 51.6739 94.1406 51.5119 94.1406 51.2959C94.1406 50.9246 94.1153 50.5466 94.071 50.1686C94.0203 49.7906 93.9506 49.4194 93.862 49.0684C93.8113 48.8659 93.615 48.7511 93.4313 48.7984C93.2413 48.8591 93.1273 49.0616 93.178 49.2641C93.2666 49.5949 93.33 49.9324 93.3743 50.2699C93.4123 50.6006 93.4376 50.9449 93.4376 51.2959ZM92.7283 47.9614C92.8106 48.1504 93.0196 48.2314 93.197 48.1436C93.3743 48.0491 93.444 47.8264 93.368 47.6441C92.95 46.7126 92.3736 45.8756 91.6896 45.1669C90.9993 44.4581 90.1886 43.8844 89.302 43.4794C89.1246 43.3984 88.9156 43.4861 88.8396 43.6751C88.7636 43.8641 88.846 44.0869 89.0233 44.1679C89.834 44.5391 90.575 45.0656 91.202 45.7069C91.829 46.3481 92.3483 47.1109 92.7283 47.9614Z" fill="white"/>
<path d="M85.7465 38.5786C83.8339 38.8283 82.3392 40.7521 82.2695 43.1146C83.4349 42.4801 84.7585 42.129 86.1582 42.129C87.5579 42.129 88.8815 42.4801 90.0469 43.1146C89.9835 40.7521 88.4825 38.8283 86.5762 38.5786V20.0025C86.4749 19.9215 86.3757 19.8428 86.2785 19.7663C86.0949 19.6178 85.9239 19.4693 85.7465 19.3208V38.5786Z" fill="#EB5E10"/>
<path d="M68.9399 60.4691C64.1864 60.4691 60.3329 56.3621 60.3329 51.2958C60.3329 46.2296 64.1864 42.1226 68.9399 42.1226C73.6934 42.1226 77.5469 46.2296 77.5469 51.2958C77.5469 56.3621 73.6934 60.4691 68.9399 60.4691Z" fill="#C4D1EB"/>
<path d="M76.2189 51.2959C76.2189 51.5119 76.3772 51.6739 76.5735 51.6739C76.7635 51.6739 76.9219 51.5119 76.9219 51.2959C76.9219 50.9246 76.8965 50.5466 76.8522 50.1686C76.8079 49.7906 76.7319 49.4194 76.6432 49.0684C76.5925 48.8659 76.4025 48.7511 76.2125 48.7984C76.0289 48.8591 75.9149 49.0616 75.9655 49.2641C76.0479 49.5949 76.1175 49.9324 76.1555 50.2699C76.1999 50.6006 76.2189 50.9449 76.2189 51.2959ZM75.5159 47.9614C75.5982 48.1504 75.8072 48.2314 75.9845 48.1436C76.1555 48.0491 76.2315 47.8264 76.1492 47.6441C75.7375 46.7126 75.1612 45.8756 74.4709 45.1669C73.7805 44.4581 72.9762 43.8844 72.0895 43.4794C71.9059 43.3984 71.7032 43.4861 71.6209 43.6751C71.5512 43.8641 71.6335 44.0869 71.8109 44.1679C72.6215 44.5391 73.3562 45.0656 73.9832 45.7069C74.6102 46.3481 75.1359 47.1109 75.5159 47.9614Z" fill="white"/>
<path d="M68.5341 38.5788C66.6151 38.8286 65.1205 40.7523 65.0508 43.1148C66.2225 42.4803 67.5398 42.1293 68.9395 42.1293C70.3391 42.1293 71.6628 42.4803 72.8281 43.1148C72.7648 40.7523 71.2701 38.8286 69.3575 38.5788V4.70059C69.083 4.52509 68.8086 4.35634 68.5341 4.19434V38.5788Z" fill="#EB5E10"/>
<path d="M51.7211 60.4691C46.9676 60.4691 43.1141 56.3621 43.1141 51.2958C43.1141 46.2296 46.9676 42.1226 51.7211 42.1226C56.4746 42.1226 60.3281 46.2296 60.3281 51.2958C60.3281 56.3621 56.4746 60.4691 51.7211 60.4691Z" fill="#C4D1EB"/>
<path d="M59.0079 51.2959C59.0079 51.5119 59.1663 51.6739 59.3563 51.6739C59.5526 51.6739 59.7109 51.5119 59.7109 51.2959C59.7109 50.9246 59.6856 50.5466 59.6349 50.1686C59.5906 49.7906 59.5209 49.4194 59.4323 49.0684C59.3816 48.8659 59.1853 48.7511 59.0016 48.7984C58.8116 48.8591 58.7039 49.0616 58.7546 49.2641C58.8369 49.5949 58.9003 49.9324 58.9446 50.2699C58.9889 50.6006 59.0079 50.9449 59.0079 51.2959ZM58.2986 47.9614C58.3809 48.1504 58.5963 48.2314 58.7736 48.1436C58.9446 48.0491 59.0206 47.8264 58.9319 47.6441C58.5203 46.7126 57.9503 45.8756 57.2536 45.1669C56.5696 44.4581 55.7653 43.8844 54.8723 43.4794C54.6949 43.3984 54.4859 43.4861 54.4099 43.6751C54.3339 43.8641 54.4163 44.0869 54.5936 44.1679C55.4106 44.5391 56.1453 45.0656 56.7723 45.7069C57.3993 46.3481 57.9186 47.1109 58.2986 47.9614Z" fill="white"/>
<path d="M51.309 38.5784C49.3964 38.8282 47.8954 40.7519 47.832 43.1144C49.0037 42.4799 50.321 42.1289 51.7207 42.1289C53.1204 42.1289 54.444 42.4799 55.6094 43.1144C55.546 40.7519 54.045 38.8282 52.1324 38.5784V1.3252C51.8537 1.3387 51.5814 1.3522 51.309 1.3657V38.5784Z" fill="#EB5E10"/>
<path d="M29.7485 39.8815C25.4101 37.8092 20.3181 39.868 18.3675 44.4917C16.4168 49.1155 18.3485 54.5425 22.6868 56.6215C27.0251 58.7005 32.1171 56.635 34.0678 52.018C36.0185 47.3942 34.0868 41.9672 29.7485 39.8815Z" fill="#C4D1EB"/>
<path d="M32.8603 51.4374C32.7779 51.6264 32.8603 51.8491 33.0376 51.9301C33.2149 52.0179 33.4176 51.9369 33.4999 51.7479C33.6435 51.4014 33.768 51.0459 33.8736 50.6814C33.9749 50.3101 34.0509 49.9456 34.1079 49.5879C34.1396 49.3786 34.0066 49.1896 33.8166 49.1559C33.6266 49.1221 33.4429 49.2639 33.4113 49.4664C33.3606 49.8039 33.2909 50.1481 33.1959 50.4721C33.1073 50.7894 32.9933 51.1134 32.8603 51.4374ZM33.4999 48.0826C33.5063 48.2919 33.6646 48.4539 33.8609 48.4539C34.0509 48.4471 34.2093 48.2784 34.2029 48.0691C34.1839 47.0431 33.9813 46.0239 33.6266 45.0789C33.2719 44.1339 32.7526 43.2564 32.1003 42.5004C31.9673 42.3451 31.7456 42.3316 31.6063 42.4734C31.4606 42.6151 31.4479 42.8514 31.5809 42.9999C32.1826 43.6951 32.6513 44.4916 32.9743 45.3556C33.2973 46.2196 33.4809 47.1444 33.4999 48.0826Z" fill="white"/>
<path d="M30.7367 36.4724C28.9001 35.8582 26.7911 36.9584 25.8221 39.0847C27.1331 39.0172 28.4757 39.2737 29.7488 39.8812C31.0281 40.4954 32.0921 41.3999 32.9154 42.4867C33.7641 40.2997 33.1434 37.8899 31.4904 36.8302L46.4688 1.78418C46.1458 1.82468 45.8291 1.87193 45.5061 1.91243L30.7367 36.4724Z" fill="#EB5E10"/>
<path fill-rule="evenodd" clip-rule="evenodd" d="M24.8781 42.7369C24.2954 42.4534 23.6114 42.7301 23.3518 43.3511C23.0921 43.9721 23.3454 44.7011 23.9281 44.9779C24.5171 45.2614 25.1948 44.9846 25.4608 44.3636C25.7204 43.7426 25.4608 43.0136 24.8781 42.7369ZM28.9568 52.3219C29.3051 52.1396 29.4508 51.6941 29.2861 51.3229C29.1151 50.9516 28.6971 50.8031 28.3551 50.9719C28.1461 51.0799 27.9308 51.1609 27.7028 51.2284C26.8604 51.4511 25.9484 51.3634 25.1441 50.9854C24.3398 50.6006 23.6431 49.9391 23.2251 49.0211C23.1195 48.7826 23.0309 48.5194 22.9591 48.2314C22.8641 47.8331 22.4841 47.5901 22.1104 47.6914C21.7304 47.7926 21.5024 48.2044 21.5974 48.6026C21.6903 48.9761 21.8128 49.3316 21.9648 49.6691C22.5284 50.9246 23.4848 51.8291 24.5741 52.3489C25.6698 52.8619 26.9048 52.9901 28.0448 52.6796C28.353 52.5941 28.657 52.4749 28.9568 52.3219ZM29.4508 46.2739C29.1911 46.9016 29.4508 47.6239 30.0334 47.9074C30.6161 48.1841 31.3001 47.9074 31.5661 47.2864C31.8194 46.6654 31.5661 45.9364 30.9834 45.6596C30.3944 45.3761 29.7168 45.6529 29.4508 46.2739Z" fill="#EB5E10"/>
<path fill-rule="evenodd" clip-rule="evenodd" d="M89.4973 46.854C88.8639 46.854 88.3446 47.4008 88.3446 48.0825C88.3446 48.7643 88.8639 49.311 89.4973 49.311C90.1369 49.311 90.6562 48.7643 90.6562 48.0825C90.6562 47.4008 90.1369 46.854 89.4973 46.854ZM89.5226 53.6445C88.6042 52.8615 87.4263 52.4363 86.2293 52.416C85.0323 52.4093 83.8162 52.821 82.8219 53.7188C82.5496 53.9685 82.3026 54.2318 82.0746 54.5355C81.8339 54.8595 81.8846 55.332 82.1886 55.5818C82.4926 55.845 82.9359 55.791 83.1766 55.467C83.3476 55.2375 83.5312 55.035 83.7212 54.8663C84.4496 54.2115 85.3426 53.9078 86.2229 53.9213C87.1032 53.928 87.9709 54.2318 88.6486 54.8123C88.8322 54.9675 89.0033 55.143 89.1489 55.3253C89.3959 55.6425 89.8329 55.6763 90.1369 55.413C90.4282 55.1498 90.4662 54.6773 90.2192 54.36C90.0039 54.09 89.7696 53.847 89.5226 53.6445ZM82.8093 46.854C82.1696 46.854 81.6566 47.4008 81.6566 48.0825C81.6566 48.7643 82.1696 49.311 82.8093 49.311C83.4489 49.311 83.9619 48.7643 83.9619 48.0825C83.9619 47.4008 83.4489 46.854 82.8093 46.854Z" fill="#EB5E10"/>
<path fill-rule="evenodd" clip-rule="evenodd" d="M72.28 46.854C71.6466 46.854 71.1273 47.4008 71.1273 48.0825C71.1273 48.7643 71.6466 49.311 72.28 49.311C72.926 49.311 73.4453 48.7643 73.4453 48.0825C73.4453 47.4008 72.926 46.854 72.28 46.854ZM72.3116 53.6445C71.387 52.8615 70.209 52.4363 69.0183 52.416C67.8213 52.4093 66.6053 52.821 65.6046 53.7188C65.3323 53.9685 65.0853 54.2318 64.8636 54.5355C64.623 54.8595 64.6736 55.332 64.9713 55.5818C65.2816 55.845 65.7186 55.791 65.9593 55.467C66.1366 55.2375 66.314 55.035 66.5103 54.8663C67.2323 54.2115 68.1253 53.9078 69.012 53.9213C69.8923 53.928 70.76 54.2318 71.4376 54.8123C71.6213 54.9675 71.786 55.143 71.9316 55.3253C72.1786 55.6425 72.622 55.6763 72.9196 55.413C73.2173 55.1498 73.2553 54.6773 73.0083 54.36C72.793 54.09 72.5586 53.847 72.3116 53.6445ZM65.592 46.854C64.9586 46.854 64.4393 47.4008 64.4393 48.0825C64.4393 48.7643 64.9586 49.311 65.592 49.311C66.2316 49.311 66.751 48.7643 66.751 48.0825C66.751 47.4008 66.2316 46.854 65.592 46.854Z" fill="#EB5E10"/>
<path fill-rule="evenodd" clip-rule="evenodd" d="M55.0676 46.854C54.4279 46.854 53.9086 47.4008 53.9086 48.0825C53.9086 48.7643 54.4279 49.311 55.0676 49.311C55.7072 49.311 56.2266 48.7643 56.2266 48.0825C56.2266 47.4008 55.7072 46.854 55.0676 46.854ZM55.0929 53.6445C54.1682 52.8615 52.9902 52.4363 51.7996 52.416C50.6026 52.4093 49.3866 52.821 48.3922 53.7188C48.1199 53.9685 47.8729 54.2318 47.6449 54.5355C47.4042 54.8595 47.4549 55.332 47.7589 55.5818C48.0629 55.845 48.5062 55.791 48.7469 55.467C48.9179 55.2375 49.1016 55.035 49.2916 54.8663C50.0199 54.2115 50.9129 53.9078 51.7932 53.9213C52.6736 53.928 53.5412 54.2318 54.2189 54.8123C54.4026 54.9675 54.5736 55.143 54.7129 55.3253C54.9662 55.6425 55.4096 55.6763 55.7009 55.413C55.9986 55.1498 56.0366 54.6773 55.7896 54.36C55.5742 54.09 55.3399 53.847 55.0929 53.6445ZM48.3796 46.854C47.7399 46.854 47.2206 47.4008 47.2206 48.0825C47.2206 48.7643 47.7399 49.311 48.3796 49.311C49.0192 49.311 49.5386 48.7643 49.5386 48.0825C49.5386 47.4008 49.0192 46.854 48.3796 46.854Z" fill="#EB5E10"/>
<path d="M7.63607 90.8032C7.09141 91.7077 6.74307 92.2252 6.59107 92.3557C6.36307 92.5447 7.0154 94.1715 7.72473 94.1512C7.99073 94.1422 8.17229 93.9915 8.26941 93.699L8.07307 93.2332L9.28906 91.566L7.63607 90.8032Z" fill="#F9AF79"/>
<path d="M22.2627 88.6233C22.5245 89.6448 22.6448 90.2546 22.6237 90.4526C22.6047 90.7631 24.1943 91.3301 24.6693 90.7631C24.8467 90.5516 24.8678 90.3108 24.7327 90.0408L24.2703 89.8856L23.9473 87.8403L22.2627 88.6233Z" fill="#F9AF79"/>
<path d="M22.6505 92.6192C23.2775 92.7205 26.4631 92.0117 27.2991 91.3772C27.5018 91.2287 27.5968 90.9115 27.5208 90.8237C27.2865 90.5402 26.5328 90.358 25.8615 90.1825C25.6588 90.1375 25.2471 90.07 24.6265 89.98C24.2929 90.1015 23.9805 90.1937 23.6891 90.2567C23.4611 90.3062 23.1022 90.34 22.6125 90.358C22.1607 91.78 22.1733 92.5337 22.6505 92.6192Z" fill="#0E2952"/>
<path d="M12.3921 71.9101C12.1388 71.8359 11.9108 71.7684 11.6954 71.7144C11.1254 72.7201 10.4794 73.8676 9.81444 75.0421L12.3161 78.7479C12.1514 78.6084 14.2647 79.4386 18.6558 81.2386C20.1336 84.4876 21.225 87.1674 21.9301 89.2779C22.9878 89.2036 23.1904 89.1294 24.2734 88.6569C23.8681 84.7689 22.2974 78.9369 21.7401 78.2821C21.4171 77.9041 15.3561 72.8079 12.3921 71.9101Z" fill="#EB5E10"/>
<path d="M6.74271 75.2112C7.50905 78.4917 9.47238 83.0007 9.51038 83.4732C9.43438 84.1212 7.37605 90.3852 6.95172 91.3234C7.50905 91.8567 8.26905 92.3224 9.05438 92.3629C9.20638 92.3697 13.1584 84.6139 13.3484 84.0199C13.5701 83.3449 13.532 79.8822 12.8354 75.7174L12.2844 71.5729C10.8024 70.4929 8.59839 70.0069 7.92072 70.2904C6.74272 70.7764 6.54638 74.3809 6.74271 75.2112Z" fill="#EB5E10"/>
<path d="M5.08997 93.888C5.42564 94.4415 8.12997 96.4395 9.07997 96.7905C9.32064 96.8783 9.55497 96.615 9.56763 96.4935C9.60563 96.1155 9.23196 95.3393 8.90896 94.7115C8.80763 94.5135 8.58174 94.1445 8.23129 93.6045C7.93152 93.429 7.66341 93.2468 7.42696 93.0578C7.24541 92.9228 6.98364 92.6708 6.64164 92.3018C5.34542 92.9273 4.82819 93.456 5.08997 93.888Z" fill="#0E2952"/>
<path d="M21.6731 48.6701C21.7111 48.5553 22.7688 47.4146 22.9018 46.7261C23.0284 46.0376 22.6991 45.0925 22.4204 45.0318C22.1354 44.9778 21.5211 46.3751 21.4514 46.3886C21.3881 46.4021 21.5654 45.9093 21.5971 45.7541C21.6224 45.5988 21.5781 45.5381 21.5021 45.5313C21.4324 45.5246 20.8688 46.3278 20.7928 46.5843C20.7421 46.7508 20.7041 47.3718 20.6788 48.4473C21.139 49.2258 21.4704 49.3001 21.6731 48.6701Z" fill="#F9AF79"/>
<path d="M7.54988 55.3658C8.65188 56.3333 9.74122 56.466 10.8179 55.764C10.9572 55.0755 10.9889 54.495 10.9129 54.0225C10.9002 53.9348 10.8876 53.847 10.8749 53.766C10.7904 53.235 10.7313 52.8165 10.6975 52.5105C10.6975 52.5105 10.6954 52.5105 10.6912 52.5105C10.6089 52.497 7.84755 51.8693 7.86655 51.9638C8.13677 53.3948 8.03122 54.5288 7.54988 55.3658Z" fill="#F9AF79"/>
<path d="M8.215 52.4296C8.54433 52.8683 9.55767 53.6581 10.875 53.7661C10.7906 53.2351 10.7314 52.8166 10.6977 52.5106C10.6977 52.5106 10.6956 52.5106 10.6913 52.5106C10.6217 52.5038 8.11367 52.2946 8.215 52.4296Z" fill="#ED7D57"/>
<path d="M10.6438 48.1436C10.2638 47.5901 9.64308 47.0299 7.90141 47.9344C6.16608 48.8321 7.00841 49.9054 7.73674 51.7549C8.21807 52.9924 9.3813 53.1859 11.2264 52.3354C11.9231 51.9439 11.0301 48.6971 10.6438 48.1436Z" fill="#F9AF79"/>
<path d="M8.04412 51.4375C7.91745 51.2485 7.41712 50.2158 8.03145 50.3238C8.63945 50.4385 8.65846 50.2225 8.65212 49.9728C8.64579 49.7163 8.67112 48.9198 9.10812 48.6768C9.53879 48.4338 11.9708 48.2583 10.6345 45.187C8.67746 46.996 6.32145 46.0173 5.47912 48.3325C5.17512 49.1628 5.44746 49.9863 5.69446 50.3508C7.29679 52.6255 7.88579 52.3015 7.92379 52.2678C8.11801 52.0743 8.15812 51.7975 8.04412 51.4375Z" fill="#EB5E10"/>
<path d="M13.9345 59.1056C13.9049 58.9796 13.8732 58.8603 13.8395 58.7478C13.3898 57.2561 12.5095 56.3111 11.7178 55.6226L11.0718 55.0961C10.4638 55.2716 9.81781 55.2783 9.14647 54.9881C8.42447 54.6708 7.63913 54.3198 7.5188 54.4211C6.61946 55.2446 6.0938 56.9996 5.89747 59.2001C5.80247 60.3746 5.79614 61.6841 5.88481 63.0476C5.91858 63.5741 5.96713 64.1028 6.03046 64.6338C6.36613 67.4891 6.35981 69.9933 6.35981 71.4446C6.35347 71.8631 6.35347 72.1938 6.36613 72.4233C6.36613 72.6258 6.78414 72.8351 6.96147 72.9026C8.31681 73.4358 9.5708 73.7868 10.9641 73.8273C12.6171 73.8948 14.5298 73.3616 15.1948 73.3211C15.2645 73.3143 15.3278 73.2873 15.3721 73.2401C15.4165 73.1996 15.3215 71.0598 15.1125 68.3666C15.1061 68.2653 15.1061 68.1438 15.0871 68.0426V68.0021C15.066 67.7276 15.0428 67.4441 15.0175 67.1516C14.9605 66.4293 14.8908 65.7003 14.8148 64.9713C14.8064 64.8993 14.8 64.8273 14.7958 64.7553C14.6691 63.5808 14.5361 62.4198 14.3778 61.3938C14.2385 60.5096 14.0928 59.7198 13.9345 59.1056Z" fill="#6D96CE"/>
<path d="M13.9322 59.1054C12.7035 58.6801 11.1772 58.5114 9.33417 58.7814C10.2293 61.7289 12.0554 63.7921 14.8125 64.9711C14.8041 64.8991 14.7977 64.8271 14.7935 64.7551C14.6668 63.5806 14.5338 62.4196 14.3755 61.3936C14.2362 60.5094 14.0905 59.7196 13.9322 59.1054Z" fill="#466FB5"/>
<path d="M21.3519 48.0892C21.0352 47.8822 20.803 47.8552 20.6552 48.0082C18.295 51.2572 16.9946 53.0099 16.7539 53.2664C16.5174 53.5229 14.4887 54.2474 10.6675 55.4399C9.12221 55.8584 8.26511 56.5402 8.09622 57.4852C7.88089 58.7204 8.45721 59.5709 9.13488 60.1312C9.93921 60.7859 11.0412 60.8467 11.9152 60.2864C13.8659 59.0444 17.7482 56.5132 18.4069 55.7842C19.3907 54.6952 20.5623 52.3327 21.9219 48.6967C21.7952 48.4537 21.6052 48.2512 21.3519 48.0892Z" fill="#6D96CE"/>
<path d="M9.52695 50.1212C9.40662 50.1685 9.15328 49.669 9.46362 49.5677C9.62195 49.5137 9.73595 50.0605 9.52695 50.1212Z" fill="#EB5E10"/>
<path d="M10.8962 49.7363C11.0229 49.6958 10.9722 49.1356 10.6682 49.2368C10.5035 49.2908 10.6935 49.8038 10.8962 49.7363Z" fill="#EB5E10"/>
<path d="M8.75953 49.696C8.74053 49.7568 9.50686 49.3113 9.55119 49.2843C9.68419 49.1898 9.63352 49.0075 9.43085 49.0683C9.04452 49.183 8.79753 49.5543 8.75953 49.696Z" fill="#EB5E10"/>
<path d="M10.3378 48.7846C10.1288 48.8453 10.1794 49.0276 10.3441 49.0343C10.4138 49.0343 11.2688 48.9803 11.1991 48.9263C11.0851 48.8318 10.7051 48.6631 10.3378 48.7846Z" fill="#EB5E10"/>
<path d="M10.549 49.9322C10.511 49.8917 10.4096 49.75 10.378 49.7162C10.3273 49.6622 10.2576 49.7162 10.3019 49.7905C10.7643 50.4452 11.2456 50.344 10.8593 50.587C10.7453 50.668 10.8466 50.8705 11.1063 50.4385C11.1886 50.2967 10.9986 50.3777 10.549 49.9322Z" fill="#ED7D57"/>
<path d="M11.0806 50.992C10.6816 52.3353 9.84561 51.3565 10.0229 51.289C10.9033 50.9515 11.1249 50.8233 11.0806 50.992Z" fill="white"/>
</svg>
