<svg width="128" height="95" viewBox="0 0 128 95" fill="none" xmlns="http://www.w3.org/2000/svg">
<path d="M43.1263 94.9112C66.9443 94.9112 86.2526 75.6405 86.2526 51.8689C86.2526 28.0973 66.9443 8.82666 43.1263 8.82666C19.3083 8.82666 0 28.0973 0 51.8689C0 75.6405 19.3083 94.9112 43.1263 94.9112Z" fill="#3E479B"/>
<path opacity="0.55" d="M43.1248 90.9876C64.7717 90.9876 82.32 73.4735 82.32 51.8688C82.32 30.2641 64.7717 12.75 43.1248 12.75C21.478 12.75 3.92969 30.2641 3.92969 51.8688C3.92969 73.4735 21.478 90.9876 43.1248 90.9876Z" fill="white"/>
<path d="M43.1246 86.9954C62.5622 86.9954 78.3195 71.2688 78.3195 51.869C78.3195 32.4693 62.5622 16.7427 43.1246 16.7427C23.687 16.7427 7.92969 32.4693 7.92969 51.869C7.92969 71.2688 23.687 86.9954 43.1246 86.9954Z" fill="white"/>
<path d="M43.1014 24.6777H43.0322C42.5263 24.6777 42.1172 24.2693 42.1172 23.7644V19.1926C42.1172 18.6876 42.5263 18.2793 43.0322 18.2793H43.1014C43.6073 18.2793 44.0164 18.6876 44.0164 19.1926V23.7644C44.0164 24.2693 43.6073 24.6777 43.1014 24.6777Z" fill="#373449"/>
<path d="M43.2185 85.4585H43.1494C42.6435 85.4585 42.2344 85.0501 42.2344 84.5452V79.9733C42.2344 79.4684 42.6435 79.0601 43.1494 79.0601H43.2185C43.7244 79.0601 44.1336 79.4684 44.1336 79.9733V84.5452C44.1336 85.0501 43.7244 85.4585 43.2185 85.4585Z" fill="#373449"/>
<path d="M70.3672 51.8441V51.7751C70.3672 51.2702 70.7763 50.8618 71.2822 50.8618H75.863C76.3689 50.8618 76.7781 51.2702 76.7781 51.7751V51.8441C76.7781 52.349 76.3689 52.7573 75.863 52.7573H71.2822C70.7763 52.7573 70.3672 52.349 70.3672 51.8441Z" fill="#373449"/>
<path d="M9.46875 51.9627V51.8937C9.46875 51.3888 9.8779 50.9805 10.3838 50.9805H14.9646C15.4705 50.9805 15.8796 51.3888 15.8796 51.8937V51.9627C15.8796 52.4676 15.4705 52.876 14.9646 52.876H10.3838C9.8779 52.876 9.46875 52.4676 9.46875 51.9627Z" fill="#373449"/>
<path d="M63.2313 31.7687L63.1815 31.719C62.8249 31.3631 62.8249 30.7837 63.1815 30.4277L64.8568 28.7557C65.2134 28.3998 65.794 28.3998 66.1506 28.7557L66.2004 28.8054C66.557 29.1613 66.557 29.7407 66.2004 30.0966L64.5251 31.7687C64.1657 32.1246 63.5879 32.1246 63.2313 31.7687Z" fill="#373449"/>
<path d="M20.075 75.0096L20.0253 74.96C19.6687 74.604 19.6687 74.0246 20.0253 73.6687L22.0848 71.6131C22.4415 71.2572 23.022 71.2572 23.3786 71.6131L23.4284 71.6628C23.785 72.0187 23.785 72.5981 23.4284 72.9541L21.3688 75.0096C21.0094 75.3655 20.4317 75.3655 20.075 75.0096Z" fill="#373449"/>
<path d="M63.2675 71.9636L63.3172 71.9139C63.6738 71.558 64.2544 71.558 64.611 71.9139L66.2863 73.5859C66.6429 73.9419 66.6429 74.5213 66.2863 74.8772L66.2365 74.9269C65.8799 75.2828 65.2994 75.2828 64.9428 74.9269L63.2675 73.2549C62.9108 72.8989 62.9108 72.3195 63.2675 71.9636Z" fill="#373449"/>
<path d="M19.9393 28.8908L19.9891 28.8412C20.3457 28.4852 20.9263 28.4852 21.2829 28.8412L23.3424 30.8967C23.6991 31.2526 23.6991 31.832 23.3424 32.188L23.2927 32.2376C22.9361 32.5936 22.3555 32.5936 21.9989 32.2376L19.9393 30.1821C19.5827 29.8262 19.5827 29.2468 19.9393 28.8908Z" fill="#373449"/>
<path d="M43.1489 52.4124H43.0715C42.5131 52.4124 42.0625 51.9599 42.0625 51.4053V29.3489C42.0625 28.7915 42.5159 28.3418 43.0715 28.3418H43.1489C43.7074 28.3418 44.158 28.7943 44.158 29.3489V51.4053C44.1608 51.9599 43.7074 52.4124 43.1489 52.4124Z" fill="#3E479B"/>
<path d="M42.0625 53.2347V53.1575C42.0625 52.6001 42.5159 52.1504 43.0715 52.1504H58.3537C58.9122 52.1504 59.3628 52.6029 59.3628 53.1575V53.2347C59.3628 53.7921 58.9094 54.2418 58.3537 54.2418H43.0715C42.5159 54.2446 42.0625 53.7921 42.0625 53.2347Z" fill="#3E479B"/>
<path d="M58.9722 37.6289L43.2422 51.7584" stroke="#373449" stroke-width="2" stroke-miterlimit="10" stroke-linecap="round"/>
<path d="M43.1293 55.6628C45.2287 55.6628 46.9305 53.9642 46.9305 51.869C46.9305 49.7737 45.2287 48.0752 43.1293 48.0752C41.03 48.0752 39.3281 49.7737 39.3281 51.869C39.3281 53.9642 41.03 55.6628 43.1293 55.6628Z" fill="#4C65BA"/>
<path d="M123.981 75.1533V77.4075C123.981 78.2656 123.282 78.9637 122.422 78.9637H116.984" stroke="white" stroke-width="2" stroke-miterlimit="10" stroke-linecap="round"/>
<path d="M109.422 60.7119H111.68C112.54 60.7119 113.24 61.41 113.24 62.2681V67.6953" stroke="white" stroke-width="2" stroke-miterlimit="10" stroke-linecap="round"/>
<path d="M94.7696 82.7713H116.725C116.988 82.7713 117.198 82.5588 117.198 82.2995V68.2169C117.198 67.9548 116.985 67.7451 116.725 67.7451H94.7696C94.507 67.7451 94.2969 67.9576 94.2969 68.2169V82.2995C94.2969 82.5616 94.507 82.7713 94.7696 82.7713Z" fill="white"/>
<path opacity="0.66" d="M94.7696 82.7713H116.725C116.988 82.7713 117.198 82.5588 117.198 82.2995V68.2169C117.198 67.9548 116.985 67.7451 116.725 67.7451H94.7696C94.507 67.7451 94.2969 67.9576 94.2969 68.2169V82.2995C94.2969 82.5616 94.507 82.7713 94.7696 82.7713Z" fill="#599AF2"/>
<path d="M97.8166 74.7282H113.674C113.862 74.7282 114.014 74.5765 114.014 74.3888V71.0503C114.014 70.8627 113.862 70.7109 113.674 70.7109H97.8166C97.6286 70.7109 97.4766 70.8627 97.4766 71.0503V74.3888C97.4738 74.5765 97.6286 74.7282 97.8166 74.7282Z" fill="white"/>
<path d="M97.7033 76.6595H113.793C113.917 76.6595 114.019 76.5602 114.019 76.4333C114.019 76.3091 113.92 76.207 113.793 76.207H97.7033C97.5789 76.207 97.4766 76.3064 97.4766 76.4333C97.4766 76.5602 97.5789 76.6595 97.7033 76.6595Z" fill="white"/>
<path d="M97.7033 77.9452H113.793C113.917 77.9452 114.019 77.8458 114.019 77.7189C114.019 77.5948 113.92 77.4927 113.793 77.4927H97.7033C97.5789 77.4927 97.4766 77.592 97.4766 77.7189C97.4766 77.8458 97.5789 77.9452 97.7033 77.9452Z" fill="white"/>
<path d="M97.7033 79.3412H113.793C113.917 79.3412 114.019 79.2418 114.019 79.1149C114.019 78.9908 113.92 78.8887 113.793 78.8887H97.7033C97.5789 78.8887 97.4766 78.988 97.4766 79.1149C97.4766 79.2391 97.5789 79.3412 97.7033 79.3412Z" fill="white"/>
<path d="M97.7033 80.627H113.793C113.917 80.627 114.019 80.5277 114.019 80.4007C114.019 80.2766 113.92 80.1772 113.793 80.1772H97.7033C97.5789 80.1772 97.4766 80.2766 97.4766 80.4007C97.4766 80.5249 97.5789 80.627 97.7033 80.627Z" fill="white"/>
<path d="M121.488 75.3629H126.691C126.954 75.3629 127.164 75.1504 127.164 74.8911V71.6022C127.164 71.3401 126.951 71.1304 126.691 71.1304H121.488C121.226 71.1304 121.016 71.3428 121.016 71.6022V74.8911C121.016 75.1532 121.226 75.3629 121.488 75.3629Z" fill="white"/>
<path opacity="0.58" d="M121.488 75.3629H126.691C126.954 75.3629 127.164 75.1504 127.164 74.8911V71.6022C127.164 71.3401 126.951 71.1304 126.691 71.1304H121.488C121.226 71.1304 121.016 71.3428 121.016 71.6022V74.8911C121.016 75.1532 121.226 75.3629 121.488 75.3629Z" fill="#EB5E10"/>
<g opacity="0.68">
<g opacity="0.89">
<g opacity="0.89">
<path opacity="0.89" d="M108.785 63.4931H80.3551C80.098 63.4931 79.8906 63.2862 79.8906 63.0296V45.1256C79.8906 44.869 80.098 44.6621 80.3551 44.6621H108.785C109.042 44.6621 109.25 44.869 109.25 45.1256V63.0296C109.25 63.2862 109.042 63.4931 108.785 63.4931Z" fill="#4C65BA"/>
</g>
</g>
<g opacity="0.68">
<path opacity="0.68" d="M104.609 49.3994H83.7476C83.6702 49.3994 83.6094 49.336 83.6094 49.2615C83.6094 49.1842 83.673 49.1235 83.7476 49.1235H104.609C104.686 49.1235 104.747 49.187 104.747 49.2615C104.747 49.336 104.686 49.3994 104.609 49.3994Z" fill="white"/>
<path opacity="0.68" d="M92.2816 54.9922H83.7476C83.6702 54.9922 83.6094 54.9288 83.6094 54.8543C83.6094 54.777 83.673 54.7163 83.7476 54.7163H92.2816C92.359 54.7163 92.4199 54.7798 92.4199 54.8543C92.4199 54.9288 92.3563 54.9922 92.2816 54.9922Z" fill="white"/>
<path opacity="0.68" d="M92.2816 58.3252H83.7476C83.6702 58.3252 83.6094 58.2618 83.6094 58.1873C83.6094 58.11 83.673 58.0493 83.7476 58.0493H92.2816C92.359 58.0493 92.4199 58.1128 92.4199 58.1873C92.4199 58.2618 92.3563 58.3252 92.2816 58.3252Z" fill="white"/>
<g opacity="0.68">
<path opacity="0.68" d="M94.6536 51.6206H83.7476C83.6702 51.6206 83.6094 51.5572 83.6094 51.4827C83.6094 51.4054 83.673 51.3447 83.7476 51.3447H94.6536C94.731 51.3447 94.7918 51.4082 94.7918 51.4827C94.7946 51.5572 94.731 51.6206 94.6536 51.6206Z" fill="white"/>
<path opacity="0.68" d="M104.388 51.6758H96.7942C96.6698 51.6758 96.5703 51.6013 96.5703 51.5103C96.5703 51.4192 96.6698 51.3447 96.7942 51.3447H104.388C104.513 51.3447 104.612 51.4192 104.612 51.5103C104.612 51.6013 104.513 51.6758 104.388 51.6758Z" fill="white"/>
</g>
</g>
<path opacity="0.68" d="M104.243 59.6936H94.7717C94.4676 59.6936 94.2188 59.4453 94.2188 59.1418V53.7642C94.2188 53.4607 94.4676 53.2124 94.7717 53.2124H104.243C104.547 53.2124 104.796 53.4607 104.796 53.7642V59.1418C104.796 59.448 104.547 59.6936 104.243 59.6936Z" fill="white"/>
<g opacity="0.68">
<path opacity="0.68" d="M95.3281 57.8453L95.9087 56.1126C95.9557 55.9747 96.1354 55.936 96.2349 56.0436L97.8466 57.7874C97.9433 57.8922 98.1203 57.8591 98.17 57.7239L99.1348 55.1055C99.1874 54.9648 99.3754 54.9345 99.4693 55.0531L101.645 57.804C101.728 57.9088 101.888 57.9005 101.96 57.7874L103.862 54.7827" stroke="#4C65BA" stroke-width="2" stroke-miterlimit="10" stroke-linecap="round"/>
<path opacity="0.68" d="M103.266 54.8626L103.948 54.6943V55.3758" stroke="#4C65BA" stroke-width="2" stroke-miterlimit="10" stroke-linecap="round"/>
</g>
</g>
<g opacity="0.77">
<g opacity="0.77">
<path opacity="0.39" d="M106.138 36.0508L105.143 35.5127C105.24 35.1154 105.273 34.7098 105.248 34.3098L106.315 34.0201C106.517 33.9649 106.631 33.7579 106.567 33.5593L106.163 32.3066C106.1 32.108 105.881 31.9894 105.68 32.0445L104.612 32.3342C104.397 31.9866 104.126 31.661 103.811 31.3768L104.325 30.4277C104.422 30.2483 104.35 30.0193 104.159 29.9173L102.973 29.2771C102.785 29.175 102.55 29.2385 102.453 29.4179L101.939 30.367C101.527 30.2566 101.11 30.2097 100.698 30.218L100.358 29.1668C100.294 28.9681 100.076 28.8495 99.8741 28.9047L98.6024 29.2523C98.4006 29.3075 98.2872 29.5144 98.3508 29.7131L98.6909 30.7643C98.3398 30.963 98.0191 31.2113 97.7371 31.5093L96.7419 30.9712C96.5539 30.8691 96.3189 30.9326 96.2222 31.112L95.6084 32.2432C95.5117 32.4225 95.5836 32.6515 95.7743 32.7536L96.7695 33.2917C96.6728 33.689 96.6396 34.0946 96.6645 34.4946L95.5974 34.7843C95.3956 34.8395 95.2822 35.0465 95.3458 35.2451L95.7494 36.4978C95.813 36.6964 96.0314 36.8151 96.2332 36.7599L97.3003 36.4702C97.516 36.8178 97.7869 37.1434 98.102 37.4276L97.5878 38.3767C97.4911 38.5561 97.5629 38.7851 97.7537 38.8871L98.9397 39.5273C99.1277 39.6294 99.3626 39.5659 99.4594 39.3866L99.9736 38.4374C100.386 38.5478 100.803 38.5947 101.215 38.5864L101.555 39.6376C101.618 39.8363 101.837 39.9549 102.039 39.8997L103.31 39.5521C103.512 39.4969 103.626 39.29 103.562 39.0913L103.222 38.0401C103.573 37.8414 103.894 37.5931 104.176 37.2951L105.171 37.8332C105.359 37.9353 105.594 37.8718 105.691 37.6924L106.304 36.5612C106.401 36.3819 106.329 36.1529 106.138 36.0508ZM99.5589 36.9806C98.0661 36.1749 97.4828 34.365 98.2568 32.9412C99.0281 31.5175 100.867 31.0181 102.357 31.8238C103.849 32.6295 104.433 34.4394 103.659 35.8632C102.887 37.2869 101.052 37.789 99.5589 36.9806Z" fill="#599AF2"/>
</g>
</g>
<g opacity="0.39">
<path opacity="0.39" d="M115.214 21.488L113.599 20.6133C113.771 19.9429 113.84 19.2586 113.809 18.5854L115.57 18.0612C115.905 17.9618 116.096 17.6114 115.996 17.2748L115.371 15.1779C115.272 14.844 114.921 14.6536 114.586 14.753L112.825 15.2772C112.48 14.6978 112.048 14.1625 111.537 13.6935L112.413 12.0821C112.579 11.7759 112.466 11.3924 112.159 11.2268L110.232 10.1866C109.925 10.0211 109.541 10.1342 109.375 10.4405L108.499 12.0518C107.827 11.8807 107.141 11.8117 106.467 11.8421L105.942 10.0845C105.842 9.75068 105.491 9.5603 105.156 9.65963L103.055 10.2832C102.721 10.3825 102.53 10.7329 102.63 11.0695L103.155 12.8271C102.574 13.172 102.038 13.6024 101.568 14.1129L99.9536 13.2382C99.6468 13.0727 99.2625 13.1858 99.0966 13.492L98.0544 15.4152C97.8885 15.7214 98.0019 16.1049 98.3087 16.2705L99.9232 17.1451C99.7518 17.8156 99.6827 18.4999 99.7131 19.1731L97.9521 19.6973C97.6176 19.7966 97.4269 20.147 97.5264 20.4837L98.1512 22.5806C98.2507 22.9144 98.6018 23.1048 98.939 23.0055L100.7 22.4813C101.046 23.0607 101.477 23.5959 101.988 24.065L101.112 25.6763C100.946 25.9826 101.059 26.3661 101.366 26.5317L103.293 27.5718C103.6 27.7374 103.984 27.6243 104.15 27.318L105.026 25.7067C105.698 25.8777 106.384 25.9467 107.058 25.9164L107.584 27.6739C107.683 28.0078 108.034 28.1982 108.372 28.0988L110.473 27.4753C110.807 27.3759 110.998 27.0255 110.898 26.6889L110.373 24.9314C110.954 24.5865 111.49 24.156 111.96 23.6456L113.574 24.5203C113.881 24.6858 114.265 24.5727 114.431 24.2664L115.474 22.3433C115.634 22.037 115.521 21.6535 115.214 21.488ZM104.38 23.2593C101.955 21.9488 101.054 18.9248 102.367 16.505C103.68 14.0853 106.71 13.1858 109.135 14.4964C111.559 15.807 112.46 18.8309 111.147 21.2507C109.834 23.6704 106.804 24.5699 104.38 23.2593Z" fill="white"/>
</g>
<path d="M91.0151 1.56982H83.75V5.76369H91.0151V1.56982Z" fill="#3E479B"/>
<path d="M91.6397 2.88052H83.1333C82.832 2.88052 82.5859 2.63496 82.5859 2.33422V0.546306C82.5859 0.245562 82.832 0 83.1333 0H91.6397C91.941 0 92.1871 0.245562 92.1871 0.546306V2.33422C92.1871 2.63496 91.9438 2.88052 91.6397 2.88052Z" fill="#4C65BA"/>
<path d="M87.386 40.0047C96.988 40.0047 104.772 32.1444 104.772 22.4484C104.772 12.7523 96.988 4.89209 87.386 4.89209C77.784 4.89209 70 12.7523 70 22.4484C70 32.1444 77.784 40.0047 87.386 40.0047Z" fill="#EB5E10"/>
<path d="M87.3871 35.9428C94.7676 35.9428 100.751 29.901 100.751 22.448C100.751 14.995 94.7676 8.95312 87.3871 8.95312C80.0065 8.95312 74.0234 14.995 74.0234 22.448C74.0234 29.901 80.0065 35.9428 87.3871 35.9428Z" fill="white"/>
<path opacity="0.81" d="M99.3208 28.3526C97.1507 32.8472 92.5837 35.943 87.3007 35.943C82.156 35.943 77.6913 33.0073 75.4576 28.703C74.9738 27.7705 80.8622 22.5198 87.0409 22.4398C93.2499 22.3626 99.7521 27.4587 99.3208 28.3526Z" fill="#ECF1F7"/>
<path opacity="0.55" d="M94.8399 31.2027C93.4853 34.0087 90.6351 35.9429 87.3343 35.9429C84.1219 35.9429 81.3353 34.1108 79.9392 31.4234C79.6379 30.8413 83.3147 27.5634 87.1711 27.5138C91.0497 27.4641 95.108 30.6454 94.8399 31.2027Z" fill="white"/>
<path d="M87.7821 21.477H86.9832C86.845 21.477 86.7344 21.3666 86.7344 21.2287V12.5623C86.7344 12.4243 86.845 12.314 86.9832 12.314H87.7821C87.9203 12.314 88.0309 12.4243 88.0309 12.5623V21.2287C88.0309 21.3666 87.9203 21.477 87.7821 21.477Z" fill="#EB5E10"/>
<path d="M87.3888 24.4129C88.4621 24.4129 89.3322 23.5333 89.3322 22.4484C89.3322 21.3634 88.4621 20.4839 87.3888 20.4839C86.3154 20.4839 85.4453 21.3634 85.4453 22.4484C85.4453 23.5333 86.3154 24.4129 87.3888 24.4129Z" fill="#3E479B"/>
<path d="M115.801 33.3828H108.658C108.492 33.3828 108.359 33.5153 108.359 33.6808V34.4478V34.8231V38.512V38.8321V38.8817C108.359 39.0473 108.492 39.1797 108.658 39.1797H115.801C115.967 39.1797 116.1 39.0473 116.1 38.8817V38.821V38.5341V34.5389V34.1664V33.6836C116.1 33.518 115.967 33.3828 115.801 33.3828Z" fill="white"/>
<path opacity="0.8" d="M111.375 35.9736L112.157 36.3847C112.204 36.4096 112.26 36.4096 112.307 36.382L115.784 34.3402L116.047 34.1857C116.066 34.1747 116.086 34.1664 116.108 34.1636V33.6808C116.108 33.5153 115.975 33.3828 115.809 33.3828H108.666C108.5 33.3828 108.367 33.5153 108.367 33.6808V34.4478L108.555 34.5444L111.375 35.9736Z" fill="#599AF2"/>
<path opacity="0.8" d="M108.359 34.8232V38.5094L111.127 36.2276L108.359 34.8232Z" fill="#599AF2"/>
<path opacity="0.8" d="M116.105 38.5315V34.5391L113.305 36.1835L116.105 38.5315Z" fill="#599AF2"/>
<path opacity="0.8" d="M115.909 38.8046L112.998 36.3628L112.47 36.6718C112.393 36.716 112.31 36.7353 112.227 36.7353C112.15 36.7353 112.072 36.716 112 36.6801L111.447 36.3904C111.439 36.4014 111.431 36.4097 111.42 36.418L108.528 38.8019C108.498 38.8267 108.459 38.8405 108.42 38.8405C108.398 38.8405 108.379 38.835 108.359 38.8267V38.8764C108.359 39.0419 108.492 39.1743 108.658 39.1743H115.801C115.967 39.1743 116.1 39.0419 116.1 38.8764V38.8157C116.072 38.8322 116.045 38.8405 116.014 38.8405C115.978 38.8432 115.94 38.8294 115.909 38.8046Z" fill="#599AF2"/>
<path d="M116.1 34.1665C116.081 34.1693 116.059 34.1775 116.039 34.1886L115.777 34.3431L112.299 36.3848C112.252 36.4097 112.197 36.4124 112.15 36.3876L111.367 35.9765L108.547 34.5445L108.359 34.4479V34.8232L111.127 36.2276L108.359 38.5094V38.8294C108.379 38.8377 108.401 38.8432 108.42 38.8432C108.459 38.8432 108.495 38.8294 108.528 38.8046L111.42 36.4207C111.431 36.4124 111.439 36.4014 111.447 36.3931L112 36.6828C112.072 36.7215 112.15 36.738 112.227 36.738C112.31 36.738 112.393 36.7159 112.47 36.6745L112.998 36.3655L115.909 38.8073C115.94 38.8349 115.978 38.846 116.017 38.846C116.047 38.846 116.078 38.8377 116.103 38.8211V38.5342L113.302 36.1862L116.1 34.539V34.1665Z" fill="#4C65BA"/>
<path d="M79.8525 92.188H79.8968L79.8885 92.635L75.0312 92.7067L75.0368 92.3784C75.0368 92.3259 75.07 92.2846 75.1114 92.268C75.1225 92.2625 75.1363 92.2597 75.1474 92.2597L79.8525 92.188Z" fill="#373449"/>
<path d="M78.1471 90.56L79.6178 90.5435C79.6537 90.5435 79.6869 90.5545 79.7146 90.5738C79.7256 90.5821 79.7339 90.5904 79.745 90.6014C79.7698 90.6317 79.7864 90.6704 79.7892 90.7145L79.7975 90.8856L79.8224 91.4374L79.8555 92.1907L75.1531 92.2596C75.1393 92.2596 75.1282 92.2624 75.1172 92.2679C75.2222 91.9258 75.4904 91.6581 75.8277 91.5836L76.9031 91.5009C77.1574 91.3712 77.3786 91.2553 77.6301 91.1256L78.0669 90.5876C78.0752 90.5821 78.0835 90.5793 78.0946 90.5766C78.1028 90.5738 78.1084 90.571 78.1167 90.5683C78.1222 90.5628 78.136 90.56 78.1471 90.56Z" fill="#373449"/>
<path d="M87.16 92.2017H87.2042L87.1932 92.6486L82.3359 92.6873L82.3442 92.3589C82.347 92.3065 82.3774 92.2651 82.4216 92.2486C82.4327 92.2431 82.4465 92.2403 82.4576 92.2403L87.16 92.2017Z" fill="#373449"/>
<path d="M85.4684 90.563L86.9391 90.5547C86.975 90.5547 87.0082 90.5657 87.0358 90.5878C87.0469 90.5961 87.0552 90.6044 87.0635 90.6154C87.0884 90.6457 87.1049 90.6844 87.1077 90.7285L87.1132 90.8996L87.1326 91.4514L87.1602 92.2046L82.4578 92.2433C82.444 92.2433 82.4329 92.246 82.4219 92.2516C82.5297 91.9122 82.8006 91.6445 83.1379 91.5701L84.216 91.4928C84.4704 91.3631 84.6915 91.25 84.9459 91.1231L85.3882 90.5878C85.3965 90.5823 85.4048 90.5795 85.4158 90.5768C85.4241 90.574 85.4296 90.5712 85.4379 90.5685C85.4435 90.5657 85.4545 90.563 85.4684 90.563Z" fill="#373449"/>
<path d="M61.3691 35.6038C61.4133 35.4437 61.5792 35.3527 61.7395 35.3968L62.0021 35.4713C62.0049 35.4603 62.0049 35.4493 62.0077 35.4382L61.5902 35.3361C61.405 35.292 61.2695 35.0988 61.3387 34.9223C61.4769 34.5691 61.7672 34.7015 61.9524 34.7457L62.1735 34.8229C62.168 34.8174 61.7948 34.6712 61.7893 34.6657C61.7395 34.6022 61.7119 34.5194 61.7257 34.4339C61.7506 34.2711 61.9026 34.158 62.0685 34.1856L63.119 34.3484C63.7438 34.398 64.5704 34.5084 64.9463 34.6105L64.5593 33.7552C64.4736 33.5675 64.5593 33.3468 64.7473 33.2613C64.9353 33.1757 65.1564 33.2613 65.2421 33.4489L65.9333 34.9774C66.0438 35.1485 66.124 35.2865 66.1406 35.3416C66.2014 35.5513 66.7654 36.7157 66.7654 36.7157L65.35 37.1847C65.35 37.1847 63.2102 36.5363 62.3311 36.1859L61.5792 35.9735C61.4188 35.9266 61.3248 35.7638 61.3691 35.6038Z" fill="#F9DCD2"/>
<path d="M64.9413 34.6436C64.9413 34.6408 64.9385 34.6408 64.9357 34.6381C64.9164 34.616 64.8804 34.6132 64.8583 34.6325C64.6648 34.8009 64.5653 34.9885 64.5625 35.1899C64.5598 35.5265 64.8334 35.7748 64.8445 35.7859C64.8666 35.8052 64.9026 35.8052 64.9219 35.7803C64.9413 35.7583 64.9413 35.7224 64.9191 35.7031C64.9164 35.7003 64.6703 35.4768 64.6731 35.1899C64.6759 35.0216 64.7616 34.8616 64.9302 34.7126C64.9523 34.696 64.9551 34.6657 64.9413 34.6436Z" fill="#FFA06E"/>
<path d="M82.7325 42.808H82.1713H80.6757H80.1145C79.1054 42.808 78.0024 43.2798 77.068 43.9475C75.5088 43.8427 73.5571 43.6799 73.1839 43.3846C72.6089 42.9322 67.8733 37.3091 66.8338 36.073C66.7205 35.9378 66.5214 35.9157 66.3804 36.0206L65.0701 37.0056C64.9318 37.1104 64.8959 37.3008 64.9899 37.447C65.9215 38.8983 70.5023 46.0031 71.2155 46.4335C71.5279 46.6211 73.1424 47.2198 74.9919 47.8737L75.39 50.1969C75.9899 53.6872 76.1198 57.2437 75.777 60.7699L75.5862 62.715C75.5862 62.8613 75.4342 62.9799 75.589 62.9799H86.9732C87.128 62.9799 86.2462 58.9157 86.2462 58.7695L87.8772 47.5178C88.2643 44.618 85.3836 42.808 82.7325 42.808Z" fill="#EB5E10"/>
<path d="M66.002 50.9802C65.9661 50.8698 66.0435 50.7622 66.1596 50.7622L67.4727 50.7512L65.9495 50.558C65.8582 50.547 65.7891 50.4697 65.7891 50.3814V50.3621C65.7864 50.2656 65.8665 50.1911 65.9661 50.1938L67.4644 50.2545L66.2315 50.031C66.1319 50.0117 66.0656 49.9207 66.0822 49.8241L66.0905 49.7827C66.107 49.6972 66.1872 49.6392 66.2785 49.6475L67.4617 49.78C67.47 49.78 67.481 49.78 67.4893 49.78L68.4071 49.7441C68.5481 49.7386 68.62 49.5813 68.5315 49.4709L68.0726 48.886C68.0173 48.8143 68.0229 48.7177 68.0864 48.657L68.1086 48.6349C68.1694 48.5797 68.2634 48.5742 68.3325 48.6239L69.2862 49.2916C69.8087 49.6254 70.0575 49.9041 70.1681 50.1138L70.0326 51.8769C70.0271 51.8824 70.0188 51.8797 70.0105 51.8797C69.3941 51.9183 67.774 51.7555 67.6414 51.7417C67.6358 51.7417 67.6303 51.7417 67.622 51.7417L66.6213 51.7445C66.5134 51.7445 66.425 51.6506 66.4388 51.543C66.4471 51.4685 66.5051 51.4134 66.5798 51.3996L67.4782 51.2588L66.1789 51.1512C66.1043 51.1457 66.0407 51.0961 66.0186 51.0271L66.002 50.9802Z" fill="#F9DCD2"/>
<path d="M86.5497 44.8468C85.7342 44.2453 84.6007 44.3474 83.8985 45.0785L83.8958 45.0813C83.2544 45.7435 80.5562 49.0186 79.8513 49.1979C79.1408 49.3772 71.7872 49.7001 70.1728 49.769C69.9958 49.7773 69.8576 49.9208 69.8576 50.0946L69.8438 51.7308C69.841 51.9046 69.9737 52.0481 70.1451 52.0619C71.8619 52.2081 80.3019 52.9117 81.0787 52.6082C81.4934 52.4481 84.2137 50.6933 86.4474 49.2365C87.9955 48.2239 88.0757 45.978 86.5912 44.8744C86.5773 44.8661 86.5635 44.855 86.5497 44.8468Z" fill="#EB5E10"/>
<path opacity="0.31" d="M70.1484 52.0618C71.8652 52.208 80.3052 52.9116 81.0821 52.6081C81.2728 52.5336 81.9446 52.128 82.8347 51.5679" stroke="#ECF1F7" stroke-miterlimit="10" stroke-linecap="round"/>
<path opacity="0.31" d="M86.5488 44.8468C85.7333 44.2453 84.5998 44.3474 83.8976 45.0785L83.8949 45.0813C83.2535 45.7435 80.5554 49.0186 79.8504 49.1979C79.1399 49.3772 71.7863 49.7001 70.1719 49.769" stroke="#ECF1F7" stroke-miterlimit="10" stroke-linecap="round"/>
<path d="M75.7424 59.6359C75.7479 59.3049 76.0133 59.3131 76.3451 59.3049L85.9904 59.0593C86.3249 59.051 86.6152 59.2911 86.665 59.6222C86.665 59.6222 87.1764 63.8133 87.2096 65.706L87.3671 90.3146C87.3699 90.6761 87.0741 90.9713 86.7119 90.9713L84.6579 90.9685C84.2709 90.9685 83.9474 90.6733 83.9115 90.2898L81.9072 68.661C81.8851 68.3382 81.617 68.0871 81.2908 68.0871C80.9507 68.0871 80.6743 68.3603 80.6715 68.7024L80.0301 90.425C80.0218 90.7285 79.7703 90.9713 79.4662 90.9713L77.4149 90.9685C77.1219 90.9685 76.8786 90.7368 76.8648 90.4443L75.5572 63.9926C75.5295 63.2394 75.7424 59.6359 75.7424 59.6359Z" fill="#373449"/>
<path d="M85.6076 37.298C85.6187 37.2566 85.638 37.2152 85.6574 37.1765C85.8536 36.7627 86.1107 36.3488 86.0361 35.8715C85.9836 35.5376 85.7735 35.2645 85.5219 35.0465C85.2261 34.7899 85.0685 34.5747 85.0077 34.1691C84.9579 33.8187 84.9607 33.4435 84.7838 33.1344C84.6594 32.9165 84.4576 32.7537 84.2502 32.613C83.6973 32.2405 83.0338 31.9866 82.3621 31.9839C82.0054 31.9839 81.729 32.1246 81.3945 32.1853C81.1954 32.2212 81.0821 32.1356 80.8803 32.0915C80.6951 32.0501 80.5071 32.028 80.3191 32.0225C79.8906 32.0115 79.4621 32.1025 79.0668 32.2653C78.2347 32.613 77.1261 33.4379 76.8994 34.3622C76.8192 34.6933 76.8552 35.0493 76.7308 35.3638C76.4847 35.9901 75.7438 36.1005 75.3043 36.5502C75.0251 36.8344 74.8426 37.2483 74.9366 37.6373C74.9891 37.8525 75.1191 38.0457 75.1467 38.2636C75.1744 38.4761 75.0997 38.6913 75.003 38.8817C74.7597 39.3618 74.3644 39.8115 74.392 40.3468C74.4031 40.573 74.4943 40.7855 74.5993 40.9869C75.8876 43.437 79.2631 43.7239 81.7014 43.3956C83.1804 43.197 84.7368 42.761 85.9172 41.8146C86.39 41.4366 86.8129 40.9372 86.9041 40.3413C87.0645 39.29 86.2351 38.4237 85.6961 37.618C85.6463 37.5463 85.5965 37.4663 85.5938 37.3807C85.5938 37.3559 85.5993 37.3255 85.6076 37.298Z" fill="#373449"/>
<path d="M83.4181 36.8066L83.5923 36.8177C83.9931 36.8425 84.2972 37.1846 84.2723 37.5847L84.2281 38.3076C84.2032 38.7077 83.8604 39.0112 83.4596 38.9864L83.1472 38.967C83.1278 38.9698 83.1112 38.9781 83.0919 38.9808L82.738 43.7845C82.5307 44.8164 81.693 45.52 80.8222 45.3958C79.8878 45.2634 79.2741 44.2314 79.4621 43.1195L79.4814 42.1373C78.1849 42.0573 76.7142 40.8322 76.88 39.2154L77.2145 35.9541C77.2339 35.7775 77.2892 35.6147 77.3694 35.4685C78.6355 36.5611 79.5008 34.867 80.2666 34.7925C82.022 34.6214 82.7989 35.2643 83.1804 36.8094C83.2163 36.9529 83.4181 36.8149 83.4181 36.8066Z" fill="#F9DCD2"/>
<path opacity="0.37" d="M81.8108 42.1509L79.4775 42.1895L79.4609 43.0228L81.8108 42.1509Z" fill="#EB5E10"/>
<path d="M80.0746 33.2007C79.859 33.4463 79.7484 33.8463 79.7899 34.1636C79.9087 35.0852 80.962 35.1845 81.5536 35.6756C81.819 35.8964 82.0208 36.2192 82.0098 36.5641C81.9904 37.1821 81.3269 37.6153 81.2357 38.2306C81.1611 38.7355 81.6144 38.9949 81.7084 39.4501C81.7803 39.8033 81.5647 40.1427 81.3739 40.4517C81.1666 40.7883 80.8459 40.9925 80.8874 41.4394C80.9178 41.7567 81.1279 42.0409 81.396 42.2148C81.6642 42.3886 81.9849 42.4658 82.3056 42.4934C82.9193 42.5459 83.5275 42.4934 84.1301 42.372C85.1945 42.1568 86.4081 41.4146 86.9002 40.4131C87.5028 39.188 85.4046 37.7284 85.6091 37.3035C85.8137 36.8786 86.5546 35.8743 85.5069 35.0493C84.5614 34.3071 85.6451 34.034 84.4204 32.7427C83.8896 32.1798 82.0568 30.9465 80.0746 33.2007Z" fill="#373449"/>
<path d="M78.2013 37.2316C78.146 37.2565 78.0797 37.2427 78.0134 37.2344C77.947 37.2234 77.8807 37.2151 77.8198 37.2123C77.7618 37.2068 77.6927 37.2068 77.6263 37.2068C77.56 37.2041 77.4909 37.2096 77.4411 37.1765C77.3913 37.1461 77.3775 37.0661 77.4411 36.975C77.5019 36.8868 77.654 36.7957 77.8502 36.8095C78.0438 36.8233 78.182 36.9364 78.2318 37.033C78.2815 37.1323 78.2539 37.2068 78.2013 37.2316Z" fill="#373449"/>
<path d="M80.5217 37.3723C80.4664 37.3971 80.4 37.3833 80.3337 37.375C80.2673 37.364 80.201 37.3557 80.1401 37.353C80.0821 37.3474 80.013 37.3474 79.9466 37.3474C79.8803 37.3447 79.8112 37.3502 79.7614 37.3171C79.7117 37.2867 79.6978 37.2067 79.7614 37.1157C79.8222 37.0274 79.9743 36.9363 80.1706 36.9501C80.3641 36.9639 80.5023 37.077 80.5521 37.1736C80.5991 37.2729 80.5742 37.3474 80.5217 37.3723Z" fill="#373449"/>
<path d="M77.6753 38.1807C77.5923 38.1724 77.5315 38.1007 77.5398 38.0179L77.5702 37.7199C77.5785 37.6372 77.6504 37.5765 77.7333 37.5847C77.8163 37.593 77.8771 37.6675 77.8688 37.7475L77.8384 38.0455C77.8329 38.1283 77.7582 38.189 77.6753 38.1807Z" fill="#373449"/>
<path d="M79.9253 38.396C79.8423 38.3878 79.7815 38.316 79.7898 38.2333L79.8202 37.9353C79.8285 37.8525 79.9032 37.7918 79.9833 37.8001C80.0663 37.8083 80.1271 37.8828 80.1188 37.9629L80.0884 38.2608C80.0801 38.3436 80.0082 38.4043 79.9253 38.396Z" fill="#373449"/>
<path d="M78.8478 37.6787L78.3999 38.3464C78.2672 38.5754 78.4221 38.8624 78.6874 38.8789L78.928 38.8927" stroke="#EB5E10" stroke-width="0.5" stroke-miterlimit="10" stroke-linecap="round"/>
<path d="M79.8004 40.2226L79.2171 40.1867C79.0816 40.1785 78.9765 40.0598 78.9848 39.9246L79.0208 39.3452L80.4003 39.428L80.3837 39.7067C80.3643 40.0102 80.1045 40.2419 79.8004 40.2226Z" fill="#373449"/>
<path d="M79.8019 40.2225L79.7715 40.2198C79.636 40.2115 79.5337 40.046 79.5393 39.9577C79.5586 39.6542 80.3852 39.7066 80.3852 39.7066C80.3659 40.0101 80.106 40.2419 79.8019 40.2225Z" fill="#EB5E10"/>
</svg>
