<svg width="110" height="109" viewBox="0 0 110 109" fill="none" xmlns="http://www.w3.org/2000/svg">
<g clip-path="url(#clip0_3039_13442)">
<path d="M23.9024 33.648C30.8966 32.8031 35.8765 26.4891 35.0254 19.5455C34.1743 12.6018 27.8145 7.65781 20.8203 8.50277C13.8261 9.34774 8.84621 15.6617 9.69732 22.6053C10.5484 29.549 16.9083 34.493 23.9024 33.648Z" fill="#EBEBEB"/>
<path d="M29.2466 27.9124C33.0502 24.1363 33.0502 18.0141 29.2466 14.238C25.4431 10.4619 19.2764 10.4619 15.4728 14.238C11.6693 18.0141 11.6693 24.1363 15.4728 27.9124C19.2764 31.6885 25.4431 31.6885 29.2466 27.9124Z" fill="white"/>
<path d="M22.3576 27.9834C26.2011 27.9834 29.3168 24.8902 29.3168 21.0745C29.3168 17.2588 26.2011 14.1655 22.3576 14.1655C18.5142 14.1655 15.3984 17.2588 15.3984 21.0745C15.3984 24.8902 18.5142 27.9834 22.3576 27.9834Z" fill="#EBEBEB"/>
<path d="M23.2487 24.7898C25.3159 24.3021 26.5935 22.243 26.1023 20.1906C25.611 18.1383 23.5369 16.8699 21.4697 17.3576C19.4024 17.8454 18.1248 19.9045 18.6161 21.9568C19.1073 24.0091 21.1814 25.2775 23.2487 24.7898Z" fill="white"/>
<path d="M20.625 21.0748C20.625 22.0271 21.4036 22.8001 22.3628 22.8001C23.3219 22.8001 24.1006 22.0271 24.1006 21.0748C24.1006 20.1226 23.3219 19.3496 22.3628 19.3496C21.4036 19.3496 20.625 20.1226 20.625 21.0748Z" fill="#EBEBEB"/>
<path d="M4.94313 3.38443L4.54688 3.77783L21.0335 20.1455L21.4298 19.7521L4.94313 3.38443Z" fill="#A6A6A6"/>
<path d="M20.2109 20.5025L22.3663 21.0749L21.7898 18.9351L20.2109 20.5025Z" fill="#A6A6A6"/>
<path d="M1.98438 2.51451L5.07466 5.58516L7.49946 6.31805L6.76124 3.91075L3.66827 0.842773L4.40918 3.25008L1.98438 2.51451Z" fill="#A6A6A6"/>
<path d="M79.4617 0.240723L80.3562 1.56206L81.9 1.99805L80.9085 3.25253L80.9678 4.84402L79.4617 4.29569L77.9529 4.84402L78.0149 3.25253L77.0234 1.99805L78.5672 1.56206L79.4617 0.240723Z" fill="#EBEBEB"/>
<path d="M86.3601 0.240723L87.2546 1.56206L88.7984 1.99805L87.8069 3.25253L87.8689 4.84402L86.3601 4.29569L84.8541 4.84402L84.9133 3.25253L83.9219 1.99805L85.4657 1.56206L86.3601 0.240723Z" fill="#EBEBEB"/>
<path d="M93.2508 0.240723L94.1453 1.56206L95.6891 1.99805L94.6976 3.25253L94.7569 4.84402L93.2508 4.29569L91.742 4.84402L91.804 3.25253L90.8125 1.99805L92.3563 1.56206L93.2508 0.240723Z" fill="#EBEBEB"/>
<path d="M100.149 0.240723L101.044 1.56206L102.587 1.99805L101.596 3.25253L101.658 4.84402L100.149 4.29569L98.6431 4.84402L98.7024 3.25253L97.7109 1.99805L99.2547 1.56206L100.149 0.240723Z" fill="#EBEBEB"/>
<path d="M107.048 0.240723L107.942 1.56206L109.486 1.99805L108.494 3.25253L108.554 4.84402L107.048 4.29569L105.539 4.84402L105.601 3.25253L104.609 1.99805L106.153 1.56206L107.048 0.240723Z" stroke="#EBEBEB" stroke-miterlimit="10"/>
<path d="M107.048 4.29569V0.240723L106.153 1.56206L104.609 1.99805L105.601 3.25253L105.539 4.84402L107.048 4.29569Z" fill="#EBEBEB"/>
<path fill-rule="evenodd" clip-rule="evenodd" d="M98.4352 56.1435C98.093 55.9322 97.7967 55.6246 97.3386 55.6701C97.1635 55.6888 97.2012 55.5444 97.2012 55.4507C97.1932 53.7469 97.1878 52.0431 97.1797 50.3419C97.1797 50.2189 97.1878 50.1172 97.3225 50.0477C98.6319 49.387 99.195 48.0951 99.9925 46.9877C100.847 45.8081 101.138 44.5296 100.93 43.12C100.873 42.7375 101.054 42.5636 101.402 42.4861C101.819 42.3898 102.237 42.5048 102.382 42.7883C102.738 43.4945 103.042 44.23 103.139 45.0191C103.217 45.6637 102.986 46.295 102.908 46.9342C102.848 47.4023 102.741 47.8651 102.654 48.3385C102.77 48.4214 102.902 48.3786 103.026 48.3786C104.476 48.3759 105.925 48.3706 107.375 48.3652C107.986 48.3626 108.285 48.5364 108.372 48.9376C108.477 49.4378 108.213 49.9487 107.744 50.1868C107.636 50.2403 107.439 50.1921 107.426 50.3606C107.412 50.5318 107.614 50.5131 107.717 50.5826C108.242 50.9384 108.148 51.6766 107.542 52.1046C107.396 52.2062 107.113 52.1608 107.105 52.3747C107.103 52.5432 107.367 52.5406 107.488 52.6609C107.914 53.0755 107.706 53.8512 107.073 54.1668C106.992 54.207 106.892 54.215 106.82 54.2658C106.747 54.314 106.677 54.3674 106.817 54.4664C107.447 54.9104 107.434 55.5283 106.803 55.983C106.742 56.0285 106.68 56.074 106.615 56.1194C106.386 56.2879 106.114 56.2853 105.852 56.2879C103.578 56.3013 101.307 56.3067 99.0333 56.312C98.8205 56.3067 98.6049 56.3013 98.4352 56.1435Z" fill="#EBEBEB"/>
<path fill-rule="evenodd" clip-rule="evenodd" d="M91.959 53.1609C91.9563 52.0803 91.9563 50.997 91.9455 49.9137C91.9428 49.6944 91.9644 49.5847 92.2365 49.5874C93.5674 49.5981 94.8957 49.5954 96.2239 49.5767C96.4853 49.574 96.5257 49.6623 96.5257 49.8923C96.5257 52.0696 96.5311 54.2496 96.5499 56.4268C96.5526 56.705 96.4772 56.7826 96.197 56.7799C94.9065 56.7692 93.6159 56.7719 92.3281 56.796C92.0075 56.8013 91.9617 56.6916 91.9644 56.4108C91.9778 55.3248 91.9644 54.2442 91.959 53.1609Z" fill="#EBEBEB"/>
<path d="M41.6381 104.969H6.35448C5.96651 104.969 5.64859 104.656 5.64859 104.268V100.122C5.64859 100.112 5.64859 100.104 5.64859 100.093C5.64859 100.08 5.65129 100.066 5.65129 100.053C5.65398 100.029 5.65667 100.002 5.66206 99.978L9.92703 84.4269L4.39847 50.4277L2.55292 49.7911C2.17842 49.6815 1.96558 49.2936 2.07604 48.9218C2.18651 48.55 2.57717 48.3387 2.95167 48.4484L5.22829 49.2107C5.49233 49.2883 5.68631 49.5076 5.72672 49.7778L11.3415 84.3359C11.3523 84.4135 11.3523 84.4937 11.3361 84.5713L7.19777 99.4725L40.0647 101.792C40.2479 101.805 40.4176 101.885 40.5416 102.022L42.1635 103.8C42.3494 104.006 42.3979 104.3 42.2847 104.555C42.1689 104.809 41.9183 104.969 41.6381 104.969ZM7.06037 103.57H40.0512L39.6875 103.169L7.06037 100.863V103.57Z" fill="#C7C7C7"/>
<path d="M54.5616 61.4719H6.99495C6.60698 61.4719 6.28906 61.1589 6.28906 60.7711C6.28906 60.3859 6.60429 60.0703 6.99495 60.0703H54.5616C54.9495 60.0703 55.2675 60.3833 55.2675 60.7711C55.2648 61.1589 54.9495 61.4719 54.5616 61.4719Z" fill="#C7C7C7"/>
<path d="M10.6411 84.6728C10.5172 84.6728 10.4121 84.5765 10.4067 84.4508C10.3986 84.3224 10.4983 84.2128 10.6276 84.2047L46.3585 82.3057L53.3931 60.6961C53.4336 60.5731 53.5656 60.5062 53.6895 60.5463C53.8134 60.5864 53.8808 60.7175 53.8404 60.8405L46.7573 82.6026C46.7276 82.6935 46.6441 82.7577 46.5471 82.763L10.6546 84.6702C10.6492 84.6728 10.6438 84.6728 10.6411 84.6728Z" fill="#C7C7C7"/>
<path d="M47.1537 80.8184H9.99221C9.86289 80.8184 9.75781 80.7141 9.75781 80.5857C9.75781 80.4573 9.86289 80.353 9.99221 80.353H47.1537C47.283 80.353 47.3881 80.4573 47.3881 80.5857C47.3881 80.7141 47.283 80.8184 47.1537 80.8184Z" fill="#C7C7C7"/>
<path d="M48.0957 77.9806H9.55471C9.42539 77.9806 9.32031 77.8762 9.32031 77.7478C9.32031 77.6195 9.42539 77.5151 9.55471 77.5151H48.0957C48.225 77.5151 48.3301 77.6195 48.3301 77.7478C48.3301 77.8762 48.225 77.9806 48.0957 77.9806Z" fill="#C7C7C7"/>
<path d="M48.9729 75.1422H9.11721C8.98789 75.1422 8.88281 75.0379 8.88281 74.9095C8.88281 74.7811 8.98789 74.6768 9.11721 74.6768H48.9703C49.0996 74.6768 49.2047 74.7811 49.2047 74.9095C49.2073 75.0379 49.1023 75.1422 48.9729 75.1422Z" fill="#C7C7C7"/>
<path d="M49.9176 72.3043H8.67971C8.55039 72.3043 8.44531 72.2 8.44531 72.0716C8.44531 71.9432 8.55039 71.8389 8.67971 71.8389H49.9176C50.0469 71.8389 50.152 71.9432 50.152 72.0716C50.152 72.2 50.0469 72.3043 49.9176 72.3043Z" fill="#C7C7C7"/>
<path d="M50.8218 69.4693H8.24221C8.11289 69.4693 8.00781 69.365 8.00781 69.2366C8.00781 69.1082 8.11289 69.0039 8.24221 69.0039H50.8218C50.9511 69.0039 51.0562 69.1082 51.0562 69.2366C51.0562 69.365 50.9511 69.4693 50.8218 69.4693Z" fill="#C7C7C7"/>
<path d="M51.7907 66.6314H7.80471C7.67539 66.6314 7.57031 66.5271 7.57031 66.3987C7.57031 66.2703 7.67539 66.166 7.80471 66.166H51.7907C51.92 66.166 52.0251 66.2703 52.0251 66.3987C52.0251 66.5271 51.92 66.6314 51.7907 66.6314Z" fill="#C7C7C7"/>
<path d="M52.7138 63.7931H7.36721C7.23789 63.7931 7.13281 63.6887 7.13281 63.5603C7.13281 63.432 7.23789 63.3276 7.36721 63.3276H52.7138C52.8431 63.3276 52.9482 63.432 52.9482 63.5603C52.9482 63.6887 52.8431 63.7931 52.7138 63.7931Z" fill="#C7C7C7"/>
<path d="M13.8553 84.3757C13.734 84.3757 13.6317 84.2821 13.6209 84.1591L11.8211 60.7868C11.8104 60.6584 11.9073 60.5461 12.0367 60.5354C12.1525 60.522 12.2791 60.621 12.2899 60.7494L14.0897 84.1216C14.1004 84.25 14.0035 84.3623 13.8741 84.373C13.8687 84.3757 13.8607 84.3757 13.8553 84.3757Z" fill="#C7C7C7"/>
<path d="M42.9849 82.8511C42.9634 82.8511 42.9445 82.8485 42.9229 82.8431C42.799 82.8083 42.7236 82.6826 42.7586 82.5569L48.7425 60.7093C48.7775 60.5863 48.9041 60.5114 49.0308 60.5461C49.1547 60.5809 49.2301 60.7066 49.1951 60.8323L43.2112 82.6799C43.1816 82.7843 43.0873 82.8511 42.9849 82.8511Z" fill="#C7C7C7"/>
<path d="M17.6055 84.2019C17.4788 84.2019 17.3738 84.1002 17.3711 83.9745L16.7891 60.7761C16.7864 60.6478 16.8888 60.5408 17.0181 60.5381C17.0208 60.5381 17.0235 60.5381 17.0235 60.5381C17.1501 60.5381 17.2552 60.6397 17.2579 60.7654L17.8399 83.9638C17.8426 84.0922 17.7402 84.1992 17.6109 84.2019C17.6082 84.2019 17.6055 84.2019 17.6055 84.2019Z" fill="#C7C7C7"/>
<path d="M21.461 83.9957C21.4583 83.9957 21.4583 83.9957 21.4556 83.9957C21.3263 83.993 21.2239 83.886 21.2266 83.7576L21.6577 60.7679C21.6604 60.6395 21.7655 60.5405 21.8921 60.5405C21.8948 60.5405 21.8948 60.5405 21.8975 60.5405C22.0268 60.5432 22.1292 60.6502 22.1265 60.7786L21.6954 83.7683C21.6954 83.894 21.5903 83.9957 21.461 83.9957Z" fill="#C7C7C7"/>
<path d="M38.8852 83.0356C38.869 83.0356 38.8529 83.0329 38.8367 83.0302C38.7101 83.0035 38.6266 82.8804 38.6535 82.7547L43.2014 60.7252C43.2283 60.5995 43.3522 60.5193 43.4789 60.5433C43.6055 60.5701 43.6863 60.6931 43.6621 60.8188L39.1142 82.8483C39.09 82.958 38.993 83.0356 38.8852 83.0356Z" fill="#C7C7C7"/>
<path d="M34.2116 83.3113C34.1981 83.3113 34.1846 83.3113 34.1738 83.3086C34.0445 83.2872 33.9583 83.1668 33.9799 83.0411L37.6602 60.7335C37.6817 60.6051 37.803 60.5195 37.9296 60.5409C38.0589 60.5623 38.1451 60.6826 38.1236 60.8084L34.4433 83.116C34.4244 83.231 34.3247 83.3113 34.2116 83.3113Z" fill="#C7C7C7"/>
<path d="M25.4016 83.7741C25.3962 83.7741 25.3908 83.7741 25.3828 83.7741C25.2534 83.7634 25.1565 83.6538 25.1645 83.5227L26.8808 60.7523C26.8915 60.6239 27.0047 60.5276 27.1313 60.5356C27.2606 60.5463 27.3576 60.656 27.3496 60.7844L25.6333 83.5548C25.6279 83.6805 25.5229 83.7741 25.4016 83.7741Z" fill="#C7C7C7"/>
<path d="M30.0248 83.4769C30.0167 83.4769 30.0086 83.4769 29.9978 83.4769C29.8685 83.4635 29.7769 83.3458 29.7904 83.2201L32.3068 60.7493C32.3203 60.6209 32.4334 60.5272 32.5654 60.5433C32.6948 60.5567 32.7864 60.6744 32.7729 60.8001L30.2565 83.2709C30.243 83.3886 30.1433 83.4769 30.0248 83.4769Z" fill="#C7C7C7"/>
<path d="M10.9291 108.615C12.3829 108.615 13.5614 107.445 13.5614 106.001C13.5614 104.558 12.3829 103.388 10.9291 103.388C9.47538 103.388 8.29688 104.558 8.29688 106.001C8.29688 107.445 9.47538 108.615 10.9291 108.615Z" fill="#263238"/>
<path d="M12.1269 106.002C12.1269 106.657 11.5907 107.189 10.9306 107.189C10.2705 107.189 9.73438 106.657 9.73438 106.002C9.73438 105.346 10.2705 104.814 10.9306 104.814C11.5907 104.811 12.1269 105.344 12.1269 106.002Z" fill="#EBEBEB"/>
<path d="M34.4838 108.615C35.9376 108.615 37.1161 107.445 37.1161 106.001C37.1161 104.558 35.9376 103.388 34.4838 103.388C33.0301 103.388 31.8516 104.558 31.8516 106.001C31.8516 107.445 33.0301 108.615 34.4838 108.615Z" fill="#263238"/>
<path d="M35.6815 106.002C35.6815 106.657 35.1454 107.189 34.4853 107.189C33.8252 107.189 33.2891 106.657 33.2891 106.002C33.2891 105.346 33.8252 104.814 34.4853 104.814C35.1454 104.811 35.6815 105.344 35.6815 106.002Z" fill="#EBEBEB"/>
<path d="M4.51195 49.7615L0.804688 48.3652" stroke="#EB5E10" stroke-width="6" stroke-miterlimit="10" stroke-linecap="round" stroke-linejoin="round"/>
<path d="M1.46875 108.615C36.2351 108.451 75.2341 108.449 110 108.615C75.2341 108.778 36.2351 108.778 1.46875 108.615Z" fill="#263238"/>
<path d="M78.4995 6.21094H32.9509C30.4075 6.21094 28.3438 8.29459 28.3438 10.8704V103.955C28.3438 106.526 30.4075 108.615 32.9509 108.615H78.4995C81.0429 108.615 83.112 106.526 83.112 103.955V10.8704C83.112 8.29459 81.0429 6.21094 78.4995 6.21094ZM80.2292 101.077C80.2292 103.527 78.381 105.509 76.1017 105.509H35.3541C33.0694 105.509 31.2212 103.527 31.2212 101.077V14.3984C31.2212 9.4073 33.0694 9.1639 35.3541 9.1639H43.5176C43.9918 9.1639 44.3798 9.69885 44.3798 10.3622V10.6484C44.3798 12.2024 45.2366 12.2078 46.2873 12.2078H65.1631C66.2246 12.2078 67.076 12.2024 67.076 10.6484V10.3622C67.076 9.69885 67.4586 9.1639 67.9408 9.1639H76.1017C78.381 9.1639 80.2292 9.82724 80.2292 14.3984V101.077Z" fill="#263238"/>
<path d="M80.2346 14.4733V101.152C80.2346 103.602 78.3863 105.584 76.107 105.584H35.3595C33.0748 105.584 31.2266 103.602 31.2266 101.152V14.4733C31.2266 9.48217 33.0748 9.23877 35.3595 9.23877H43.523C43.9972 9.23877 44.3852 9.77373 44.3852 10.4371V10.7233C44.3852 12.2773 45.2419 12.2827 46.2927 12.2827H65.1685C66.23 12.2827 67.0814 12.2773 67.0814 10.7233V10.4371C67.0814 9.77373 67.4639 9.23877 67.9462 9.23877H76.107C78.3863 9.23877 80.2346 9.90212 80.2346 14.4733Z" fill="white"/>
<path d="M58.3025 10.266H53.1539C52.9787 10.266 52.8359 10.1243 52.8359 9.95039C52.8359 9.77653 52.9787 9.63477 53.1539 9.63477H58.3025C58.4777 9.63477 58.6204 9.77653 58.6204 9.95039C58.6204 10.1243 58.4804 10.266 58.3025 10.266Z" fill="white"/>
<path d="M42.1112 11.1113C42.0842 11.1381 42.0573 11.1621 42.033 11.1889C42.0169 11.2049 42.0034 11.2183 41.9872 11.2343C41.7744 11.0311 41.5238 10.9214 41.2275 10.9214C40.9311 10.9214 40.6805 11.0311 40.4677 11.2343C40.4542 11.221 40.4407 11.2049 40.4246 11.1889C40.3976 11.1621 40.3734 11.1381 40.3464 11.1113H40.3438C40.3438 11.1113 40.3438 11.1113 40.3438 11.1086C40.3464 11.106 40.3464 11.106 40.3491 11.1033C40.3815 11.0739 40.4138 11.0444 40.4488 11.015C40.5189 10.9562 40.597 10.908 40.6805 10.8679C40.7775 10.8198 40.8799 10.785 40.985 10.7663C41.0362 10.7582 41.0874 10.7529 41.1385 10.7449C41.1547 10.7422 41.2679 10.7422 41.2733 10.7422C41.3083 10.7449 41.3433 10.7475 41.3783 10.7502C41.4753 10.7609 41.5669 10.785 41.6585 10.8171C41.7232 10.8412 41.7879 10.8706 41.8471 10.9053C41.9118 10.9428 41.9711 10.9829 42.0276 11.0311C42.0573 11.0578 42.0842 11.0846 42.1112 11.1113C42.1112 11.1086 42.1112 11.1086 42.1112 11.1113Z" fill="#A6A6A6"/>
<path d="M40.7177 11.4777C40.6773 11.4376 40.6342 11.3974 40.5938 11.3546C40.7365 11.2155 40.9036 11.1273 41.1003 11.1032C41.3939 11.0631 41.6472 11.1514 41.8627 11.3546C41.8196 11.3974 41.7792 11.4376 41.7388 11.4777C41.5987 11.3413 41.429 11.269 41.2296 11.269C41.0275 11.269 40.8605 11.3413 40.7177 11.4777Z" fill="#A6A6A6"/>
<path d="M41.6143 11.6009C41.5739 11.641 41.5308 11.6812 41.4904 11.724C41.4176 11.6544 41.3314 11.617 41.229 11.617C41.1266 11.617 41.0404 11.6544 40.9677 11.724C40.9273 11.6838 40.8842 11.641 40.8438 11.6009C41.0404 11.3976 41.3961 11.3816 41.6143 11.6009Z" fill="#A6A6A6"/>
<path d="M41.3435 11.836C41.3435 11.8975 41.2923 11.9483 41.2303 11.9483C41.1684 11.9483 41.1172 11.8975 41.1172 11.836C41.1172 11.7745 41.1684 11.7236 41.2303 11.7236C41.2923 11.7263 41.3435 11.7745 41.3435 11.836Z" fill="#A6A6A6"/>
<path d="M34.4219 11.3466C34.4219 11.1674 34.5674 11.0229 34.7479 11.0229C34.9284 11.0229 35.0739 11.1674 35.0739 11.3466C35.0739 11.5258 34.9284 11.6702 34.7479 11.6702C34.5674 11.6702 34.4219 11.5258 34.4219 11.3466Z" fill="#A6A6A6"/>
<path d="M35.4453 11.3466C35.4453 11.1674 35.5908 11.0229 35.7713 11.0229C35.9518 11.0229 36.0973 11.1674 36.0973 11.3466C36.0973 11.5258 35.9518 11.6702 35.7713 11.6702C35.5908 11.6702 35.4453 11.5258 35.4453 11.3466Z" fill="#A6A6A6"/>
<path d="M36.4688 11.3466C36.4688 11.1674 36.6142 11.0229 36.7948 11.0229C36.9753 11.0229 37.1208 11.1674 37.1208 11.3466C37.1208 11.5258 36.9753 11.6702 36.7948 11.6702C36.6142 11.6702 36.4688 11.5258 36.4688 11.3466Z" fill="#A6A6A6"/>
<path d="M37.4922 11.3466C37.4922 11.1674 37.6377 11.0229 37.8182 11.0229C37.9987 11.0229 38.1442 11.1674 38.1442 11.3466C38.1442 11.5258 37.9987 11.6702 37.8182 11.6702C37.6377 11.6702 37.4922 11.5258 37.4922 11.3466Z" fill="#A6A6A6"/>
<path d="M38.5156 11.3466C38.5156 11.1674 38.6611 11.0229 38.8416 11.0229C39.0221 11.0229 39.1676 11.1674 39.1676 11.3466C39.1676 11.5258 39.0221 11.6702 38.8416 11.6702C38.6611 11.6702 38.5156 11.5258 38.5156 11.3466Z" fill="#A6A6A6"/>
<path d="M76.5571 12.05H73.9141V10.833H76.5571V12.05ZM74.0488 11.9163H76.4224V10.9667H74.0488V11.9163Z" fill="#A6A6A6"/>
<path d="M75.8383 11.0415H74.1328V11.8439H75.8383V11.0415Z" fill="#A6A6A6"/>
<path d="M76.7969 11.1167H76.5625V11.7667H76.7969V11.1167Z" fill="#A6A6A6"/>
<path d="M58.5423 5.51807H52.9141V18.6646H58.5423V5.51807Z" fill="#EB5E10"/>
<path d="M58.5396 18.6621C58.5396 18.6621 58.0035 21.3369 55.7268 21.3369C53.4475 21.3369 52.9141 18.6621 52.9141 18.6621H58.5396Z" fill="#EB5E10"/>
<path opacity="0.1" d="M58.5396 18.6621C58.5396 18.6621 58.0035 21.3369 55.7268 21.3369C53.4475 21.3369 52.9141 18.6621 52.9141 18.6621H58.5396Z" fill="black"/>
<path d="M52.9122 18.6615H47.2812L47.8578 5.51758H52.9122V18.6615Z" fill="white"/>
<path d="M52.9161 18.6617L47.2878 18.6964H47.2501C47.242 18.6884 47.7997 5.53116 47.7943 5.51244L47.797 5.44824H47.8617L52.9161 5.46162H52.9699C52.9915 5.51244 52.9349 12.0496 52.9511 12.1031L52.9161 18.6617ZM52.9161 18.6617L52.881 12.0737L52.8622 5.51511L52.9161 5.56861L47.8617 5.58198L47.929 5.51779C47.9102 5.51244 47.374 18.8168 47.2878 18.6269C47.2851 18.6269 52.9161 18.6617 52.9161 18.6617Z" fill="#263238"/>
<path d="M52.9122 18.6616C52.9122 18.6616 52.3733 21.3364 50.094 21.3364C47.8174 21.3364 47.2812 18.6616 47.2812 18.6616H52.9122Z" fill="#EBEBEB"/>
<path d="M47.2845 18.6619H41.6562L42.804 5.51807H47.8584L47.2845 18.6619Z" fill="#EB5E10"/>
<path d="M47.2818 18.6621C47.2818 18.6621 46.7457 21.3369 44.469 21.3369C42.1897 21.3369 41.6562 18.6621 41.6562 18.6621H47.2818Z" fill="#EB5E10"/>
<path opacity="0.1" d="M47.2818 18.6621C47.2818 18.6621 46.7457 21.3369 44.469 21.3369C42.1897 21.3369 41.6562 18.6621 41.6562 18.6621H47.2818Z" fill="black"/>
<path d="M41.6622 18.6615H36.0312L37.7556 5.51758H42.8099L41.6622 18.6615Z" fill="white"/>
<path d="M41.6609 18.6617L36.0326 18.6964H35.9922C35.9841 18.6857 37.695 5.52581 37.6896 5.50709L37.6977 5.44824H37.7569L42.8113 5.46162H42.8706L42.8652 5.52046L42.2698 12.1058L41.6609 18.6617ZM41.6609 18.6617L42.2024 12.071L42.7574 5.50976L42.8113 5.56861L37.7569 5.58198L37.8243 5.52314C37.8027 5.51511 36.1108 18.8275 36.0353 18.6269C36.0299 18.6269 41.6609 18.6617 41.6609 18.6617Z" fill="#263238"/>
<path d="M41.6568 18.6616C41.6568 18.6616 41.1206 21.3364 38.844 21.3364C36.5647 21.3364 36.0312 18.6616 36.0312 18.6616H41.6568Z" fill="#EBEBEB"/>
<path d="M36.0267 18.6619H30.3984L32.6966 5.51807H37.751L36.0267 18.6619Z" fill="#EB5E10"/>
<path d="M36.0294 18.6621C36.0294 18.6621 35.4905 21.3369 33.2166 21.3369C30.9373 21.3369 30.3984 18.6621 30.3984 18.6621H36.0294Z" fill="#EB5E10"/>
<path opacity="0.1" d="M36.0294 18.6621C36.0294 18.6621 35.4905 21.3369 33.2166 21.3369C30.9373 21.3369 30.3984 18.6621 30.3984 18.6621H36.0294Z" fill="black"/>
<path d="M30.3966 18.6617H24.7656L27.2793 7.15745C27.4868 6.2079 28.5025 5.51514 29.6907 5.51514H32.692L30.3966 18.6617Z" fill="white"/>
<path d="M30.3979 18.6618L24.7697 18.6965H24.7266L24.7346 18.6537C25.0876 17.0194 26.7823 9.17966 27.0948 7.72726C27.1729 7.40361 27.2349 6.9275 27.4154 6.6413C28.0108 5.57138 29.3337 5.38147 30.4464 5.45637L32.6988 5.46172H32.7634L32.7527 5.52591L31.5834 12.1085L30.3979 18.6618ZM30.3979 18.6618L31.5133 12.0684L32.6422 5.50451L32.6961 5.56871L30.4437 5.57406C29.3633 5.50986 28.1078 5.68105 27.5286 6.70282C27.3454 7.01309 27.3076 7.38756 27.2187 7.75133L26.7365 9.93395L24.802 18.6698L24.767 18.627L30.3979 18.6618Z" fill="#263238"/>
<path d="M30.399 18.6616C30.399 18.6616 29.8628 21.3364 27.5862 21.3364C25.3069 21.3364 24.7734 18.6616 24.7734 18.6616H30.399Z" fill="#EBEBEB"/>
<path d="M58.5469 18.6615H64.1751L63.6013 5.51758H58.5469V18.6615Z" fill="white"/>
<path d="M58.5461 18.6617L64.1743 18.6269L64.1393 18.6643L63.5331 5.52046L63.6004 5.58466L58.5461 5.57128L58.6 5.51779L58.5811 12.0763L58.5461 18.6617ZM58.5461 18.6617L58.511 12.1031L58.4922 5.51511V5.46162H58.5461L63.6004 5.44824H63.6651L63.6678 5.51244C63.6651 5.56058 64.2147 18.6536 64.212 18.6964H64.1743L58.5461 18.6617Z" fill="#263238"/>
<path d="M64.1778 18.6616C64.1778 18.6616 63.639 21.3364 61.365 21.3364C59.0857 21.3364 58.5469 18.6616 58.5469 18.6616H64.1778Z" fill="#EBEBEB"/>
<path d="M64.1781 18.6619H69.8064L68.6559 5.51807H63.6016L64.1781 18.6619Z" fill="#EB5E10"/>
<path d="M69.8052 18.6621C69.8052 18.6621 69.2691 21.3369 66.9925 21.3369C64.7131 21.3369 64.1797 18.6621 64.1797 18.6621H69.8052Z" fill="#EB5E10"/>
<path opacity="0.1" d="M69.8052 18.6621C69.8052 18.6621 69.2691 21.3369 66.9925 21.3369C64.7131 21.3369 64.1797 18.6621 64.1797 18.6621H69.8052Z" fill="black"/>
<path d="M69.804 18.6615H75.4322L73.7079 5.51758H68.6562L69.804 18.6615Z" fill="white"/>
<path d="M69.8035 18.6617L75.4317 18.6269C75.3536 18.8676 73.6697 5.46964 73.6427 5.52581L73.7101 5.58466L68.6557 5.57128L68.7096 5.51244C68.9898 8.78904 69.5367 15.3851 69.8035 18.6617ZM69.8035 18.6617L69.1946 12.1058L68.5991 5.52046L68.5938 5.46162H68.653L73.7074 5.44824H73.7667C73.7855 5.54453 75.456 18.5921 75.4721 18.6964H75.4317L69.8035 18.6617Z" fill="#263238"/>
<path d="M75.4302 18.6616C75.4302 18.6616 74.8941 21.3364 72.6175 21.3364C70.3381 21.3364 69.8047 18.6616 69.8047 18.6616H75.4302Z" fill="#EBEBEB"/>
<path d="M75.4352 18.6619H81.0635L78.7653 5.51807H73.7109L75.4352 18.6619Z" fill="#EB5E10"/>
<path d="M81.0606 18.6621C81.0606 18.6621 80.5218 21.3369 78.2425 21.3369C75.9658 21.3369 75.4297 18.6621 75.4297 18.6621H81.0606Z" fill="#EB5E10"/>
<path opacity="0.1" d="M81.0606 18.6621C81.0606 18.6621 80.5218 21.3369 78.2425 21.3369C75.9658 21.3369 75.4297 18.6621 75.4297 18.6621H81.0606Z" fill="black"/>
<path d="M81.0638 18.6617H86.6921L84.1783 7.15745C83.9709 6.2079 82.9552 5.51514 81.767 5.51514H78.7656L81.0638 18.6617Z" fill="white"/>
<path d="M81.066 18.6618L86.6942 18.6271L86.6592 18.6699L84.7274 9.9367L84.2452 7.75408C84.1562 7.39031 84.1185 7.01317 83.9353 6.70557C83.3534 5.6838 82.1006 5.51262 81.0202 5.57681L78.7678 5.57146L78.8217 5.50727C79.3902 8.78387 80.5137 15.3852 81.066 18.6618ZM81.066 18.6618L79.8832 12.1086L78.7139 5.52599L78.7031 5.4618H78.7678L81.0202 5.45645C82.3323 5.34945 83.9272 5.71055 84.2532 7.18168L84.3718 7.72733C84.6762 9.13962 86.3898 17.0703 86.7319 18.6538L86.74 18.6966H86.6969L81.066 18.6618Z" fill="#263238"/>
<path d="M86.6959 18.6616C86.6959 18.6616 86.1597 21.3364 83.8831 21.3364C81.6038 21.3364 81.0703 18.6616 81.0703 18.6616H86.6959Z" fill="#EBEBEB"/>
<path d="M68.8234 44.4121H42.6328V70.4137H68.8234V44.4121Z" fill="#EB5E10"/>
<path d="M64.3384 56.8555H47.125V54.4321H64.3384V56.8555Z" fill="white"/>
<path d="M63.3784 56.3447L62.8099 65.3347H48.6571L48.0859 56.3447H63.3784Z" fill="white"/>
<path d="M57.565 55.3738C57.565 56.3768 56.746 57.19 55.7356 57.19C54.7253 57.19 53.9062 56.3768 53.9062 55.3738C53.9062 54.3708 54.7253 53.5576 55.7356 53.5576C56.746 53.5549 57.565 54.3681 57.565 55.3738Z" fill="white"/>
<path d="M53.3199 58.289V63.462C53.3199 63.7188 53.1151 63.9274 52.8565 63.9274H52.781C52.5709 63.9274 52.3984 63.7563 52.3984 63.5423V58.289C52.3984 58.0804 52.5709 57.9092 52.781 57.9092H52.9319C53.1528 57.9092 53.3199 58.0804 53.3199 58.289Z" fill="#EB5E10"/>
<path d="M56.1871 58.289V63.462C56.1871 63.7188 55.9823 63.9274 55.7236 63.9274H55.6482C55.4381 63.9274 55.2656 63.7563 55.2656 63.5423V58.289C55.2656 58.0804 55.4381 57.9092 55.6482 57.9092H55.7991C56.02 57.9092 56.1871 58.0804 56.1871 58.289Z" fill="#EB5E10"/>
<path d="M59.0542 58.289V63.462C59.0542 63.7188 58.8495 63.9274 58.5908 63.9274H58.5154C58.3052 63.9274 58.1328 63.7563 58.1328 63.5423V58.289C58.1328 58.0804 58.3052 57.9092 58.5154 57.9092H58.6663C58.8845 57.9092 59.0542 58.0804 59.0542 58.289Z" fill="#EB5E10"/>
<path d="M60.7469 55.2238H59.9387V50.4226H51.5192V55.2238H50.7109V49.6201H60.7469V55.2238Z" fill="white"/>
<path d="M71.9881 47.2672C73.5789 45.5306 73.4505 42.8426 71.7013 41.2633C69.9521 39.684 67.2446 39.8115 65.6538 41.5481C64.063 43.2846 64.1914 45.9726 65.9406 47.5519C67.6898 49.1312 70.3974 49.0037 71.9881 47.2672Z" fill="#455A64"/>
<path d="M69.7089 43.968C70.0052 44.2542 70.148 44.6393 70.148 45.0165C70.148 45.3936 70.0025 45.7761 69.7089 46.0703C69.4179 46.3565 69.0326 46.5063 68.6473 46.5063C68.2675 46.5063 67.8822 46.3565 67.5912 46.0703C67.4592 45.9393 67.4592 45.7226 67.5912 45.5915C67.7232 45.4605 67.9415 45.4605 68.0735 45.5915C68.2297 45.7467 68.4345 45.8243 68.6473 45.8243C68.8575 45.8243 69.0649 45.7467 69.2266 45.5915C69.3909 45.4311 69.4691 45.2251 69.4691 45.0165C69.4691 44.8078 69.3909 44.6046 69.2266 44.4467C69.0703 44.2863 68.8656 44.214 68.6527 44.206C68.5557 44.2114 68.4668 44.1712 68.4049 44.099C68.3995 44.099 68.3995 44.099 68.3995 44.0937C68.2594 43.9626 68.2594 43.7513 68.386 43.6149L69.0003 42.9917H68.0223C67.8364 42.9917 67.6855 42.8419 67.6855 42.6493C67.6855 42.4647 67.8364 42.3149 68.0223 42.3149H69.8032C69.9971 42.3149 70.148 42.4647 70.148 42.6493C70.148 42.7081 70.1292 42.7643 70.1049 42.8098C70.0861 42.8392 70.0699 42.8686 70.0456 42.8927L69.2859 43.6711C69.4448 43.746 69.5903 43.8422 69.7089 43.968Z" fill="white"/>
<path d="M88.0157 28.9676C90.136 30.4842 96.9228 36.5853 97.3539 37.5991C97.8658 38.8081 95.2362 43.1065 94.1477 43.0128C91.335 42.7694 86.4072 33.9748 84.8284 29.9492C84.0578 27.9806 84.462 26.4292 88.0157 28.9676Z" fill="#D3766A"/>
<path d="M93.7617 28.4219C94.3706 27.7585 99.1906 31.3213 99.0963 32.6373C98.7433 37.4787 97.248 41.5898 96.3589 42.4431C95.3324 43.4247 93.2983 43.3418 92.49 41.6674C91.4231 39.4553 91.4015 30.9897 93.7617 28.4219Z" fill="#D3766A"/>
<path d="M91.971 38.9336C91.4295 36.2508 92.13 32.4767 92.13 32.4687C92.13 32.4178 92.2 32.3991 92.2 32.4285C92.2189 32.9635 91.8525 36.9248 92.0438 38.9122C92.0465 38.9309 91.9737 38.9523 91.971 38.9336Z" fill="#263238"/>
<path d="M100.129 29.0961C100.048 30.5003 98.7495 33.3035 98.1756 33.8625C97.6017 34.4189 92.7225 32.3887 92.5096 31.5997C92.2968 30.8079 92.938 26.1057 93.9052 25.0384C94.8725 23.9712 100.215 27.641 100.129 29.0961Z" fill="#D3766A"/>
<path d="M92.4781 30.7761C92.4781 30.7761 91.915 29.0348 90.9316 27.7536C90.1045 26.6756 88.7547 25.1697 89.3232 24.707C90.4871 23.7575 93.8522 27.5155 93.8522 27.5155C93.8522 27.5155 95.07 29.4119 94.0004 30.4551C93.3268 31.1078 92.4781 30.7761 92.4781 30.7761Z" fill="#D3766A"/>
<path d="M93.9302 27.9376L95.1884 27.1673L92.9387 23.543L91.3438 24.5193L93.9302 27.9376Z" fill="#EB5E10"/>
<path d="M91.3438 24.5193L92.3298 25.8246L93.9302 27.9403L95.1911 27.1673L92.9387 23.543L91.3438 24.5193Z" fill="#EB5E10"/>
<path opacity="0.1" d="M91.3438 24.5193L92.3298 25.8246L93.7982 24.9258L92.9387 23.543L91.3438 24.5193Z" fill="black"/>
<path d="M91.5321 25.1429L93.5156 23.9282L92.5863 22.4326L90.6028 23.6472L91.5321 25.1429Z" fill="#EB5E10"/>
<path d="M88.932 23.9177L90.5674 23.126L89.064 20.7026L87.6172 21.802L88.932 23.9177Z" fill="#EB5E10"/>
<path d="M89.5547 19.7397L91.7747 23.3132L94.5525 22.0373L101.932 20.5502L96.6001 11.9668L91.9499 17.846L89.5547 19.7397Z" fill="#EB5E10"/>
<path d="M98.0076 17.0274C99.4868 19.4079 101.313 20.9566 102.084 20.4858C102.855 20.0124 102.281 17.6987 100.802 15.3182C99.3224 12.9376 97.4957 11.3889 96.7252 11.8597C95.9546 12.3331 96.5285 14.6468 98.0076 17.0274Z" fill="#EB5E10"/>
<path opacity="0.2" d="M98.2941 16.7543C99.6089 18.87 101.185 20.269 101.816 19.8838C102.446 19.4986 101.894 17.4685 100.579 15.3554C99.2641 13.2396 97.6879 11.8407 97.0575 12.2259C96.427 12.6111 96.9794 14.6385 98.2941 16.7543Z" fill="black"/>
<path d="M98.4763 16.6395C98.6515 16.9203 98.832 17.1905 99.0125 17.4419C99.2361 17.4713 99.4705 17.4259 99.6753 17.3002C100.152 17.0086 100.3 16.3881 100.004 15.9146L99.7534 15.5134C99.4597 15.04 98.8347 14.8929 98.3578 15.1844C98.1557 15.3074 98.0102 15.4947 97.9375 15.7006C98.0992 16.0082 98.2797 16.3239 98.4763 16.6395Z" fill="#EB5E10"/>
<path d="M90.5016 24.3644L93.6673 22.8344L90.7575 18.1509L87.9609 20.272L90.5016 24.3644Z" fill="#EB5E10"/>
<path opacity="0.2" d="M90.5016 24.3644L93.6673 22.8344L90.7575 18.1509L87.9609 20.272L90.5016 24.3644Z" fill="black"/>
<path opacity="0.2" d="M96.565 12.8013C96.503 13.1784 96.5623 13.5609 96.6377 13.9327C96.7212 14.3045 96.8344 14.6683 96.9772 15.0213C97.0418 15.2005 97.1253 15.3717 97.2008 15.5483C97.287 15.7195 97.3651 15.8906 97.454 16.0592C97.5456 16.225 97.6319 16.3962 97.7289 16.5593C97.8259 16.7225 97.9201 16.8883 98.0225 17.0488C98.4294 17.6908 98.8739 18.314 99.3939 18.8757C99.6552 19.1539 99.9327 19.4187 100.24 19.6487C100.55 19.8707 100.884 20.0767 101.261 20.1542C100.892 20.0553 100.569 19.8413 100.272 19.6059C99.9758 19.3705 99.7091 19.1004 99.4559 18.8195C98.9547 18.2525 98.5129 17.6373 98.1141 16.9927C97.7127 16.3534 97.3436 15.69 97.0526 14.9919C96.9017 14.6469 96.7805 14.2858 96.6889 13.922C96.5973 13.5582 96.5272 13.1811 96.565 12.8013Z" fill="black"/>
<path d="M99.6327 10.6641C99.5007 10.8914 99.3794 11.1268 99.2609 11.3595C99.1396 11.5922 99.0292 11.8303 98.9187 12.0683C98.8109 12.3064 98.7005 12.5471 98.6008 12.7878L98.4499 13.1516C98.4041 13.2746 98.3529 13.3977 98.3125 13.5207C98.3799 13.4084 98.4391 13.2907 98.5038 13.1757L98.6843 12.8253C98.8055 12.5926 98.916 12.3545 99.0265 12.1165C99.1342 11.8784 99.2447 11.6377 99.3444 11.397C99.4441 11.1535 99.5438 10.9101 99.6327 10.6641Z" fill="#263238"/>
<path d="M101.117 18.3355C101.414 18.298 101.707 18.2499 102.001 18.199C102.295 18.1482 102.586 18.0894 102.879 18.0305C103.17 17.969 103.461 17.9075 103.752 17.8353L104.186 17.7283C104.329 17.6882 104.474 17.6534 104.617 17.6079C104.469 17.624 104.321 17.6507 104.172 17.6694L103.731 17.7443C103.437 17.7951 103.146 17.854 102.852 17.9128C102.561 17.9744 102.27 18.0359 101.979 18.1081C101.694 18.1776 101.403 18.2499 101.117 18.3355Z" fill="#263238"/>
<path d="M105.831 15.3662C105.411 15.4946 104.999 15.6364 104.584 15.7781C104.169 15.9199 103.759 16.0697 103.347 16.2195C102.938 16.3719 102.528 16.5244 102.121 16.6876L101.512 16.931C101.31 17.0166 101.108 17.0968 100.906 17.1851C101.116 17.1209 101.324 17.0513 101.531 16.9845L102.154 16.7731C102.569 16.6314 102.978 16.4816 103.39 16.3318C103.8 16.1793 104.209 16.0269 104.616 15.8637C105.023 15.7032 105.43 15.5401 105.831 15.3662Z" fill="#263238"/>
<path d="M101.937 9.8457C101.678 10.2041 101.43 10.5706 101.182 10.937C100.934 11.3035 100.695 11.6753 100.455 12.047C100.218 12.4188 99.9807 12.7933 99.7517 13.1705L99.4095 13.7375C99.2991 13.9301 99.1859 14.1173 99.0781 14.3099C99.2074 14.1307 99.3314 13.9488 99.4607 13.7669L99.8325 13.2186C100.08 12.8522 100.32 12.4804 100.56 12.1086C100.797 11.7368 101.034 11.3623 101.263 10.9852C101.492 10.6107 101.718 10.2335 101.937 9.8457Z" fill="#263238"/>
<path d="M100.117 15.6902C100.564 15.4388 101.004 15.1767 101.443 14.9146C101.882 14.6524 102.316 14.3796 102.752 14.1121C103.183 13.8366 103.617 13.5638 104.045 13.2856L104.687 12.863C104.899 12.7186 105.112 12.5768 105.322 12.4297C105.099 12.5554 104.878 12.6838 104.657 12.8122L103.997 13.2054C103.558 13.4702 103.124 13.7403 102.687 14.0078C102.256 14.2833 101.823 14.5535 101.394 14.8343C100.966 15.1152 100.537 15.3987 100.117 15.6902Z" fill="#263238"/>
<path d="M92.7528 26.9721C93.103 27.6301 93.685 26.8437 93.685 26.8437C93.685 26.8437 93.1246 28.1758 93.7496 28.7161C94.3531 29.235 95.0213 28.2587 95.0698 28.1892C95.0402 28.2587 94.5579 29.4971 95.2422 29.9759C95.9535 30.4734 96.4546 29.3794 96.487 29.3072C96.4816 29.3821 96.4142 30.3798 97.0177 30.6259C98.055 31.0485 98.2948 28.4994 99.0195 27.9538C99.0195 27.9538 100.092 29.0638 100.13 29.0906C100.13 29.0906 100.407 26.6726 99.6123 25.7444C99.192 25.2549 98.6504 25.5465 98.6504 25.5465C98.6504 25.5465 98.8282 24.7761 98.3002 24.3829C98.0281 24.1823 97.4623 24.4338 97.4623 24.4338C97.4623 24.4338 97.5781 23.8105 97.0878 23.4896C96.6971 23.2328 96.1906 23.5243 96.1906 23.5243C96.1906 23.5243 96.0209 22.8744 95.5359 22.7406C94.5579 22.4758 92.0038 25.5625 92.7528 26.9721Z" fill="#D3766A"/>
<path d="M96.1047 23.5644C96.1128 23.5537 96.102 23.5403 96.0912 23.5483C95.0028 24.3588 94.0544 25.5839 93.6503 26.8811C93.6368 26.9239 93.7015 26.964 93.7257 26.9186C94.3993 25.6614 95.0998 24.5969 96.1047 23.5644Z" fill="#263238"/>
<path d="M97.4744 24.4174C97.4852 24.4067 97.4663 24.388 97.4528 24.3987C96.3347 25.2413 95.3055 26.6482 95.0172 28.1996C95.0065 28.2531 95.0523 28.3092 95.0684 28.2504C95.3406 27.234 96.5664 25.3429 97.4744 24.4174Z" fill="#263238"/>
<path d="M96.507 29.4249C96.8438 27.9458 97.6224 26.7234 98.6058 25.5839C98.6193 25.5679 98.595 25.5518 98.5816 25.5625C97.9484 25.9905 97.3988 26.7822 97.0216 27.4349C96.6633 28.0608 96.4639 28.6947 96.4531 29.4142C96.4558 29.441 96.5016 29.457 96.507 29.4249Z" fill="#263238"/>
<path d="M93.6603 26.8516C93.6442 26.9024 93.7385 26.8703 93.7223 26.9211C93.663 27.1378 93.4125 28.4778 93.8462 28.7025C94.1938 28.8817 94.6787 28.5447 94.8135 28.3414L95.1529 27.8332L95.0128 28.4297C94.9509 28.6891 94.9239 28.9727 94.9509 29.2375C94.9778 29.5023 95.0748 29.7564 95.2715 29.8955C95.4762 30.0426 95.7241 30.0533 95.9181 29.8981C96.1175 29.7537 96.271 29.5076 96.3734 29.2696L96.659 28.6035L96.6078 29.3231C96.5943 29.5183 96.6051 29.727 96.6428 29.9222C96.6806 30.1148 96.7533 30.3047 96.8799 30.4277C97.0039 30.5481 97.1978 30.6043 97.3541 30.5428C97.5185 30.4812 97.6586 30.3208 97.7744 30.1576C98.0088 29.8179 98.1732 29.4274 98.3564 29.0449C98.4453 28.8523 98.5369 28.6597 98.6366 28.4725C98.7389 28.2879 98.844 28.0927 99.0165 27.9616C98.8602 28.106 98.7767 28.3066 98.6878 28.4966C98.6042 28.6891 98.5288 28.8871 98.4534 29.085C98.3025 29.4809 98.1462 29.8794 97.9172 30.2539C97.796 30.4358 97.6613 30.6257 97.4269 30.7327C97.1844 30.8397 96.8988 30.7594 96.721 30.5882C96.5378 30.4144 96.4569 30.187 96.4084 29.9677C96.3626 29.7457 96.3492 29.529 96.3599 29.3017L96.5943 29.3552C96.4758 29.6387 96.3249 29.9008 96.0636 30.1041C95.9343 30.2031 95.7618 30.2699 95.5867 30.2646C95.4089 30.2592 95.2526 30.1897 95.1179 30.0934C94.8404 29.8901 94.7353 29.5558 94.7111 29.2615C94.6868 28.9593 94.7192 28.6677 94.7919 28.3762L94.9913 28.4618C94.8108 28.7132 94.3096 29.1519 93.7358 28.9379C93.038 28.5474 93.5472 27.1083 93.6603 26.8516Z" fill="#263238"/>
<path d="M93.6835 26.8439C93.5595 26.9509 93.4302 27.0445 93.3009 27.098C93.1716 27.1542 93.0422 27.1435 92.9479 27.0739C92.8536 27.0071 92.789 26.8707 92.7405 26.7316C92.6947 26.5898 92.6543 26.4347 92.6193 26.2769C92.5734 26.4347 92.5573 26.6005 92.5815 26.769C92.6058 26.9322 92.6624 27.1167 92.8267 27.2425C92.9129 27.2986 93.0099 27.3307 93.1123 27.3307C93.212 27.3254 93.3063 27.2906 93.3817 27.2425C93.5299 27.1408 93.6242 26.9964 93.6835 26.8439Z" fill="#263238"/>
<path d="M81.4099 105.373C80.8765 105.044 70.0241 91.988 69.9298 91.2311C69.9136 91.1268 71.5679 89.6503 73.664 87.7967C73.7718 87.703 81.6228 80.1602 81.6228 80.1602L88.3637 88.2326L80.995 95.6953C80.995 95.6953 82.8971 102.537 82.9133 103.38C82.9268 104.217 81.9407 105.704 81.4099 105.373Z" fill="#D3766A"/>
<path d="M81.7776 98.3995C81.7588 98.3567 81.7534 98.3326 81.7614 98.3219C81.7614 98.3193 81.7668 98.3487 81.7776 98.3995Z" fill="#EB5E10"/>
<path d="M82.9133 103.38C82.9268 104.22 81.9407 105.704 81.4099 105.373C80.8765 105.044 70.0241 91.9881 69.9298 91.2311C69.9136 91.1268 71.5652 89.6503 73.664 87.7967C73.6963 87.7673 74.3861 87.1066 75.3506 86.1812L82.2936 94.3794L80.995 95.6953C80.995 95.6953 82.8971 102.535 82.9133 103.38Z" fill="#EBEBEB"/>
<path d="M81.8326 105.236C81.2938 104.902 70.3579 91.6804 70.2663 90.9154C70.2259 90.6239 72.0741 88.9307 74.3642 86.9487C74.3884 86.9273 74.4127 86.9086 74.4369 86.8872L81.5874 95.3395L81.4392 95.4545C81.4392 95.4545 83.3441 102.374 83.3575 103.227C83.3683 104.073 82.3688 105.573 81.8326 105.236Z" fill="#EB5E10"/>
<path d="M82.2233 104.667C80.4343 102.393 73.0063 93.3897 71.0665 91.2767C71.0503 91.2606 71.0395 91.2686 71.053 91.2874C72.7746 93.5797 80.278 102.521 82.1882 104.696C82.2259 104.742 82.261 104.715 82.2233 104.667Z" fill="white"/>
<path d="M82.0034 96.1902C81.443 95.1792 80.4192 94.2162 79.2364 94.0584C79.1906 94.0531 79.1826 94.1173 79.2149 94.1387C80.2064 94.7806 81.0497 95.444 81.8876 96.2758C81.9468 96.3373 82.0438 96.2624 82.0034 96.1902Z" fill="white"/>
<path d="M82.144 97.137C81.5836 96.1259 80.5598 95.163 79.3771 95.0052C79.3313 94.9998 79.3232 95.064 79.3555 95.0854C80.347 95.7274 81.1903 96.3907 82.0282 97.2226C82.0875 97.2841 82.1845 97.2092 82.144 97.137Z" fill="white"/>
<path d="M82.2769 98.0838C81.7165 97.0727 80.6926 96.1098 79.5099 95.952C79.4641 95.9466 79.456 96.0108 79.4883 96.0322C80.4798 96.6742 81.3231 97.3375 82.161 98.1694C82.223 98.2282 82.3173 98.156 82.2769 98.0838Z" fill="white"/>
<path d="M82.4733 105.049C82.5784 105.362 81.7351 105.961 81.5304 105.843C81.3256 105.726 69.4656 91.2578 69.3201 90.9662C69.1719 90.6747 70.1338 90.0434 70.414 90.2922C70.6915 90.5382 82.4733 105.049 82.4733 105.049Z" fill="#263238"/>
<path d="M74.7501 90.284C74.4403 88.9333 72.3226 89.4067 72.6324 90.7628C72.945 92.1136 75.0599 91.6375 74.7501 90.284Z" fill="white"/>
<path d="M87.0149 72.0074C86.4141 74.9577 75.5078 85.1245 75.5078 85.1245L84.1024 94.9731C84.1024 94.9731 100.182 79.2293 99.2682 72.7136C98.4734 67.0457 89.9246 44.2485 89.9246 44.2485H80.0611C80.0611 44.2485 87.6049 69.1079 87.0149 72.0074Z" fill="#37474F"/>
<path d="M87.0149 72.0074C86.4141 74.9577 75.5078 85.1245 75.5078 85.1245L84.1024 94.9731C84.1024 94.9731 100.182 79.2293 99.2682 72.7136C98.4734 67.0457 89.9246 44.2485 89.9246 44.2485H80.0611C80.0611 44.2485 87.6049 69.1079 87.0149 72.0074Z" fill="#37474F"/>
<path d="M85.074 92.6328C83.9316 91.2205 84.2792 91.611 83.1233 90.2121C82.5575 89.5274 78.8287 85.0337 78.1875 84.4881C78.174 84.4747 78.1498 84.4961 78.1579 84.5122C78.5889 85.2344 82.3932 89.6638 82.9725 90.3352C84.1579 91.71 83.8319 91.3034 85.0308 92.6649C85.0578 92.6916 85.0955 92.6596 85.074 92.6328Z" fill="#263238"/>
<path d="M88.2379 70.5686C88.0978 69.833 87.9361 69.1001 87.7798 68.3646C87.4592 66.8667 87.1197 65.3742 86.7614 63.8843C86.0501 60.9313 85.2823 57.9944 84.4444 55.0736C83.6038 52.142 82.7147 49.2185 81.6909 46.3458C81.5642 45.99 81.4349 45.6369 81.3029 45.2839C81.2921 45.2571 81.2517 45.2678 81.2598 45.2973C82.1462 48.1753 83.0595 51.0454 83.8921 53.9395C84.7192 56.8229 85.4843 59.7197 86.2064 62.6298C86.5701 64.0903 86.9069 65.5587 87.2356 67.0272C87.3973 67.7494 87.5562 68.4715 87.7098 69.1937C87.866 69.9266 88.0762 70.6782 88.122 71.4272C88.1678 72.1654 87.9253 72.8181 87.5427 73.4386C87.1736 74.0404 86.7372 74.6048 86.3169 75.1692C85.4736 76.3033 78.8673 83.5841 78.6087 83.8248C78.5871 83.8435 78.6195 83.8729 78.641 83.8542C79.7187 82.894 85.1072 77.1753 85.972 76.0439C86.4004 75.4848 86.818 74.9151 87.2275 74.34C87.6101 73.8024 87.9954 73.2541 88.2082 72.6255C88.4399 71.9568 88.3699 71.2587 88.2379 70.5686Z" fill="#263238"/>
<path d="M88.2231 44.2485L86.4341 67.578C84.7259 59.5938 80.0703 44.2485 80.0703 44.2485H88.2231Z" fill="#263238"/>
<path d="M104.764 108.435C104.169 108.636 87.1199 108.681 86.4706 108.275C86.379 108.221 86.2793 106.015 86.1662 103.23C86.1608 103.088 84.0781 91.6724 84.0781 91.6724L94.6395 91.6216L96.9673 102.615C96.9673 102.615 103.501 105.496 104.169 106.02C104.829 106.539 105.36 108.237 104.764 108.435Z" fill="#D3766A"/>
<path d="M104.762 108.438C104.167 108.639 87.1179 108.684 86.4686 108.275C86.3769 108.221 86.2746 106.017 86.1614 103.23C86.1587 103.19 86.0024 102.302 85.7734 101.034H96.6285L96.9626 102.615C96.9626 102.615 103.496 105.496 104.164 106.017C104.827 106.539 105.358 108.24 104.762 108.438Z" fill="#EBEBEB"/>
<path d="M99.5622 103.73C99.5164 103.717 99.4949 103.706 99.4922 103.693C99.4922 103.693 99.5191 103.706 99.5622 103.73Z" fill="#EB5E10"/>
<path d="M104.85 108.36C104.246 108.558 87.0165 108.481 86.3618 108.063C86.1113 107.908 85.9766 105.415 85.9011 102.398C85.9011 102.366 85.9011 102.334 85.8984 102.305L97.0148 102.232L97.0094 102.42C97.0094 102.42 103.591 105.378 104.262 105.913C104.928 106.443 105.453 108.165 104.85 108.36Z" fill="#EB5E10"/>
<path d="M104.655 107.697C101.751 107.614 90.0284 107.547 87.151 107.681C87.1268 107.681 87.1268 107.697 87.151 107.7C90.0284 107.844 101.751 107.817 104.655 107.743C104.715 107.743 104.715 107.7 104.655 107.697Z" fill="white"/>
<path d="M97.9393 102.457C96.7969 102.24 95.3986 102.409 94.5203 103.211C94.4853 103.244 94.5311 103.289 94.5688 103.278C95.6977 102.931 96.7511 102.709 97.9339 102.599C98.0174 102.594 98.0201 102.473 97.9393 102.457Z" fill="white"/>
<path d="M98.7596 102.955C97.6173 102.738 96.2189 102.907 95.3406 103.709C95.3056 103.741 95.3514 103.787 95.3891 103.776C96.518 103.428 97.5714 103.206 98.7542 103.096C98.8377 103.091 98.8431 102.971 98.7596 102.955Z" fill="white"/>
<path d="M99.5877 103.452C98.4454 103.236 97.0471 103.404 96.1688 104.207C96.1337 104.239 96.1795 104.284 96.2172 104.273C97.3461 103.926 98.3996 103.704 99.5823 103.594C99.6659 103.589 99.6686 103.468 99.5877 103.452Z" fill="white"/>
<path d="M105.115 107.748C105.422 107.868 105.352 108.895 105.128 108.976C104.905 109.056 86.1179 108.89 85.8 108.818C85.4821 108.746 85.6033 107.609 85.9751 107.553C86.3442 107.496 105.115 107.748 105.115 107.748Z" fill="#263238"/>
<path d="M88.7301 104.233C87.4827 103.607 86.502 105.53 87.7494 106.156C88.9969 106.782 89.9776 104.862 88.7301 104.233Z" fill="white"/>
<path d="M88.9784 44.2487C88.9676 44.4546 88.4153 46.3297 88.1324 49.1355C87.9276 51.1844 87.669 52.9979 87.3942 53.2226C87.0816 53.4767 85.5244 54.4717 84.999 54.79C84.999 54.79 89.8594 69.4157 91.1122 74.2891C92.9308 81.3559 97.2766 100.103 97.2766 100.103L85.3708 100.101C85.3708 100.101 82.1566 82.3723 80.6128 75.6426C79.2899 69.8731 74.2248 52.5699 74.2248 52.5699C72.3819 48.0709 75.4884 44.2487 75.4884 44.2487C75.4884 44.2487 88.9811 44.2407 88.9784 44.2487Z" fill="#37474F"/>
<path d="M96.1683 97.8671C94.4116 97.8564 94.9154 97.835 93.1561 97.8431C92.2967 97.8484 86.6442 97.8832 85.8413 98.033C85.8224 98.0357 85.8251 98.0678 85.8413 98.0704C86.6469 98.1961 92.2967 98.0571 93.1588 98.0357C94.9154 97.9902 94.4116 97.9848 96.1683 97.9206C96.2033 97.918 96.2006 97.8671 96.1683 97.8671Z" fill="#263238"/>
<path d="M88.2174 52.6447C87.0858 53.2358 86.0243 53.9954 85.0167 54.7711C84.9763 54.8005 85.0167 54.8647 85.0598 54.838C86.1456 54.1639 87.2556 53.5059 88.3009 52.7731C88.3818 52.7142 88.3036 52.5992 88.2174 52.6447Z" fill="#263238"/>
<path d="M87.3297 44.6872C87.3216 44.6471 87.2489 44.6497 87.2543 44.6925C87.4779 46.062 87.5776 47.279 87.6611 48.5763C87.6988 49.1781 87.7312 52.5377 86.6562 52.4574C86.4756 52.444 86.3598 52.2889 86.2924 52.0321C86.2116 51.7245 86.2682 51.3233 86.2736 51.0023C86.2817 50.2962 86.2655 49.5927 86.217 48.8893C86.1254 47.5759 85.9287 46.2787 85.5677 45.0108C85.5569 44.968 85.4949 44.9814 85.5003 45.0242C85.7832 46.819 86.0149 48.6164 86.023 50.4353C86.0257 51.3099 85.794 52.6634 86.7154 52.6554C87.653 52.6473 87.909 50.4032 87.9278 49.796C87.9844 48.1082 87.7204 46.3322 87.3297 44.6872Z" fill="#263238"/>
<path d="M86.7001 52.5459C86.6408 52.7813 86.6004 53.022 86.5735 53.2627C86.5519 53.45 86.5142 53.6533 86.5627 53.8378C86.5735 53.8726 86.622 53.8699 86.6381 53.8432C86.7351 53.672 86.754 53.4527 86.7944 53.2627C86.8402 53.0407 86.8914 52.8187 86.9318 52.594C86.9561 52.4416 86.7378 52.3988 86.7001 52.5459Z" fill="#263238"/>
<path d="M84.3376 93.9728C84.308 93.7053 84.2703 93.4405 84.2326 93.173C84.1598 92.6621 84.0736 92.1539 83.9955 91.6457C83.8365 90.6213 83.6587 89.6022 83.4782 88.5804C83.1145 86.5476 82.6942 84.5201 82.2496 82.5006C81.999 81.3585 81.7081 80.2324 81.4009 79.1064C81.3794 79.0288 81.2689 79.0662 81.2824 79.1411C81.4683 80.1736 81.6488 81.2061 81.8616 82.2305C82.0745 83.2549 82.2846 84.2767 82.4894 85.3038C82.8935 87.3313 83.2734 89.3615 83.6749 91.3889C83.788 91.9614 83.8931 92.5338 84.0036 93.1062C84.0601 93.3924 84.1167 93.6759 84.1787 93.9621C84.2406 94.2456 84.3296 94.5238 84.3754 94.81C84.3808 94.8367 84.4212 94.8234 84.4158 94.7966C84.3727 94.5265 84.37 94.2456 84.3376 93.9728Z" fill="#263238"/>
<path d="M92.3368 78.6675C91.9516 76.755 91.4289 74.8693 90.9062 72.9916C89.8528 69.2121 88.6107 65.4888 87.3714 61.7655C87.0157 60.693 86.6574 59.6204 86.3018 58.5478C86.124 58.0128 85.2483 55.1187 85.1406 54.8459C85.1298 54.8191 85.0867 54.8298 85.0948 54.8593C85.3453 55.8436 85.6902 57.2799 85.9785 58.2562C86.264 59.2192 86.5766 60.1767 86.8783 61.137C87.4711 63.0227 88.0746 64.9057 88.6484 66.7968C89.7854 70.5335 90.9143 74.2701 91.8384 78.0657C92.0971 79.1275 92.3557 80.1921 92.5901 81.2593C92.8245 82.3266 93.0266 83.3992 93.2529 84.4691C93.2583 84.4985 93.3095 84.4905 93.3041 84.4611C93.1128 82.5111 92.7248 80.5853 92.3368 78.6675Z" fill="#263238"/>
<path d="M85.1208 88.666C84.4822 85.0203 83.7171 81.3933 82.8684 77.7904C82.017 74.1687 81.0686 70.5711 80.0233 67.0003C78.9779 63.4295 77.8194 59.8907 76.5774 56.3841C75.9873 54.7231 75.2707 53.0781 75.0012 51.3341C74.7103 49.443 74.8046 47.2042 76.0735 44.7916C76.087 44.7648 76.0493 44.7408 76.0304 44.7675C74.9824 46.3216 73.8158 49.542 75.7502 54.707C76.3942 56.4296 76.9546 58.1815 77.5284 59.9255C78.1185 61.7176 78.6816 63.5177 79.2231 65.3259C80.2927 68.9074 81.2869 72.5103 82.1787 76.14C83.0678 79.7697 83.8626 83.4235 84.5604 87.0933C85.2609 90.7764 85.5384 92.0202 86.1338 95.7221C86.2119 96.2036 86.2739 96.6877 86.3359 97.1718C86.3386 97.1986 86.3817 97.1986 86.379 97.1718C85.9317 93.502 85.7593 92.3064 85.1208 88.666Z" fill="#263238"/>
<path d="M90.3938 44.5995L89.6259 39.5441C89.6259 39.5441 91.1374 37.7868 90.1782 35.7032C89.696 34.6493 86.6299 28.9146 84.8302 27.6039C83.1436 26.3735 81.0205 27.5344 80.2257 28.5936C77.9383 31.6348 76.276 34.553 74.9531 44.5166L90.3938 44.5995Z" fill="#EB5E10"/>
<path d="M87.0171 38.7364C86.2439 38.8167 85.4679 38.9263 84.7135 39.1189C84.339 39.2152 83.9699 39.3302 83.6035 39.4506C83.4203 39.5121 83.2371 39.5656 83.0512 39.6191C82.8599 39.6753 82.6578 39.7261 82.4585 39.7314C82.4396 39.7314 82.4423 39.7582 82.4585 39.7582C82.6525 39.7635 82.8384 39.7662 83.0296 39.7448C83.2129 39.7261 83.3961 39.686 83.5739 39.6405C83.9565 39.5469 84.331 39.4345 84.7135 39.3356C85.4814 39.1376 86.2466 38.9397 87.0279 38.7953C87.0629 38.7953 87.0548 38.7337 87.0171 38.7364Z" fill="#263238"/>
<path d="M88.9376 39.4132C88.3018 39.3517 87.6525 39.3169 87.0112 39.3276C86.6906 39.333 86.37 39.357 86.0494 39.3864C85.8958 39.4025 85.7449 39.4185 85.5914 39.4399C85.4243 39.4613 85.26 39.5068 85.0902 39.5255C85.0741 39.5282 85.0741 39.555 85.0902 39.5523C85.2492 39.5389 85.4109 39.5523 85.5698 39.5469C85.7288 39.5416 85.8904 39.5362 86.0494 39.5336C86.37 39.5255 86.6906 39.5202 87.0112 39.5068C87.6525 39.4827 88.291 39.4667 88.9349 39.464C88.9726 39.4667 88.9699 39.4159 88.9376 39.4132Z" fill="#263238"/>
<path d="M80.123 28.489C75.3031 33.0014 70.8387 40.4506 71.1566 44.3665C71.4719 48.2316 72.792 47.734 73.1746 47.6752C75.5105 47.3114 80.0665 36.0693 81.3516 31.5382C82.626 27.0393 81.3139 27.3736 80.123 28.489Z" fill="#D3766A"/>
<path d="M81.5078 24.1079C80.6726 24.0838 78.7166 25.0387 78.2289 26.2316C77.7413 27.4246 78.1265 29.1338 78.5145 29.2354C78.9025 29.3371 80.4059 28.9198 81.3461 28.1495C82.2837 27.3764 81.92 24.1186 81.5078 24.1079Z" fill="#263238"/>
<path d="M81.5137 24.1103C81.5406 24.0996 81.5352 24.0542 81.5029 24.0595C80.797 24.1745 80.0884 24.5517 79.458 24.8673C78.9461 25.1241 78.4288 25.4103 78.0597 25.857C77.6933 26.3037 77.5559 26.8306 77.6421 27.3976C77.7364 28.0155 77.9681 28.7431 78.3749 29.2325C78.3857 29.2459 78.418 29.2352 78.4072 29.2165C77.863 28.1145 77.308 26.7503 78.321 25.7393C79.1805 24.8834 80.4306 24.5677 81.5137 24.1103Z" fill="#263238"/>
<path d="M78.5682 28.909C77.8839 29.131 76.3105 30.8001 76.2593 32.1829C76.2054 33.5658 77.663 35.3205 78.0321 35.398C78.4039 35.4756 79.7133 33.9135 80.0393 32.8864C80.2575 32.199 79.8534 31.5223 79.5624 30.8295C79.134 29.8051 78.676 28.8769 78.5682 28.909Z" fill="#263238"/>
<path d="M80.4302 32.6402C80.3817 31.2519 79.3552 30.059 78.6601 28.9249C78.652 28.9142 78.6331 28.9222 78.6385 28.9356C79.1181 30.0563 80.0287 30.9738 80.2793 32.1961C80.4302 32.921 80.3116 33.6806 79.7916 34.2397C79.3417 34.7238 78.7193 35.0234 78.1562 35.3497C78.1185 35.3711 78.1563 35.4246 78.194 35.4059C79.3282 34.788 80.4814 34.0738 80.4302 32.6402Z" fill="#263238"/>
<path d="M78.4442 29.064C78.4765 29.0399 78.4415 28.9891 78.4092 29.0132C77.5012 29.6685 76.4289 30.5806 76.0867 31.6853C75.7149 32.8809 76.5124 33.9107 77.2129 34.796C77.221 34.8067 77.2399 34.796 77.2318 34.7827C76.534 33.8812 75.7634 32.7471 76.2188 31.5622C76.6094 30.5431 77.5901 29.6979 78.4442 29.064Z" fill="#263238"/>
<path d="M78.2549 35.0877C77.5948 36.0426 76.8324 37.4121 77.3685 38.3323C77.902 39.2524 79.5589 40.3303 79.6721 40.2929C79.7826 40.2554 81.1943 38.5783 81.1674 37.2784C81.1351 35.9811 78.3411 34.9647 78.2549 35.0877Z" fill="#263238"/>
<path d="M79.7806 40.3437C78.8161 39.9505 77.6468 39.3674 77.2507 38.335C76.8681 37.3426 77.6144 36.0454 78.1614 35.2456C78.1694 35.2349 78.1533 35.2242 78.1452 35.2349C77.5147 36.0079 76.7981 37.2784 77.1456 38.3056C77.4878 39.322 78.7703 40.1324 79.7698 40.3839C79.7914 40.3839 79.7995 40.3518 79.7806 40.3437Z" fill="#263238"/>
<path d="M79.621 40.1992C79.3355 40.6513 79.155 41.6998 79.5079 42.5985C80.1114 44.1365 79.4136 44.1739 78.0961 45.4525C76.9834 46.5331 77.5707 48.1433 78.6915 48.4482C78.6915 48.4482 77.7566 47.7929 78.3736 46.8407C79.1092 45.7012 82.159 45.3829 82.4769 43.2083C82.8838 40.3945 79.621 40.1992 79.621 40.1992Z" fill="#263238"/>
<path d="M79.4555 41.1702C79.4609 41.1408 79.4097 41.1301 79.4043 41.1595C79.3342 41.443 79.31 41.7266 79.345 42.0181C79.3908 42.3926 79.5767 42.7162 79.6468 43.0827C79.8246 44.0162 78.8762 44.5378 78.2269 44.9845C77.3567 45.5836 76.9579 46.5626 77.4671 47.5442C77.4752 47.5576 77.4968 47.5469 77.4887 47.5335C77.1842 46.9183 77.222 46.1667 77.6396 45.605C78.0383 45.0701 78.7065 44.8347 79.178 44.38C79.5013 44.067 79.7815 43.6872 79.7384 43.2218C79.7141 42.965 79.601 42.7243 79.5228 42.4809C79.3827 42.0395 79.3693 41.6249 79.4555 41.1702Z" fill="#263238"/>
<path d="M79.965 40.2287C79.9515 40.2261 79.9488 40.2475 79.9596 40.2501C80.776 40.4508 81.622 40.6353 82.2093 41.2853C82.8424 41.9834 82.9044 43.0212 82.5649 43.8691C82.1824 44.8187 81.2771 45.0059 80.4015 45.3162C79.7683 45.5409 79.1486 45.8164 78.7068 46.3353C78.6933 46.3513 78.7203 46.3727 78.7337 46.3593C79.507 45.6238 80.4877 45.4044 81.4549 45.0273C82.2443 44.7197 82.6619 44.1366 82.7939 43.3074C83.0822 41.4832 81.6193 40.4534 79.965 40.2287Z" fill="#263238"/>
<path d="M80.4007 22.9524C80.0882 22.7624 79.7972 23.2493 80.1124 23.4392C80.4222 23.6291 80.7132 23.1423 80.4007 22.9524Z" fill="#EB5E10"/>
<path d="M80.7757 23.3239C80.4632 23.134 80.1722 23.6208 80.4874 23.8107C80.7999 24.0007 81.0882 23.5138 80.7757 23.3239Z" fill="#EB5E10"/>
<path d="M81.2132 23.6291C80.9007 23.4392 80.6097 23.926 80.9249 24.1159C81.2347 24.3058 81.5257 23.819 81.2132 23.6291Z" fill="#EB5E10"/>
<path d="M81.6741 23.8669C81.3616 23.677 81.0706 24.1638 81.3858 24.3537C81.6984 24.5436 81.9867 24.0568 81.6741 23.8669Z" fill="#EB5E10"/>
<path d="M82.1819 24.0251C81.8694 23.8352 81.5784 24.322 81.8937 24.5119C82.2062 24.7018 82.4972 24.215 82.1819 24.0251Z" fill="#EB5E10"/>
<path d="M82.6898 24.0891C82.3772 23.8992 82.0862 24.386 82.4015 24.5759C82.714 24.7658 83.0023 24.279 82.6898 24.0891Z" fill="#EB5E10"/>
<path d="M81.8299 27.9458C81.908 28.232 83.4815 30.0776 84.7235 29.548C85.1842 29.3528 85.0118 27.8549 85.0118 27.8549L85.5048 25.239L82.1505 23.2837C82.1505 23.2837 81.8003 27.8255 81.8299 27.9458Z" fill="#D3766A"/>
<path d="M82.0234 24.9797C82.8182 26.7558 84.3162 27.4646 85.0356 27.708L85.5017 25.2365L82.1474 23.2812C82.1501 23.2839 82.0935 24.0489 82.0234 24.9797Z" fill="#263238"/>
<path d="M87.929 21.0614C88.7211 25.3518 86.2235 26.3067 85.2913 26.4752C84.4453 26.6276 81.5464 27.0422 80.3097 22.8562C79.0757 18.6702 80.8324 16.9503 82.7507 16.4983C84.6663 16.0462 87.1369 16.7711 87.929 21.0614Z" fill="#D3766A"/>
<path d="M86.6851 20.7137C86.58 20.711 86.4857 20.6923 86.3834 20.6816C86.2675 20.6682 86.1732 20.6682 86.0816 20.5907C86.0331 20.5479 86.025 20.4543 86.0628 20.4034C86.149 20.2831 86.2944 20.2643 86.4345 20.275C86.5854 20.2857 86.7013 20.3339 86.8091 20.4382C86.9168 20.5372 86.8225 20.7137 86.6851 20.7137Z" fill="#263238"/>
<path d="M83.728 21.0482C83.8304 21.0268 83.9193 20.9893 84.0163 20.9572C84.1268 20.9198 84.2184 20.9037 84.2938 20.8074C84.3342 20.7566 84.3208 20.663 84.275 20.6202C84.1672 20.5186 84.0217 20.5293 83.887 20.5694C83.7415 20.6095 83.6391 20.679 83.5502 20.8048C83.4667 20.9198 83.5933 21.0749 83.728 21.0482Z" fill="#263238"/>
<path d="M84.4576 22.0806C84.4549 22.0699 84.436 22.0966 84.4387 22.11C84.4845 22.4042 84.4872 22.7466 84.2313 22.8777C84.2232 22.883 84.2259 22.8964 84.2366 22.8937C84.5573 22.8081 84.5492 22.3534 84.4576 22.0806Z" fill="#263238"/>
<path d="M84.1554 21.805C83.6731 21.829 83.754 22.7839 84.2012 22.7625C84.6431 22.7411 84.5595 21.7862 84.1554 21.805Z" fill="#263238"/>
<path d="M83.9747 21.8717C83.8966 21.9332 83.8212 22.0349 83.7215 22.0536C83.6056 22.075 83.5086 21.9814 83.4224 21.8931C83.4143 21.8851 83.4062 21.8931 83.4062 21.9065C83.4197 22.091 83.5059 22.2729 83.7053 22.2836C83.8885 22.2943 84.0044 22.1205 84.034 21.9332C84.0394 21.8958 84.0071 21.8476 83.9747 21.8717Z" fill="#263238"/>
<path d="M86.2183 21.8533C86.221 21.8426 86.2426 21.8666 86.2426 21.8773C86.256 22.1742 86.3207 22.5113 86.5982 22.5888C86.6063 22.5915 86.6063 22.6049 86.5982 22.6049C86.2668 22.5835 86.1833 22.1341 86.2183 21.8533Z" fill="#263238"/>
<path d="M86.4577 21.5215C86.9346 21.4493 87.045 22.4015 86.6032 22.4684C86.1694 22.5352 86.0589 21.583 86.4577 21.5215Z" fill="#263238"/>
<path d="M86.6685 21.5615C86.7493 21.6043 86.8355 21.6872 86.9271 21.6819C87.0322 21.6765 87.0995 21.5642 87.1534 21.4572C87.1588 21.4465 87.1669 21.4545 87.1696 21.4652C87.1965 21.6471 87.1561 21.8424 86.9864 21.8985C86.8301 21.9494 86.6927 21.8076 86.628 21.6311C86.6173 21.599 86.6361 21.5455 86.6685 21.5615Z" fill="#263238"/>
<path d="M84.7387 24.5465C84.8088 24.616 84.8815 24.7123 84.9893 24.723C85.0944 24.7337 85.2156 24.6856 85.3126 24.6508C85.3207 24.6481 85.3315 24.6561 85.3261 24.6668C85.2479 24.7792 85.0836 24.8514 84.9462 24.8246C84.8115 24.8006 84.7441 24.6829 84.7118 24.5598C84.7064 24.5411 84.728 24.5358 84.7387 24.5465Z" fill="#263238"/>
<path d="M85.9377 23.3539C85.9377 23.3539 86.0212 23.7952 86.032 24.0039C86.032 24.0226 85.9835 24.036 85.9108 24.044C85.9081 24.044 85.9054 24.0467 85.9027 24.044C85.5336 24.1189 85.1537 24.0119 84.9112 23.7204C84.895 23.7016 84.922 23.6776 84.9408 23.6909C85.2291 23.8782 85.539 23.9156 85.8677 23.9049C85.8784 23.8461 85.6979 23.156 85.7329 23.1506C85.8488 23.1346 86.0778 23.2014 86.2152 23.2335C86.067 22.3107 85.7707 21.42 85.6386 20.5026C85.6333 20.4705 85.6818 20.4571 85.6925 20.4865C86.0697 21.3986 86.261 22.4552 86.4388 23.4021C86.4631 23.5197 86.0239 23.386 85.9377 23.3539Z" fill="#263238"/>
<path d="M85.8515 23.9395C85.8515 23.9395 85.6926 24.2311 85.4366 24.3621C85.3423 24.4103 85.2372 24.4397 85.1214 24.4263C84.8816 24.3996 84.8466 24.1883 84.8627 24.0037C84.8762 23.8513 84.9274 23.7148 84.9274 23.7148C84.9274 23.7148 85.3073 23.9823 85.8515 23.9395Z" fill="#263238"/>
<path d="M85.4366 24.3622C85.3423 24.4103 85.2372 24.4398 85.1214 24.4264C84.8816 24.3996 84.8466 24.1883 84.8627 24.0038C85.1133 23.9957 85.38 24.1268 85.4366 24.3622Z" fill="#FF9ABB"/>
<path d="M84.7333 17.6054C84.7333 17.6054 84.9138 18.2661 84.6875 18.7449C84.2241 19.7319 83.036 19.4805 82.6345 19.8737C82.2573 20.2401 82.3974 20.9944 82.0553 21.3608C81.5838 21.869 80.9318 21.6791 80.8563 22.0188C80.7809 22.3585 80.8402 23.0807 80.4064 23.2198C79.9726 23.3616 77.7418 16.482 83.5559 16.3697C83.5559 16.3697 84.3076 16.2707 85.3449 16.5623C86.9992 17.0277 87.6162 19.8014 87.6162 19.8014C87.6162 19.8014 87.2147 19.8175 87.018 19.6463C86.7432 19.4082 86.6355 19.1862 86.4334 19.0311C86.1155 18.7877 85.943 18.8813 85.6143 18.6459C85.1159 18.2875 84.7333 17.6054 84.7333 17.6054Z" fill="#263238"/>
<path d="M84.6418 17.2925C84.7307 17.5733 84.7927 17.8649 84.8143 18.1564C84.8385 18.4453 84.8277 18.7476 84.7011 18.999C84.5745 19.2424 84.3185 19.4109 84.0545 19.5099C83.7851 19.6115 83.4887 19.6409 83.1977 19.7586C83.0576 19.8228 82.9175 19.9084 82.8205 20.0475C82.7262 20.1839 82.6885 20.3391 82.6562 20.4835C82.5996 20.775 82.5403 21.0612 82.349 21.2699C82.1604 21.4785 81.8802 21.6042 81.592 21.5935C81.3064 21.5962 80.9884 21.5186 80.7109 21.647C80.9992 21.5427 81.2902 21.6417 81.5893 21.6631C81.8937 21.6898 82.2089 21.5668 82.4272 21.3448C82.6562 21.1201 82.7181 20.7938 82.7801 20.5129C82.8124 20.3712 82.8502 20.2321 82.9283 20.1251C83.0037 20.0208 83.125 19.9432 83.2516 19.8897C83.5102 19.7774 83.812 19.7399 84.0976 19.6302C84.2404 19.5767 84.3778 19.5019 84.499 19.4056C84.6176 19.3119 84.7361 19.1942 84.7954 19.0471C84.9247 18.7583 84.9193 18.4453 84.8816 18.1511C84.8385 17.8542 84.755 17.5653 84.6418 17.2925Z" fill="#263238"/>
<path d="M84.7578 17.5493C84.8144 17.8195 84.9114 18.0789 85.038 18.3277C85.1646 18.5764 85.3586 18.8065 85.6119 18.9482C85.7385 19.0204 85.884 19.0579 86.0052 19.098C86.1211 19.1381 86.245 19.2104 86.3124 19.3013C86.3878 19.4056 86.4579 19.5367 86.5629 19.633C86.668 19.7293 86.792 19.8015 86.924 19.8389C86.8054 19.7694 86.6923 19.6918 86.6114 19.5848C86.5225 19.4832 86.474 19.3655 86.4013 19.2398C86.3151 19.1007 86.1831 19.0338 86.0484 18.975C85.9109 18.9242 85.787 18.8947 85.6765 18.8279C85.4502 18.6995 85.2724 18.5015 85.1323 18.2742C84.9922 18.0442 84.8737 17.7981 84.7578 17.5493Z" fill="#263238"/>
<path d="M81.1916 22.8772C81.1916 22.8772 80.0411 21.6709 79.4781 22.0962C78.9123 22.5215 79.9172 24.3698 80.6797 24.5302C81.4421 24.6907 81.6065 23.9926 81.6065 23.9926L81.1916 22.8772Z" fill="#D3766A"/>
<path d="M79.7737 22.6204C79.7629 22.6204 79.7629 22.6364 79.7737 22.6391C80.3099 22.7675 80.6466 23.1955 80.9053 23.6528C80.7275 23.4897 80.5065 23.4175 80.2829 23.6314C80.2721 23.6421 80.2856 23.6609 80.3018 23.6555C80.5038 23.5806 80.6574 23.594 80.8218 23.7384C80.9376 23.8401 81.0292 23.9792 81.1208 24.1022C81.1505 24.145 81.2286 24.1076 81.2043 24.0594C81.2016 24.0567 81.2017 24.0514 81.199 24.0487C81.1127 23.4041 80.4769 22.5829 79.7737 22.6204Z" fill="#263238"/>
<path d="M86.7532 29.372L83.9431 36.8159C83.8353 37.0325 83.9296 37.2278 84.1506 37.2519L88.1326 37.6959C88.3536 37.72 88.623 37.5648 88.7307 37.3508L91.5408 29.9069C91.6486 29.6903 91.5543 29.495 91.3334 29.4709L87.3513 29.0269C87.1304 29.0002 86.861 29.1553 86.7532 29.372Z" fill="#37474F"/>
<path d="M87.2297 29.4203L84.4197 36.8642C84.3119 37.0809 84.4062 37.2761 84.6271 37.3002L88.6092 37.7442C88.8328 37.7683 89.0995 37.6132 89.2073 37.3992L92.0174 29.9553C92.1252 29.7386 92.0309 29.5433 91.8099 29.5193L87.8279 29.0753C87.6042 29.0512 87.3375 29.2036 87.2297 29.4203Z" fill="#455A64"/>
<path d="M88.2786 29.8935C88.2544 30.0781 88.0819 30.2092 87.896 30.1824C87.7101 30.1583 87.5781 29.9872 87.6051 29.8026C87.6293 29.618 87.8017 29.487 87.9876 29.5137C88.1735 29.5378 88.3029 29.7063 88.2786 29.8935Z" fill="#263238"/>
<path d="M72.6327 47.7153C74.392 47.7956 76.4369 46.2602 81.688 41.6837C82.4154 41.0498 79.2901 34.7587 78.4818 35.3953C77.4607 36.1977 73.6726 39.5305 73.4275 39.8087C71.3502 42.1571 71.4391 47.6591 72.6327 47.7153Z" fill="#D3766A"/>
<path d="M76.6562 37.5486C76.6562 37.5486 78.0546 35.1761 79.178 34.1543C80.6814 32.7875 82.5458 32.2205 83.3433 32.0306C85.0057 31.632 89.3003 31.8139 89.4619 33.0497C89.6101 34.1704 85.2293 33.7638 85.2293 33.7638C85.2293 33.7638 89.7637 33.4455 89.6936 34.8257C89.6209 36.2059 84.5638 35.4489 84.5638 35.4489C84.5638 35.4489 89.2302 35.2242 88.9312 36.6365C88.7048 37.7038 84.0842 37.2758 84.0842 37.2758C84.0842 37.2758 88.0959 37.11 87.91 38.2173C87.7053 39.4424 83.4161 39.3113 83.4161 39.3113C82.465 42.0476 80.8862 42.9651 79.6846 43.484C79.3909 43.6124 76.6562 37.5486 76.6562 37.5486Z" fill="#D3766A"/>
<path d="M83.6576 33.7773C84.1883 33.7211 84.7272 33.6596 85.2606 33.6489C85.7941 33.6382 86.3302 33.6489 86.8637 33.689C88.1704 33.788 88.9733 34.0501 88.9221 34.0394C87.707 33.78 85.7914 33.7853 85.2579 33.7934C84.7245 33.8041 84.191 33.7853 83.6576 33.796C83.6441 33.796 83.6468 33.7773 83.6576 33.7773Z" fill="#263238"/>
<path d="M83.6569 35.6923C84.3385 35.6495 85.0148 35.5827 85.6964 35.5693C86.3781 35.5559 87.0247 35.6014 87.7036 35.6362C87.7548 35.6388 87.7387 35.6656 87.6848 35.6656C87.0058 35.6602 86.3754 35.7057 85.6937 35.7084C85.0148 35.7111 84.3331 35.6843 83.6542 35.7111C83.6461 35.7084 83.6461 35.695 83.6569 35.6923Z" fill="#263238"/>
<path d="M83.3588 37.3373C84.3961 37.2196 85.4549 37.2891 86.4922 37.3854C86.5434 37.3908 86.5165 37.4229 86.4626 37.4202C85.4199 37.3854 84.6036 37.3506 83.3615 37.3747C83.3427 37.3747 83.3346 37.3399 83.3588 37.3373Z" fill="#263238"/>
<path d="M71.8594 43.9523C71.9537 42.7166 72.2527 41.4567 72.9128 40.3895C74.1064 38.8435 76.0031 37.4312 77.4607 36.1232C77.7867 35.4786 78.5033 34.62 79.1419 34.061C79.8154 33.4618 80.6048 32.991 81.4562 32.7075C80.6237 33.0419 79.872 33.5474 79.2254 34.1519C78.5707 34.7618 78.0184 35.4893 77.5792 36.2596C76.1459 37.5756 74.2626 38.9799 73.0394 40.4778C72.3659 41.5022 72.0318 42.746 71.8594 43.9523Z" fill="#263238"/>
<path d="M65.346 14.3071C65.6963 17.6292 68.695 20.0418 72.0412 19.6941C73.3937 19.5524 74.5953 18.9826 75.5275 18.1321L78.5774 18.5761L77.0525 15.9601C77.4216 15.0668 77.5778 14.0717 77.4701 13.0473C77.1198 9.72521 74.1211 7.31256 70.7749 7.66028C67.4287 8.008 64.9958 10.985 65.346 14.3071Z" fill="white"/>
<path d="M67.1719 9.31074C67.8347 8.66879 68.6403 8.17395 69.5213 7.87973C70.4023 7.58818 71.3534 7.50526 72.2775 7.6283C73.1989 7.75134 74.1015 8.07766 74.8774 8.59657C75.656 9.11548 76.3134 9.80825 76.7849 10.6134C77.7333 12.2236 77.8976 14.2778 77.1594 16.0057L77.1513 15.9014L78.6682 18.5227L78.7813 18.7153L78.5604 18.6805L75.5159 18.2151L75.5887 18.1937C74.7454 18.9533 73.6892 19.4722 72.5738 19.6702C72.2963 19.721 72.0134 19.7504 71.7305 19.7584C71.4476 19.7825 71.1648 19.7584 70.8846 19.7424C70.3242 19.6755 69.7638 19.5712 69.2438 19.3545C68.7211 19.1513 68.22 18.8838 67.7727 18.5414C67.5383 18.3836 67.3416 18.183 67.1288 18.0011C66.9429 17.7925 66.7354 17.5999 66.5765 17.3699C65.8814 16.4898 65.4745 15.4066 65.3452 14.3019C65.1512 12.4857 65.8275 10.5813 67.1719 9.31074ZM66.598 17.3618C66.7597 17.5892 66.9645 17.7818 67.153 17.9877C67.3659 18.1696 67.5626 18.3675 67.797 18.52C68.2415 18.857 68.7453 19.1138 69.268 19.3064C69.788 19.5124 70.343 19.606 70.8953 19.6621C71.1728 19.6728 71.4503 19.6916 71.7305 19.6621C72.008 19.6514 72.2855 19.6167 72.5577 19.5632C73.6488 19.3465 74.6699 18.8223 75.4755 18.0706L75.5052 18.0439L75.5483 18.0492L78.6008 18.4745L78.4931 18.635L76.96 16.0244L76.9304 15.9763L76.952 15.9228C77.2914 15.0909 77.4369 14.1842 77.3803 13.2881C77.3076 12.3948 77.0678 11.5041 76.6071 10.7284C76.1545 9.95001 75.5267 9.27329 74.7831 8.75438C74.0368 8.23815 73.1666 7.9038 72.2667 7.76739C71.3668 7.63365 70.4319 7.69784 69.5563 7.968C68.6834 8.2435 67.8751 8.71693 67.2069 9.34551C65.8598 10.5973 65.1728 12.4911 65.356 14.3153C65.4826 15.4119 65.8975 16.4899 66.598 17.3618Z" fill="#263238"/>
<path d="M70.7354 17.1289L68.1328 14.5129L69.0057 13.6543L70.528 15.1843L73.6856 10.2681L74.7229 10.9234L70.7354 17.1289Z" fill="#EB5E10"/>
<path d="M50.6556 108.612H21.6172L25.8525 79.248H46.423L50.6556 108.612Z" fill="#37474F"/>
<path d="M46.423 79.2456L43.1953 108.615H50.6583L46.423 79.2456Z" fill="#455A64"/>
<path d="M31.6423 81.2731L30.7344 81.0832C30.7398 81.0591 31.2651 78.5903 31.8282 76.1C32.4371 73.4092 35.1017 72.1708 37.3299 72.5265C38.9976 72.794 40.8458 74.0859 40.5683 76.8463C40.2693 79.8019 40.0456 81.1928 40.0349 81.2517L39.1188 81.1046C39.1215 81.0912 39.3505 79.6762 39.6442 76.7554C39.857 74.6343 38.5126 73.6499 37.1817 73.436C35.3792 73.1471 33.2212 74.1394 32.7335 76.3007C32.1731 78.7855 31.6477 81.2463 31.6423 81.2731Z" fill="#263238"/>
<path d="M43.5859 108.39C44.1841 107.968 44.801 107.583 45.418 107.195C46.0377 106.812 46.6654 106.443 47.3013 106.085L47.3875 106.037L47.4656 106.095C47.956 106.459 48.4463 106.826 48.9232 107.214C49.4028 107.593 49.8797 107.979 50.3404 108.388C49.8123 108.072 49.3004 107.735 48.7912 107.393C48.2793 107.056 47.7809 106.7 47.2851 106.342L47.4522 106.35C46.8217 106.716 46.1859 107.069 45.542 107.414C44.898 107.748 44.2514 108.086 43.5859 108.39Z" fill="white"/>
<path d="M47.3802 106.216C47.2536 104.343 47.1593 102.468 47.0704 100.596C46.9814 98.7209 46.9195 96.8485 46.8413 94.9735C46.7902 93.0985 46.7228 91.2235 46.6851 89.3484L46.6312 86.5346C46.6258 85.5957 46.6069 84.6596 46.6096 83.7207C46.677 84.6569 46.7228 85.593 46.7821 86.5292L46.9222 89.3404C47.0111 91.2154 47.073 93.0878 47.1512 94.9628C47.2024 96.8378 47.2697 98.7128 47.3074 100.588C47.3452 102.463 47.3802 104.341 47.3802 106.216Z" fill="white"/>
<path d="M32.4235 81.177C32.4235 81.8537 31.8711 82.3993 31.1922 82.3993C30.5106 82.3993 29.9609 81.851 29.9609 81.177C29.9609 80.5002 30.5133 79.9546 31.1922 79.9546C31.8738 79.9519 32.4235 80.5002 32.4235 81.177Z" fill="#263238"/>
<path d="M40.7203 81.177C40.7203 81.8537 40.168 82.3993 39.4891 82.3993C38.8074 82.3993 38.2578 81.851 38.2578 81.177C38.2578 80.5002 38.8101 79.9546 39.4891 79.9546C40.1707 79.9519 40.7203 80.5002 40.7203 81.177Z" fill="#263238"/>
<path d="M35.7818 108.612H10.5234L14.2091 83.0708H32.0988L35.7818 108.612Z" fill="#EB5E10"/>
<path d="M32.1016 83.0708L29.2969 108.615H35.7846L32.1016 83.0708Z" fill="#EB5E10"/>
<path opacity="0.1" d="M32.1016 83.0708L29.2969 108.615H35.7846L32.1016 83.0708Z" fill="black"/>
<path d="M19.2503 84.8307L18.4609 84.6648C18.4663 84.6434 18.9217 82.4982 19.412 80.3317C19.9401 77.9912 22.2598 76.9133 24.197 77.2236C25.6491 77.4563 27.2549 78.5797 27.0124 80.9816C26.7538 83.5521 26.5571 84.7638 26.549 84.8119L25.7515 84.6835C25.7542 84.6702 25.9509 83.4424 26.2095 80.9014C26.3954 79.0558 25.2261 78.1999 24.0676 78.0153C22.4996 77.7639 20.6217 78.6278 20.1987 80.5082C19.7111 82.6694 19.253 84.8093 19.2503 84.8307Z" fill="#263238"/>
<path d="M29.6328 108.42C30.1528 108.053 30.6889 107.716 31.2278 107.382C31.7666 107.05 32.3136 106.729 32.8659 106.416L32.9413 106.374L33.0087 106.424C33.4371 106.743 33.8628 107.061 34.2777 107.395C34.6953 107.724 35.1102 108.061 35.5089 108.417C35.0482 108.142 34.6037 107.85 34.1618 107.55C33.7173 107.256 33.2835 106.946 32.8524 106.636L32.9979 106.644C32.451 106.962 31.896 107.27 31.3383 107.569C30.7752 107.861 30.2121 108.155 29.6328 108.42Z" fill="white"/>
<path d="M32.929 106.529C32.8185 104.9 32.735 103.271 32.6596 101.639C32.5814 100.01 32.5275 98.3786 32.4602 96.747C32.4144 95.1154 32.3578 93.4864 32.3228 91.8548L32.277 89.4074C32.2716 88.5916 32.2554 87.7758 32.2581 86.96C32.3174 87.7731 32.3578 88.5889 32.409 89.4047L32.5302 91.8495C32.6084 93.4784 32.6622 95.11 32.7296 96.739C32.7754 98.3706 32.832 99.9995 32.867 101.631C32.8993 103.265 32.929 104.897 32.929 106.529Z" fill="white"/>
<path d="M19.9259 84.7477C19.9259 85.3361 19.4463 85.8122 18.8536 85.8122C18.2608 85.8122 17.7812 85.3361 17.7812 84.7477C17.7812 84.1592 18.2608 83.6831 18.8536 83.6831C19.4463 83.6831 19.9259 84.1619 19.9259 84.7477Z" fill="#263238"/>
<path d="M27.1368 84.7477C27.1368 85.3361 26.6572 85.8122 26.0645 85.8122C25.4718 85.8122 24.9922 85.3361 24.9922 84.7477C24.9922 84.1592 25.4718 83.6831 26.0645 83.6831C26.6572 83.6831 27.1368 84.1619 27.1368 84.7477Z" fill="#263238"/>
</g>
<defs>
<clipPath id="clip0_3039_13442">
<rect width="110" height="109" fill="white"/>
</clipPath>
</defs>
</svg>
