<svg width="147" height="136" viewBox="0 0 147 136" fill="none" xmlns="http://www.w3.org/2000/svg">
<g style="mix-blend-mode:multiply" opacity="0.6">
<path d="M125.236 122.926C96.575 139.453 50.125 139.453 21.4635 122.926C-7.15451 106.355 -7.15451 79.564 21.4635 63.0369C50.125 46.4662 96.575 46.4662 125.236 63.0369C153.855 79.564 153.855 106.355 125.236 122.926Z" fill="#D8BF93"/>
</g>
<path d="M125.236 112.227C96.575 128.797 50.125 128.797 21.4635 112.227C-7.15451 95.6997 -7.15451 68.9083 21.4635 52.3377C50.125 35.8106 96.575 35.8106 125.236 52.3377C153.855 68.9083 153.855 95.6997 125.236 112.227Z" fill="#3D3838"/>
<path d="M67.1186 82.26C66.4227 83.7822 63.5522 83.2603 62.2475 83.0863C61.3776 82.9993 56.376 80.9552 54.4188 80.2593C53.8969 80.0853 53.4185 79.8679 53.375 79.346C53.375 78.6066 53.4185 77.6063 53.375 77.1714C53.7809 76.4755 54.1579 76.0406 54.5058 75.8666C55.6366 75.3012 56.9414 75.1272 58.1592 75.3882C58.2896 75.3882 58.4201 75.4316 58.5506 75.5186C58.6811 75.6926 58.6376 75.9536 58.7246 76.171C58.8551 76.3885 61.2906 77.4323 63.0303 78.1282C64.77 78.8241 66.5532 79.4764 67.0316 80.2593C67.3796 80.8247 67.4231 81.6511 67.1186 82.26Z" fill="#281E28"/>
<path d="M67.2969 81.0856C67.4274 81.5205 67.3839 81.9989 67.21 82.3904C66.5141 83.9126 63.6436 83.9126 61.9039 83.4777C61.15 83.2747 58.381 82.2019 53.5968 80.2592C53.3648 80.1722 53.2923 79.7953 53.3793 79.1284C58.5694 81.2161 61.5269 82.3179 62.2518 82.4338C63.5566 82.6078 66.0791 82.8253 67.123 81.6075C67.2389 81.4625 67.2969 81.2885 67.2969 81.0856Z" fill="#EF9A33"/>
<path d="M37.6817 88.1314C37.7687 87.3196 37.8847 86.4208 38.0297 85.4349C38.943 84.1736 42.2919 85.4349 43.7272 86.1743C43.8142 86.2178 43.7706 88.1314 43.8141 88.3924C43.8576 91.1759 43.8577 93.655 43.6402 95.3512C43.4227 96.743 42.2484 97.6998 40.9002 97.6563C39.7694 97.6128 38.5951 97.2214 37.9862 96.482C36.7249 94.8728 37.2468 91.3934 37.6817 88.1314Z" fill="#EF9A33"/>
<path d="M37.7208 86.9576C37.8368 86.1458 37.9528 85.2469 38.0687 84.2611C38.9821 82.9998 42.331 84.2611 43.7662 85.0005C43.8532 85.044 43.8097 86.9576 43.8532 87.2186C43.8967 90.0021 43.8967 92.4812 43.6793 94.2209C43.4618 95.5691 42.2875 96.526 40.9392 96.4825C39.8084 96.439 38.6341 96.0475 38.0252 95.3082C36.764 93.6989 37.2859 90.2196 37.7208 86.9576Z" fill="#281E28"/>
<path d="M52.5605 42.4648L49.8205 60.7317C49.5596 62.5294 49.1536 64.2836 48.6027 65.9943C48.3418 66.6901 44.2535 84.1741 44.1665 84.9135C43.7751 87.1316 37.5122 86.6097 37.6426 84.7395C37.9906 79.4334 38.4255 70.2565 39.9912 64.4285C39.5273 54.0773 39.9767 47.104 41.3395 43.5087L52.5605 42.4648Z" fill="#52505B"/>
<path d="M50.0787 47.3793C49.9918 46.5529 49.1219 42.2472 57.8639 40.725C59.3861 40.464 60.343 42.0297 60.343 43.5955C60.343 47.5098 60.14 52.6709 59.7341 59.0788L59.8645 76.7367C60.0385 78.7374 53.2972 79.2593 53.1232 77.4326C52.2534 69.8214 51.601 69.082 51.1226 63.9934C51.0646 63.2685 51.1371 61.8478 51.34 59.7312C51.0356 55.2514 50.3832 50.2498 50.0787 47.3793Z" fill="#52505B"/>
<path d="M47.1138 16.8913C46.8964 17.1087 46.5919 17.1957 46.2875 17.0652L43.1995 15.8474C42.6776 15.6735 42.5471 15.0211 42.9385 14.6731L43.243 14.3252C43.6779 13.8903 44.1563 13.5278 44.6782 13.2379L45.1132 12.716C46.9398 11.7012 48.9115 11.1068 51.0281 10.9328C52.7243 10.8023 48.3751 15.5865 47.1138 16.8913Z" fill="#D89C55"/>
<path d="M59.1671 38.2897C59.2541 38.8551 59.2106 39.4205 59.0366 39.9424C58.5147 41.4646 60.3414 43.0303 55.9487 44.8135C48.8594 47.7275 43.3359 43.2043 42.5095 42.1605C41.2047 40.5078 44.7276 37.8112 44.2927 35.2887C43.5968 31.2874 41.9006 26.9816 40.9438 24.1981C38.9866 21.7625 36.2031 18.1961 39.9 16.239C41.2047 15.5431 42.466 15.2387 44.4232 13.8904C45.9454 12.8901 47.2067 12.5421 48.1635 12.3682C52.6867 11.4983 55.4268 11.1939 57.21 11.3243C57.384 12.7161 57.7754 14.0644 57.9493 15.4996C58.1233 17.4568 58.2538 19.4574 58.3408 21.4146C58.3843 23.7632 58.1668 32.0702 59.1671 38.2897Z" fill="white"/>
<path d="M45.0742 15.6734C43.726 12.9334 51.7286 11.4111 53.2073 12.5854C54.0337 13.2378 55.0775 17.1956 52.381 19.7182C50.6413 21.3709 47.0749 19.6312 45.0742 15.6734Z" fill="#FCBE9F"/>
<path d="M49.0274 27.4599C50.8251 34.3027 51.9124 41.276 52.2893 48.3798C49.4188 49.815 41.8512 49.2496 40.5899 46.4226C40.4159 46.0747 40.4159 45.6832 40.5029 45.3353C40.7204 44.4654 41.0248 42.4213 41.2858 40.0727C41.6772 36.5933 41.4162 33.1139 40.5464 29.7215L39.6765 26.3291L37.3714 18.37C37.241 17.8916 37.4149 17.4131 37.7629 17.0652C38.8647 15.9634 41.2133 14.6586 44.8087 13.1509C44.0693 14.1947 44.4607 15.195 44.6782 15.9779C45.2436 17.8046 47.7226 22.4148 49.0274 27.4599Z" fill="#EB5E10"/>
<path d="M44.8526 13.6727C44.5047 14.3685 44.4612 15.1949 44.6786 15.9778C45.244 17.8044 47.7231 22.4146 49.0279 27.4598C49.9412 31.0261 50.6371 34.636 51.1155 37.8545C49.9412 33.9401 48.0711 29.8518 46.2009 26.329C45.7225 25.4156 45.2441 24.5458 44.8091 23.6759C44.6642 23.386 44.7367 22.8061 45.0266 21.9362C44.1278 21.5013 43.6493 21.1823 43.5913 20.9794C43.0694 19.6311 42.3735 14.586 44.7656 12.9333C44.9106 12.8463 45.0266 12.7738 45.1136 12.7158C45.0266 12.8028 44.8961 13.4987 44.8526 13.6727Z" fill="#D89C55"/>
<path d="M36.0663 52.9897C36.0663 53.8161 36.0663 53.99 36.0663 54.164C36.1098 54.9904 35.8923 55.0338 35.3704 55.0773C34.7615 55.1643 33.5002 54.7294 33.0218 54.164C32.3694 53.4681 32.0215 50.5541 32.2825 49.5973C32.5434 48.6839 33.1958 47.9446 33.3698 46.9442C33.4857 46.2774 33.5582 45.5235 33.5872 44.6826C33.9787 44.2042 37.5016 45.4655 37.4581 45.9439C37.4146 46.2484 37.2841 46.9008 37.2406 47.4662C37.1826 47.9301 37.1971 48.3795 37.2841 48.8144C37.4146 49.3363 37.5016 49.9452 37.4146 50.3367C37.2406 51.5544 36.9362 52.9897 36.0663 52.9897Z" fill="#FBBD9E"/>
<path d="M62.3433 22.0236C62.4303 22.4151 62.9087 25.3726 63.3436 27.4167C67.2869 33.0417 69.4181 36.1007 69.737 36.5936C70.4764 37.6809 66.8665 40.7254 65.8662 39.4641C64.083 37.246 59.0379 30.8961 58.6464 30.5917C57.5156 29.8523 58.3855 25.1116 58.255 24.5897L57.5156 12.2813C57.5591 11.7159 57.6026 11.281 58.1245 11.4985C60.0382 12.3683 60.7776 15.0214 62.3433 22.0236Z" fill="#EB5E10"/>
<path d="M42.764 23.8067C42.5031 25.8508 40.8503 31.5483 40.198 35.6366C39.937 36.5065 38.2843 45.4224 37.6754 47.771C37.0665 49.1628 32.4998 48.2059 32.7608 46.8142C32.8477 46.4662 34.6309 33.5925 34.7179 33.2011C35.4138 28.4604 34.5005 21.6321 36.8925 17.9787C39.1541 14.4558 43.5034 18.3701 42.764 23.8067Z" fill="#EB5E10"/>
<path d="M52.6851 16.5001L52.4677 17.109C52.2937 17.7179 51.7283 18.1963 51.0759 18.2833C50.0756 18.4138 48.4664 18.1963 46.9441 16.1522C46.6397 15.7172 46.4222 15.3693 46.2483 15.0648C46.0308 14.5429 46.1178 13.9775 46.3787 13.4991C47.0311 12.3683 47.3791 10.2372 47.6835 7.97559L52.6851 16.5001Z" fill="#F3A984"/>
<path d="M60.685 44.4218C60.0761 45.4656 59.2208 46.118 58.119 46.379C56.2923 33.5487 55.205 20.7184 54.7266 10.9761C57.0462 10.7152 58.4814 11.2226 59.0323 12.4984C59.9456 14.6295 59.2933 18.6743 58.9888 22.5886C58.9018 23.7629 58.8583 24.9372 58.8148 25.981C58.6844 29.0255 58.9453 32.07 59.5542 35.0275C60.3371 38.5938 61.2504 43.465 60.685 44.4218Z" fill="#EB5E10"/>
<path d="M56.9036 17.1954C56.9326 17.4274 56.7441 18.0363 56.3382 19.0221C56.9181 19.718 57.2081 20.1529 57.2081 20.3269C57.2081 21.1532 56.6861 31.4175 56.7296 35.2448C55.5118 26.5463 55.5553 18.9786 53.5547 11.063C54.8595 11.6284 56.4252 14.8468 56.9036 17.1954Z" fill="#D89C55"/>
<path d="M55.5122 1.62533C57.5128 3.27804 57.5998 5.53965 57.5998 8.1492C57.5563 11.4546 56.2516 15.195 55.7297 16.4997C55.0773 18.022 53.0766 17.5001 52.4242 17.0217C49.7712 15.108 46.8137 11.5416 46.3788 8.06221C45.8134 3.45202 47.5966 1.75581 49.9886 0.842467C52.4677 -0.114367 54.1204 0.538021 55.5122 1.62533Z" fill="#FCBE9F"/>
<path d="M49.7289 9.67149C49.0765 9.49752 49.2505 8.67116 48.6416 8.4537C48.1197 8.27973 47.6412 8.67116 47.5977 9.19307C47.5107 9.5845 47.8152 11.0632 47.4238 11.1502C46.7714 11.1502 46.2495 8.41021 46.1625 8.06227C45.5101 3.2781 47.3803 1.36443 49.7724 0.451089C52.2949 -0.505745 54.1216 0.190134 55.5134 1.32094C57.3835 2.88667 57.9924 5.06129 57.5575 6.45305C56.0353 7.97528 52.8168 7.45337 51.5121 8.10576C50.5117 8.62766 50.6857 9.93244 49.7289 9.67149Z" fill="#724A2F"/>
<path d="M66.3828 39.2896C67.2527 38.1153 68.3835 38.8547 68.8184 39.1591C69.2533 39.4201 69.4708 39.8985 69.6013 40.3769C69.6882 40.7249 69.7752 41.0293 69.7317 41.3773C69.6882 41.7252 67.6876 43.3779 67.0352 40.8119C66.9192 40.4929 66.7018 39.9855 66.3828 39.2896Z" fill="#FBBD9E"/>
<path d="M99.7886 73.1714V74.5632L84.1313 83.6096C83.9573 83.3486 83.7833 83.0877 83.6094 82.8267L99.7886 73.1714Z" fill="#E6E2DB"/>
<path d="M112.75 82.0436L99.7891 74.5629V72.8667L112.75 80.9563V82.0436Z" fill="#C9C5BA"/>
<path fill-rule="evenodd" clip-rule="evenodd" d="M113.576 80.6954L96.3965 90.6552L82.6094 82.6526L99.7889 72.7363L113.576 80.6954ZM96.3965 89.8289L112.228 80.6954L99.7454 73.5192L83.9141 82.6526L96.3965 89.8289Z" fill="#F5F2EE"/>
<path d="M99.7896 30.8527L99.0938 30.4613L99.7896 30.0698L100.442 30.4613L99.7896 30.8527Z" fill="#F5F2EE"/>
<path d="M99.7896 73.5189L99.0938 73.1275V30.4614L99.7896 30.8529V73.5189Z" fill="#C9C5BA"/>
<path d="M100.441 73.1275L99.7891 73.5189V30.8529L100.441 30.4614V73.1275Z" fill="#E6E2DB"/>
<path d="M112.922 38.4206L112.227 38.0291L112.922 37.6377L113.575 38.0291L112.922 38.4206Z" fill="#F5F2EE"/>
<path d="M112.922 81.0868L112.227 80.6954V38.0293L112.922 38.4207V81.0868Z" fill="#C9C5BA"/>
<path d="M83.2618 40.3776L82.6094 39.9862L83.2618 39.5947L83.9577 39.9862L83.2618 40.3776Z" fill="#F5F2EE"/>
<path d="M83.9615 82.6524L83.2656 83.0439V40.3778L83.9615 39.9863V82.6524Z" fill="#E6E2DB"/>
<path d="M96.3946 47.945L95.7422 47.5535L96.3946 47.1621L97.0904 47.5535L96.3946 47.945Z" fill="#F5F2EE"/>
<path d="M112.489 80.8254L96.3972 90.0893L83.6104 82.8261L83.5234 74.8235L87.9162 72.3009L87.4378 72.0399L92.7438 68.9955L93.1353 69.2129L96.3972 67.2993L97.354 67.8647L100.268 66.1685L102.182 67.2993L104.095 66.1685L106.226 67.4297L107.792 66.5164L110.924 68.3431L109.923 68.9085L110.924 69.4739L110.141 69.9523L112.228 71.1701L111.228 71.779L112.489 72.4749V80.8254Z" fill="#DBDBDB"/>
<path d="M106.174 62.5151C104.87 64.9072 102.782 66.9078 100.346 68.1256L96.5625 65.951C99.0851 64.6897 101.173 62.6456 102.477 60.1665L106.174 62.5151Z" fill="#EFEFEF"/>
<path d="M93.0476 62.0366C94.7003 64.2982 97.0924 65.9944 99.7889 66.8643L96.353 69.6043C93.7435 68.7779 91.3949 67.1252 89.7422 64.9506L93.0476 62.0366Z" fill="#EFEFEF"/>
<path d="M86.9539 66.2554C88.6066 68.517 90.9987 70.2132 93.6952 71.0395L90.2593 73.7796C87.6497 72.9532 85.3012 71.3005 83.6484 69.1259L86.9539 66.2554Z" fill="#EFEFEF"/>
<path d="M90.3852 63.0366C91.2115 65.6897 92.9077 68.0817 95.1693 69.778L91.0376 71.2567C88.8629 69.604 87.1667 67.2554 86.2969 64.6458L90.3852 63.0366Z" fill="#EFEFEF"/>
<path d="M101.693 57.8179C101.91 60.5579 101.214 63.3414 99.8224 65.69L95.4297 65.864C96.9084 63.4719 97.5608 60.6014 97.3434 57.8179H101.693Z" fill="#EFEFEF"/>
<path d="M100.26 64.9506C98.9555 67.3427 96.8679 69.3434 94.4323 70.5612L90.6484 68.3865C93.171 67.1253 95.2587 65.0811 96.5634 62.6021L100.26 64.9506Z" fill="#EFEFEF"/>
<path d="M104.96 64.3852C103.655 66.8207 101.568 68.8214 99.132 70.0392L95.3047 67.8211C97.8272 66.6033 99.9584 64.5591 101.263 62.0801L104.96 64.3852Z" fill="#EFEFEF"/>
<path d="M109.049 69.6909C107.745 72.083 105.7 74.0836 103.221 75.3014L99.4375 73.1268C101.96 71.8655 104.048 69.8214 105.352 67.3423L109.049 69.6909Z" fill="#EFEFEF"/>
<path d="M107.304 68.3862C105.955 70.7783 103.911 72.7789 101.432 73.9967L97.6484 71.8221C100.171 70.5608 102.259 68.5167 103.607 66.0376L107.304 68.3862Z" fill="#EFEFEF"/>
<path d="M105.26 72.8657C103.956 75.2578 101.868 77.2584 99.4323 78.4762L95.6484 76.3016C98.1275 75.0403 100.259 72.9962 101.563 70.5171L105.26 72.8657Z" fill="#EFEFEF"/>
<path d="M108.745 65.7334C107.44 68.1254 105.396 70.1261 102.917 71.3439L99.1328 69.1258C101.655 67.908 103.743 65.8638 105.048 63.3848L108.745 65.7334Z" fill="#EFEFEF"/>
<path d="M112.137 68.0384L105.613 71.8223L101.742 69.5607L108.266 65.8203L112.137 68.0384Z" fill="#EFEFEF"/>
<path d="M112.484 65.8202L106.004 69.5605L102.133 67.3424L108.657 63.6021L112.484 65.8202Z" fill="#EFEFEF"/>
<path d="M93.8278 69.9959L87.3474 73.7798L83.4766 71.5617L90.0004 67.7778L93.8278 69.9959Z" fill="#EFEFEF"/>
<path d="M95.3043 73.3446L88.8239 77.1284L84.9531 74.8668L91.477 71.1265L95.3043 73.3446Z" fill="#EFEFEF"/>
<path d="M93.6949 71.5614L87.1711 75.3018L83.3438 73.0836L89.8241 69.2998L93.6949 71.5614Z" fill="#EFEFEF"/>
<path d="M93.8278 72.7357L87.3474 76.5195L83.4766 74.2579L90.0004 70.5176L93.8278 72.7357Z" fill="#EFEFEF"/>
<path d="M102.132 65.1683L98.348 67.3429C95.869 66.1251 93.8248 64.1245 92.4766 61.7324L96.2169 59.3838C97.5217 61.8629 99.6093 63.907 102.132 65.1683Z" fill="white"/>
<path d="M103.913 71.3875L100.129 73.5621C97.6502 72.3444 95.6061 70.3437 94.2578 67.9516L97.9982 65.603C99.303 68.0821 101.391 70.1262 103.913 71.3875Z" fill="#EFEFEF"/>
<path d="M100.135 75.3016L96.3514 77.4762C93.8724 76.2584 91.8282 74.3013 90.5234 71.8657L94.2203 69.5171C95.5251 71.9962 97.6127 74.0403 100.135 75.3016Z" fill="#EFEFEF"/>
<path d="M97.9556 76.5628L94.1717 78.7374C91.6927 77.5196 89.6485 75.519 88.3438 73.1269L92.0406 70.7783C93.3454 73.2574 95.433 75.3015 97.9556 76.5628Z" fill="#EFEFEF"/>
<path d="M105.222 63.6021L111.746 67.3424L107.875 69.5605L101.352 65.8202L105.222 63.6021Z" fill="#EFEFEF"/>
<path d="M105.613 66.2554L112.137 69.9957L108.266 72.2138L101.742 68.4735L105.613 66.2554Z" fill="#EFEFEF"/>
<path d="M89.0818 66.5166L95.6056 70.2569L91.7348 72.5186L85.2109 68.7347L89.0818 66.5166Z" fill="#EFEFEF"/>
<path d="M109.613 63.2107C108.83 65.8203 107.22 68.2123 105.089 69.952L100.914 68.6038C103.132 66.8641 104.741 64.385 105.481 61.6885L109.613 63.2107Z" fill="white"/>
<path d="M101.482 71.8657L98.3505 74.9536C95.6539 74.3447 93.1749 72.9095 91.3047 70.9088L94.3057 67.7339C96.2193 69.8215 98.7419 71.3003 101.482 71.8657Z" fill="white"/>
<path d="M96.3965 47.945V91.6549L82.6094 83.6958V39.9858L83.2618 40.3773V83.0434L95.7441 90.2631V47.5535L96.3965 47.945Z" fill="#C9C5BA"/>
<path d="M113.578 38.0288V81.7387L96.3984 91.655V47.9451L97.0943 47.5537V90.2632L112.926 81.0863V38.4202L113.578 38.0288Z" fill="#E6E2DB"/>
<g style="mix-blend-mode:screen" opacity="0.5">
<path d="M112.925 38.4204V81.0865L97.0938 90.2634V47.5538L112.925 38.4204Z" fill="#67C7E5"/>
</g>
<g style="mix-blend-mode:multiply" opacity="0.4">
<path d="M95.748 47.5537V90.2633L83.2656 83.0435V40.3774L95.748 47.5537Z" fill="#3F7CB2"/>
</g>
<path d="M96.3965 48.0322L82.6094 40.0731V34.2886L98.6146 40.9864L96.3965 48.0322Z" fill="#B91D1C"/>
<path d="M113.578 38.116L96.3984 48.0323V42.2478L113.578 32.3315V38.116Z" fill="#E02B2B"/>
<path d="M96.3965 42.2479L82.6094 34.2888L99.7889 24.3726L113.576 32.3317L96.3965 42.2479Z" fill="#FE3838"/>
<path d="M102.315 31.2446L95.0081 35.4634L94.0078 34.898L101.315 30.6792L102.315 31.2446Z" fill="#B91D1C"/>
<path d="M73.4482 88.3496V89.7414L57.8344 98.7878C57.6604 98.5268 57.4865 98.2804 57.3125 98.0484L73.4482 88.3496Z" fill="#E6E2DB"/>
<path d="M86.4495 97.2653L73.4453 89.7411V88.0884L86.4495 96.178V97.2653Z" fill="#C9C5BA"/>
<path fill-rule="evenodd" clip-rule="evenodd" d="M87.2757 95.9171L70.0962 105.833L56.2656 97.8743L73.4451 87.958L87.2757 95.9171ZM70.0962 105.051L85.971 95.9171L73.4886 88.6974L57.6574 97.8308L70.0962 105.051Z" fill="#F5F2EE"/>
<path d="M73.4414 46.0314L72.7891 45.64L73.4414 45.2485L74.1373 45.64L73.4414 46.0314Z" fill="#F5F2EE"/>
<path d="M73.4414 88.7411L72.7891 88.3497V45.6401L73.4414 46.0316V88.7411Z" fill="#C9C5BA"/>
<path d="M74.1412 88.3497L73.4453 88.7411V46.0316L74.1412 45.6401V88.3497Z" fill="#E6E2DB"/>
<path d="M86.5821 53.5988L85.9297 53.2074L86.5821 52.8159L87.2779 53.2074L86.5821 53.5988Z" fill="#F5F2EE"/>
<path d="M86.5821 96.3085L85.9297 95.9171V53.2075L86.5821 53.5989V96.3085Z" fill="#C9C5BA"/>
<path d="M56.9615 55.5563L56.2656 55.1649L56.9615 54.7734L57.6574 55.1649L56.9615 55.5563Z" fill="#F5F2EE"/>
<path d="M57.6568 97.8746L56.9609 98.2661V55.5565L57.6568 55.165V97.8746Z" fill="#E6E2DB"/>
<path d="M70.0943 63.1672L69.3984 62.7757L70.0943 62.3408L70.7467 62.7757L70.0943 63.1672Z" fill="#F5F2EE"/>
<path d="M86.1925 96.0041L70.1003 105.311L57.3135 98.0482L57.2266 90.0021L61.5758 87.4796L61.1409 87.2186L66.4469 84.1741L66.8384 84.3916L70.1003 82.5214L71.0572 83.0433L73.9712 81.3906L75.8848 82.4779L77.755 81.3906L79.9296 82.6084L81.4953 81.7386L84.6268 83.5218L83.6265 84.1307L84.6268 84.6961L83.8004 85.1745L85.9316 86.3923L84.9312 86.9577L86.1925 87.697V96.0041Z" fill="#DBDBDB"/>
<path d="M79.8819 77.6933C78.5771 80.1289 76.4895 82.1295 74.0539 83.3473L70.2266 81.1292C72.7491 79.9114 74.8803 77.8673 76.185 75.3882L79.8819 77.6933Z" fill="#EFEFEF"/>
<path d="M66.7072 77.2583C68.4035 79.4764 70.7955 81.2161 73.4486 82.0425L70.0562 84.7825C67.4466 83.9561 65.098 82.3034 63.4453 80.1288L66.7072 77.2583Z" fill="#EFEFEF"/>
<path d="M60.6258 81.4771C62.322 83.6952 64.714 85.3914 67.3671 86.2612L63.9747 89.0012C61.3651 88.1749 59.0165 86.5222 57.3203 84.3476L60.6258 81.4771Z" fill="#EFEFEF"/>
<path d="M64.0961 78.2153C64.9225 80.9119 66.6187 83.3039 68.8803 84.9567L64.7485 86.4354C62.5304 84.7827 60.8777 82.4776 60.0078 79.868L64.0961 78.2153Z" fill="#EFEFEF"/>
<path d="M75.4035 72.9961C75.5775 75.7361 74.9251 78.5196 73.5334 80.8682L69.1406 81.0857C70.5759 78.6936 71.2717 75.8231 71.0108 73.0396L75.4035 72.9961Z" fill="#EFEFEF"/>
<path d="M73.9678 80.1289C72.6631 82.5644 70.5754 84.5216 68.1398 85.7394L64.3125 83.5648C66.8351 82.3035 68.9662 80.2593 70.271 77.7803L73.9678 80.1289Z" fill="#EFEFEF"/>
<path d="M78.6631 79.6069C77.3149 81.999 75.2707 83.9996 72.7917 85.2174L69.0078 83.0428C71.5304 81.7815 73.618 79.7374 74.9228 77.2583L78.6631 79.6069Z" fill="#EFEFEF"/>
<path d="M82.7524 84.9135C81.4477 87.3056 79.3601 89.3063 76.9245 90.5241L73.1406 88.3494C75.6197 87.0882 77.7508 85.044 79.0556 82.5649L82.7524 84.9135Z" fill="#EFEFEF"/>
<path d="M80.9712 83.6088C79.6664 86.0009 77.6223 88.0016 75.1432 89.2194L71.3594 87.0012C73.8819 85.7835 75.9696 83.7393 77.2743 81.2603L80.9712 83.6088Z" fill="#EFEFEF"/>
<path d="M78.9678 88.0449C77.6631 90.4804 75.5754 92.4811 73.1398 93.6989L69.3125 91.4808C71.8351 90.263 73.9662 88.2188 75.271 85.7397L78.9678 88.0449Z" fill="#EFEFEF"/>
<path d="M82.4478 80.9116C81.143 83.3037 79.0554 85.3043 76.6198 86.5221L72.8359 84.3475C75.315 83.0862 77.4462 81.0421 78.7509 78.563L82.4478 80.9116Z" fill="#EFEFEF"/>
<path d="M85.7965 83.2606L79.3162 87.0009L75.4453 84.7828L81.9257 81.0425L85.7965 83.2606Z" fill="#EFEFEF"/>
<path d="M86.1871 80.9989L79.6633 84.7827L75.8359 82.5211L82.3163 78.7808L86.1871 80.9989Z" fill="#EFEFEF"/>
<path d="M67.5309 85.2176L61.0505 88.958L57.1797 86.7399L63.6601 82.9995L67.5309 85.2176Z" fill="#EFEFEF"/>
<path d="M69.0074 88.5668L62.5271 92.3071L58.6562 90.089L65.1366 86.3052L69.0074 88.5668Z" fill="#EFEFEF"/>
<path d="M67.4025 86.7401L60.8786 90.4804L57.0078 88.2623L63.5317 84.522L67.4025 86.7401Z" fill="#EFEFEF"/>
<path d="M67.5309 87.9574L61.0505 91.6977L57.1797 89.4796L63.6601 85.7393L67.5309 87.9574Z" fill="#EFEFEF"/>
<path d="M75.8428 80.3465L72.0155 82.5646C69.5799 81.3468 67.4923 79.3462 66.1875 76.9106L69.8844 74.6055C71.1891 77.0845 73.3203 79.1287 75.8428 80.3465Z" fill="white"/>
<path d="M77.6241 86.5657L73.7967 88.7838C71.3612 87.566 69.2735 85.5654 67.9688 83.1298L71.6656 80.8247C72.9704 83.3038 75.1015 85.3479 77.6241 86.5657Z" fill="#EFEFEF"/>
<path d="M73.8428 90.5237L70.059 92.6984C67.5799 91.4806 65.5358 89.4799 64.1875 87.0878L67.8844 84.7393C69.2326 87.2183 71.3202 89.2625 73.8428 90.5237Z" fill="#EFEFEF"/>
<path d="M71.6631 91.7415L67.8358 93.9596C65.4002 92.7418 63.3126 90.7412 62.0078 88.3056L65.7047 85.957C67.0094 88.4361 69.1406 90.5237 71.6631 91.7415Z" fill="#EFEFEF"/>
<path d="M78.9255 78.7808L85.4494 82.5211L81.5786 84.7827L75.0547 80.9989L78.9255 78.7808Z" fill="#EFEFEF"/>
<path d="M79.3162 81.4336L85.7965 85.1739L81.9257 87.4355L75.4453 83.6517L79.3162 81.4336Z" fill="#EFEFEF"/>
<path d="M62.7927 81.6948L69.3166 85.4787L65.4457 87.6968L58.9219 83.9564L62.7927 81.6948Z" fill="#EFEFEF"/>
<path d="M83.3235 78.3894C82.5406 81.0424 80.9314 83.4345 78.8003 85.1307L74.625 83.8259C76.7996 82.0428 78.4523 79.6072 79.1917 76.9106L83.3235 78.3894Z" fill="white"/>
<path d="M75.1851 87.0878L72.0536 90.1323C69.3571 89.5669 66.878 88.1317 65.0078 86.131L68.0088 82.9561C69.879 85.0002 72.445 86.4789 75.1851 87.0878Z" fill="white"/>
<path d="M70.0962 63.1672V106.877L56.2656 98.9179V55.1646L56.9615 55.556V98.2656L69.4003 105.442V62.7757L70.0962 63.1672Z" fill="#C9C5BA"/>
<path d="M87.2733 53.2075V96.9609L70.0938 106.877V63.1673L70.7461 62.7759V105.442L86.5774 96.3085V53.5989L87.2733 53.2075Z" fill="#E6E2DB"/>
<g style="mix-blend-mode:screen" opacity="0.5">
<path d="M86.5734 53.5991V96.3087L70.7422 105.442V62.776L86.5734 53.5991Z" fill="#67C7E5"/>
</g>
<g style="mix-blend-mode:multiply" opacity="0.4">
<path d="M69.3998 62.7759V105.442L56.9609 98.2657V55.5562L69.3998 62.7759Z" fill="#3F7CB2"/>
</g>
<path d="M70.0962 63.2539L56.2656 55.2513V49.5103L72.2708 56.2081L70.0962 63.2539Z" fill="#74C247"/>
<path d="M87.2733 53.3377L70.0938 63.254V57.4695L87.2733 47.5532V53.3377Z" fill="#8BC967"/>
<path d="M70.0962 57.4696L56.2656 49.5105L73.4451 39.5942L87.2757 47.5534L70.0962 57.4696Z" fill="#74C247"/>
<path d="M76.0102 46.4223L68.7034 50.6411L67.7031 50.0757L75.0099 45.8569L76.0102 46.4223Z" fill="#74C247"/>
<path d="M74.8349 47.1622L69.4419 50.2501C69.7898 47.0607 68.804 44.0452 66.4844 41.2037L71.8339 38.1157C74.1535 40.9282 75.1539 43.9437 74.8349 47.1622Z" fill="#F9F6F2"/>
</svg>
