<svg width="206" height="49" viewBox="0 0 206 49" fill="none" xmlns="http://www.w3.org/2000/svg">
<path fill-rule="evenodd" clip-rule="evenodd" d="M27.665 18.2928C27.1934 18.7969 26.5997 19.0814 25.8841 19.1464C26.5672 19.1464 27.1527 19.3903 27.6406 19.8782C28.1448 20.3822 28.3969 20.992 28.3969 21.7074L28.4213 27.3416C28.4213 28.057 28.1692 28.6668 27.665 29.1708C27.1771 29.6749 26.5753 29.9269 25.8597 29.9269L6.87966 29.9757L6.85527 16.4635L12.2468 16.4391V16.4879L22.0296 16.4635C22.3061 16.4473 22.5419 16.3497 22.737 16.1708C22.9322 15.9757 23.0054 15.7562 23.0054 15.4879V14.7318C23.0054 14.4635 22.9078 14.244 22.737 14.0489C22.5419 13.87 22.3061 13.7806 22.0296 13.7806H13.8813L0 13.805V8.41475L25.7134 8.36597C26.4452 8.36597 27.0795 8.63426 27.5918 9.14645C28.1042 9.65865 28.3725 10.2928 28.3725 11.0245L28.3969 16.4635C28.3969 17.179 28.153 17.7887 27.665 18.2928ZM23.0298 22.9757C23.0298 22.6668 22.9241 22.3985 22.7127 22.1708C22.485 21.9595 22.2166 21.8538 21.9076 21.8538L12.2712 21.8782V24.5611L21.9076 24.5367C22.2329 24.5367 22.5012 24.4229 22.7127 24.1952C22.9241 23.9838 23.0298 23.7237 23.0298 23.4147V22.9757Z" fill="url(#paint0_linear_4_677)"/>
<path fill-rule="evenodd" clip-rule="evenodd" d="M115.1 47.9756H112.636V39.4635C112.636 39.3659 112.612 39.2765 112.563 39.1952C112.531 39.1139 112.482 39.0407 112.417 38.9756C112.352 38.9106 112.278 38.8618 112.197 38.8293C112.116 38.7968 112.026 38.7805 111.929 38.7805H100.487V36.2927H111.929C112.368 36.2927 112.783 36.3822 113.173 36.561C113.547 36.7236 113.88 36.9431 114.173 37.2196C114.466 37.5122 114.694 37.8537 114.856 38.2439C115.019 38.6342 115.1 39.0407 115.1 39.4635V47.9756ZM102.975 47.9756H100.487V40.9025H102.975V47.9756ZM109.026 47.9756H106.537V40.9025H109.026V47.9756Z" fill="url(#paint1_linear_4_677)"/>
<path fill-rule="evenodd" clip-rule="evenodd" d="M132.86 47.9756H130.372V43.3903H120.711V47.9756H118.247V39.4147C118.247 38.9757 118.328 38.5691 118.491 38.1952C118.637 37.8212 118.857 37.496 119.15 37.2196C119.426 36.9431 119.752 36.7155 120.126 36.5366C120.5 36.374 120.898 36.2927 121.321 36.2927H129.762C130.185 36.2927 130.583 36.374 130.957 36.5366C131.331 36.7155 131.657 36.9431 131.933 37.2196C132.226 37.496 132.454 37.8212 132.616 38.1952C132.779 38.5691 132.86 38.9757 132.86 39.4147V47.9756ZM130.372 40.9025V39.3903C130.372 39.2114 130.315 39.057 130.201 38.9269C130.071 38.813 129.925 38.7561 129.762 38.7561H121.321C121.158 38.7561 121.02 38.813 120.906 38.9269C120.776 39.057 120.711 39.2114 120.711 39.3903V40.9025H130.372Z" fill="#13192B" stroke="#13192B" stroke-width="0.216974"/>
<path d="M153.256 47.9756H147.913L135.984 41.683V40.9025H147.352C147.499 40.9025 147.637 40.8456 147.767 40.7317C147.881 40.6179 147.938 40.4797 147.938 40.3171V39.3659C147.938 39.2033 147.881 39.0651 147.767 38.9513C147.637 38.8374 147.499 38.7805 147.352 38.7805H135.984V36.2927H147.352C147.775 36.2927 148.174 36.374 148.548 36.5366C148.905 36.6992 149.231 36.9187 149.523 37.1952C149.8 37.4878 150.02 37.8131 150.182 38.1708C150.345 38.5448 150.426 38.9431 150.426 39.3659V40.3171C150.426 40.7399 150.345 41.1383 150.182 41.5122C150.02 41.8862 149.8 42.2114 149.523 42.4878C149.231 42.7643 148.905 42.9838 148.548 43.1464C148.174 43.309 147.775 43.3903 147.352 43.3903H144.4L153.256 47.9756Z" fill="#13192B"/>
<path d="M158.257 48H155.793V36.2927H158.257V48ZM169.845 48H167.357V44C167.357 43.8212 167.3 43.6748 167.186 43.561C167.072 43.4472 166.934 43.3903 166.771 43.3903H158.281L165.112 36.3171H168.552L164.112 40.9269H166.771C167.194 40.9269 167.593 41.0082 167.967 41.1708C168.324 41.3334 168.65 41.5529 168.942 41.8293C169.219 42.1057 169.439 42.4309 169.601 42.8049C169.764 43.1789 169.845 43.5773 169.845 44V48Z" fill="#13192B"/>
<path d="M187.141 38.7805H172.967V36.2927H187.141V38.7805ZM187.141 48H172.967V40.9269H187.141V43.3903H175.455V45.5366H187.141V48Z" fill="#13192B"/>
<path d="M204.877 38.7805H190.264V36.2927H204.877V38.7805ZM198.803 48H196.339V40.9269H198.803V48Z" fill="#13192B"/>
<path d="M38.5702 21.9023L38.5946 24.5852L54.7203 24.5365L54.7447 29.9267L33.2275 29.9755L33.1787 16.5365L54.6959 16.4877L54.7203 21.8779L38.5702 21.9023ZM54.6715 8.39014V13.7804L33.1543 13.8292V8.46331L54.6715 8.39014Z" fill="#13192B"/>
<path d="M79.9705 8.36597L80.0193 29.8538L74.6278 29.8781L63.8448 16.4635L63.8692 29.9025L58.502 29.9269L58.4532 8.41475L63.8204 8.39036L74.6278 21.8294L74.579 8.36597H79.9705Z" fill="#13192B"/>
<path d="M105.196 8.29272L105.269 29.8049H99.8773L89.0943 16.3903L89.1187 29.8537H83.7272L83.6784 8.34151H89.0699L99.8529 21.7561L99.8285 8.31712L105.196 8.29272Z" fill="#13192B"/>
<path d="M114.319 21.7317L114.344 24.3902L130.47 24.3658V29.7317L108.977 29.8049L108.952 16.3415L130.445 16.2927L130.47 21.6829L114.319 21.7317ZM130.421 8.2439V13.6097L108.928 13.6829L108.904 8.29268L130.421 8.2439Z" fill="#13192B"/>
<path fill-rule="evenodd" clip-rule="evenodd" d="M155.036 18.0975C154.565 18.6015 153.971 18.878 153.255 18.9267C153.938 18.9511 154.524 19.195 155.012 19.6828C155.5 20.1869 155.744 20.7885 155.744 21.4877L155.768 27.1219C155.768 27.8373 155.524 28.4471 155.036 28.9511C154.524 29.4389 153.938 29.7072 153.231 29.7072L134.275 29.756L134.226 16.2438H139.642V16.2682L149.401 16.2438C149.677 16.2438 149.905 16.1544 150.084 15.9755C150.279 15.7804 150.377 15.5446 150.377 15.2682V14.5365C150.377 14.2601 150.279 14.0324 150.084 13.8536C149.889 13.6747 149.661 13.5853 149.401 13.5853H141.252L134.226 13.6097V8.21943L153.06 8.17065C153.792 8.17065 154.426 8.43895 154.939 8.95114C155.475 9.46334 155.719 10.0975 155.719 10.8292L155.744 16.2682C155.744 16.9837 155.508 17.5934 155.036 18.0975ZM150.401 22.756C150.401 22.4471 150.287 22.1869 150.059 21.9755C149.848 21.7479 149.588 21.6341 149.279 21.6341L139.642 21.6585V24.3414L149.279 24.317C149.588 24.317 149.848 24.2113 150.059 23.9999C150.287 23.7885 150.401 23.5202 150.401 23.195V22.756Z" fill="#13192B"/>
<path d="M205.976 10.3169L193.924 10.9022L205.976 11.4388V13.4388L191.094 13.4632C190.753 13.4632 190.436 13.5852 190.216 13.8291C189.948 14.073 189.85 14.3657 189.85 14.7071V14.8778C189.85 15.2356 189.972 15.5364 190.216 15.7803C190.484 16.0242 190.777 16.1461 191.119 16.1461L200.779 16.1217C201.723 16.1217 202.593 16.3575 203.39 16.8291C204.17 17.2925 204.805 17.9266 205.293 18.7071C205.756 19.4876 206 20.3657 206 21.3413V24.3169C206 25.2681 205.781 26.1705 205.293 26.951C204.821 27.7478 204.187 28.3819 203.39 28.8535C202.609 29.325 201.731 29.5608 200.755 29.5608L184.507 29.6095L184.483 24.2193L199.291 24.1949C199.633 24.1949 199.95 24.073 200.218 23.8047C200.479 23.5445 200.609 23.2274 200.609 22.8535C200.609 22.4795 200.479 22.1624 200.218 21.9022C199.958 21.6421 199.641 21.512 199.267 21.512L189.313 21.5364C188.435 21.5364 187.622 21.325 186.874 20.9022C186.142 20.4632 185.556 19.8778 185.117 19.1461C184.694 18.4144 184.475 17.6014 184.458 16.7071V13.2193C184.458 12.2681 184.678 11.4144 185.142 10.6339C185.597 9.86972 186.215 9.25184 186.996 8.78029C187.76 8.32501 188.614 8.09736 189.557 8.09736L205.951 8.04858L205.976 10.3169Z" fill="#13192B"/>
<path d="M174.553 7.14634C172.138 9.53658 169.43 8.75609 168.917 8.26829C168.43 7.75609 167.722 4.97561 170.04 2.63414C171.601 1.08943 173.984 0.211382 177.188 0C177.025 3.15447 176.147 5.53658 174.553 7.14634Z" fill="url(#paint2_linear_4_677)"/>
<path fill-rule="evenodd" clip-rule="evenodd" d="M181.458 23.5368C178.945 28.9758 174.285 31.927 170.284 29.3417C166.283 31.927 161.599 28.9758 159.086 23.5368C157.696 20.5124 157.476 16.049 159.013 13.0246C159.892 11.2441 161.306 10.1222 162.746 9.60996C165.063 8.82947 167.942 9.36606 170.284 11.1222C172.602 9.36606 175.505 8.82947 177.798 9.60996C179.262 10.1222 180.653 11.2441 181.531 13.0246C183.068 16.049 182.873 20.5124 181.458 23.5368ZM165.259 25.61C163.405 23.8051 162.209 21.5856 161.868 19.3904C161.526 16.9514 162.282 14.5124 163.868 12.9758C164.185 12.6587 164.21 12.1465 163.892 11.8295C163.575 11.488 163.063 11.488 162.746 11.8051C160.794 13.6831 159.843 16.6831 160.257 19.6343C160.648 22.1709 162.014 24.7075 164.136 26.7807C164.283 26.927 164.502 27.0002 164.698 27.0002C164.917 27.0002 165.112 26.927 165.283 26.7563C165.6 26.4392 165.6 25.927 165.259 25.61Z" fill="url(#paint3_linear_4_677)"/>
<path d="M21.3462 36.6584C22.5453 36.6584 23.5174 35.6865 23.5174 34.4876C23.5174 33.2888 22.5453 32.3169 21.3462 32.3169C20.147 32.3169 19.1749 33.2888 19.1749 34.4876C19.1749 35.6865 20.147 36.6584 21.3462 36.6584Z" fill="url(#paint4_linear_4_677)"/>
<path d="M13.2954 36.6584C14.4946 36.6584 15.4667 35.6865 15.4667 34.4876C15.4667 33.2888 14.4946 32.3169 13.2954 32.3169C12.0963 32.3169 11.1242 33.2888 11.1242 34.4876C11.1242 35.6865 12.0963 36.6584 13.2954 36.6584Z" fill="url(#paint5_linear_4_677)"/>
<path style="mix-blend-mode:screen" d="M171.064 19.5609C171.723 23.7073 172.089 27.1463 171.869 27.2682C171.674 27.3902 170.991 24.1219 170.357 20C169.699 15.8536 169.333 12.3902 169.528 12.2683C169.723 12.1707 170.406 15.4146 171.064 19.5609Z" fill="url(#paint6_radial_4_677)"/>
<path style="mix-blend-mode:screen" d="M170.967 19.4147C171.479 22.6098 171.747 25.244 171.576 25.2683C171.406 25.2927 170.869 22.7074 170.357 19.5122C169.869 16.2927 169.576 13.6586 169.747 13.6342C169.918 13.6098 170.455 16.1952 170.967 19.4147Z" fill="url(#paint7_radial_4_677)"/>
<path style="mix-blend-mode:screen" d="M170.918 19.4147C171.333 22.0733 171.552 24.244 171.43 24.2684C171.284 24.2928 170.845 22.1464 170.406 19.4879C169.991 16.8294 169.772 14.6586 169.894 14.6342C170.04 14.6098 170.479 16.7562 170.918 19.4147Z" fill="url(#paint8_radial_4_677)"/>
<path style="mix-blend-mode:screen" d="M170.918 20.1464C166.966 20.7805 163.648 21.0976 163.526 20.9025C163.404 20.683 166.527 20.0245 170.504 19.3903C174.456 18.7805 177.774 18.4391 177.871 18.6586C177.993 18.8537 174.87 19.5366 170.918 20.1464Z" fill="url(#paint9_radial_4_677)"/>
<path style="mix-blend-mode:screen" d="M171.065 20.0488C167.991 20.5366 165.479 20.7805 165.454 20.6097C165.43 20.439 167.894 19.9024 170.968 19.4146C174.042 18.9268 176.554 18.6829 176.579 18.8536C176.603 19.0244 174.139 19.561 171.065 20.0488Z" fill="url(#paint10_radial_4_677)"/>
<path style="mix-blend-mode:screen" d="M171.064 20C168.502 20.3902 166.429 20.6097 166.404 20.4634C166.38 20.317 168.429 19.878 170.966 19.4878C173.528 19.0731 175.601 18.8536 175.626 19C175.65 19.1463 173.601 19.5853 171.064 20Z" fill="url(#paint11_radial_4_677)"/>
<path style="mix-blend-mode:screen" d="M170.991 19.8538C169.333 22.244 167.844 24.1465 167.698 24.0977C167.527 24.0733 168.747 22.0977 170.43 19.683C172.089 17.2928 173.553 15.3904 173.724 15.4391C173.87 15.4879 172.65 17.4635 170.991 19.8538Z" fill="url(#paint12_radial_4_677)"/>
<path style="mix-blend-mode:screen" d="M171.016 19.7314C169.723 21.585 168.601 23.0241 168.503 22.9509C168.405 22.8777 169.381 21.3167 170.674 19.4631C171.943 17.6094 173.089 16.146 173.163 16.2192C173.26 16.2924 172.309 17.8777 171.016 19.7314Z" fill="url(#paint13_radial_4_677)"/>
<path style="mix-blend-mode:screen" d="M170.991 19.7073C169.918 21.2439 168.991 22.439 168.894 22.3902C168.82 22.3171 169.625 21.0244 170.698 19.4878C171.772 17.9512 172.698 16.7317 172.772 16.8049C172.845 16.8537 172.064 18.1707 170.991 19.7073Z" fill="url(#paint14_radial_4_677)"/>
<path style="mix-blend-mode:screen" d="M170.626 20.073C168.308 18.2926 166.478 16.7316 166.503 16.5609C166.552 16.4145 168.455 17.7072 170.772 19.4877C173.09 21.2438 174.944 22.8047 174.895 22.9755C174.871 23.1462 172.943 21.8535 170.626 20.073Z" fill="url(#paint15_radial_4_677)"/>
<path style="mix-blend-mode:screen" d="M170.747 20.0973C168.967 18.7315 167.552 17.5364 167.625 17.4388C167.698 17.3412 169.21 18.3656 171.016 19.7315C172.797 21.0973 174.212 22.2925 174.138 22.39C174.065 22.4876 172.553 21.4632 170.747 20.0973Z" fill="url(#paint16_radial_4_677)"/>
<path style="mix-blend-mode:screen" d="M170.772 20.0732C169.284 18.9269 168.113 17.9513 168.186 17.8537C168.235 17.7806 169.503 18.6342 170.991 19.7562C172.48 20.9025 173.651 21.9025 173.577 21.9757C173.529 22.0489 172.26 21.1952 170.772 20.0732Z" fill="url(#paint17_radial_4_677)"/>
<path style="mix-blend-mode:screen" d="M174.187 19.2439C174.455 21.3171 173.064 23.2927 171.064 23.6342C169.063 24 167.234 22.6098 166.941 20.561C166.648 18.4878 168.039 16.5366 170.039 16.1708C172.04 15.8049 173.894 17.1952 174.187 19.2439Z" fill="url(#paint18_radial_4_677)"/>
<path style="mix-blend-mode:screen" d="M173.432 19.2929C173.676 20.8782 172.627 22.3904 171.065 22.6343C169.504 22.8782 168.04 21.7807 167.796 20.1709C167.552 18.5856 168.601 17.0978 170.163 16.8539C171.7 16.61 173.164 17.6831 173.432 19.2929Z" fill="url(#paint19_radial_4_677)"/>
<path style="mix-blend-mode:screen" d="M172.943 19.3657C173.163 20.6828 172.285 21.9267 170.992 22.1218C169.699 22.3413 168.479 21.4145 168.284 20.0974C168.064 18.7803 168.942 17.5364 170.235 17.3413C171.528 17.1218 172.724 18.0486 172.943 19.3657Z" fill="url(#paint20_radial_4_677)"/>
<defs>
<linearGradient id="paint0_linear_4_677" x1="22.737" y1="719.327" x2="3333.82" y2="719.327" gradientUnits="userSpaceOnUse">
<stop stop-color="#74C247"/>
<stop offset="0.5" stop-color="#28873D"/>
<stop offset="1" stop-color="#74C247"/>
</linearGradient>
<linearGradient id="paint1_linear_4_677" x1="6131.35" y1="1758.36" x2="7006.68" y2="1758.36" gradientUnits="userSpaceOnUse">
<stop stop-color="#74C247"/>
<stop offset="0.5" stop-color="#28873D"/>
<stop offset="1" stop-color="#74C247"/>
</linearGradient>
<linearGradient id="paint2_linear_4_677" x1="6251.05" y1="-11.4276" x2="6543" y2="-11.4276" gradientUnits="userSpaceOnUse">
<stop stop-color="#74C247"/>
<stop offset="0.5" stop-color="#28873D"/>
<stop offset="1" stop-color="#74C247"/>
</linearGradient>
<linearGradient id="paint3_linear_4_677" x1="16185.6" y1="783.154" x2="18584.4" y2="783.154" gradientUnits="userSpaceOnUse">
<stop stop-color="#74C247"/>
<stop offset="0.5" stop-color="#28873D"/>
<stop offset="1" stop-color="#74C247"/>
</linearGradient>
<linearGradient id="paint4_linear_4_677" x1="363.968" y1="601.048" x2="441.698" y2="601.048" gradientUnits="userSpaceOnUse">
<stop stop-color="#74C247"/>
<stop offset="0.5" stop-color="#28873D"/>
<stop offset="1" stop-color="#74C247"/>
</linearGradient>
<linearGradient id="paint5_linear_4_677" x1="212.615" y1="601.048" x2="289.912" y2="601.048" gradientUnits="userSpaceOnUse">
<stop stop-color="#74C247"/>
<stop offset="0.5" stop-color="#28873D"/>
<stop offset="1" stop-color="#74C247"/>
</linearGradient>
<radialGradient id="paint6_radial_4_677" cx="0" cy="0" r="1" gradientUnits="userSpaceOnUse" gradientTransform="translate(1891.08 1238.21) scale(3.68652 22.5082)">
<stop stop-color="#7EC647"/>
<stop offset="1" stop-color="#0C0D0D"/>
</radialGradient>
<radialGradient id="paint7_radial_4_677" cx="0" cy="0" r="1" gradientUnits="userSpaceOnUse" gradientTransform="translate(1521.19 949.046) scale(2.12256 12.7979)">
<stop stop-color="#46BA4A"/>
<stop offset="1" stop-color="#0C0D0D"/>
</radialGradient>
<radialGradient id="paint8_radial_4_677" cx="0" cy="0" r="1" gradientUnits="userSpaceOnUse" gradientTransform="translate(1293.08 789.252) scale(1.44332 8.6711)">
<stop stop-color="#75C447"/>
<stop offset="1" stop-color="#0C0D0D"/>
</radialGradient>
<radialGradient id="paint9_radial_4_677" cx="0" cy="0" r="1" gradientUnits="userSpaceOnUse" gradientTransform="translate(10216.9 212.048) scale(22.9628 3.78861)">
<stop stop-color="#7EC647"/>
<stop offset="1" stop-color="#0C0D0D"/>
</radialGradient>
<radialGradient id="paint10_radial_4_677" cx="0" cy="0" r="1" gradientUnits="userSpaceOnUse" gradientTransform="translate(7972.92 170.775) scale(12.2374 2.05121)">
<stop stop-color="#46BA4A"/>
<stop offset="1" stop-color="#0C0D0D"/>
</radialGradient>
<radialGradient id="paint11_radial_4_677" cx="0" cy="0" r="1" gradientUnits="userSpaceOnUse" gradientTransform="translate(6638.48 145.637) scale(9.22211 1.55439)">
<stop stop-color="#75C447"/>
<stop offset="1" stop-color="#0C0D0D"/>
</radialGradient>
<radialGradient id="paint12_radial_4_677" cx="0" cy="0" r="1" gradientUnits="userSpaceOnUse" gradientTransform="translate(4408.28 722.99) scale(7.2644 10.3924)">
<stop stop-color="#7EC647"/>
<stop offset="1" stop-color="#0C0D0D"/>
</radialGradient>
<radialGradient id="paint13_radial_4_677" cx="0" cy="0" r="1" gradientUnits="userSpaceOnUse" gradientTransform="translate(3444.9 561.24) scale(4.20591 6.0633)">
<stop stop-color="#46BA4A"/>
<stop offset="1" stop-color="#0C0D0D"/>
</radialGradient>
<radialGradient id="paint14_radial_4_677" cx="0" cy="0" r="1" gradientUnits="userSpaceOnUse" gradientTransform="translate(2894.36 469.027) scale(2.72119 3.91295)">
<stop stop-color="#75C447"/>
<stop offset="1" stop-color="#0C0D0D"/>
</radialGradient>
<radialGradient id="paint15_radial_4_677" cx="0" cy="0" r="1" gradientUnits="userSpaceOnUse" gradientTransform="translate(6046.08 542.784) scale(10.0721 7.72927)">
<stop stop-color="#7EC647"/>
<stop offset="1" stop-color="#0C0D0D"/>
</radialGradient>
<radialGradient id="paint16_radial_4_677" cx="0" cy="0" r="1" gradientUnits="userSpaceOnUse" gradientTransform="translate(4739.5 425.976) scale(5.86723 4.46767)">
<stop stop-color="#46BA4A"/>
<stop offset="1" stop-color="#0C0D0D"/>
</radialGradient>
<radialGradient id="paint17_radial_4_677" cx="0" cy="0" r="1" gradientUnits="userSpaceOnUse" gradientTransform="translate(3953.81 357.806) scale(3.77861 2.89149)">
<stop stop-color="#75C447"/>
<stop offset="1" stop-color="#0C0D0D"/>
</radialGradient>
<radialGradient id="paint18_radial_4_677" cx="0" cy="0" r="1" gradientUnits="userSpaceOnUse" gradientTransform="translate(5288.54 639.217) scale(103.179 106.883)">
<stop stop-color="#7EC647"/>
<stop offset="1" stop-color="#0C0D0D"/>
</radialGradient>
<radialGradient id="paint19_radial_4_677" cx="0" cy="0" r="1" gradientUnits="userSpaceOnUse" gradientTransform="translate(4162.46 493.506) scale(62.1943 63.7532)">
<stop stop-color="#46BA4A"/>
<stop offset="1" stop-color="#0C0D0D"/>
</radialGradient>
<radialGradient id="paint20_radial_4_677" cx="0" cy="0" r="1" gradientUnits="userSpaceOnUse" gradientTransform="translate(3477.58 412.171) scale(42.5425 43.6044)">
<stop stop-color="#75C447"/>
<stop offset="1" stop-color="#0C0D0D"/>
</radialGradient>
</defs>
</svg>
