<svg width="193" height="58" viewBox="0 0 193 58" fill="none" xmlns="http://www.w3.org/2000/svg">
<rect width="193" height="58" rx="15" fill="#63697E"/>
<path d="M49.5746 30.0647C49.5566 27.001 50.9447 24.692 53.7479 22.9895C52.1801 20.7434 49.8082 19.508 46.6816 19.2699C43.7213 19.0363 40.4824 20.9949 39.2965 20.9949C38.0432 20.9949 35.1771 19.3508 32.9221 19.3508C28.2682 19.4227 23.3223 23.0613 23.3223 30.4645C23.3223 32.6521 23.7221 34.9117 24.5217 37.2387C25.5908 40.3023 29.4451 47.8088 33.4656 47.6875C35.568 47.6381 37.0549 46.1961 39.7906 46.1961C42.4455 46.1961 43.8201 47.6875 46.165 47.6875C50.2215 47.6291 53.7074 40.8055 54.7227 37.7328C49.2826 35.1678 49.5746 30.2219 49.5746 30.0647ZM44.8533 16.3635C47.1309 13.6592 46.9242 11.1975 46.8568 10.3125C44.8443 10.4293 42.5174 11.6826 41.1922 13.2234C39.7322 14.8766 38.8742 16.9205 39.0584 19.225C41.2326 19.3912 43.2182 18.2727 44.8533 16.3635Z" fill="white"/>
<path d="M80.2254 39.872H75.7774L75.0414 42H72.6894L76.7054 30.816H79.3134L83.3294 42H80.9614L80.2254 39.872ZM79.6174 38.08L78.0014 33.408L76.3854 38.08H79.6174ZM87.0706 34.416C87.3586 34.0107 87.7532 33.6747 88.2546 33.408C88.7666 33.1307 89.3479 32.992 89.9986 32.992C90.7559 32.992 91.4386 33.1787 92.0466 33.552C92.6652 33.9253 93.1506 34.4587 93.5026 35.152C93.8652 35.8347 94.0466 36.6293 94.0466 37.536C94.0466 38.4427 93.8652 39.248 93.5026 39.952C93.1506 40.6453 92.6652 41.184 92.0466 41.568C91.4386 41.952 90.7559 42.144 89.9986 42.144C89.3479 42.144 88.7719 42.0107 88.2706 41.744C87.7799 41.4773 87.3799 41.1413 87.0706 40.736V46.224H84.8306V33.136H87.0706V34.416ZM91.7586 37.536C91.7586 37.0027 91.6466 36.544 91.4226 36.16C91.2092 35.7653 90.9212 35.4667 90.5586 35.264C90.2066 35.0613 89.8226 34.96 89.4066 34.96C89.0012 34.96 88.6172 35.0667 88.2546 35.28C87.9026 35.4827 87.6146 35.7813 87.3906 36.176C87.1772 36.5707 87.0706 37.0347 87.0706 37.568C87.0706 38.1013 87.1772 38.5653 87.3906 38.96C87.6146 39.3547 87.9026 39.6587 88.2546 39.872C88.6172 40.0747 89.0012 40.176 89.4066 40.176C89.8226 40.176 90.2066 40.0693 90.5586 39.856C90.9212 39.6427 91.2092 39.3387 91.4226 38.944C91.6466 38.5493 91.7586 38.08 91.7586 37.536ZM97.9143 34.416C98.2023 34.0107 98.597 33.6747 99.0983 33.408C99.6103 33.1307 100.192 32.992 100.842 32.992C101.6 32.992 102.282 33.1787 102.89 33.552C103.509 33.9253 103.994 34.4587 104.346 35.152C104.709 35.8347 104.89 36.6293 104.89 37.536C104.89 38.4427 104.709 39.248 104.346 39.952C103.994 40.6453 103.509 41.184 102.89 41.568C102.282 41.952 101.6 42.144 100.842 42.144C100.192 42.144 99.6156 42.0107 99.1143 41.744C98.6236 41.4773 98.2236 41.1413 97.9143 40.736V46.224H95.6743V33.136H97.9143V34.416ZM102.602 37.536C102.602 37.0027 102.49 36.544 102.266 36.16C102.053 35.7653 101.765 35.4667 101.402 35.264C101.05 35.0613 100.666 34.96 100.25 34.96C99.845 34.96 99.461 35.0667 99.0983 35.28C98.7463 35.4827 98.4583 35.7813 98.2343 36.176C98.021 36.5707 97.9143 37.0347 97.9143 37.568C97.9143 38.1013 98.021 38.5653 98.2343 38.96C98.4583 39.3547 98.7463 39.6587 99.0983 39.872C99.461 40.0747 99.845 40.176 100.25 40.176C100.666 40.176 101.05 40.0693 101.402 39.856C101.765 39.6427 102.053 39.3387 102.266 38.944C102.49 38.5493 102.602 38.08 102.602 37.536ZM114.187 42.112C113.408 42.112 112.704 41.9787 112.075 41.712C111.456 41.4453 110.965 41.0613 110.603 40.56C110.24 40.0587 110.053 39.4667 110.043 38.784H112.443C112.475 39.2427 112.635 39.6053 112.923 39.872C113.221 40.1387 113.627 40.272 114.139 40.272C114.661 40.272 115.072 40.1493 115.371 39.904C115.669 39.648 115.819 39.3173 115.819 38.912C115.819 38.5813 115.717 38.3093 115.515 38.096C115.312 37.8827 115.056 37.7173 114.747 37.6C114.448 37.472 114.032 37.3333 113.499 37.184C112.773 36.9707 112.181 36.7627 111.723 36.56C111.275 36.3467 110.885 36.032 110.555 35.616C110.235 35.1893 110.075 34.624 110.075 33.92C110.075 33.2587 110.24 32.6827 110.571 32.192C110.901 31.7013 111.365 31.328 111.963 31.072C112.56 30.8053 113.243 30.672 114.011 30.672C115.163 30.672 116.096 30.9547 116.811 31.52C117.536 32.0747 117.936 32.8533 118.011 33.856H115.547C115.525 33.472 115.36 33.1573 115.051 32.912C114.752 32.656 114.352 32.528 113.851 32.528C113.413 32.528 113.061 32.64 112.795 32.864C112.539 33.088 112.411 33.4133 112.411 33.84C112.411 34.1387 112.507 34.3893 112.699 34.592C112.901 34.784 113.147 34.944 113.435 35.072C113.733 35.1893 114.149 35.328 114.683 35.488C115.408 35.7013 116 35.9147 116.459 36.128C116.917 36.3413 117.312 36.6613 117.643 37.088C117.973 37.5147 118.139 38.0747 118.139 38.768C118.139 39.3653 117.984 39.92 117.675 40.432C117.365 40.944 116.912 41.3547 116.315 41.664C115.717 41.9627 115.008 42.112 114.187 42.112ZM122.689 34.976V39.264C122.689 39.5627 122.758 39.7813 122.897 39.92C123.046 40.048 123.291 40.112 123.633 40.112H124.673V42H123.265C121.377 42 120.433 41.0827 120.433 39.248V34.976H119.377V33.136H120.433V30.944H122.689V33.136H124.673V34.976H122.689ZM130.22 42.144C129.366 42.144 128.598 41.9573 127.916 41.584C127.233 41.2 126.694 40.6613 126.3 39.968C125.916 39.2747 125.724 38.4747 125.724 37.568C125.724 36.6613 125.921 35.8613 126.316 35.168C126.721 34.4747 127.27 33.9413 127.964 33.568C128.657 33.184 129.43 32.992 130.284 32.992C131.137 32.992 131.91 33.184 132.604 33.568C133.297 33.9413 133.841 34.4747 134.236 35.168C134.641 35.8613 134.844 36.6613 134.844 37.568C134.844 38.4747 134.636 39.2747 134.22 39.968C133.814 40.6613 133.26 41.2 132.556 41.584C131.862 41.9573 131.084 42.144 130.22 42.144ZM130.22 40.192C130.625 40.192 131.004 40.096 131.356 39.904C131.718 39.7013 132.006 39.4027 132.22 39.008C132.433 38.6133 132.54 38.1333 132.54 37.568C132.54 36.7253 132.316 36.08 131.868 35.632C131.43 35.1733 130.892 34.944 130.252 34.944C129.612 34.944 129.073 35.1733 128.636 35.632C128.209 36.08 127.996 36.7253 127.996 37.568C127.996 38.4107 128.204 39.0613 128.62 39.52C129.046 39.968 129.58 40.192 130.22 40.192ZM138.727 34.512C139.015 34.0427 139.388 33.6747 139.847 33.408C140.316 33.1413 140.849 33.008 141.447 33.008V35.36H140.855C140.151 35.36 139.617 35.5253 139.255 35.856C138.903 36.1867 138.727 36.7627 138.727 37.584V42H136.487V33.136H138.727V34.512ZM151.196 37.376C151.196 37.696 151.174 37.984 151.132 38.24H144.652C144.705 38.88 144.929 39.3813 145.324 39.744C145.718 40.1067 146.204 40.288 146.78 40.288C147.612 40.288 148.204 39.9307 148.556 39.216H150.972C150.716 40.0693 150.225 40.7733 149.5 41.328C148.774 41.872 147.884 42.144 146.828 42.144C145.974 42.144 145.206 41.9573 144.524 41.584C143.852 41.2 143.324 40.6613 142.94 39.968C142.566 39.2747 142.38 38.4747 142.38 37.568C142.38 36.6507 142.566 35.8453 142.94 35.152C143.313 34.4587 143.836 33.9253 144.508 33.552C145.18 33.1787 145.953 32.992 146.828 32.992C147.67 32.992 148.422 33.1733 149.084 33.536C149.756 33.8987 150.273 34.416 150.636 35.088C151.009 35.7493 151.196 36.512 151.196 37.376ZM148.876 36.736C148.865 36.16 148.657 35.7013 148.252 35.36C147.846 35.008 147.35 34.832 146.764 34.832C146.209 34.832 145.74 35.0027 145.356 35.344C144.982 35.6747 144.753 36.1387 144.668 36.736H148.876Z" fill="white"/>
<path d="M75.6042 13.636C76.5162 13.636 77.3042 13.808 77.9682 14.152C78.6402 14.488 79.1522 14.972 79.5042 15.604C79.8642 16.236 80.0442 16.98 80.0442 17.836C80.0442 18.692 79.8642 19.436 79.5042 20.068C79.1522 20.692 78.6402 21.172 77.9682 21.508C77.3042 21.836 76.5162 22 75.6042 22H73.0002V13.636H75.6042ZM75.6042 21.1C76.6842 21.1 77.5082 20.816 78.0762 20.248C78.6442 19.672 78.9282 18.868 78.9282 17.836C78.9282 16.796 78.6402 15.984 78.0642 15.4C77.4962 14.816 76.6762 14.524 75.6042 14.524H74.0922V21.1H75.6042ZM84.3525 22.108C83.7365 22.108 83.1765 21.968 82.6725 21.688C82.1765 21.408 81.7845 21.012 81.4965 20.5C81.2165 19.98 81.0765 19.38 81.0765 18.7C81.0765 18.028 81.2205 17.436 81.5085 16.924C81.8045 16.404 82.2045 16.008 82.7085 15.736C83.2125 15.456 83.7765 15.316 84.4005 15.316C85.0245 15.316 85.5885 15.456 86.0925 15.736C86.5965 16.008 86.9925 16.4 87.2805 16.912C87.5765 17.424 87.7245 18.02 87.7245 18.7C87.7245 19.38 87.5725 19.98 87.2685 20.5C86.9725 21.012 86.5685 21.408 86.0565 21.688C85.5445 21.968 84.9765 22.108 84.3525 22.108ZM84.3525 21.148C84.7445 21.148 85.1125 21.056 85.4565 20.872C85.8005 20.688 86.0765 20.412 86.2845 20.044C86.5005 19.676 86.6085 19.228 86.6085 18.7C86.6085 18.172 86.5045 17.724 86.2965 17.356C86.0885 16.988 85.8165 16.716 85.4805 16.54C85.1445 16.356 84.7805 16.264 84.3885 16.264C83.9885 16.264 83.6205 16.356 83.2845 16.54C82.9565 16.716 82.6925 16.988 82.4925 17.356C82.2925 17.724 82.1925 18.172 82.1925 18.7C82.1925 19.236 82.2885 19.688 82.4805 20.056C82.6805 20.424 82.9445 20.7 83.2725 20.884C83.6005 21.06 83.9605 21.148 84.3525 21.148ZM97.9203 15.424L95.8683 22H94.7403L93.1563 16.78L91.5723 22H90.4443L88.3803 15.424H89.4963L91.0083 20.944L92.6403 15.424H93.7563L95.3523 20.956L96.8403 15.424H97.9203ZM102.208 15.304C103.008 15.304 103.656 15.548 104.152 16.036C104.648 16.516 104.896 17.212 104.896 18.124V22H103.816V18.28C103.816 17.624 103.652 17.124 103.324 16.78C102.996 16.428 102.548 16.252 101.98 16.252C101.404 16.252 100.944 16.432 100.6 16.792C100.264 17.152 100.096 17.676 100.096 18.364V22H99.0041V15.424H100.096V16.36C100.312 16.024 100.604 15.764 100.972 15.58C101.348 15.396 101.76 15.304 102.208 15.304ZM107.772 13.12V22H106.68V13.12H107.772ZM112.501 22.108C111.885 22.108 111.325 21.968 110.821 21.688C110.325 21.408 109.933 21.012 109.645 20.5C109.365 19.98 109.225 19.38 109.225 18.7C109.225 18.028 109.369 17.436 109.657 16.924C109.953 16.404 110.353 16.008 110.857 15.736C111.361 15.456 111.925 15.316 112.549 15.316C113.173 15.316 113.737 15.456 114.241 15.736C114.745 16.008 115.141 16.4 115.429 16.912C115.725 17.424 115.873 18.02 115.873 18.7C115.873 19.38 115.721 19.98 115.417 20.5C115.121 21.012 114.717 21.408 114.205 21.688C113.693 21.968 113.125 22.108 112.501 22.108ZM112.501 21.148C112.893 21.148 113.261 21.056 113.605 20.872C113.949 20.688 114.225 20.412 114.433 20.044C114.649 19.676 114.757 19.228 114.757 18.7C114.757 18.172 114.653 17.724 114.445 17.356C114.237 16.988 113.965 16.716 113.629 16.54C113.293 16.356 112.929 16.264 112.537 16.264C112.137 16.264 111.769 16.356 111.433 16.54C111.105 16.716 110.841 16.988 110.641 17.356C110.441 17.724 110.341 18.172 110.341 18.7C110.341 19.236 110.437 19.688 110.629 20.056C110.829 20.424 111.093 20.7 111.421 20.884C111.749 21.06 112.109 21.148 112.501 21.148ZM116.901 18.688C116.901 18.016 117.037 17.428 117.309 16.924C117.581 16.412 117.953 16.016 118.425 15.736C118.905 15.456 119.437 15.316 120.021 15.316C120.597 15.316 121.097 15.44 121.521 15.688C121.945 15.936 122.261 16.248 122.469 16.624V15.424H123.573V22H122.469V20.776C122.253 21.16 121.929 21.48 121.497 21.736C121.073 21.984 120.577 22.108 120.009 22.108C119.425 22.108 118.897 21.964 118.425 21.676C117.953 21.388 117.581 20.984 117.309 20.464C117.037 19.944 116.901 19.352 116.901 18.688ZM122.469 18.7C122.469 18.204 122.369 17.772 122.169 17.404C121.969 17.036 121.697 16.756 121.353 16.564C121.017 16.364 120.645 16.264 120.237 16.264C119.829 16.264 119.457 16.36 119.121 16.552C118.785 16.744 118.517 17.024 118.317 17.392C118.117 17.76 118.017 18.192 118.017 18.688C118.017 19.192 118.117 19.632 118.317 20.008C118.517 20.376 118.785 20.66 119.121 20.86C119.457 21.052 119.829 21.148 120.237 21.148C120.645 21.148 121.017 21.052 121.353 20.86C121.697 20.66 121.969 20.376 122.169 20.008C122.369 19.632 122.469 19.196 122.469 18.7ZM125.01 18.688C125.01 18.016 125.146 17.428 125.418 16.924C125.69 16.412 126.062 16.016 126.534 15.736C127.014 15.456 127.55 15.316 128.142 15.316C128.654 15.316 129.13 15.436 129.57 15.676C130.01 15.908 130.346 16.216 130.578 16.6V13.12H131.682V22H130.578V20.764C130.362 21.156 130.042 21.48 129.618 21.736C129.194 21.984 128.698 22.108 128.13 22.108C127.546 22.108 127.014 21.964 126.534 21.676C126.062 21.388 125.69 20.984 125.418 20.464C125.146 19.944 125.01 19.352 125.01 18.688ZM130.578 18.7C130.578 18.204 130.478 17.772 130.278 17.404C130.078 17.036 129.806 16.756 129.462 16.564C129.126 16.364 128.754 16.264 128.346 16.264C127.938 16.264 127.566 16.36 127.23 16.552C126.894 16.744 126.626 17.024 126.426 17.392C126.226 17.76 126.126 18.192 126.126 18.688C126.126 19.192 126.226 19.632 126.426 20.008C126.626 20.376 126.894 20.66 127.23 20.86C127.566 21.052 127.938 21.148 128.346 21.148C128.754 21.148 129.126 21.052 129.462 20.86C129.806 20.66 130.078 20.376 130.278 20.008C130.478 19.632 130.578 19.196 130.578 18.7ZM140.915 17.692C141.219 17.74 141.495 17.864 141.743 18.064C141.999 18.264 142.199 18.512 142.343 18.808C142.495 19.104 142.571 19.42 142.571 19.756C142.571 20.18 142.463 20.564 142.247 20.908C142.031 21.244 141.715 21.512 141.299 21.712C140.891 21.904 140.407 22 139.847 22H136.727V13.636H139.727C140.295 13.636 140.779 13.732 141.179 13.924C141.579 14.108 141.879 14.36 142.079 14.68C142.279 15 142.379 15.36 142.379 15.76C142.379 16.256 142.243 16.668 141.971 16.996C141.707 17.316 141.355 17.548 140.915 17.692ZM137.819 17.248H139.655C140.167 17.248 140.563 17.128 140.843 16.888C141.123 16.648 141.263 16.316 141.263 15.892C141.263 15.468 141.123 15.136 140.843 14.896C140.563 14.656 140.159 14.536 139.631 14.536H137.819V17.248ZM139.751 21.1C140.295 21.1 140.719 20.972 141.023 20.716C141.327 20.46 141.479 20.104 141.479 19.648C141.479 19.184 141.319 18.82 140.999 18.556C140.679 18.284 140.251 18.148 139.715 18.148H137.819V21.1H139.751ZM149.75 15.424L145.79 25.096H144.662L145.958 21.928L143.306 15.424H144.518L146.582 20.752L148.622 15.424H149.75Z" fill="white"/>
</svg>
