<svg width="206" height="49" viewBox="0 0 206 49" fill="none" xmlns="http://www.w3.org/2000/svg">
<path fill-rule="evenodd" clip-rule="evenodd" d="M27.665 18.293C27.1934 18.7971 26.5997 19.0817 25.8841 19.1467C26.5672 19.1467 27.1527 19.3906 27.6406 19.8784C28.1448 20.3825 28.3969 20.9922 28.3969 21.7077L28.4213 27.3418C28.4213 28.0573 28.1692 28.667 27.665 29.1711C27.1771 29.6751 26.5753 29.9272 25.8597 29.9272L6.87966 29.976L6.85527 16.4638L12.2468 16.4394V16.4882L22.0296 16.4638C22.3061 16.4475 22.5419 16.3499 22.737 16.1711C22.9322 15.976 23.0054 15.7564 23.0054 15.4882V14.7321C23.0054 14.4638 22.9078 14.2443 22.737 14.0491C22.5419 13.8703 22.3061 13.7808 22.0296 13.7808H13.8813L0 13.8052V8.41499L25.7134 8.36621C26.4452 8.36621 27.0795 8.6345 27.5918 9.1467C28.1042 9.65889 28.3725 10.293 28.3725 11.0247L28.3969 16.4638C28.3969 17.1792 28.153 17.789 27.665 18.293ZM23.0298 22.976C23.0298 22.667 22.9241 22.3987 22.7127 22.1711C22.485 21.9597 22.2166 21.854 21.9076 21.854L12.2712 21.8784V24.5613L21.9076 24.5369C22.2329 24.5369 22.5012 24.4231 22.7127 24.1955C22.9241 23.9841 23.0298 23.7239 23.0298 23.415V22.976Z" fill="url(#paint0_linear_4_544)"/>
<path fill-rule="evenodd" clip-rule="evenodd" d="M115.1 47.9759H112.636V39.4637C112.636 39.3661 112.612 39.2767 112.563 39.1954C112.531 39.1141 112.482 39.0409 112.417 38.9759C112.352 38.9109 112.278 38.8621 112.197 38.8296C112.116 38.797 112.026 38.7808 111.929 38.7808H100.487V36.293H111.929C112.368 36.293 112.783 36.3824 113.173 36.5613C113.547 36.7239 113.88 36.9434 114.173 37.2198C114.466 37.5125 114.694 37.8539 114.856 38.2442C115.019 38.6344 115.1 39.0409 115.1 39.4637V47.9759ZM102.975 47.9759H100.487V40.9027H102.975V47.9759ZM109.026 47.9759H106.537V40.9027H109.026V47.9759Z" fill="url(#paint1_linear_4_544)"/>
<path fill-rule="evenodd" clip-rule="evenodd" d="M132.86 47.9759H130.372V43.3905H120.711V47.9759H118.247V39.4149C118.247 38.9759 118.328 38.5694 118.491 38.1954C118.637 37.8214 118.857 37.4962 119.15 37.2198C119.426 36.9434 119.752 36.7157 120.126 36.5369C120.5 36.3743 120.898 36.293 121.321 36.293H129.762C130.185 36.293 130.583 36.3743 130.957 36.5369C131.331 36.7157 131.657 36.9434 131.933 37.2198C132.226 37.4962 132.454 37.8214 132.616 38.1954C132.779 38.5694 132.86 38.9759 132.86 39.4149V47.9759ZM130.372 40.9027V39.3905C130.372 39.2117 130.315 39.0572 130.201 38.9271C130.071 38.8133 129.925 38.7564 129.762 38.7564H121.321C121.158 38.7564 121.02 38.8133 120.906 38.9271C120.776 39.0572 120.711 39.2117 120.711 39.3905V40.9027H130.372Z" fill="white" stroke="white" stroke-width="0.216974"/>
<path d="M153.256 47.9759H147.913L135.984 41.6832V40.9027H147.352C147.499 40.9027 147.637 40.8458 147.767 40.732C147.881 40.6182 147.938 40.48 147.938 40.3174V39.3661C147.938 39.2035 147.881 39.0653 147.767 38.9515C147.637 38.8377 147.499 38.7808 147.352 38.7808H135.984V36.293H147.352C147.775 36.293 148.174 36.3743 148.548 36.5369C148.905 36.6995 149.231 36.919 149.523 37.1954C149.8 37.4881 150.02 37.8133 150.182 38.171C150.345 38.545 150.426 38.9434 150.426 39.3661V40.3174C150.426 40.7401 150.345 41.1385 150.182 41.5125C150.02 41.8865 149.8 42.2117 149.523 42.4881C149.231 42.7645 148.905 42.984 148.548 43.1466C148.174 43.3092 147.775 43.3905 147.352 43.3905H144.4L153.256 47.9759Z" fill="white"/>
<path d="M158.257 48.0003H155.793V36.293H158.257V48.0003ZM169.845 48.0003H167.357V44.0003C167.357 43.8214 167.3 43.6751 167.186 43.5613C167.072 43.4474 166.934 43.3905 166.771 43.3905H158.281L165.112 36.3174H168.552L164.112 40.9271H166.771C167.194 40.9271 167.593 41.0084 167.967 41.171C168.324 41.3336 168.65 41.5531 168.942 41.8296C169.219 42.106 169.439 42.4312 169.601 42.8052C169.764 43.1791 169.845 43.5775 169.845 44.0003V48.0003Z" fill="white"/>
<path d="M187.141 38.7808H172.967V36.293H187.141V38.7808ZM187.141 48.0003H172.967V40.9271H187.141V43.3905H175.455V45.5369H187.141V48.0003Z" fill="white"/>
<path d="M204.877 38.7808H190.264V36.293H204.877V38.7808ZM198.803 48.0003H196.339V40.9271H198.803V48.0003Z" fill="white"/>
<path d="M38.5702 21.9023L38.5946 24.5852L54.7203 24.5365L54.7447 29.9267L33.2275 29.9755L33.1787 16.5365L54.6959 16.4877L54.7203 21.8779L38.5702 21.9023ZM54.6715 8.39014V13.7804L33.1543 13.8292V8.46331L54.6715 8.39014Z" fill="white"/>
<path d="M79.9705 8.36621L80.0193 29.854L74.6278 29.8784L63.8448 16.4638L63.8692 29.9028L58.502 29.9272L58.4532 8.41499L63.8204 8.3906L74.6278 21.8296L74.579 8.36621H79.9705Z" fill="white"/>
<path d="M105.196 8.29297L105.269 29.8052H99.8773L89.0943 16.3905L89.1187 29.8539H83.7272L83.6784 8.34175H89.0699L99.8529 21.7564L99.8285 8.31736L105.196 8.29297Z" fill="white"/>
<path d="M114.319 21.7319L114.344 24.3905L130.47 24.3661V29.7319L108.977 29.8051L108.952 16.3417L130.445 16.2929L130.47 21.6832L114.319 21.7319ZM130.421 8.24414V13.61L108.928 13.6832L108.904 8.29292L130.421 8.24414Z" fill="white"/>
<path fill-rule="evenodd" clip-rule="evenodd" d="M155.036 18.0977C154.565 18.6018 153.971 18.8782 153.255 18.927C153.938 18.9514 154.524 19.1953 155.012 19.6831C155.5 20.1872 155.744 20.7888 155.744 21.488L155.768 27.1221C155.768 27.8376 155.524 28.4473 155.036 28.9514C154.524 29.4392 153.938 29.7075 153.231 29.7075L134.275 29.7563L134.226 16.2441H139.642V16.2685L149.401 16.2441C149.677 16.2441 149.905 16.1546 150.084 15.9758C150.279 15.7806 150.377 15.5449 150.377 15.2685V14.5367C150.377 14.2603 150.279 14.0327 150.084 13.8538C149.889 13.675 149.661 13.5855 149.401 13.5855H141.252L134.226 13.6099V8.21968L153.06 8.1709C153.792 8.1709 154.426 8.43919 154.939 8.95139C155.475 9.46358 155.719 10.0977 155.719 10.8294L155.744 16.2685C155.744 16.9839 155.508 17.5937 155.036 18.0977ZM150.401 22.7563C150.401 22.4473 150.287 22.1871 150.059 21.9758C149.848 21.7481 149.588 21.6343 149.279 21.6343L139.642 21.6587V24.3416L149.279 24.3172C149.588 24.3172 149.848 24.2115 150.059 24.0002C150.287 23.7888 150.401 23.5205 150.401 23.1953V22.7563Z" fill="white"/>
<path d="M205.976 10.3171L193.924 10.9025L205.976 11.4391V13.4391L191.094 13.4635C190.753 13.4635 190.436 13.5854 190.216 13.8293C189.948 14.0732 189.85 14.3659 189.85 14.7074V14.8781C189.85 15.2358 189.972 15.5366 190.216 15.7805C190.484 16.0244 190.777 16.1464 191.119 16.1464L200.779 16.122C201.723 16.122 202.593 16.3578 203.39 16.8293C204.17 17.2927 204.805 17.9269 205.293 18.7074C205.756 19.4878 206 20.3659 206 21.3415V24.3171C206 25.2683 205.781 26.1708 205.293 26.9513C204.821 27.748 204.187 28.3822 203.39 28.8537C202.609 29.3252 201.731 29.561 200.755 29.561L184.507 29.6098L184.483 24.2196L199.291 24.1952C199.633 24.1952 199.95 24.0732 200.218 23.8049C200.479 23.5448 200.609 23.2277 200.609 22.8537C200.609 22.4797 200.479 22.1626 200.218 21.9025C199.958 21.6423 199.641 21.5122 199.267 21.5122L189.313 21.5366C188.435 21.5366 187.622 21.3252 186.874 20.9025C186.142 20.4635 185.556 19.8781 185.117 19.1464C184.694 18.4147 184.475 17.6017 184.458 16.7074V13.2196C184.458 12.2683 184.678 11.4147 185.142 10.6342C185.597 9.86997 186.215 9.25208 186.996 8.78054C187.76 8.32525 188.614 8.09761 189.557 8.09761L205.951 8.04883L205.976 10.3171Z" fill="white"/>
<path d="M174.553 7.14634C172.138 9.53658 169.43 8.75609 168.917 8.26829C168.43 7.75609 167.722 4.97561 170.04 2.63414C171.601 1.08943 173.984 0.211382 177.188 0C177.025 3.15447 176.147 5.53658 174.553 7.14634Z" fill="url(#paint2_linear_4_544)"/>
<path fill-rule="evenodd" clip-rule="evenodd" d="M181.458 23.537C178.945 28.976 174.285 31.9273 170.284 29.3419C166.283 31.9273 161.599 28.976 159.086 23.537C157.696 20.5126 157.476 16.0492 159.013 13.0248C159.892 11.2444 161.306 10.1224 162.746 9.61021C165.063 8.82972 167.942 9.3663 170.284 11.1224C172.602 9.3663 175.505 8.82972 177.798 9.61021C179.262 10.1224 180.653 11.2444 181.531 13.0248C183.068 16.0492 182.873 20.5126 181.458 23.537ZM165.259 25.6102C163.405 23.8053 162.209 21.5858 161.868 19.3907C161.526 16.9517 162.282 14.5126 163.868 12.9761C164.185 12.659 164.21 12.1468 163.892 11.8297C163.575 11.4883 163.063 11.4883 162.746 11.8053C160.794 13.6834 159.843 16.6834 160.257 19.6346C160.648 22.1712 162.014 24.7078 164.136 26.7809C164.283 26.9273 164.502 27.0004 164.698 27.0004C164.917 27.0004 165.112 26.9273 165.283 26.7565C165.6 26.4395 165.6 25.9273 165.259 25.6102Z" fill="url(#paint3_linear_4_544)"/>
<path d="M21.3462 36.6584C22.5453 36.6584 23.5174 35.6865 23.5174 34.4876C23.5174 33.2888 22.5453 32.3169 21.3462 32.3169C20.147 32.3169 19.1749 33.2888 19.1749 34.4876C19.1749 35.6865 20.147 36.6584 21.3462 36.6584Z" fill="url(#paint4_linear_4_544)"/>
<path d="M13.2954 36.6584C14.4946 36.6584 15.4667 35.6865 15.4667 34.4876C15.4667 33.2888 14.4946 32.3169 13.2954 32.3169C12.0963 32.3169 11.1242 33.2888 11.1242 34.4876C11.1242 35.6865 12.0963 36.6584 13.2954 36.6584Z" fill="url(#paint5_linear_4_544)"/>
<path style="mix-blend-mode:screen" d="M171.064 19.5609C171.723 23.7073 172.089 27.1463 171.869 27.2682C171.674 27.3902 170.991 24.1219 170.357 20C169.699 15.8536 169.333 12.3902 169.528 12.2683C169.723 12.1707 170.406 15.4146 171.064 19.5609Z" fill="url(#paint6_radial_4_544)"/>
<path style="mix-blend-mode:screen" d="M170.967 19.4144C171.479 22.6096 171.747 25.2437 171.576 25.2681C171.406 25.2925 170.869 22.7071 170.357 19.512C169.869 16.2925 169.576 13.6584 169.747 13.634C169.918 13.6096 170.455 16.1949 170.967 19.4144Z" fill="url(#paint7_radial_4_544)"/>
<path style="mix-blend-mode:screen" d="M170.918 19.4145C171.333 22.073 171.552 24.2437 171.43 24.2681C171.284 24.2925 170.845 22.1462 170.406 19.4877C169.991 16.8291 169.772 14.6584 169.894 14.634C170.04 14.6096 170.479 16.7559 170.918 19.4145Z" fill="url(#paint8_radial_4_544)"/>
<path style="mix-blend-mode:screen" d="M170.918 20.1464C166.966 20.7805 163.648 21.0976 163.526 20.9025C163.404 20.683 166.527 20.0245 170.504 19.3903C174.456 18.7805 177.774 18.4391 177.871 18.6586C177.993 18.8537 174.87 19.5366 170.918 20.1464Z" fill="url(#paint9_radial_4_544)"/>
<path style="mix-blend-mode:screen" d="M171.065 20.0488C167.991 20.5366 165.479 20.7805 165.454 20.6097C165.43 20.439 167.894 19.9024 170.968 19.4146C174.042 18.9268 176.554 18.6829 176.579 18.8536C176.603 19.0244 174.139 19.561 171.065 20.0488Z" fill="url(#paint10_radial_4_544)"/>
<path style="mix-blend-mode:screen" d="M171.064 20C168.502 20.3902 166.429 20.6097 166.404 20.4634C166.38 20.317 168.429 19.878 170.966 19.4878C173.528 19.0731 175.601 18.8536 175.626 19C175.65 19.1463 173.601 19.5853 171.064 20Z" fill="url(#paint11_radial_4_544)"/>
<path style="mix-blend-mode:screen" d="M170.991 19.854C169.333 22.2443 167.844 24.1467 167.698 24.0979C167.527 24.0735 168.747 22.0979 170.43 19.6833C172.089 17.2931 173.553 15.3906 173.724 15.4394C173.87 15.4882 172.65 17.4638 170.991 19.854Z" fill="url(#paint12_radial_4_544)"/>
<path style="mix-blend-mode:screen" d="M171.016 19.7316C169.723 21.5853 168.601 23.0243 168.503 22.9511C168.405 22.878 169.381 21.317 170.674 19.4633C171.943 17.6097 173.089 16.1463 173.163 16.2194C173.26 16.2926 172.309 17.878 171.016 19.7316Z" fill="url(#paint13_radial_4_544)"/>
<path style="mix-blend-mode:screen" d="M170.991 19.7073C169.918 21.2439 168.991 22.439 168.894 22.3902C168.82 22.3171 169.625 21.0244 170.698 19.4878C171.772 17.9512 172.698 16.7317 172.772 16.8049C172.845 16.8537 172.064 18.1707 170.991 19.7073Z" fill="url(#paint14_radial_4_544)"/>
<path style="mix-blend-mode:screen" d="M170.626 20.0733C168.308 18.2928 166.478 16.7318 166.503 16.5611C166.552 16.4148 168.455 17.7074 170.772 19.4879C173.09 21.244 174.944 22.805 174.895 22.9757C174.871 23.1465 172.943 21.8538 170.626 20.0733Z" fill="url(#paint15_radial_4_544)"/>
<path style="mix-blend-mode:screen" d="M170.747 20.0976C168.967 18.7317 167.552 17.5366 167.625 17.439C167.698 17.3415 169.21 18.3659 171.016 19.7317C172.797 21.0976 174.212 22.2927 174.138 22.3903C174.065 22.4878 172.553 21.4634 170.747 20.0976Z" fill="url(#paint16_radial_4_544)"/>
<path style="mix-blend-mode:screen" d="M170.772 20.0735C169.284 18.9272 168.113 17.9515 168.186 17.854C168.235 17.7808 169.503 18.6345 170.991 19.7564C172.48 20.9028 173.651 21.9028 173.577 21.9759C173.529 22.0491 172.26 21.1954 170.772 20.0735Z" fill="url(#paint17_radial_4_544)"/>
<path style="mix-blend-mode:screen" d="M174.187 19.2439C174.455 21.3171 173.064 23.2927 171.064 23.6342C169.063 24 167.234 22.6098 166.941 20.561C166.648 18.4878 168.039 16.5366 170.039 16.1708C172.04 15.8049 173.894 17.1952 174.187 19.2439Z" fill="url(#paint18_radial_4_544)"/>
<path style="mix-blend-mode:screen" d="M173.432 19.2929C173.676 20.8782 172.627 22.3904 171.065 22.6343C169.504 22.8782 168.04 21.7807 167.796 20.1709C167.552 18.5856 168.601 17.0978 170.163 16.8539C171.7 16.61 173.164 17.6831 173.432 19.2929Z" fill="url(#paint19_radial_4_544)"/>
<path style="mix-blend-mode:screen" d="M172.943 19.3657C173.163 20.6828 172.285 21.9267 170.992 22.1218C169.699 22.3413 168.479 21.4145 168.284 20.0974C168.064 18.7803 168.942 17.5364 170.235 17.3413C171.528 17.1218 172.724 18.0486 172.943 19.3657Z" fill="url(#paint20_radial_4_544)"/>
<defs>
<linearGradient id="paint0_linear_4_544" x1="22.737" y1="719.327" x2="3333.82" y2="719.327" gradientUnits="userSpaceOnUse">
<stop stop-color="#74C247"/>
<stop offset="0.5" stop-color="#28873D"/>
<stop offset="1" stop-color="#74C247"/>
</linearGradient>
<linearGradient id="paint1_linear_4_544" x1="6131.35" y1="1758.36" x2="7006.68" y2="1758.36" gradientUnits="userSpaceOnUse">
<stop stop-color="#74C247"/>
<stop offset="0.5" stop-color="#28873D"/>
<stop offset="1" stop-color="#74C247"/>
</linearGradient>
<linearGradient id="paint2_linear_4_544" x1="6251.05" y1="-11.4276" x2="6543" y2="-11.4276" gradientUnits="userSpaceOnUse">
<stop stop-color="#74C247"/>
<stop offset="0.5" stop-color="#28873D"/>
<stop offset="1" stop-color="#74C247"/>
</linearGradient>
<linearGradient id="paint3_linear_4_544" x1="16185.6" y1="783.154" x2="18584.4" y2="783.154" gradientUnits="userSpaceOnUse">
<stop stop-color="#74C247"/>
<stop offset="0.5" stop-color="#28873D"/>
<stop offset="1" stop-color="#74C247"/>
</linearGradient>
<linearGradient id="paint4_linear_4_544" x1="363.968" y1="601.048" x2="441.698" y2="601.048" gradientUnits="userSpaceOnUse">
<stop stop-color="#74C247"/>
<stop offset="0.5" stop-color="#28873D"/>
<stop offset="1" stop-color="#74C247"/>
</linearGradient>
<linearGradient id="paint5_linear_4_544" x1="212.615" y1="601.048" x2="289.912" y2="601.048" gradientUnits="userSpaceOnUse">
<stop stop-color="#74C247"/>
<stop offset="0.5" stop-color="#28873D"/>
<stop offset="1" stop-color="#74C247"/>
</linearGradient>
<radialGradient id="paint6_radial_4_544" cx="0" cy="0" r="1" gradientUnits="userSpaceOnUse" gradientTransform="translate(1891.08 1238.21) scale(3.68652 22.5082)">
<stop stop-color="#7EC647"/>
<stop offset="1" stop-color="#0C0D0D"/>
</radialGradient>
<radialGradient id="paint7_radial_4_544" cx="0" cy="0" r="1" gradientUnits="userSpaceOnUse" gradientTransform="translate(1521.19 949.046) scale(2.12256 12.7979)">
<stop stop-color="#46BA4A"/>
<stop offset="1" stop-color="#0C0D0D"/>
</radialGradient>
<radialGradient id="paint8_radial_4_544" cx="0" cy="0" r="1" gradientUnits="userSpaceOnUse" gradientTransform="translate(1293.08 789.252) scale(1.44332 8.6711)">
<stop stop-color="#75C447"/>
<stop offset="1" stop-color="#0C0D0D"/>
</radialGradient>
<radialGradient id="paint9_radial_4_544" cx="0" cy="0" r="1" gradientUnits="userSpaceOnUse" gradientTransform="translate(10216.9 212.048) scale(22.9628 3.78861)">
<stop stop-color="#7EC647"/>
<stop offset="1" stop-color="#0C0D0D"/>
</radialGradient>
<radialGradient id="paint10_radial_4_544" cx="0" cy="0" r="1" gradientUnits="userSpaceOnUse" gradientTransform="translate(7972.92 170.775) scale(12.2374 2.05121)">
<stop stop-color="#46BA4A"/>
<stop offset="1" stop-color="#0C0D0D"/>
</radialGradient>
<radialGradient id="paint11_radial_4_544" cx="0" cy="0" r="1" gradientUnits="userSpaceOnUse" gradientTransform="translate(6638.48 145.637) scale(9.22211 1.55439)">
<stop stop-color="#75C447"/>
<stop offset="1" stop-color="#0C0D0D"/>
</radialGradient>
<radialGradient id="paint12_radial_4_544" cx="0" cy="0" r="1" gradientUnits="userSpaceOnUse" gradientTransform="translate(4408.28 722.99) scale(7.2644 10.3924)">
<stop stop-color="#7EC647"/>
<stop offset="1" stop-color="#0C0D0D"/>
</radialGradient>
<radialGradient id="paint13_radial_4_544" cx="0" cy="0" r="1" gradientUnits="userSpaceOnUse" gradientTransform="translate(3444.9 561.24) scale(4.20591 6.0633)">
<stop stop-color="#46BA4A"/>
<stop offset="1" stop-color="#0C0D0D"/>
</radialGradient>
<radialGradient id="paint14_radial_4_544" cx="0" cy="0" r="1" gradientUnits="userSpaceOnUse" gradientTransform="translate(2894.36 469.027) scale(2.72119 3.91295)">
<stop stop-color="#75C447"/>
<stop offset="1" stop-color="#0C0D0D"/>
</radialGradient>
<radialGradient id="paint15_radial_4_544" cx="0" cy="0" r="1" gradientUnits="userSpaceOnUse" gradientTransform="translate(6046.08 542.784) scale(10.0721 7.72927)">
<stop stop-color="#7EC647"/>
<stop offset="1" stop-color="#0C0D0D"/>
</radialGradient>
<radialGradient id="paint16_radial_4_544" cx="0" cy="0" r="1" gradientUnits="userSpaceOnUse" gradientTransform="translate(4739.5 425.976) scale(5.86723 4.46767)">
<stop stop-color="#46BA4A"/>
<stop offset="1" stop-color="#0C0D0D"/>
</radialGradient>
<radialGradient id="paint17_radial_4_544" cx="0" cy="0" r="1" gradientUnits="userSpaceOnUse" gradientTransform="translate(3953.81 357.806) scale(3.77861 2.89149)">
<stop stop-color="#75C447"/>
<stop offset="1" stop-color="#0C0D0D"/>
</radialGradient>
<radialGradient id="paint18_radial_4_544" cx="0" cy="0" r="1" gradientUnits="userSpaceOnUse" gradientTransform="translate(5288.54 639.217) scale(103.179 106.883)">
<stop stop-color="#7EC647"/>
<stop offset="1" stop-color="#0C0D0D"/>
</radialGradient>
<radialGradient id="paint19_radial_4_544" cx="0" cy="0" r="1" gradientUnits="userSpaceOnUse" gradientTransform="translate(4162.46 493.506) scale(62.1943 63.7532)">
<stop stop-color="#46BA4A"/>
<stop offset="1" stop-color="#0C0D0D"/>
</radialGradient>
<radialGradient id="paint20_radial_4_544" cx="0" cy="0" r="1" gradientUnits="userSpaceOnUse" gradientTransform="translate(3477.58 412.171) scale(42.5425 43.6044)">
<stop stop-color="#75C447"/>
<stop offset="1" stop-color="#0C0D0D"/>
</radialGradient>
</defs>
</svg>
