<svg width="32" height="32" viewBox="0 0 32 32" fill="none" xmlns="http://www.w3.org/2000/svg">
<path d="M16 32C24.8366 32 32 24.8366 32 16C32 7.16344 24.8366 0 16 0C7.16344 0 0 7.16344 0 16C0 24.8366 7.16344 32 16 32Z" fill="#00A6DE"/>
<path d="M23.9684 11.1578C23.5902 11.7259 23.1281 12.2334 22.5979 12.6631C22.5311 12.7188 22.4775 12.7887 22.4411 12.8677C22.4046 12.9467 22.3863 13.0329 22.3874 13.1199V13.1725C22.3812 14.3135 22.1716 15.4441 21.7684 16.5115C21.353 17.6317 20.7358 18.6664 19.9474 19.5641C18.8879 20.7702 17.525 21.6708 16 22.1725C14.998 22.4977 13.9503 22.6605 12.8969 22.6546C11.2256 22.6544 9.58407 22.2121 8.13896 21.3725C8.08718 21.3431 8.04642 21.2976 8.02286 21.2428C7.9993 21.1881 7.99424 21.1272 8.00844 21.0694C8.02301 21.0124 8.05621 20.962 8.10276 20.9262C8.14931 20.8903 8.20652 20.871 8.26528 20.8715H8.66528C9.93538 20.8746 11.1774 20.4977 12.2316 19.7894C11.6033 19.6876 11.0154 19.4144 10.5324 18.9999C10.0495 18.5853 9.69045 18.0455 9.49475 17.4399C9.48473 17.4096 9.48291 17.3771 9.48948 17.3459C9.49605 17.3146 9.51077 17.2856 9.53215 17.2619C9.55353 17.2382 9.58081 17.2205 9.61121 17.2107C9.64162 17.201 9.67407 17.1994 9.70528 17.2062C9.89687 17.2423 10.0914 17.2606 10.2863 17.2609H10.36C9.75281 16.982 9.23941 16.5331 8.88186 15.9686C8.52432 15.4041 8.33795 14.7481 8.34528 14.0799C8.3455 14.0486 8.35381 14.018 8.3694 13.9909C8.38499 13.9638 8.40734 13.9412 8.43426 13.9253C8.46119 13.9094 8.49177 13.9007 8.52303 13.9001C8.55429 13.8996 8.58516 13.9071 8.61265 13.922C8.85962 14.0599 9.12464 14.1626 9.40002 14.2273C8.85571 13.6887 8.50559 12.9847 8.40462 12.2257C8.30365 11.4667 8.45753 10.6957 8.84212 10.0336C8.85667 10.0081 8.87718 9.98663 8.90187 9.97087C8.92657 9.95511 8.95472 9.94558 8.98392 9.94309C9.01311 9.94061 9.04247 9.94524 9.06947 9.9566C9.09648 9.96797 9.12033 9.98571 9.13896 10.0083C9.89934 10.9498 10.8411 11.729 11.9083 12.2996C12.9754 12.8703 14.1464 13.2208 15.3516 13.3304H15.3684C15.3861 13.3299 15.4036 13.3258 15.4196 13.3183C15.4357 13.3109 15.4501 13.3002 15.4619 13.287C15.4737 13.2738 15.4827 13.2584 15.4884 13.2416C15.494 13.2248 15.4962 13.207 15.4947 13.1894C15.4477 12.7669 15.4748 12.3394 15.5747 11.9262C15.7106 11.3646 15.9894 10.8476 16.3841 10.4256C16.7789 10.0035 17.276 9.69082 17.8274 9.51779C18.1811 9.40729 18.5494 9.35052 18.92 9.34937C19.7603 9.3484 20.5719 9.65463 21.2021 10.2104C21.2838 10.2835 21.3894 10.3239 21.499 10.3241C21.5345 10.3233 21.5698 10.3184 21.6042 10.3094C22.1964 10.1597 22.7637 9.92502 23.2884 9.61253C23.3198 9.59315 23.3565 9.58396 23.3933 9.58621C23.4301 9.58846 23.4653 9.60204 23.4942 9.62509C23.523 9.64814 23.544 9.67954 23.5542 9.71497C23.5645 9.75041 23.5636 9.78816 23.5516 9.82305C23.3764 10.3742 23.0642 10.8718 22.6442 11.2694C23.0226 11.1792 23.3918 11.0544 23.7474 10.8967C23.7825 10.8832 23.8209 10.8809 23.8573 10.8902C23.8938 10.8995 23.9264 10.9199 23.9507 10.9486C23.9751 10.9773 23.9898 11.0129 23.993 11.0504C23.9962 11.0879 23.9876 11.1254 23.9684 11.1578Z" fill="white"/>
</svg>
