<svg width="32" height="32" viewBox="0 0 32 32" fill="none" xmlns="http://www.w3.org/2000/svg">
<path d="M16 32C24.8366 32 32 24.8366 32 16C32 7.16344 24.8366 0 16 0C7.16344 0 0 7.16344 0 16C0 24.8366 7.16344 32 16 32Z" fill="#FF0000"/>
<path fill-rule="evenodd" clip-rule="evenodd" d="M23.1515 10.3641C23.8796 10.5602 24.4538 11.1342 24.6497 11.8625C25.0139 13.1927 24.9999 15.9654 24.9999 15.9654C24.9999 15.9654 24.9999 18.7239 24.6499 20.0543C24.4538 20.7824 23.8797 21.3566 23.1515 21.5526C21.8211 21.9027 16.5 21.9027 16.5 21.9027C16.5 21.9027 11.1927 21.9027 9.84847 21.5387C9.12021 21.3426 8.54616 20.7684 8.35006 20.0403C8 18.7239 8 15.9514 8 15.9514C8 15.9514 8 13.1927 8.35006 11.8625C8.54603 11.1343 9.13422 10.5462 9.84834 10.3502C11.1787 10 16.4998 10 16.4998 10C16.4998 10 21.8211 10 23.1515 10.3641ZM19.2305 15.9514L14.8056 18.5V13.4028L19.2305 15.9514Z" fill="white"/>
</svg>
