<svg width="32" height="32" viewBox="0 0 32 32" fill="none" xmlns="http://www.w3.org/2000/svg">
<path d="M16 32C24.8366 32 32 24.8366 32 16C32 7.16344 24.8366 0 16 0C7.16344 0 0 7.16344 0 16C0 24.8366 7.16344 32 16 32Z" fill="#2AA81A"/>
<path d="M21.6442 10.3559C20.3128 9.00938 18.5439 8.18328 16.6568 8.0267C14.7697 7.87013 12.8888 8.39339 11.3537 9.50202C9.81862 10.6107 8.73045 12.2316 8.2857 14.0722C7.84095 15.9128 8.06891 17.8518 8.92843 19.539L8.08632 23.6274C8.07731 23.6683 8.07696 23.7105 8.0853 23.7515C8.09364 23.7925 8.11048 23.8313 8.13475 23.8653C8.16949 23.9169 8.21915 23.9566 8.27709 23.9792C8.33503 24.0018 8.39848 24.0061 8.45896 23.9916L12.459 23.0422C14.1416 23.8792 16.0666 24.0919 17.8914 23.6426C19.7162 23.1933 21.3224 22.111 22.424 20.5884C23.5256 19.0659 24.0513 17.2018 23.9073 15.328C23.7634 13.4542 22.9592 11.6923 21.6379 10.3559H21.6442ZM20.3937 20.3285C19.4729 21.2477 18.2872 21.8551 17.0032 22.0654C15.7193 22.2758 14.4017 22.0784 13.2358 21.5011L12.6758 21.2232L10.219 21.8043V21.7727L10.7369 19.2948L10.4632 18.7559C9.867 17.5867 9.65651 16.2588 9.86188 14.9627C10.0673 13.6665 10.6779 12.4687 11.6063 11.5411C12.772 10.3766 14.3523 9.72254 16 9.72254C17.6477 9.72254 19.228 10.3766 20.3937 11.5411L20.4211 11.579C21.5716 12.7472 22.2139 14.3227 22.208 15.9624C22.2021 17.602 21.5484 19.1728 20.3895 20.3327L20.3937 20.3285Z" fill="white"/>
<path d="M20.1769 18.5264C19.8758 19.0001 19.3979 19.579 18.8021 19.7243C17.7495 19.9769 16.1474 19.7243 14.1411 17.8695L14.1158 17.8464C12.3705 16.2169 11.9074 14.859 12.0105 13.7832C12.0716 13.1706 12.5811 12.619 13.0105 12.2569C13.0788 12.1993 13.1596 12.1585 13.2465 12.1378C13.3334 12.117 13.4239 12.1168 13.5108 12.1373C13.5978 12.1577 13.6787 12.1983 13.7472 12.2556C13.8157 12.3129 13.8698 12.3855 13.9053 12.4674L14.5516 13.9285C14.5938 14.0225 14.6096 14.1263 14.5974 14.2287C14.5851 14.331 14.5453 14.4281 14.4821 14.5095L14.1537 14.9306C14.0854 15.018 14.0448 15.1238 14.0369 15.2344C14.029 15.345 14.0543 15.4555 14.1095 15.5517C14.4215 16.0115 14.7947 16.4265 15.219 16.7853C15.6754 17.2246 16.1931 17.5955 16.7558 17.8864C16.8585 17.9278 16.9712 17.9377 17.0796 17.9148C17.1879 17.8919 17.287 17.8373 17.3642 17.758L17.7411 17.3748C17.8128 17.2977 17.9044 17.2419 18.0059 17.2137C18.1073 17.1855 18.2146 17.1858 18.3158 17.2148L19.8527 17.6548C19.9397 17.6796 20.0198 17.7245 20.0863 17.786C20.1528 17.8474 20.2039 17.9237 20.2354 18.0085C20.267 18.0934 20.2781 18.1845 20.268 18.2744C20.2578 18.3644 20.2266 18.4507 20.1769 18.5264Z" fill="white"/>
</svg>
