<svg width="32" height="32" viewBox="0 0 32 32" fill="none" xmlns="http://www.w3.org/2000/svg">
<path d="M16 32C24.8366 32 32 24.8366 32 16C32 7.16344 24.8366 0 16 0C7.16344 0 0 7.16344 0 16C0 24.8366 7.16344 32 16 32Z" fill="#0B69C7"/>
<path d="M12.4211 10.1832C12.4215 10.6155 12.2936 11.0383 12.0537 11.398C11.8137 11.7577 11.4724 12.0381 11.073 12.2038C10.6737 12.3694 10.2341 12.4129 9.81 12.3286C9.3859 12.2444 8.99633 12.0362 8.69059 11.7305C8.38485 11.4247 8.17668 11.0352 8.09242 10.6111C8.00817 10.187 8.05163 9.74742 8.21728 9.34803C8.38294 8.94864 8.66336 8.60737 9.02305 8.36741C9.38274 8.12745 9.80553 7.99958 10.2379 8C10.8167 8.00056 11.3717 8.23075 11.781 8.64005C12.1903 9.04935 12.4205 9.60432 12.4211 10.1832Z" fill="white"/>
<path d="M11.3874 13.2778H9.08845C8.78963 13.2778 8.54739 13.5201 8.54739 13.8189V23.4589C8.54739 23.7577 8.78963 23.9999 9.08845 23.9999H11.3874C11.6862 23.9999 11.9284 23.7577 11.9284 23.4589V13.8189C11.9284 13.5201 11.6862 13.2778 11.3874 13.2778Z" fill="white"/>
<path d="M23.9474 18.8359V23.5033C23.9474 23.6351 23.895 23.7614 23.8018 23.8546C23.7087 23.9478 23.5823 24.0001 23.4505 24.0001H20.9832C20.8514 24.0001 20.725 23.9478 20.6318 23.8546C20.5387 23.7614 20.4863 23.6351 20.4863 23.5033V18.9812C20.4863 18.3054 20.6821 16.0338 18.7221 16.0338C17.2021 16.0338 16.8926 17.5959 16.8274 18.297V23.5138C16.8246 23.643 16.7717 23.7661 16.6797 23.8569C16.5877 23.9477 16.464 23.9991 16.3347 24.0001H13.9474C13.8821 24.0004 13.8173 23.9878 13.7569 23.9629C13.6965 23.938 13.6416 23.9014 13.5954 23.8552C13.5492 23.809 13.5127 23.7542 13.4878 23.6938C13.4629 23.6333 13.4503 23.5686 13.4505 23.5033V13.777C13.4503 13.7115 13.4629 13.6467 13.4877 13.5862C13.5126 13.5257 13.5491 13.4706 13.5953 13.4243C13.6415 13.3779 13.6963 13.3411 13.7568 13.316C13.8172 13.2909 13.882 13.278 13.9474 13.278H16.3347C16.401 13.2769 16.4668 13.289 16.5283 13.3135C16.5898 13.3381 16.6458 13.3747 16.693 13.4211C16.7402 13.4676 16.7777 13.523 16.8033 13.5841C16.8289 13.6451 16.8421 13.7107 16.8421 13.777V14.6191C17.4063 13.777 18.2442 13.1201 20.0274 13.1201C23.9705 13.118 23.9474 16.8085 23.9474 18.8359Z" fill="white"/>
</svg>
