<svg width="32" height="32" viewBox="0 0 32 32" fill="none" xmlns="http://www.w3.org/2000/svg">
<path d="M16 32C24.8366 32 32 24.8366 32 16C32 7.16344 24.8366 0 16 0C7.16344 0 0 7.16344 0 16C0 24.8366 7.16344 32 16 32Z" fill="#334C8C"/>
<path d="M20.0547 14.4863L19.7894 16.7137C19.778 16.8171 19.7286 16.9127 19.6509 16.9819C19.5731 17.0511 19.4725 17.0891 19.3684 17.0884H17.0526V23.6989C17.0532 23.7779 17.0225 23.8538 16.9673 23.9102C16.9121 23.9666 16.8368 23.9989 16.7579 24H14.3979C14.3586 23.9995 14.3199 23.9912 14.2838 23.9756C14.2477 23.9601 14.2151 23.9376 14.1877 23.9095C14.1603 23.8813 14.1388 23.8481 14.1243 23.8116C14.1098 23.7751 14.1026 23.7361 14.1031 23.6968L14.1158 17.0884H12.3621C12.2504 17.0884 12.1433 17.0441 12.0644 16.9651C11.9854 16.8861 11.941 16.779 11.941 16.6674V14.44C11.941 14.3283 11.9854 14.2212 12.0644 14.1423C12.1433 14.0633 12.2504 14.0189 12.3621 14.0189H14.1052V11.8589C14.1052 9.36 15.5916 8 17.7684 8H19.5515C19.6632 8 19.7703 8.04436 19.8493 8.12332C19.9282 8.20229 19.9726 8.30938 19.9726 8.42105V10.2968C19.9726 10.4085 19.9282 10.5156 19.8493 10.5946C19.7703 10.6735 19.6632 10.7179 19.5515 10.7179H18.4589C17.2758 10.7368 17.0526 11.3032 17.0526 12.1495V14.0126H19.6442C19.7033 14.0136 19.7616 14.0271 19.8151 14.0521C19.8687 14.0771 19.9164 14.1132 19.9551 14.1579C19.9939 14.2025 20.0228 14.2549 20.0399 14.3115C20.0571 14.3681 20.0621 14.4276 20.0547 14.4863Z" fill="white"/>
</svg>
