<svg width="32" height="32" viewBox="0 0 32 32" fill="none" xmlns="http://www.w3.org/2000/svg">
<path d="M16 32C24.8366 32 32 24.8366 32 16C32 7.16344 24.8366 0 16 0C7.16344 0 0 7.16344 0 16C0 24.8366 7.16344 32 16 32Z" fill="#E1306C"/>
<path d="M24.3994 12.655C24.3623 11.8138 24.2262 11.2354 24.0314 10.7342C23.8303 10.2022 23.521 9.72595 23.1158 9.33001C22.7198 8.92792 22.2404 8.61547 21.7146 8.41756C21.2105 8.22268 20.6352 8.08663 19.7939 8.04954C18.9463 8.0093 18.6772 8 16.5276 8C14.3779 8 14.1088 8.0093 13.2644 8.0464C12.4231 8.08349 11.8448 8.21966 11.3437 8.41442C10.8116 8.61547 10.3353 8.92477 9.93939 9.33001C9.53729 9.72595 9.22496 10.2054 9.02694 10.7312C8.83205 11.2354 8.696 11.8106 8.65891 12.6519C8.61868 13.4995 8.60938 13.7685 8.60938 15.9182C8.60938 18.0679 8.61868 18.337 8.65577 19.1814C8.69286 20.0227 8.82903 20.601 9.02392 21.1022C9.22496 21.6342 9.53729 22.1105 9.93939 22.5064C10.3353 22.9085 10.8147 23.221 11.3406 23.4189C11.8448 23.6137 12.42 23.7498 13.2614 23.7869C14.1057 23.8241 14.3749 23.8333 16.5246 23.8333C18.6742 23.8333 18.9433 23.8241 19.7877 23.7869C20.629 23.7498 21.2074 23.6137 21.7084 23.4189C22.7725 23.0075 23.6138 22.1662 24.0252 21.1022C24.22 20.598 24.3561 20.0227 24.3932 19.1814C24.4303 18.337 24.4396 18.0679 24.4396 15.9182C24.4396 13.7685 24.4365 13.4995 24.3994 12.655ZM22.9736 19.1195C22.9395 19.8928 22.8096 20.3103 22.7013 20.5887C22.4353 21.2785 21.8879 21.8259 21.1981 22.092C20.9197 22.2002 20.4991 22.3301 19.7289 22.3641C18.8938 22.4013 18.6433 22.4105 16.5307 22.4105C14.4181 22.4105 14.1645 22.4013 13.3324 22.3641C12.5592 22.3301 12.1416 22.2002 11.8632 22.092C11.52 21.9651 11.2075 21.7641 10.9539 21.5012C10.691 21.2444 10.49 20.9351 10.3631 20.5919C10.2549 20.3135 10.125 19.8928 10.091 19.1227C10.0538 18.2875 10.0446 18.037 10.0446 15.9244C10.0446 13.8118 10.0538 13.5582 10.091 12.7262C10.125 11.9529 10.2549 11.5354 10.3631 11.257C10.49 10.9136 10.691 10.6013 10.9571 10.3476C11.2137 10.0847 11.523 9.88362 11.8664 9.75688C12.1448 9.64862 12.5655 9.51874 13.3356 9.48466C14.1707 9.44757 14.4213 9.43827 16.5337 9.43827C18.6495 9.43827 18.8999 9.44757 19.732 9.48466C20.5053 9.51874 20.9228 9.64862 21.2012 9.75688C21.5445 9.88362 21.8569 10.0847 22.1105 10.3476C22.3734 10.6043 22.5745 10.9136 22.7013 11.257C22.8096 11.5354 22.9395 11.956 22.9736 12.7262C23.0107 13.5613 23.02 13.8118 23.02 15.9244C23.02 18.037 23.0107 18.2844 22.9736 19.1195Z" fill="white"/>
<path d="M16.5276 11.8508C14.2821 11.8508 12.4602 13.6726 12.4602 15.9182C12.4602 18.1638 14.2821 19.9856 16.5276 19.9856C18.7732 19.9856 20.5949 18.1638 20.5949 15.9182C20.5949 13.6726 18.7732 11.8508 16.5276 11.8508ZM16.5276 18.5566C15.0708 18.5566 13.8892 17.3751 13.8892 15.9182C13.8892 14.4613 15.0708 13.2798 16.5276 13.2798C17.9845 13.2798 19.166 14.4613 19.166 15.9182C19.166 17.3751 17.9845 18.5566 16.5276 18.5566Z" fill="white"/>
<path d="M21.7054 11.69C21.7054 12.2144 21.2803 12.6396 20.7558 12.6396C20.2314 12.6396 19.8062 12.2144 19.8062 11.69C19.8062 11.1655 20.2314 10.7405 20.7558 10.7405C21.2803 10.7405 21.7054 11.1655 21.7054 11.69Z" fill="white"/>
</svg>
