<svg width="24" height="24" viewBox="0 0 24 24" fill="none" xmlns="http://www.w3.org/2000/svg">
<path fill-rule="evenodd" clip-rule="evenodd" d="M11.7416 2.06219C11.6771 2.09708 11.4551 2.27219 11.2481 2.45134C11.0412 2.63051 10.8512 2.77711 10.8259 2.77711C10.8006 2.77711 10.5655 2.68803 10.3035 2.57918C9.50488 2.24731 9.38872 2.28442 8.94429 3.01321C8.60363 3.57185 8.73385 3.51586 7.89312 3.46542C7.44189 3.43838 7.39524 3.44213 7.27987 3.515C7.0597 3.65406 7.04407 3.69422 6.78038 4.79606C6.76276 4.86971 6.6897 4.89764 6.23152 5.00583C5.64545 5.14422 5.48624 5.22666 5.37782 5.44792C5.30987 5.58658 5.30772 5.63561 5.34863 6.11162C5.37293 6.39429 5.39278 6.65505 5.3927 6.69104C5.39262 6.7328 5.21399 6.86608 4.89971 7.05889C4.15513 7.51567 4.12458 7.6153 4.47344 8.44704L4.68735 8.957L4.31872 9.38342C3.73285 10.0611 3.73246 10.1666 4.31348 10.8444L4.68114 11.2733L4.6096 11.45C4.57022 11.5472 4.47336 11.7831 4.39436 11.9743C4.27613 12.2603 4.25394 12.3558 4.2691 12.5133C4.29332 12.7656 4.39006 12.8628 4.94929 13.1971L5.39419 13.463L5.36985 13.8537L5.34546 14.2444L3.73219 15.8659C2.84485 16.7577 2.09066 17.5436 2.05616 17.6123C1.93719 17.8495 2.0144 18.1829 2.22018 18.3205C2.27402 18.3565 2.87247 18.5716 3.55008 18.7986L4.7821 19.2113L5.19477 20.4433C5.42177 21.1209 5.63693 21.7194 5.67292 21.7732C5.81049 21.9789 6.1438 22.0562 6.38108 21.9374C6.44984 21.9029 7.49386 20.889 8.70111 19.6842C10.7625 17.6271 10.9008 17.4971 10.9736 17.5491C11.0161 17.5796 11.2113 17.7408 11.4074 17.9073C11.7642 18.2104 11.817 18.234 12.0932 18.213C12.2425 18.2016 12.3097 18.1573 12.7197 17.7998C12.9045 17.6387 13.0678 17.5068 13.0826 17.5068C13.0973 17.5068 14.0675 18.4669 15.2386 19.6404C16.4097 20.8139 17.446 21.8248 17.5415 21.887C17.6467 21.9555 17.7676 22 17.8482 22C18.0213 22 18.2358 21.8965 18.3182 21.7732C18.3542 21.7194 18.5694 21.1209 18.7964 20.4433L19.209 19.2113L20.4411 18.7986C21.1187 18.5716 21.7171 18.3565 21.771 18.3205C21.9767 18.1829 22.0539 17.8495 21.935 17.6123C21.9005 17.5436 21.1463 16.7577 20.259 15.8659L18.6457 14.2444L18.6215 13.8537L18.5973 13.463L19.0392 13.2001C19.5943 12.8697 19.6978 12.766 19.7218 12.5155C19.7372 12.3553 19.7118 12.2577 19.556 11.8788C19.4548 11.6327 19.3582 11.3956 19.3412 11.3521C19.3161 11.2876 19.3788 11.193 19.6779 10.8442C20.2586 10.1666 20.2582 10.0611 19.6724 9.38342L19.3038 8.957L19.5177 8.44704C19.8667 7.61499 19.8357 7.51395 19.0907 7.0569C18.7807 6.86674 18.5985 6.73105 18.5984 6.6903C18.5984 6.6547 18.6182 6.39429 18.6425 6.11162C18.6834 5.63561 18.6813 5.58658 18.6133 5.44792C18.5044 5.22557 18.3417 5.14117 17.7572 5.00384C17.3019 4.89686 17.2281 4.86877 17.2106 4.79563C16.9473 3.69481 16.9314 3.65406 16.7113 3.515C16.5959 3.44213 16.5492 3.43838 16.098 3.46542C15.2573 3.51586 15.3875 3.57185 15.0469 3.01321C14.6024 2.28442 14.4863 2.24731 13.6876 2.57918C13.4256 2.68803 13.1905 2.77711 13.1652 2.77711C13.14 2.77711 12.9478 2.62778 12.7382 2.44528C12.5287 2.26278 12.3066 2.08708 12.2448 2.0548C12.0995 1.97905 11.8897 1.98213 11.7416 2.06219ZM12.3515 3.65781C12.9176 4.14186 12.9603 4.14987 13.5933 3.89063C13.8294 3.79393 14.0401 3.71481 14.0616 3.71481C14.0831 3.71481 14.2005 3.87746 14.3224 4.07622C14.7097 4.70729 14.7854 4.7507 15.3947 4.691C16.0332 4.62844 15.9575 4.58015 16.0839 5.13094C16.2388 5.80624 16.2872 5.85601 16.945 6.01562C17.2158 6.08134 17.4441 6.1419 17.4525 6.15022C17.4608 6.15854 17.4485 6.37132 17.425 6.62305C17.4016 6.87479 17.3938 7.13258 17.4078 7.19599C17.4481 7.37986 17.6034 7.52923 18.0009 7.76639C18.2051 7.88825 18.3796 8.00738 18.3887 8.03113C18.3978 8.05489 18.3257 8.26427 18.2284 8.49643C18.0468 8.92996 18.011 9.152 18.0966 9.3143C18.1213 9.36122 18.2801 9.56111 18.4493 9.75846L18.7571 10.1173L18.5062 10.405C17.9706 11.0192 17.9599 11.072 18.2355 11.7496C18.4014 12.1574 18.4132 12.2062 18.3553 12.2464C18.32 12.2708 18.1229 12.3927 17.9174 12.5172C17.3924 12.835 17.366 12.8914 17.423 13.5724C17.4465 13.8524 17.4612 14.0851 17.4558 14.0895C17.4504 14.0938 17.2433 14.1441 16.9957 14.2012C16.5008 14.3152 16.3255 14.3998 16.2419 14.565C16.2115 14.6251 16.1364 14.882 16.075 15.136L15.9634 15.5978L15.8451 15.5772C15.7801 15.5659 15.5422 15.5459 15.3166 15.5327C14.7618 15.5002 14.7145 15.5276 14.3699 16.0806C14.2253 16.3126 14.0996 16.5098 14.0906 16.5189C14.0816 16.5278 13.8782 16.4549 13.6386 16.3568C13.2148 16.1832 12.9798 16.1418 12.8084 16.2105C12.772 16.2251 12.5837 16.3733 12.39 16.5398C12.1964 16.7064 12.0215 16.8426 12.0014 16.8426C11.9814 16.8426 11.7948 16.6989 11.5868 16.5233C11.2368 16.2278 11.1933 16.2027 11.0051 16.1871C10.8294 16.1725 10.7416 16.1954 10.3614 16.3548C10.1193 16.4564 9.91289 16.5312 9.90274 16.521C9.89254 16.5108 9.76587 16.3126 9.62123 16.0806C9.27662 15.5276 9.22935 15.5002 8.67454 15.5327C8.44891 15.5459 8.21108 15.5659 8.14603 15.5772L8.02776 15.5978L7.91614 15.136C7.85472 14.882 7.77962 14.6251 7.74923 14.565C7.66577 14.4001 7.49065 14.3153 6.99543 14.2C6.7478 14.1424 6.54064 14.092 6.53506 14.0881C6.52951 14.0842 6.54389 13.8593 6.56706 13.5883C6.60609 13.1314 6.60363 13.0832 6.53275 12.923C6.46559 12.7712 6.40358 12.7176 6.02213 12.4819C5.78333 12.3344 5.58794 12.2011 5.58794 12.1857C5.58794 12.1704 5.66706 11.9646 5.76376 11.7286C6.03081 11.0765 6.01815 11.0164 5.48495 10.405L5.234 10.1173L5.5418 9.75846C5.71105 9.56111 5.86984 9.36122 5.89457 9.3143C5.98002 9.15223 5.94438 8.92996 5.76376 8.49885C5.66706 8.26806 5.58794 8.06528 5.58794 8.04828C5.58794 8.03125 5.75055 7.91755 5.94935 7.79557C6.60339 7.39424 6.63145 7.34169 6.56725 6.63845C6.5435 6.37796 6.5292 6.15967 6.53553 6.15338C6.54182 6.14705 6.76636 6.08813 7.03446 6.02242C7.47846 5.9136 7.53426 5.88989 7.66007 5.75634C7.7815 5.62745 7.81139 5.55196 7.90762 5.13113C8.03358 4.58008 7.9579 4.62844 8.5964 4.691C9.20571 4.7507 9.28143 4.70729 9.6687 4.07622C9.79068 3.87746 9.9118 3.71481 9.9379 3.71481C9.964 3.71481 10.1731 3.79393 10.4026 3.89063C11.0207 4.15108 11.0685 4.14275 11.6087 3.68035C11.8108 3.50746 11.983 3.36536 11.9915 3.36458C12.0001 3.3638 12.1621 3.49574 12.3515 3.65781ZM14.418 6.53198C14.3642 6.55296 13.6566 7.23299 12.8455 8.0432L11.3706 9.51626L10.674 8.82044C9.63959 7.78717 9.75579 7.77299 8.43058 9.09429C7.89574 9.62753 7.43295 10.1113 7.40216 10.1693C7.33035 10.3046 7.33027 10.5653 7.40204 10.7007C7.43279 10.7587 8.27231 11.6181 9.26768 12.6105C11.2284 14.5654 11.1566 14.5069 11.517 14.4413C11.6464 14.4177 11.9657 14.113 14.2547 11.829C15.6798 10.4069 16.871 9.19587 16.9017 9.13785C16.9325 9.07979 16.9576 8.94512 16.9576 8.83853C16.9576 8.58418 16.8844 8.49436 15.8165 7.43721C14.8638 6.494 14.7325 6.40906 14.418 6.53198ZM15.0923 8.39391L15.5506 8.85334L13.4506 10.9531L11.3505 13.0528L10.0421 11.7439L8.73358 10.435L9.21188 9.9567L9.69015 9.4784L10.3642 10.1479C10.735 10.5161 11.0767 10.8368 11.1237 10.8606C11.2432 10.9212 11.5106 10.9145 11.6361 10.8478C11.6941 10.817 12.3833 10.1489 13.1675 9.3631C13.9517 8.57734 14.6025 7.93447 14.6137 7.93447C14.6249 7.93447 14.8403 8.14123 15.0923 8.39391ZM6.42027 15.2644C6.57491 15.299 6.71631 15.3411 6.73448 15.358C6.75264 15.3749 6.82617 15.628 6.89791 15.9204C6.96964 16.2128 7.0649 16.5034 7.1096 16.5662C7.25123 16.765 7.45467 16.8134 7.952 16.7662C8.69474 16.6958 8.61703 16.6651 8.90346 17.1425L9.15187 17.5565L7.77095 18.9379L6.39007 20.3192L6.07324 19.3754C5.80674 18.5815 5.7375 18.4147 5.63736 18.3252C5.55184 18.2488 5.25869 18.1326 4.59562 17.9122L3.67288 17.6056L4.87435 16.4036C5.53519 15.7426 6.09008 15.2017 6.10747 15.2017C6.12481 15.2017 6.26559 15.2299 6.42027 15.2644ZM19.1168 16.4036L20.3183 17.6056L19.3955 17.9122C18.7325 18.1326 18.4393 18.2488 18.3538 18.3252C18.2536 18.4147 18.1844 18.5815 17.9179 19.3754L17.6011 20.3192L16.2202 18.9379L14.8393 17.5565L15.0877 17.1425C15.3741 16.6651 15.2964 16.6958 16.0391 16.7662C16.5365 16.8134 16.7399 16.765 16.8815 16.5662C16.9262 16.5034 17.0213 16.2136 17.0928 15.9222C17.1643 15.6307 17.2346 15.3801 17.2489 15.3653C17.2755 15.3381 17.7483 15.214 17.8564 15.206C17.8888 15.2036 18.4559 15.7426 19.1168 16.4036Z" fill="#424C60"/>
</svg>
