<svg width="27" height="28" viewBox="0 0 27 28" fill="none" xmlns="http://www.w3.org/2000/svg">
<path fill-rule="evenodd" clip-rule="evenodd" d="M24.7458 8.16449L23.9159 6.72437C23.2138 5.50581 21.6579 5.08543 20.4376 5.78463V5.78463C19.8568 6.1268 19.1637 6.22388 18.5112 6.05446C17.8587 5.88504 17.3004 5.46303 16.9594 4.8815C16.74 4.51187 16.6221 4.09087 16.6176 3.66106V3.66106C16.6374 2.97197 16.3775 2.30421 15.8969 1.8099C15.4164 1.31559 14.7563 1.03683 14.0669 1.03711H12.3949C11.7195 1.0371 11.072 1.30623 10.5956 1.78493C10.1192 2.26364 9.85315 2.91246 9.85639 3.58783V3.58783C9.83638 4.98224 8.70022 6.10209 7.30567 6.10195C6.87586 6.09748 6.45486 5.9796 6.08523 5.76022V5.76022C4.865 5.06103 3.30906 5.4814 2.60697 6.69996L1.71604 8.16449C1.01479 9.38153 1.42945 10.9365 2.64358 11.6428V11.6428C3.43278 12.0984 3.91896 12.9405 3.91896 13.8518C3.91896 14.763 3.43278 15.6051 2.64358 16.0608V16.0608C1.43099 16.7623 1.01588 18.3134 1.71604 19.5268V19.5268L2.55815 20.9791C2.88711 21.5727 3.43905 22.0107 4.09184 22.1963C4.74463 22.3818 5.44443 22.2995 6.03641 21.9677V21.9677C6.61835 21.6281 7.31183 21.5351 7.9627 21.7093C8.61357 21.8834 9.1679 22.3104 9.50247 22.8952C9.72184 23.2649 9.83973 23.6859 9.84419 24.1157V24.1157C9.84419 25.5244 10.9862 26.6664 12.3949 26.6664H14.0669C15.4709 26.6664 16.6109 25.5318 16.6176 24.1279V24.1279C16.6144 23.4504 16.8821 22.7997 17.3611 22.3206C17.8402 21.8416 18.4909 21.5739 19.1684 21.5772C19.5971 21.5886 20.0164 21.706 20.3888 21.9189V21.9189C21.6059 22.6201 23.1608 22.2055 23.8671 20.9913V20.9913L24.7458 19.5268C25.0859 18.943 25.1793 18.2477 25.0052 17.5948C24.8311 16.942 24.4039 16.3855 23.8183 16.0486V16.0486C23.2326 15.7116 22.8054 15.1551 22.6313 14.5023C22.4572 13.8494 22.5506 13.1541 22.8907 12.5703C23.1119 12.1841 23.4321 11.8639 23.8183 11.6428V11.6428C25.0251 10.9369 25.4388 9.391 24.7458 8.1767V8.1767V8.16449Z" stroke="#EB5E10" stroke-width="2" stroke-linecap="round" stroke-linejoin="round"/>
<circle cx="13.2336" cy="13.8513" r="3.51487" stroke="#EB5E10" stroke-width="2" stroke-linecap="round" stroke-linejoin="round"/>
</svg>
