<svg width="104" height="104" viewBox="0 0 104 104" fill="none" xmlns="http://www.w3.org/2000/svg">
<circle cx="52" cy="52" r="52" fill="#EEF9F3"/>
<path fill-rule="evenodd" clip-rule="evenodd" d="M40.3897 32.0557V33.1114H44.6477H48.9058L48.9056 34.783L48.9054 36.4545L48.501 36.6631C47.9675 36.9381 47.3716 37.5503 47.1258 38.0757C47.0178 38.3066 46.9045 38.5416 46.874 38.5977C46.8435 38.6539 46.1482 38.9225 45.3289 39.1946L43.8393 39.6893L43.2326 41.5092C42.899 42.5101 42.6533 43.354 42.6868 43.3845C42.7949 43.4832 44.5495 44.0366 44.5994 43.9877C44.626 43.9617 44.8403 43.3649 45.0756 42.6616L45.5036 41.3828L46.2017 41.1526C46.5857 41.0259 46.9528 40.9055 47.0174 40.8849C47.0941 40.8605 47.1507 40.8972 47.1803 40.9907C47.2648 41.2566 47.7819 41.8387 48.1514 42.0838C48.7146 42.4573 49.2471 42.6129 49.9615 42.6129C50.6759 42.6129 51.2084 42.4573 51.7716 42.0838C52.1394 41.8399 52.6582 41.2569 52.7417 40.9936C52.7991 40.8128 52.8183 40.8154 53.6871 41.122L54.4214 41.3812L54.8484 42.6608C55.0831 43.3646 55.297 43.9617 55.3236 43.9877C55.3735 44.0366 57.1281 43.4832 57.2362 43.3845C57.2697 43.354 57.024 42.5101 56.6904 41.5092L56.0838 39.6893L54.5889 39.1929L53.0941 38.6964L52.8285 38.1502C52.513 37.5014 52.0076 36.9673 51.4221 36.6641L51.0176 36.4545L51.0174 34.783L51.0172 33.1114H55.2753H59.5334V32.0557V31H49.9615H40.3897V32.0557ZM35.1111 50.6012V54.2962H39.3691H43.6272V50.6012V46.9062H39.3691H35.1111V50.6012ZM45.7386 50.6012V54.2962H49.9615H54.1844V50.6012V46.9062H49.9615H45.7386V50.6012ZM56.2958 50.6012V54.2962H60.5539H64.8119V50.6012V46.9062H60.5539H56.2958V50.6012ZM36.7298 56.4793C36.0099 56.5659 35.4064 56.7438 34.7592 57.0601C34.2776 57.2955 34.0356 57.4765 33.5184 57.9886C32.9621 58.5392 32.8331 58.7144 32.5578 59.2933C32.1312 60.19 31.9928 60.8082 32.0003 61.784C32.0194 64.2882 33.4973 66.2026 35.9083 66.8464L36.4835 67H49.9615H63.4395L64.0128 66.8469C66.431 66.201 67.9156 64.266 67.9184 61.7566C67.9194 60.7758 67.7625 60.0949 67.3343 59.2229C67.0955 58.7367 66.9208 58.5053 66.4013 57.9879C65.6698 57.2592 65.0022 56.88 63.9674 56.6053L63.3691 56.4465L50.2782 56.4354C43.0782 56.4294 36.9814 56.4491 36.7298 56.4793ZM41.3662 58.722C42.7585 59.1554 43.5972 60.3465 43.577 61.8622C43.5525 63.705 41.7448 65.1895 39.9206 64.8646C38.2124 64.5604 37.0361 62.9703 37.2911 61.3098C37.4834 60.0572 38.2863 59.1008 39.4605 58.7253C39.9995 58.553 40.8185 58.5516 41.3662 58.722ZM50.7278 58.6641C52.425 59.0554 53.4691 60.8338 53.0201 62.5688C52.7169 63.7407 51.6827 64.6575 50.42 64.8738C48.9092 65.1326 47.2921 64.0728 46.9029 62.5688C46.4591 60.8538 47.5003 59.0585 49.1661 58.6666C49.5353 58.5797 50.356 58.5783 50.7278 58.6641ZM60.4395 58.722C61.6311 59.0929 62.4377 60.045 62.6319 61.3098C62.9478 63.3671 61.0726 65.2102 59.0144 64.8654C57.2901 64.5765 56.1288 63.0131 56.37 61.3055C56.5442 60.0721 57.3585 59.1011 58.5338 58.7253C59.0728 58.553 59.8918 58.5516 60.4395 58.722ZM40.0026 60.7634C39.9251 60.7971 39.7748 60.9119 39.6684 61.0185C39.1116 61.5768 39.3825 62.5118 40.1694 62.7475C40.4293 62.8254 40.5048 62.8197 40.7898 62.7011C41.5255 62.3947 41.6974 61.5535 41.1385 60.9946C40.9292 60.7853 40.8364 60.745 40.5179 60.7253C40.3119 60.7126 40.08 60.7297 40.0026 60.7634ZM49.3913 60.8606C48.9246 61.1724 48.7809 61.7615 49.0532 62.246C49.2453 62.5879 49.5599 62.769 49.9615 62.769C50.3631 62.769 50.6777 62.5879 50.8698 62.246C51.2648 61.5432 50.7696 60.7009 49.9615 60.7009C49.7345 60.7009 49.5553 60.7511 49.3913 60.8606ZM59.0759 60.7684C58.8432 60.8653 58.5401 61.2328 58.485 61.4848C58.3716 62.0041 58.6068 62.4713 59.089 62.6846C60.0224 63.0974 60.927 62.0468 60.3886 61.1755C60.1411 60.7752 59.5213 60.583 59.0759 60.7684Z" fill="#27AE60"/>
</svg>
