<svg width="104" height="104" viewBox="0 0 104 104" fill="none" xmlns="http://www.w3.org/2000/svg">
<circle cx="52" cy="52" r="52" fill="#F9ECED"/>
<path fill-rule="evenodd" clip-rule="evenodd" d="M34.1744 34.1454C33.8956 34.2205 33.486 34.3745 33.2641 34.4877C32.7042 34.7732 31.9136 35.5454 31.6103 36.1026C31.0819 37.0737 31.0601 37.3151 31.0601 42.2244V46.7426L32.7741 46.7413L34.4881 46.7401L35.0675 45.3656C35.3862 44.6096 35.7229 43.9149 35.8159 43.8218C36.0324 43.6051 36.3966 43.6049 36.5837 43.8216C36.6639 43.9145 36.9334 44.8162 37.1826 45.8252C37.4319 46.8343 37.683 47.8338 37.7409 48.0462C37.8379 48.4025 37.9236 48.0208 38.8463 43.1215C39.6129 39.0512 39.8848 37.7823 40.0103 37.6898C40.3522 37.4377 40.8279 37.6103 40.9435 38.0283C40.9692 38.1209 41.3296 40.9425 41.7445 44.2984C42.1593 47.6543 42.5104 50.3885 42.5245 50.3743C42.5474 50.3514 44.1928 42.3417 44.1928 42.2534C44.1928 42.2339 44.261 42.1496 44.3445 42.0661C44.5381 41.8726 45.0015 41.8702 45.1606 42.062C45.2279 42.1431 45.5551 43.1099 45.8877 44.2105C46.2202 45.311 46.5166 46.1463 46.5463 46.0667C46.5761 45.987 46.7368 45.4873 46.9036 44.9562C47.2318 43.9107 47.3922 43.6526 47.7139 43.6526C48.0959 43.6526 48.2401 43.8848 48.7635 45.3424L49.2836 46.7909L52.2665 46.8392C53.9071 46.8657 55.2934 46.9163 55.3473 46.9516C55.4012 46.9868 55.5943 47.3235 55.7764 47.6999C55.9585 48.0762 56.135 48.3842 56.1687 48.3842C56.2025 48.3842 56.2815 48.156 56.3442 47.8772C56.407 47.5984 56.7033 46.3535 57.0026 45.111C57.5582 42.8048 57.6884 42.4938 58.0979 42.4938C58.552 42.4938 58.6005 42.6649 59.4998 47.4439C59.9769 49.9787 60.3895 52.0528 60.4167 52.0531C60.444 52.0534 60.8078 49.3052 61.2252 45.9459C61.7848 41.4402 62.0228 39.794 62.132 39.6693C62.2135 39.5763 62.3969 39.5003 62.5399 39.5003C62.6828 39.5003 62.8673 39.5763 62.9502 39.6693C63.045 39.7758 63.4522 41.5761 64.0515 44.5376C64.5744 47.1222 65.0159 49.2232 65.0327 49.2066C65.0494 49.19 65.2972 48.4062 65.5835 47.4649C66.1131 45.7236 66.2805 45.3907 66.627 45.3907C67.0442 45.3907 67.2356 45.798 67.9178 48.1378C67.9592 48.2799 68.0199 48.1969 68.1655 47.7999C68.4947 46.9018 68.406 46.9357 70.4248 46.9357H72.1962V42.321C72.1962 37.3995 72.1736 37.1194 71.7032 36.1972C71.419 35.64 70.6459 34.8491 70.0898 34.5464C69.0218 33.9651 70.0597 33.9956 51.5838 34.0026C37.337 34.0079 34.6016 34.0304 34.1744 34.1454ZM40.2119 42.2041C40.1791 42.3369 39.7741 44.4661 39.3118 46.9357C38.7774 49.7909 38.4175 51.4874 38.3236 51.5949C38.1113 51.8378 37.6622 51.8118 37.4889 51.5466C37.4109 51.4271 37.0618 50.1593 36.7132 48.7291C36.3646 47.299 36.0644 46.114 36.0462 46.0958C36.0279 46.0776 35.8477 46.4568 35.6457 46.9384C35.4373 47.4357 35.1963 47.8583 35.0885 47.9159C34.9672 47.9808 34.2041 48.0054 32.9793 47.9836L31.0601 47.9496V52.9748C31.0601 58.3393 31.0781 58.5779 31.5532 59.509C31.8374 60.0662 32.6105 60.8571 33.1666 61.1597C34.2338 61.7407 33.2047 61.71 51.6282 61.71C69.8248 61.71 68.9846 61.7326 69.9953 61.2169C70.5524 60.9327 71.3434 60.1596 71.646 59.6035C72.1801 58.6222 72.1962 58.4302 72.1962 53.0472V48.0945H70.7454H69.2945L69.196 48.36C68.3626 50.607 68.207 50.8374 67.6914 50.5887C67.46 50.4771 67.377 50.3034 67.057 49.2597C66.8545 48.5993 66.6747 48.045 66.6574 48.0277C66.6401 48.0103 66.3503 48.9137 66.0134 50.0352C65.5039 51.7306 65.3643 52.0908 65.1845 52.1728C64.8342 52.3323 64.4994 52.1915 64.3848 51.8363C64.3291 51.6638 63.9321 49.7854 63.5026 47.6624C63.0732 45.5393 62.7105 43.7909 62.6967 43.7772C62.6829 43.7634 62.3178 46.5836 61.8853 50.0442C61.3733 54.141 61.0555 56.3772 60.9745 56.4538C60.713 56.7008 60.4273 56.7095 60.1998 56.4774C60.0094 56.2832 59.8551 55.5848 59.0153 51.117C58.4842 48.2917 58.0251 46.0104 57.9951 46.0474C57.9651 46.0846 57.712 47.0709 57.4325 48.2393C57.1532 49.4078 56.8617 50.4615 56.7848 50.581C56.6268 50.8266 56.1607 50.879 55.9877 50.6706C55.9295 50.6003 55.5994 49.9702 55.2541 49.2704L54.6266 47.9979H51.6624C49.0975 47.9979 48.6755 47.9774 48.5297 47.8455C48.4371 47.7616 48.2412 47.348 48.0943 46.9262C47.9476 46.5045 47.7972 46.1929 47.7603 46.2337C47.7233 46.2747 47.5337 46.7919 47.3388 47.3833C46.8975 48.7227 46.6564 48.9779 46.1605 48.6306C46.0157 48.5292 45.8181 48.0116 45.4416 46.7476C45.156 45.7888 44.8992 45.0045 44.8708 45.0045C44.8426 45.0045 44.4352 46.9056 43.9657 49.2291C43.4961 51.5527 43.0689 53.6608 43.0163 53.9139C42.9638 54.1669 42.8563 54.4385 42.7774 54.5174C42.5861 54.7087 42.1244 54.6997 41.9595 54.5015C41.8718 54.3959 41.5643 52.2517 41.0492 48.1524C40.6215 44.7481 40.2447 42.0713 40.2119 42.2041ZM31.0118 63.0504C30.0989 63.4695 29.9974 63.8069 30 66.4143C30.0019 68.2398 30.0254 68.5689 30.178 68.9048C30.3999 69.3933 30.9609 69.8913 31.3719 69.9648C31.5456 69.9958 40.7765 70.0088 51.8847 69.9937L72.0817 69.9661L72.4528 69.6709C72.6569 69.5084 72.9216 69.1842 73.0412 68.9503C73.2472 68.5469 73.2583 68.4157 73.2563 66.397C73.2537 63.7537 73.1482 63.4253 72.1717 63.0172C71.8555 62.8851 69.5782 62.8689 51.6071 62.8708C32.2036 62.8729 31.3827 62.88 31.0118 63.0504ZM54.8639 64.0144C55.3507 64.2356 55.8359 64.7814 55.9677 65.2561C56.1012 65.7365 56.0975 67.3529 55.9619 67.8415C55.822 68.3452 55.1734 68.9938 54.6696 69.1337C54.1492 69.2782 42.367 69.2835 41.8485 69.1396C41.3738 69.0078 40.828 68.5225 40.6069 68.0357C40.3718 67.5183 40.3525 65.6475 40.5768 65.1107C40.7756 64.6347 41.1605 64.2365 41.6338 64.0174C41.9972 63.8492 42.3895 63.8386 48.2484 63.8386C54.0667 63.8386 54.5023 63.8502 54.8639 64.0144ZM35.3796 64.2832C35.6253 64.3705 35.9362 64.5964 36.1593 64.8499C36.7911 65.5677 36.9218 66.4225 36.5288 67.2663C36.1358 68.1103 35.4203 68.566 34.4881 68.566C33.556 68.566 32.8405 68.1103 32.4475 67.2663C32.0643 66.4435 32.1828 65.5853 32.7752 64.8933C33.4546 64.0995 34.303 63.9008 35.3796 64.2832ZM65.0505 64.8966C65.2285 65.0745 65.2436 65.2184 65.2436 66.7313C65.2436 68.9342 65.4562 68.7591 62.7813 68.7591C60.1064 68.7591 60.3189 68.9342 60.3189 66.7313C60.3189 64.5284 60.1064 64.7034 62.7813 64.7034C64.7287 64.7034 64.8694 64.7154 65.0505 64.8966ZM70.7478 64.8966C70.9257 65.0745 70.9409 65.2184 70.9409 66.7313C70.9409 68.928 71.1379 68.7591 68.5751 68.7591C66.0123 68.7591 66.2093 68.928 66.2093 66.7313C66.2093 64.5345 66.0123 64.7034 68.5751 64.7034C70.4259 64.7034 70.5672 64.716 70.7478 64.8966ZM41.8678 65.2754C41.5929 65.5503 41.5856 65.5832 41.5856 66.5381C41.5856 67.4931 41.5929 67.526 41.8678 67.8009L42.1501 68.0832H48.2484H54.3468L54.6291 67.8009C54.904 67.526 54.9113 67.4931 54.9113 66.5381C54.9113 65.5832 54.904 65.5503 54.6291 65.2754L54.3468 64.9931H48.2484H42.1501L41.8678 65.2754ZM34.1931 65.2965C33.6956 65.4291 33.4259 65.8031 33.4259 66.3608C33.4259 66.7842 33.4648 66.8784 33.7413 67.1254C34.5325 67.8323 35.7544 67.1572 35.5599 66.1207C35.4492 65.5306 34.7951 65.1361 34.1931 65.2965ZM61.4777 66.7313V67.6003H62.7813H64.0849V66.7313V65.8622H62.7813H61.4777V66.7313ZM67.368 66.7313V67.6003H68.5751H69.7821V66.7313V65.8622H68.5751H67.368V66.7313Z" fill="#E65C6A"/>
</svg>
