<svg width="104" height="104" viewBox="0 0 104 104" fill="none" xmlns="http://www.w3.org/2000/svg">
<circle cx="52" cy="52" r="52" fill="#EBF1FA"/>
<path fill-rule="evenodd" clip-rule="evenodd" d="M36.5312 32.464V33.928L38.1383 35.542L39.7453 37.156V38.5779V39.9997H41.031H42.3167V37.6256C42.3167 35.2696 42.3181 35.2501 42.4975 35.0744C42.6484 34.9265 43.1803 34.7977 45.7117 34.2963L48.745 33.6955V32.3477V31H42.6381H36.5312V32.464ZM50.0307 32.2857V32.9285H50.6735H51.3164V32.2857V31.6428H50.6735H50.0307V32.2857ZM47.4795 35.2418C46.7937 35.3794 46.8099 35.3293 47.0574 36.5437C47.5155 38.7918 48.5364 40.7544 50.1382 42.4667L50.62 42.9818L51.126 42.4802L51.632 41.9787L50.9696 41.2906C50.2785 40.5725 49.5846 39.5945 49.1513 38.7278C48.7809 37.9868 48.3687 36.686 48.2557 35.9016C48.2016 35.526 48.136 35.1976 48.1097 35.1718C48.0835 35.146 47.7999 35.1775 47.4795 35.2418ZM44.426 35.846L43.6024 36.0127V36.3991V36.7855H44.6871C45.2838 36.7855 45.7719 36.7613 45.7719 36.7318C45.7719 36.7023 45.7321 36.4492 45.6833 36.1694C45.58 35.5757 45.66 35.5963 44.426 35.846ZM38.4597 41.9282V42.571H41.031H43.6024V41.9282V41.2854H41.031H38.4597V41.9282ZM37.3711 44.0066C36.7779 44.3683 35.4943 46.101 34.98 47.234C34.6306 48.0039 34.3261 48.9396 34.144 49.8029C34.0117 50.4304 34 51.0717 34 57.6918C34 64.8444 34.0012 64.8994 34.1657 65.1197C34.4021 65.4364 34.6907 65.6333 35.0309 65.7101C35.3132 65.7737 35.3321 65.7644 35.4567 65.5017C35.7152 64.9571 36.5141 64.4275 37.0771 64.4275C37.2293 64.4275 37.2392 64.3926 37.1983 63.9971C37.1235 63.2728 37.4208 62.6483 38.061 62.1845L38.3689 61.9615L38.1054 61.5909C37.3365 60.5094 36.9967 58.922 37.2644 57.6615C37.5703 56.2212 38.7949 55.0707 40.2448 54.8617C41.8587 54.6289 42.247 54.4604 42.6911 53.8C42.8307 53.5924 43.114 52.9154 43.3206 52.2955C43.7201 51.097 43.8386 50.9279 44.2801 50.9279C44.4687 50.9279 44.6115 51.0259 44.9457 51.385C45.1796 51.6364 45.4884 52.0151 45.6318 52.2265C45.7751 52.4379 45.918 52.6028 45.9493 52.593C45.9805 52.5832 46.4643 52.1232 47.0243 51.5707L48.0423 50.5663L47.9064 49.8431C47.5438 47.9155 46.6059 46.011 45.3184 44.5883C45.0716 44.3155 44.7672 44.0394 44.6418 43.9746C44.452 43.8764 43.8452 43.8568 41.0149 43.857C37.8443 43.8573 37.5995 43.8673 37.3711 44.0066ZM40.3882 49.8055C40.3882 52.8373 40.3699 52.964 39.8908 53.2561C39.5202 53.4821 38.6848 53.4821 38.3142 53.2561C37.8704 52.9855 37.8168 52.7367 37.8168 50.9451C37.8168 49.1711 37.8799 48.8135 38.3064 48.1697C38.6996 47.576 39.5091 47.0899 40.127 47.0765L40.3882 47.0709V49.8055ZM58.1063 47.7653C56.2671 47.975 54.8363 48.3017 53.5614 48.8032C52.7612 49.118 51.5574 49.696 51.5574 49.7654C51.5574 49.7881 51.7925 50.158 52.0798 50.5876C52.7984 51.6622 52.7871 51.7571 51.859 52.4503C50.0555 53.7974 48.9038 56.0092 48.7711 58.3808L48.7205 59.2848H56.1566H63.5927L63.6444 59.0092C63.7445 58.4757 64.2354 57.639 64.7188 57.178C65.4792 56.4527 66.4217 56.0706 67.4508 56.0706H67.9625L67.9179 55.8496C67.8933 55.7281 67.6541 53.9653 67.3862 51.9323C67.1185 49.8994 66.8786 48.1185 66.8532 47.9749L66.8069 47.7137L62.5772 47.7258C60.2508 47.7324 58.2389 47.7502 58.1063 47.7653ZM68.2191 48.4972C68.2406 48.5746 68.3031 49.0085 68.358 49.4614L68.4578 50.2851H69.2083H69.9586V49.3208V48.3566H69.0693C68.2611 48.3566 68.1836 48.3693 68.2191 48.4972ZM63.6106 50.3382C63.6106 50.4324 64.01 53.6108 64.0558 53.8809L64.1001 54.1421H63.4937H62.8874V53.0537C62.8874 52.0051 62.8802 51.958 62.6902 51.768L62.493 51.5707H60.3161H58.1392L57.942 51.768C57.752 51.958 57.7447 52.0051 57.7447 53.0537V54.1421H56.8207C55.7474 54.1421 55.7724 54.1702 56.0837 53.3125C56.352 52.5733 56.6522 52.0991 57.1815 51.5779C57.7353 51.0325 58.409 50.6567 59.2074 50.4475C59.7025 50.3179 60.0909 50.2933 61.7022 50.2895C62.7519 50.2871 63.6106 50.309 63.6106 50.3382ZM49.9034 50.7776C48.2877 51.9054 46.6135 53.6991 45.5411 55.4511C44.8956 56.5059 43.8434 58.8298 43.8434 59.2009C43.8434 59.2566 44.4456 59.2848 45.6394 59.2848H47.4355L47.4822 58.3808C47.5759 56.5678 48.0813 55.0277 49.0656 53.5561C49.4584 52.9687 50.303 52.0386 50.8183 51.6259L51.0836 51.4134L50.755 50.9296C50.5743 50.6635 50.4158 50.4458 50.4027 50.4458C50.3895 50.4458 50.1648 50.5951 49.9034 50.7776ZM44.3628 53.273C44.0245 54.3063 43.3473 55.1912 42.5717 55.6133C42.0935 55.8736 41.3595 56.0706 40.868 56.0706C40.1788 56.0706 39.6832 56.2806 39.1764 56.7874C38.8236 57.1402 38.685 57.3499 38.5874 57.6787C38.2176 58.9239 38.6591 60.4482 39.6685 61.411C40.1289 61.8501 40.1417 61.8561 40.6195 61.8561H41.1038L41.0564 61.4562C41.0291 61.2252 41.0521 60.9025 41.111 60.692C41.2368 60.2431 41.735 59.6617 42.1516 59.4779C42.4328 59.3539 42.4764 59.2928 42.6 58.8506C42.9512 57.5939 43.8314 55.712 44.6537 54.4598L45.1156 53.7564L44.8333 53.3265C44.6781 53.09 44.5401 52.8852 44.5268 52.8713C44.5135 52.8574 44.4397 53.0382 44.3628 53.273ZM61.6018 53.4992V54.1421H60.3161H59.0304V53.4992V52.8564H60.3161H61.6018V53.4992ZM52.6021 57.3563V57.9991H51.9592H51.3164V57.3563V56.7134H51.9592H52.6021V57.3563ZM55.1734 57.3563V57.9991H54.5306H53.8877V57.3563V56.7134H54.5306H55.1734V57.3563ZM42.514 60.7677C42.3896 60.892 42.3167 61.0567 42.3167 61.2133C42.3167 61.3698 42.3896 61.5345 42.514 61.6588L42.7111 61.8561H53.8877H65.0643L65.2615 61.6588C65.5225 61.3979 65.5225 61.0286 65.2615 60.7677L65.0643 60.5704H53.8877H42.7111L42.514 60.7677ZM38.6576 63.3383C38.396 63.6 38.3957 63.969 38.6569 64.2302L38.8541 64.4275H52.4779H66.1016V65.0703V65.7131H51.5137H36.9256L36.7284 65.9104C36.4672 66.1715 36.4674 66.5406 36.729 66.8022L36.9268 67L52.3923 66.9793L67.8576 66.9586L68.0795 66.7929C68.593 66.4096 68.6328 66.2856 68.6328 65.0703C68.6328 63.8549 68.593 63.731 68.0795 63.3476L67.8577 63.182L53.3565 63.1612L38.8554 63.1405L38.6576 63.3383Z" fill="#2F80ED"/>
</svg>
