<svg width="104" height="104" viewBox="0 0 104 104" fill="none" xmlns="http://www.w3.org/2000/svg">
<circle cx="52" cy="52" r="52" fill="#F8F0EA"/>
<path fill-rule="evenodd" clip-rule="evenodd" d="M53.4886 34.0604C53.0552 34.1455 52.3737 34.4832 52.0286 34.7839C51.4862 35.2567 51.0898 36.0155 50.9861 36.7799L50.936 37.1491H51.9975C52.9065 37.1491 53.0591 37.1336 53.0591 37.0408C53.0591 36.9812 53.1228 36.8076 53.2007 36.655C53.3599 36.3429 53.765 36.0942 54.114 36.0942C54.6491 36.0942 55.1689 36.614 55.1689 37.1491C55.1689 37.4981 54.9202 37.9033 54.6081 38.0625C54.3905 38.1735 54.1932 38.2041 53.6949 38.2041H53.0591V39.4535V40.703L51.3184 41.563L49.5778 42.423L47.6438 42.447C45.8255 42.4696 45.6689 42.4819 45.0271 42.6535C42.8763 43.2287 41.1584 44.6486 40.1883 46.653C39.799 47.4572 39.6639 47.9479 39.3894 49.554L39.1537 50.9336H41.3592H43.5647V49.8786V48.8237H44.6196H45.6746V54.1297V59.4357L48.9624 59.4596C51.9835 59.4815 52.2789 59.4942 52.6019 59.6166C53.7709 60.0593 54.6029 60.9034 54.9999 62.0495C55.1914 62.6026 55.1753 63.7549 54.9679 64.3255C54.8046 64.7752 54.4782 65.3244 54.2539 65.5275C54.177 65.5971 54.114 65.7075 54.114 65.7729C54.114 65.8383 54.177 65.9487 54.2539 66.0184C54.4777 66.2209 54.8043 66.77 54.9687 67.2203C55.1883 67.8216 55.1895 69.021 54.9711 69.5707C54.8866 69.7834 54.8174 69.9654 54.8174 69.9751C54.8173 69.9847 56.5579 69.9926 58.6854 69.9926H62.5535V59.4082V48.8237H63.6084H64.6633V49.8786V50.9336H66.904H69.1447L68.9089 49.554C68.7792 48.7953 68.6104 47.9645 68.5336 47.7079C67.8117 45.2945 65.7478 43.3327 63.2216 42.6587C62.5554 42.4809 62.4164 42.4698 60.5843 42.447L58.6502 42.423L56.9096 41.563L55.1689 40.703L55.1692 40.4205C55.1694 40.1441 55.1792 40.1331 55.6271 39.9015C56.7513 39.3201 57.4329 37.9537 57.2249 36.6981C56.926 34.8942 55.2538 33.7137 53.4886 34.0604ZM55.6659 43.3404C57.4185 44.2174 57.2924 44.0641 56.9239 44.8694C56.3748 46.0693 54.9422 46.8141 53.6193 46.5873C52.6159 46.4152 51.7008 45.7362 51.3042 44.8694C50.9359 44.0645 50.8119 44.2168 52.5452 43.3442C53.3887 42.9195 54.087 42.5703 54.0971 42.5682C54.107 42.5661 54.813 42.9136 55.6659 43.3404ZM38.7824 53.1282C38.7824 53.2344 38.3742 56.6419 38.3187 56.9994L38.2777 57.2631H40.9212H43.5647V55.1533V53.0434H41.1735C39.3556 53.0434 38.7824 53.0637 38.7824 53.1282ZM64.6633 55.1533V57.2631H67.342H70.0207L69.9797 56.9994C69.9241 56.6419 69.516 53.2344 69.516 53.1282C69.516 53.0637 68.935 53.0434 67.0897 53.0434H64.6633V55.1533ZM35.0549 61.6456C34.5223 61.8144 34 62.5521 34 63.1356C34 63.7444 34.5269 64.4623 35.0983 64.632C35.5173 64.7565 51.5418 64.7565 51.9608 64.632C52.5322 64.4623 53.0591 63.7444 53.0591 63.1356C53.0591 62.5267 52.5322 61.8088 51.9608 61.6391C51.566 61.5219 35.4258 61.528 35.0549 61.6456ZM35.0549 66.9203C34.5223 67.089 34 67.8268 34 68.4102C34 69.0191 34.5269 69.737 35.0983 69.9067C35.5173 70.0311 51.5418 70.0311 51.9608 69.9067C52.5322 69.737 53.0591 69.0191 53.0591 68.4102C53.0591 67.8014 52.5322 67.0835 51.9608 66.9138C51.566 66.7965 35.4258 66.8027 35.0549 66.9203Z" fill="#F2994A"/>
</svg>
