<svg width="104" height="104" viewBox="0 0 104 104" fill="none" xmlns="http://www.w3.org/2000/svg">
<circle cx="52" cy="52" r="52" fill="#F4EDF7"/>
<path fill-rule="evenodd" clip-rule="evenodd" d="M60.5256 31.1287C60.2674 31.2889 60.07 31.6201 60.07 31.8929C60.07 32.0092 60.5803 33.252 61.2041 34.6548L62.3383 37.2052H65.0357H67.7331L68.8673 34.6548C69.491 33.252 70.0014 32.0092 70.0014 31.8929C70.0014 31.6138 69.7991 31.2823 69.5327 31.125C69.3407 31.0116 68.8621 30.9983 65.0237 31.0002C61.1912 31.0019 60.7075 31.0158 60.5256 31.1287ZM53.2422 37.3022C53.2424 37.5321 53.7194 38.375 54.1533 38.9122C54.8628 39.7904 55.885 40.6055 56.5706 40.8395C57.0628 41.0075 57.074 40.9525 56.7034 40.1902C56.2094 39.1737 54.9843 37.9413 53.9697 37.4399C53.4605 37.1884 53.2421 37.147 53.2422 37.3022ZM63.2056 39.6687L63.6139 40.8907H65.0357H66.4575L66.8658 39.6687L67.274 38.4466H65.0357H62.7973L63.2056 39.6687ZM53.2421 43.5963V47.3671L53.44 48.0471C53.6543 48.7833 53.8617 50.0025 53.8624 50.5311L53.8628 50.8609H55.4146H56.9664V46.5258V42.1908L56.6563 42.1411C55.8881 42.0183 54.9373 41.4388 53.9274 40.4778L53.2421 39.8256V43.5963ZM42.884 42.2178C39.9041 42.6582 37.4649 44.382 36.1811 46.9549C34.9183 49.4855 34.9315 52.2811 36.2183 54.8113C36.8814 56.1155 37.8504 57.2224 39.0326 58.0265L39.4486 58.3095H43.9313H48.4139L48.9077 57.9806C49.1792 57.7997 49.6982 57.3541 50.061 56.9904C53.3542 53.6879 53.4679 48.4715 50.3231 44.9694C49.2462 43.7702 47.6077 42.8131 45.9168 42.3955C45.3047 42.2444 43.4428 42.1353 42.884 42.2178ZM63.8129 54.1916C63.833 66.1958 63.8333 66.2125 63.993 66.4264C64.297 66.8336 64.545 66.9606 65.0357 66.9606C65.5263 66.9606 65.7743 66.8336 66.0783 66.4264C66.2381 66.2125 66.2383 66.1958 66.2584 54.1916L66.2786 42.1709H65.0357H63.7928L63.8129 54.1916ZM45.64 44.2574C49.5088 45.2945 51.6505 49.2911 50.3737 53.0907C49.7335 54.9959 48.0664 56.663 46.1613 57.3032C41.2361 58.9583 36.3247 54.7879 37.2128 49.7051C37.6989 46.9235 39.9067 44.6736 42.6624 44.1518C43.4723 43.9984 44.8571 44.0475 45.64 44.2574ZM42.8452 45.3854C41.1717 45.7407 39.7127 46.8465 38.9765 48.3174C38.5012 49.2671 38.3843 49.7915 38.3921 50.9385C38.3978 51.7651 38.4289 52.0001 38.6027 52.5291C38.8947 53.4182 39.3027 54.0691 40.0129 54.7794C41.0286 55.795 42.1608 56.3229 43.5328 56.4202C46.903 56.6594 49.7081 53.8654 49.4902 50.4862C49.4369 49.6586 49.1504 48.7229 48.7315 48.0086C48.3565 47.3691 47.3361 46.3678 46.6988 46.0138C45.555 45.3787 44.0402 45.1316 42.8452 45.3854ZM43.3223 49.0033C43.5293 49.2192 43.6986 49.4203 43.6986 49.4502C43.6986 49.4801 43.0178 50.1847 42.1857 51.016L40.6727 52.5275L40.2274 52.0821L39.7819 51.6367L41.2935 50.1237C42.1248 49.2917 42.8366 48.6108 42.8754 48.6108C42.9142 48.6108 43.1153 48.7874 43.3223 49.0033ZM47.6538 49.6032C47.8682 49.8078 48.0436 50.0089 48.0436 50.0502C48.0436 50.0915 47.3628 50.8054 46.5307 51.6367L45.0177 53.1482L44.5724 52.7028L44.1269 52.2574L45.6385 50.7444C46.4697 49.9124 47.1756 49.2315 47.207 49.2315C47.2384 49.2315 47.4395 49.3988 47.6538 49.6032ZM53.7429 52.3933C53.7157 52.5533 53.662 52.8064 53.6234 52.9558C53.5849 53.1052 53.5532 53.2535 53.5529 53.2856C53.5527 53.3176 54.4603 53.3437 55.5698 53.3437H57.5871V52.723V52.1023H55.6897H53.7923L53.7429 52.3933ZM52.8382 55.2094L52.5506 55.8266H55.6896H58.8285V55.2059V54.5852L55.9771 54.5887L53.1257 54.5922L52.8382 55.2094ZM51.075 57.6986L50.4984 58.3095H51.3763C52.5021 58.3095 52.7924 58.3976 53.2836 58.8887C53.7887 59.3938 53.8628 59.66 53.8628 60.9673V62.0164L54.136 62.0677C54.4992 62.1358 54.9266 62.5225 55.0337 62.8799C55.0881 63.0616 55.11 63.6719 55.0928 64.5266L55.0655 65.8846L54.7887 66.442L54.5119 66.9994H56.4798H58.4477L58.6381 66.809L58.8285 66.6186V61.8433V57.068L55.24 57.0779L51.6515 57.0877L51.075 57.6986ZM35.4319 59.7414C35.2484 59.9248 35.2414 59.9703 35.2414 60.9828V62.0337H43.9314H52.6214V60.9828C52.6214 59.9703 52.6144 59.9248 52.4309 59.7414L52.2405 59.5509H43.9314H35.6223L35.4319 59.7414ZM34 64.333C34 64.9368 34.0405 65.528 34.0943 65.7102C34.2203 66.1364 34.863 66.7792 35.2892 66.9051C35.5313 66.9766 37.6268 66.9994 43.946 66.9994C53.3943 66.9994 52.7473 67.0421 53.3429 66.3797C53.7885 65.8841 53.8628 65.5914 53.8628 64.333V63.2752H51.2269H48.5909L47.7653 64.3808C47.3113 64.9889 46.87 65.5476 46.7848 65.6222C46.6436 65.746 46.3906 65.758 43.9314 65.758C41.4722 65.758 41.2192 65.746 41.078 65.6222C40.9928 65.5476 40.5516 64.9889 40.0975 64.3808L39.272 63.2752H36.6359H34V64.333ZM41.2934 63.8959L41.7659 64.5166H43.9314H46.0969L46.5694 63.8959L47.042 63.2752H43.9314H40.8209L41.2934 63.8959Z" fill="#BB6BD9"/>
</svg>
