<svg width="21" height="21" viewBox="0 0 21 21" fill="none" xmlns="http://www.w3.org/2000/svg">
<mask id="mask0_2383_6504" style="mask-type:alpha" maskUnits="userSpaceOnUse" x="0" y="0" width="21" height="21">
<path fill-rule="evenodd" clip-rule="evenodd" d="M0 0H20.4996V20.4995H0V0Z" fill="white"/>
</mask>
<g mask="url(#mask0_2383_6504)">
<path fill-rule="evenodd" clip-rule="evenodd" d="M2.35908 3.06067C2.36108 3.06067 2.31108 3.11266 2.24808 3.17466C2.00608 3.40966 1.50508 3.89866 1.50008 4.92167C1.49208 6.35266 2.43308 9.00966 6.96408 13.5397C11.4741 18.0477 14.1271 18.9997 15.5611 18.9997H15.5821C16.6051 18.9947 17.0931 18.4927 17.3291 18.2517C17.4011 18.1777 17.4591 18.1237 17.5001 18.0897C18.4961 17.0877 19.0061 16.3417 19.0011 15.8637C18.9941 15.3757 18.3871 14.7987 17.5481 14.0007C17.2811 13.7467 16.9911 13.4707 16.6851 13.1647C15.8921 12.3737 15.4991 12.5087 14.6351 12.8127C13.4401 13.2317 11.8001 13.8017 9.25208 11.2527C6.70008 8.70267 7.27108 7.06466 7.68908 5.86967C7.99108 5.00566 8.12908 4.61167 7.33508 3.81767C7.02408 3.50767 6.74508 3.21367 6.48808 2.94367C5.69508 2.10967 5.12308 1.50666 4.63808 1.49967H4.63008C4.15108 1.49967 3.40708 2.01167 2.35408 3.06467C2.35708 3.06167 2.35808 3.06067 2.35908 3.06067ZM15.5621 20.4997C13.0701 20.4997 9.82108 18.5157 5.90408 14.6007C1.97208 10.6697 -0.0149157 7.41067 8.42937e-05 4.91367C0.00908429 3.26367 0.874084 2.41866 1.19908 2.10167C1.21608 2.08067 1.27408 2.02366 1.29408 2.00366C2.72808 0.568665 3.69508 -0.0113349 4.65708 -0.00033494C5.77408 0.0146651 6.56908 0.850665 7.57508 1.90967C7.82408 2.17167 8.09408 2.45667 8.39508 2.75666C9.85508 4.21667 9.43908 5.40767 9.10508 6.36367C8.74108 7.40667 8.42608 8.30667 10.3121 10.1927C12.2001 12.0787 13.1001 11.7637 14.1391 11.3967C15.0961 11.0627 16.2841 10.6447 17.7461 12.1047C18.0421 12.4007 18.3231 12.6677 18.5821 12.9147C19.6461 13.9257 20.4861 14.7247 20.5001 15.8447C20.5121 16.7997 19.9321 17.7727 18.5001 19.2057L17.8661 18.7757L18.4021 19.2997C18.0851 19.6247 17.2411 20.4907 15.5901 20.4997H15.5621Z" fill="#130F26"/>
</g>
</svg>
