<svg width="20" height="20" viewBox="0 0 20 20" fill="none" xmlns="http://www.w3.org/2000/svg">
<path d="M12.0601 7.90979H13.0601C13.1892 7.90981 13.3128 7.85787 13.4031 7.76568C13.4934 7.67349 13.5428 7.54881 13.5401 7.41979V5.81979C13.541 5.56955 13.3495 5.36064 13.1001 5.33979C13.1001 5.33979 12.3901 5.27979 11.5201 5.27979C9.38011 5.27979 8.20011 6.54979 8.20011 8.84979V10.6198H6.23011C6.10198 10.617 5.97828 10.6667 5.88766 10.7573C5.79704 10.848 5.74735 10.9717 5.75011 11.0998V12.5598C5.74735 12.6879 5.79704 12.8116 5.88766 12.9022C5.97828 12.9929 6.10198 13.0425 6.23011 13.0398H8.17011V18.6998H11.0901V13.0398H12.8501C13.0918 13.0373 13.2956 12.859 13.3301 12.6198L13.5101 11.1598C13.5284 11.0216 13.4845 10.8824 13.3901 10.7798C13.2985 10.6774 13.1675 10.6191 13.0301 10.6198H11.0901V8.90979C11.0899 8.36901 11.5196 7.92601 12.0601 7.90979Z" fill="#2F80ED"/>
<path fill-rule="evenodd" clip-rule="evenodd" d="M0 9.91C0 4.43686 4.43686 0 9.91 0C12.5383 0 15.0589 1.04409 16.9174 2.90257C18.7759 4.76106 19.82 7.2817 19.82 9.91C19.82 15.3831 15.3831 19.82 9.91 19.82C4.43686 19.82 0 15.3831 0 9.91ZM18.32 9.91C18.32 5.26529 14.5547 1.5 9.91 1.5C5.26984 1.511 1.51099 5.26985 1.5 9.91C1.5 14.5547 5.26528 18.32 9.91 18.32C14.5547 18.32 18.32 14.5547 18.32 9.91Z" fill="#2F80ED"/>
</svg>
