<svg width="21" height="21" viewBox="0 0 21 21" fill="none" xmlns="http://www.w3.org/2000/svg">
<path d="M9.4923 0.789062H5.7533C2.6783 0.789062 0.750305 2.96606 0.750305 6.04806V14.3621C0.750305 17.4441 2.6693 19.6211 5.7533 19.6211H14.5773C17.6623 19.6211 19.5813 17.4441 19.5813 14.3621V10.3341" stroke="#E65C6A" stroke-width="1.5" stroke-linecap="round" stroke-linejoin="round"/>
<path fill-rule="evenodd" clip-rule="evenodd" d="M6.82782 8.92099L14.3008 1.44799C15.2318 0.517988 16.7408 0.517988 17.6718 1.44799L18.8888 2.66499C19.8198 3.59599 19.8198 5.10599 18.8888 6.03599L11.3798 13.545C10.9728 13.952 10.4208 14.181 9.84482 14.181H6.09882L6.19282 10.401C6.20682 9.84499 6.43382 9.31499 6.82782 8.92099Z" stroke="#E65C6A" stroke-width="1.5" stroke-linecap="round" stroke-linejoin="round"/>
<path d="M13.1652 2.60254L17.7312 7.16854" stroke="#E65C6A" stroke-width="1.5" stroke-linecap="round" stroke-linejoin="round"/>
</svg>
