<svg width="41" height="25" viewBox="0 0 41 25" fill="none" xmlns="http://www.w3.org/2000/svg">
<path d="M26.0444 22.3296H14.9551V2.6748H26.0444V22.3296Z" fill="#FF5F00"/>
<path d="M15.6651 12.5C15.6651 8.51294 17.5579 4.96138 20.5056 2.67261C18.35 0.998951 15.6296 1.90735e-06 12.6731 1.90735e-06C5.67375 1.90735e-06 0 5.59635 0 12.5C0 19.4036 5.67375 25 12.6731 25C15.6296 25 18.35 24.001 20.5056 22.3274C17.5579 20.0386 15.6651 16.4871 15.6651 12.5Z" fill="#EB001B"/>
<path d="M40.9996 12.5C40.9996 19.4036 35.3258 25 28.3265 25C25.37 25 22.6495 24.001 20.4932 22.3274C23.4416 20.0386 25.3345 16.4871 25.3345 12.5C25.3345 8.51294 23.4416 4.96138 20.4932 2.67261C22.6495 0.998951 25.37 1.90735e-06 28.3265 1.90735e-06C35.3258 1.90735e-06 40.9996 5.59635 40.9996 12.5Z" fill="#F79E1B"/>
</svg>
