<svg width="36" height="36" viewBox="0 0 36 36" fill="none" xmlns="http://www.w3.org/2000/svg">
<g clip-path="url(#clip0_729_9566)">
<path d="M11.1719 8.06885H13.6546V15.5171H11.1719V8.06885Z" fill="#CED2DC"/>
<path d="M4.34473 8.06885H6.82749V15.5171H4.34473V8.06885Z" fill="#CED2DC"/>
<path d="M18 8.06885H20.4828V15.5171H18V8.06885Z" fill="#CED2DC"/>
<path d="M11.1724 14.2759H13.6552C13.998 14.2759 14.2759 14.5538 14.2759 14.8966V17.3793H10.5518V14.8966C10.5518 14.5538 10.8297 14.2759 11.1724 14.2759Z" fill="#295474"/>
<path d="M17.9996 14.2759H20.4823C20.8251 14.2759 21.103 14.5538 21.103 14.8966V17.3793H17.3789V14.8966C17.3789 14.5538 17.6568 14.2759 17.9996 14.2759Z" fill="#295474"/>
<path d="M4.3453 14.2759H6.82806C7.17085 14.2759 7.44875 14.5538 7.44875 14.8966V17.3793H3.72461V14.8966C3.72461 14.5538 4.0025 14.2759 4.3453 14.2759Z" fill="#295474"/>
<path d="M22.3447 22.3447H24.8275V29.793H22.3447V22.3447Z" fill="#CED2DC"/>
<path d="M15.5176 22.3447H18.0003V29.793H15.5176V22.3447Z" fill="#CED2DC"/>
<path d="M29.1729 22.3447H31.6556V29.793H29.1729V22.3447Z" fill="#CED2DC"/>
<path d="M22.3453 28.5518H24.8281C25.1709 28.5518 25.4487 28.8297 25.4487 29.1725V31.6552H21.7246V29.1725C21.7246 28.8297 22.0025 28.5518 22.3453 28.5518Z" fill="#F7AD00"/>
<path d="M29.1724 28.5518H31.6552C31.998 28.5518 32.2759 28.8297 32.2759 29.1725V31.6552H28.5518V29.1725C28.5518 28.8297 28.8297 28.5518 29.1724 28.5518Z" fill="#F7AD00"/>
<path d="M15.5172 28.5518H17.9999C18.3427 28.5518 18.6206 28.8297 18.6206 29.1725V31.6552H14.8965V29.1725C14.8965 28.8297 15.1744 28.5518 15.5172 28.5518Z" fill="#F7AD00"/>
<path d="M19.8623 19.8622H1.8623V18.0002C1.86435 17.3154 2.41894 16.7608 3.10368 16.7588H19.8064L19.8623 19.8622Z" fill="#346D94"/>
<path d="M16.1379 21.724H0.62069C0.277892 21.724 0 21.4461 0 21.1033V20.4826C0.00204505 19.7978 0.556633 19.2433 1.24138 19.2412H17.3793L16.1379 21.724Z" fill="#295474"/>
<path d="M24.3648 9.31043H0.46328C0.261183 9.30875 0.0831899 9.17703 0.022513 8.98425C-0.0381639 8.79147 0.0323003 8.58155 0.197004 8.46443L11.9057 0.163941C12.2094 -0.0552981 12.6193 -0.0552981 12.923 0.163941L24.6311 8.46443C24.7958 8.58155 24.8662 8.79147 24.8056 8.98425C24.7449 9.17703 24.5669 9.30875 24.3648 9.31043Z" fill="#346D94"/>
<path d="M14.2756 31.0347H32.8962C33.5818 31.0347 34.1376 31.5905 34.1376 32.2761V34.1381H13.0342V32.2761C13.0342 31.5905 13.59 31.0347 14.2756 31.0347Z" fill="#FFC306"/>
<path d="M35.5367 23.5863H11.6352C11.4331 23.5846 11.2551 23.4529 11.1944 23.2601C11.1337 23.0673 11.2042 22.8574 11.3689 22.7403L23.0776 14.4398C23.3812 14.2206 23.7912 14.2206 24.0949 14.4398L35.8029 22.7403C35.9676 22.8574 36.0381 23.0673 35.9774 23.2601C35.9167 23.4529 35.7388 23.5846 35.5367 23.5863Z" fill="#F7AD00"/>
<path d="M12.4142 33.5171H34.7591C35.4447 33.5171 36.0004 34.0729 36.0004 34.7585V35.3792C36.0004 35.722 35.7225 35.9999 35.3797 35.9999H11.7935C11.4507 35.9999 11.1729 35.722 11.1729 35.3792V34.7585C11.1729 34.0729 11.7286 33.5171 12.4142 33.5171Z" fill="#F7AD00"/>
<path d="M9.88307 31.4182C9.8521 31.3425 9.8063 31.2737 9.74838 31.2159L7.88631 29.3538C7.64277 29.1186 7.25564 29.1219 7.01622 29.3614C6.7768 29.6008 6.77343 29.9879 7.00866 30.2315L7.81183 31.0346H4.96535C3.59416 31.0346 2.48259 29.9231 2.48259 28.5519V24.8277C2.48259 24.4849 2.2047 24.207 1.8619 24.207C1.5191 24.207 1.24121 24.4849 1.24121 24.8277V28.5519C1.24326 30.6078 2.90942 32.274 4.96535 32.276H7.81183L7.00928 33.0786C6.84793 33.2344 6.78322 33.4652 6.84002 33.6822C6.89682 33.8992 7.0663 34.0687 7.28331 34.1255C7.50032 34.1823 7.7311 34.1176 7.88693 33.9562L9.749 32.0941C9.80693 32.0363 9.85272 31.9675 9.88369 31.8918C9.94609 31.7401 9.94586 31.5698 9.88307 31.4182Z" fill="#49505B"/>
<path d="M33.3351 8.87158C33.0927 8.62928 32.6998 8.62928 32.4574 8.87158L31.6549 9.67414V6.82765C31.6528 4.77172 29.9867 3.10557 27.9308 3.10352H24.2066C23.8638 3.10352 23.5859 3.38141 23.5859 3.72421C23.5859 4.067 23.8638 4.34489 24.2066 4.34489H27.9308C29.3019 4.34489 30.4135 5.45646 30.4135 6.82765V9.67414L29.611 8.87158C29.3674 8.63636 28.9803 8.63972 28.7409 8.87915C28.5014 9.11857 28.4981 9.50569 28.7333 9.74924L30.5954 11.6113C30.7118 11.7281 30.8699 11.7937 31.0348 11.7937C31.1997 11.7937 31.3578 11.7281 31.4743 11.6113L33.3363 9.74924C33.5783 9.50652 33.5777 9.11362 33.3351 8.87158Z" fill="#49505B"/>
</g>
<defs>
<clipPath id="clip0_729_9566">
<rect width="36" height="36" fill="white"/>
</clipPath>
</defs>
</svg>
