<svg width="57" height="17" viewBox="0 0 57 17" fill="none" xmlns="http://www.w3.org/2000/svg">
<path fill-rule="evenodd" clip-rule="evenodd" d="M12.2836 11.5249L16.749 0V0.00186159H21.5713L14.4054 16.9463H9.58308L5.49414 2.36441C8.38296 3.77997 10.9715 6.6297 11.7972 9.25213L12.2836 11.5249ZM23.4081 0L20.5567 16.9632H25.1144L27.964 0H23.4081ZM37.1561 6.91164C35.5634 6.15974 34.587 5.65227 34.587 4.88324C34.6065 4.18403 35.4127 3.46769 37.2129 3.46769C38.6937 3.43213 39.782 3.7648 40.6077 4.09579L41.0213 4.27227L41.6409 0.72314C40.7407 0.390474 39.3133 0.0239258 37.5502 0.0239258C33.0494 0.0239258 29.8802 2.261 29.8605 5.46053C29.8233 7.82158 32.1295 9.13177 33.8554 9.91774C35.6185 10.724 36.2186 11.2467 36.2186 11.9631C36.1992 13.0629 34.793 13.5704 33.4809 13.5704C31.6629 13.5704 30.6864 13.309 29.2039 12.6962L28.6037 12.4348L27.9664 16.1232C29.037 16.5782 31.0059 16.9786 33.0496 16.9991C37.8328 16.9991 40.9451 14.7959 40.9843 11.386C40.9999 9.51545 39.7838 8.08277 37.1561 6.91164ZM49.7989 0.0531006H53.325L57.0002 16.9774H52.7816L52.098 13.5981H46.7467L45.4293 16.9638H40.6462L47.4162 1.41784C47.8866 0.351887 48.7123 0.0531006 49.7989 0.0531006ZM48.0742 10.2013C48.1715 10.1927 49.9096 4.70697 49.9096 4.70697L51.2981 10.2013H48.0742Z" fill="#28338A"/>
<path d="M10.132 2.28421C9.78329 0.931673 8.67106 0.0194666 7.1605 0H0.0729907L0 0.328207C5.52875 1.68776 10.1693 5.87113 11.6748 9.80612L10.132 2.28421Z" fill="#F99900"/>
</svg>
