<svg width="52" height="37" viewBox="0 0 52 37" fill="none" xmlns="http://www.w3.org/2000/svg">
<path d="M24.3699 10.1733C21.2199 8.75677 23.9642 5.31214 27.3265 6.65602C15.35 1.37925 33.3438 9.3132 13.6065 0.609865C13.4304 0.532235 13.2188 0.506481 13.0165 0.538071C12.8137 0.575021 12.6387 0.665955 12.5276 0.79209L7.09555 7.20818C6.9917 7.3323 6.96034 7.48044 7.0082 7.62082C7.05606 7.76121 7.17932 7.88266 7.35155 7.95914L25.9766 16.3296C26.0614 16.3689 26.1564 16.3959 26.2561 16.4088C26.3557 16.4218 26.458 16.4205 26.5569 16.4051C26.6559 16.3897 26.7495 16.3604 26.8324 16.319C26.9153 16.2776 26.9858 16.2249 27.0398 16.1639C27.2183 15.9647 30.1377 12.7543 30.1904 12.6798L24.3699 10.1733Z" fill="#9DCC6B"/>
<path d="M24.37 10.1737C21.2207 8.75898 23.9625 5.31279 27.3266 6.65638C15.3473 1.37029 30.2928 7.96867 16.8354 2.03516C16.03 3.81607 12.4469 4.45147 10.573 3.10602L7.09652 7.20854C6.99268 7.33266 6.96132 7.4808 7.00918 7.62118C7.05703 7.76157 7.18029 7.88302 7.35252 7.9595L25.9767 16.33C26.0616 16.3692 26.1566 16.3961 26.2562 16.409C26.3559 16.4219 26.4581 16.4207 26.557 16.4052C26.6559 16.3898 26.7495 16.3606 26.8324 16.3192C26.9153 16.2778 26.9859 16.2252 27.0399 16.1642L30.19 12.6804L24.37 10.1737Z" fill="#9DCC6B"/>
<path d="M30.6017 12.2332L30.1905 12.6805L24.3705 10.1738C22.5405 9.44379 22.5511 7.37854 24.3705 6.65092L24.3782 6.65647C24.8218 6.46284 25.3322 6.36035 25.8526 6.36035C26.3731 6.36035 26.8834 6.46284 27.3271 6.65647L27.3426 6.66202C28.2062 7.04668 27.3996 7.97958 26.5277 7.60062C25.5758 7.15042 24.2777 7.84638 24.5722 8.62217C24.6095 8.74744 24.6825 8.86594 24.7866 8.9704C24.8907 9.07485 25.0237 9.16304 25.1775 9.22954L30.3535 11.4603C30.4425 11.4986 30.5197 11.5492 30.5806 11.6092C30.6415 11.6691 30.6848 11.7372 30.7079 11.8093C30.7311 11.8814 30.7336 11.9561 30.7154 12.029C30.6971 12.1018 30.6585 12.1713 30.6017 12.2332Z" fill="#84B749"/>
<path d="M41.8614 3.82387L34.8151 1.00781C33.3539 0.417863 31.6638 0.179774 29.9968 0.329042C28.3299 0.478311 26.7754 1.00694 25.5651 1.83611L21.9951 4.30423C22.0736 4.33881 27.4065 6.69173 27.3263 6.65643C23.9669 5.31262 21.2181 8.75633 24.3698 10.1737L31.6874 13.3265C35.2686 14.8536 37.9307 12.9829 40.8521 11.7256C40.7797 11.5975 40.7427 11.4606 40.7435 11.3226V5.24844C40.7459 4.96457 40.9007 4.6921 41.1763 4.48681C41.4518 4.28151 41.8272 4.15892 42.2257 4.14413C42.1672 4.0078 42.0366 3.89296 41.8614 3.82387Z" fill="#F6CCAF"/>
<path d="M42.226 4.14385C41.6874 4.17338 41.2834 4.34913 41.0465 4.60208L34.8151 2.1117C33.3539 1.52174 31.6638 1.28364 29.9968 1.4329C28.3299 1.58215 26.7754 2.11077 25.5651 2.93993L22.9651 4.73443L21.9951 4.30373L25.5651 1.83562C26.7754 1.00645 28.3299 0.477822 29.9968 0.328554C31.6637 0.179286 33.3538 0.417375 34.8151 1.00732L41.8613 3.82338C42.0367 3.89246 42.1675 4.00739 42.226 4.14385Z" fill="#F3BD98"/>
<path d="M31.4317 32.8561H15.9117C15.7059 32.8561 15.5085 32.7979 15.363 32.6943C15.2175 32.5907 15.1357 32.4503 15.1357 32.3038V19.6042C15.1364 19.165 15.3819 18.744 15.8183 18.4334C16.2548 18.1229 16.8465 17.9482 17.4637 17.9478H36.0877C36.7049 17.9482 37.2967 18.1229 37.7331 18.4334C38.1696 18.744 38.4151 19.165 38.4157 19.6042V28.4388C38.4157 28.5174 38.3921 28.5952 38.3464 28.6669C38.3008 28.7385 38.2341 28.8024 38.1509 28.8542L31.9428 32.7193C31.8014 32.8075 31.6198 32.8561 31.4317 32.8561Z" fill="#FFCC66"/>
<path d="M32.2082 26.2303H29.8801C28.866 26.2272 28.8649 25.129 29.8801 25.126H32.2081C33.2223 25.129 33.2234 26.2273 32.2082 26.2303Z" fill="#FFBA55"/>
<path d="M28.6668 22.8209L26.7768 21.9018L24.8868 22.8209C24.3993 23.0752 23.6533 22.7951 23.6732 22.3651V18.4999C23.6732 18.3535 23.755 18.213 23.9005 18.1095C24.0461 18.0059 24.2434 17.9478 24.4492 17.9478H29.1052C29.3109 17.9479 29.5081 18.0061 29.6534 18.1097C29.7988 18.2132 29.8804 18.3536 29.8804 18.4999V22.365C29.8993 22.7947 29.1558 23.0751 28.6668 22.8209Z" fill="#F8834B"/>
<path d="M31.4317 32.8561H15.9117C15.7059 32.8561 15.5085 32.7979 15.363 32.6943C15.2175 32.5907 15.1357 32.4503 15.1357 32.3038V19.6042C15.1364 19.165 15.3819 18.744 15.8183 18.4334C16.2548 18.1229 16.8465 17.9482 17.4637 17.9478H36.0877C36.7049 17.9482 37.2967 18.1229 37.7331 18.4334C38.1696 18.744 38.4151 19.165 38.4157 19.6042V28.4388C38.4157 28.5174 38.3921 28.5952 38.3464 28.6669C38.3008 28.7385 38.2341 28.8024 38.1509 28.8542L31.9428 32.7193C31.8014 32.8075 31.6198 32.8561 31.4317 32.8561Z" fill="#FFCC66"/>
<path d="M32.2082 26.2303H29.8801C28.866 26.2272 28.8649 25.129 29.8801 25.126H32.2081C33.2223 25.129 33.2234 26.2273 32.2082 26.2303Z" fill="#FFBA55"/>
<path d="M28.6668 22.8209L26.7768 21.9018L24.8868 22.8209C24.3993 23.0752 23.6533 22.7951 23.6732 22.3651V18.4999C23.6732 18.3535 23.755 18.213 23.9005 18.1095C24.0461 18.0059 24.2434 17.9478 24.4492 17.9478H29.1052C29.3109 17.9479 29.5081 18.0061 29.6534 18.1097C29.7988 18.2132 29.8804 18.3536 29.8804 18.4999V22.365C29.8993 22.7947 29.1558 23.0751 28.6668 22.8209Z" fill="#F8834B"/>
<path d="M36.0885 17.9478H26.7764V32.8561H31.4325C31.621 32.8557 31.803 32.8066 31.9446 32.718L38.1527 28.8527C38.2362 28.8014 38.3031 28.7378 38.3486 28.6663C38.3942 28.5948 38.4173 28.5171 38.4165 28.4386V19.6042C38.4147 19.1653 38.1688 18.7447 37.7326 18.4343C37.2964 18.124 36.7053 17.949 36.0885 17.9478Z" fill="#FFBA55"/>
<path d="M32.2082 26.2303H29.8801C28.866 26.2272 28.8649 25.129 29.8801 25.126H32.2081C33.2223 25.129 33.2234 26.2273 32.2082 26.2303Z" fill="#FFA92C"/>
<path d="M29.1044 17.9478H26.7764V21.901L28.6699 22.8231C29.1499 23.0761 29.8984 22.7931 29.8804 22.3648V18.4998C29.8797 18.3535 29.7978 18.2134 29.6524 18.1099C29.507 18.0065 29.31 17.9482 29.1044 17.9478Z" fill="#F66824"/>
<path d="M16.8356 2.0351C16.0302 3.81601 12.4471 4.45141 10.5732 3.10597L12.5287 0.792399C12.5819 0.729416 12.6523 0.67463 12.7357 0.631257C12.819 0.587884 12.9137 0.556798 13.0142 0.539824C13.1147 0.522849 13.2189 0.520328 13.3208 0.532409C13.4227 0.54449 13.5201 0.570929 13.6074 0.610174C13.7026 0.651941 16.7354 1.99049 16.8356 2.0351Z" fill="#6F9A3D"/>
<path d="M11.644 7.4957C11.6458 8.20627 11.2589 8.88946 10.5653 9.40063C9.79385 9.05767 8.13245 8.30998 7.35255 7.95948C7.18031 7.88303 7.05704 7.76159 7.00918 7.62121C6.96132 7.48083 6.99269 7.3327 7.09655 7.20859L8.22945 5.87239L9.05205 4.89502C9.80934 5.08421 10.4654 5.43601 10.9297 5.90185C11.394 6.3677 11.6435 6.92461 11.644 7.4957Z" fill="#6F9A3D"/>
<path d="M29.2046 13.7792L28.3277 14.7455L27.0397 16.1645C26.9857 16.2255 26.9152 16.2782 26.8323 16.3196C26.7494 16.361 26.6558 16.3903 26.5569 16.4057C26.4579 16.4211 26.3557 16.4224 26.256 16.4095C26.1564 16.3965 26.0614 16.3695 25.9765 16.3302C25.19 15.9766 23.5548 15.2401 22.7793 14.889C23.5397 12.9772 27.2777 12.3331 29.2046 13.7792Z" fill="#6F9A3D"/>
<path d="M19.792 10.7698C15.6899 10.6773 15.6909 6.4449 19.792 6.35254C23.8942 6.44532 23.8932 10.6775 19.792 10.7698Z" fill="#6F9A3D"/>
<path d="M40.4645 26.3295C40.1524 25.994 39.678 25.7518 39.1313 25.649C38.5847 25.5462 38.004 25.5899 37.4997 25.7718C36.1832 26.2286 26.5184 29.5835 25.4716 29.9461C25.5663 29.8306 25.6443 29.7085 25.7044 29.5817C25.8241 29.3567 25.8973 29.1205 25.9217 28.8805V28.8749C26.0597 27.4548 24.4475 26.2242 22.4607 26.2301H17.2618L17.0213 25.7107C16.8695 25.38 16.5746 25.0918 16.1788 24.8875C15.783 24.6832 15.3065 24.5732 14.8175 24.5732H11.2556C11.05 24.5737 10.8529 24.632 10.7075 24.7355C10.5621 24.8389 10.4801 24.9791 10.4795 25.1255V32.8115C10.4807 32.9169 10.5235 33.0199 10.6031 33.1087C10.6826 33.1976 10.7958 33.2687 10.9295 33.3139L19.4035 36.0913C21.1806 36.6577 23.1513 36.8429 25.0741 36.6243C26.9969 36.4056 28.7884 35.7926 30.2289 34.8603L40.0997 28.4995C40.5245 28.2329 40.7965 27.8643 40.8638 27.464C40.9311 27.0638 40.7889 26.66 40.4645 26.3295Z" fill="#F6CCAF"/>
<path d="M40.1004 28.4996L30.2297 34.8607C28.7892 35.793 26.9978 36.406 25.075 36.6247C23.1522 36.8433 21.1815 36.6581 19.4044 36.0917L10.9305 33.3142C10.7967 33.269 10.6836 33.1979 10.604 33.109C10.5244 33.0201 10.4816 32.9172 10.4805 32.8118V31.7076C10.4816 31.813 10.5244 31.916 10.604 32.0049C10.6836 32.0937 10.7967 32.1649 10.9305 32.2101L19.4045 34.9875C21.1816 35.5538 23.1523 35.739 25.0752 35.5202C26.998 35.3015 28.7894 34.6885 30.2298 33.7561L40.1004 27.3953C40.3862 27.2108 40.6046 26.9796 40.7368 26.7217C40.8958 27.0291 40.9201 27.3635 40.8065 27.6809C40.6929 27.9983 40.4467 28.2838 40.1004 28.4996Z" fill="#F3BD98"/>
<path d="M9.69968 35.0645H5.04748C4.84168 35.0645 4.6443 35.0063 4.49877 34.9027C4.35324 34.7992 4.27148 34.6588 4.27148 34.5123V24.0214C4.27148 23.875 4.35324 23.7345 4.49877 23.631C4.6443 23.5274 4.84168 23.4692 5.04748 23.4692H9.69938C10.3177 23.4697 10.9104 23.6447 11.3476 23.9557C11.7848 24.2668 12.0308 24.6885 12.0316 25.1285V33.4052C12.0308 33.8451 11.7849 34.2668 11.3477 34.5779C10.9106 34.8889 10.3179 35.0639 9.69968 35.0645Z" fill="#425B72"/>
<path d="M12.0316 32.5688V33.4026C12.0309 33.8432 11.7845 34.2657 11.3466 34.5772C10.9087 34.8887 10.315 35.064 9.69578 35.0644H5.04748C4.84186 35.064 4.64484 35.0057 4.49944 34.9022C4.35404 34.7988 4.27209 34.6586 4.27148 34.5123V32.5688H12.0316Z" fill="#374F68"/>
<path d="M27.3345 29.3003C27.2975 29.9353 26.9181 30.5358 26.275 30.977C25.6319 31.4181 24.7746 31.666 23.8813 31.669H20.4358C19.4208 31.6666 19.4188 30.5671 20.4358 30.5647H23.8812C24.1978 30.5639 24.509 30.5069 24.7868 30.399C25.0646 30.291 25.3001 30.1354 25.472 29.9463L27.3345 29.3003Z" fill="#E7A273"/>
<path d="M8.92798 31.0811C8.92358 31.8031 7.38038 31.8031 7.37598 31.0811C7.38018 30.359 8.92368 30.3591 8.92798 31.0811Z" fill="#1F2F42"/>
<path d="M32.2314 8.16341C32.1221 8.28774 31.948 8.37616 31.7473 8.40928C31.5465 8.4424 31.3355 8.41751 31.1605 8.34008L30.7259 8.15238C29.3167 7.53199 25.765 5.96796 24.4014 5.36393C24.8487 5.17066 25.3625 5.06937 25.8858 5.07132C26.4091 5.07326 26.9214 5.17837 27.3658 5.37496L31.9753 7.40142C32.1509 7.47855 32.2764 7.60201 32.3244 7.7448C32.3723 7.8876 32.3389 8.0381 32.2314 8.16341Z" fill="#E7A273"/>
<path d="M46.9519 12.9785H42.2959C41.6786 12.978 41.0869 12.8033 40.6504 12.4928C40.214 12.1822 39.9685 11.7612 39.9678 11.322V5.2469C39.9685 4.80809 40.2138 4.38739 40.6499 4.0771C41.086 3.76682 41.6773 3.59229 42.294 3.5918H46.9519C47.1577 3.5918 47.3551 3.64997 47.5006 3.75352C47.6461 3.85707 47.7279 3.99751 47.7279 4.14395V12.4262C47.7279 12.4988 47.7079 12.5706 47.6689 12.6376C47.6299 12.7046 47.5727 12.7654 47.5006 12.8167C47.4286 12.868 47.343 12.9087 47.2489 12.9364C47.1547 12.9642 47.0538 12.9785 46.9519 12.9785Z" fill="#425B72"/>
<path d="M47.7278 4.14395V5.24825H39.9678C39.9674 5.03064 40.0273 4.8151 40.1442 4.614C40.261 4.41289 40.4325 4.23017 40.6488 4.07629C40.865 3.92242 41.1218 3.80041 41.4045 3.71728C41.6871 3.63414 41.99 3.5915 42.2959 3.5918H46.9519C47.1575 3.59225 47.3545 3.65057 47.4998 3.75402C47.6452 3.85748 47.7271 3.99766 47.7278 4.14395Z" fill="#374F68"/>
<path d="M44.6243 10.2178C44.6198 10.9399 43.0766 10.9399 43.0723 10.2178C43.0767 9.49571 44.6201 9.49578 44.6243 10.2178Z" fill="#1F2F42"/>
<path d="M30.1897 12.6803L29.9025 13.0061L9.77344 4.05584L12.5282 0.792578C12.6394 0.666443 12.8144 0.575509 13.0171 0.538559C13.2194 0.506969 13.4311 0.532723 13.6071 0.610353L27.3271 6.65651C23.9631 5.31206 21.2218 8.75846 24.3706 10.1738L30.1897 12.6803Z" fill="#84B749"/>
<path d="M16.8356 2.03479C16.0302 3.8157 12.4471 4.4511 10.5732 3.10566C11.0387 2.54987 12.0518 1.35342 12.5287 0.79209C12.6399 0.665955 12.8149 0.575021 13.0176 0.538071C13.2199 0.506481 13.4316 0.532235 13.6076 0.609865C13.5089 0.568311 16.0823 1.6961 16.8356 2.03479Z" fill="#678C38"/>
<path d="M22.8963 8.56136C22.9218 6.38313 18.8128 5.54017 17.1982 7.35473L22.4475 9.688C22.7384 9.3485 22.8936 8.95896 22.8963 8.56136Z" fill="#678C38"/>
</svg>
