<svg width="20" height="20" viewBox="0 0 20 20" fill="none" xmlns="http://www.w3.org/2000/svg">
<path d="M10.6249 3.3335C10.6249 2.98832 10.3451 2.7085 9.99992 2.7085C9.65474 2.7085 9.37492 2.98832 9.37492 3.3335L9.37492 9.37516H3.33325C2.98807 9.37516 2.70825 9.65498 2.70825 10.0002C2.70825 10.3453 2.98807 10.6252 3.33325 10.6252H9.37492V16.6668C9.37492 17.012 9.65474 17.2918 9.99992 17.2918C10.3451 17.2918 10.6249 17.012 10.6249 16.6668V10.6252H16.6666C17.0118 10.6252 17.2916 10.3453 17.2916 10.0002C17.2916 9.65498 17.0118 9.37516 16.6666 9.37516H10.6249L10.6249 3.3335Z" fill="white"/>
</svg>
