<svg width="32" height="32" viewBox="0 0 32 32" fill="none" xmlns="http://www.w3.org/2000/svg">
<path d="M14.3345 13.3335C14.3345 12.413 15.0807 11.6668 16.0011 11.6668C16.9216 11.6668 17.6678 12.413 17.6678 13.3335C17.6678 14.254 16.9216 15.0002 16.0011 15.0002C15.0807 15.0002 14.3345 14.254 14.3345 13.3335Z" fill="#2D9CDB"/>
<path fill-rule="evenodd" clip-rule="evenodd" d="M9.02953 5.38906C9.02953 3.33333 10.696 1.66684 12.7518 1.66684H19.6398C21.4807 1.66684 22.9731 3.15922 22.9731 5.00017C22.9731 5.73655 23.5701 6.33351 24.3064 6.33351H25.0922C27.2053 6.33351 29.0639 7.97349 28.9778 10.221C28.8674 13.1024 28.3077 17.7243 26.0633 21.8146C25.4549 22.9233 24.6424 24.0124 23.7641 25.0272L23.6979 25.1037C22.4344 26.5637 21.3808 27.781 20.2482 28.6107C19.0299 29.5032 17.7297 29.9478 16.0013 29.9478C14.2729 29.9478 12.9727 29.5032 11.7544 28.6107C10.6218 27.781 9.56826 26.5637 8.3047 25.1036L8.23857 25.0272C7.36022 24.0124 6.5477 22.9233 5.93931 21.8146C3.7671 17.8559 3.17157 13.6768 3.0362 10.9955C2.92219 8.73714 4.79408 7.11128 6.89549 7.11128H7.30731C8.25847 7.11128 9.02953 6.34022 9.02953 5.38906ZM16.0011 9.66684C13.9761 9.66684 12.3345 11.3085 12.3345 13.3335C12.3345 15.0119 13.4621 16.4269 15.0011 16.8622V21.3335C15.0011 21.8858 15.4489 22.3335 16.0011 22.3335C16.5534 22.3335 17.0011 21.8858 17.0011 21.3335V16.8622C18.5401 16.4269 19.6678 15.0119 19.6678 13.3335C19.6678 11.3085 18.0262 9.66684 16.0011 9.66684Z" fill="#2D9CDB"/>
</svg>
