<svg width="32" height="32" viewBox="0 0 32 32" fill="none" xmlns="http://www.w3.org/2000/svg">
<path fill-rule="evenodd" clip-rule="evenodd" d="M14.5068 2.0341C12.6923 2.23933 10.7847 3.01094 9.38243 4.10687C7.51045 5.56999 6.20607 7.56767 5.63884 9.84039C5.36602 10.9336 5.34549 11.2066 5.34549 13.7454C5.34549 16.2618 5.35214 16.3388 5.62628 16.9908C6.01758 17.9216 6.82634 18.736 7.74655 19.126C8.21531 19.3247 8.5294 19.3931 9.13151 19.4277L9.69858 19.4604L9.84117 19.6504C10.137 20.0446 10.5214 20.4612 10.8411 20.7341L11.1718 21.0164L9.78903 21.0419C8.61858 21.0635 8.34043 21.0843 7.978 21.177C6.86174 21.4627 6.01288 22.0783 5.35193 23.0815C5.02734 23.5743 4.58211 24.5629 4.26871 25.4868C4.05219 26.125 4.00016 26.3465 4 26.6299C3.99947 27.7247 4.80311 28.7061 5.88897 28.9367C6.28639 29.0211 24.9323 29.0211 25.3297 28.9367C26.4123 28.7068 27.2192 27.7214 27.2187 26.6299C27.2184 25.9874 26.4474 23.9743 25.8513 23.0594C25.5202 22.5512 24.8945 21.9338 24.4382 21.665C23.593 21.1672 22.8857 21.0287 21.1856 21.0281L20.0336 21.0277L20.371 20.7397C20.6965 20.4619 21.0801 20.0467 21.3775 19.6504L21.5201 19.4604L22.0872 19.4277C22.6893 19.3931 23.0034 19.3247 23.4722 19.126C24.5989 18.6485 25.4906 17.5979 25.7994 16.3839C25.9017 15.9817 25.9057 11.6088 25.8043 10.9486C25.4409 8.5806 24.4523 6.61131 22.7969 4.95748C21.308 3.47009 19.4068 2.49922 17.2189 2.10893C16.6465 2.00687 15.1202 1.96476 14.5068 2.0341ZM16.4613 3.61542C19.4057 3.91036 22.0151 5.71917 23.3612 8.39849C23.7993 9.27052 24.1508 10.4256 24.2399 11.2859L24.2776 11.6495L24.1256 11.6121C24.0419 11.5915 23.6707 11.5616 23.3007 11.5456C22.6819 11.5189 22.6278 11.5084 22.6278 11.4151C22.6278 11.2397 22.466 10.5207 22.3271 10.0794C22.1551 9.53232 21.7638 8.74271 21.4064 8.22107C21.0658 7.72392 20.1456 6.78661 19.6727 6.45516C17.4546 4.90028 14.6222 4.72545 12.2848 5.99907C11.6481 6.34598 11.2394 6.65912 10.6489 7.25216C9.60069 8.30508 8.97167 9.46989 8.67457 10.9083C8.62855 11.1312 8.59088 11.3592 8.59088 11.4151C8.59088 11.5084 8.53679 11.5189 7.91805 11.5456C7.54803 11.5616 7.18391 11.5902 7.10892 11.6091L6.97267 11.6435L7.03726 11.1509C7.46649 7.87691 9.65441 5.15806 12.7334 4.07257C13.9807 3.63284 15.1739 3.4865 16.4613 3.61542ZM16.0126 13.5211C16.4568 13.9546 16.8286 14.2023 17.3514 14.4135C17.9275 14.6462 18.3568 14.6953 19.8169 14.6953H21.1656L21.1339 15.4736C21.0988 16.3369 21.0292 16.7163 20.7805 17.3998L20.6126 17.8615H18.8213C17.1301 17.8615 17.0183 17.8675 16.8217 17.9677C16.5863 18.0878 16.4009 18.3915 16.4009 18.657C16.4009 18.9156 16.6 19.2183 16.8495 19.3391C17.0479 19.4351 17.1753 19.4446 18.2688 19.4446H19.4702L19.1889 19.6853C16.9932 21.5635 13.7456 21.4371 11.7024 19.3938C10.6188 18.3102 10.0684 16.9242 10.0684 15.2788V14.6953H11.4095C13.1661 14.6953 13.6481 14.6031 14.487 14.1071C14.7036 13.979 15.4596 13.301 15.5882 13.1195C15.591 13.1155 15.782 13.2962 16.0126 13.5211ZM18.1597 23.442C17.8208 23.8991 17.1175 24.849 16.597 25.5528C16.0764 26.2566 15.6319 26.8325 15.6094 26.8325C15.5868 26.8325 15.1423 26.2566 14.6218 25.5528C14.1012 24.849 13.3979 23.8991 13.059 23.442L12.4428 22.6109H15.6094H18.776L18.1597 23.442Z" fill="#27AE60"/>
</svg>
