<svg width="32" height="32" viewBox="0 0 32 32" fill="none" xmlns="http://www.w3.org/2000/svg">
<path fill-rule="evenodd" clip-rule="evenodd" d="M1.33203 3.99996C1.33203 3.26358 1.92898 2.66663 2.66536 2.66663H17.332C18.0684 2.66663 18.6654 3.26358 18.6654 3.99996V10.6666H23.9987C27.6806 10.6666 30.6654 13.6514 30.6654 17.3333V22.6666C30.6654 24.4719 29.4695 25.9978 27.8267 26.4954C27.642 27.1051 27.3088 27.6801 26.8271 28.1617C25.265 29.7238 22.7324 29.7238 21.1703 28.1617C20.734 27.7254 20.4194 27.2125 20.2268 26.6666H17.332H11.7706C11.578 27.2125 11.2634 27.7254 10.8271 28.1617C9.26503 29.7238 6.73237 29.7238 5.17027 28.1617C4.68863 27.6801 4.3554 27.1051 4.17075 26.4954C2.52795 25.9978 1.33203 24.4719 1.33203 22.6666V17.3333H2.66536H9.33203C10.0684 17.3333 10.6654 16.7364 10.6654 16C10.6654 15.2636 10.0684 14.6667 9.33203 14.6667H2.66536H1.33203V12H2.66536H6.66537C7.40174 12 7.9987 11.403 7.9987 10.6667C7.9987 9.93029 7.40174 9.33333 6.66537 9.33333H2.66536H1.33203V3.99996ZM18.6654 24H20.2268C20.4194 23.4541 20.734 22.9412 21.1703 22.5049C22.7324 20.9428 25.265 20.9428 26.8271 22.5049C27.1575 22.8353 27.4181 23.2096 27.6087 23.6089C27.8497 23.3676 27.9987 23.0345 27.9987 22.6666V17.3333C27.9987 15.1242 26.2078 13.3333 23.9987 13.3333H18.6654V24ZM9.33203 25.3333C9.33203 24.99 9.20212 24.6511 8.94151 24.3905C8.42081 23.8698 7.57659 23.8698 7.05589 24.3905C6.79528 24.6511 6.66537 24.99 6.66537 25.3333C6.66537 25.6766 6.79528 26.0155 7.05589 26.2761C7.57659 26.7968 8.42081 26.7968 8.94151 26.2761C9.20212 26.0155 9.33203 25.6766 9.33203 25.3333ZM24.9415 24.3905C24.4208 23.8698 23.5766 23.8698 23.0559 24.3905C22.7953 24.6511 22.6654 24.99 22.6654 25.3333C22.6654 25.6766 22.7953 26.0155 23.0559 26.2761C23.5766 26.7968 24.4208 26.7968 24.9415 26.2761C25.2021 26.0155 25.332 25.6766 25.332 25.3333C25.332 24.99 25.2021 24.6511 24.9415 24.3905Z" fill="#74C247"/>
</svg>
