<svg width="32" height="32" viewBox="0 0 32 32" fill="none" xmlns="http://www.w3.org/2000/svg">
<path fill-rule="evenodd" clip-rule="evenodd" d="M14.8927 3.06093C12.5027 3.30152 9.95403 4.358 8.04405 5.89972C6.84754 6.86551 5.67344 8.26505 4.88559 9.66447L4.458 10.424H3.47479C2.69589 10.424 2.45506 10.4429 2.31578 10.515C2.10498 10.624 1.95704 10.9398 2.01127 11.1647C2.0324 11.2523 2.62117 12.4667 3.31966 13.8633C4.6565 16.5365 4.69824 16.6014 5.08096 16.6014C5.46716 16.6014 5.50519 16.5421 6.88731 13.7783C8.32337 10.9067 8.31466 10.9319 7.98454 10.6014C7.84015 10.4568 7.81182 10.4523 6.85805 10.424L5.87966 10.395L6.19503 9.87807C6.66541 9.10683 7.10015 8.55006 7.7796 7.84872C8.8323 6.76193 9.81377 6.05195 11.1556 5.4064C14.4396 3.82654 18.1741 3.84593 21.4532 5.45987C24.5092 6.96403 26.7966 9.80352 27.6434 13.1443C28.1018 14.9527 28.1018 17.0425 27.6434 18.8508C26.4684 23.486 22.6615 26.9252 17.9117 27.6422C17.0424 27.7734 15.3944 27.773 14.5463 27.6414C10.5229 27.0169 7.16761 24.4997 5.53776 20.8829C5.26547 20.2786 5.11463 20.0846 4.87648 20.0323C4.62549 19.9772 4.31471 20.137 4.19831 20.3812C4.10315 20.5807 4.10338 20.6059 4.20347 20.8924C4.3496 21.3106 4.86504 22.3299 5.21884 22.9004C7.32971 26.3038 10.9649 28.5478 15.0044 28.9408C19.1495 29.3442 23.3345 27.6661 26.0458 24.5136C27.7135 22.5745 28.7509 20.2977 29.1194 17.7683C29.2564 16.8275 29.2564 15.1677 29.1194 14.2268C28.3829 9.17081 24.8846 5.06682 20.0308 3.56487C18.4566 3.07771 16.5668 2.89239 14.8927 3.06093ZM15.4544 8.91715C12.5982 9.27438 10.2912 11.1877 9.43778 13.9073C8.45411 17.0418 9.82271 20.514 12.6916 22.1624C14.3239 23.1003 16.179 23.3479 18.0386 22.8762C20.3565 22.2882 22.2943 20.4495 23.0156 18.1536C23.2795 17.3139 23.3565 16.7092 23.3235 15.7363C23.2917 14.7978 23.1612 14.1497 22.8435 13.3517C22.0564 11.3744 20.2913 9.76607 18.264 9.17859C17.357 8.9157 16.2725 8.8148 15.4544 8.91715ZM16.5511 11.4515C16.7792 11.5862 16.7992 11.6464 16.8352 12.3109L16.8667 12.8915L17.4473 12.923C17.7666 12.9403 18.0703 12.9745 18.1221 12.999C18.174 13.0235 18.2626 13.1292 18.319 13.234C18.4503 13.4776 18.4001 13.7794 18.1966 13.9708C18.0505 14.1082 18.0237 14.1112 16.7315 14.1397C15.7886 14.1605 15.3768 14.1907 15.2797 14.246C15.0749 14.3627 14.9592 14.6851 15.0372 14.9215C15.1625 15.3013 15.2355 15.3266 16.3065 15.3611C17.1899 15.3895 17.3013 15.4053 17.601 15.5439C17.9994 15.728 18.3374 16.0547 18.5258 16.4375C18.6434 16.6765 18.6663 16.809 18.6655 17.2458C18.6647 17.6792 18.6413 17.8129 18.5287 18.0296C18.2448 18.5759 17.7863 18.9231 17.186 19.0467L16.8667 19.1124L16.8352 19.6886C16.8179 20.0055 16.7837 20.3073 16.7592 20.3591C16.7347 20.411 16.629 20.4996 16.5242 20.556C16.2805 20.6873 15.9787 20.6371 15.7874 20.4336C15.6614 20.2996 15.6455 20.2247 15.6277 19.6797L15.6079 19.0746H15.0404C14.5594 19.0746 14.4503 19.0568 14.3242 18.9576C14.1026 18.7834 14.0245 18.4954 14.1302 18.2424C14.2709 17.9057 14.3494 17.8875 15.8026 17.8554C17.0948 17.8269 17.1216 17.8239 17.2677 17.6865C17.5711 17.4011 17.496 16.841 17.1355 16.7016C17.0515 16.6691 16.5909 16.6318 16.1119 16.6186C15.0719 16.5901 14.8223 16.5168 14.3758 16.1087C13.9492 15.7188 13.793 15.3558 13.7911 14.7493C13.7899 14.3572 13.8148 14.2337 13.951 13.9562C14.2195 13.4095 14.7662 13.0053 15.327 12.9389L15.6083 12.9055L15.6279 12.3094C15.6442 11.8123 15.6667 11.6918 15.7636 11.5843C15.9823 11.3415 16.2799 11.2913 16.5511 11.4515Z" fill="#E65C6A"/>
</svg>
