<svg width="38" height="38" viewBox="0 0 38 38" fill="none" xmlns="http://www.w3.org/2000/svg">
<circle cx="19" cy="19" r="18.5" stroke="#B0B0B0"/>
<path d="M19.724 13.46V18.476L19.458 22.01H17.862L17.596 18.476V13.46H19.724ZM18.66 23.492C19.0907 23.492 19.4327 23.6187 19.686 23.872C19.952 24.1127 20.085 24.4357 20.085 24.841C20.085 25.2463 19.952 25.5693 19.686 25.81C19.4327 26.0507 19.0907 26.171 18.66 26.171C18.242 26.171 17.9 26.0507 17.634 25.81C17.3807 25.5693 17.254 25.2463 17.254 24.841C17.254 24.4357 17.3807 24.1127 17.634 23.872C17.9 23.6187 18.242 23.492 18.66 23.492Z" fill="#333333"/>
</svg>
