<svg width="24" height="24" viewBox="0 0 24 24" fill="none" xmlns="http://www.w3.org/2000/svg">
<path fill-rule="evenodd" clip-rule="evenodd" d="M11.2251 2.01927C8.88844 2.21768 6.77662 3.15216 5.09061 4.73372C3.74515 5.99584 2.70389 7.79056 2.25455 9.62206C2.03264 10.5265 2 10.8312 2 11.9998C2 13.1683 2.03264 13.473 2.25455 14.3775C2.59752 15.7753 3.31329 17.2181 4.20207 18.3028C4.35612 18.4909 4.48219 18.6516 4.48219 18.66C4.48219 18.6684 4.36304 18.682 4.21747 18.6902C3.90515 18.7078 3.74066 18.8037 3.62132 19.0376C3.42028 19.4317 3.66936 19.9298 4.09942 19.9937C4.19171 20.0073 4.73466 20.0129 5.30604 20.006C6.32995 19.9938 6.34687 19.9922 6.48224 19.8994C6.5578 19.8476 6.66201 19.7434 6.71381 19.6678C6.80664 19.5324 6.80821 19.5155 6.82048 18.4916C6.82736 17.9202 6.82177 17.3773 6.80809 17.285C6.74426 16.8549 6.24618 16.6058 5.85204 16.8069C5.60824 16.9313 5.52326 17.0866 5.49945 17.4517L5.47897 17.7655L5.251 17.4918C4.56185 16.6646 3.96421 15.5152 3.66013 14.4323C3.42599 13.5984 3.34706 13.0024 3.34706 12.0673C3.34706 10.3159 3.80848 8.78516 4.77547 7.32856C6.80582 4.27016 10.5087 2.85406 14.0783 3.77091C17.114 4.55059 19.4762 6.93454 20.2542 10.0037C20.41 10.6185 20.4732 11.0825 20.4972 11.7873C20.5469 13.2538 20.2731 14.5385 19.6313 15.8501C18.775 17.5998 17.4655 18.9154 15.7204 19.7792C13.8907 20.6849 11.721 20.9142 9.79836 20.4048C9.27648 20.2666 9.04288 20.3223 8.83183 20.6355C8.66406 20.8844 8.73864 21.3284 8.9767 21.498C9.03545 21.5398 9.25674 21.619 9.46845 21.674C11.8875 22.3026 14.4512 22.0153 16.6318 20.8713C19.0633 19.5957 20.8714 17.3863 21.6242 14.7706C21.9166 13.7548 21.9357 13.5854 21.9357 11.9998C21.9357 10.6667 21.9298 10.544 21.846 10.1303C21.4508 8.17997 20.5679 6.47551 19.229 5.07826C18.4164 4.23029 17.4773 3.54407 16.425 3.02938C15.2541 2.45668 14.1727 2.15377 12.8669 2.03275C12.4676 1.99573 11.5873 1.9885 11.2251 2.01927ZM6.88619 7.9411C6.33726 8.04503 5.74962 8.49284 5.50281 8.9953C5.26589 9.47763 5.25874 9.57516 5.27203 12.1533L5.28399 14.4819L5.38539 14.743C5.65382 15.4341 6.15612 15.8848 6.83694 16.0453C7.20387 16.1318 16.6927 16.1318 17.0596 16.0453C17.7405 15.8848 18.2428 15.4341 18.5112 14.743L18.6126 14.4819L18.6245 12.1533C18.6378 9.57516 18.6307 9.47763 18.3938 8.9953C18.2388 8.67997 17.8699 8.30506 17.5486 8.13658C17.0755 7.88848 17.2631 7.89634 11.9287 7.9004C9.06043 7.90259 7.00186 7.91921 6.88619 7.9411ZM16.9596 9.33386C17.0391 9.38334 17.1446 9.48889 17.1941 9.56839L17.284 9.71302L17.295 11.9128C17.3023 13.3714 17.2921 14.1643 17.2647 14.2661C17.2084 14.475 17.0608 14.6397 16.8627 14.7146C16.7142 14.7708 16.2148 14.776 11.8868 14.7663L7.07593 14.7556L6.91113 14.6465C6.57383 14.4233 6.59333 14.5851 6.59318 12.0076C6.59306 10.1217 6.60252 9.71048 6.64818 9.62312C6.72327 9.47939 6.90077 9.32096 7.04255 9.27116C7.12272 9.24297 8.68744 9.23218 11.9874 9.23695L16.8149 9.24395L16.9596 9.33386ZM11.6676 9.85859C10.8391 9.95182 10.133 10.5486 9.87431 11.3743C9.77393 11.6947 9.76689 12.2724 9.85958 12.5861C10.0691 13.2952 10.6532 13.8799 11.3593 14.0873C11.6312 14.1672 12.2117 14.1684 12.5134 14.0898C13.2286 13.9035 13.8496 13.2825 14.0397 12.5634C14.1178 12.2678 14.1176 11.7336 14.0394 11.4361C13.8677 10.7836 13.3446 10.2077 12.7071 9.96914C12.4319 9.86622 12.0041 9.82072 11.6676 9.85859ZM12.3477 11.285C12.7476 11.5027 12.8856 11.9902 12.663 12.3991C12.3602 12.9557 11.5572 12.9627 11.241 12.4116C10.8245 11.6853 11.6113 10.8842 12.3477 11.285Z" fill="#424C60"/>
</svg>
