<svg width="116" height="20" viewBox="0 0 116 20" fill="none" xmlns="http://www.w3.org/2000/svg">
<path d="M9.23421 2.35685C9.47525 1.61501 10.5247 1.61501 10.7658 2.35685L12.0644 6.35345C12.1722 6.68521 12.4813 6.90983 12.8301 6.90983H17.0324C17.8124 6.90983 18.1368 7.90796 17.5057 8.36644L14.106 10.8365C13.8238 11.0415 13.7057 11.405 13.8135 11.7367L15.1121 15.7333C15.3531 16.4752 14.504 17.092 13.873 16.6336L10.4733 14.1635C10.1911 13.9585 9.80893 13.9585 9.52672 14.1635L6.127 16.6336C5.49596 17.092 4.6469 16.4752 4.88793 15.7333L6.18651 11.7367C6.2943 11.405 6.17622 11.0415 5.89401 10.8365L2.49429 8.36644C1.86325 7.90796 2.18756 6.90983 2.96757 6.90983H7.16985C7.51868 6.90983 7.82784 6.68521 7.93564 6.35345L9.23421 2.35685Z" fill="#F2994A"/>
<path d="M33.2342 2.35685C33.4753 1.61501 34.5247 1.61501 34.7658 2.35685L36.0644 6.35345C36.1722 6.68521 36.4813 6.90983 36.8301 6.90983H41.0324C41.8124 6.90983 42.1368 7.90796 41.5057 8.36644L38.106 10.8365C37.8238 11.0415 37.7057 11.405 37.8135 11.7367L39.1121 15.7333C39.3531 16.4752 38.504 17.092 37.873 16.6336L34.4733 14.1635C34.1911 13.9585 33.8089 13.9585 33.5267 14.1635L30.127 16.6336C29.496 17.092 28.6469 16.4752 28.8879 15.7333L30.1865 11.7367C30.2943 11.405 30.1762 11.0415 29.894 10.8365L26.4943 8.36644C25.8632 7.90796 26.1876 6.90983 26.9676 6.90983H31.1699C31.5187 6.90983 31.8278 6.68521 31.9356 6.35345L33.2342 2.35685Z" fill="#F2994A"/>
<path d="M57.2342 2.35685C57.4753 1.61501 58.5247 1.61501 58.7658 2.35685L60.0644 6.35345C60.1722 6.68521 60.4813 6.90983 60.8301 6.90983H65.0324C65.8124 6.90983 66.1368 7.90796 65.5057 8.36644L62.106 10.8365C61.8238 11.0415 61.7057 11.405 61.8135 11.7367L63.1121 15.7333C63.3531 16.4752 62.504 17.092 61.873 16.6336L58.4733 14.1635C58.1911 13.9585 57.8089 13.9585 57.5267 14.1635L54.127 16.6336C53.496 17.092 52.6469 16.4752 52.8879 15.7333L54.1865 11.7367C54.2943 11.405 54.1762 11.0415 53.894 10.8365L50.4943 8.36644C49.8632 7.90796 50.1876 6.90983 50.9676 6.90983H55.1699C55.5187 6.90983 55.8278 6.68521 55.9356 6.35345L57.2342 2.35685Z" fill="#F2994A"/>
<path d="M81.2342 2.35685C81.4753 1.61501 82.5247 1.61501 82.7658 2.35685L84.0644 6.35345C84.1722 6.68521 84.4813 6.90983 84.8301 6.90983H89.0324C89.8124 6.90983 90.1368 7.90796 89.5057 8.36644L86.106 10.8365C85.8238 11.0415 85.7057 11.405 85.8135 11.7367L87.1121 15.7333C87.3531 16.4752 86.504 17.092 85.873 16.6336L82.4733 14.1635C82.1911 13.9585 81.8089 13.9585 81.5267 14.1635L78.127 16.6336C77.496 17.092 76.6469 16.4752 76.8879 15.7333L78.1865 11.7367C78.2943 11.405 78.1762 11.0415 77.894 10.8365L74.4943 8.36644C73.8632 7.90796 74.1876 6.90983 74.9676 6.90983H79.1699C79.5187 6.90983 79.8278 6.68521 79.9356 6.35345L81.2342 2.35685Z" fill="#F2994A"/>
<path d="M105.234 2.35685C105.475 1.61501 106.525 1.61501 106.766 2.35685L108.064 6.35345C108.172 6.68521 108.481 6.90983 108.83 6.90983H113.032C113.812 6.90983 114.137 7.90796 113.506 8.36644L110.106 10.8365C109.824 11.0415 109.706 11.405 109.813 11.7367L111.112 15.7333C111.353 16.4752 110.504 17.092 109.873 16.6336L106.473 14.1635C106.191 13.9585 105.809 13.9585 105.527 14.1635L102.127 16.6336C101.496 17.092 100.647 16.4752 100.888 15.7333L102.187 11.7367C102.294 11.405 102.176 11.0415 101.894 10.8365L98.4943 8.36644C97.8632 7.90796 98.1876 6.90983 98.9676 6.90983H103.17C103.519 6.90983 103.828 6.68521 103.936 6.35345L105.234 2.35685Z" fill="#F2994A"/>
</svg>
