<svg width="35" height="35" viewBox="0 0 35 35" fill="none" xmlns="http://www.w3.org/2000/svg">
<path d="M18.332 9.78V14.268L18.094 17.43H16.666L16.428 14.268V9.78H18.332ZM17.38 18.756C17.7653 18.756 18.0713 18.8693 18.298 19.096C18.536 19.3113 18.655 19.6003 18.655 19.963C18.655 20.3257 18.536 20.6147 18.298 20.83C18.0713 21.0453 17.7653 21.153 17.38 21.153C17.006 21.153 16.7 21.0453 16.462 20.83C16.2353 20.6147 16.122 20.3257 16.122 19.963C16.122 19.6003 16.2353 19.3113 16.462 19.096C16.7 18.8693 17.006 18.756 17.38 18.756Z" fill="#F178B6"/>
<path d="M15.768 3C16.5378 1.66666 18.4623 1.66667 19.2321 3L30.9234 23.25C31.6932 24.5833 30.7309 26.25 29.1913 26.25H5.80866C4.26905 26.25 3.30681 24.5833 4.07661 23.25L15.768 3Z" stroke="#F178B6" stroke-width="2"/>
</svg>
