<svg width="179" height="149" viewBox="0 0 179 149" fill="none" xmlns="http://www.w3.org/2000/svg">
<path d="M84.0755 149C123.118 149 154.768 147.389 154.768 145.401C154.768 143.413 123.118 141.802 84.0755 141.802C45.033 141.802 13.3828 143.413 13.3828 145.401C13.3828 147.389 45.033 149 84.0755 149Z" fill="#F2F2F2"/>
<path d="M125.38 34.5804H124.576V12.6771C124.576 9.31491 123.235 6.09045 120.847 3.71304C118.459 1.33562 115.22 3.71208e-06 111.843 0H65.2331C61.8561 -6.36352e-06 58.6174 1.3356 56.2295 3.71301C53.8415 6.09041 52.5 9.31487 52.5 12.677V132.841C52.5 136.203 53.8415 139.427 56.2294 141.805C58.6173 144.182 61.856 145.518 65.2331 145.518H111.843C115.22 145.518 118.459 144.182 120.847 141.805C123.235 139.427 124.576 136.203 124.576 132.841V50.1716H125.38L125.38 34.5804Z" fill="#3F3D56"/>
<path d="M121.864 12.7654V132.752C121.864 135.263 120.862 137.671 119.079 139.447C117.296 141.222 114.877 142.22 112.355 142.22H65.5211C62.9991 142.22 60.5803 141.222 58.797 139.447C57.0136 137.671 56.0118 135.263 56.0117 132.752V12.7654C56.0118 10.2545 57.0137 7.84637 58.797 6.07088C60.5803 4.29538 62.9991 3.2979 65.5211 3.29785H71.2026C70.9234 3.98087 70.8171 4.72172 70.893 5.45524C70.9689 6.18877 71.2247 6.89248 71.6379 7.50449C72.0511 8.11649 72.609 8.61803 73.2625 8.96499C73.9161 9.31195 74.6453 9.49369 75.3859 9.49423H102.088C102.829 9.49369 103.558 9.31194 104.212 8.96498C104.865 8.61802 105.423 8.11648 105.837 7.50448C106.25 6.89247 106.505 6.18876 106.581 5.45524C106.657 4.72172 106.551 3.98087 106.272 3.29785H112.355C114.877 3.2979 117.296 4.29538 119.079 6.07088C120.862 7.84637 121.864 10.2545 121.864 12.7654Z" fill="white"/>
<path d="M106.779 64.5033C106.468 64.6652 106.151 64.8185 105.829 64.9631C105.536 65.0951 105.238 65.2191 104.936 65.335C104.825 65.377 104.713 65.419 104.6 65.461C103.711 65.7821 102.798 66.0328 101.869 66.2108C101.409 66.3008 100.943 66.3714 100.471 66.4227C100.082 66.4667 99.6879 66.4981 99.2903 66.5167C99.0071 66.5307 98.7239 66.5367 98.4387 66.5367C97.3094 66.5372 96.1825 66.4321 95.0728 66.2228C94.7835 66.1708 94.5004 66.1088 94.2172 66.0408C92.8475 65.714 91.5215 65.2268 90.2669 64.5892C90.1544 64.5332 90.042 64.4733 89.9295 64.4153C89.7628 64.3273 89.6002 64.2353 89.4375 64.1393C89.5158 64.0314 89.6002 63.9254 89.6865 63.8214C90.6262 62.662 91.8008 61.7126 93.1338 61.0354C94.4667 60.3581 95.928 59.9681 97.4224 59.8908C98.9169 59.8134 100.411 60.0505 101.807 60.5865C103.203 61.1225 104.471 61.9454 105.526 63.0016C105.892 63.3676 106.232 63.7592 106.542 64.1733C106.625 64.2813 106.703 64.3913 106.779 64.5033Z" fill="#74C247"/>
<path d="M98.838 55.72C103.708 55.72 107.656 51.7892 107.656 46.9403C107.656 42.0914 103.708 38.1606 98.838 38.1606C93.9677 38.1606 90.0195 42.0914 90.0195 46.9403C90.0195 51.7892 93.9677 55.72 98.838 55.72Z" fill="#2F2E41"/>
<path d="M101.184 55.7325C104.365 54.0015 105.534 50.0311 103.795 46.8645C102.056 43.6978 98.0686 42.5341 94.8879 44.2651C91.7073 45.9961 90.5384 49.9665 92.2771 53.1331C94.0158 56.2997 98.0036 57.4635 101.184 55.7325Z" fill="#A0616A"/>
<path d="M104.931 45.8888C103.431 46.918 101.651 47.4657 99.8292 47.4585C100.479 47.907 101.219 48.21 101.997 48.3465C99.5755 48.8638 97.0725 48.8778 94.6449 48.3877C94.1053 48.3015 93.5847 48.1235 93.1058 47.8614C92.8671 47.7287 92.6592 47.5475 92.4955 47.3295C92.3318 47.1116 92.2161 46.8618 92.1557 46.5964C91.9944 45.6789 92.7125 44.8454 93.4587 44.2836C94.6012 43.4366 95.9186 42.8531 97.3154 42.5752C98.7123 42.2973 100.154 42.332 101.535 42.6767C102.438 42.9089 103.341 43.3012 103.928 44.0226C104.514 44.7439 104.687 45.8561 104.129 46.5989L104.931 45.8888Z" fill="#2F2E41"/>
<path d="M98.4381 30.5459C94.4962 30.5453 90.6622 31.8279 87.5205 34.1982C84.3788 36.5685 82.1016 39.8965 81.0361 43.6749C79.9705 47.4534 80.1751 51.4751 81.6185 55.127C83.0619 58.779 85.6651 61.861 89.0312 63.9032L89.1477 63.9712C89.2441 64.0292 89.3405 64.0851 89.4369 64.1391C89.5996 64.2351 89.7621 64.3271 89.9289 64.4151C90.0413 64.473 90.1538 64.533 90.2663 64.589C91.5208 65.2265 92.8469 65.7138 94.2166 66.0406C94.4998 66.1086 94.7829 66.1706 95.0722 66.2226C96.1818 66.4319 97.3087 66.537 98.4381 66.5365C98.7233 66.5365 99.0065 66.5305 99.2897 66.5165C99.6873 66.4985 100.081 66.4672 100.471 66.4225C100.943 66.3705 101.408 66.2999 101.868 66.2106C102.797 66.0326 103.71 65.7818 104.6 65.4608C104.712 65.4188 104.825 65.3768 104.935 65.3348C105.238 65.2188 105.536 65.0949 105.829 64.9629C106.15 64.8189 106.467 64.6657 106.779 64.503C109.905 62.8729 112.489 60.3745 114.217 57.3109C114.225 57.2949 114.236 57.2789 114.244 57.2629C115.166 55.6156 115.82 53.8333 116.182 51.9823C116.69 49.3765 116.613 46.691 115.956 44.1183C115.3 41.5455 114.08 39.1491 112.384 37.1006C110.689 35.0521 108.559 33.4022 106.148 32.269C103.737 31.1358 101.104 30.5474 98.4381 30.5459H98.4381ZM113.914 57.029C113.898 57.057 113.884 57.085 113.868 57.111C112.174 60.1293 109.626 62.5852 106.542 64.1731C106.234 64.3331 105.922 64.483 105.604 64.623C105.341 64.741 105.072 64.8529 104.8 64.9569C104.686 65.0009 104.57 65.0449 104.453 65.0849C103.685 65.3642 102.898 65.5888 102.097 65.7567C101.504 65.8825 100.904 65.9767 100.3 66.0386C99.9282 66.0786 99.5507 66.1066 99.1711 66.1206C98.9281 66.1306 98.6831 66.1366 98.4381 66.1366C97.3452 66.1379 96.2546 66.0368 95.1807 65.8347C94.5273 65.7147 93.8816 65.5572 93.2466 65.3628C92.2793 65.0653 91.3394 64.686 90.437 64.2291C90.3326 64.1751 90.2281 64.1211 90.1256 64.0651C89.979 63.9872 89.8305 63.9072 89.6858 63.8212C89.5774 63.7612 89.4689 63.6972 89.3625 63.6333C89.3003 63.5973 89.238 63.5593 89.1757 63.5213C86.2244 61.7168 83.8702 59.0894 82.4051 55.9649C80.94 52.8405 80.4285 49.3566 80.9341 45.9453C81.4397 42.5341 82.94 39.3457 85.2491 36.7758C87.5582 34.2058 90.5743 32.3673 93.9233 31.4884C97.2723 30.6095 100.807 30.7288 104.088 31.8317C107.37 32.9345 110.254 34.9722 112.383 37.692C114.512 40.4119 115.791 43.6942 116.064 47.1316C116.336 50.5691 115.589 54.0106 113.914 57.029H113.914Z" fill="#3F3D56"/>
<path d="M94.3715 38.2818C94.2767 37.2885 93.0544 36.677 92.0985 36.977C91.1427 37.2771 90.5152 38.2353 90.3255 39.215C90.2342 39.6277 90.2256 40.0542 90.3002 40.4701C90.3749 40.8861 90.5312 41.2832 90.7603 41.6389C91.2435 42.3312 92.1313 42.7632 92.9594 42.5875C93.9048 42.3868 94.5597 41.4678 94.7471 40.5238C94.9345 39.5797 94.7484 38.6064 94.5626 37.6621L94.3715 38.2818Z" fill="#2F2E41"/>
<path d="M107.825 39.7008C107.73 38.7074 106.508 38.0959 105.552 38.396C104.596 38.696 103.968 39.6542 103.779 40.634C103.687 41.0466 103.679 41.4731 103.753 41.8891C103.828 42.305 103.984 42.7022 104.213 43.0578C104.697 43.7501 105.584 44.1821 106.413 44.0064C107.358 43.8058 108.013 42.8868 108.2 41.9427C108.388 40.9987 108.202 40.0254 108.016 39.081L107.825 39.7008Z" fill="#2F2E41"/>
<path d="M67.1949 55.7331C67.0699 55.733 66.9462 55.7069 66.8319 55.6564C66.7175 55.606 66.615 55.5324 66.5309 55.4403L56.5652 44.6164C56.4521 44.4939 56.3147 44.396 56.1617 44.329C56.0087 44.262 55.8434 44.2273 55.6763 44.2271H3.01433C2.21516 44.2262 1.44897 43.9097 0.883868 43.3471C0.318765 42.7845 0.000897271 42.0217 0 41.226V22.3185C0.00089674 21.5228 0.318765 20.76 0.883868 20.1974C1.44897 19.6347 2.21516 19.3183 3.01433 19.3174H71.2418C72.041 19.3183 72.8072 19.6347 73.3723 20.1974C73.9374 20.76 74.2553 21.5228 74.2562 22.3185V41.226C74.2553 42.0217 73.9374 42.7845 73.3723 43.3471C72.8072 43.9097 72.041 44.2262 71.2418 44.2271H69.3075C68.9878 44.2275 68.6813 44.3541 68.4552 44.5792C68.2291 44.8043 68.102 45.1094 68.1016 45.4278V54.832C68.1024 55.0135 68.0477 55.191 67.9447 55.3409C67.8418 55.4907 67.6955 55.6058 67.5252 55.6709C67.42 55.7119 67.308 55.733 67.1949 55.7331Z" fill="white"/>
<path d="M67.1949 55.7331C67.0699 55.733 66.9462 55.7069 66.8319 55.6564C66.7175 55.606 66.615 55.5324 66.5309 55.4403L56.5652 44.6164C56.4521 44.4939 56.3147 44.396 56.1617 44.329C56.0087 44.262 55.8434 44.2273 55.6763 44.2271H3.01433C2.21516 44.2262 1.44897 43.9097 0.883868 43.3471C0.318765 42.7845 0.000897271 42.0217 0 41.226V22.3185C0.00089674 21.5228 0.318765 20.76 0.883868 20.1974C1.44897 19.6347 2.21516 19.3183 3.01433 19.3174H71.2418C72.041 19.3183 72.8072 19.6347 73.3723 20.1974C73.9374 20.76 74.2553 21.5228 74.2562 22.3185V41.226C74.2553 42.0217 73.9374 42.7845 73.3723 43.3471C72.8072 43.9097 72.041 44.2262 71.2418 44.2271H69.3075C68.9878 44.2275 68.6813 44.3541 68.4552 44.5792C68.2291 44.8043 68.102 45.1094 68.1016 45.4278V54.832C68.1024 55.0135 68.0477 55.191 67.9447 55.3409C67.8418 55.4907 67.6955 55.6058 67.5252 55.6709C67.42 55.7119 67.308 55.733 67.1949 55.7331ZM3.01433 19.7173C2.32165 19.7181 1.65756 19.9924 1.16776 20.48C0.677957 20.9677 0.402445 21.6288 0.401663 22.3185V41.226C0.402446 41.9157 0.67796 42.5768 1.16776 43.0645C1.65756 43.5521 2.32165 43.8264 3.01433 43.8272H55.6763C55.8991 43.8275 56.1194 43.8737 56.3234 43.963C56.5274 44.0524 56.7105 44.1828 56.8612 44.3462L66.8269 55.1701C66.8953 55.2444 66.9847 55.2964 67.0833 55.3192C67.182 55.3421 67.2852 55.3348 67.3796 55.2982C67.4739 55.2617 67.555 55.1976 67.6122 55.1144C67.6694 55.0312 67.7 54.9328 67.7 54.832V45.4278C67.7004 45.0034 67.8699 44.5966 68.1713 44.2965C68.4727 43.9965 68.8813 43.8277 69.3075 43.8272H71.2418C71.9345 43.8264 72.5986 43.5521 73.0884 43.0645C73.5782 42.5768 73.8537 41.9157 73.8545 41.226V22.3185C73.8537 21.6288 73.5782 20.9677 73.0884 20.48C72.5986 19.9924 71.9345 19.7181 71.2418 19.7173H3.01433Z" fill="#3F3D56"/>
<path d="M7.39547 27.6584C8.85221 27.6584 10.0331 26.4826 10.0331 25.0323C10.0331 23.582 8.85221 22.4062 7.39547 22.4062C5.93873 22.4062 4.75781 23.582 4.75781 25.0323C4.75781 26.4826 5.93873 27.6584 7.39547 27.6584Z" fill="#74C247"/>
<path d="M68.165 39.5628H6.09203C5.90715 39.5631 5.72404 39.527 5.55317 39.4567C5.3823 39.3864 5.22703 39.2833 5.09622 39.1532C4.96541 39.0231 4.86164 38.8687 4.79084 38.6986C4.72004 38.5286 4.68359 38.3463 4.68359 38.1623C4.68359 37.9782 4.72004 37.796 4.79084 37.6259C4.86164 37.4559 4.96541 37.3014 5.09622 37.1713C5.22703 37.0413 5.3823 36.9381 5.55317 36.8679C5.72404 36.7976 5.90715 36.7615 6.09203 36.7617H68.165C68.5378 36.7622 68.8951 36.9099 69.1586 37.1725C69.4221 37.4351 69.57 37.7911 69.57 38.1623C69.57 38.5334 69.4221 38.8894 69.1586 39.152C68.8951 39.4146 68.5378 39.5624 68.165 39.5628Z" fill="#E6E6E6"/>
<path d="M47.9429 33.6107H6.09203C5.90715 33.6109 5.72404 33.5748 5.55317 33.5046C5.3823 33.4343 5.22703 33.3311 5.09622 33.2011C4.96541 33.071 4.86164 32.9165 4.79084 32.7465C4.72004 32.5765 4.68359 32.3942 4.68359 32.2101C4.68359 32.0261 4.72004 31.8438 4.79084 31.6738C4.86164 31.5037 4.96541 31.3493 5.09622 31.2192C5.22703 31.0891 5.3823 30.986 5.55317 30.9157C5.72404 30.8454 5.90715 30.8094 6.09203 30.8096H47.9429C48.316 30.8096 48.6738 30.9571 48.9376 31.2198C49.2015 31.4824 49.3497 31.8387 49.3497 32.2101C49.3497 32.5816 49.2015 32.9378 48.9376 33.2005C48.6738 33.4631 48.316 33.6107 47.9429 33.6107Z" fill="#E6E6E6"/>
<path d="M111.473 119.854C111.303 119.789 111.157 119.674 111.054 119.524C110.951 119.375 110.896 119.197 110.897 119.016V109.611C110.896 109.293 110.769 108.988 110.543 108.763C110.317 108.538 110.011 108.411 109.691 108.411H107.757C106.957 108.41 106.191 108.093 105.626 107.531C105.061 106.968 104.743 106.205 104.742 105.41V86.502C104.743 85.7064 105.061 84.9436 105.626 84.381C106.191 83.8183 106.957 83.5019 107.757 83.501H175.984C176.783 83.5019 177.549 83.8183 178.114 84.381C178.68 84.9436 178.997 85.7064 178.998 86.502V105.41C178.997 106.205 178.68 106.968 178.114 107.531C177.549 108.093 176.783 108.41 175.984 108.411H123.322C123.155 108.411 122.99 108.446 122.837 108.513C122.684 108.58 122.546 108.677 122.433 108.8L112.467 119.624C112.383 119.716 112.281 119.79 112.166 119.84C112.052 119.89 111.928 119.917 111.803 119.917C111.69 119.917 111.578 119.895 111.473 119.854Z" fill="white"/>
<path d="M111.473 119.854C111.303 119.789 111.157 119.674 111.054 119.524C110.951 119.375 110.896 119.197 110.897 119.016V109.611C110.896 109.293 110.769 108.988 110.543 108.763C110.317 108.538 110.011 108.411 109.691 108.411H107.757C106.957 108.41 106.191 108.093 105.626 107.531C105.061 106.968 104.743 106.205 104.742 105.41V86.502C104.743 85.7064 105.061 84.9436 105.626 84.381C106.191 83.8183 106.957 83.5019 107.757 83.501H175.984C176.783 83.5019 177.549 83.8183 178.114 84.381C178.68 84.9436 178.997 85.7064 178.998 86.502V105.41C178.997 106.205 178.68 106.968 178.114 107.531C177.549 108.093 176.783 108.41 175.984 108.411H123.322C123.155 108.411 122.99 108.446 122.837 108.513C122.684 108.58 122.546 108.677 122.433 108.8L112.467 119.624C112.383 119.716 112.281 119.79 112.166 119.84C112.052 119.89 111.928 119.917 111.803 119.917C111.69 119.917 111.578 119.895 111.473 119.854ZM107.757 83.9009C107.064 83.9017 106.4 84.176 105.91 84.6636C105.42 85.1512 105.145 85.8124 105.144 86.502V105.41C105.145 106.099 105.42 106.76 105.91 107.248C106.4 107.736 107.064 108.01 107.757 108.011H109.691C110.117 108.011 110.526 108.18 110.827 108.48C111.128 108.78 111.298 109.187 111.298 109.611V119.016C111.298 119.116 111.329 119.215 111.386 119.298C111.443 119.381 111.524 119.445 111.619 119.482C111.713 119.518 111.816 119.526 111.915 119.503C112.014 119.48 112.103 119.428 112.171 119.354L122.137 108.53C122.288 108.366 122.471 108.236 122.675 108.147C122.879 108.057 123.099 108.011 123.322 108.011H175.984C176.677 108.01 177.341 107.736 177.831 107.248C178.32 106.76 178.596 106.099 178.597 105.41V86.502C178.596 85.8124 178.32 85.1512 177.831 84.6636C177.341 84.176 176.677 83.9017 175.984 83.9009H107.757Z" fill="#3F3D56"/>
<path d="M90.2103 125.709C87.4124 127.493 84.1708 128.466 80.8488 128.518C77.5269 128.571 74.2558 127.701 71.4023 126.007C71.9043 125.077 72.5404 124.225 73.2902 123.478C74.4473 122.32 75.8554 121.442 77.4064 120.911C78.9574 120.38 80.6101 120.21 82.2374 120.414C83.8647 120.618 85.4234 121.191 86.7937 122.089C88.1639 122.986 89.3094 124.184 90.1419 125.591C90.164 125.629 90.1881 125.669 90.2103 125.709Z" fill="#74C247"/>
<path d="M80.0216 116.148C84.9243 116.148 88.8987 112.191 88.8987 107.31C88.8987 102.429 84.9243 98.4717 80.0216 98.4717C75.1189 98.4717 71.1445 102.429 71.1445 107.31C71.1445 112.191 75.1189 116.148 80.0216 116.148Z" fill="#2F2E41"/>
<path d="M86.627 113.543C88.3772 110.356 87.2005 106.359 83.9988 104.616C80.797 102.874 76.7826 104.045 75.0324 107.233C73.2821 110.421 74.4588 114.417 77.6606 116.16C80.8624 117.903 84.8768 116.731 86.627 113.543Z" fill="#FFB8B8"/>
<path d="M73.8867 106.251C75.3965 107.287 77.1885 107.838 79.0222 107.831C78.3681 108.283 77.6235 108.588 76.8396 108.725C79.2775 109.246 81.7972 109.26 84.2409 108.766C84.7841 108.68 85.3082 108.5 85.7903 108.237C86.0305 108.103 86.2398 107.921 86.4046 107.701C86.5694 107.482 86.6859 107.23 86.7466 106.963C86.909 106.04 86.1862 105.201 85.435 104.635C84.2849 103.782 82.9588 103.195 81.5526 102.915C80.1465 102.636 78.6955 102.67 77.3045 103.018C76.3963 103.251 75.4865 103.646 74.8966 104.372C74.3067 105.098 74.1319 106.218 74.694 106.966L73.8867 106.251Z" fill="#2F2E41"/>
<path d="M80.5636 128.721C76.2161 128.719 72.0149 127.157 68.7305 124.322C65.4461 121.486 63.2988 117.566 62.6825 113.281C62.0662 108.996 63.0222 104.634 65.3752 100.995C67.7281 97.3549 71.3203 94.6819 75.4927 93.4658C79.6651 92.2497 84.138 92.5722 88.0909 94.3739C92.0438 96.1757 95.2118 99.336 97.0136 103.275C98.8154 107.214 99.1302 111.668 97.9004 115.82C96.6706 119.971 93.9786 123.542 90.3182 125.878C87.4073 127.736 84.0215 128.723 80.5636 128.721ZM80.5636 93.1299C77.0677 93.1296 73.6503 94.1614 70.7434 96.0949C67.8365 98.0283 65.5708 100.777 64.2329 103.992C62.8949 107.208 62.5447 110.746 63.2267 114.16C63.9086 117.573 65.592 120.709 68.064 123.17C70.5359 125.631 73.6854 127.307 77.1142 127.986C80.5429 128.665 84.0969 128.316 87.3266 126.984C90.5563 125.652 93.3167 123.396 95.2587 120.502C97.2007 117.608 98.2371 114.206 98.2368 110.725C98.2315 106.06 96.3678 101.588 93.0546 98.2893C89.7414 94.9907 85.2492 93.1352 80.5636 93.1299Z" fill="#3F3D56"/>
<path d="M113.231 91.6413C114.688 91.6413 115.869 90.4655 115.869 89.0152C115.869 87.5649 114.688 86.3892 113.231 86.3892C111.775 86.3892 110.594 87.5649 110.594 89.0152C110.594 90.4655 111.775 91.6413 113.231 91.6413Z" fill="#74C247"/>
<path d="M174.001 103.546H111.928C111.743 103.546 111.56 103.51 111.389 103.44C111.218 103.37 111.063 103.267 110.932 103.137C110.801 103.007 110.698 102.852 110.627 102.682C110.556 102.512 110.52 102.33 110.52 102.146C110.52 101.962 110.556 101.779 110.627 101.609C110.698 101.439 110.801 101.285 110.932 101.155C111.063 101.025 111.218 100.922 111.389 100.851C111.56 100.781 111.743 100.745 111.928 100.745H174.001C174.374 100.745 174.732 100.893 174.996 101.155C175.259 101.418 175.408 101.774 175.408 102.146C175.408 102.517 175.259 102.873 174.996 103.136C174.732 103.399 174.374 103.546 174.001 103.546Z" fill="#E6E6E6"/>
<path d="M153.779 97.5941H111.928C111.743 97.5943 111.56 97.5583 111.389 97.488C111.218 97.4177 111.063 97.3146 110.932 97.1845C110.801 97.0544 110.698 96.8999 110.627 96.7299C110.556 96.5599 110.52 96.3776 110.52 96.1935C110.52 96.0095 110.556 95.8272 110.627 95.6572C110.698 95.4871 110.801 95.3327 110.932 95.2026C111.063 95.0725 111.218 94.9694 111.389 94.8991C111.56 94.8288 111.743 94.7927 111.928 94.793H153.779C154.152 94.7934 154.509 94.9412 154.772 95.2038C155.036 95.4664 155.184 95.8224 155.184 96.1935C155.184 96.5647 155.036 96.9207 154.772 97.1833C154.509 97.4459 154.152 97.5937 153.779 97.5941Z" fill="#E6E6E6"/>
<path d="M111.39 121.644C114.108 121.644 116.311 121.401 116.311 121.1C116.311 120.8 114.108 120.557 111.39 120.557C108.672 120.557 106.469 120.8 106.469 121.1C106.469 121.401 108.672 121.644 111.39 121.644Z" fill="#F2F2F2"/>
<path d="M67.4094 57.6613C70.1273 57.6613 72.3306 57.4178 72.3306 57.1175C72.3306 56.8172 70.1273 56.5737 67.4094 56.5737C64.6916 56.5737 62.4883 56.8172 62.4883 57.1175C62.4883 57.4178 64.6916 57.6613 67.4094 57.6613Z" fill="#F2F2F2"/>
</svg>
