<svg width="203" height="143" viewBox="0 0 203 143" fill="none" xmlns="http://www.w3.org/2000/svg">
<g clip-path="url(#clip0_2373_11888)">
<path d="M103.676 142.697C109.782 142.697 114.731 137.749 114.731 131.646C114.731 125.543 109.782 120.596 103.676 120.596C97.5706 120.596 92.6211 125.543 92.6211 131.646C92.6211 137.749 97.5706 142.697 103.676 142.697Z" fill="#74C247"/>
<path d="M169.721 142.076C175.906 140.219 182.481 138.283 187.386 133.869C191.769 129.925 194.728 123.902 192.912 117.987C191.1 112.084 185.673 108.148 180.069 106.191C176.891 105.08 173.565 104.464 170.241 103.981C166.628 103.455 162.999 103.024 159.371 102.609C144.683 100.929 129.939 99.9036 115.14 99.5312C107.838 99.3474 100.537 99.3518 93.2337 99.4578C86.7113 99.5524 79.8421 99.5501 73.7913 96.7791C69.0861 94.6243 64.8155 90.7039 63.5045 85.5522C61.991 79.6054 64.7825 73.5494 68.7869 69.2425C70.8976 66.9723 73.3645 65.0616 75.9093 63.3046C78.6701 61.3986 81.5271 59.6276 84.446 57.9744C90.1949 54.7199 96.2053 51.9502 102.415 49.694C105.478 48.5807 108.586 47.6201 111.722 46.734C114.37 45.9858 117.026 45.2364 119.585 44.217C124.531 42.2462 129.236 38.9079 130.494 33.4351C131.686 28.2482 129.676 22.6174 126.153 18.7641C122.076 14.3061 115.929 12.3519 110.036 12.0357C103.42 11.6807 96.9569 13.3358 90.7385 15.4364C84.1062 17.6768 77.6169 20.2528 70.8445 22.0675C64.1287 23.8653 57.283 25.1373 50.3695 25.8719C46.9851 26.2322 43.4984 26.6389 40.0939 26.3632C37.2406 26.132 34.4019 25.2932 32.2991 23.2691C30.496 21.5335 29.4219 19.1482 29.7912 16.6309C29.8583 16.1737 30.5531 16.3681 30.4864 16.8225C30.0369 19.8867 32.1206 22.7102 34.6884 24.1566C37.656 25.8282 41.2671 25.8305 44.5711 25.6393C51.7351 25.2068 58.8505 24.1786 65.8437 22.5654C72.7153 20.9965 79.3415 18.7538 85.9602 16.3581C92.2462 14.0827 98.6728 11.862 105.388 11.3691C111.215 10.9415 117.345 11.7901 122.422 14.834C126.883 17.5092 130.164 21.9706 131.209 27.0901C132.231 32.0928 130.816 37.1281 127.027 40.6192C123.105 44.2338 117.726 45.7791 112.714 47.2024C106.357 49.0076 100.136 51.1177 94.1145 53.8575C88.011 56.6269 82.1574 59.9164 76.6185 63.6897C71.2721 67.3418 65.9958 71.937 64.3049 78.4522C63.5173 81.487 63.6627 84.7059 64.9806 87.5724C66.1525 90.1213 68.0824 92.2653 70.3307 93.919C75.6951 97.8646 82.456 98.6747 88.9356 98.7553C96.2131 98.8458 103.491 98.6003 110.771 98.7198C125.607 98.9632 140.413 99.8658 155.188 101.428C158.89 101.82 162.588 102.253 166.281 102.727C169.603 103.153 172.936 103.577 176.201 104.335C182.008 105.682 187.659 108.273 191.268 113.194C192.87 115.327 193.862 117.855 194.139 120.508C194.392 123.277 193.714 126.05 192.462 128.513C189.69 133.964 184.499 137.431 178.986 139.709C176.033 140.929 172.97 141.853 169.913 142.771C169.468 142.905 169.277 142.209 169.721 142.076L169.721 142.076Z" fill="#F2F2F2"/>
<path d="M30.2562 22.4617C33.4417 22.4617 36.0241 19.8804 36.0241 16.6962C36.0241 13.512 33.4417 10.9307 30.2562 10.9307C27.0707 10.9307 24.4883 13.512 24.4883 16.6962C24.4883 19.8804 27.0707 22.4617 30.2562 22.4617Z" fill="#F2F2F2"/>
<path d="M70.2718 33.3919C73.4573 33.3919 76.0397 30.8106 76.0397 27.6264C76.0397 24.4422 73.4573 21.8608 70.2718 21.8608C67.0863 21.8608 64.5039 24.4422 64.5039 27.6264C64.5039 30.8106 67.0863 33.3919 70.2718 33.3919Z" fill="#F2F2F2"/>
<path d="M104.159 11.5311C107.344 11.5311 109.926 8.94975 109.926 5.76553C109.926 2.58132 107.344 0 104.159 0C100.973 0 98.3906 2.58132 98.3906 5.76553C98.3906 8.94975 100.973 11.5311 104.159 11.5311Z" fill="#F2F2F2"/>
<path d="M125.307 36.0345C128.492 36.0345 131.075 33.4532 131.075 30.269C131.075 27.0847 128.492 24.5034 125.307 24.5034C122.121 24.5034 119.539 27.0847 119.539 30.269C119.539 33.4532 122.121 36.0345 125.307 36.0345Z" fill="#F2F2F2"/>
<path d="M96.7054 64.3817C99.8909 64.3817 102.473 61.8003 102.473 58.6161C102.473 55.4319 99.8909 52.8506 96.7054 52.8506C93.5199 52.8506 90.9375 55.4319 90.9375 58.6161C90.9375 61.8003 93.5199 64.3817 96.7054 64.3817Z" fill="#F2F2F2"/>
<path d="M60.4163 78.075C63.6018 78.075 66.1842 75.4937 66.1842 72.3095C66.1842 69.1253 63.6018 66.5439 60.4163 66.5439C57.2308 66.5439 54.6484 69.1253 54.6484 72.3095C54.6484 75.4937 57.2308 78.075 60.4163 78.075Z" fill="#F2F2F2"/>
<path d="M98.8695 99.4554C102.055 99.4554 104.637 96.8741 104.637 93.6898C104.637 90.5056 102.055 87.9243 98.8695 87.9243C95.6839 87.9243 93.1016 90.5056 93.1016 93.6898C93.1016 96.8741 95.6839 99.4554 98.8695 99.4554Z" fill="#F2F2F2"/>
<path d="M140.205 111.467C143.391 111.467 145.973 108.886 145.973 105.702C145.973 102.517 143.391 99.936 140.205 99.936C137.02 99.936 134.438 102.517 134.438 105.702C134.438 108.886 137.02 111.467 140.205 111.467Z" fill="#F2F2F2"/>
<path d="M188.514 108.825C191.7 108.825 194.282 106.243 194.282 103.059C194.282 99.8748 191.7 97.2935 188.514 97.2935C185.328 97.2935 182.746 99.8748 182.746 103.059C182.746 106.243 185.328 108.825 188.514 108.825Z" fill="#F2F2F2"/>
<path d="M102.493 16.3363C85.2157 16.4583 71.0689 30.493 70.8235 47.7624C70.8212 47.9218 70.8202 49.0429 70.8203 50.5092C70.8204 52.6591 71.6749 54.721 73.1957 56.2413C74.7165 57.7616 76.7791 58.6158 78.93 58.616H78.93C79.9962 58.6158 81.0519 58.4056 82.0367 57.9973C83.0216 57.5891 83.9164 56.9909 84.6699 56.2369C85.4234 55.4829 86.0209 54.5879 86.4282 53.6029C86.8355 52.618 87.0447 51.5625 87.0438 50.4968C87.0429 49.4993 87.0424 48.809 87.0424 48.7666C87.0419 46.0976 87.7364 43.4745 89.0576 41.1552C90.3789 38.836 92.2814 36.9004 94.578 35.5391C96.8746 34.1777 99.4861 33.4373 102.156 33.3909C104.825 33.3444 107.461 33.9934 109.804 35.274C112.146 36.5546 114.115 38.4227 115.516 40.6946C116.918 42.9665 117.703 45.5639 117.796 48.2312C117.888 50.8986 117.284 53.544 116.043 55.9074C114.803 58.2707 112.968 60.2705 110.72 61.7101L110.723 61.7135C110.723 61.7135 99.1799 69.1413 95.6609 79.3309L95.6639 79.3316C95.0451 81.419 94.7315 83.5849 94.733 85.7621C94.733 86.657 94.7856 94.4876 94.8874 100.843C94.923 103.036 95.8196 105.127 97.3838 106.665C98.948 108.203 101.054 109.065 103.248 109.064H103.248C104.351 109.064 105.443 108.846 106.46 108.423C107.478 108 108.402 107.379 109.18 106.598C109.957 105.816 110.572 104.889 110.989 103.868C111.406 102.848 111.617 101.756 111.61 100.654C111.575 94.8332 111.556 88.0557 111.556 87.5638C111.556 81.3071 117.594 75.0731 122.554 71.0077C128.266 66.3264 132.376 59.9468 134.027 52.7504C134.392 51.2688 134.594 49.7516 134.628 48.2261C134.628 44.0187 133.795 39.853 132.177 35.9689C130.559 32.0847 128.189 28.5589 125.202 25.5947C122.215 22.6304 118.67 20.2863 114.773 18.6973C110.876 17.1083 106.702 16.3059 102.493 16.3363Z" fill="#74C247"/>
<path d="M202.713 143H0.285328C0.209579 143 0.137008 142.969 0.0835225 142.916C0.0300369 142.862 0 142.79 0 142.714C0 142.638 0.0300369 142.565 0.0835225 142.512C0.137008 142.458 0.209579 142.428 0.285328 142.428H202.713C202.789 142.428 202.862 142.458 202.915 142.512C202.969 142.565 202.999 142.638 202.999 142.714C202.999 142.79 202.969 142.862 202.915 142.916C202.862 142.97 202.789 143 202.713 143Z" fill="#3F3D56"/>
<path d="M151.034 65.5818C155.016 65.5818 158.244 62.3551 158.244 58.3749C158.244 54.3946 155.016 51.168 151.034 51.168C147.052 51.168 143.824 54.3946 143.824 58.3749C143.824 62.3551 147.052 65.5818 151.034 65.5818Z" fill="#2F2E41"/>
<path d="M137.711 139.845H134.765L133.363 128.485H137.712L137.711 139.845Z" fill="#A0616A"/>
<path d="M132.66 139.003H138.342V142.58H129.082C129.082 142.11 129.175 141.645 129.354 141.211C129.534 140.777 129.798 140.383 130.13 140.051C130.462 139.719 130.857 139.455 131.291 139.276C131.725 139.096 132.19 139.003 132.66 139.003Z" fill="#2F2E41"/>
<path d="M160.543 139.845H157.597L156.195 128.485H160.544L160.543 139.845Z" fill="#A0616A"/>
<path d="M155.492 139.003H161.174V142.58H151.914C151.914 142.11 152.007 141.645 152.186 141.211C152.366 140.777 152.63 140.383 152.962 140.051C153.294 139.719 153.689 139.455 154.123 139.276C154.557 139.096 155.022 139.003 155.492 139.003Z" fill="#2F2E41"/>
<path d="M149.938 65.6239C153.198 65.6239 155.841 62.9822 155.841 59.7236C155.841 56.4649 153.198 53.8232 149.938 53.8232C146.678 53.8232 144.035 56.4649 144.035 59.7236C144.035 62.9822 146.678 65.6239 149.938 65.6239Z" fill="#A0616A"/>
<path d="M153.456 84.6586L156.097 78.5927C156.739 77.1698 156.923 75.5829 156.623 74.051C156.324 72.5192 155.557 71.1179 154.427 70.0405C154.195 69.8112 153.949 69.597 153.689 69.3991C152.386 68.38 150.78 67.8246 149.125 67.8208C148.013 67.8251 146.914 68.0693 145.905 68.5367C145.818 68.5751 145.734 68.616 145.648 68.6568C145.482 68.7361 145.319 68.8226 145.16 68.9114C144.125 69.5053 143.245 70.3338 142.589 71.3303C141.934 72.3268 141.522 73.4633 141.387 74.6482L140.221 84.4111C139.928 85.1775 129.469 112.852 133.127 133.98C133.166 134.206 133.276 134.413 133.441 134.572C133.606 134.73 133.818 134.832 134.045 134.862L137.753 135.366C138.024 135.403 138.299 135.337 138.522 135.179C138.745 135.022 138.901 134.786 138.957 134.518L145.179 104.872C145.218 104.687 145.317 104.521 145.462 104.4C145.606 104.279 145.786 104.21 145.975 104.204C146.163 104.197 146.348 104.254 146.5 104.365C146.652 104.476 146.762 104.635 146.813 104.816L155.605 135.993C155.667 136.22 155.803 136.42 155.99 136.562C156.177 136.704 156.405 136.781 156.64 136.781C156.711 136.781 156.781 136.775 156.85 136.762L161.38 135.89C161.643 135.841 161.879 135.695 162.04 135.481C162.201 135.268 162.277 135.001 162.252 134.735C161.586 127.314 158.049 90.143 153.456 84.6586Z" fill="#2F2E41"/>
<path d="M127.001 64.634C126.96 64.9848 126.996 65.3403 127.108 65.6754C127.219 66.0106 127.402 66.3173 127.645 66.5739C127.888 66.8305 128.184 67.0308 128.513 67.1606C128.841 67.2904 129.194 67.3467 129.547 67.3254L132.846 75.2512L135.342 71.553L131.826 64.5935C131.751 64.0037 131.462 63.4619 131.014 63.0707C130.566 62.6796 129.99 62.4663 129.395 62.4713C128.801 62.4763 128.228 62.6992 127.787 63.0978C127.346 63.4964 127.066 64.043 127.001 64.634L127.001 64.634Z" fill="#A0616A"/>
<path d="M149.613 92.6391C149.963 92.5972 150.301 92.4789 150.601 92.2926C150.901 92.1062 151.157 91.8564 151.35 91.5606C151.543 91.2649 151.669 90.9304 151.718 90.5808C151.768 90.2311 151.741 89.8748 151.638 89.537L158.58 84.4829L154.4 82.9185L148.449 87.9577C147.893 88.1681 147.433 88.5752 147.157 89.1018C146.88 89.6285 146.807 90.2381 146.951 90.8151C147.094 91.3922 147.444 91.8965 147.935 92.2327C148.426 92.5689 149.023 92.7135 149.613 92.6391Z" fill="#A0616A"/>
<path d="M138.294 80.5351C138.027 80.5348 137.762 80.5087 137.501 80.457C136.869 80.3368 136.277 80.0633 135.777 79.6604C135.276 79.2576 134.882 78.7378 134.63 78.1468L130.007 72.5127C129.909 72.3936 129.838 72.2549 129.798 72.1061C129.759 71.9573 129.751 71.8017 129.776 71.6497C129.802 71.4977 129.859 71.3529 129.945 71.225C130.031 71.097 130.143 70.9889 130.274 70.9078L133.563 68.8729C133.684 68.7977 133.819 68.7473 133.96 68.7247C134.101 68.702 134.245 68.7074 134.384 68.7407C134.523 68.774 134.654 68.8345 134.769 68.9186C134.885 69.0027 134.982 69.1088 135.056 69.2309L138.314 74.5962L144.554 69.987C145.051 69.7266 145.624 69.6536 146.171 69.7813C146.717 69.9089 147.199 70.2287 147.529 70.6823C147.858 71.1359 148.014 71.6929 147.967 72.2516C147.92 72.8103 147.673 73.3334 147.272 73.7253L141.044 79.4036C140.313 80.1287 139.324 80.5354 138.294 80.5351Z" fill="#2F2E41"/>
<path d="M155.154 89.0086C155.145 89.0086 155.137 89.0086 155.128 89.0084C154.977 89.0047 154.828 88.9692 154.691 88.9042C154.553 88.8392 154.432 88.7462 154.333 88.6311L151.409 85.2215C151.309 85.1053 151.235 84.9694 151.192 84.8227C151.149 84.6759 151.138 84.5217 151.159 84.3702C151.179 84.2187 151.232 84.0733 151.314 83.9437C151.395 83.8141 151.503 83.7033 151.63 83.6184L157.105 79.9699L152.145 74.0092C151.857 73.5284 151.751 72.9599 151.847 72.4075C151.943 71.8551 152.235 71.3557 152.669 71.0007C153.103 70.6456 153.65 70.4585 154.211 70.4735C154.772 70.4885 155.308 70.7047 155.723 71.0826L161.751 76.9713C162.226 77.4045 162.588 77.9464 162.807 78.5503C163.026 79.1543 163.094 79.8023 163.008 80.4388C162.921 81.0752 162.681 81.6811 162.308 82.2044C161.935 82.7277 161.441 83.1528 160.868 83.4432L155.941 88.6691C155.84 88.7763 155.718 88.8616 155.582 88.92C155.447 88.9784 155.301 89.0085 155.154 89.0086Z" fill="#2F2E41"/>
<path d="M148.437 76.4447C148.39 76.4447 148.343 76.4417 148.297 76.4358C148.093 76.411 147.901 76.3284 147.743 76.1978C147.585 76.0671 147.467 75.8938 147.405 75.6986L145.208 68.9651C145.153 68.7948 145.161 68.6104 145.232 68.4459C145.302 68.2815 145.43 68.148 145.591 68.0703L145.662 68.0366C145.727 68.0059 145.791 67.9755 145.856 67.9464C146.881 67.4715 147.996 67.2237 149.125 67.2202C150.592 67.2229 152.025 67.6535 153.25 68.459C153.414 68.5683 153.529 68.7376 153.569 68.9306C153.61 69.1235 153.573 69.3247 153.466 69.4907L149.345 75.9451C149.248 76.0984 149.114 76.2246 148.955 76.312C148.797 76.3994 148.618 76.445 148.437 76.4447Z" fill="#E6E6E6"/>
<path d="M156.719 55.1575C158.022 55.1575 159.078 54.1016 159.078 52.7992C159.078 51.4968 158.022 50.4409 156.719 50.4409C155.416 50.4409 154.359 51.4968 154.359 52.7992C154.359 54.1016 155.416 55.1575 156.719 55.1575Z" fill="#2F2E41"/>
<path d="M148.631 50.207C146.974 50.207 145.385 50.8651 144.213 52.0364C143.041 53.2078 142.383 54.7965 142.383 56.453V59.0956H145.634L147.189 56.453L147.656 59.0956H157.524L154.88 56.453C154.88 54.7965 154.222 53.2078 153.05 52.0364C151.878 50.8651 150.289 50.207 148.631 50.207Z" fill="#2F2E41"/>
<path d="M157.93 51.1842C158.191 50.3687 158.731 49.6713 159.455 49.2145C160.18 48.7578 161.042 48.5709 161.89 48.6868C163.394 48.9381 164.583 50.1461 165.291 51.4954C165.999 52.8446 166.326 54.3547 166.803 55.8022C167.279 57.2497 167.954 58.7051 169.156 59.6421C170.358 60.5791 172.203 60.8332 173.383 59.8693C173.249 60.8739 172.801 61.8106 172.104 62.5471C171.408 63.2835 170.497 63.7824 169.501 63.9731C168.505 64.1639 167.475 64.0368 166.555 63.61C165.636 63.1831 164.873 62.478 164.377 61.5945C163.754 60.4866 163.593 59.1881 163.408 57.9307C163.223 56.6733 162.983 55.3723 162.24 54.3416C161.496 53.3108 160.104 52.6376 158.922 53.1071L157.93 51.1842Z" fill="#2F2E41"/>
<path d="M81.22 54.7817C79.0692 54.7815 77.0065 53.9273 75.4857 52.407C73.9649 50.8867 73.1105 48.8248 73.1103 46.6749C73.1102 45.2086 73.1113 44.0875 73.1135 43.928C73.1818 38.9056 74.4472 33.9719 76.8047 29.5361C72.9314 34.8363 70.8017 41.2087 70.7102 47.7717C70.708 47.9312 70.7069 49.0523 70.707 50.5186C70.7072 52.6685 71.5616 54.7304 73.0824 56.2507C74.6033 57.771 76.6659 58.6252 78.8167 58.6254C80.5841 58.6247 82.303 58.0474 83.7122 56.9812C85.1214 55.915 86.144 54.4181 86.6245 52.718C85.1395 54.0491 83.2146 54.7841 81.22 54.7817Z" fill="#3F3D56"/>
<path d="M103.043 33.4185C105.529 33.5372 107.95 34.2574 110.096 35.5171C112.243 36.7769 114.052 38.5386 115.367 40.6511C116.683 42.7635 117.466 45.1636 117.649 47.6451C117.832 50.1267 117.41 52.6156 116.419 54.8982C117.853 53.2153 118.906 51.2432 119.508 49.1164C120.11 46.9895 120.246 44.7579 119.907 42.5738C119.568 40.3896 118.762 38.3042 117.543 36.4597C116.325 34.6152 114.723 33.055 112.847 31.8855C110.97 30.716 108.864 29.9647 106.671 29.6827C104.477 29.4008 102.249 29.5949 100.138 30.2517C98.0266 30.9086 96.0818 32.0128 94.4361 33.4891C92.7904 34.9654 91.4825 36.779 90.6016 38.8063C92.1241 37.016 94.0377 35.5991 96.1947 34.6649C98.3517 33.7308 100.695 33.3044 103.043 33.4185Z" fill="#3F3D56"/>
<path d="M105.536 105.23C103.342 105.23 101.235 104.369 99.6713 102.831C98.1071 101.293 97.2105 99.2017 97.1749 97.0088C97.0732 90.6531 97.0205 82.8226 97.0205 81.9277C97.0191 79.7505 97.3326 77.5846 97.9514 75.4972L97.9485 75.4964C98.3139 74.4487 98.7552 73.4289 99.2689 72.4453C97.6919 74.5459 96.4369 76.8697 95.5452 79.3401L95.5481 79.3409C94.9293 81.4283 94.6158 83.5942 94.6172 85.7713C94.6172 86.6663 94.6699 94.4968 94.7716 100.852C94.8072 103.045 95.7038 105.136 97.268 106.674C98.8322 108.212 100.939 109.074 103.133 109.074C104.942 109.073 106.702 108.487 108.149 107.402C109.597 106.317 110.653 104.792 111.16 103.056C109.623 104.458 107.616 105.233 105.536 105.23Z" fill="#3F3D56"/>
<path d="M30.4109 139.955L33.3571 139.954L34.7589 128.594L30.4102 128.594L30.4109 139.955Z" fill="#FFB8B8"/>
<path d="M39.0391 142.689L29.779 142.689L29.7789 139.113L35.4612 139.113C36.41 139.113 37.3201 139.49 37.991 140.16C38.662 140.831 39.039 141.74 39.0391 142.689L39.0391 142.689Z" fill="#2F2E41"/>
<path d="M19.8367 139.955L22.7829 139.954L24.1847 128.594L19.8359 128.594L19.8367 139.955Z" fill="#FFB8B8"/>
<path d="M28.4648 142.689L19.2048 142.689L19.2046 139.113L24.8869 139.113C25.8358 139.113 26.7458 139.49 27.4168 140.16C28.0878 140.831 28.4648 141.74 28.4648 142.689L28.4648 142.689Z" fill="#2F2E41"/>
<path d="M22.4109 136.461L19.533 136.309C19.3846 136.302 19.2392 136.264 19.1053 136.2C18.9713 136.136 18.8515 136.045 18.7527 135.934C18.654 135.823 18.5782 135.694 18.5299 135.554C18.4815 135.413 18.4615 135.264 18.4711 135.116L21.9108 97.0479L37.7511 101.321L39.2773 100.904L34.5048 134.605C34.4641 134.859 34.3382 135.091 34.1477 135.263C33.9573 135.435 33.7138 135.537 33.4574 135.553L30.355 135.697C30.1999 135.706 30.0446 135.682 29.8991 135.628C29.7536 135.573 29.621 135.489 29.5096 135.381C29.3982 135.273 29.3105 135.143 29.252 134.999C29.1935 134.855 29.1655 134.7 29.1698 134.545L29.7319 114.319C29.7346 114.225 29.7021 114.134 29.6408 114.063C29.5796 113.992 29.494 113.947 29.4011 113.936C29.3081 113.925 29.2144 113.95 29.1385 114.004C29.0626 114.059 29.01 114.14 28.9909 114.232L23.5699 135.567C23.5187 135.821 23.3813 136.048 23.181 136.211C22.9808 136.375 22.7301 136.463 22.4718 136.462C22.4516 136.462 22.4313 136.462 22.4109 136.461Z" fill="#2F2E41"/>
<path d="M30.9418 65.9002C34.2018 65.9002 36.8445 63.2586 36.8445 59.9999C36.8445 56.7413 34.2018 54.0996 30.9418 54.0996C27.6818 54.0996 25.0391 56.7413 25.0391 59.9999C25.0391 63.2586 27.6818 65.9002 30.9418 65.9002Z" fill="#FFB8B8"/>
<path d="M21.1119 77.3345L21.7609 91.3321L21.9956 96.4247C22.0049 96.6464 22.0802 96.8602 22.2118 97.0389C22.3434 97.2176 22.5254 97.353 22.7344 97.4277L37.9559 102.939C38.0788 102.985 38.2091 103.008 38.3403 103.007C38.4902 103.008 38.6388 102.978 38.777 102.92C38.9153 102.862 39.0405 102.777 39.1451 102.67C39.2497 102.562 39.3316 102.435 39.3859 102.295C39.4402 102.156 39.4658 102.006 39.4611 101.857L38.8371 76.6883C38.7961 74.6234 38.0357 72.6374 36.6869 71.0729C35.3381 69.5083 33.4855 68.4631 31.4485 68.1175C31.3012 68.0951 31.1515 68.0726 31.0017 68.0527C29.7385 67.8959 28.4564 68.0178 27.2454 68.4096C26.0344 68.8015 24.9241 69.4538 23.9925 70.3207C23.0278 71.2076 22.2698 72.2955 21.772 73.5075C21.2743 74.7194 21.0489 76.0259 21.1119 77.3345L21.1119 77.3345Z" fill="#CCCCCC"/>
<path d="M45.2294 100.146C44.8694 100.035 44.5405 99.8406 44.2689 99.5793C43.9973 99.3179 43.7906 98.9968 43.6653 98.6414C43.5399 98.2861 43.4994 97.9064 43.547 97.5326C43.5945 97.1588 43.7288 96.8013 43.9391 96.4886L38.7773 89.6276L43.2317 89.3521L47.4505 95.9096C47.9021 96.2587 48.2164 96.7555 48.3382 97.313C48.46 97.8706 48.3815 98.4531 48.1165 98.9586C47.8516 99.4641 47.417 99.8602 46.8891 100.077C46.3612 100.295 45.7736 100.319 45.2294 100.146H45.2294Z" fill="#FFB8B8"/>
<path d="M41.5982 95.2467C41.4614 95.1912 41.3371 95.1092 41.2322 95.0053C41.1274 94.9015 41.0442 94.7779 40.9875 94.6417L33.2109 76.1213C33.0583 75.7587 32.9787 75.3696 32.9766 74.9762C32.9745 74.5828 33.05 74.1929 33.1988 73.8287C33.3475 73.4645 33.5666 73.1331 33.8436 72.8536C34.1205 72.5741 34.4498 72.3519 34.8127 72.1996C35.1755 72.0474 35.5649 71.9681 35.9584 71.9663C36.352 71.9646 36.742 72.0403 37.1062 72.1893C37.4705 72.3383 37.8018 72.5576 38.0812 72.8346C38.3606 73.1116 38.5827 73.441 38.7347 73.8038L46.5113 92.3245C46.6262 92.5991 46.6275 92.908 46.5149 93.1836C46.4022 93.4591 46.1848 93.6787 45.9104 93.7942L42.4579 95.2426C42.322 95.3001 42.1761 95.3301 42.0285 95.3308C41.8809 95.3315 41.7346 95.3029 41.5982 95.2467L41.5982 95.2467Z" fill="#CCCCCC"/>
<path d="M29.0427 94.5935L36.512 80.2977C36.656 80.0227 36.9033 79.8161 37.1995 79.7232C37.4957 79.6303 37.8168 79.6586 38.0921 79.802L48.9337 85.4618C49.2088 85.6058 49.4155 85.853 49.5084 86.1491C49.6014 86.4452 49.5731 86.7661 49.4296 87.0413L41.9604 101.337C41.8163 101.612 41.5691 101.819 41.2729 101.912C40.9766 102.005 40.6556 101.976 40.3802 101.833L29.5386 96.173C29.2636 96.029 29.0569 95.7819 28.964 95.4858C28.871 95.1896 28.8993 94.8688 29.0427 94.5935Z" fill="#3F3D56"/>
<path d="M34.0503 88.0621C33.9175 87.7095 33.7041 87.3928 33.4271 87.1372C33.1501 86.8816 32.8172 86.6944 32.4549 86.5903C32.0926 86.4862 31.711 86.4682 31.3406 86.5377C30.9701 86.6072 30.621 86.7623 30.3211 86.9907L23.1645 82.2451L23.1523 86.7061L29.9503 90.5286C30.3255 90.9587 30.8403 91.243 31.4042 91.3316C31.9682 91.4202 32.5454 91.3075 33.0345 91.0132C33.5237 90.719 33.8936 90.2619 34.0793 89.7223C34.265 89.1827 34.2548 88.595 34.0503 88.0621Z" fill="#FFB8B8"/>
<path d="M25.0044 89.0655L19.1556 84.4344C18.5229 84.222 17.9511 83.8593 17.4895 83.3775C17.0279 82.8956 16.6901 82.309 16.5052 81.6679C16.3203 81.0269 16.2938 80.3505 16.4279 79.697C16.5621 79.0434 16.8529 78.4322 17.2754 77.9157L22.586 70.9587C22.955 70.5079 23.474 70.205 24.0481 70.1052C24.6222 70.0054 25.2131 70.1155 25.7127 70.4153C26.2123 70.7152 26.5872 71.1847 26.769 71.7381C26.9508 72.2915 26.9273 72.8918 26.7027 73.4293L22.5009 80.2999L28.6759 83.2276C28.8195 83.2957 28.947 83.3934 29.05 83.5144C29.153 83.6354 29.2291 83.7768 29.2733 83.9294C29.3176 84.082 29.329 84.2422 29.3067 84.3995C29.2844 84.5568 29.229 84.7075 29.1441 84.8418L26.6514 88.785C26.5672 88.9181 26.4559 89.032 26.3248 89.1194C26.1937 89.2067 26.0457 89.2656 25.8904 89.2921C25.8842 89.2932 25.878 89.2942 25.8718 89.2951C25.7192 89.3181 25.5635 89.3097 25.4143 89.2702C25.2651 89.2307 25.1256 89.161 25.0044 89.0655Z" fill="#CCCCCC"/>
<path d="M26.4801 63.9504C26.4548 63.8763 26.4468 63.7975 26.4567 63.7198C26.4665 63.6422 26.4941 63.5678 26.5371 63.5025C26.5802 63.4371 26.6376 63.3824 26.7051 63.3427C26.7726 63.303 26.8482 63.2792 26.9263 63.2732C27.0862 63.2819 27.2426 63.3229 27.3862 63.3937C27.5298 63.4645 27.6575 63.5636 27.7617 63.6852C27.9753 63.9314 28.224 64.1448 28.4998 64.3187C28.7853 64.4625 29.1726 64.442 29.3354 64.1678C29.4882 63.9102 29.3835 63.5653 29.291 63.2661C29.0555 62.5048 28.9237 61.7154 28.8992 60.919C28.8726 60.0301 28.998 59.1024 29.4904 58.4091C30.1258 57.5143 31.2619 57.1746 32.3372 57.1992C33.4124 57.2238 34.4702 57.5556 35.5353 57.7653C35.903 57.8377 36.3351 57.8748 36.5811 57.5899C36.8426 57.287 36.7465 56.7968 36.6353 56.3878C36.3467 55.3266 36.0405 54.2295 35.3699 53.3724C34.6448 52.4819 33.6091 51.899 32.4713 51.7412C31.379 51.606 30.2701 51.7318 29.2359 52.1084C27.551 52.6392 26.0683 53.6717 24.9862 55.0677C23.8708 56.5522 23.3888 58.4179 23.6457 60.2567C23.8966 61.8582 24.7456 63.3051 26.0215 64.3057L26.4801 63.9504Z" fill="#2F2E41"/>
<path d="M101.24 140.001C99.6694 139.318 98.2795 138.279 97.1796 136.966C96.0798 135.653 95.3002 134.103 94.9023 132.438C94.5045 130.772 94.4993 129.037 94.8872 127.369C95.2751 125.702 96.0454 124.147 97.1374 122.828C95.8713 123.752 94.8163 124.934 94.0424 126.297C93.2686 127.66 92.7935 129.171 92.6488 130.732C92.504 132.292 92.693 133.865 93.203 135.347C93.713 136.829 94.5325 138.185 95.607 139.326C96.6816 140.467 97.9866 141.367 99.4355 141.965C100.884 142.563 102.444 142.846 104.011 142.796C105.578 142.746 107.116 142.363 108.523 141.673C109.931 140.983 111.175 140.002 112.175 138.794C110.616 139.933 108.787 140.643 106.868 140.855C104.95 141.067 103.009 140.773 101.24 140.001Z" fill="#3F3D56"/>
</g>
<defs>
<clipPath id="clip0_2373_11888">
<rect width="203" height="143" fill="white"/>
</clipPath>
</defs>
</svg>
