<svg width="169" height="152" viewBox="0 0 169 152" fill="none" xmlns="http://www.w3.org/2000/svg">
<path d="M86.4471 88.5809L49.6077 89.2291C49.0262 89.2406 48.4482 89.1372 47.9066 88.9249C47.3651 88.7126 46.8708 88.3955 46.4519 87.9918C46.0331 87.5881 45.6979 87.1057 45.4657 86.5722C45.2334 86.0387 45.1086 85.4647 45.0983 84.8829C45.0881 84.3011 45.1927 83.723 45.4061 83.1817C45.6194 82.6404 45.9374 82.1465 46.3419 81.7283C46.7463 81.3101 47.2292 80.9758 47.7629 80.7446C48.2966 80.5134 48.8706 80.3897 49.4522 80.3808L86.2917 79.7327C86.8409 79.7231 87.3715 79.9321 87.7666 80.3139C88.1618 80.6956 88.3893 81.2187 88.3989 81.7682L88.4816 86.4727C88.4908 86.9982 88.3001 87.5076 87.948 87.8977C87.596 88.2878 87.109 88.5295 86.5855 88.5739C86.5397 88.5777 86.4936 88.58 86.4471 88.5809Z" fill="#74C247"/>
<path d="M79.3302 89.7829L49.1066 91.1632C48.8349 91.1757 48.5634 91.1345 48.3076 91.0419C48.0518 90.9494 47.8168 90.8073 47.6159 90.6239C47.415 90.4405 47.2522 90.2192 47.1367 89.9728C47.0213 89.7265 46.9555 89.4597 46.9431 89.1879L46.6232 82.1775C46.5982 81.6285 46.7922 81.092 47.1625 80.6861C47.5328 80.2802 48.049 80.038 48.5978 80.0129L78.8215 78.6325C79.0932 78.6201 79.3647 78.6613 79.6204 78.7539C79.8762 78.8464 80.1112 78.9885 80.3121 79.1719C80.513 79.3553 80.6759 79.5765 80.7913 79.8229C80.9067 80.0693 80.9725 80.3361 80.985 80.6079L81.3048 87.6183C81.3286 88.1536 81.1445 88.6774 80.791 89.0799C80.4375 89.4825 79.942 89.7326 79.4084 89.7779C79.3825 89.7801 79.3564 89.7818 79.3302 89.7829Z" fill="#2F2E41"/>
<path d="M28.2188 149.928V110.712C28.2194 110.162 28.4378 109.636 28.8261 109.247C29.2143 108.859 29.7408 108.64 30.2899 108.64H34.9929C35.542 108.64 36.0684 108.859 36.4567 109.247C36.8449 109.636 37.0634 110.162 37.064 110.712V149.928C37.0634 150.477 36.8449 151.004 36.4567 151.392C36.0684 151.781 35.542 151.999 34.9929 152H30.2899C29.7408 151.999 29.2143 151.781 28.8261 151.392C28.4378 151.004 28.2194 150.477 28.2188 149.928Z" fill="#74C247"/>
<path d="M40.5625 149.928V110.712C40.5631 110.162 40.7815 109.636 41.1698 109.247C41.5581 108.859 42.0845 108.64 42.6336 108.64H47.3366C47.8857 108.64 48.4121 108.859 48.8004 109.247C49.1887 109.636 49.4071 110.162 49.4077 110.712V149.928C49.4071 150.477 49.1887 151.004 48.8004 151.392C48.4121 151.781 47.8857 151.999 47.3366 152H42.6336C42.0845 151.999 41.5581 151.781 41.1698 151.392C40.7815 151.004 40.5631 150.477 40.5625 149.928Z" fill="#74C247"/>
<path d="M41.7894 67.7136C50.7643 67.7136 58.0398 60.4345 58.0398 51.4552C58.0398 42.4759 50.7643 35.1968 41.7894 35.1968C32.8146 35.1968 25.5391 42.4759 25.5391 51.4552C25.5391 60.4345 32.8146 67.7136 41.7894 67.7136Z" fill="#74C247"/>
<path d="M50.5862 57.0066C51.1089 56.8348 51.5888 56.5529 51.9936 56.1801C52.2617 55.9138 52.4685 55.5922 52.5994 55.2376C52.7302 54.883 52.782 54.5041 52.7511 54.1274C52.7341 53.8589 52.6553 53.5981 52.5208 53.3652C52.3864 53.1323 52.1999 52.9337 51.976 52.7849C51.3949 52.4119 50.6177 52.4108 49.8263 52.7597L49.8563 46.4127L49.219 46.4097L49.1838 53.8713L49.6748 53.5623C50.2442 53.2046 51.0573 52.9528 51.6319 53.3216C51.7739 53.419 51.8915 53.5479 51.9756 53.6983C52.0596 53.8486 52.1079 54.0163 52.1167 54.1883C52.1382 54.469 52.099 54.7509 52.0018 55.015C51.9046 55.2791 51.7517 55.5192 51.5534 55.7189C50.8497 56.3914 49.8231 56.6017 48.6523 56.7896L48.7533 57.4191C49.3754 57.3366 49.9888 57.1986 50.5862 57.0066Z" fill="#2F2E41"/>
<path d="M56.4261 46.0919L53.0234 46.5415L53.1069 47.1735L56.5096 46.7239L56.4261 46.0919Z" fill="#2F2E41"/>
<path d="M45.6839 47.5104L42.2812 47.96L42.3647 48.592L45.7674 48.1424L45.6839 47.5104Z" fill="#2F2E41"/>
<path d="M7.31398 50.1716L30.6457 78.7023C31.0138 79.152 31.2897 79.6698 31.4577 80.2262C31.6256 80.7826 31.6824 81.3666 31.6248 81.9449C31.5671 82.5233 31.3961 83.0846 31.1215 83.5968C30.847 84.109 30.4742 84.5621 30.0246 84.9301C29.575 85.2982 29.0573 85.574 28.5011 85.7418C27.9449 85.9097 27.3612 85.9662 26.7831 85.9083C26.2051 85.8503 25.6441 85.679 25.1323 85.4041C24.6205 85.1291 24.1678 84.756 23.8001 84.306L0.468255 55.7755C0.296004 55.5649 0.166898 55.3224 0.0883174 55.0619C0.00973732 54.8014 -0.0167841 54.5279 0.0102717 54.2571C0.0373274 53.9864 0.117426 53.7236 0.245998 53.4838C0.37457 53.244 0.549094 53.0319 0.759605 52.8596L4.39943 49.88C4.82459 49.532 5.3705 49.3672 5.91707 49.4219C6.46364 49.4766 6.96612 49.7463 7.31397 50.1716H7.31398Z" fill="#74C247"/>
<path d="M15.0972 56.5393L34.2559 79.9671C34.4282 80.1777 34.5573 80.4201 34.6359 80.6806C34.7145 80.9411 34.741 81.2146 34.7139 81.4854C34.6868 81.7561 34.6068 82.0189 34.4782 82.2587C34.3496 82.4985 34.1751 82.7106 33.9646 82.8829L27.7476 87.9721C27.5371 88.1444 27.2947 88.2736 27.0343 88.3522C26.7739 88.4308 26.5006 88.4573 26.23 88.4303C25.9593 88.4032 25.6967 88.323 25.457 88.1944C25.2173 88.0657 25.0053 87.8911 24.8331 87.6805L5.67426 64.2528C5.32703 63.8273 5.1627 63.2813 5.21732 62.7346C5.27194 62.188 5.54106 61.6853 5.96562 61.337L12.1827 56.2477C12.6078 55.8997 13.1537 55.7349 13.7003 55.7896C14.2469 55.8443 14.7493 56.1139 15.0972 56.5393L15.0972 56.5393Z" fill="#2F2E41"/>
<path d="M147.926 28.0578C147.692 27.5013 147.299 27.0257 146.798 26.6898C146.296 26.354 145.707 26.1728 145.103 26.1685H88.7649C87.9551 26.1689 87.1785 26.491 86.6059 27.0639C86.0333 27.6368 85.7114 28.4137 85.7109 29.224V100.533C85.7114 101.343 86.0333 102.12 86.6059 102.693C87.1785 103.266 87.9551 103.588 88.7649 103.588H145.105C145.915 103.587 146.691 103.265 147.264 102.692C147.836 102.119 148.158 101.343 148.159 100.533V29.224C148.161 28.8237 148.082 28.4272 147.928 28.0578H147.926ZM147.479 100.533C147.478 101.163 147.228 101.767 146.782 102.212C146.337 102.658 145.733 102.909 145.103 102.909H88.7649C88.1349 102.909 87.5308 102.659 87.0852 102.213C86.6397 101.768 86.3894 101.163 86.3891 100.533V29.2244C86.39 28.5942 86.6406 27.9901 87.0859 27.5446C87.5313 27.099 88.1351 26.8483 88.7649 26.8474H145.105C145.58 26.8492 146.043 26.9924 146.436 27.2587C146.829 27.525 147.133 27.9024 147.311 28.3427C147.345 28.4304 147.375 28.5199 147.4 28.6108C147.454 28.8109 147.481 29.0172 147.481 29.2244L147.479 100.533Z" fill="#3F3D56"/>
<path d="M136.17 43.0042H119.2C119.021 43.0045 118.844 42.9696 118.679 42.9014C118.514 42.8333 118.365 42.7333 118.238 42.6071C118.112 42.481 118.012 42.3311 117.943 42.1662C117.875 42.0013 117.84 41.8245 117.84 41.6459C117.84 41.4674 117.875 41.2906 117.943 41.1256C118.012 40.9607 118.112 40.8108 118.238 40.6847C118.365 40.5585 118.514 40.4585 118.679 40.3904C118.844 40.3222 119.021 40.2873 119.2 40.2876H136.17C136.348 40.2873 136.525 40.3222 136.69 40.3904C136.855 40.4585 137.005 40.5585 137.131 40.6847C137.257 40.8108 137.357 40.9607 137.426 41.1256C137.494 41.2906 137.529 41.4674 137.529 41.6459C137.529 41.8245 137.494 42.0013 137.426 42.1662C137.357 42.3311 137.257 42.481 137.131 42.6071C137.005 42.7333 136.855 42.8333 136.69 42.9014C136.525 42.9696 136.348 43.0045 136.17 43.0042Z" fill="#3F3D56"/>
<path d="M136.17 50.1351H119.2C119.021 50.1354 118.844 50.1004 118.679 50.0323C118.514 49.9642 118.365 49.8642 118.238 49.738C118.112 49.6118 118.012 49.462 117.943 49.2971C117.875 49.1321 117.84 48.9553 117.84 48.7768C117.84 48.5982 117.875 48.4214 117.943 48.2565C118.012 48.0915 118.112 47.9417 118.238 47.8156C118.365 47.6894 118.514 47.5894 118.679 47.5212C118.844 47.4531 119.021 47.4182 119.2 47.4185H136.17C136.348 47.4182 136.525 47.4531 136.69 47.5212C136.855 47.5894 137.005 47.6894 137.131 47.8156C137.257 47.9417 137.357 48.0915 137.426 48.2565C137.494 48.4214 137.529 48.5982 137.529 48.7768C137.529 48.9553 137.494 49.1321 137.426 49.2971C137.357 49.462 137.257 49.6118 137.131 49.738C137.005 49.8642 136.855 49.9642 136.69 50.0323C136.525 50.1004 136.348 50.1354 136.17 50.1351Z" fill="#3F3D56"/>
<path d="M110.491 54.1954H98.0899C97.6849 54.195 97.2967 54.0338 97.0103 53.7474C96.724 53.4609 96.5629 53.0724 96.5625 52.6673V38.0252C96.5629 37.6201 96.724 37.2316 97.0103 36.9451C97.2967 36.6586 97.6849 36.4975 98.0899 36.4971H110.491C110.896 36.4975 111.285 36.6586 111.571 36.9451C111.857 37.2316 112.018 37.6201 112.019 38.0252V52.6673C112.018 53.0724 111.857 53.4609 111.571 53.7474C111.285 54.0338 110.896 54.195 110.491 54.1954Z" fill="#74C247"/>
<path d="M136.049 64.7367H97.6975C97.3374 64.7367 96.9921 64.5935 96.7375 64.3388C96.4829 64.0841 96.3398 63.7386 96.3398 63.3783C96.3398 63.0181 96.4829 62.6726 96.7375 62.4179C96.9921 62.1631 97.3374 62.02 97.6975 62.02H136.049C136.41 62.02 136.755 62.1631 137.009 62.4179C137.264 62.6726 137.407 63.0181 137.407 63.3783C137.407 63.7386 137.264 64.0841 137.009 64.3388C136.755 64.5935 136.41 64.7367 136.049 64.7367Z" fill="#CCCCCC"/>
<path d="M136.051 71.8675H97.6993C97.3396 71.867 96.9948 71.7236 96.7407 71.4689C96.4865 71.2143 96.3438 70.8691 96.3438 70.5092C96.3438 70.1493 96.4865 69.8041 96.7407 69.5495C96.9948 69.2948 97.3396 69.1514 97.6993 69.1509H136.051C136.23 69.1506 136.406 69.1855 136.571 69.2537C136.736 69.3218 136.886 69.4218 137.013 69.548C137.139 69.6741 137.239 69.824 137.307 69.9889C137.376 70.1538 137.411 70.3306 137.411 70.5092C137.411 70.6878 137.376 70.8646 137.307 71.0295C137.239 71.1944 137.139 71.3443 137.013 71.4704C136.886 71.5966 136.736 71.6966 136.571 71.7647C136.406 71.8329 136.23 71.8678 136.051 71.8675Z" fill="#CCCCCC"/>
<path d="M136.051 78.9984H97.6993C97.3396 78.9978 96.9948 78.8545 96.7407 78.5998C96.4865 78.3451 96.3438 77.9999 96.3438 77.6401C96.3438 77.2802 96.4865 76.935 96.7407 76.6803C96.9948 76.4257 97.3396 76.2823 97.6993 76.2817H136.051C136.23 76.2815 136.406 76.3164 136.571 76.3845C136.736 76.4527 136.886 76.5527 137.013 76.6788C137.139 76.805 137.239 76.9548 137.307 77.1198C137.376 77.2847 137.411 77.4615 137.411 77.6401C137.411 77.8186 137.376 77.9954 137.307 78.1604C137.239 78.3253 137.139 78.4751 137.013 78.6013C136.886 78.7274 136.736 78.8274 136.571 78.8956C136.406 78.9637 136.23 78.9987 136.051 78.9984Z" fill="#CCCCCC"/>
<path d="M136.051 86.1293H97.6993C97.3396 86.1287 96.9948 85.9853 96.7407 85.7307C96.4865 85.476 96.3438 85.1308 96.3438 84.7709C96.3438 84.411 96.4865 84.0659 96.7407 83.8112C96.9948 83.5565 97.3396 83.4132 97.6993 83.4126H136.051C136.23 83.4123 136.406 83.4473 136.571 83.5154C136.736 83.5835 136.886 83.6835 137.013 83.8097C137.139 83.9359 137.239 84.0857 137.307 84.2506C137.376 84.4156 137.411 84.5924 137.411 84.7709C137.411 84.9495 137.376 85.1263 137.307 85.2912C137.239 85.4562 137.139 85.606 137.013 85.7322C136.886 85.8583 136.736 85.9583 136.571 86.0265C136.406 86.0946 136.23 86.1295 136.051 86.1293Z" fill="#CCCCCC"/>
<path d="M136.051 93.2601H97.6993C97.3396 93.2595 96.9948 93.1162 96.7407 92.8615C96.4865 92.6068 96.3438 92.2616 96.3438 91.9018C96.3438 91.5419 96.4865 91.1967 96.7407 90.942C96.9948 90.6874 97.3396 90.544 97.6993 90.5435H136.051C136.23 90.5432 136.406 90.5781 136.571 90.6462C136.736 90.7144 136.886 90.8144 137.013 90.9405C137.139 91.0667 137.239 91.2165 137.307 91.3815C137.376 91.5464 137.411 91.7232 137.411 91.9018C137.411 92.0803 137.376 92.2571 137.307 92.4221C137.239 92.587 137.139 92.7368 137.013 92.863C136.886 92.9891 136.736 93.0891 136.571 93.1573C136.406 93.2254 136.23 93.2603 136.051 93.2601Z" fill="#CCCCCC"/>
<path d="M149.565 38.8907C160.299 38.8907 169 30.1847 169 19.4453C169 8.70598 160.299 0 149.565 0C138.831 0 130.129 8.70598 130.129 19.4453C130.129 30.1847 138.831 38.8907 149.565 38.8907Z" fill="#74C247"/>
<path d="M149.189 32.83C150.452 32.83 151.476 31.8056 151.476 30.5419C151.476 29.2783 150.452 28.2539 149.189 28.2539C147.926 28.2539 146.902 29.2783 146.902 30.5419C146.902 31.8056 147.926 32.83 149.189 32.83Z" fill="white"/>
<path d="M148.943 6.66668C147.219 6.68379 145.569 7.37334 144.346 8.58858C143.122 9.80383 142.421 11.4488 142.391 13.1735C142.391 13.2065 142.391 13.4386 142.391 13.7422C142.391 14.1874 142.567 14.6143 142.882 14.9291C143.197 15.2439 143.623 15.4207 144.068 15.4208C144.513 15.4207 144.94 15.2436 145.255 14.9286C145.57 14.6135 145.747 14.1862 145.747 13.7408V13.7397C145.747 13.5331 145.746 13.3902 145.746 13.3814C145.746 12.8288 145.89 12.2857 146.163 11.8055C146.437 11.3253 146.83 10.9245 147.305 10.6426C147.78 10.3608 148.321 10.2075 148.873 10.1979C149.425 10.1882 149.97 10.3226 150.455 10.5878C150.94 10.8529 151.347 11.2397 151.637 11.7101C151.927 12.1805 152.089 12.7183 152.108 13.2706C152.127 13.8229 152.002 14.3706 151.746 14.8599C151.489 15.3493 151.11 15.7633 150.644 16.0614L150.645 16.0621C150.645 16.0621 148.257 17.6001 147.529 19.7098L147.53 19.71C147.402 20.1422 147.337 20.5906 147.337 21.0414C147.337 21.2267 147.348 22.848 147.369 24.164C147.377 24.618 147.562 25.051 147.886 25.3694C148.209 25.6879 148.645 25.8663 149.099 25.8662C149.326 25.8662 149.551 25.8214 149.761 25.7344C149.971 25.6474 150.161 25.52 150.322 25.3592C150.483 25.1985 150.61 25.0077 150.697 24.7977C150.784 24.5877 150.829 24.3627 150.829 24.1354L150.829 24.1248C150.821 22.9196 150.817 21.5163 150.817 21.4145C150.817 20.119 152.067 18.8282 153.093 17.9865C154.28 17.0241 155.115 15.6945 155.466 14.2063C155.541 13.8995 155.583 13.5854 155.59 13.2695C155.59 12.4024 155.419 11.5438 155.088 10.7427C154.756 9.94154 154.27 9.21363 153.657 8.60048C153.044 7.98734 152.317 7.50096 151.516 7.16913C150.715 6.8373 149.857 6.6665 148.99 6.6665C148.974 6.6665 148.959 6.66657 148.943 6.66668Z" fill="white"/>
<path d="M37.7166 44.2616C40.6261 42.3479 44.2827 43.2088 47.5165 43.4588C50.4385 43.6847 53.9017 43.4622 55.9569 41.0737C58.0949 38.5889 57.9163 34.8995 56.1461 32.2712C54.4037 29.6842 51.5115 28.0507 48.4517 27.62C46.7564 27.3715 45.0279 27.4788 43.3764 27.9351C41.7248 28.3914 40.1862 29.1868 38.8586 30.2705L39.8985 30.7014C39.2925 24.905 35.0328 19.6651 29.3177 18.2437C23.5352 16.8056 17.0686 19.26 13.9836 24.4184C10.9422 29.5037 11.3025 36.5998 15.6802 40.8258C17.7826 42.8553 20.6424 43.8892 23.5446 43.3375C26.2213 42.8287 28.5995 40.8765 29.1004 38.1197C29.5648 35.5641 28.5504 32.6614 26.0658 31.5453C25.386 31.2281 24.643 31.0695 23.893 31.0815C23.1429 31.0935 22.4054 31.2758 21.736 31.6145C21.1298 31.9558 20.6175 32.4421 20.2451 33.0299C19.8726 33.6177 19.6516 34.2887 19.6018 34.9829C19.5555 35.6549 19.6923 36.327 19.9977 36.9273C20.3426 37.6317 21.3937 37.0146 21.0497 36.3121C20.8275 35.7956 20.7644 35.2245 20.8684 34.6719C20.9723 34.1192 21.2387 33.6102 21.6334 33.2099C22.5365 32.2659 23.9622 32.1092 25.1623 32.4951C27.3582 33.2013 28.3277 35.7216 27.9139 37.8597C27.4504 40.2546 25.4069 41.7934 23.0801 42.1875C20.5498 42.616 18.0822 41.547 16.3257 39.7491C12.6472 35.9838 12.3288 29.9194 14.8103 25.4255C17.3276 20.8667 22.6974 18.4187 27.8122 19.1834C32.87 19.9396 37.0353 23.9196 38.3332 28.8272C38.4969 29.4421 38.613 30.0687 38.6802 30.7014C38.6843 30.8201 38.7225 30.935 38.7901 31.0325C38.8578 31.1301 38.952 31.2061 39.0616 31.2515C39.1712 31.2969 39.2916 31.3099 39.4084 31.2887C39.5251 31.2676 39.6333 31.2133 39.7201 31.1324C44.0419 27.5413 51.2301 27.9265 54.7738 32.4441C56.5117 34.6597 57.0239 38.1001 54.9944 40.3257C53.0621 42.4448 49.853 42.4469 47.2137 42.2148C43.8375 41.9179 40.126 41.2199 37.1017 43.2091C36.4492 43.6382 37.0589 44.6942 37.7166 44.2616V44.2616Z" fill="#2F2E41"/>
<path d="M50.8195 124.387H26.4525C25.968 124.387 25.5035 124.194 25.1608 123.851C24.8182 123.508 24.6255 123.044 24.625 122.559V114.432C24.6255 113.948 24.8182 113.483 25.1608 113.14C25.5035 112.797 25.968 112.605 26.4525 112.604H50.8195C51.304 112.605 51.7685 112.797 52.1111 113.14C52.4537 113.483 52.6465 113.948 52.647 114.432V122.559C52.6465 123.044 52.4537 123.508 52.1111 123.851C51.7685 124.194 51.304 124.387 50.8195 124.387Z" fill="#2F2E41"/>
<path d="M51.6519 84.3227C50.889 80.4192 47.926 77.328 44.0803 76.057C45.469 75.6099 46.352 74.9479 46.352 74.2074C46.352 72.861 43.4428 71.7695 39.8541 71.7695C36.2655 71.7695 33.3563 72.861 33.3563 74.2074C33.3563 74.9587 34.2633 75.6299 35.6873 76.0771C29.7913 77.8358 25.5119 82.9695 25.5119 89.0149C25.5119 89.0149 23.6969 100.655 22.272 109.96C21.3603 115.913 26.3415 121.234 32.8241 121.234H55.6228C57.1163 121.234 58.3312 120.107 58.3312 118.722C58.3312 118.722 54.1302 97.0028 51.6519 84.3227Z" fill="#2F2E41"/>
</svg>
