<svg width="68" height="68" viewBox="0 0 68 68" fill="none" xmlns="http://www.w3.org/2000/svg">
<circle cx="34" cy="34" r="34" fill="#F0F6FA"/>
<path d="M23.6992 28.6797L34.0009 34.6413L44.2325 28.7147" stroke="#2D9CDB" stroke-width="1.75" stroke-linecap="round" stroke-linejoin="round"/>
<path d="M34 45.2116V34.6299" stroke="#2D9CDB" stroke-width="1.75" stroke-linecap="round" stroke-linejoin="round"/>
<path d="M31.5857 22.893L25.3557 26.358C23.944 27.1397 22.7891 29.0997 22.7891 30.7097V37.3014C22.7891 38.9114 23.944 40.8714 25.3557 41.653L31.5857 45.1181C32.9157 45.8531 35.0974 45.8531 36.4274 45.1181L42.6574 41.653C44.0691 40.8714 45.224 38.9114 45.224 37.3014V30.7097C45.224 29.0997 44.0691 27.1397 42.6574 26.358L36.4274 22.893C35.0857 22.1463 32.9157 22.1463 31.5857 22.893Z" stroke="#2D9CDB" stroke-width="1.75" stroke-linecap="round" stroke-linejoin="round"/>
<path d="M39.8334 35.4466V31.1766L28.7617 24.7832" stroke="#2D9CDB" stroke-width="1.75" stroke-linecap="round" stroke-linejoin="round"/>
</svg>
