<svg width="68" height="68" viewBox="0 0 68 68" fill="none" xmlns="http://www.w3.org/2000/svg">
<circle cx="34" cy="34" r="34" fill="#FAF2EB"/>
<path d="M43.1822 33.4704L42.3434 33.2215L42.3434 33.2215L43.1822 33.4704ZM42.0359 37.3345L42.8748 37.5834L42.8748 37.5834L42.0359 37.3345ZM25.9615 37.3345L26.8003 37.0856L26.8003 37.0856L25.9615 37.3345ZM24.8152 33.4704L23.9763 33.7192L23.9763 33.7192L24.8152 33.4704ZM30.4814 43.106L30.7235 42.2651L30.7235 42.2651L30.4814 43.106ZM27.18 40.6418L26.4428 41.113L26.4428 41.113L27.18 40.6418ZM40.8174 40.6418L41.5546 41.113L41.5546 41.113L40.8174 40.6418ZM37.516 43.106L37.2739 42.2651L37.2739 42.2651L37.516 43.106ZM44.3505 29.3337V28.4587H43.6635L43.5005 29.126L44.3505 29.3337ZM23.6469 29.3337V28.4587H22.5324L22.7969 29.5413L23.6469 29.3337ZM22.332 28.4587C21.8488 28.4587 21.457 28.8504 21.457 29.3337C21.457 29.8169 21.8488 30.2087 22.332 30.2087V28.4587ZM45.6654 30.2087C46.1486 30.2087 46.5404 29.8169 46.5404 29.3337C46.5404 28.8504 46.1486 28.4587 45.6654 28.4587V30.2087ZM37.207 34.0003C37.207 33.5171 36.8153 33.1253 36.332 33.1253C35.8488 33.1253 35.457 33.5171 35.457 34.0003H37.207ZM35.457 38.667C35.457 39.1503 35.8488 39.542 36.332 39.542C36.8153 39.542 37.207 39.1503 37.207 38.667H35.457ZM38.1175 24.0483C37.7757 23.7066 37.2217 23.7066 36.88 24.0483C36.5383 24.39 36.5383 24.944 36.88 25.2857L38.1175 24.0483ZM31.4005 25.2857C31.7422 24.944 31.7422 24.39 31.4005 24.0483C31.0588 23.7066 30.5048 23.7066 30.1631 24.0483L31.4005 25.2857ZM32.5404 34.0003C32.5404 33.5171 32.1486 33.1253 31.6654 33.1253C31.1821 33.1253 30.7904 33.5171 30.7904 34.0003H32.5404ZM30.7904 38.667C30.7904 39.1503 31.1821 39.542 31.6654 39.542C32.1486 39.542 32.5404 39.1503 32.5404 38.667H30.7904ZM42.3434 33.2215L41.1971 37.0857L42.8748 37.5834L44.0211 33.7192L42.3434 33.2215ZM26.8003 37.0856L25.654 33.2215L23.9763 33.7192L25.1226 37.5833L26.8003 37.0856ZM33.9987 42.4587C32.1257 42.4587 31.3669 42.4504 30.7235 42.2651L30.2394 43.9468C31.1777 44.217 32.2365 44.2087 33.9987 44.2087V42.4587ZM25.1226 37.5833C25.6238 39.2727 25.9169 40.2902 26.4428 41.113L27.9173 40.1705C27.5568 39.6064 27.333 38.8813 26.8003 37.0856L25.1226 37.5833ZM30.7235 42.2651C29.5645 41.9315 28.5668 41.1868 27.9173 40.1705L26.4428 41.113C27.3215 42.4879 28.6713 43.4954 30.2394 43.9468L30.7235 42.2651ZM41.1971 37.0857C40.6644 38.8813 40.4406 39.6064 40.0801 40.1705L41.5546 41.113C42.0805 40.2902 42.3736 39.2728 42.8748 37.5834L41.1971 37.0857ZM33.9987 44.2087C35.7609 44.2087 36.8197 44.217 37.758 43.9468L37.2739 42.2651C36.6305 42.4504 35.8717 42.4587 33.9987 42.4587V44.2087ZM40.0801 40.1705C39.4306 41.1868 38.4329 41.9315 37.2739 42.2651L37.758 43.9468C39.3261 43.4954 40.6759 42.4879 41.5546 41.113L40.0801 40.1705ZM44.0211 33.7192C44.513 32.0611 44.9197 30.6909 45.2005 29.5413L43.5005 29.126C43.2321 30.2248 42.8396 31.5486 42.3434 33.2215L44.0211 33.7192ZM25.654 33.2215C25.1578 31.5486 24.7653 30.2248 24.4969 29.126L22.7969 29.5413C23.0777 30.6908 23.4844 32.0611 23.9763 33.7192L25.654 33.2215ZM35.457 34.0003V38.667H37.207V34.0003H35.457ZM30.7904 34.0003V38.667H32.5404V34.0003H30.7904ZM36.88 25.2857L41.5467 29.9524L42.7841 28.715L38.1175 24.0483L36.88 25.2857ZM42.1654 30.2087H44.4987V28.4587H42.1654V30.2087ZM44.4987 30.2087H45.6654V28.4587H44.4987V30.2087ZM44.3505 30.2087H44.4987V28.4587H44.3505V30.2087ZM22.332 30.2087H26.1151V28.4587H22.332V30.2087ZM26.1151 30.2087H42.1654V28.4587H26.1151V30.2087ZM30.1631 24.0483L25.4964 28.715L26.7338 29.9524L31.4005 25.2857L30.1631 24.0483ZM23.6469 30.2087H26.1151V28.4587H23.6469V30.2087Z" fill="#F2994A"/>
</svg>
