<svg width="68" height="68" viewBox="0 0 68 68" fill="none" xmlns="http://www.w3.org/2000/svg">
<circle cx="34" cy="34" r="34" fill="#EEFAF3"/>
<path d="M31.082 36.0419C31.082 37.1736 31.957 38.0836 33.0304 38.0836H35.2237C36.157 38.0836 36.9154 37.2903 36.9154 36.2986C36.9154 35.2369 36.4487 34.8519 35.7604 34.6069L32.2487 33.3819C31.5604 33.1369 31.0937 32.7636 31.0937 31.6903C31.0937 30.7103 31.852 29.9053 32.7854 29.9053H34.9787C36.052 29.9053 36.927 30.8153 36.927 31.9469" stroke="#27AE60" stroke-width="1.75" stroke-linecap="round" stroke-linejoin="round"/>
<path d="M33.998 28.75V39.25" stroke="#27AE60" stroke-width="1.75" stroke-linecap="round" stroke-linejoin="round"/>
<path d="M45.6673 34.0002C45.6673 40.4402 40.4407 45.6668 34.0007 45.6668C27.5607 45.6668 22.334 40.4402 22.334 34.0002C22.334 27.5602 27.5607 22.3335 34.0007 22.3335" stroke="#27AE60" stroke-width="1.75" stroke-linecap="round" stroke-linejoin="round"/>
<path d="M39.834 23.5V28.1667H44.5007" stroke="#27AE60" stroke-width="1.75" stroke-linecap="round" stroke-linejoin="round"/>
<path d="M45.6673 22.3335L39.834 28.1668" stroke="#27AE60" stroke-width="1.75" stroke-linecap="round" stroke-linejoin="round"/>
</svg>
