<svg width="82" height="116" viewBox="0 0 82 116" fill="none" xmlns="http://www.w3.org/2000/svg">
<path fill-rule="evenodd" clip-rule="evenodd" d="M21.0559 5.88692C33.6188 -1.41268 49.0607 -1.2851 61.5057 6.22113C73.8284 13.8802 81.3178 27.5495 81.2481 42.2538C80.9612 56.8616 72.9305 70.593 62.892 81.208C57.0981 87.3623 50.6166 92.8043 43.5799 97.4227C42.8552 97.8418 42.0613 98.1223 41.2376 98.2505C40.4447 98.2167 39.6726 97.9825 38.9908 97.5688C28.248 90.6292 18.8232 81.7712 11.1699 71.4208C4.7659 62.7808 1.12757 52.3425 0.74903 41.5234C0.74071 26.7909 8.49292 13.1865 21.0559 5.88692ZM28.3151 47.6206C30.4284 52.8304 35.4165 56.2287 40.9504 56.2287C44.5758 56.2547 48.0608 54.8026 50.6288 52.1958C53.1969 49.589 54.6347 46.0442 54.6219 42.3512C54.6412 36.7143 51.3226 31.6214 46.2155 29.4505C41.1084 27.2797 35.2202 28.4591 31.3003 32.4381C27.3803 36.417 26.2019 42.4107 28.3151 47.6206Z" fill="#27AE60"/>
<ellipse opacity="0.4" cx="41.001" cy="109.75" rx="28.75" ry="5.75001" fill="#27AE60"/>
</svg>
