<svg width="154" height="26" viewBox="0 0 154 26" fill="none" xmlns="http://www.w3.org/2000/svg">
<path d="M12.0489 2.92705C12.3483 2.00574 13.6517 2.00574 13.9511 2.92705L15.6942 8.29179C15.828 8.70382 16.212 8.98278 16.6452 8.98278H22.2861C23.2548 8.98278 23.6576 10.2224 22.8738 10.7918L18.3103 14.1074C17.9598 14.362 17.8132 14.8134 17.947 15.2254L19.6902 20.5902C19.9895 21.5115 18.935 22.2776 18.1513 21.7082L13.5878 18.3926C13.2373 18.138 12.7627 18.138 12.4122 18.3926L7.84869 21.7082C7.06498 22.2776 6.0105 21.5115 6.30985 20.5902L8.05296 15.2254C8.18683 14.8134 8.04018 14.362 7.68969 14.1074L3.12616 10.7918C2.34245 10.2224 2.74523 8.98278 3.71395 8.98278H9.35477C9.788 8.98278 10.172 8.70382 10.3058 8.2918L12.0489 2.92705Z" fill="#F2994A"/>
<path d="M44.0489 2.92705C44.3483 2.00574 45.6517 2.00574 45.9511 2.92705L47.6942 8.29179C47.828 8.70382 48.212 8.98278 48.6452 8.98278H54.2861C55.2548 8.98278 55.6576 10.2224 54.8738 10.7918L50.3103 14.1074C49.9598 14.362 49.8132 14.8134 49.947 15.2254L51.6902 20.5902C51.9895 21.5115 50.935 22.2776 50.1513 21.7082L45.5878 18.3926C45.2373 18.138 44.7627 18.138 44.4122 18.3926L39.8487 21.7082C39.065 22.2776 38.0105 21.5115 38.3098 20.5902L40.053 15.2254C40.1868 14.8134 40.0402 14.362 39.6897 14.1074L35.1262 10.7918C34.3425 10.2224 34.7452 8.98278 35.7139 8.98278H41.3548C41.788 8.98278 42.172 8.70382 42.3058 8.2918L44.0489 2.92705Z" fill="#F2994A"/>
<path d="M76.0489 2.92705C76.3483 2.00574 77.6517 2.00574 77.9511 2.92705L79.6942 8.29179C79.828 8.70382 80.212 8.98278 80.6452 8.98278H86.2861C87.2548 8.98278 87.6576 10.2224 86.8738 10.7918L82.3103 14.1074C81.9598 14.362 81.8132 14.8134 81.947 15.2254L83.6902 20.5902C83.9895 21.5115 82.935 22.2776 82.1513 21.7082L77.5878 18.3926C77.2373 18.138 76.7627 18.138 76.4122 18.3926L71.8487 21.7082C71.065 22.2776 70.0105 21.5115 70.3098 20.5902L72.053 15.2254C72.1868 14.8134 72.0402 14.362 71.6897 14.1074L67.1262 10.7918C66.3425 10.2224 66.7452 8.98278 67.7139 8.98278H73.3548C73.788 8.98278 74.172 8.70382 74.3058 8.2918L76.0489 2.92705Z" fill="#F2994A"/>
<path d="M108.049 2.92705C108.348 2.00574 109.652 2.00574 109.951 2.92705L111.694 8.29179C111.828 8.70382 112.212 8.98278 112.645 8.98278H118.286C119.255 8.98278 119.658 10.2224 118.874 10.7918L114.31 14.1074C113.96 14.362 113.813 14.8134 113.947 15.2254L115.69 20.5902C115.99 21.5115 114.935 22.2776 114.151 21.7082L109.588 18.3926C109.237 18.138 108.763 18.138 108.412 18.3926L103.849 21.7082C103.065 22.2776 102.01 21.5115 102.31 20.5902L104.053 15.2254C104.187 14.8134 104.04 14.362 103.69 14.1074L99.1262 10.7918C98.3425 10.2224 98.7452 8.98278 99.7139 8.98278H105.355C105.788 8.98278 106.172 8.70382 106.306 8.2918L108.049 2.92705Z" fill="#CDD0D5"/>
<path d="M140.049 2.92705C140.348 2.00574 141.652 2.00574 141.951 2.92705L143.694 8.29179C143.828 8.70382 144.212 8.98278 144.645 8.98278H150.286C151.255 8.98278 151.658 10.2224 150.874 10.7918L146.31 14.1074C145.96 14.362 145.813 14.8134 145.947 15.2254L147.69 20.5902C147.99 21.5115 146.935 22.2776 146.151 21.7082L141.588 18.3926C141.237 18.138 140.763 18.138 140.412 18.3926L135.849 21.7082C135.065 22.2776 134.01 21.5115 134.31 20.5902L136.053 15.2254C136.187 14.8134 136.04 14.362 135.69 14.1074L131.126 10.7918C130.342 10.2224 130.745 8.98278 131.714 8.98278H137.355C137.788 8.98278 138.172 8.70382 138.306 8.2918L140.049 2.92705Z" fill="#CDD0D5"/>
</svg>
